/* XPM */
static xpm_row_t const number0[] = {
/* columns rows colors chars-per-pixel */
"30 30 215 2",
"   c #2F772F",
".  c #317631",
"X  c #347D34",
"o  c #347E35",
"O  c #4E7F4E",
"+  c #6C7B6C",
"@  c #6D7D6D",
"#  c #2C802C",
"$  c #308430",
"%  c #358D35",
"&  c #398D39",
"*  c #388E38",
"=  c #3D8B3D",
"-  c #3D8B3E",
";  c #3D8C3D",
":  c #3F8D3F",
">  c #329732",
",  c #329832",
"<  c #399639",
"1  c #399839",
"2  c #3B983B",
"3  c #3B9A3B",
"4  c #3C9B3C",
"5  c #35A335",
"6  c #35A435",
"7  c #36A736",
"8  c #37A837",
"9  c #3AB13A",
"0  c #3BB13B",
"q  c #3AB33A",
"w  c #3BB23A",
"e  c #3BB23B",
"r  c #3BB33B",
"t  c #3AB43A",
"y  c #3BB43B",
"u  c #3BB53B",
"i  c #3CB63C",
"p  c #3CB73C",
"a  c #3DB73D",
"s  c #3CB83C",
"d  c #3FB83F",
"f  c #3EBB3E",
"g  c #3EBC3E",
"h  c #3EBD3E",
"j  c #4A814A",
"k  c #4A834B",
"l  c #4B834B",
"z  c #4B844B",
"x  c #4C814C",
"c  c #4D824D",
"v  c #4D834D",
"b  c #4C844D",
"n  c #4E844F",
"m  c #4E854E",
"M  c #4C9E4C",
"N  c #4C9F4C",
"B  c #4D9E4D",
"V  c #548A55",
"C  c #5E985F",
"Z  c #5F9C60",
"A  c #41BD41",
"S  c #42BD42",
"D  c #6E806E",
"F  c #629762",
"G  c #609960",
"H  c #619862",
"J  c #619A61",
"K  c #639863",
"L  c #639D64",
"P  c #66A067",
"I  c #67A068",
"U  c #68A069",
"Y  c #69A169",
"T  c #6BA36B",
"R  c #6CA46D",
"E  c #6DA56E",
"W  c #6FA76F",
"Q  c #6FA570",
"!  c #71A771",
"~  c #71A871",
"^  c #73A974",
"/  c #74AA74",
"(  c #74AB75",
")  c #77AD77",
"_  c #79AD79",
"`  c #42C642",
"'  c #42C742",
"]  c #43C643",
"[  c #45CD45",
"{  c #45CE45",
"}  c #45CF45",
"|  c #46CE46",
" . c #46CF46",
".. c #46D046",
"X. c #46D146",
"o. c #47D247",
"O. c #47D347",
"+. c #47D447",
"@. c #48D648",
"#. c #48D748",
"$. c #48D848",
"%. c #49D949",
"&. c #49DA49",
"*. c #49DB49",
"=. c #4ADC4A",
"-. c #4ADD4A",
";. c #4ADE4A",
":. c #4BDF4B",
">. c #4BE04B",
",. c #4BE14B",
"<. c #4CE14C",
"1. c #4CE24C",
"2. c #4EE44E",
"3. c #808F81",
"4. c #848A85",
"5. c #878E87",
"6. c #8F8F90",
"7. c #869387",
"8. c #889A89",
"9. c #889B89",
"0. c #889C89",
"q. c #8C9C8D",
"w. c #8D9E8E",
"e. c #929393",
"r. c #91A391",
"t. c #92A593",
"y. c #97AB98",
"u. c #9CA39C",
"i. c #9CA59D",
"p. c #98AC99",
"a. c #9BAF9C",
"s. c #9CB09D",
"d. c #9EB19F",
"f. c #9FB3A0",
"g. c #A1B3A2",
"h. c #A1B4A2",
"j. c #A3B6A4",
"k. c #A4B3A5",
"l. c #ADB0AE",
"z. c #AFB2B0",
"x. c #BAB6BC",
"c. c #BCB8BD",
"v. c #BEB9BF",
"b. c #BEBABF",
"n. c #BEBBC1",
"m. c #BFBBC1",
"M. c #C0BBC2",
"N. c #C0BCC1",
"B. c #C2BDC4",
"V. c #C2BFC5",
"C. c #C3BEC5",
"Z. c #C3BFC6",
"A. c #C4BEC5",
"S. c #C4BFC6",
"D. c #C5C0C6",
"F. c #C8C4CB",
"G. c #C8C5CA",
"H. c #CAC6CB",
"J. c #CBC6CD",
"K. c #CCC7CD",
"L. c #CCC8CD",
"P. c #CCC8CE",
"I. c #CDC9CE",
"U. c #CDCACE",
"Y. c #CECACF",
"T. c #CFC9D0",
"R. c #CFC9D1",
"E. c #CFCAD0",
"W. c #CFCBD0",
"Q. c #D0CDD1",
"!. c #D1CDD2",
"~. c #D1CED2",
"^. c #D2CED3",
"/. c #D1CCD4",
"(. c #D3CFD5",
"). c #D3D0D4",
"_. c #D4D0D5",
"`. c #D4D1D5",
"'. c #D5D0D7",
"]. c #D5D2D6",
"[. c #D5D2D7",
"{. c #D6D3D7",
"}. c #D6D3D8",
"|. c #D7D3D8",
" X c #D7D4D8",
".X c #D8D4D9",
"XX c #D8D5D9",
"oX c #D9D5DA",
"OX c #D8D6D9",
"+X c #D9D6DA",
"@X c #DAD6DB",
"#X c #DAD7DB",
"$X c #DBD7DC",
"%X c #DBD8DC",
"&X c #DCD9DD",
"*X c #DDDADE",
"=X c #DEDADF",
"-X c #DEDBDF",
";X c #DEDCE0",
":X c #E0DDE1",
">X c #E1DDE2",
",X c #E1DEE2",
"<X c #E2DFE4",
"1X c #E3DFE4",
"2X c #E3E0E4",
"3X c #E4E1E5",
"4X c #E5E2E7",
"5X c #E6E3E7",
"6X c #E7E4E9",
"7X c #E8E5E9",
"8X c #E8E6E9",
"9X c #E9E7EA",
"0X c #EAE7EB",
"qX c #EAE7EC",
"wX c #EAE8EB",
/* pixels */
"2.2.<.<.<.<.<.<.<.<.<.<.<.<.<.<.1.1.1.1.1.1.1.1.1.1.1.1.1.2.",
"2.2.<.<.<.<.<.<.<.<.<.<.<.<.<.<.1.1.1.1.1.1.1.1.1.1.1.1.1.2.",
"2.2.<.<.<.<.<.<.<.<.<.<.<.<.<.<.>.1.1.>.1.1.1.1.1.1.1.1.1.2.",
"2.2.<.<.<.<.<.<.<.<.<.<.<.<.<.<.>.1.1.>.1.1.1.1.1.1.1.1.1.2.",
"2.2.<.<.<.<.<.<.1.>.>.*.*.>.*.*.*.*.*.>.>.2.,.,.1.1.1.1.1.2.",
"2.2.<.<.<.<.<.<.>.*.+.X.X.X.X.X.X.X.X.X.+.*.*.,.1.1.1.1.1.2.",
"2.2.<.<.<.<.<.*.&.X.` h p q q q q q p h ' X.&.>.>.1.1.1.1.2.",
"2.2.<.<.<.<.>.*.X.A N C F F F F F F F F N A [ *.1.1.1.1.1.2.",
"2.2.<.<.,.,.>.&.' B i.U.Y.~.~.~.(.(.~.Y.i.N ` @.,.1.1.1.1.2.",
"2.2.<.<.,.>.>.X.h C U.OX{.{.OX@X@XOX{.-X(.L h X.;.1.1.1.1.2.",
"2.2.<.<.<.<.>.X.p P ~.].].l.9.9.8.z.].%X].I p X.,.,.1.1.1.2.",
"2.2.<.<.<.<.*.X.p Y ~.].].q.o $ X w.{.@X].I q X.*.,.1.1.1.2.",
"2.2.<.<.<.,.*.X.q T ^.OX{.r.% > % t.%X*X{.R 0 X.*.,.,.,.1.2.",
"2.2.<.<.<.,.*.[ q E {.*X*Xy.< 5 3 p.>X-X%XQ q [ *.1.1.1.1.2.",
"2.2.<.<.<.<.*.X.q ~ *X>X>Xa.3 7 2 a.2X5X-X~ q [ *.,.1.1.1.2.",
"2.2.<.<.<.<.*.[ q / -X2X2Xd.3 7 4 h.5X5X1X( 0 X.,.1.1.1.1.2.",
"2.2.<.<.<.<.>.X.q ) 1X5X7Xh.2 7 2 j.9XqX4X_ 0 ..,.,.,.,.,.2.",
"2.2.<.<.<.,.*.X.i Q *X4X7Xg.& > & k.9X9X1X( i ..*.,.,.,.,.2.",
"2.2.<.<.,.>.*.X.i v v.U.U.3.  # . 7.(.{.H.V i [ *.,.,.,.,.2.",
"2.2.<.<.,.>.*.X.i j x.C.v.6.+ D @ e.B.F.D.O i ..;.,.,.,.,.2.",
"2.2.<.<.,.<.>.O.h l v.U.F.H.U.E.R.Y.(.{.D.b g +.,.,.,.,.1.2.",
"2.2.<.<.<.<.>.@.' ; 4.c.m.m.B.D.Z.Z.Z.n.5.- ] $.,.,.,.,.1.2.",
"2.2.<.<.<.<.,.*.[ p ; v v x x v O O n b : d ..&.,.,.1.1.1.2.",
"2.2.<.<.<.<.<.>.&.X.' h p q 0 0 0 0 i g ] ..$.,.1.1.1.,.1.2.",
"2.2.<.<.<.<.<.,.*.&.@.O.X.X.[ [ [ [ +...&.*.,.,.,.1.1.1.1.2.",
"2.2.<.<.<.<.<.,.,.>.>.*.*.*.*.*.*.,.,.*.,.,.,.,.,.1.1.1.1.2.",
"2.2.<.<.<.<.<.<.<.<.,.,.<.,.>.,.,.,.,.,.1.1.1.1.1.1.1.1.1.2.",
"2.2.<.<.<.<.<.<.<.<.<.<.<.<.<.<.,.,.,.,.1.1.,.1.1.1.1.1.1.2.",
"2.2.<.<.<.<.<.<.<.<.<.<.<.<.<.<.,.,.1.1.1.1.1.1.1.1.1.1.1.2.",
"2.2.<.<.<.<.<.<.<.<.<.<.<.<.<.<.,.,.1.,.1.1.1.1.1.1.1.1.1.2."
};
