/* XPM */
static xpm_row_t const number0[] = {
/* columns rows colors chars-per-pixel */
"45 50 89 1",
"  c #275E27",
". c #2E532E",
"X c #295D29",
"o c #2B632B",
"O c #2B6B2B",
"+ c #2D742D",
"@ c #356C35",
"# c #327533",
"$ c #357C35",
"% c #415142",
"& c #497D49",
"* c #507C50",
"= c #626462",
"- c #636963",
"; c #6C6C6D",
": c #6D7E6D",
"> c #2E812E",
", c #2E8A2E",
"< c #328B32",
"1 c #349534",
"2 c #349C34",
"3 c #37A237",
"4 c #37A937",
"5 c #39A639",
"6 c #39AB39",
"7 c #3DB43D",
"8 c #3FBC3F",
"9 c #478147",
"0 c #468F46",
"q c #4B844B",
"w c #4F884F",
"e c #479347",
"r c #538C54",
"t c #579158",
"y c #5C945C",
"u c #41AF41",
"i c #42B542",
"p c #40BD40",
"a c #6D826E",
"s c #619761",
"d c #659B65",
"f c #6A9A6A",
"g c #718672",
"h c #748A75",
"j c #7B927C",
"k c #6AA06B",
"l c #42C242",
"z c #45CC45",
"x c #47D247",
"c c #48D648",
"v c #4ADC4A",
"b c #4CE24C",
"n c #848584",
"m c #809781",
"M c #849A85",
"N c #879B88",
"B c #8A928B",
"V c #899D8A",
"C c #9B9B9C",
"Z c #A29DA3",
"A c #A6A2A7",
"S c #AAA5AC",
"D c #ACA8AE",
"F c #AEA7B0",
"G c #AFABB0",
"H c #B3AEB4",
"J c #B6B1B7",
"K c #B7B3B8",
"L c #BAB5BC",
"P c #BEBCC1",
"I c #C1BEC4",
"U c #C6C1C6",
"Y c #C7C3C8",
"T c #CAC5CB",
"R c #CDCACE",
"E c #CCC6D0",
"W c #CECBD0",
"Q c #D2CDD4",
"! c #D5CFD8",
"~ c #D5D2D6",
"^ c #D7D4D8",
"/ c #D9D6DA",
"( c #DCD9DD",
") c #DFDCE0",
"_ c #E1DEE2",
"` c #E3E1E5",
"' c #E7E4E8",
"] c #E9E7EA",
"[ c #EBE9ED",
/* pixels */
"bbbbbbbbbbbbbbbbbbbbbbbbbbbbbbbbbbbbbbbbbbbbb",
"bbbbbbbbbbbbbbbbbbbbbbbbbbbbbbbbbbbbbbbbbbbbb",
"bbbbbbbbbbbbbbbbbbbbbbbbbbbbbbbbbbbbbbbbbbbbb",
"bbbbbbbbbbbbbbbbbbbbbbbbbbbbbbbbbbbbbbbbbbbbb",
"bbbbbbbbbbbbbbbbbbbbbbbbbbbbbbbbbbbbbbbbbbbbb",
"bbbbbbbbbbbbbbbbbbbbbbbbbbbbbbbbbbbbbbbbbbbbb",
"bbbbbbbbbbbbbbbbbbbbbbbvvbbbbbbbbbbbbbbbbbbbb",
"bbbbbbbbbbbbbbvvbvbvvvvvvvvvvbbbbbbbbbbbbbbbb",
"bbbbbbbbbbbbvvvvccvvvcccccvccvvvbbbbbbbbbbbbb",
"bbbbbbbbbbbvvcxxzzzzzzzzzzzzzxxxvvvbbbbbbbbbb",
"bbbbbbbbbvvcxzzlll888888888lllzxxvvbbbbbbbbbb",
"bbbbbbbbvvvxzl87766466646666778lzzvvvbbbbbbbb",
"bbbbbbbbvvxzl709999&&&&&&&&&&qe7lzzvbbbbbbbbb",
"bbbbbbbbvvxlu*nKUUYYYYYYYTTTYKn&7lzvvbbbbbbbb",
"bbbbbbbbvxz8en^)///(((((((((/_/nepzcvbbbbbbbb",
"bbbbbbbbvxl7qK)^^^^^/(((((//(_'Lw7lzcvbbbbbbb",
"bbbbbbbbvzl6eY(~~~~~~///~~^^^/)Rw7lzvbbbbbbbb",
"bbbbbbbbvzl6rY(~~~YCBBBBBCW~^((Rw6lzcbbbbbbbb",
"bbbbbbbvcz86rT/~~/Ya#$$##aR//()Rr4lzcvbbbbbbb",
"bbbbbbbvvzl6rT/~~~Ta>,,,>aR^/~(Rr68zcbbbbbbbb",
"bbbbbbbvcz84tR/~~/Rg,111,g~//()Rt48zvvvbbbbbb",
"bbbbbbvvcz86tW((/(~h,222<h~_())~y6izcvbbbbbbb",
"bbbbbbbvcz86yW((()~j23431j/_)_`~y47zcvbbbbbbb",
"bbbbbbbvcz84y~`))`/j13431j/'__`^y48zcvbbbbbbb",
"bbbbbbbvvz84s^`_`_/m15451m('`''/s48zcvvbbbbbb",
"bbbbbbbvcl83s^`___/m15651m)'''[/s4pzcbbbbbbbb",
"bbbbbbbvvzp4d(''_[)M15431M)[]][(d4izvbbbbbbbb",
"bbbbbbbbvzp4d)]'_[_M13431V`[][[_f48zcvbbbbbbb",
"bbbbbbbvcz84f_]']]_M<232<V_[]][_k4pzvvbbbbbbb",
"bbbbbbbvvzp4y~''][_V<<2<<B][[[[_d4pzcvbbbbbbb",
"bbbbbbvvczp6oDREQ~R:>,,,$g!_/((L@6pzcvbbbbbbb",
"bbbbbbbvvzp6 SYIPIS%O+++O%JIIE!HX6pzvvbbbbbbb",
"bbbbbbvvvzl6 STIPIJ;=----;LIII/H.6pxcbbbbbbbb",
"bbbbbbbvvzl7oGQYUIUUYUTTTTEQEQ/Jo6pxcvbbbbbbb",
"bbbbbbbbvxl7oA~RRTRWWQ~~QQQQ~!(Fo8zxvbbbbbbbb",
"bbbbbbbbvxz8+=WQWWRWQQ~QQQ!Q!^~-#izxbbbbbbbbb",
"bbbbbbbbvcxlu.=ZGHGHHHJJHHJJHZ=.6lxcvbbbbbbbb",
"bbbbbbbbbcxz85$oooXXXXXoX.XXoo$upzccvbvbbbbbb",
"bbbbbbbbbbcxzlp7i7665666666u77plzxcvbbbbbbbbb",
"bbbbbbbbbbvcxzzlppppipiippppllzzxvcbbbbbbbbbb",
"bbbbbbbbbbvvvccxxxzzzzzzzzzxxxcvvbbbbbbbbbbbb",
"bbbbbbbbbbbvvvvcvcccccccccvvccvbvbbbbbbbbbbbb",
"bbbbbbbbbbvbbvvbvvvvvvvvvvbvvvbbbbbbbbbbbbbbb",
"bbbbbbbbbbbbbbbbbbbbvbbvbbbbbbbbbbbbbbbbbbbbb",
"bbbbbbbbbbbbbbbbbbbbbbbbbbbbbbbbbbbbbbbbbbbbb",
"bbbbbbbbbbbbbbbbbbbbbbbbbbbbbbbbbbbbbbbbbbbbb",
"bbbbbbbbbbbbbbbbbbbbbbbbbbbbbbbbbbbbbbbbbbbbb",
"bbbbbbbbbbbbbbbbbbbbbbbbbbbbbbbbbbbbbbbbbbbbb",
"bbbbbbbbbbbbbbbbbbbbbbbbbbbbbbbbbbbbbbbbbbbbb",
"bbbbbbbbbbbbbbbbbbbbbbbbbbbbbbbbbbbbbbbbbbbbb"
};
