/* XPM */
static xpm_row_t const number1[] = {
/* columns rows colors chars-per-pixel */
"38 50 79 1",
"  c #2E752E",
". c #326832",
"X c #327E32",
"o c #3D733D",
"O c #3F783F",
"+ c #4E6F4E",
"@ c #517551",
"# c #5A765A",
"$ c #677367",
"% c #787D78",
"& c #358435",
"* c #3F843F",
"= c #3C8D3C",
"- c #319531",
"; c #359F35",
": c #3D913D",
"> c #3E9C3E",
", c #36A436",
"< c #3AAE3B",
"1 c #3CB23C",
"2 c #3EBB3E",
"3 c #428E42",
"4 c #429443",
"5 c #449B44",
"6 c #4A9C4A",
"7 c #41A441",
"8 c #4BA54B",
"9 c #4EAB4E",
"0 c #45B245",
"q c #41BD41",
"w c #4AB74A",
"e c #669E66",
"r c #7C857D",
"t c #64A364",
"y c #67A168",
"u c #68A169",
"i c #42C342",
"p c #46CD46",
"a c #48C048",
"s c #48CC48",
"d c #47D147",
"f c #49D549",
"g c #4BDC4B",
"h c #4CE24C",
"j c #818C81",
"k c #898E8A",
"l c #8C928E",
"z c #939593",
"x c #969997",
"c c #9B9D9C",
"v c #9DA39D",
"b c #9FA1A0",
"n c #A3A5A3",
"m c #A6AAA6",
"M c #A7ABA8",
"N c #A9A6AA",
"B c #AAACAB",
"V c #ABB0AB",
"C c #AFB1B0",
"Z c #B1B3B2",
"A c #B6B9B6",
"S c #BBBBBC",
"D c #BFBAC0",
"F c #C2BDC2",
"G c #C5C0C6",
"H c #C9C6CA",
"J c #CCCACE",
"K c #CECCD0",
"L c #D1CED2",
"P c #D4D2D6",
"I c #D6D4D8",
"U c #D9D6DB",
"Y c #DDD9DE",
"T c #DEDBE0",
"R c #E1DEE2",
"E c #E5E2E6",
"W c #E6E4E8",
"Q c #E8E6E9",
"! c #ECEAED",
/* pixels */
"hhhhhhhhhhhhhhhhhhhhhhhhhhhhhhhhhhhhhh",
"hhhhhhhhhhhhhhhhhhhhhhhhhhhhhhhhhhhhhh",
"hhhhhhhhhhhhhhhhhhhhhhhhhhhhhhhhhhhhhh",
"hhhhhhhhhhhhhhhhhhhhhhhhhhhhhhhhhhhhhh",
"hhhhhhhhhhhhhhhhhhhhhhhhhhhhhhhhhhhhhh",
"hhhhhhhhhhhhhhhhhhhhhhhhhhhhhhhhhhhhhh",
"hhhhhhhhhhhhhhhhhhhhhhhhhhhhhhhhhhhhhh",
"hhhhhhhhhhhhhggghghggghghhhhhhhhhhhhhh",
"hhhhhhhhhhhhgggggfggfgfgggghhhhhhhhhhh",
"hhhhhhhhhhgggdddpppppppdfgghhhhhhhhhhh",
"hhhhhhhhhgggdppii222qiippdfghhhhhhhhhh",
"hhhhhhhhgggpsi22<<<<<<12qpdfghhhhhhhhh",
"hhhhhhhhggfpq4oOoooooooO*0pdfghhhhhhhh",
"hhhhhhhhgfdi1+NHGFDDDFFGr5ipfghhhhhhhh",
"hhhhhhhhgfpq5$YRYUPPPPIYk:2pdgghhhhhhh",
"hhhhhhhhgfp2=xERYPLKKLPIk:2ipghghhhhhh",
"hhhhhhhhgfpq@STUPLKJJJKPk:1idghhhhhhhh",
"hhhhhhhhhfp0#jjrr%mKHJKLk31adghhhhhhhh",
"hhhhhhhhgfdp07>=X.zLJJKLk=1qsfghhhhhhh",
"hhhhhhhhhgfdiq1;- zLHHJLk3<qdgghhhhhhh",
"hhhhhhhhhgffpp2<;XxLKJKPk31qsfghhhhhhh",
"hhhhhhhhhghgfpq2,&cPKKLPl=12dgghhhhhhh",
"hhhhhhhhhhhffdp1<&vYPLPIz31ipgghhhhhhh",
"hhhhhhhhhhhhgfpi<&bYPPIYz31qpfghhhhhhh",
"hhhhhhhhhhhhgfpi<=bTUIUYx:1qsfghhhhhhh",
"hhhhhhhhhhhhgfpi<=NTUUUYc3<idgghhhhhhh",
"hhhhhhhhhhhhhfpi<=MRYYTRc3<ipghhhhhhhh",
"hhhhhhhhhhhhggpi1=NRYYTRv3<qpfhhhhhhhh",
"hhhhhhhhhhhghfpi1:MTTTTRv:1ipgghhhhhhh",
"hhhhhhhhhhhhggpi<:CWRRRRv31qpggghhhhhh",
"hhhhhhhhhhhhhfpi1:CWRRREn41qpgghhhhhhh",
"hhhhhhhhhhhhhfpi1>CWRRREn41qpgghhhhhhh",
"hhhhhhhhhhhhhfdi15ZWRRRWm41idfghhhhhhh",
"hhhhhhhhhhhhhgfi1>AQEWWQm61idgghhhhhhh",
"hhhhhhhhhhhhhgfi25S!QWQQB62iffghhhhhhh",
"hhhhhhhhhhhhgffp28S!!!!!B6qpfghhhhhhhh",
"hhhhhhhhhhhhhhgpq9ARYTTTM9ipfghhhhhhhh",
"hhhhhhhhhhhhhhgdpwtueeeytwpdfgghhhhhhh",
"hhhhhhhhhhhhhhgdppi22122qppfgghhhhhhhh",
"hhhhhhhhhhhhhhggfdppiiwppffgghhhhhhhhh",
"hhhhhhhhhhhhhhhhggffdssdghhhhhhhhhhhhh",
"hhhhhhhhhhhhhhhgggggggggghhhhhhhhhhhhh",
"hhhhhhhhhhhhhhhhhhhhgggghhhhhhhhhhhhhh",
"hhhhhhhhhhhhhhhhhhghghhhghhhhhhhhhhhhh",
"hhhhhhhhhhhhhhhhhhhhhhhhhhhhhhhhhhhhhh",
"hhhhhhhhhhhhhhhhhhhhhhhhhhhhhhhhhhhhhh",
"hhhhhhhhhhhhhhhhhhhhhhhhhhhhhhhhhhhhhh",
"hhhhhhhhhhhhhhhhhhhhhhhhhhhhhhhhhhhhhh",
"hhhhhhhhhhhhhhhhhhhhhhhhhhhhhhhhhhhhhh",
"hhhhhhhhhhhhhhhhhhhhhhhhhhhhhhhhhhhhhh"
};
