/* XPM */
static xpm_row_t const number1[] = {
/* columns rows colors chars-per-pixel */
"30 30 161 2",
"   c #3F7D3F",
".  c #359535",
"X  c #38AC38",
"o  c #3EAC3E",
"O  c #3AB53B",
"+  c #3BB63B",
"@  c #3CB63C",
"#  c #3DBB3D",
"$  c #3EBA3E",
"%  c #3EBA3F",
"&  c #3EBB3E",
"*  c #3EBC3E",
"=  c #3EBD3E",
"-  c #3EBD3F",
";  c #3FBD3F",
":  c #3FBE3F",
">  c #3FBF3F",
",  c #438D43",
"<  c #469346",
"1  c #499749",
"2  c #4A954A",
"3  c #4A974A",
"4  c #4B964B",
"5  c #4D944E",
"6  c #4C974C",
"7  c #499949",
"8  c #4A9D4A",
"9  c #4D994D",
"0  c #4C9A4C",
"q  c #4C9B4D",
"w  c #4E984F",
"e  c #4E9A4E",
"r  c #4E9B4E",
"t  c #4D9E4E",
"y  c #539753",
"u  c #559555",
"i  c #579757",
"p  c #509D51",
"a  c #5A915B",
"s  c #5B915B",
"d  c #5C935C",
"f  c #5C955D",
"g  c #44A044",
"h  c #4EA14F",
"j  c #46B346",
"k  c #41BB41",
"l  c #42BA42",
"z  c #41BC41",
"x  c #44BF44",
"c  c #4EBB4E",
"v  c #4EBC4E",
"b  c #52A052",
"n  c #51A551",
"m  c #56A556",
"M  c #53A853",
"N  c #58AA58",
"B  c #59AF59",
"V  c #71AF72",
"C  c #72B273",
"Z  c #78B279",
"A  c #40C040",
"S  c #40C140",
"D  c #41C341",
"F  c #41C441",
"G  c #42C542",
"H  c #42C642",
"J  c #42C742",
"K  c #45C745",
"L  c #42C842",
"P  c #43C843",
"I  c #44CA44",
"U  c #45CC45",
"Y  c #46CF46",
"T  c #46D046",
"R  c #47D047",
"E  c #47D147",
"W  c #47D247",
"Q  c #47D347",
"!  c #48D148",
"~  c #49D149",
"^  c #48D248",
"/  c #48D348",
"(  c #48D448",
")  c #48D548",
"_  c #49D649",
"`  c #49D749",
"'  c #49D849",
"]  c #49D949",
"[  c #4AD84A",
"{  c #4AD94A",
"}  c #4ADA4A",
"|  c #4ADB4A",
" . c #4ADC4A",
".. c #4BDC4B",
"X. c #4BDD4B",
"o. c #4BDE4B",
"O. c #4BDF4B",
"+. c #4BE04B",
"@. c #4BE14B",
"#. c #4CE14C",
"$. c #4CE24C",
"%. c #4EE44E",
"&. c #849284",
"*. c #819982",
"=. c #829D82",
"-. c #96A096",
";. c #A8ABA9",
":. c #ACAEAD",
">. c #ACAFAD",
",. c #ADB1AF",
"<. c #AEB2B0",
"1. c #AFB2B0",
"2. c #B2B5B4",
"3. c #B6B9B7",
"4. c #B7B8B8",
"5. c #B9BABB",
"6. c #B9BBBA",
"7. c #BABCBB",
"8. c #BDBFBD",
"9. c #BDBFBF",
"0. c #BFBEC0",
"q. c #BDC0BE",
"w. c #BEC0BF",
"e. c #C1C3C2",
"r. c #C1C5C3",
"t. c #C3C6C4",
"y. c #C4C7C5",
"u. c #C4C8C6",
"i. c #C6C9C7",
"p. c #C6CAC7",
"a. c #C9C5CA",
"s. c #CACDCB",
"d. c #CCC9CD",
"f. c #CDC9CE",
"g. c #CDC9CF",
"h. c #CCCACE",
"j. c #CECBCF",
"k. c #CCCFCC",
"l. c #CECCD0",
"z. c #CFCCD1",
"x. c #CFCDD1",
"c. c #D0CDD2",
"v. c #D4CFD4",
"b. c #D3D1D5",
"n. c #D4D1D6",
"m. c #D4D2D6",
"M. c #D8D6DA",
"N. c #D9D6DB",
"B. c #DCD9DE",
"V. c #DEDAE0",
"C. c #DEDBE0",
"Z. c #DFDCE1",
"A. c #E1DEE2",
"S. c #E1DEE3",
"D. c #E2DFE3",
"F. c #E3E0E4",
"G. c #E3E0E5",
"H. c #E4E1E5",
"J. c #E5E2E6",
"K. c #E5E3E7",
"L. c #E8E6EA",
/* pixels */
"%.%.%.%.$.$.$.$.$.$.$.$.$.$.$.$.$.$.$.$.$.$.$.$.$.$.$.$.%.%.",
"%.%.%.%.$.$.$.$.$.$.$.$.$.$.$.$.$.$.$.$.$.$.$.$.$.$.$.%.%.%.",
"%.%.%.%.$.$.$.$.$.$.$.$.$.$.$.$.$.$.$.$.$.$.$.$.$.$.$.%.%.%.",
"%.%.%.%.$.$.$.$.$.$.$.$.$.$.$.$.$.$.$.$.$.$.$.$.$.$.$.%.%.%.",
"%.%.%.%.$.$.$.$.$.+.$.+.X.X.X.X.X.X.X.$.$.$.$.$.$.$.$.%.%.%.",
"%.%.%.%.$.$.$.$.$.+.+.} ) ) E E E E ) } $.$.$.$.$.$.$.%.%.%.",
"%.%.%.%.$.$.$.$.$.X.} E H = + + @ $ H E ) $.$.$.$.$.$.%.%.%.",
"%.%.%.%.$.$.$.$.+.X.E l 5 f a a a s i j U } $.$.$.$.$.%.%.%.",
"%.%.%.%.$.$.$.$.+.} I g -.n.g.a.a.g.;.8 J ) X.$.$.$.$.%.%.%.",
"%.%.%.%.$.$.$.$.$.) H y 0.B.n.z.j.n.,.0 > Q X.$.$.$.$.%.%.%.",
"%.%.%.%.$.$.$.$.$.} K i =.*.&.5.g.j.:.2 S ) $.$.$.$.$.%.%.%.",
"%.%.%.%.$.$.$.$.$.} E x o .   :.g.j.:.1 $ E X.$.$.$.$.%.%.%.",
"%.%.%.%.$.$.$.$.+.+.} E D X , 2.j.z.,.1 % ^ | $.$.$.$.%.%.%.",
"%.%.%.%.$.$.$.$.+.+.X.) U @ < 3.n.n.2.e % ^ o.$.$.$.$.%.%.%.",
"%.%.%.%.$.$.$.$.$.$.+.X.E = 1 5.M.M.5.e % ^ o.$.$.$.$.%.%.%.",
"%.%.%.%.$.$.$.$.$.$.+.X.E = 0 8.B.B.5.w = ^ o.$.$.$.$.%.%.%.",
"%.%.%.%.$.$.$.$.$.$.+.+.E = 8 w.B.A.9.e $ E $.$.$.$.$.%.%.%.",
"%.%.%.%.$.$.$.$.$.$.+.+.Q = t e.S.A.9.t = ^ } $.$.$.$.%.%.%.",
"%.%.%.%.$.$.$.$.$.$.+.+.E > h p.D.D.r.p $ E X.$.$.$.$.%.%.%.",
"%.%.%.%.$.$.$.$.$.$.+.+.Q > n p.D.D.y.b ; ^ X.$.$.$.$.%.%.%.",
"%.%.%.%.$.$.$.$.$.$.$.+.} S M k.L.L.p.m D E X.$.$.$.$.%.%.%.",
"%.%.%.%.$.$.$.$.$.$.$.+.} J B s.K.D.y.N J } $.$.$.$.$.%.%.%.",
"%.%.%.%.$.$.$.$.$.$.+.+.X.U c C Z Z V c U } X.$.$.$.$.%.%.%.",
"%.%.%.%.$.$.$.$.$.$.$.+.X.} E J D l H E } X.$.$.$.$.$.%.%.%.",
"%.%.%.%.$.$.$.$.$.$.$.$.$.+.} ) E ^ } X.$.$.$.$.$.$.$.$.%.%.",
"%.%.%.%.$.$.$.$.$.$.$.$.$.+.+.+.X.X.X.$.$.$.$.$.$.$.$.%.%.%.",
"%.%.%.%.$.$.$.$.$.$.$.$.$.$.$.+.$.$.$.$.$.$.$.$.$.$.$.%.%.%.",
"%.%.%.%.$.$.$.$.$.$.$.$.$.$.$.$.$.$.$.$.$.$.$.$.$.$.$.%.%.%.",
"%.%.%.%.$.$.$.$.$.$.$.$.$.$.$.$.$.$.$.$.$.$.$.$.$.$.$.%.%.%.",
"%.%.%.%.$.$.$.$.$.$.$.$.$.$.$.$.$.$.$.$.$.$.$.$.$.$.$.%.%.%."
};
