/* XPM */
static xpm_row_t const number2[] = {
/* columns rows colors chars-per-pixel */
"30 30 251 2",
"   c #297629",
".  c #2D7F2D",
"X  c #306C30",
"o  c #4C714C",
"O  c #517D51",
"+  c #537C53",
"@  c #6F7C6F",
"#  c #298329",
"$  c #2E802E",
"%  c #2E8C2E",
"&  c #308630",
"*  c #348F34",
"=  c #3D863E",
"-  c #3D8C3D",
";  c #3F8C3F",
":  c #309630",
">  c #339E33",
",  c #399E39",
"<  c #33A134",
"1  c #35A435",
"2  c #36A636",
"3  c #37A737",
"4  c #39AB39",
"5  c #38AC38",
"6  c #39AF39",
"7  c #3AB33A",
"8  c #3BB43A",
"9  c #3BB43B",
"0  c #3BB53B",
"q  c #3BB63B",
"w  c #3CB33C",
"e  c #3DB33D",
"r  c #3CB43C",
"t  c #3CB53C",
"y  c #3CB63C",
"u  c #3CB73C",
"i  c #3DB63D",
"p  c #3FB53F",
"a  c #3DB83C",
"s  c #3DB83D",
"d  c #3DB93C",
"f  c #3DB93D",
"g  c #3EB93E",
"h  c #3EBB3D",
"j  c #3EBD3E",
"k  c #3FBC3F",
"l  c #3FBD3F",
"z  c #3FBE3F",
"x  c #3FBF3F",
"c  c #3FC03F",
"v  c #4B824C",
"b  c #4B834C",
"n  c #4B844B",
"m  c #4C804C",
"M  c #4D824D",
"N  c #4D834E",
"B  c #4E834E",
"V  c #4E854E",
"C  c #4F844F",
"Z  c #4F864F",
"A  c #4D8A4E",
"S  c #4F8450",
"D  c #419341",
"F  c #409D40",
"G  c #469D46",
"H  c #469E46",
"J  c #508450",
"K  c #508550",
"L  c #518751",
"P  c #568156",
"I  c #568357",
"U  c #538953",
"Y  c #538A53",
"T  c #508D50",
"R  c #588659",
"E  c #5A8B5B",
"W  c #519151",
"Q  c #509850",
"!  c #519951",
"~  c #589B58",
"^  c #5D9C5D",
"/  c #5E9C5E",
"(  c #5E9C5F",
")  c #5F9960",
"_  c #43A343",
"`  c #45A645",
"'  c #42A942",
"]  c #48A148",
"[  c #4AA74A",
"{  c #4CA74C",
"}  c #4BAD4B",
"|  c #4BAF4A",
" . c #40B940",
".. c #46BD46",
"X. c #57A257",
"o. c #648764",
"O. c #629762",
"+. c #629862",
"@. c #639863",
"#. c #649A64",
"$. c #659D66",
"%. c #63A063",
"&. c #65A065",
"*. c #66A066",
"=. c #67A668",
"-. c #62AE62",
";. c #6CA66C",
":. c #6FA66F",
">. c #6CA86C",
",. c #75AE75",
"<. c #78B079",
"1. c #40C240",
"2. c #41C341",
"3. c #42C042",
"4. c #41C441",
"5. c #42C642",
"6. c #42C742",
"7. c #43C743",
"8. c #42C842",
"9. c #43C843",
"0. c #43C943",
"q. c #44CA44",
"w. c #44CC44",
"e. c #45CC45",
"r. c #45CD45",
"t. c #45CE45",
"y. c #45CF45",
"u. c #46CE46",
"i. c #46CF46",
"p. c #46D046",
"a. c #46D146",
"s. c #47D147",
"d. c #47D247",
"f. c #47D347",
"g. c #47D447",
"h. c #48D448",
"j. c #48D548",
"k. c #48D648",
"l. c #48D748",
"z. c #49D749",
"x. c #48D848",
"c. c #49D849",
"v. c #49D949",
"b. c #49DA49",
"n. c #4AD94A",
"m. c #4ADA4A",
"M. c #4ADB4A",
"N. c #4ADC4A",
"B. c #4ADD4A",
"V. c #4BDC4B",
"C. c #4BDD4B",
"Z. c #4BDE4B",
"A. c #4BDF4B",
"S. c #4BE04B",
"D. c #4BE14B",
"F. c #4CE14C",
"G. c #4CE24C",
"H. c #4EE44E",
"J. c #848A85",
"K. c #879B88",
"L. c #899789",
"P. c #899F8A",
"I. c #8B9F8C",
"U. c #8D9D8E",
"Y. c #85A986",
"T. c #8DA38D",
"R. c #8CA78D",
"E. c #8DA68E",
"W. c #8DA78E",
"Q. c #95AA96",
"!. c #A0A9A1",
"~. c #ABB3AC",
"^. c #B6B4B7",
"/. c #BCB7BD",
"(. c #B9BABA",
"). c #BCBBBD",
"_. c #BEB9BF",
"`. c #BEBABF",
"'. c #BEBAC0",
"]. c #B5C3B6",
"[. c #BBC5BC",
"{. c #BDC8BE",
"}. c #BEC9BF",
"|. c #BECABF",
" X c #C0BCC1",
".X c #C2BDC3",
"XX c #C4BFC5",
"oX c #C1C1C3",
"OX c #C5C1C7",
"+X c #C4C7C5",
"@X c #C7C3C8",
"#X c #C1CCC2",
"$X c #C1CDC2",
"%X c #C8C7C9",
"&X c #CAC6CB",
"*X c #CAC7CB",
"=X c #CAC6CC",
"-X c #C8C9C9",
";X c #C9C8CA",
":X c #C9CACA",
">X c #C9CBCA",
",X c #CACBCB",
"<X c #CBCACC",
"1X c #CCC8CD",
"2X c #CCC9CD",
"3X c #CDC9CE",
"4X c #CECACF",
"5X c #CCCECD",
"6X c #CFCCD1",
"7X c #D0CCD1",
"8X c #D0CCD2",
"9X c #D2CFD3",
"0X c #D3D0D4",
"qX c #D3D1D4",
"wX c #D4D1D5",
"eX c #D4D1D6",
"rX c #D5D3D7",
"tX c #D6D3D7",
"yX c #D6D4D7",
"uX c #D7D4D8",
"iX c #D8D4D9",
"pX c #D8D5D9",
"aX c #D8D5DA",
"sX c #D9D6DA",
"dX c #DAD7DB",
"fX c #DAD8DB",
"gX c #DBD8DC",
"hX c #DCD8DD",
"jX c #DCDADD",
"kX c #DEDADF",
"lX c #DEDBDF",
"zX c #DEDCE0",
"xX c #DFDCE0",
"cX c #E1DFE2",
"vX c #E2DFE3",
"bX c #E3E1E4",
"nX c #E4E2E5",
"mX c #E4E3E6",
"MX c #E5E2E6",
"NX c #E6E3E7",
"BX c #E6E4E7",
"VX c #E7E4E8",
"CX c #E7E5E8",
"ZX c #E8E6E9",
"AX c #E8E6EA",
"SX c #E9E6EA",
"DX c #EAE7EB",
"FX c #EBE8EC",
"GX c #EBE8ED",
"HX c #ECE9ED",
"JX c #ECEAED",
/* pixels */
"H.H.G.G.G.G.G.G.G.G.G.G.G.G.G.G.G.G.G.G.G.G.G.G.G.G.G.G.G.H.",
"H.H.G.G.G.G.G.G.G.G.G.G.G.G.G.G.G.G.G.G.G.G.G.G.G.G.G.G.G.H.",
"H.H.G.G.G.G.G.G.G.G.G.G.G.G.G.G.G.G.G.G.G.G.G.G.G.G.G.G.G.H.",
"H.H.G.G.G.G.G.G.G.G.G.G.G.G.G.G.G.S.G.S.G.G.G.G.G.G.G.G.G.H.",
"H.H.G.G.G.G.G.G.S.S.N.N.N.N.N.N.N.N.N.S.G.G.G.G.G.G.G.G.G.H.",
"H.H.G.G.G.G.G.G.N.n.k.a.u.u.u.u.a.a.a.a.k.N.N.G.G.G.G.G.G.H.",
"H.H.G.G.G.G.G.N.n.u.4.j t t 7 7 7 7 s j 4.d.n.G.G.G.G.G.G.H.",
"H.H.G.G.G.G.S.n.q.} *.#.#.@.+.+.+.+.#.+.] 3.f.A.G.G.G.G.G.H.",
"H.H.G.G.G.G.A.k.4.*.9XhXiXrXeXeXqXqX8X*XU.` 5.n.S.G.G.G.G.H.",
"H.H.G.G.G.A.A.n.4.;.zXMXvXxXhXhXsXiXiXzXoX~ j k.S.G.G.G.G.H.",
"H.H.G.G.G.G.A.n.4.X.E.E.T.T.I.K.L.(.rXgX:X/ s k.S.S.G.G.G.H.",
"H.H.G.G.G.G.Z.n.u.t , * & . .   X !.iXsX:X/ s a.N.G.G.G.G.H.",
"H.H.G.G.G.G.Z.n.u.s F W T Z V m O ~.gXhX,X/ s a.N.G.G.G.G.H.",
"H.H.G.G.G.G.Z.k.4.{ Q.+X:X:X,X:X:XrXbXbXqX%.d a.N.S.G.G.G.H.",
"H.H.G.G.G.G.Z.g.k >.iXDXAXAXGXGXDXDXDXJXsX=.c f.S.G.G.G.G.H.",
"H.H.G.G.G.G.Z.s.s ,.xXmXbX5X[.{.|.|.$X$X].-.5.n.S.G.G.G.G.H.",
"H.H.G.G.G.G.A.g.t <.bXAXNXR.= D G G ] [ } ..a.N.S.G.G.G.G.H.",
"H.H.G.G.G.G.N.a.t :.zXAXNXY.% > 3 5 7 t j 0.k.N.S.S.G.G.G.H.",
"H.H.G.G.G.A.N.a.7 L '.5X=Xo.# : < 1 1 5 s 4.f.N.S.H.G.G.G.H.",
"H.H.G.G.G.A.N.a.t m /.OX X@ o + P I R E Y _ a.n.S.G.G.G.G.H.",
"H.H.G.G.G.G.Z.g.j n _.8X&X&X*X8XeXrXiXzX).Q 5.n.G.G.G.G.G.H.",
"H.H.G.G.G.G.S.n.5.; J._.XXXX%X*X*X6XqXrX^.Q 5.n.S.G.G.G.G.H.",
"H.H.G.G.G.G.A.N.a.s ; V m m V m L S Y Y A ' f.N.S.S.G.G.G.H.",
"H.H.G.G.G.G.G.A.n.a.5. .s t 0 t w 7 7 s 4.u.n.N.G.G.G.G.G.H.",
"H.H.G.G.G.G.G.A.A.N.n.a.a.a.u.w.u.d.a.a.n.n.N.G.G.G.G.G.G.H.",
"H.H.G.G.G.G.G.G.G.A.N.N.N.S.n.N.n.A.A.N.G.S.G.S.G.G.G.G.G.H.",
"H.H.G.G.G.G.G.G.G.G.A.G.G.G.A.G.S.G.G.G.G.G.G.G.G.G.G.G.G.H.",
"H.H.G.G.G.G.G.G.G.G.A.G.G.G.G.G.G.G.G.G.G.G.G.G.G.G.G.G.G.H.",
"H.H.G.G.G.G.G.G.G.G.G.G.G.G.G.G.G.G.G.G.G.G.G.G.G.G.G.G.G.H.",
"H.H.G.G.G.G.G.G.G.G.G.G.G.G.G.G.G.G.G.G.G.G.G.G.G.G.G.G.G.H."
};
