/* XPM */
static xpm_row_t const number2[] = {
/* columns rows colors chars-per-pixel */
"45 50 112 2",
"   c #283B28",
".  c #1C501C",
"X  c #2D4E2D",
"o  c #275E27",
"O  c #2E522E",
"+  c #2A5E2A",
"@  c #2F5430",
"#  c #325732",
"$  c #335B34",
"%  c #256925",
"&  c #2B622B",
"*  c #2D6A2D",
"=  c #257225",
"-  c #277F27",
";  c #2B732B",
":  c #2C7C2C",
">  c #336433",
",  c #317331",
"<  c #357D35",
"1  c #417741",
"2  c #497D49",
"3  c #616261",
"4  c #687968",
"5  c #727973",
"6  c #7B7B7B",
"7  c #2B832B",
"8  c #2D8A2D",
"9  c #308130",
"0  c #328A32",
"q  c #388538",
"w  c #3B8C3B",
"e  c #329432",
"r  c #349C34",
"t  c #3E953E",
"y  c #36A237",
"u  c #3BA53B",
"i  c #38AA37",
"p  c #3AAC3A",
"a  c #3CB33C",
"s  c #3FBA3F",
"d  c #418F41",
"f  c #4B824B",
"g  c #4C8D4C",
"h  c #419041",
"j  c #429C42",
"k  c #4C914C",
"l  c #518251",
"z  c #568C56",
"x  c #529452",
"c  c #559B56",
"v  c #5A915A",
"b  c #42A442",
"n  c #41A941",
"m  c #43B243",
"M  c #40BD40",
"N  c #51AE52",
"B  c #58A158",
"V  c #6F8C70",
"C  c #639D63",
"Z  c #738B73",
"A  c #7D8C7D",
"S  c #7D937D",
"D  c #69A16A",
"F  c #7CA27C",
"G  c #42C342",
"H  c #45CC45",
"J  c #47D247",
"K  c #48D648",
"L  c #4BDC4B",
"P  c #4CE24C",
"I  c #7F9980",
"U  c #848585",
"Y  c #888E88",
"T  c #819D82",
"R  c #8B948C",
"E  c #8E9A8E",
"W  c #929393",
"Q  c #919B91",
"!  c #9E9A9F",
"~  c #84A284",
"^  c #87A987",
"/  c #8AA48A",
"(  c #A09CA1",
")  c #A5A1A6",
"_  c #A7A8A7",
"`  c #ABA6AD",
"'  c #ABABAC",
"]  c #AEB0AF",
"[  c #B3AEB4",
"{  c #B4B2B4",
"}  c #B7B2B8",
"|  c #BBB6BB",
" . c #BCBABD",
".. c #BFBBC0",
"X. c #C1BDC3",
"o. c #C4C1C6",
"O. c #C7C2C9",
"+. c #CAC6CB",
"@. c #CCC9CE",
"#. c #CFCBD0",
"$. c #D1CDD2",
"%. c #D5D2D6",
"&. c #D7D4D8",
"*. c #D9D6DA",
"=. c #DCDADD",
"-. c #DFDDE0",
";. c #E0DEE2",
":. c #E4E2E5",
">. c #E7E5E8",
",. c #E8E6EA",
"<. c #EBE9EC",
"1. c #EEEDF0",
/* pixels */
"P P P P P P P P P P P P P P P P P P P P P P P P P P P P P P P P P P P P P P P P P P P P P ",
"P P P P P P P P P P P P P P P P P P P P P P P P P P P P P P P P P P P P P P P P P P P P P ",
"P P P P P P P P P P P P P P P P P P P P P P P P P P P P P P P P P P P P P P P P P P P P P ",
"P P P P P P P P P P P P P P P P P P P P P P P P P P P P P P P P P P P P P P P P P P P P P ",
"P P P P P P P P P P P P P P P P P P P P P P P P P P P P P P P P P P P P P P P P P P P P P ",
"P P P P P P P P P P P P P P P P P P P P P P P P P P P P P P P P P P P P P P P P P P P P P ",
"P P P P P P P P P P P P P P P P P P P P P L P P P L P P P P P P P P P P P P P P P P P P P ",
"P P P P P P P P P P P P P L L L L L P L L L L L L L L L L P L P P P P P P P P P P P P P P ",
"P P P P P P P P P P L P L L L L K K L K K K K K L J L K L L L L P P P P P P P P P P P P P ",
"P P P P P P P P P P L L J J J H H H H H H H H H H H H J H J J L L L L P P P P P P P P P P ",
"P P P P P P P P L L L K J H H G G M M M M M M M s s s s s H H H J L L L P P P P P P P P P ",
"P P P P P P P P L L K H H s s a a p p p i i i i i i a a a s s G H K L L P P P P P P P P P ",
"P P P P P P P P L L J H b g f f 2 f 2 2 2 2 2 2 2 2 2 2 f f j a G H K L P P P P P P P P P ",
"P P P P P P P P L K H s g | %.#.@.+.+.+.+.+.+.+.O.+.+.+.O.[ 5 g M G J L L P P P P P P P P ",
"P P P P P P P P L K H s l $.<.>.:.:.:.;.-.-.-.=.=.=.=.=.=.:.O.4 u M H K L P P P P P P P P ",
"P P P P P P P P L J H s x $.<.>.:.:.;.;.-.-.=.=.=.&.&.&.=.;.:.W k M G J L L P P P P P P P ",
"P P P P P P P P L K J s z $.,.;.-.;.=.=.=.=.*.%.%.%.&.&.&.*.;._ k a G J L P P P P P P P P ",
"P P P P P P P P L L H s k R Q E E E W R R R R R Y _ *.%.*.*.-.' k i s K L P P P P P P P P ",
"P P P P P P P P L K J G m b t w q q < q < < , * > R *.%.*.=.;.' g a G H L L P P P P P P P ",
"P P P P P P P P L L J G s i y e e 8 7 7 7 7 - = % R *.%.%.*.-.] g a s J K L P P P P P P P ",
"P P P P P P P L L K H G s p r t 0 0 9 9 9 : ; ; % E =.%.*.=.-.] g p G H K L P P P P P P P ",
"P P P P P P P L L K J G a u z Z S S A A A A A A A _ -.=.=.-.:.{ g a G H K L P P P P P P P ",
"P P P P P P P L L J H s n Z { &.=.=.=.=.-.=.=.=.&.=.-.:.-.:.,. .x i s H K L L P P P P P P ",
"P P P P P P P L L K H s x ' ,.,.>.>.>.>.,.,.>.,.>.:.:.:.>.>.>. .x a H J L P P P P P P P P ",
"P P P P P P P P K J s a C $.<.>.:.:.:.>.,.,.<.,.,.,.,.<.<.<.1...c s G J K P P P P P P P P ",
"P P P P P P P L L H G a C &.,.:.:.:.:.:.>.>.,.,.,.,.<.<.,.<.1.X.B M H K L P P P P P P P P ",
"P P P P P P P L L H s p C =.<.>.>.>.*.E I T T ~ ~ T ~ / / ~ ^ F N H J K P P P P P P P P P ",
"P P P P P P P P L J s p D ;.<.,.>.<.*.l - 7 8 r r r r r u i i s s H J K L P P P P P P P P ",
"P P P P P P P L K J s p C ;.<.,.>.<.&.z 7 e r y u u p p p a s G G J L L P P P P P P P P P ",
"P P P P P P P L K H s p v %.,.<.,.<.=.v 8 r y i p p a a a s M G H J K L L P P P P P P P P ",
"P P P P P P P L K H s p > ` +.$.$.*. .1 8 e r y i p p p a a s G H J K L P P P P P P P P P ",
"P P P P P P P L K J G i o ` +.X.X.O.W . 7 8 e r y r y y u p a M G H K L L P P P P P P P P ",
"P P P P P P P L L H s p & ` +.o.X.+.(   X X @ # # # $ $ $ > > > j H J L L P P P P P P P P ",
"P P P P P P L L L H G a & [ $.+.+.+.+...X.X.O.+.+.@.@.$.$.%.&.U h G H K L P P P P P P P P ",
"P P P P P P P L L J G s & ( &.$.#.+.$.$.$.*.*.;.;.;.;.;.>.,.<.W h G H K P P P P P P P P P ",
"P P P P P P P P L J H s < 3 #.%.$.$.$.%.&.&.=.*.=.;.;.;.>.>.,.W d M H K L P P P P P P P P ",
"P P P P P P P P L K J s p @ 3 ( [ [ [ [ } } | | | | X.X.X.X.O.6 d H H L L P P P P P P P P ",
"P P P P P P P P P L K H G n < & & + + + + o o & + + + & & & * * n H K K L L P P P P P P P ",
"P P P P P P P P P L L H H G s s m p p p p a n n p p p p a m M G H J K L P P P P P P P P P ",
"P P P P P P P P P P L L J H H G G G M M M M M s M M M M M G H H J J L L P P P P P P P P P ",
"P P P P P P P P P P L L L K J H H H H H H H G H H H J H H H J L K L P P P P P P P P P P P ",
"P P P P P P P P P P P L L L L L K L L K K J K K K L L L K L L P L P P P P P P P P P P P P ",
"P P P P P P P P P P P P P P L L L L L L L L L L L L P L L L P P P P P P P P P P P P P P P ",
"P P P P P P P P P P P P P P P P P P P P L P P P L P P P P P P P P P P P P P P P P P P P P ",
"P P P P P P P P P P P P P P P P P P P P P P P P P P P P P P P P P P P P P P P P P P P P P ",
"P P P P P P P P P P P P P P L P P P P P P P P P P P P P P P P P P P P P P P P P P P P P P ",
"P P P P P P P P P P P P P P P P P P P P P P P P P P P P P P P P P P P P P P P P P P P P P ",
"P P P P P P P P P P P P P P P P P P P P P P P P P P P P P P P P P P P P P P P P P P P P P ",
"P P P P P P P P P P P P P P P P P P P P P P P P P P P P P P P P P P P P P P P P P P P P P ",
"P P P P P P P P P P P P P P P P P P P P P P P P P P P P P P P P P P P P P P P P P P P P P "
};
