/* XPM */
static xpm_row_t const number3[] = {
/* columns rows colors chars-per-pixel */
"30 30 228 2",
"   c #2D7D2E",
".  c #347C34",
"X  c #507151",
"o  c #537A53",
"O  c #547E55",
"+  c #2E912E",
"@  c #2E932E",
"#  c #308130",
"$  c #338533",
"%  c #328C32",
"&  c #3D8E3D",
"*  c #3E8E3F",
"=  c #319A31",
"-  c #339F33",
";  c #379837",
":  c #3A9E3A",
">  c #3E9F3E",
",  c #35A535",
"<  c #37A937",
"1  c #3CA33C",
"2  c #38AB38",
"3  c #38AE38",
"4  c #3EAA3E",
"5  c #3AB33A",
"6  c #3BB23B",
"7  c #3BB33A",
"8  c #3BB33B",
"9  c #3BB43B",
"0  c #3BB53B",
"q  c #3CB43C",
"w  c #3CB53C",
"e  c #3CB63C",
"r  c #3CB73C",
"t  c #3DB73D",
"y  c #3CB83C",
"u  c #3CB93C",
"i  c #3DB83D",
"p  c #3DBA3D",
"a  c #3EB93E",
"s  c #3EBA3E",
"d  c #3EBB3E",
"f  c #3FBB3F",
"g  c #3DBC3D",
"h  c #3EBC3E",
"j  c #3EBD3E",
"k  c #3FBD3F",
"l  c #438944",
"z  c #4B824C",
"x  c #4D824D",
"c  c #4E834F",
"v  c #4F824F",
"b  c #4C844C",
"n  c #4F854F",
"m  c #469346",
"M  c #439D43",
"N  c #4A9F4A",
"B  c #508150",
"V  c #508650",
"C  c #568356",
"Z  c #578658",
"A  c #518951",
"S  c #518D52",
"D  c #548A54",
"F  c #598859",
"G  c #5A8C5A",
"H  c #4AA04A",
"J  c #40B440",
"K  c #40BB40",
"L  c #41BA41",
"P  c #41BB41",
"I  c #41BE41",
"U  c #43BF43",
"Y  c #45B945",
"T  c #4CB24C",
"R  c #4FB64F",
"E  c #53A254",
"W  c #618E61",
"Q  c #669667",
"!  c #609961",
"~  c #609B60",
"^  c #629863",
"/  c #639863",
"(  c #639963",
")  c #629B62",
"_  c #619D62",
"`  c #659C65",
"'  c #679F67",
"]  c #6D906D",
"[  c #6E936F",
"{  c #709570",
"}  c #61A662",
"|  c #66A166",
" . c #66A366",
".. c #67A367",
"X. c #68A268",
"o. c #68A269",
"O. c #6DA56D",
"+. c #6BA86B",
"@. c #69AF69",
"#. c #6BB46B",
"$. c #6DB66D",
"%. c #75AC76",
"&. c #41C241",
"*. c #43C443",
"=. c #42C642",
"-. c #42C742",
";. c #43C643",
":. c #44C644",
">. c #42C942",
",. c #43C843",
"<. c #43C943",
"1. c #43CA43",
"2. c #44CB44",
"3. c #45CE45",
"4. c #47CC47",
"5. c #46CF46",
"6. c #46D046",
"7. c #46D146",
"8. c #46D246",
"9. c #47D247",
"0. c #47D347",
"q. c #47D447",
"w. c #47D547",
"e. c #48D548",
"r. c #48D648",
"t. c #48D748",
"y. c #48D848",
"u. c #49D949",
"i. c #49DA49",
"p. c #49DB49",
"a. c #4ADC4A",
"s. c #4ADD4A",
"d. c #4ADE4A",
"f. c #4BDF4B",
"g. c #4BE04B",
"h. c #4BE14B",
"j. c #4CE14C",
"k. c #4CE24C",
"l. c #4EE44E",
"z. c #858B86",
"x. c #858D87",
"c. c #849485",
"v. c #859F85",
"b. c #899B8A",
"n. c #8D9D8E",
"m. c #80A380",
"M. c #87A987",
"N. c #89A18A",
"B. c #8DA48D",
"V. c #8FA78F",
"C. c #90A091",
"Z. c #90A990",
"A. c #91AC92",
"S. c #90AE91",
"D. c #99A49A",
"F. c #A3AFA3",
"G. c #A7AEA8",
"H. c #B0B2B1",
"J. c #B4BBB5",
"K. c #C2BEC4",
"L. c #C4C0C6",
"P. c #C5C0C7",
"I. c #C7C2C9",
"U. c #C8C3CA",
"Y. c #C8C4CA",
"T. c #C9C6CB",
"R. c #CAC7CB",
"E. c #CBC7CC",
"W. c #CCC8CD",
"Q. c #CDC8CE",
"!. c #CDC8CF",
"~. c #CDC9CF",
"^. c #CECACF",
"/. c #CFCBD1",
"(. c #D0CCD0",
"). c #D0CDD1",
"_. c #D1CFD2",
"`. c #D2CED3",
"'. c #D3CED5",
"]. c #D3CFD4",
"[. c #D5CFD6",
"{. c #D0D1D1",
"}. c #D1D1D2",
"|. c #D4D0D5",
" X c #D4D1D5",
".X c #D5D1D6",
"XX c #D5D2D6",
"oX c #D6D1D7",
"OX c #D6D3D7",
"+X c #D6D4D7",
"@X c #D6D2D8",
"#X c #D6D5D8",
"$X c #D7D4D9",
"%X c #D6D8D7",
"&X c #D8D4D9",
"*X c #D8D5D9",
"=X c #D8D5DA",
"-X c #D9D5DA",
";X c #DAD6DB",
":X c #DAD7DA",
">X c #DAD7DB",
",X c #DBD7DD",
"<X c #DBD8DC",
"1X c #DBD8DD",
"2X c #DBDCDC",
"3X c #DCD9DD",
"4X c #DEDADF",
"5X c #DFDBE0",
"6X c #E0DCE0",
"7X c #E0DDE0",
"8X c #E1DCE1",
"9X c #E0DEE1",
"0X c #E1DFE2",
"qX c #E3DEE3",
"wX c #E4DFE5",
"eX c #E3E0E4",
"rX c #E3E1E4",
"tX c #E3E2E4",
"yX c #E4E1E5",
"uX c #E5E3E6",
"iX c #E6E2E7",
"pX c #E6E3E7",
"aX c #E6E5E7",
"sX c #E7E6E9",
"dX c #E9E7EA",
"fX c #EAE7EB",
"gX c #EBE9EC",
"hX c #ECEAED",
/* pixels */
"l.l.j.j.j.j.j.j.j.j.j.j.j.j.j.j.k.k.k.k.k.k.k.k.k.k.k.k.k.l.",
"l.l.j.j.j.j.j.j.j.j.j.j.j.j.j.j.k.k.k.k.k.k.k.k.k.k.k.k.k.l.",
"l.l.j.j.j.j.j.j.j.j.j.j.j.j.j.j.k.k.k.k.k.k.k.k.k.k.k.k.k.l.",
"l.l.j.j.j.j.j.j.j.j.j.j.j.j.j.g.k.k.k.k.k.k.k.k.k.k.k.k.k.l.",
"l.l.j.j.j.j.j.j.j.s.s.s.s.s.s.s.t.s.s.s.g.g.k.g.k.k.k.k.k.l.",
"l.l.j.j.j.j.j.s.t.t.w.5.5.5.3.3.3.5.5.5.r.s.g.g.k.k.k.k.k.l.",
"l.l.j.j.j.j.j.s.w.2.j s 9 9 9 9 9 9 y j >.5.t.g.g.k.k.k.k.l.",
"l.l.j.j.j.j.s.w.;.E | ` / / / / / / / / N &.5.s.k.k.k.k.k.l.",
"l.l.k.k.k.g.g.q.P m.;X;X-XoXoXoX`.oX'./.D.H >.t.g.j.j.j.j.l.",
"l.l.k.k.k.g.g.5.P M.wXiXwX6X6X3X;X;X,X5X^._ j 5.s.j.j.j.j.l.",
"l.l.k.k.k.k.g.r.*.X.S.S.Z.V.B.N.b.H.-X3XoXX.s q.s.j.j.j.j.l.",
"l.l.k.k.k.k.g.t.5.&.J 4 1 : ; % . n.-X4X+XX.9 5.s.j.j.j.j.l.",
"l.l.k.k.k.k.k.g.t.r.3.,.k 7 , @ # C.6X6X-XO.s 5.s.j.j.j.j.l.",
"l.l.k.k.k.k.k.g.g.s.r.5.,.T } ~ G G.tXtX{.| s 6.s.j.j.j.j.l.",
"l.l.k.k.k.k.g.g.g.g.s.t.>.#.%XtX6XrXsX+Xv.M j 5.s.j.j.j.j.l.",
"l.l.k.k.k.k.g.g.g.g.s.r.>.$.2XaXrXuXgXoX{ > k r.g.j.j.j.j.l.",
"l.l.k.k.k.k.k.g.g.f.f.r.,.R #.| Q J.gXfX{.+.a 6.g.g.j.j.j.l.",
"l.l.k.k.k.k.k.g.t.r.6.2.&.a < = $ F.fXgXpX%.s 6.g.j.j.j.j.l.",
"l.l.k.k.k.g.k.g.r.-.s 6 3 < - +   c.oX-XT.D t 6.s.j.j.j.j.l.",
"l.l.k.k.k.g.g.r.-.m G F Z C O o X z.U.W.K.x s 6.s.j.j.j.j.l.",
"l.l.k.k.k.k.g.q.k [ `.-XoXoX`.`.W.!.`.-XK.b k r.g.j.j.j.j.l.",
"l.l.k.k.k.g.s.q.P ] !.`.W.W.W.T.T.U.U.K.x.* -.r.g.j.j.j.j.l.",
"l.l.k.k.k.k.g.r.Y l S A V n n n v B b b * P 5.t.g.j.j.j.j.l.",
"l.l.k.k.k.g.g.s.5.-.k s 7 7 7 6 9 7 e j *.6.t.f.j.j.j.j.j.l.",
"l.l.k.k.k.k.k.g.s.r.q.5.5.5.5.3.5.5.5.r.t.s.j.j.j.j.j.j.j.l.",
"l.l.k.k.k.k.k.k.g.s.s.s.s.s.s.s.s.s.s.s.g.j.j.j.j.j.j.j.j.l.",
"l.l.k.k.k.k.k.k.k.g.g.g.k.k.g.k.g.j.j.j.j.j.j.j.j.j.j.j.j.l.",
"l.l.k.k.k.k.k.k.k.k.k.g.k.k.k.k.j.j.j.j.j.j.j.j.j.j.j.j.j.l.",
"l.l.k.k.k.k.k.k.k.k.k.k.k.k.k.k.j.j.j.j.j.j.j.j.j.j.j.j.j.l.",
"l.l.k.k.k.k.k.k.k.k.k.k.k.k.k.k.j.j.j.j.j.j.j.j.j.j.j.j.j.l."
};
