/* XPM */
static xpm_row_t const number3[] = {
/* columns rows colors chars-per-pixel */
"45 50 111 2",
"   c #2C4A2D",
".  c #275E27",
"X  c #2A5D2A",
"o  c #305430",
"O  c #335B33",
"+  c #2B622B",
"@  c #2D6A2D",
"#  c #2C7C2C",
"$  c #356235",
"%  c #346A34",
"&  c #357435",
"*  c #347C35",
"=  c #475F47",
"-  c #4A524B",
";  c #457B45",
":  c #497E49",
">  c #556A55",
",  c #596E59",
"<  c #547E54",
"1  c #5F755F",
"2  c #616262",
"3  c #6E7F6F",
"4  c #2D842D",
"5  c #2E8B2E",
"6  c #378737",
"7  c #328D32",
"8  c #3A8B3A",
"9  c #319331",
"0  c #349B34",
"q  c #3E933E",
"w  c #36A236",
"e  c #38A738",
"r  c #3AAD3A",
"t  c #3CB33C",
"y  c #3FBB3F",
"u  c #448244",
"i  c #478C47",
"p  c #478848",
"a  c #4B824B",
"s  c #4C8A4C",
"d  c #459545",
"f  c #419B41",
"g  c #4B944B",
"h  c #4D9B4D",
"j  c #518C51",
"k  c #588F58",
"l  c #529D52",
"z  c #599259",
"x  c #41A341",
"c  c #42AB42",
"v  c #49AC49",
"b  c #42B242",
"n  c #41BD41",
"m  c #4EB24E",
"M  c #54A454",
"N  c #6D816E",
"B  c #6A8B6B",
"V  c #639B64",
"C  c #728473",
"Z  c #7E837E",
"A  c #7A8C7A",
"S  c #769177",
"D  c #7D907D",
"F  c #6BA26B",
"G  c #72A173",
"H  c #7AA77A",
"J  c #7CAA7C",
"K  c #42C342",
"L  c #45CC45",
"P  c #4BC24B",
"I  c #47D247",
"U  c #48D648",
"Y  c #4ADC4A",
"T  c #4CE24C",
"R  c #7F8280",
"E  c #808980",
"W  c #829483",
"Q  c #8B938B",
"!  c #8B998C",
"~  c #8F9990",
"^  c #919A91",
"/  c #9B9D9B",
"(  c #92A093",
")  c #A49FA5",
"_  c #A8A4AA",
"`  c #AAADAB",
"'  c #B3AEB5",
"]  c #B4B1B4",
"[  c #B7B2B8",
"{  c #B9B4BA",
"}  c #BDB9BE",
"|  c #C3BEC4",
" . c #C3C2C4",
".. c #C6C0C8",
"X. c #CAC6CB",
"o. c #CDCACE",
"O. c #CEC9D0",
"+. c #D2CED4",
"@. c #D5D2D6",
"#. c #D7D3D9",
"$. c #D9D6DB",
"%. c #DDDADE",
"&. c #DFDCE0",
"*. c #E1DEE1",
"=. c #E4E1E5",
"-. c #E7E4E8",
";. c #E8E7EA",
":. c #ECEAED",
">. c #EFEDF0",
",. c #F1EFF2",
"<. c #F4F3F5",
/* pixels */
"T T T T T T T T T T T T T T T T T T T T T T T T T T T T T T T T T T T T T T T T T T T T T ",
"T T T T T T T T T T T T T T T T T T T T T T T T T T T T T T T T T T T T T T T T T T T T T ",
"T T T T T T T T T T T T T T T T T T T T T T T T T T T T T T T T T T T T T T T T T T T T T ",
"T T T T T T T T T T T T T T T T T T T T T T T T T T T T T T T T T T T T T T T T T T T T T ",
"T T T T T T T T T T T T T T T T T T T T T T T T T T T T T T T T T T T T T T T T T T T T T ",
"T T T T T T T T T T T T T T T T T T T T T T T T T T T T T T T T T T T T T T T T T T T T T ",
"T T T T T T T T T T T T T T T Y T T T T T T Y T T T T T T T T T T T T T T T T T T T T T T ",
"T T T T T T T T T T T T Y T Y Y T Y T Y Y Y Y Y U Y Y Y Y Y T T T T T T T T T T T T T T T ",
"T T T T T T T T T T Y Y Y Y U U U U Y U U U U U U U U U U U Y Y T T T T T T T T T T T T T ",
"T T T T T T T T T Y Y U U U I I L L L L L L L L L L L L I I I U Y Y T T T T T T T T T T T ",
"T T T T T T T T T Y U U I K K K K y y y n y y y n y n K K K L I I Y Y T T T T T T T T T T ",
"T T T T T T T T Y U U L K y t t r r r e r r r r r r r r t t y K L I U Y Y T T T T T T T T ",
"T T T T T T T Y U U L n s j a a : u : : : : : : : : : : a a d t K L I U T T T T T T T T T ",
"T T T T T T T T U U K b C X.+.O.o.o.X.X.X.X.X.X...X.X...X.[ E : t K I U T T T T T T T T T ",
"T T T T T T T T U I K b A *.;.-.=.=.=.*.*.&.&.&.&.%.%.%.*.*.#.R d y L I Y T T T T T T T T ",
"T T T T T T T T U I K b D *.;.-.=.=.*.*.*.*.&.&.%.%.$.%.%.*.*.' s t K I Y Y T T T T T T T ",
"T T T T T T T T U I K b W %.-.-.*.*.*.%.*.%.%.#.#.#.$.#.%.%.%.X.j t K I I Y T T T T T T T ",
"T T T T T T T T Y I L n B ! ( ^ ( ^ ^ ~ ~ Q ! Q Q / o.$.#.%.%.o.j r n I Y T T T T T T T T ",
"T T T T T T T Y Y U I K b v r f f q q q q 6 6 * & 3 o.%.$.%.*.o.j r y I U Y T T T T T T T ",
"T T T T T T T T Y Y U I K K y t t r e e w 0 9 5 # N o.$.#.%.*.o.j r y L Y Y T T T T T T T ",
"T T T T T T T T T Y Y U I L K K K y t t e w 9 5 4 C o.=.%.*.*.o.z r n L I T T T T T T T T ",
"T T T T T T T T T Y Y Y Y U I I L K n t r w 9 5 # C @.=.*.*.=.#.z r K I U U T T T T T T T ",
"T T T T T T T T T T T Y T U U U L L n v h d i u ; Z $.=.=.=.;. .z r K I U T T T T T T T T ",
"T T T T T T T T T T T T Y Y T U I L n G X.o.o.o.X.o.*.;.=.=.o.Q d t K I U Y T T T T T T T ",
"T T T T T T T T T T T T T T Y Y I L y J :.<.<.<.>.:.;.;.;.o.A i w t K I U Y T T T T T T T ",
"T T T T T T T T T Y T T Y T Y U I L y J >.<.<.>.>.:.:.;.:. .< 7 w t K I Y T T T T T T T T ",
"T T T T T T T T T Y T T T Y Y Y I L y J +.#.@.@.@.@.;.:.:.$.` S f t K I Y T T T T T T T T ",
"T T T T T T T T T T T T Y Y T U I L n m M M g s u ^ =.>.:.:.:.X.V r K L U T T T T T T T T ",
"T T T T T T T T T T Y T Y Y U U L L y y r e 9 5 # Q *.:.:.:.:.-.F r K I U T T T T T T T T ",
"T T T T T T T T T T Y U I I L L K K y y r e w 9 4 ~ *.:.:.:.,.*.V r n I U T T T T T T T T ",
"T T T T T T T T T Y U U L K K y y t t t r w 0 5 # C O.*.%.$.%.] % r K L U Y T T T T T T T ",
"T T T T T T T T T Y I L K y t r r r w w 0 9 5 4 # = ' O.X.O.@.' X r n I U Y T T T T T T T ",
"T T T T T T T Y Y U L n & $ $ O O O O O o o o o   - [ O.| O.#.' X r K L U T T T T T T T T ",
"T T T T T T T Y Y I L b , | #.O.o.X.X.X.X.X.X.| | | O.O.O.+.$.' X t K I U T T T T T T T T ",
"T T T T T T T T U I K r 1 @.-.=.*.*.&.&.%.%.%.$.#.#.#.#.+.#.*._ + t K I Y T T T T T T T T ",
"T T T T T T Y T U I K c 1 @.-.*.&.&.%.%.%.$.$.$.#.+.#.#.+.%.+.2 * n L I Y T T T T T T T T ",
"T T T T T T T T Y L L b > ' | } } } { { { [ { { { { { [ { ) 2 X r K L U Y T T T T T T T T ",
"T T T T T T T T Y U P d % @ @ + + + X X + X X X X o X X + + * c K L U Y Y T T T T T T T T ",
"T T T T T T T T Y Y L n n n y t t r r r r t r r e r r t t y y K L I U Y Y T T T T T T T T ",
"T T T T T T T T T Y U U I K K n K n n n n n n y n y n n n K L L I U Y Y T T T T T T T T T ",
"T T T T T T T T T Y Y Y L I L I L K I L L L P L I K L L I I U Y Y T T T T T T T T T T T T ",
"T T T T T T T T T T Y Y Y Y Y U U Y U U U Y U U Y Y T Y U Y Y T Y T T T T T T T T T T T T ",
"T T T T T T T T T T T T Y T Y Y Y Y Y Y Y Y Y Y Y Y Y T Y Y T T T T T T T T T T T T T T T ",
"T T T T T T T T T T T T T Y T T T T T T Y T T Y T Y T T T T T T T T T T T T T T T T T T T ",
"T T T T T T T T T T T T T T T T T T T T T T T T T T T T T T T T T T T T T T T T T T T T T ",
"T T T T T T T T T T T T T T T T T T T T T T T T T T T T T T T T T T T T T T T T T T T T T ",
"T T T T T T T T T T T T T T T T T T T T T T T T T T T T T T T T T T T T T T T T T T T T T ",
"T T T T T T T T T T T T T T T T T T T T T T T T T T T T T T T T T T T T T T T T T T T T T ",
"T T T T T T T T T T T T T T T T T T T T T T T T T T T T T T T T T T T T T T T T T T T T T ",
"T T T T T T T T T T T T T T T T T T T T T T T T T T T T T T T T T T T T T T T T T T T T T "
};
