/* XPM */
static xpm_row_t const number4[] = {
/* columns rows colors chars-per-pixel */
"45 50 100 2",
"   c #275D27",
".  c #285E28",
"X  c #2C652C",
"o  c #2B692B",
"O  c #2B7B2B",
"+  c #306A2F",
"@  c #356B35",
"#  c #397B39",
"$  c #465D47",
"%  c #4A644B",
"&  c #4C6A4C",
"*  c #516751",
"=  c #506D50",
"-  c #278027",
";  c #2C862C",
":  c #2D8B2D",
">  c #308530",
",  c #338E33",
"<  c #3A873A",
"1  c #3B8C3B",
"2  c #329432",
"3  c #359B35",
"4  c #3F953F",
"5  c #389F38",
"6  c #36A336",
"7  c #37A937",
"8  c #39A439",
"9  c #39AC39",
"0  c #3CB43C",
"q  c #3EBB3E",
"w  c #3FC03F",
"e  c #468646",
"r  c #458B45",
"t  c #4B854B",
"y  c #4C894C",
"u  c #4F8450",
"i  c #419C41",
"p  c #499749",
"a  c #538B53",
"s  c #569256",
"d  c #5C945C",
"f  c #43A443",
"g  c #45AC45",
"h  c #40B340",
"j  c #40BD40",
"k  c #678C68",
"l  c #698569",
"z  c #6B8A6B",
"x  c #649A64",
"c  c #6A906A",
"v  c #6A9F6B",
"b  c #758275",
"n  c #748B75",
"m  c #788C79",
"M  c #66A066",
"N  c #61A961",
"B  c #69A569",
"V  c #6DAA6E",
"C  c #42C442",
"Z  c #45CC45",
"A  c #47D247",
"S  c #48D648",
"D  c #4ADC4A",
"F  c #5BDB5B",
"G  c #4CE24C",
"H  c #50E050",
"J  c #959A95",
"K  c #9DA99E",
"L  c #A09AA1",
"P  c #A4AEA5",
"I  c #AAA4AA",
"U  c #AFA9AF",
"Y  c #AFA9B2",
"T  c #A4B0A5",
"R  c #B1ABB4",
"E  c #B5AFB8",
"W  c #B7B3B9",
"Q  c #BBB5BC",
"!  c #BCB9BD",
"~  c #BFBAC0",
"^  c #C1BDC2",
"/  c #C3C1C4",
"(  c #C6C4C8",
")  c #CAC6CB",
"_  c #CDC9CE",
"`  c #CDC6D1",
"'  c #CFCBD1",
"]  c #D1CDD2",
"[  c #D4CED8",
"{  c #D4D2D5",
"}  c #D6D2D9",
"|  c #D9D6DB",
" . c #DCDADE",
".. c #DFDCE0",
"X. c #E1DEE2",
"o. c #E4E2E5",
"O. c #E7E4E8",
"+. c #E8E6EA",
"@. c #EBE9EC",
"#. c #EFEDF0",
/* pixels */
"G G G G G G G G G G G G G G G G G G G G G G G G G G G G G G G G G G G G G G G G G G G G G ",
"G G G G G G G G G G G G G G G G G G G G G G G G G G G G G G G G G G G G G G G G G G G G G ",
"G G G G G G G G G G G G G G G G G G G G G G G G G G G G G G G G G G G G G G G G G G G G G ",
"G G G G G G G G G G G G G G G G G G G G G G G G G G G G G G G G G G G G G G G G G G G G G ",
"G G G G G G G G G G G G G G G G G G G G G G G G G G G G G G G G G G G G G G G G G G G G G ",
"G G G G G G G G G G G G G G G G G G G G G G G G G G G G G G G G G G G G G G G G G G G G G ",
"G G G G G G G G G G G G G G D G G G G G G G G G G G G G G G G G G G G G G G G G G G G G G ",
"G G G G G G G G G G G G G D D D G G G G G D G G G D D D G D G G G G G G G G G G G G G G G ",
"G G G G G G G G G G G D D D D S D D G D D D G D D D S D S S S D D G G G G G G G G G G G G ",
"G G G G G G G G G D D D S S S A Z A S D D D D D S S S A A A S S S S D G G G G G G G G G G ",
"G G G G G G G G G D D S A Z C C C Z Z A S S S S S A C C C C C Z A S D D D G G G G G G G G ",
"G G G G G G G G D D S Z C w j q q q w C Z A A Z Z C w q 0 0 j w C A S D G G G G G G G G G ",
"G G G G G G G G D S A C f y t t t y t f C C Z Z j p t t t t t y f C A S D G G G G G G G G ",
"G G G G G G G G D S Z q y W ] _ _ _ U 4 j j C w h l ~ ] ] ' ] W y w C S D G G G G G G G G ",
"G G G G G G G G D S C q y _ o.o.X.+.^ r q q j h h z { o.o.o.O._ y q C A D D G G G G G G G ",
"G G G G G G G G S A C 0 t ) X. ...o.~ r 9 q q h 5 z ] o.X.X.o._ y 0 C A D D G G G G G G G ",
"G G G G G G G G S Z w 0 y )  . .| X.~ r 7 q 0 h 3 z ] .. . .X.) u 9 w Z S D G G G G G G G ",
"G G G G G G G G D Z w 0 y )  .{ | X.~ e 6 0 0 9 5 z ]  . . ..._ a 9 C Z D G G G G G G G G ",
"G G G G G G G D S Z j 9 a )  . . .X./ y 8 9 0 9 3 n ' X. . .X._ a 7 j Z S D G G G G G G G ",
"G G G G G G G D S Z j 7 a )  .{ { | ^ r 6 9 9 7 1 n '  .{ |  ._ a 7 j Z S D G G G G G G G ",
"G G G G G G G D D Z j 7 s )  . . .| ^ t 3 8 7 6 2 n {  . . .X._ a 7 j Z S D G G G G G G G ",
"G G G G D G G D S Z j 7 s _  . . ...( t 2 6 6 3 2 n {  . . .X.] d 7 j Z S D D G G G G G G ",
"G G G G G G D D D Z j 7 d { X. . .X.) t : 2 2 : > m | X.X.X.o.{ d 7 j Z S G G G G G G G G ",
"G G G G G G G D S Z j 7 d { o.X.X.X._ e - ; : ; O m { X. .X.o.{ d 8 j Z S D G G G G G G G ",
"G G G G G G G D S Z j 7 x } O.X.X.o.{ m c z z k z J | o.X.o.O.| d 7 j Z S D D G G G G G G ",
"G G G G G G G D D Z C 7 x  .+.X.o.o.X. .X......... .X.o.X.O.+.| x 7 j Z S D G G G G G G G ",
"G G G G G G G D S A w 0 M  .@.@.O.O.+.@.@.@.+.+.+.O.o.O.O.O.+. .x 7 j Z S G G G G G G G G ",
"G G G G G G G G D A C 0 B X.#.@.@.@.#.@.@.@.#.#.@.+.+.o.o.O.@.X.x 7 j Z S G G G G G G G G ",
"G G G G G G G G D S C q V o.@.+.+.+.@.@.+.#.+.+.O.O.O.O.O.O.+.o.v 7 q C D D G G G G G G G ",
"G G G G G G G G D S Z C N K T T T T T T P P P P P ! O.@.+.+.@.X.v 7 j Z S D G G G G G G G ",
"G G G G G G G G D S A Z j g g f f i i i i 4 r < # = ] ..} } ..Q @ 7 w Z S D G G G G G G G ",
"G G G G G G G G G D S A A C w q 0 0 0 0 9 7 6 2 < * R ` ` ` [ Y   0 j Z D D G G G G G G G ",
"G G G G G G G G G G D S S A Z Z C C C C j h 9 8 , % E ' ` ` [ R . 9 j Z S D G G G G G G G ",
"G G G G G G G G G G G D S S S S A A S Z Z C j 9 3 % Q [ [ ] [ R . 0 C Z D D D G G G G G G ",
"G G G G G G G G G G G D D D D S D D S S S Z C q 8 * ^  .| | ..Q X h C Z D G G G G G G G G ",
"G G G G G G G G G G G G G G G G D G D D S S Z j f = ^ .. . .X.! X j C S D G G G G G G G G ",
"G G G G G G G G G G G G G G G G G G G D D S S C 0 & I ^ ~ ~ ^ L o w C S D G G G G G G G G ",
"G G G G G G G G G G G G G G G G G G G G G S S Z C < o o X X X X 2 C A S D G D G G G G G G ",
"G G G G G G G G G G G G G G G G G G D G G D S S Z C w j h q j C C Z S D D G G G G G G G G ",
"G G G G G G G G G G G G G G G G G G G G G G D D S Z Z C C C C Z S S D D G G G G G G G G G ",
"G G G G G G G G G G G G G G G G G G G G G G G D S S S S A S S D D D G G G G G G G G G G G ",
"G G G G G G G G G G G G G G G G G G G G G G G G D D G D S D D G D G G G G G G G G G G G G ",
"G G G G G G G G G G G G G G G G G G G G G G G G G G G D D D G G G G G G G G G G G G G G G ",
"G G G G G G G G G G G G G G G G G G G G G G G G G G G G G G G G G G G G G G G G G G G G G ",
"G G G G G G G G G G G G G G G G G G G G G G G G G G G G G G G G G G G G G G G G G G G G G ",
"G G G G G G G G G G G G G G G G G G G G G G G G G G G G G G G G G G G G G G G G G G G G G ",
"G G G G G H G G G G G G G G G G G G G G G G F F G G G G G G G G G G G G G G G G G G G G G ",
"G G G G G G G G G G G G G G G G G G G G G G G G G G G G G G G G G G G G G G G G G G G G G ",
"G G G G G G G G G G G G G G G G G G G G G G G G G G G G G G G G G G G G G G G G G G G G G ",
"G G G G G G G G G G G G G G G G G G G G G G G G G G G G G G G G G G G G G G G G G G G G G "
};
