/* XPM */
static xpm_row_t const number4[] = {
/* columns rows colors chars-per-pixel */
"30 30 217 2",
"   c #2D8B2D",
".  c #2E922E",
"X  c #328732",
"o  c #359035",
"O  c #359A35",
"+  c #389638",
"@  c #3B9A3C",
"#  c #3C9C3C",
"$  c #37A237",
"%  c #36A536",
"&  c #37A637",
"*  c #39A039",
"=  c #3BA03B",
"-  c #3DA33D",
";  c #38AD38",
":  c #39AD39",
">  c #3FAB3F",
",  c #3BB33B",
"<  c #3AB43A",
"1  c #3BB43B",
"2  c #3BB53B",
"3  c #3AB63A",
"4  c #3BB73B",
"5  c #3CB53C",
"6  c #3CB73C",
"7  c #3CB93C",
"8  c #3DB83D",
"9  c #3DBA3D",
"0  c #3DBB3D",
"q  c #3EB93E",
"w  c #3DBC3D",
"e  c #3EBD3E",
"r  c #3FBD3F",
"t  c #3EBF3E",
"y  c #3FC03F",
"u  c #3FC13F",
"i  c #428442",
"p  c #4B814C",
"a  c #4E8A4E",
"s  c #4F8A4F",
"d  c #4F8750",
"f  c #459245",
"g  c #449644",
"h  c #518D51",
"j  c #528C53",
"k  c #548A55",
"l  c #5B8F5B",
"z  c #5C915C",
"x  c #5F8E60",
"c  c #46A146",
"v  c #47A647",
"b  c #47A747",
"n  c #41AE41",
"m  c #4DA54D",
"M  c #4AAA4A",
"N  c #4AAB4B",
"B  c #49AC49",
"V  c #43BF43",
"C  c #4AB34A",
"Z  c #55A155",
"A  c #669F66",
"S  c #689F68",
"D  c #738675",
"F  c #768D77",
"G  c #798E7A",
"H  c #799F79",
"J  c #7A9F7A",
"K  c #63A064",
"L  c #64A065",
"P  c #64A164",
"I  c #65A065",
"U  c #66A066",
"Y  c #66A067",
"T  c #66A166",
"R  c #68A068",
"E  c #69A26A",
"W  c #6BA26B",
"Q  c #6EA66E",
"!  c #6FA66F",
"~  c #6CB46D",
"^  c #72A272",
"/  c #70A770",
"(  c #75A176",
")  c #76A077",
"_  c #72A872",
"`  c #74AB74",
"'  c #76AC77",
"]  c #77AD77",
"[  c #76AE76",
"{  c #78A178",
"}  c #7BB67B",
"|  c #40C140",
" . c #40C240",
".. c #40C340",
"X. c #41C241",
"o. c #41C341",
"O. c #42C142",
"+. c #42C642",
"@. c #42C742",
"#. c #47C247",
"$. c #42C842",
"%. c #43CA43",
"&. c #43CB43",
"*. c #44CC44",
"=. c #44CD44",
"-. c #45CD45",
";. c #45CE45",
":. c #45CF45",
">. c #46CF46",
",. c #46D046",
"<. c #46D146",
"1. c #46D246",
"2. c #47D247",
"3. c #47D347",
"4. c #47D447",
"5. c #47D547",
"6. c #48D548",
"7. c #48D648",
"8. c #48D748",
"9. c #48D848",
"0. c #49D849",
"q. c #49D949",
"w. c #49DA49",
"e. c #49DB49",
"r. c #4ADC4A",
"t. c #4ADD4A",
"y. c #4ADE4A",
"u. c #4BDF4B",
"i. c #50DF50",
"p. c #4BE04B",
"a. c #4BE14B",
"s. c #4BE24B",
"d. c #4CE14C",
"f. c #4DE14D",
"g. c #4CE24C",
"h. c #4EE04E",
"j. c #4EE44E",
"k. c #849384",
"l. c #8CA58C",
"z. c #8FA78F",
"x. c #8FA690",
"c. c #93A594",
"v. c #94A895",
"b. c #95A896",
"n. c #94AA95",
"m. c #A8B1A9",
"M. c #B5BFB6",
"N. c #B3C2B4",
"B. c #B5C3B7",
"V. c #B6C1B7",
"C. c #B6C3B7",
"Z. c #B6C4B7",
"A. c #C1BBC5",
"S. c #C0BCC1",
"D. c #CAC3CD",
"F. c #C9C5CB",
"G. c #CAC6CB",
"H. c #CBC6CD",
"J. c #CECBCF",
"K. c #CFC9D3",
"L. c #CFCBD0",
"P. c #CFCFD0",
"I. c #D2CFD4",
"U. c #D3CED4",
"Y. c #D4CFD7",
"T. c #D5CFD7",
"R. c #D3D1D5",
"E. c #D5D2D6",
"W. c #D6D2D7",
"Q. c #D6D1D9",
"!. c #D6D2D8",
"~. c #D7D3D9",
"^. c #D7D4D8",
"/. c #D7D4D9",
"(. c #D8D3D9",
"). c #D8D5D9",
"_. c #D8D5DB",
"`. c #D9D4DA",
"'. c #D8D7D9",
"]. c #D9D6DA",
"[. c #D9D7DA",
"{. c #DAD7DB",
"}. c #DAD7DC",
"|. c #DBD7DC",
" X c #D8D8D9",
".X c #D9D9DA",
"XX c #DAD8DC",
"oX c #DBD8DC",
"OX c #DBD8DD",
"+X c #DBD9DD",
"@X c #DCD8DD",
"#X c #DCDADE",
"$X c #DDDADE",
"%X c #DDDADF",
"&X c #DDDBDE",
"*X c #DEDBDF",
"=X c #DFDBE0",
"-X c #DEDCE0",
";X c #E0DCE1",
":X c #E0DDE1",
">X c #E0DEE2",
",X c #E1DEE3",
"<X c #E2DFE3",
"1X c #E3E0E4",
"2X c #E3E1E5",
"3X c #E4E2E5",
"4X c #E5E3E6",
"5X c #E5E3E7",
"6X c #E6E4E7",
"7X c #E6E4E8",
"8X c #E7E5E8",
"9X c #E8E5E9",
"0X c #E8E6EA",
"qX c #EBE8EC",
"wX c #ECE9ED",
"eX c #EDEAEE",
"rX c #EEEBEF",
/* pixels */
"j.j.g.g.g.g.g.g.g.g.g.g.g.g.g.g.a.s.s.s.s.s.a.a.s.a.s.s.s.j.",
"j.j.g.g.g.g.g.g.g.g.g.g.g.g.g.g.a.a.s.s.s.s.a.a.s.s.s.s.s.j.",
"j.j.g.g.g.g.g.g.g.g.g.g.g.g.g.g.a.a.a.a.s.s.s.j.s.s.s.s.a.j.",
"j.j.g.g.g.g.g.g.g.g.p.g.g.g.g.g.j.a.a.a.s.s.s.s.s.s.s.s.s.j.",
"j.j.g.g.g.g.g.g.g.p.t.t.p.g.p.p.a.t.t.t.t.a.a.a.s.s.s.s.s.j.",
"j.j.g.g.g.g.g.p.t.9.9.<.6.9.t.t.9.9.5.<.5.9.t.a.a.g.s.s.s.j.",
"j.j.g.g.g.g.g.t.6.*.X.t X.%.<.3.<.@.t 9 X.=.9.t.a.j.a.a.s.j.",
"j.j.g.g.g.g.p.9.*.M P P P m X.%.X.Z S S P B *.9.a.a.a.a.s.j.",
"j.j.g.g.g.g.g.6.u P L.`.U.^ 5 r n l.~..XL.P X.5.a.s.s.s.j.j.",
"j.j.g.g.g.g.t.<.9 A E.=X|.( : 7 - z.-X,X`.S 9 <.t.s.a.s.a.j.",
"j.j.g.g.g.g.t.<.7 P U..X`.H & , = c.@X@XU.Y 7 <.t.a.s.s.a.j.",
"j.j.g.g.g.g.t.:.2 Y U..XE.{ $ : @ c.|..X~.Y 5 *.t.a.s.a.a.j.",
"j.j.g.g.a.a.t.<.4 E U.@XE.{ O $ + n..X@XE.W 4 *.t.a.a.a.s.j.",
"j.j.g.g.a.a.t.*.4 ! .X-X@XJ   . X b.=X,X@X/ , :.t.a.a.a.s.j.",
"j.j.g.g.g.g.t.*.4 / @X<X:Xn.l l x m.:X<X-X/ 4 :.t.a.a.a.s.j.",
"j.j.g.g.g.g.t.<.7 ] <X5X3X-X.X.X X@X3X7X,X` 4 *.t.a.s.s.s.j.",
"j.j.g.g.g.g.a.6.9 } 0XwXwXrXrXrXwX0X7X7X7X] , *.a.a.a.a.a.j.",
"j.j.g.g.g.g.a.6.+.~ N.Z.Z.Z.V.V.M.P.9X7X,X' 4 *.t.a.a.a.a.j.",
"j.j.g.g.g.g.a.9.<.#.C B b v c g i k.E.E.H.k 4 *.t.a.a.s.s.j.",
"j.j.g.g.g.g.g.g.9.5.*.@.+.u 7 : o D D.K.A.p 5 <.t.a.s.s.s.j.",
"j.j.g.g.g.g.g.g.a.9.9.9.9.5.*.X.# G E./.H.d 7 5.t.a.a.s.s.j.",
"j.j.g.g.g.g.g.g.a.a.g.a.t.t.9.*.> F H.L.S.a u 6.a.a.a.s.s.j.",
"j.j.g.g.g.g.g.g.g.g.g.g.g.a.t.5.u f h j s # %.9.a.a.s.s.s.j.",
"j.j.g.g.g.g.g.g.g.g.a.a.a.a.g.9.5.@.u 9 +.*.6.t.a.s.s.a.s.j.",
"j.j.g.g.g.g.g.g.g.g.g.g.g.g.g.a.t.8.5.5.9.t.a.g.g.g.g.g.s.j.",
"j.j.g.g.g.g.g.g.g.g.g.g.g.g.g.g.a.a.t.t.g.g.g.g.g.g.g.g.s.j.",
"j.j.g.g.g.g.g.g.g.g.g.g.g.g.a.a.s.s.a.a.g.g.g.g.g.g.g.g.a.j.",
"j.j.g.g.g.g.g.g.g.g.g.g.g.g.g.i.g.a.a.a.g.g.g.g.g.g.g.g.a.j.",
"j.j.g.g.g.g.g.g.g.g.g.g.g.g.g.i.g.g.g.g.g.g.g.g.g.g.g.g.g.i.",
"j.j.g.g.g.g.g.g.g.g.g.g.g.g.g.g.g.g.g.g.g.g.g.g.g.g.g.g.a.j."
};
