/* XPM */
static xpm_row_t const number5[] = {
/* columns rows colors chars-per-pixel */
"45 50 104 2",
"   c #275E27",
".  c #2A5D2A",
"X  c #2B632B",
"o  c #2C6B2C",
"O  c #2B742B",
"+  c #2B7B2B",
"@  c #356D35",
"#  c #337033",
"$  c #337C34",
"%  c #415141",
"&  c #497E49",
"*  c #5E695F",
"=  c #557B55",
"-  c #606261",
";  c #666E66",
":  c #6D6C6E",
">  c #677168",
",  c #69736A",
"<  c #6C7B6D",
"1  c #2D832D",
"2  c #2E8A2E",
"3  c #328332",
"4  c #328C32",
"5  c #398439",
"6  c #3B8B3B",
"7  c #329432",
"8  c #349B34",
"9  c #3B953C",
"0  c #3C9D3C",
"q  c #37A237",
"w  c #37A937",
"e  c #38A739",
"r  c #3AAC3A",
"t  c #3CB33C",
"y  c #3FBB3F",
"u  c #478248",
"i  c #458F45",
"p  c #4B834B",
"a  c #4D8B4D",
"s  c #479247",
"d  c #409A40",
"f  c #538C53",
"g  c #519451",
"h  c #589258",
"j  c #5B9A5B",
"k  c #44A445",
"l  c #43AC43",
"z  c #43B343",
"x  c #40BD40",
"c  c #678E68",
"v  c #6D806E",
"b  c #649D64",
"n  c #6A9C6B",
"m  c #718271",
"M  c #7A8F7A",
"N  c #759776",
"B  c #7C957D",
"V  c #7D997E",
"C  c #6BA16B",
"Z  c #42C342",
"A  c #45CC45",
"S  c #47D247",
"D  c #48D648",
"F  c #4BDC4B",
"G  c #4CE24C",
"H  c #848584",
"J  c #849485",
"K  c #859885",
"L  c #8C958D",
"P  c #8A9C8B",
"I  c #8F9790",
"U  c #929B93",
"Y  c #979B98",
"T  c #9FA2A0",
"R  c #A29CA2",
"E  c #A1A6A2",
"W  c #ABA5AC",
"Q  c #B3ADB5",
"!  c #B6B1B6",
"~  c #B7B2B8",
"^  c #B9B5BA",
"/  c #BDBABE",
"(  c #C2BEC3",
")  c #C8BFCA",
"_  c #C5C2C5",
"`  c #C7C3C9",
"'  c #CAC5CB",
"]  c #CCC9CD",
"[  c #CDC6D0",
"{  c #CFCCD0",
"}  c #D0CACF",
"|  c #D2CDD4",
" . c #D4D2D6",
".. c #D7D3D8",
"X. c #D9D6DA",
"o. c #DDDADD",
"O. c #DFDCE0",
"+. c #E0DEDF",
"@. c #E1DEE2",
"#. c #E4E2E4",
"$. c #E7E5E8",
"%. c #E9E7EA",
"&. c #EBE9EC",
"*. c #EEEDF0",
/* pixels */
"G G G G G G G G G G G G G G G G G G G G G G G G G G G G G G G G G G G G G G G G G G G G G ",
"G G G G G G G G G G G G G G G G G G G G G G G G G G G G G G G G G G G G G G G G G G G G G ",
"G G G G G G G G G G G G G G G G G G G G G G G G G G G G G G G G G G G G G G G G G G G G G ",
"G G G G G G G G G G G G G G G G G G G G G G G G G G G G G G G G G G G G G G G G G G G G G ",
"G G G G G G G G G G G G G G G G G G G G G G G G G G G G G G G G G G G G G G G G G G G G G ",
"G G G G G G G G G G G G G G F G G G G G G G G G G G G G G G G G G G G G G G G G G G G G G ",
"G G G G G G G G G G G G G G G G G G G G G F G G F G G G G G G G G G G G G G G G G G G G G ",
"G G G G G G G G G G G G G G F F G F G F F F F F F F F F F G F G G G G G G G G G G G G G G ",
"G G G G G G G G G G G G F F F F D D F D D D D F S D S D D D F F F G G G G G G G G G G G G ",
"G G G G G G G G G G F G F D S S S S A A A A A A A A A A S A S S F F F G G G G G G G G G G ",
"G G G G G G G G G F F D S A A Z Z y y y y x y y x y y x x Z A A A S F F G G G G G G G G G ",
"G G G G G G G G G G D S A y y y t r r r e r w r r r r r r t t Z A A S F F G G G G G G G G ",
"G G G G G G G G F D S A Z z s u & u & & & & & u & & & u p u p a k A A D G G G G G G G G G ",
"G G G G G G G G F D A Z l = H ^ ` ` ` ` ` ` ' ' ' ] } } | | | / i Z A S F G G G G G G G G ",
"G G G G G G G G F S A x s H X.o.X.X.X.X.o.o.+.+.#.@.#.#.$.%.*.| a x A S F F G G G G G G G ",
"G G G G G G G G D S Z y p ~ o.X. .....X.o.o.+.+.+.#.#.$.$.%.*...g x A S F G G G G G G G G ",
"G G G G G G G G F A Z t a ` o. . . . . ...X.X.o.o.+.+.#.#.#.%. .g y A S F G G G G G G G G ",
"G G G G G G G G F A y r a _ o. . . .' U J L I I I I I I I U Y P g Z A D F G G G G G G G G ",
"G G G G G G G F D A Z r f ] o. . .X.' v # $ 3 5 5 6 6 6 6 9 d k z A S D F G G G G G G G G ",
"G G G G G G G F D A y r f '  . .{  ._ v O + 2 4 4 7 7 8 q w r t y A S F G G G F G G G G G ",
"G G G G G G F F D A Z r h ] X. . .X.] v + 1 2 2 7 7 8 8 q e r t Z A A F F G G G G G G G G ",
"G G G G G G G F D A y w h { @.X.X.o.{ m O + 1 3 4 4 7 7 7 8 r t y A A F F G G G G G G G G ",
"G G G G G G G F F A Z r j  .#.o.o.+. .T K P P P P P P P I K c k y Z S D F G G G G G G G G ",
"G G G G G G G F D A y t j  .$.#.+.+.#.#.#.$.#.%.%.%.%.&.&.@.( B l x A D F F G G G G G G G ",
"G G G G G G G G D A Z t j  .&.$.#.#.#.$.$.$.%.%.%.$.%.%.%.&.&.^ j y A S F F F G G G G G G ",
"G G G G G G G G F S A y j ! $.%.%.%.%.%.&.&.&.&.&.$.%.%.%.%.&.X.b t Z A F F G G G G G G G ",
"G G G G G G G G F D A Z z N ^ X.O.O.o.O.o.@.o.@.+.+.#.%.%.&.*.@.n r Z S F G G G G G G G G ",
"G G G G G G G G G F A Z y l j N V V V V V V B B M E @.&.&.&.*.@.n w x A D G G G G G G G G ",
"G G G G G G G G G F D A x t w 0 8 8 7 7 4 2 1 + O J @.%.$.&.&.@.C w x A F F G G G G G G G ",
"G G G G G G G G F F S A Z y t e q 8 8 7 7 7 2 1 O L @.&.&.&.&.@.b w x A D F G G G G G G G ",
"G G G G G G G G F F A A Z y r r q q 8 7 7 4 3 1 + m | @.X.@.+.( @ r x A D F G G G G G G G ",
"G G G G G G G F F D S Z z 0 9 7 3 3 3 3 3 $ + O X % W ) ) [ | W . r x A D F G G G G G G G ",
"G G G G G G G G F D A Z $ * < , , , > ; > > > ; - : ~ ' ) ) ..Q . r x A D F G G G G G G G ",
"G G G G G G G F F S A Z o ! o.X.X.| | | | } } } ' ` ' [ ) | X.Q . l Z A D G G G G G G G G ",
"G G G G G G G G F S A y o / $.@.o.X.X.X.......| ..| | | ....@.W X z Z S F G G G G G G G G ",
"G G G G G G G G F S A Z o / $.@.@.X.X.X....... .| | | | | X.[ - $ x A D F G G G G G G G G ",
"G G G G G G G G F D A Z o R ( / / ~ ~ ~ ~ ~ ~ ~ Q Q ! ! ! R - . r Z A D F G G G G G G G G ",
"G G G G G G G G G S S A 7 o X X X X . . . . . . . . . . X X $ r Z A S F F G G G G G G G G ",
"G G G G G G G G G F S S A Z x t r r r r r r t r l r r r z y y Z A S D F G G G G G G G G G ",
"G G G G G G G G G F F S A A Z Z Z Z x x z x z z y y x x Z Z A A S D F F G G G G G G G G G ",
"G G G G G G G G G G F F F S S A A A A A A A A A A A A A S S S F F G G G G G G G G G G G G ",
"G G G G G G G G G G G F F F F S D F D F S D D D S D G F S F F G G G G G G G G G G G G G G ",
"G G G G G G G G G G F G G F G F F F F F F F F F F F G F F G G G G G G G G G G G G G G G G ",
"G G G G G G G G G G G G G G G G G G G G G F G G G G G G G G G G G G G G G G G G G G G G G ",
"G G G G G G G G G G G G G G G G G G G G G G G G G G G G G G G G G G G G G G G G G G G G G ",
"G G G G G G G G G G G G G G G F G G G G G G G G G G G G G G G G G G G G G G G G G G G G G ",
"G G G G G G G G G G G G G G G G G G G G G G G G G G G G G G G G G G G G G G G G G G G G G ",
"G G G G G G G G G G G G G G G G G G G G G G G G G G G G G G G G G G G G G G G G G G G G G ",
"G G G G G G G G G G G G G G G G G G G G G G G G G G G G G G G G G G G G G G G G G G G G G ",
"G G G G G G G G G G G G G G G G G G G G G G G G G G G G G G G G G G G G G G G G G G G G G "
};
