/* XPM */
static xpm_row_t const number5[] = {
/* columns rows colors chars-per-pixel */
"30 30 252 2",
"   c #2D722D",
".  c #2D7F2E",
"X  c #2F7930",
"o  c #327632",
"O  c #327A32",
"+  c #6D7C6E",
"@  c #2D842D",
"#  c #2D862D",
"$  c #308430",
"%  c #318831",
"&  c #308B30",
"*  c #318D31",
"=  c #308F30",
"-  c #348934",
";  c #358F35",
":  c #3C8E3D",
">  c #3D8E3D",
",  c #329232",
"<  c #339233",
"1  c #329432",
"2  c #369337",
"3  c #339833",
"4  c #339B33",
"5  c #359A35",
"6  c #359F35",
"7  c #399C39",
"8  c #37A237",
"9  c #3AA63A",
"0  c #3EA03E",
"q  c #3DA63D",
"w  c #39AD39",
"e  c #3AB13A",
"r  c #3BB33B",
"t  c #3BB43B",
"y  c #3BB53B",
"u  c #3CB23C",
"i  c #3DB23D",
"p  c #3CB53C",
"a  c #3CB63C",
"s  c #3CB73C",
"d  c #3CB93C",
"f  c #3DB93D",
"g  c #3EBB3D",
"h  c #3EBB3E",
"j  c #3FBB3F",
"k  c #3FBD3F",
"l  c #3FBE3F",
"z  c #3FC13F",
"x  c #4D804D",
"c  c #4D824D",
"v  c #4E814E",
"b  c #4E824E",
"n  c #4E824F",
"m  c #4E834E",
"M  c #4F834F",
"N  c #4C844C",
"B  c #4F854F",
"V  c #4F8B4F",
"C  c #4F8D4F",
"Z  c #449344",
"A  c #4E9D4E",
"S  c #4E9E4E",
"D  c #508951",
"F  c #518F51",
"G  c #558B55",
"H  c #5F9960",
"J  c #4BAE4C",
"K  c #42B543",
"L  c #40BA40",
"P  c #41BA41",
"I  c #41BB41",
"U  c #42B842",
"Y  c #40BF40",
"T  c #43BC43",
"R  c #5EA55E",
"E  c #59A859",
"W  c #5FA95F",
"Q  c #5EAA5E",
"!  c #629763",
"~  c #629863",
"^  c #639963",
"/  c #629A63",
"(  c #619C61",
")  c #649964",
"_  c #649B64",
"`  c #659F65",
"'  c #659E66",
"]  c #718771",
"[  c #738974",
"{  c #728E73",
"}  c #748B75",
"|  c #779077",
" . c #65A066",
".. c #64A265",
"X. c #65A565",
"o. c #69A169",
"O. c #6BA46B",
"+. c #6BAA6C",
"@. c #6EA96F",
"#. c #6FAB70",
"$. c #75AC75",
"%. c #76AE77",
"&. c #7EA77F",
"*. c #7AAF7B",
"=. c #41C141",
"-. c #40C240",
";. c #40C440",
":. c #41C441",
">. c #41C541",
",. c #41C641",
"<. c #42C642",
"1. c #43C843",
"2. c #43C943",
"3. c #44CB44",
"4. c #44CC44",
"5. c #44CD44",
"6. c #45CC45",
"7. c #45CD45",
"8. c #45CE45",
"9. c #45CF45",
"0. c #46CD46",
"q. c #46CE46",
"w. c #46CF46",
"e. c #46D046",
"r. c #46D146",
"t. c #47D147",
"y. c #47D247",
"u. c #47D347",
"i. c #48D448",
"p. c #48D548",
"a. c #48D648",
"s. c #48D748",
"d. c #49D849",
"f. c #49D949",
"g. c #49DA49",
"h. c #4ADA4A",
"j. c #4ADB4A",
"k. c #4ADC4A",
"l. c #4ADD4A",
"z. c #4BDC4B",
"x. c #4BDD4B",
"c. c #4BDE4B",
"v. c #4BDF4B",
"b. c #4BE04B",
"n. c #4BE14B",
"m. c #4CE14C",
"M. c #4CE24C",
"N. c #4EE44E",
"B. c #828F83",
"V. c #848B85",
"C. c #829D83",
"Z. c #879B88",
"A. c #8B998B",
"S. c #8D9C8E",
"D. c #909091",
"F. c #80A180",
"G. c #81A582",
"H. c #82A682",
"J. c #82A883",
"K. c #89A289",
"L. c #8AA08B",
"P. c #89A68A",
"I. c #8DA28D",
"U. c #8EA48E",
"Y. c #8FA58F",
"T. c #88A889",
"R. c #8BA88C",
"E. c #8BAA8C",
"W. c #8CAB8D",
"Q. c #90A891",
"!. c #90AA91",
"~. c #9DA39D",
"^. c #A1ADA2",
"/. c #ABB0AC",
"(. c #B5BAB6",
"). c #BBC0BC",
"_. c #BEC2BF",
"`. c #C0BBC1",
"'. c #C3BEC5",
"]. c #C3BFC4",
"[. c #C4BFC5",
"{. c #C4BFC6",
"}. c #C5BEC7",
"|. c #C3C5C4",
" X c #C5C0C6",
".X c #C7C2C8",
"XX c #C7C3C8",
"oX c #C8C4C9",
"OX c #CAC6CB",
"+X c #CBC4CD",
"@X c #CCC8CD",
"#X c #CCC9CD",
"$X c #CDC9CD",
"%X c #CFCACF",
"&X c #CEC9D0",
"*X c #CFCCD1",
"=X c #D0CBD1",
"-X c #D0CAD2",
";X c #D0CCD1",
":X c #D0CDD1",
">X c #D1CDD1",
",X c #D1CED2",
"<X c #D3CDD3",
"1X c #D2CED3",
"2X c #D3CED5",
"3X c #D3CFD4",
"4X c #D4CFD5",
"5X c #D3D0D4",
"6X c #D3D0D5",
"7X c #D3D1D5",
"8X c #D4D1D4",
"9X c #D4D1D6",
"0X c #D5D1D7",
"qX c #D5D3D7",
"wX c #D6D1D7",
"eX c #D6D3D6",
"rX c #D7D2D8",
"tX c #D7D3D8",
"yX c #D6D4D8",
"uX c #D7D4D8",
"iX c #D8D3DA",
"pX c #D8D4D8",
"aX c #D8D5D9",
"sX c #DAD7DA",
"dX c #DBD7DB",
"fX c #DBD9DC",
"gX c #DDDADD",
"hX c #DEDADE",
"jX c #DEDADF",
"kX c #DEDBDE",
"lX c #DEDCDF",
"zX c #E0DCDF",
"xX c #E1DDE2",
"cX c #E2DFE2",
"vX c #E2DFE3",
"bX c #E3E1E3",
"nX c #E4E0E4",
"mX c #E4E1E5",
"MX c #E5E2E5",
"NX c #E5E3E5",
"BX c #E5E2E6",
"VX c #E5E3E6",
"CX c #E6E4E7",
"ZX c #E7E4E8",
"AX c #E7E5E8",
"SX c #E8E5E8",
"DX c #E8E5E9",
"FX c #E8E6E9",
"GX c #E9E6EA",
"HX c #E9E7EA",
"JX c #EAE8EB",
"KX c #EBE9EC",
/* pixels */
"N.N.M.M.M.M.M.M.M.M.M.M.M.M.M.M.M.M.M.M.M.M.M.M.M.M.M.M.M.N.",
"N.N.M.M.M.M.M.M.M.M.M.M.M.M.M.M.M.M.M.M.M.M.M.M.M.M.M.M.M.N.",
"N.N.M.M.M.M.M.M.M.M.v.M.M.M.M.M.M.M.M.M.M.M.M.M.M.M.M.M.M.N.",
"N.N.M.M.M.M.M.M.M.M.v.M.M.M.M.M.M.M.M.M.M.M.M.M.M.M.M.M.M.N.",
"N.N.M.M.M.M.M.M.M.v.v.l.l.l.f.l.f.l.f.l.v.v.M.M.M.M.M.M.M.N.",
"N.N.M.M.M.M.M.M.v.l.a.u.t.t.8.8.8.8.t.t.u.l.v.v.M.M.M.M.M.N.",
"N.N.M.M.M.M.M.v.f.t.>.l a r r r a r t d z 8.u.l.M.M.M.M.M.N.",
"N.N.M.M.M.M.M.f.8.I S H ~ ~ ~ ~ ^ ) ) ` ..J 8.f.z.M.M.M.M.N.",
"N.N.M.M.M.M.v.u.>.S ~.$X,X,X,X2X6XyXgXgX6XX.>.u.b.M.M.M.M.N.",
"N.N.M.M.M.M.v.t.I ( $XyXqXqXdXgXkXbXBXZXxX@.=.a.b.M.M.M.M.N.",
"N.N.M.M.M.M.l.t.d ` ,XqX6X/.Z.S.I.U.U.Q.!.E 2.f.M.M.M.M.M.N.",
"N.N.M.M.M.M.l.8.d o.,X6X3XA.o # - ; 2 7 q L t.f.M.b.M.M.M.N.",
"N.N.M.M.M.M.l.8.a O.6XuXyXS.X # * , 1 8 w I 8.h.b.M.M.M.M.N.",
"N.N.M.M.M.M.l.t.a @.fXkXgX(.K.P.E.E.W.T...K 3.f.c.M.M.M.M.N.",
"N.N.M.M.N.v.l.t.l @.kXNXbXBXCXZXJXCXJXCX|.X.>.a.l.M.M.M.M.N.",
"N.N.M.M.v.v.v.a.>.Q _.xXBXBXBXBXNXbXJXKXbX$.d y.c.M.M.M.M.N.",
"N.N.M.M.M.M.M.l.8.K R &.J.H.H.F.C.).HXKXZX*.a t.l.M.M.M.M.N.",
"N.N.M.M.M.M.v.l.t.=.e 8 4 1 * # X ^.ZXKXBX$.t 8.l.b.M.M.M.N.",
"N.N.M.M.M.M.v.f.8.I q 5 , * % .   B.2XyX-X! t 8.l.b.M.M.M.N.",
"N.N.M.M.M.v.v.f.2.Z { } } [ [ ] + D.}.+X}.O a t.l.M.M.M.M.N.",
"N.N.M.M.M.M.v.a.>.F %XgXiXqX2X2X-X%X2XyX}.+ t z v.M.M.M.M.N.",
"N.N.M.M.M.M.v.f.>.F ].,XXXXXXXXX}.}.].(.V.> z b.b.M.M.M.M.N.",
"N.N.M.M.M.M.v.f.8.7 V D B M n M n n M N 2 z z M.b.M.M.M.M.N.",
"N.N.M.M.M.M.v.v.a.8.z d a a e e e e r z z r.b.M.M.M.M.M.M.N.",
"N.N.M.M.M.M.M.v.v.l.u.t.t.t.8.8.0.t.y.y.f.l.M.M.M.M.M.M.M.N.",
"N.N.M.M.M.M.M.M.v.v.l.l.l.l.f.l.z.z.z.z.M.M.M.M.M.M.M.M.M.N.",
"N.N.M.M.M.M.M.M.M.M.v.v.M.M.M.M.M.M.N.M.M.M.M.M.M.M.M.M.M.N.",
"N.N.M.M.M.M.M.M.M.M.v.v.M.M.M.M.M.M.M.M.M.M.M.M.M.M.M.M.M.N.",
"N.N.M.M.M.M.M.M.M.M.M.M.M.M.M.M.M.M.M.M.M.M.M.M.M.M.M.M.M.N.",
"N.N.M.M.M.M.M.M.M.M.M.M.M.M.M.M.M.M.M.M.M.M.M.M.M.M.M.M.M.N."
};
