/* XPM */
static xpm_row_t const number7[] = {
/* columns rows colors chars-per-pixel */
"43 50 104 2",
"   c #2E5B2E",
".  c #334D33",
"X  c #3C4F3C",
"o  c #2D672D",
"O  c #2D692D",
"+  c #306531",
"@  c #316C31",
"#  c #3B6C3B",
"$  c #327732",
"%  c #337F33",
"&  c #4D564D",
"*  c #4C734C",
"=  c #497D49",
"-  c #5A605A",
";  c #5E7D5E",
":  c #69656A",
">  c #6C6C6C",
",  c #627262",
"<  c #6E7F6E",
"1  c #767576",
"2  c #7A777B",
"3  c #2A822A",
"4  c #358235",
"5  c #338833",
"6  c #3B8A3B",
"7  c #309030",
"8  c #349A34",
"9  c #3B923C",
"0  c #3B9C3B",
"q  c #37A737",
"w  c #39A339",
"e  c #39AC39",
"r  c #3CB43C",
"t  c #3FB93F",
"y  c #478947",
"u  c #4C834C",
"i  c #4B8A4C",
"p  c #439443",
"a  c #439C43",
"s  c #4C954C",
"d  c #4C984C",
"f  c #528452",
"g  c #598F59",
"h  c #579258",
"j  c #5D985E",
"k  c #44A444",
"l  c #41AD42",
"z  c #43B443",
"x  c #40BD40",
"c  c #48B648",
"v  c #648565",
"b  c #618B62",
"n  c #6A876B",
"m  c #6F9270",
"M  c #738474",
"N  c #7A867A",
"B  c #739873",
"V  c #7C907C",
"C  c #42C442",
"Z  c #45CC45",
"A  c #47D247",
"S  c #48D648",
"D  c #4BDC4B",
"F  c #55DE55",
"G  c #5CDA5C",
"H  c #4CE24C",
"J  c #51E051",
"K  c #858585",
"L  c #878488",
"P  c #818881",
"I  c #888E89",
"U  c #859085",
"Y  c #839C84",
"T  c #8C948C",
"R  c #8C998D",
"E  c #929B93",
"W  c #9C9B9C",
"Q  c #98A099",
"!  c #A3A5A4",
"~  c #A9A6AA",
"^  c #ABACAC",
"/  c #AEAEB0",
"(  c #B1AEB1",
")  c #B2B2B2",
"_  c #BBBABC",
"`  c #C1BEC2",
"'  c #C4C1C5",
"]  c #C7C7C8",
"[  c #C9C6CA",
"{  c #CDCACE",
"}  c #D1CED2",
"|  c #D4D2D5",
" . c #D6D5D8",
".. c #D9D6DA",
"X. c #DCDADD",
"o. c #DFDDE0",
"O. c #E0DFE2",
"+. c #E3E2E4",
"@. c #E7E6E8",
"#. c #E8E7E9",
"$. c #ECEBED",
"%. c #EEEDF0",
"&. c #F0EFF1",
"*. c #F2F0F3",
/* pixels */
"H H H H H H H H H H H H H H H H H H H H H H H H H H H H H H H H H H H H H H H H H H H ",
"H H H H H H H H H H H H H H H H H H H H H H H H H H H H H H H H H H H H H H H H H H H ",
"H H H H H H H H H H H H H H H H H H H H H H H H H H H H H H H H H H H H H H H H H H H ",
"H H H H H H H H H H H H H H H H H H H H H H H H H H H H H H H H H H H H H H H H H H H ",
"H H H H H H H H H H H H H H H H H H H H H H H H H H D H H H H H H H H H J J J H H H H ",
"H H H H H H H H H H H H H H H H H H H H H H H H H H H H H H H H H H H H J J J H H H H ",
"H H H H H H H H H H H H H H H D H H H H H H D H H H H H H H H H H H H H J H H H H H H ",
"H H H H H H H H H H H H D H D D H D H D D D D D D D D H D D H H H H H H H H H H H H H ",
"H H H H H H H H H H D D D D S A S S D S S S S A S S S S S D D H H H H H H H H H H H H ",
"H H H H H H H H H D D S A A A A A Z Z A A Z Z Z Z Z Z Z A A S D D D H H D H H H H H H ",
"H H H H H H H H H D S S A C C C x t t t t t t C x x C C Z Z A A D D D H H H H H H H H ",
"H H H H H D H H S S Z Z C x r e e r e q e e q q e e e r r t Z Z S D D H H H H H H H H ",
"H H H H H H H D D S Z k y u u u u u = = = = = = = = = u u i y c A S D D H H H H H H H ",
"H H H H H H H H S A Z s K | } } { [ [ [ [ [ [ [ [ [ { { } _ , z Z A D D H H H H H H H ",
"H H H H H H H H S A C l < X.$.@.+.+.o.o.X.X.......X.X.+.#.) f z Z A D D H H H H H H H ",
"H H H H H H H H D S Z z f ) $.@.+.+.+.X.o...........X.+.+.P a t Z A D H H H H H H H H ",
"H H H H H H H H D A Z x a I O.O.+.o.X.X... .| | | ..X.+.` ; e t Z A D H H H H H H H H ",
"H H H H H H H H D S A C z b R E E R R T T T ^  ...X.X.+.W y e C Z S D D H H H H H H H ",
"H H H H H H H H D D S Z C z k k 0 9 6 4 $ # E ....X.+.| M 0 r C A D D D H H H H H H H ",
"H H H H H H H H D D S S Z C t t e q w 5 3 * ^ X.o.X.o.^ f q t Z S D D H H H H H H H H ",
"H H H H H H H H H H D D A A Z C x r w 8 4 M } +.o.O...T p r t A D D D H H H H H H H H ",
"H H H H H H H H H H D D D S A Z C z e 8 u ! +.+.+.@.[ v 0 r C A D H H H H H H H H H H ",
"H H H H H H H H H H H D D D S A Z t e 8 n { @.@.@.@.! i e t Z A H H H H H H H H H H H ",
"H H H H H H H H H H H H H D D A Z t e p W +.#.#.$.X.V w r C A S H H H H H H H H H H H ",
"H H H H H H H H H H H H H S S A C r q b ' $.#.$.$._ g q t Z A D H H H H H H H H H H H ",
"H H H H H H H H H H H H H D S Z C r 0 R O.$.$.$.@.E a e t A S D H H H H H H H H H H H ",
"H H H H H H H H H H H H H D A Z t e h _ &.$.%.%.} m w t Z A D D H H H H H H H H H H H ",
"H H H H H H H H H H H H D S A C r 0 Y X.&.%.&.$.) d e x Z A D H H H H H H H H H H H H ",
"H H H H H H H H H H H D D A Z t e d ) $.%.%.&.o.Y 0 r C A S D H H H H H H H H H H H H ",
"H H H H H H H H H H H D D A Z t q B  .*.&.&.&.] j e t Z A D D H H H H H H H H H H H H ",
"H H H H H H H H H H H D S Z C r 9 N  .o.o.o.| U a r x Z S D H H H H H H H H H H H H H ",
"H H H H H H H H H H H D A Z t e O 1 | | } | L   w t Z A D D H H H H H H H H H H H H H ",
"H H H H H H H H H H D D A C z w . ( X.....} & 4 e C Z S D H H H H H H H H H H H H H H ",
"H H H H H H H H H H D S A C r 4 - ..X...X.~ . w r C S S D H H H H H H H H H H H H H H ",
"H H H H H H H H H H H D A C r   W O.o.o.X.> @ r x Z S S H H H H H H H H H H H H H H H ",
"H H H H H H H H H H H D Z C 8 & | @.O.O.` X 0 t C A D D H H H H H H H H H H H H H H H ",
"H H H H H H H H H H H S A C # : ' ` _ ` 2 + r C Z S D D H H H H H H H H H H H H H H H ",
"H H H H H H H H H H H D A Z 5 O @ O o @ + w C Z S S D D H H H H H H H H H H H H H H H ",
"H H H H H H H H H H H D S A Z C t t z z x C Z A S D D H H H H H H H H H H H H H H H H ",
"H H H H H H H H H H H D D S A Z Z Z C Z Z Z A S D H H H H H H H H H H H H H H H H H H ",
"H H H H H H H H H H H H D D S A A A A A A S S H H H H H H H H H H H H H H H H H H H H ",
"H H H H H H H H H H H H H D D D D H D D D D D H H H H H H H H H H H H H H H H H H H H ",
"H H H H H H H H H H H H H H H H H H H H H H H H H H H H H H H H H H H H H H H H H H H ",
"H H H H H H H H H H H H H H D H H H H H H H H H H H H H H H H H H H J J H H H H H H H ",
"H H H H H H H H H H H H H H H H H H H H H H H H H H H H H H H H H H H H H H H H H H H ",
"H H H H H H H H H H H H H H H H H H H H H H H H H H H H H H H H H H H H H H H H H H H ",
"H H H H H H H H H H H H H H H H H H H H H H H H H H H H H H H H H H H H H H H H H H H ",
"H H H H H H H H H H H H H H H H H H H H H H H H H H H H H H H H H H H H H H H H H H H ",
"H H H H H H H H H H H H H H H H H H H H H H H H H H H H H H H H H H H H H H H H H H H ",
"H H H H H H H H H H H H H H H H H H H H H H H H H H H H H H H H H H H H H H H H H H H "
};
