/* XPM */
static xpm_row_t const number7[] = {
/* columns rows colors chars-per-pixel */
"30 30 188 2",
"   c #367936",
".  c #4C774C",
"X  c #507E50",
"o  c #358E35",
"O  c #388838",
"+  c #3A8E3A",
"@  c #359135",
"#  c #359E35",
"$  c #399F39",
"%  c #3B9F3B",
"&  c #39A039",
"*  c #38A238",
"=  c #3AAF3A",
"-  c #3BAF3B",
";  c #3CAB3C",
":  c #3EAA3E",
">  c #3EAC3E",
",  c #3AB33A",
"<  c #3BB33A",
"1  c #3BB33B",
"2  c #3BB53B",
"3  c #3BB63B",
"4  c #3CB03C",
"5  c #3CB43C",
"6  c #3CB53C",
"7  c #3DB43D",
"8  c #3EB53E",
"9  c #3EB73E",
"0  c #3CB93C",
"q  c #3DB83D",
"w  c #3DB93D",
"e  c #3DBB3D",
"r  c #3EBE3E",
"t  c #3FBE3F",
"y  c #3FBF3F",
"u  c #3FC03F",
"i  c #468647",
"p  c #438943",
"a  c #479F47",
"s  c #4C9C4C",
"d  c #508951",
"f  c #548C54",
"g  c #548F54",
"h  c #519652",
"j  c #549D54",
"k  c #589158",
"l  c #5A9C5A",
"z  c #40A140",
"x  c #41A741",
"c  c #47A347",
"v  c #48A048",
"b  c #4FA04F",
"n  c #42B742",
"m  c #47B047",
"M  c #40BB40",
"N  c #43BA43",
"B  c #40BD40",
"V  c #40BE40",
"C  c #58A058",
"Z  c #619561",
"A  c #629762",
"S  c #629862",
"D  c #629863",
"F  c #639863",
"G  c #669A67",
"H  c #649C65",
"J  c #659D65",
"K  c #649E64",
"L  c #669D66",
"P  c #738273",
"I  c #768376",
"U  c #748F74",
"Y  c #789978",
"T  c #789979",
"R  c #67A067",
"E  c #67A267",
"W  c #74A275",
"Q  c #79A179",
"!  c #40C140",
"~  c #40C240",
"^  c #41C241",
"/  c #43C343",
"(  c #41C441",
")  c #42C442",
"_  c #42C542",
"`  c #42C642",
"'  c #45C045",
"]  c #43C843",
"[  c #43C943",
"{  c #43CA43",
"}  c #44C944",
"|  c #44CA44",
" . c #46C946",
".. c #44CC44",
"X. c #44CD44",
"o. c #45CD45",
"O. c #45CE45",
"+. c #45CF45",
"@. c #46CF46",
"#. c #46D046",
"$. c #46D146",
"%. c #47D247",
"&. c #47D347",
"*. c #47D447",
"=. c #48D548",
"-. c #48D648",
";. c #48D748",
":. c #48D848",
">. c #49D849",
",. c #49D949",
"<. c #49DA49",
"1. c #4AD94A",
"2. c #4ADA4A",
"3. c #4ADB4A",
"4. c #4ADC4A",
"5. c #4ADD4A",
"6. c #4BDC4B",
"7. c #4BDD4B",
"8. c #4BDE4B",
"9. c #4BDF4B",
"0. c #4BE04B",
"q. c #4BE14B",
"w. c #4BE24B",
"e. c #4CE14C",
"r. c #4DE14D",
"t. c #4CE24C",
"y. c #4FE04F",
"u. c #4EE44E",
"i. c #829F82",
"p. c #8A918B",
"a. c #889B89",
"s. c #8F9E90",
"d. c #929892",
"f. c #81A681",
"g. c #8AA28B",
"h. c #8DA78E",
"j. c #91A592",
"k. c #91AC92",
"l. c #9BB59C",
"z. c #A8AEA9",
"x. c #A9B2A9",
"c. c #ADBCAE",
"v. c #AFBBB0",
"b. c #B7B7B8",
"n. c #B7BEB8",
"m. c #BABDBA",
"M. c #BDBFBE",
"N. c #BEBCBF",
"B. c #C4C3C5",
"V. c #C5C3C6",
"C. c #C5C6C6",
"Z. c #C9CDCA",
"A. c #D0CDD1",
"S. c #D1CED2",
"D. c #D2CFD3",
"F. c #D2D0D3",
"G. c #D2D2D3",
"H. c #D3D0D4",
"J. c #D4D1D5",
"K. c #D5D3D6",
"L. c #D6D3D7",
"P. c #D6D4D7",
"I. c #D7D4D8",
"U. c #D7D7D8",
"Y. c #D8D6D9",
"T. c #D9D6DA",
"R. c #DAD7DB",
"E. c #DAD8DB",
"W. c #DBD8DC",
"Q. c #DBD9DC",
"!. c #DCD9DD",
"~. c #DDDADE",
"^. c #DDDCDE",
"/. c #DEDCDF",
"(. c #DEDCE0",
"). c #E1DFE2",
"_. c #E2DFE3",
"`. c #E2E1E4",
"'. c #E3E1E4",
"]. c #E6E3E7",
"[. c #E8E7E9",
"{. c #EAE8EB",
"}. c #EAE8EC",
"|. c #EBE9EC",
" X c #EDEBEE",
".X c #EDECEE",
"XX c #EFEDF0",
"oX c #EFEEF1",
/* pixels */
"u.u.t.t.t.t.t.t.t.t.w.w.w.w.w.w.t.t.t.t.t.t.t.t.t.t.t.t.u.u.",
"u.u.t.t.t.t.t.t.t.t.0.0.w.w.w.w.t.t.t.t.t.t.t.t.t.t.t.t.u.u.",
"u.u.t.t.t.t.t.t.t.t.t.u.w.w.w.w.t.t.t.t.t.t.t.t.y.t.t.t.u.u.",
"u.u.t.t.t.t.t.t.t.t.0.0.w.w.w.0.t.t.t.t.t.t.t.t.y.y.t.t.u.u.",
"u.u.t.t.t.t.t.t.0.8.8.8.0.8.8.<.3.3.3.3.t.t.t.t.t.t.t.t.u.u.",
"u.u.t.t.t.t.0.0.<.<.#.#.#.#.#.X.@.X.$.-.<.3.t.t.6.t.t.t.u.u.",
"u.u.t.t.t.0.0.<.#.X.y w 3 , , , 2 3 r ! X.-.3.t.t.t.t.t.u.u.",
"u.u.t.t.t.t.8.-.N j R H H A A A A S H H b  .<.3.t.t.t.t.u.u.",
"u.u.t.t.t.t.6.-.N T I.!.P.J.D.S.S.D.I.C.Z ! -.3.e.w.w.w.u.u.",
"u.u.t.t.t.t.t.-.` l C.]._./.!.I.P.E._.x.v ` *.e.w.w.e.w.u.u.",
"u.u.t.t.t.t.t.-.X.m Q k.h.g.a.z.P.E.P.Y : { <.8.w.w.e.w.u.u.",
"u.u.t.t.t.t.t.3.-.} N : & @   d.E./.m.h w #.8.8.w.w.w.w.u.u.",
"u.u.t.t.t.t.t.t.6.-.X.` 3 # d M._./.j.z ! *.e.e.w.w.w.w.u.u.",
"u.u.t.t.t.t.t.t.6.3.<.#.M & i./.|.D.G 4 ] 8.e.w.w.w.w.e.u.u.",
"u.u.t.t.t.t.t.t.t.t.<.X.w s m.{.|.v.a r *.0.w.w.w.w.w.w.u.u.",
"u.u.t.t.t.t.t.t.t.t.-.] , W ^..X_.f.; ` <.e.w.w.w.e.w.w.u.u.",
"u.u.t.t.t.t.t.t.t.3.-.M v c.XXXXZ.l w X.3.e.e.e.w.w.w.w.u.u.",
"u.u.t.t.t.t.t.t.3.<.X.3 E U.XX|.l.x ` -.3.u.e.e.w.w.e.w.u.u.",
"u.u.t.t.t.t.t.t.t.-.` & U P.^.b.k 3 X.<.0.e.e.e.w.e.e.w.u.u.",
"u.u.t.t.t.t.t.t.3.-.M O d.E.D.P @ ~ *.3.e.e.e.e.w.w.w.w.u.u.",
"u.u.t.t.t.t.t.t.8.#.2 X V._.N.. , { :.0.0.w.w.w.w.w.w.w.u.u.",
"u.u.t.t.t.t.t.t.0.#.& I S.S.p.+ ! #.8.e.w.w.w.w.w.w.e.w.u.u.",
"u.u.t.t.t.t.t.t.8.*.: i g f i 3 #.<.8.e.w.w.w.w.w.e.e.w.u.u.",
"u.u.t.t.t.t.t.t.0.<.#.` y V ` X.*.8.e.w.w.w.w.w.w.w.w.w.u.u.",
"u.u.t.t.t.t.t.t.t.6.<.-.-.-.-.<.e.e.e.e.e.0.w.e.e.w.w.e.u.u.",
"u.u.t.t.t.t.t.t.t.t.6.t.t.t.t.t.e.e.e.e.e.e.e.e.e.w.w.w.u.u.",
"u.u.t.t.t.t.t.t.t.t.t.t.t.t.t.t.w.w.0.e.e.e.t.t.w.w.w.w.u.u.",
"u.u.t.t.t.t.t.t.t.t.t.t.t.t.t.t.w.0.e.0.e.e.u.w.e.w.w.e.u.u.",
"u.u.t.t.t.t.t.t.t.t.t.t.t.t.t.t.w.w.w.w.w.w.w.w.w.w.w.w.u.u.",
"u.u.t.t.t.t.t.t.t.t.t.t.t.t.t.t.w.w.w.w.w.w.w.w.w.w.e.w.u.u."
};
