/* XPM */
static xpm_row_t const number8[] = {
/* columns rows colors chars-per-pixel */
"45 50 122 2",
"   c #283A29",
".  c #1B4D1B",
"X  c #2C4C2C",
"o  c #275E27",
"O  c #2E532E",
"+  c #2A5E2A",
"@  c #324A32",
"#  c #2B632B",
"$  c #296D29",
"%  c #267526",
"&  c #277C27",
"*  c #297529",
"=  c #2A7C2A",
"-  c #326E32",
";  c #327432",
":  c #327A33",
">  c #474E47",
",  c #435844",
"<  c #456C46",
"1  c #49604A",
"2  c #437143",
"3  c #457845",
"4  c #477F48",
"5  c #487D48",
"6  c #556B56",
"7  c #537B53",
"8  c #5B735B",
"9  c #616362",
"0  c #627663",
"q  c #6C7B6C",
"w  c #757376",
"e  c #2B822B",
"r  c #2F8B2F",
"t  c #318C31",
"y  c #388038",
"u  c #329832",
"i  c #3B963B",
"p  c #3A9D3A",
"a  c #36A136",
"s  c #3CA23C",
"d  c #3AAC3A",
"f  c #3DB43D",
"g  c #3FBA3F",
"h  c #478248",
"j  c #468F46",
"k  c #4B824B",
"l  c #488A48",
"z  c #449344",
"x  c #508451",
"c  c #578658",
"v  c #548A54",
"b  c #598C59",
"n  c #539354",
"m  c #549A54",
"M  c #5A945A",
"N  c #41A441",
"B  c #41AA41",
"V  c #43B343",
"C  c #40BD40",
"Z  c #648765",
"A  c #648B65",
"S  c #6B816C",
"D  c #6D8B6E",
"F  c #6D936D",
"G  c #718471",
"H  c #798C7A",
"J  c #7F937F",
"K  c #6AA26A",
"L  c #42C342",
"P  c #45CC45",
"I  c #47D247",
"U  c #48D648",
"Y  c #4BDC4B",
"T  c #4CE24C",
"R  c #7F9280",
"E  c #7F9980",
"W  c #848585",
"Q  c #898F89",
"!  c #839584",
"~  c #839B83",
"^  c #879C88",
"/  c #8A938A",
"(  c #8B998C",
")  c #969596",
"_  c #939F95",
"`  c #98939B",
"'  c #989899",
"]  c #92A393",
"[  c #96A798",
"{  c #9DA39E",
"}  c #A19CA2",
"|  c #A4A3A4",
" . c #A4A8A5",
".. c #ABA6AD",
"X. c #ABA9AC",
"o. c #AFABB1",
"O. c #B4AEB4",
"+. c #B6B1B7",
"@. c #B7B2B8",
"#. c #B8B5B9",
"$. c #BEBCBF",
"%. c #BFBDC1",
"&. c #C2BDC3",
"*. c #C4C2C6",
"=. c #C7C3C8",
"-. c #CAC5CB",
";. c #CDCACE",
":. c #CEC7D1",
">. c #CFCBD0",
",. c #D2CDD4",
"<. c #D5CFD8",
"1. c #D5D2D6",
"2. c #D7D3D8",
"3. c #D9D6DA",
"4. c #DCD9DD",
"5. c #DFDCE0",
"6. c #E1DEE2",
"7. c #E4E2E5",
"8. c #E7E5E8",
"9. c #E9E6EA",
"0. c #ECE9ED",
"q. c #EFEDF0",
/* pixels */
"T T T T T T T T T T T T T T T T T T T T T T T T T T T T T T T T T T T T T T T T T T T T T ",
"T T T T T T T T T T T T T T T T T T T T T T T T T T T T T T T T T T T T T T T T T T T T T ",
"T T T T T T T T T T T T T T T T T T T T T T T T T T T T T T T T T T T T T T T T T T T T T ",
"T T T T T T T T T T T T T T T T T T T T T T T T T T T T T T T T T T T T T T T T T T T T T ",
"T T T T T T T T T T T T T T T T T T T T T T T T T T T T T T T T T T T T T T T T T T T T T ",
"T T T T T T T T T T T T T T T T T T T T T T T T T T T T T T T T T T T T T T T T T T T T T ",
"T T T T T T T T T T T T T T T Y T T T T T T T T Y T T T T T T T T T T T T T T T T T T T T ",
"T T T T T T T T T T T T T T Y T T Y T Y Y Y Y Y Y Y Y Y Y Y T T T T T T T T T T T T T T T ",
"T T T T T T T T T T T T T Y Y Y U U Y U U I U U I U I U Y U Y Y T T T T T T T T T T T T T ",
"T T T T T T T T T T Y Y U U I P I P P P P P P P P P P P P I I U Y Y T T T T T T T T T T T ",
"T T T T T T T T T T Y U I P P L L g g g g C g g L g g C L L P P I U Y Y Y T T T T T T T T ",
"T T T T T T T T T Y U I P L g f f d d d d d d d d d d d d f g L L I U Y Y T T T T T T T T ",
"T T T T T T T T Y U I P L B j 4 h h 5 4 5 5 5 5 5 5 h h h h l N C L I Y Y T T T T T T T T ",
"T T T T T T T T Y U P L V 7 W #.*.=.=.=.-.-.=.-.=.-.-.-.-.&.) 8 N C P I U T T T T T T T T ",
"T T T T T T T T Y I P g z W 3.5.4.3.3.3.3.4.4.4.4.4.4.4.4.6.6.| x f L I U T T T T T T T T ",
"T T T T T T T T U I P f l #.5.3.1.1.1.3.3.4.4.4.4.3.3.3.4.4.6.,.S B C P U Y T T T T T T T ",
"T T T T T T T T U I C f v =.4.2.1.1.1.1.1.3.3.3.1.1.2.2.2.3.6.2.H N C P I Y T T T T T T T ",
"T T T T T T T T Y P L d v =.4.2.1.1.;.' Q / / / Q / =.3.3.3.6.1.H s g P U Y T T T T T T T ",
"T T T T T T T Y U P g d v =.4.2.1.3.-.q - ; : ; ; < $.4.3.6.4.2.R p f P U Y T T T T T T T ",
"T T T T T T T Y U I L d n ;.4.2.1.1.-.S * & = & * 2 $.3.2.3.4.2.R p g L I Y T T T T T T T ",
"T T T T T T T T U I C d n ,.4.4.3.4.;.D * = = = & 2 *.6.4.4.6.3.! p g P U Y Y T T T T T T ",
"T T T T T T T U U I L d M ;.7.4.4.5.1.G $ * = = % 2 =.6.6.6.7.4.J s g P U U T T T T T T T ",
"T T T T T T T T U I L f n  .6.6.6.6.3.{ / ^ ^ / ! ( 1.7.7.7.7.$.A d C P U U T T T T T T T ",
"T T T T T T T T U P L f p Z  .3.7.6.7.7.9.9.9.0.9.9.7.7.7.7.$.H z d C P U Y T T T T T T T ",
"T T T T T T T T U I L f a t 7 *.8.7.8.9.9.0.0.0.0.9.9.9.9.8.( y u d C P U Y Y T T T T T T ",
"T T T T T T T T Y I L f a j D -.8.8.8.7.8.9.9.0.9.8.9.9.9.9.{ c i d C P U Y T T T T T T T ",
"T T T T T T T U U I L d m { <.7.9.9.6. .~ ~ ~ ~ E ( 4.0.0.0.6.#.F B C P U T T T T T T T T ",
"T T T T T T T T T P L d K 3.0.0.9.0.6.E * e e e & 7 3.0.0.0.0.8._ s g P U Y T T T T T T T ",
"T T T T T T T T Y P L d K 6.0.9.8.8.6.~ : r r r e c 3.q.0.0.0.9.[ s g P U Y T T T T T T T ",
"T T T T T T T Y Y P L d M 3.9.9.0.0.7.^ e r r t e c 6.q.0.q.0.9.] p g L I Y Y T T T T T T ",
"T T T T T T T Y U P L d # O.>.,.,.3.-.S = r r r e 3 &.6.4.4.5.>.0 p f P U Y T T T T T T T ",
"T T T T T T T Y U P C d o ..-.*.&.*..., * e e e e . ` -.-.-.1.&.6 i V P I Y T T T T T T T ",
"T T T T T T Y Y U I g d # X.-.*.&.=.o.> X X @ X X   } ,.:.:.<.&.6 p g P I Y Y T T T T T T ",
"T T T T T T T Y U P L f # X.,.-.-.-.-.$.$.&.&.&.&.&.-.>.:.<.<.&.6 p g P U Y T T T T T T T ",
"T T T T T T T T Y I L g # | 1.,.-.-.-.,.1.2.2.2.2.<.<.<.<.<.5.&.1 s C P Y T Y T T T T T T ",
"T T T T T T T T Y I P g : 9 ;.1.>.,.,.,.,.<.2.2.<.1.1.<.<.2.3.W # V L I Y T T T T T T T T ",
"T T T T T T T T Y U P L d O 9 } +.+.O.O.+.+.#.#.@.@.@.#.@...w @ p L P I Y T T T T T T T T ",
"T T T T T T T T T Y I P L d : # # + + + + + + + + + + + + # ; s g P I U Y Y T T T T T T T ",
"T T T T T T T T T Y U U P L C V f d d d d d d d d d d d f f g C P I I Y T T T T T T T T T ",
"T T T T T T T T T Y Y U P P P P C C C C C C V C g C C C L L P P I I Y Y T T T T T T T T T ",
"T T T T T T T T T T T Y Y U I I I P P P I P P P I P P I P U U Y Y Y T T T T T T T T T T T ",
"T T T T T T T T T T T Y Y Y Y U U U U U U I U U I U Y Y U U U T Y T T T T T T T T T T T T ",
"T T T T T T T T T T T T T T Y Y Y Y Y Y Y U Y Y T Y T Y Y T T T T T T T T T T T T T T T T ",
"T T T T T T T T T T T T T T T T T T T T T T T T T T T T Y T T T T T T T T T T T T T T T T ",
"T T T T T T T T T T T T T T T T T T T T T T T T T T T T T T T T T T T T T T T T T T T T T ",
"T T T T T T T T T T T T T T T T T T T T T T T T T T T T T T T T T T T T T T T T T T T T T ",
"T T T T T T T T T T T T T T T T T T T T T T T T T T T T T T T T T T T T T T T T T T T T T ",
"T T T T T T T T T T T T T T T T T T T T T T T T T T T T T T T T T T T T T T T T T T T T T ",
"T T T T T T T T T T T T T T T T T T T T T T T T T T T T T T T T T T T T T T T T T T T T T ",
"T T T T T T T T T T T T T T T T T T T T T T T T T T T T T T T T T T T T T T T T T T T T T "
};
