/* XPM */
static xpm_row_t const number8[] = {
/* columns rows colors chars-per-pixel */
"30 30 243 2",
"   c #277627",
".  c #277D27",
"X  c #2C732C",
"o  c #2D742D",
"O  c #287A28",
"+  c #2B7A2B",
"@  c #2C792C",
"#  c #307430",
"$  c #4C6F4C",
"%  c #4E6E4E",
"&  c #507250",
"*  c #707B71",
"=  c #2A852A",
"-  c #2D832D",
";  c #2D8A2D",
":  c #338433",
">  c #3D833E",
",  c #3E883E",
"<  c #3D8C3D",
"1  c #3D8D3D",
"2  c #3D953E",
"3  c #3A9E3A",
"4  c #3CA93C",
"5  c #3CAC3C",
"6  c #3DAE3D",
"7  c #3DAF3D",
"8  c #3BB33B",
"9  c #3BB43B",
"0  c #3BB53B",
"q  c #3BB63B",
"w  c #3CB03C",
"e  c #3CB23C",
"r  c #3EB13E",
"t  c #3EB33E",
"y  c #3CB53C",
"u  c #3DB53D",
"i  c #3CB63C",
"p  c #3CB73C",
"a  c #3DB73D",
"s  c #3FB43F",
"d  c #3EB63E",
"f  c #3DB83D",
"g  c #3DB93D",
"h  c #3EBB3E",
"j  c #3FBA3F",
"k  c #3EBC3E",
"l  c #3EBD3E",
"z  c #3FBC3F",
"x  c #3FBD3F",
"c  c #3FBE3F",
"v  c #3F8940",
"b  c #428542",
"n  c #448444",
"m  c #4B834B",
"M  c #4A844B",
"N  c #4C834C",
"B  c #4D824D",
"V  c #4E834E",
"C  c #4C844D",
"Z  c #4E844E",
"A  c #4E844F",
"S  c #4F8650",
"D  c #4D9B4D",
"F  c #4D9F4D",
"G  c #519A51",
"H  c #539A53",
"J  c #569957",
"K  c #5E985F",
"L  c #5C9F5D",
"P  c #48A048",
"I  c #41B541",
"U  c #40BE40",
"Y  c #43BD43",
"T  c #618562",
"R  c #668667",
"E  c #678868",
"W  c #609A61",
"Q  c #619A62",
"!  c #629862",
"~  c #629863",
"^  c #629963",
"/  c #629B63",
"(  c #619D62",
")  c #6A916A",
"_  c #689F69",
"`  c #6C9D6C",
"'  c #738F74",
"]  c #719171",
"[  c #749275",
"{  c #7A9D7B",
"}  c #69A269",
"|  c #6BA56C",
" . c #71A971",
".. c #73AC73",
"X. c #40C040",
"o. c #41C041",
"O. c #42C542",
"+. c #42C642",
"@. c #42C742",
"#. c #44CB44",
"$. c #45CC45",
"%. c #45CD45",
"&. c #45CE45",
"*. c #45CF45",
"=. c #46CF46",
"-. c #46D046",
";. c #46D146",
":. c #47D147",
">. c #46D246",
",. c #47D247",
"<. c #47D347",
"1. c #48D448",
"2. c #48D648",
"3. c #49D849",
"4. c #49D949",
"5. c #49DA49",
"6. c #4ADA4A",
"7. c #4ADB4A",
"8. c #4ADC4A",
"9. c #4ADD4A",
"0. c #4BDC4B",
"q. c #4BDD4B",
"w. c #4BDE4B",
"e. c #4BDF4B",
"r. c #4BE04B",
"t. c #4BE14B",
"y. c #4CE14C",
"u. c #4CE24C",
"i. c #4EE44E",
"p. c #7F8F80",
"a. c #808681",
"s. c #838A84",
"d. c #869886",
"f. c #879C88",
"g. c #889888",
"h. c #8B9A8C",
"j. c #889F89",
"k. c #949695",
"l. c #81A182",
"z. c #83A384",
"x. c #86A087",
"c. c #86A287",
"v. c #85A586",
"b. c #87A687",
"n. c #8AA08A",
"m. c #88A489",
"M. c #8EA08F",
"N. c #8DA58E",
"B. c #8CAD8D",
"V. c #90AF91",
"C. c #9DA49E",
"Z. c #9FB2A0",
"A. c #A3AAA4",
"S. c #ACAEAC",
"D. c #AEAFAE",
"F. c #A2B0A3",
"G. c #A4B3A5",
"H. c #ABB5AB",
"J. c #B7BBB8",
"K. c #BBB7BC",
"L. c #BDBABE",
"P. c #BEB9BF",
"I. c #BEC1BF",
"U. c #BDC6BE",
"Y. c #BEC6BF",
"T. c #BEC7BF",
"R. c #C1BDC2",
"E. c #C2BEC3",
"W. c #C2BDC4",
"Q. c #C3BDC4",
"!. c #C3BEC5",
"~. c #C5C0C7",
"^. c #C6C2C7",
"/. c #C6C0C8",
"(. c #C6C1C8",
"). c #C7C2C9",
"_. c #C7C3C9",
"`. c #C9C5CB",
"'. c #CAC6CB",
"]. c #CBC5CD",
"[. c #CBC6CC",
"{. c #CCC7CD",
"}. c #CDC8CF",
"|. c #CCCBCD",
" X c #CDCACE",
".X c #CECECF",
"XX c #CFC9D1",
"oX c #CECAD0",
"OX c #CFCAD0",
"+X c #CFCBD1",
"@X c #CFCCD0",
"#X c #CED0CF",
"$X c #D1CCD2",
"%X c #D1CDD2",
"&X c #D1CED2",
"*X c #D2CED3",
"=X c #D2CFD3",
"-X c #D2CDD5",
";X c #D3CFD4",
":X c #D4CFD5",
">X c #D3D3D4",
",X c #D4D1D5",
"<X c #D5D1D6",
"1X c #D5D2D6",
"2X c #D6D3D7",
"3X c #D6D4D7",
"4X c #D6D0D9",
"5X c #D7D3D8",
"6X c #D7D4D8",
"7X c #D8D4D9",
"8X c #D8D5D9",
"9X c #D9D5DA",
"0X c #D9D5DB",
"qX c #D9D6DA",
"wX c #DAD5DB",
"eX c #DAD6DB",
"rX c #DAD7DB",
"tX c #DBD6DC",
"yX c #DBD7DC",
"uX c #DBD8DC",
"iX c #DCD9DD",
"pX c #DDDADE",
"aX c #DEDADF",
"sX c #DEDBDF",
"dX c #DFDCE0",
"fX c #E0DDE1",
"gX c #E0DEE1",
"hX c #E1DEE2",
"jX c #E3E1E4",
"kX c #E5E1E6",
"lX c #E5E2E6",
"zX c #E6E3E7",
"xX c #E7E4E8",
"cX c #E7E4E9",
"vX c #E8E5E9",
"bX c #E9E5EA",
"nX c #E9E6EA",
"mX c #EAE6EB",
"MX c #EAE7EB",
"NX c #EBE7EC",
"BX c #EBE9EC",
"VX c #ECE9ED",
"CX c #EDE8EE",
/* pixels */
"i.i.u.u.u.u.u.u.u.u.u.u.u.u.u.u.u.u.u.u.u.u.u.u.u.u.u.u.u.i.",
"i.i.u.u.u.u.u.u.u.u.u.u.u.u.u.u.u.u.u.u.u.u.u.u.u.u.u.u.u.i.",
"i.i.u.u.u.u.u.u.u.u.u.u.u.u.u.u.u.u.u.e.u.u.u.u.u.u.u.u.u.i.",
"i.i.u.u.u.u.u.u.u.u.u.u.u.u.u.u.e.u.u.i.u.u.u.u.u.u.u.u.u.i.",
"i.i.u.u.u.u.u.u.u.u.e.u.q.q.q.q.q.3.q.q.e.u.u.u.u.u.u.u.u.i.",
"i.i.u.u.u.u.u.u.u.3.2.=.=.=.$.$.=.$.=.=.2.q.u.u.u.u.u.u.u.i.",
"i.i.u.u.u.u.u.e.3.$.+.l y 9 9 9 f 9 9 l +.$.3.0.e.u.u.u.u.i.",
"i.i.u.u.u.u.u.3.=.Y D K ! ! ! ! ! ! ! ! G I $.3.e.i.u.u.u.i.",
"i.i.u.u.u.u.e.3.+.F C. X+X%X%X*X-X*X*X*XH.J U 2.e.u.u.u.u.i.",
"i.i.u.u.u.u.e.<.c ( %X5X;X5X5XuXuX5X5XpX0X{ y $.q.u.u.u.u.i.",
"i.i.u.u.u.u.e.=.f _ %X5X;XD.g.j.d.A.;XuXtXl.6 $.q.e.u.u.u.i.",
"i.i.u.u.u.u.q.=.f } ;X5X1Xh.# @ X ' 6XuX0Xc.5 #.q.e.u.u.u.i.",
"i.i.u.u.u.u.q.<.f | 6XiXtXM.o O   [ uXsXdXv.7 =.q.e.u.u.u.i.",
"i.i.u.u.u.u.q.=.l L I.fXfXJ.n.m.c.H.fXjX X` y $.3.e.u.u.u.i.",
"i.i.u.u.u.u.e.=.c 3 ) +XkXxXNXCXCXnXcXdXf.2 y =.q.u.u.u.u.i.",
"i.i.u.u.u.u.e.1.l P c.6XxX>XY.T.T.#XnXzXF.H f &.q.u.u.u.u.i.",
"i.i.u.u.u.u.e.<.l ..iXNXxXG.n , > N.NXCXkXB.r $.q.e.e.u.u.i.",
"i.i.u.u.u.u.e.<.f  .fXxXnXF.: ; - c.NXCXxXV.6 $.q.u.u.u.u.i.",
"i.i.u.u.u.e.q.=.9 A R.%X+X{ o - . R %X7X;X] 4 $.3.u.u.u.u.i.",
"i.i.u.u.u.e.q.=.9 m K.~.R.a.% & $ * ~.OX[.R 6 $.q.u.u.u.u.i.",
"i.i.u.u.u.u.e.<.l M L.OX[.`._. XXXXX-X1XXXT 6 =.e.e.u.u.u.i.",
"i.i.u.u.u.u.e.2.+.1 s.L.Q.Q.~._.).~.~.!.k.b U 2.u.u.u.u.u.i.",
"i.i.u.u.u.u.u.q.=.l 1 Z Z B B Z Z Z Z M b s =.3.e.u.u.u.u.i.",
"i.i.u.u.u.u.e.e.3.=.+.x q 9 9 8 9 9 9 l +.=.2.e.u.u.u.u.u.i.",
"i.i.u.u.u.u.u.u.e.q.<.<.=.=.=.$.$.=.<.=.3.q.e.u.u.u.u.u.e.i.",
"i.i.u.u.u.u.u.u.u.e.e.q.q.q.3.q.q.e.q.e.e.u.u.u.u.u.u.u.u.i.",
"i.i.u.u.u.u.u.u.u.u.e.u.u.u.u.u.u.u.e.u.u.u.u.u.u.u.u.u.u.i.",
"i.i.u.u.u.u.u.u.u.u.u.u.u.u.u.u.u.u.u.u.u.u.u.u.u.u.u.u.u.i.",
"i.i.u.u.u.u.u.u.u.u.u.u.u.u.u.u.u.u.u.u.u.u.u.u.u.u.u.u.u.i.",
"i.i.u.u.u.u.u.u.u.u.u.u.u.u.u.u.u.u.u.u.u.u.u.u.u.u.u.u.u.i."
};
