/* XPM */
static xpm_row_t const number9[] = {
/* columns rows colors chars-per-pixel */
"45 50 106 2",
"   c #275E27",
".  c #2D552D",
"X  c #295E2A",
"o  c #315E32",
"O  c #385839",
"+  c #2C642C",
"@  c #2B6B2B",
"#  c #277527",
"$  c #2A732A",
"%  c #287928",
"&  c #336C33",
"*  c #327332",
"=  c #337C33",
"-  c #425142",
";  c #475948",
":  c #5C5C5D",
">  c #477E48",
",  c #4A7D4A",
"<  c #606161",
"1  c #656C65",
"2  c #6B6C6C",
"3  c #677167",
"4  c #69746A",
"5  c #6C7C6D",
"6  c #2C822C",
"7  c #2F8C2F",
"8  c #338333",
"9  c #338C33",
"0  c #329332",
"q  c #359C35",
"w  c #389438",
"e  c #389A38",
"r  c #37A437",
"t  c #37A937",
"y  c #3AA33A",
"u  c #3AAC3A",
"i  c #3CB43C",
"p  c #3FBB3F",
"a  c #478248",
"s  c #468F46",
"d  c #498149",
"f  c #4D884E",
"g  c #479347",
"h  c #538C53",
"j  c #579557",
"k  c #5B935B",
"l  c #5B9B5B",
"z  c #43AB43",
"x  c #42B142",
"c  c #40BD40",
"v  c #6D826D",
"b  c #6F8070",
"n  c #609760",
"m  c #639B64",
"M  c #689D68",
"N  c #708170",
"B  c #7A8F7A",
"V  c #779777",
"C  c #749875",
"Z  c #7C947C",
"A  c #7E997F",
"S  c #6BA06B",
"D  c #42C342",
"F  c #45CC45",
"G  c #47D247",
"H  c #48D648",
"J  c #4ADC4A",
"K  c #4CE24C",
"L  c #838584",
"P  c #898F8A",
"I  c #869486",
"U  c #879688",
"Y  c #889389",
"T  c #889988",
"R  c #999A9A",
"E  c #9FA2A0",
"W  c #A29EA3",
"Q  c #A1A4A2",
"!  c #A9A4AB",
"~  c #AEA7B0",
"^  c #AFA9B2",
"/  c #B3AEB5",
"(  c #B5B1B6",
")  c #B7B2B8",
"_  c #B9B5BA",
"`  c #BCB9BD",
"'  c #C2BEC3",
"]  c #C9BFCB",
"[  c #C6C3C7",
"{  c #C7C3C8",
"}  c #C9C4CB",
"|  c #CCC9CE",
" . c #CDC6D0",
".. c #CFCBD1",
"X. c #D0CBCF",
"o. c #D2CDD4",
"O. c #D5D2D6",
"+. c #D6D3D8",
"@. c #D9D6DA",
"#. c #DCDADD",
"$. c #DEDCE0",
"%. c #E1DEE2",
"&. c #E4E1E5",
"*. c #E6E4E8",
"=. c #E8E6EA",
"-. c #EBE9ED",
/* pixels */
"K K K K K K K K K K K K K K K K K K K K K K K K K K K K K K K K K K K K K K K K K K K K K ",
"K K K K K K K K K K K K K K K K K K K K K K K K K K K K K K K K K K K K K K K K K K K K K ",
"K K K K K K K K K K K K K K K K K K K K K K K K K K K K K K K K K K K K K K K K K K K K K ",
"K K K K K K K K K K K K K K K K K K K K K K K K K K K K K K K K K K K K K K K K K K K K K ",
"K K K K K K K K K K K K K K K K K K K K K K K K K K K K K K K K K K K K K K K K K K K K K ",
"K K K K K K K K K K K K K K K K K K K K K K K K K K K K K K K K K K K K K K K K K K K K K ",
"K K K K K K K K K K K K K K K K K K K K K K J K J K J K K K K K K K K K K K K K K K K K K ",
"K K K K K K K K K K K K K J J J K K K J J J J J J J J J K J K K K K K K K K K K K K K K K ",
"K K K K K K K K K K K K J J J J H H J H H H H H H J J H H J J J K K K K K K K K K K K K K ",
"K K K K K K K K K K K J J H G G G F G F F F F F F F F F F G G H J J K K K K K K K K K K K ",
"K K K K K K K K K J J J H F F D D c c c p p c c c c c p D D F F G H J K K K K K K K K K K ",
"K K K K K K K K J J J G F D p i i u u t t t t t u u u u i i p D F H H J J K K K K K K K K ",
"K K K K K K K K J J G F c x s d > a > , > , , > > > > d d d g z D F G H K K K K K K K K K ",
"K K K K K K K K J H G D x , L _ { { { { } } } } } } } } } _ L , i D F H J K K K K K K K K ",
"K K K K K K K K J G F p g L O.#.@.@.@.@.@.#.#.#.@.#.#.#.#.%.@.L g p F H J K K K K K K K K ",
"K K K K K K K K J F D i h ) #.@.+.+.O.@.@.@.#.#.#.@.@.@.#.#.&.` f i D F J J K K K K K K K ",
"K K K K K K K K H G D i f [ #.+.O.O.O.O.O.+.+.+.+.O.+.O.@.@.%.{ f u c G H K K K K K K K K ",
"K K K K K K K K J G p u h } +.O.O.O.{ R I U U P P R X.+.+.@.$.X.h u c G J K K K K K K K K ",
"K K K K K K K J H F p u h | #.O.O.O.[ 5 & * * * & 5 } @.@.@.$.X.h u p G H J K K K K K K K ",
"K K K K K K K J H F p t j [ +.O.O.O.[ v # # # # $ 5 } +.+.@.#.{ h u c F H J K K K K K K K ",
"K K K K K K K J H G p t j } @.+.O.O.X.v % % # % $ v | @.@.@.#.| h t c F H J K K K K K K K ",
"K K K K K K K H H F p t j ..#.#.+.@.X.v @ # $ $ @ v X.#.@.#.#.O.k t p F H J K K K K K K K ",
"K K K K K K K J H G D u l O.%.#.#.#.@.Q I T T U U Q @.#.#.$.&.O.k u p F H J K K K K K K K ",
"K K K K K K K K H G p i l +.*.%.%.%.%.&.&.&.*.&.&.%.%.$.#.#.&.O.k u p F H J J K K K K K K ",
"K K K K K K K K H G D i m O.-.*.&.*.*.*.*.=.*.*.&.%.%.%.%.&.*.@.n t c F H J K K K K K K K ",
"K K K K K K K K J G F i l ( =.=.=.=.*.*.=.-.=.=.*.&.%.&.%.&.=.@.n t c F J J K K K K K K K ",
"K K K K K K K J J H G D x V _ @.#.$.$.$.#.%.$.$.#.#.&.&.*.*.=.#.M t p F J K K K K K K K K ",
"K K K K K K K K J H G D p x l C A A A A A A Z Z Z E %.=.=.=.-.%.M r p F H J J K K K K K K ",
"K K K K K K K K K J J G D p u y r e 0 0 7 7 6 % $ Y %.*.*.=.-.%.S u p F H K K K K K K K K ",
"K K K K K K K K K J H G D c i u r q e q 0 0 7 6 $ Y %.-.-.-.-.%.M r p F H J K K K K K K K ",
"K K K K K K K K K J H G F c i u r q q q 0 0 7 6 $ N  .$.$.$.#.` & u c F H J K K K K K K K ",
"K K K K K K K K J J H G D p y w w 9 8 6 8 = $ * @ - ! ] ]  .o.^   x c F H J K K K K K K K ",
"K K K K K K K K K J G F D u O 4 4 4 4 3 3 3 1 1 1 2 ) ] ]  .o.^ X u c G H J K K K K K K K ",
"K K K K K K K K K J G D p 8 2 @.@.+.O.o.o.X.X. .} ]  . . . .+./ X i c G J J K K K K K K K ",
"K K K K K K K K J H G F i o W &.%.#.#.@.@.+.+.O.o.o.o.o.+.+.#.! + p D G J K K K K K K K K ",
"K K K K K K K K J H G F u ; O.*.%.#.#.@.@.+.+.O.o.o.o.o.+.+.o.< = c D G K K K K K K K K K ",
"K K K K K K K K J J G F 8 : ' ' ' ` ) ` ) ) ) ( / / ) _ / W < . u D G H J J K K K K K K K ",
"K K K K K K K K K J G F e + & + + X X X X X X X X . X X + + = x c G G J J K K K K K K K K ",
"K K K K K K K K K J H G F D c i i u u i u u x u u u u u x p c c F G H J J K K K K K K K K ",
"K K K K K K K K K J J J G F F D D D c c c x x c c c c D c D F F G J J J K K K K K K K K K ",
"K K K K K K K K K K J J J H G F F F F F F F F F F F F F F G H J J K K K K K K K K K K K K ",
"K K K K K K K K K K K J J J J J H J J H H H G H H J J J H J J K J K K K K K K K K K K K K ",
"K K K K K K K K K K K K K J J J J J J J J J J J J J J K J J K K K K K K K K K K K K K K K ",
"K K K K K K K K K K K K K K K K K J K K J K K K K K K K K K K K K K K K K K K K K K K K K ",
"K K K K K K K K K K K K K K K K K K K K K K K K K K K K K K K K K K K K K K K K K K K K K ",
"K K K K K K K K K K K K K K K K K K K K K K K K K K K K K K K K K K K K K K K K K K K K K ",
"K K K K K K K K K K K K K K K K K K K K K K K K K K K K K K K K K K K K K K K K K K K K K ",
"K K K K K K K K K K K K K K K K K K K K K K K K K K K K K K K K K K K K K K K K K K K K K ",
"K K K K K K K K K K K K K K K K K K K K K K K K K K K K K K K K K K K K K K K K K K K K K ",
"K K K K K K K K K K K K K K K K K K K K K K K K K K K K K K K K K K K K K K K K K K K K K "
};
