/* XPM */
static xpm_row_t const number9[] = {
/* columns rows colors chars-per-pixel */
"30 30 233 2",
"   c #277426",
".  c #2A732A",
"X  c #2C732C",
"o  c #2E712E",
"O  c #317131",
"+  c #307230",
"@  c #317831",
"#  c #6F7E6F",
"$  c #2D802D",
"%  c #2C872C",
"&  c #318A31",
"*  c #318F31",
"=  c #3D8E3D",
"-  c #3E8E3E",
";  c #309030",
":  c #339633",
">  c #349434",
",  c #359B35",
"<  c #379F37",
"1  c #3D953D",
"2  c #38A638",
"3  c #3CA03C",
"4  c #3AA83A",
"5  c #3AB33A",
"6  c #3BB23B",
"7  c #3BB33B",
"8  c #3AB43A",
"9  c #3BB43A",
"0  c #3BB43B",
"q  c #3BB53B",
"w  c #3BB63B",
"e  c #3CB13C",
"r  c #3DB13D",
"t  c #3CB53C",
"y  c #3CB63C",
"u  c #3CB73C",
"i  c #3CB83C",
"p  c #3DBA3D",
"a  c #3DBB3D",
"s  c #3EBB3E",
"d  c #3DBC3D",
"f  c #3EBC3E",
"g  c #3EBD3E",
"h  c #3FBC3F",
"j  c #3FBD3F",
"k  c #448845",
"l  c #4B844C",
"z  c #4C814D",
"x  c #4D824E",
"c  c #4E804F",
"v  c #4E834E",
"b  c #4C854C",
"n  c #4C864C",
"m  c #4E844F",
"M  c #4E854F",
"N  c #4F8550",
"B  c #4C9D4C",
"V  c #4D9D4D",
"C  c #4C9F4C",
"Z  c #4D9F4D",
"A  c #538C53",
"S  c #548B55",
"D  c #5F9860",
"F  c #40B940",
"G  c #43BA43",
"H  c #42BC42",
"J  c #42BD42",
"K  c #5EA95E",
"L  c #5FA85F",
"P  c #629762",
"I  c #629763",
"U  c #609960",
"Y  c #619862",
"T  c #619A62",
"R  c #629863",
"E  c #639A63",
"W  c #629C62",
"Q  c #639D63",
"!  c #718471",
"~  c #738973",
"^  c #738974",
"/  c #738B74",
"(  c #728D73",
")  c #769077",
"_  c #68A068",
"`  c #69A069",
"'  c #69A269",
"]  c #6BA26B",
"[  c #6AA46A",
"{  c #6FA76F",
"}  c #6EAA6F",
"|  c #71A871",
" . c #72AC72",
".. c #74AB74",
"X. c #76AB76",
"o. c #79AE79",
"O. c #7EA87F",
"+. c #41C441",
"@. c #41C541",
"#. c #42C542",
"$. c #42C642",
"%. c #42C742",
"&. c #43C743",
"*. c #45CC45",
"=. c #45CE45",
"-. c #45CF45",
";. c #46CF46",
":. c #45D045",
">. c #46D046",
",. c #46D146",
"<. c #46D246",
"1. c #47D247",
"2. c #47D347",
"3. c #47D447",
"4. c #48D548",
"5. c #48D648",
"6. c #48D748",
"7. c #49D849",
"8. c #49D949",
"9. c #49DA49",
"0. c #49DB49",
"q. c #4ADC4A",
"w. c #4ADD4A",
"e. c #4ADE4A",
"r. c #4BDF4B",
"t. c #4BE04B",
"y. c #4BE14B",
"u. c #4CE14C",
"i. c #4CE24C",
"p. c #4EE44E",
"a. c #818D82",
"s. c #858B86",
"d. c #879788",
"f. c #829D82",
"g. c #859B86",
"h. c #869A87",
"j. c #8A998B",
"k. c #8B988C",
"l. c #889E88",
"z. c #889E89",
"x. c #8D9C8D",
"c. c #8D9D8D",
"v. c #909091",
"b. c #969997",
"n. c #80A180",
"m. c #81A582",
"M. c #82A683",
"N. c #87A087",
"B. c #83A884",
"V. c #9AA39B",
"C. c #9CA59D",
"Z. c #A0ACA1",
"A. c #ACAEAD",
"S. c #AFB0AF",
"D. c #B6BAB7",
"F. c #BBBEBC",
"G. c #BEC2C0",
"H. c #C0BCC2",
"J. c #C1BCC4",
"K. c #C2BEC4",
"L. c #C3BEC5",
"P. c #C4BFC5",
"I. c #C6BDC8",
"U. c #C5C0C7",
"Y. c #C6C2C8",
"T. c #C8C4C9",
"R. c #CAC7CB",
"E. c #CAC6CC",
"W. c #CCC5CF",
"Q. c #CCC8CD",
"!. c #CCC9CD",
"~. c #CDCACE",
"^. c #CFC8D1",
"/. c #CFC9D1",
"(. c #CFCBD0",
"). c #CFCCD0",
"_. c #D1CBD3",
"`. c #D0CDD1",
"'. c #D0CDD2",
"]. c #D1CDD2",
"[. c #D1CED3",
"{. c #D2CED3",
"}. c #D2CFD3",
"|. c #D3CDD5",
" X c #D3CED4",
".X c #D3CFD4",
"XX c #D3D0D4",
"oX c #D4D0D6",
"OX c #D4D1D6",
"+X c #D5D0D7",
"@X c #D5D1D7",
"#X c #D5D2D6",
"$X c #D5D2D7",
"%X c #D5D3D7",
"&X c #D6D2D6",
"*X c #D6D3D7",
"=X c #D7D3D8",
"-X c #D7D5D9",
";X c #D8D3D9",
":X c #D8D4D9",
">X c #D8D5D9",
",X c #D9D4DB",
"<X c #D8D6D9",
"1X c #D9D6DA",
"2X c #D9D6DB",
"3X c #DAD7DB",
"4X c #DAD7DC",
"5X c #DAD8DB",
"6X c #DCD9DD",
"7X c #DDDADE",
"8X c #DDDBDE",
"9X c #DEDBDF",
"0X c #DEDCE0",
"qX c #DFDDE1",
"wX c #E0DEE1",
"eX c #E0DEE2",
"rX c #E1DEE2",
"tX c #E1DEE3",
"yX c #E2DFE3",
"uX c #E2DFE4",
"iX c #E3E0E4",
"pX c #E3E0E5",
"aX c #E3E1E5",
"sX c #E4E1E5",
"dX c #E4E1E6",
"fX c #E4E2E6",
"gX c #E5E2E6",
"hX c #E6E3E7",
"jX c #E6E3E8",
"kX c #E6E4E8",
"lX c #E7E6EA",
"zX c #E8E5E9",
"xX c #E9E7EB",
/* pixels */
"p.p.u.u.u.u.u.u.u.u.u.u.u.u.u.u.u.u.u.u.u.u.u.u.u.u.u.u.u.p.",
"p.p.u.u.u.u.u.u.u.u.u.u.u.u.u.u.u.u.u.u.u.u.u.u.u.u.u.u.u.p.",
"p.p.u.u.u.u.u.u.u.u.u.u.u.u.u.u.u.u.u.t.u.u.u.u.u.u.u.u.u.p.",
"p.p.u.u.u.u.u.u.u.u.u.u.u.u.u.t.t.t.u.t.u.u.u.u.u.u.u.u.u.p.",
"p.p.u.u.u.u.u.u.t.t.e.e.t.e.e.9.e.e.e.e.e.u.u.u.u.u.u.u.u.p.",
"p.p.u.u.u.u.u.u.t.e.3.3.>.>.=.=.>.>.=.>.4.e.r.u.u.u.u.u.u.p.",
"p.p.u.u.u.u.u.e.9.>.$.f u 5 5 5 u w u f $.>.9.e.u.u.u.u.u.p.",
"p.p.u.u.u.u.t.9.>.H C P P P I I P P P P V H =.9.u.u.u.u.u.p.",
"p.p.i.i.y.y.y.6.%.C V.!.'.'.'.'.'.{.XX'.C.C *.4.u.u.u.u.u.p.",
"p.p.i.i.y.y.t.>.f Q !.<X#X*X<X3X<X<X<X6X'.Q u ,.r.u.u.u.u.p.",
"p.p.i.y.y.y.e.>.u ` '.%X#XA.h.h.j.S.+X<X#X` t 4.r.u.u.u.u.p.",
"p.p.i.i.i.y.e.=.5 ' '.%X{.j.o . O k.+X4XXXQ t ,.8.u.u.u.u.p.",
"p.p.i.i.y.y.e.>.5 ' XX*X#Xx.o   o x.<X3X#X] t ,.r.u.u.u.u.p.",
"p.p.i.i.y.y.e.=.u } 3X8X6XD.l.N.z.D.6X6X4X{ t ,.8.u.u.u.u.p.",
"p.p.i.i.y.y.e.3.f  .0XhXsXsXhXkXsXwXwXwX9X| u ,.8.u.u.u.u.p.",
"p.p.i.i.y.y.t.6.%.K G.eXiXiXsXsXtXwXiXsXwXX.4 ,.r.u.u.u.u.p.",
"p.p.i.i.i.i.y.9.>.G L O.B.M.M.O.f.F.jXzXgXo.4 3.8.u.u.u.u.p.",
"p.p.i.i.i.i.y.e.4.$.t 2 , : ; % @ Z.zXxXsXX.5 >.r.u.u.u.u.p.",
"p.p.i.i.y.y.y.e.4.%.4 < > > & @ o a.{.=XE.S t >.8.u.u.u.u.p.",
"p.p.i.i.y.y.t.e.>.+.k / / / ^ ! # v.I.W.J.z t >.r.u.u.u.u.p.",
"p.p.i.y.y.y.y.9.=.4 ^ <X4X=X+X{._.^.{.+XJ.n f 3.r.u.u.u.u.p.",
"p.p.i.y.y.y.t.9.>.1 b.+X!.R.T.Y.L.J.Y.H.s.- $.9.r.u.u.u.u.p.",
"p.p.y.y.y.y.y.e.>.< n A N M M M z @ M n - u >.9.r.u.u.u.u.p.",
"p.p.y.y.y.y.y.e.9.>.$.f u t t 4 G G 5 H &.>.9.e.u.u.u.u.u.p.",
"p.p.i.i.i.i.i.y.e.9.5.>.>.=.=.*.*.*.*.5.8.r.r.u.u.u.u.u.u.p.",
"p.p.i.i.i.i.i.i.y.t.e.e.e.e.9.e.r.r.r.r.r.u.u.u.u.u.u.u.u.p.",
"p.p.i.i.i.i.i.i.y.y.y.y.y.y.y.i.p.p.r.p.u.u.u.u.u.u.u.u.u.p.",
"p.p.i.i.i.i.i.i.y.y.y.y.i.y.y.i.r.r.p.r.u.u.u.u.u.u.u.u.u.p.",
"p.p.i.i.i.i.i.i.y.y.i.i.i.i.i.i.p.r.u.u.u.u.u.u.u.u.u.u.u.p.",
"p.p.y.i.i.i.i.i.i.y.i.i.i.i.i.i.p.r.u.u.u.u.u.u.u.u.u.u.u.p."
};
