/* XPM */
static xpm_row_t const colon[] = {
/* columns rows colors chars-per-pixel */
"36 50 174 2",
"   c #235A23",
".  c #245A24",
"X  c #245C24",
"o  c #255E25",
"O  c #3F483F",
"+  c #3F493F",
"@  c #246624",
"#  c #236923",
"$  c #246A24",
"%  c #256C25",
"&  c #256E25",
"*  c #297929",
"=  c #474F47",
"-  c #576157",
";  c #586258",
":  c #596359",
">  c #33A033",
",  c #33A133",
"<  c #33A233",
"1  c #34A334",
"2  c #35A635",
"3  c #36A736",
"4  c #36A836",
"5  c #37A837",
"6  c #3CB63C",
"7  c #3CB73C",
"8  c #3CB83C",
"9  c #3DB93D",
"0  c #3DBA3D",
"q  c #3FB93F",
"w  c #3FBB3F",
"e  c #3FBF3F",
"r  c #5D945D",
"t  c #5E955E",
"y  c #5E965E",
"u  c #5A9C5A",
"i  c #5F985F",
"p  c #42AF42",
"a  c #42B042",
"s  c #42B142",
"d  c #43B243",
"f  c #43B343",
"g  c #43B443",
"h  c #40BB40",
"j  c #40BC40",
"k  c #40BE40",
"l  c #46B846",
"z  c #45BF45",
"x  c #5CA15C",
"c  c #5DA25D",
"v  c #5EA55E",
"b  c #5EA65E",
"n  c #5CAB5C",
"m  c #41C041",
"M  c #41C141",
"N  c #40C340",
"B  c #41C241",
"V  c #41C341",
"C  c #42C142",
"Z  c #42C242",
"A  c #42C342",
"S  c #41C441",
"D  c #41C541",
"F  c #42C442",
"G  c #43C443",
"H  c #43C543",
"J  c #42C642",
"K  c #43C643",
"L  c #43C743",
"P  c #45C045",
"I  c #45C145",
"U  c #45C345",
"Y  c #44C744",
"T  c #44C844",
"R  c #44CA44",
"E  c #45CA45",
"W  c #45CB45",
"Q  c #45CC45",
"!  c #45CD45",
"~  c #46CD46",
"^  c #46CE46",
"/  c #46CF46",
"(  c #47CF47",
")  c #46D046",
"_  c #46D146",
"`  c #47D047",
"'  c #47D147",
"]  c #47D247",
"[  c #47D347",
"{  c #48D248",
"}  c #48D348",
"|  c #48D448",
" . c #48D548",
".. c #49D549",
"X. c #48D648",
"o. c #49D649",
"O. c #49D749",
"+. c #49D849",
"@. c #49D949",
"#. c #49DA49",
"$. c #4AD84A",
"%. c #4AD94A",
"&. c #4ADA4A",
"*. c #4ADB4A",
"=. c #4ADC4A",
"-. c #4ADD4A",
";. c #4BDC4B",
":. c #4BDD4B",
">. c #4BDE4B",
",. c #4BDF4B",
"<. c #4CDE4C",
"1. c #4CDF4C",
"2. c #4CE04C",
"3. c #4CE14C",
"4. c #4DE14D",
"5. c #4CE24C",
"6. c #4CE34C",
"7. c #4DE24D",
"8. c #4DE34D",
"9. c #4EE34E",
"0. c #4EE44E",
"q. c #969E96",
"w. c #969F96",
"e. c #9FA89F",
"r. c #9FA99F",
"t. c #A6A2A6",
"y. c #A7A3A7",
"u. c #A0ABA0",
"i. c #A1ACA1",
"p. c #A2ADA2",
"a. c #A3ADA3",
"s. c #A8A4A8",
"d. c #A8A5A8",
"f. c #A6B1A6",
"g. c #A6B1A7",
"h. c #BDB9BD",
"j. c #BFBABF",
"k. c #BFBBBF",
"l. c #D7D5D8",
"z. c #D8D6D8",
"x. c #D8D6D9",
"c. c #D9D6D9",
"v. c #D9D6DA",
"b. c #DCD9DC",
"n. c #DDD9DD",
"m. c #DDD9DE",
"M. c #DEDADE",
"N. c #E7E6E8",
"B. c #E8E6E8",
"V. c #E8E7E9",
"C. c #E9E7E9",
"Z. c #E9E8EB",
"A. c #EAE9EB",
"S. c #EBE9EB",
"D. c #EBEAEC",
"F. c #ECE9EC",
"G. c #EEECEE",
"H. c #EFECEF",
"J. c #EFEDEF",
"K. c #F1EFF1",
"L. c #F2EFF2",
"P. c #F2F1F3",
"I. c #F2F2F2",
"U. c #F3F2F3",
"Y. c #F3F2F4",
"T. c #F4F3F4",
"R. c #F4F3F5",
"E. c #F4F4F5",
"W. c #F5F5F5",
"Q. c #F5F4F6",
"!. c #F5F5F6",
"~. c #F6F5F6",
"^. c #F7F6F7",
"/. c #F7F6F8",
/* pixels */
"0.0.0.0.0.0.0.0.9.9.9.9.9.9.9.9.9.9.9.9.9.9.9.9.9.9.9.9.9.9.9.9.9.9.9.9.",
"0.0.0.0.0.0.0.0.9.9.9.9.9.9.9.9.9.9.9.9.9.9.9.9.9.9.9.9.9.9.9.9.9.9.9.9.",
"0.0.0.0.0.0.0.0.9.9.9.9.9.9.9.9.9.9.9.9.9.9.9.9.9.9.9.9.9.9.9.9.9.9.9.9.",
"0.0.0.0.0.0.0.0.9.9.9.9.9.9.9.9.9.9.9.9.9.9.9.9.9.9.9.9.9.9.9.9.9.9.9.9.",
"0.0.0.0.0.0.0.0.9.9.9.9.9.9.0.6.9.9.9.9.9.9.9.9.9.9.9.9.9.9.9.9.9.9.9.9.",
"0.0.0.0.0.0.0.0.9.9.9.9.9.9.6.6.9.9.9.9.9.9.9.9.9.9.9.9.9.9.9.9.9.9.9.9.",
"0.0.0.0.0.0.0.0.9.9.9.9.9.9.6.6.6.9.9.9.1.9.9.9.9.9.9.9.9.9.9.9.9.9.9.9.",
"0.0.0.0.0.0.0.0.9.9.6.9.9.6.6.6.6.9.1.1.9.1.9.9.1.9.9.9.9.9.9.9.9.9.9.9.",
"0.0.0.0.0.0.0.0.0.6.6.6.6.1.1.6.6.-.-.-.1.6.1.6.9.9.1.9.9.9.9.9.9.9.9.9.",
"0.0.0.0.0.0.0.0.6.6.6.1.6.-.-.%.%.-.-.-.%.-.-.6.1.1.9.9.9.9.9.9.9.9.9.9.",
"0.0.0.0.0.0.6.6.6.6.6.1.-.-.%.%.%.o.o.o.%.%.-.-.1.1.9.9.9.9.9.9.9.9.9.9.",
"0.0.0.0.0.6.6.6.6.1.1.1.%.o.{ ^ ^ ^ / / / / o.%.1.1.1.9.9.9.9.9.9.9.9.9.",
"0.0.0.0.0.0.6.6.6.1.1.%.o.^ ^ E S m S H E ^ ^ o.%.1.1.1.9.9.9.9.9.9.9.9.",
"0.0.0.0.0.6.6.6.1.1.%.o.^ E S m 9 6 9 9 m S E / o.%.1.1.1.9.9.9.9.9.9.9.",
"0.0.0.0.0.6.6.6.1.1.o.{ ^ z u y r r r r y u z E { %.1.1.1.9.9.9.9.9.9.9.",
"0.0.0.0.0.0.6.6.1.%.o.^ H f w.m.m.m.m.m.M.w.d H ( o.%.1.9.1.9.9.9.9.9.9.",
"9.9.9.9.9.6.6.6.1.%.{ ^ S a i.U.U.U.U.U.~.i.a S ^ o.%.-.6.6.6.6.9.9.9.9.",
"9.9.9.9.9.9.6.6.1.%.o.E m d a.U.P.P.U.U.~.a.a m E o.-.-.6.6.9.6.9.9.9.9.",
"9.9.9.9.9.6.6.1.1.%.o.^ H d f./.^.U.U.^./.g.d S ^ o.%.,.6.6.9.9.9.9.9.9.",
"9.9.9.9.9.9.6.1.1.%.o.^ E l r.x.x.x.x.x.x.e.l S ^ %.%.-.1.6.9.9.9.9.9.9.",
"9.9.9.9.9.6.6.6.1.%.%.{ E z n c c x x c c n z ^ { %.%.6.9.9.9.9.9.9.9.9.",
"9.9.9.9.9.9.9.6.6.1.%.o./ ^ S N 0 9 8 9 N D E ^ o.%.1.1.6.6.6.9.9.9.9.9.",
"9.9.9.9.9.9.6.6.1.6.-.%.o./ E E S m m m D ^ ^ o.%.*.1.6.6.6.9.9.9.9.9.9.",
"9.9.9.9.9.9.6.6.6.1.1.-.%.o./ ^ ^ E ^ ^ / ] o.%.-.1.1.1.6.6.9.9.9.9.9.9.",
"9.9.9.9.9.9.9.9.6.1.1.%.%.%.{ / / / / / / [ %.%.-.*.*.0.6.0.0.0.9.9.9.9.",
"9.9.9.9.9.9.9.1.6.1.1.1.%.$.o.{ / / / / [ o.%.%.-.6.6.6.6.0.0.0.9.9.9.9.",
"9.9.9.9.9.9.9.9.6.1.1.%.%.o.{ ( / ^ ^ E / / o.o.%.1.6.6.6.6.0.0.9.9.9.9.",
"9.9.9.9.9.9.1.9.6.1.1.%.o.{ E H S m m S Y ^ ] { %.*.1.6.6.6.0.0.9.9.9.9.",
"9.9.9.9.9.9.9.9.6.1.%.o./ ^ E m h h h h m E E ] o.-.%.6.6.6.0.0.9.9.9.9.",
"9.9.9.9.9.9.9.1.6.%.o.{ ^ 0 * & & # # & & * h ^ / %.-.1.6.6.6.0.9.9.9.9.",
"9.9.9.9.9.9.9.1.1.1.o.^ H 5 O s.t.t.y.t.s.O 3 E / o.-.6.6.6.6.6.9.9.9.9.",
"9.9.9.9.9.9.9.1.1.%.o.^ S , : P.J.G.G.L.L.: , S ^ o.%.*.6.6.6.0.9.9.9.9.",
"9.9.9.9.9.9.1.1.1.$...~ z , : S.N.N.N.N.S.: , S ^ o.%.1.1.6.6.6.9.9.9.9.",
"9.9.9.9.9.9.9.1.1.%...~ H , : G.S.A.A.A.G.: , m ^ { %.1.6.6.6.6.9.9.9.9.",
"9.9.9.9.9.9.9.1.1.%.$.( H 3 = j.h.h.h.j.h.= 5 E ^ o.%.6.6.6.6.0.9.9.9.9.",
"9.9.9.9.9.9.9.9.1.%.$.{ ^ 9 @ X X   X X X @ 9 ^ [ %.%.-.6.6.6.0.9.9.9.9.",
"9.9.9.9.9.9.9.<.1.6.%.%.( E H h h h h h m H E ( o.-.-.6.6.6.0.0.9.9.9.9.",
"9.9.9.9.9.9.9.9.6.6.*.%.o.{ ^ E S m m H E E { o.%.-.-.6.6.6.6.0.9.9.9.9.",
"9.9.9.9.9.9.9.1.6.6.*.*.%.%.{ / ^ ^ ^ ^ { { o.%.-.6.6.6.6.6.0.0.9.9.9.9.",
"9.9.9.9.9.9.9.9.6.6.6.-.-.%.%.%.o.o.o.o.o.%.%.1.,.,.6.6.6.6.0.0.9.9.9.9.",
"9.9.9.9.9.9.9.9.6.6.6.1.1.1.%.1.%.%.%.%.1.1.1.1.1.6.6.9.9.9.9.9.9.9.9.9.",
"9.9.9.9.9.9.9.9.9.6.9.1.6.6.1.1.1.1.6.1.1.1.1.1.6.6.6.9.9.9.9.9.9.9.9.9.",
"9.9.9.9.9.9.9.9.9.9.9.9.<.6.9.6.9.1.9.9.6.9.6.6.9.9.9.9.9.9.9.9.9.9.9.9.",
"9.9.9.9.9.9.9.9.9.9.9.9.9.9.6.9.1.9.9.9.6.6.9.9.9.9.9.9.9.9.9.9.9.9.9.9.",
"9.9.9.9.9.9.9.9.9.9.9.9.9.9.9.9.9.6.9.1.9.9.9.9.9.9.9.9.9.9.9.9.9.9.9.9.",
"9.9.9.9.9.9.9.9.9.9.9.9.9.9.9.9.9.9.9.9.9.9.9.9.9.9.9.9.9.9.9.9.9.9.9.9.",
"9.9.9.9.9.9.9.9.9.9.9.9.9.9.9.9.9.9.9.9.9.9.9.9.9.9.9.9.9.9.9.9.9.9.9.9.",
"9.9.9.9.9.9.9.9.9.9.9.9.9.9.9.9.9.9.9.9.9.9.9.9.9.9.9.9.9.9.9.9.9.9.9.9.",
"9.9.9.9.9.9.9.9.9.9.9.9.9.9.9.9.9.9.9.9.9.9.9.9.9.9.9.9.9.9.9.9.9.9.9.9.",
"9.9.9.9.9.9.9.9.9.9.9.9.9.9.9.9.9.9.9.9.9.9.9.9.9.9.9.9.9.9.9.9.9.9.9.9."
};
