/* XPM */
static xpm_row_t const colon[] = {
/* columns rows colors chars-per-pixel */
"30 30 102 2",
"   c #3B893B",
".  c #3B8A3B",
"X  c #3B8F3B",
"o  c #3D8A3D",
"O  c #3E8A3E",
"+  c #3A913A",
"@  c #3AA73A",
"#  c #3BA73B",
"$  c #3CAD3C",
"%  c #3FC13F",
"&  c #3FC23F",
"*  c #3FC33F",
"=  c #418741",
"-  c #428742",
";  c #498A49",
":  c #4CB84C",
">  c #4CB94C",
",  c #4DBD4D",
"<  c #5BAF5B",
"1  c #5CA85C",
"2  c #5CA95C",
"3  c #5CAB5C",
"4  c #5CB25C",
"5  c #69AE69",
"6  c #6CB36C",
"7  c #6FB270",
"8  c #70B270",
"9  c #40C240",
"0  c #40C340",
"q  c #41C241",
"w  c #41C341",
"e  c #41C541",
"r  c #41C641",
"t  c #42C642",
"y  c #42C742",
"u  c #43C743",
"i  c #42C842",
"p  c #43C843",
"a  c #43C943",
"s  c #45CD45",
"d  c #45CE45",
"f  c #46CD46",
"g  c #46CE46",
"h  c #46CF46",
"j  c #46D046",
"k  c #47D047",
"l  c #47D247",
"z  c #47D347",
"x  c #48D348",
"c  c #48D448",
"v  c #48D548",
"b  c #49D549",
"n  c #48D648",
"m  c #49D649",
"M  c #49D749",
"N  c #49D849",
"B  c #49D949",
"V  c #4AD94A",
"C  c #4ADA4A",
"Z  c #4ADB4A",
"A  c #4BDB4B",
"S  c #49DC49",
"D  c #4ADC4A",
"F  c #4ADD4A",
"G  c #4BDC4B",
"H  c #4BDD4B",
"J  c #4ADE4A",
"K  c #4BDE4B",
"L  c #4BDF4B",
"P  c #4CDF4C",
"I  c #4BE04B",
"U  c #4BE14B",
"Y  c #4BE24B",
"T  c #4BE34B",
"R  c #4CE04C",
"E  c #4CE14C",
"W  c #4DE14D",
"Q  c #4CE24C",
"!  c #4CE34C",
"~  c #4DE24D",
"^  c #4DE34D",
"/  c #4EE24E",
"(  c #4EE34E",
")  c #4EE44E",
"_  c #9FA39F",
"`  c #9FA49F",
"'  c #A7A9A7",
"]  c #B6BAB6",
"[  c #B7BAB7",
"{  c #C0C2C0",
"}  c #C0C2C1",
"|  c #CCCFCC",
" . c #CDD0CD",
".. c #CDD2CD",
"X. c #D0CED1",
"o. c #D0CFD1",
"O. c #D8DCD8",
"+. c #DADCDB",
"@. c #E6E5E6",
"#. c #E7E6E8",
"$. c #EFEDF0",
"%. c #F6F4F6",
/* pixels */
") ) ) ) ) ) ) ) ) Q / / / / / / / / / / / / / / / / / / ) ) ",
") ) ) ) ) ) ) ) ) Q / / / / / / / / / / / / / / / / / / ) ) ",
") ) ) ) ) ) ) ) ) Q / / ) Q / / / / / / / / / / / / / / ) ) ",
") ) ) ) ) ) ) ) ) Q / / Q ) / / Q / / / / / / / / / / / ) ) ",
") ) ) ) ) ) ) ) ) ) ) Q Q Q Q P Q Q Q / / / / / / / ) ) ) ) ",
") ) ) ) ) ) ) ) ) Q Q Q P P Z C C P P P / / / / / / ) ) ) ) ",
") ) ) ) ) ) ) ) Y Y Q Z C x x x x C P P Q / / / / / / ) ) ) ",
") ) ) ) ) ) ) ) Y Y Z x d i & 0 p f x V P / / / / / ) ) ) ) ",
") ) ) ) / / / Q Y Z C d : 3 3 1 3 : d C P Q / / / / ) ) ) ) ",
") ) ) ) / / / Q ) Z x 0 5 | +.+. .5 0 x V Q Q / / / ) ) ) ) ",
") ) ) ) / / / Q Y Z x w 7 @.%.%.@.6 * c P Q Q Q / / ) ) ) ) ",
") ) / / / / / Q Y C x i 6  .O.+...6 i n C Q Q Q / / ) ) ) ) ",
") ) ) ) / / / Q Q G x d , 4 < < 4 , k n Y ) ) / / / ) ) ) ) ",
") ) ) ) / / / / Q Q P x d i % & * k c Z Z ) ) / / / ) ) ) ) ",
") ) ) ) / / / Q Q Q P C x d d d k n Z Z Q Q ) / / / ) ) ) ) ",
") ) ) ) / / / Q Q Q Q Z x k d d k x C Z Y ) ) ) / / ) ) ) ) ",
") ) ) ) / / / / Q P V x x t & w 0 k x C Q Y ) ) / / ) ) ) ) ",
") ) ) ) / / / / P P M f $ + X X + $ d C Z ) Y ) / / ) ) ) ) ",
") ) ) ) / / / / P P x 0 - ' ] ] ' o w x Z Y T ) / / ) ) ) ) ",
") ) ) ) / / / / P P x w ; X.$.$.| ; w k Z Y Y Q / / ) ) ) ) ",
") ) ) ) / / / / Q V x t = ' } } ' = 0 c Z T ) ) / / ) ) ) ) ",
") ) ) ) / / / / P P C f @ o o = . @ k C Z T T ) / / ) ) ) ) ",
") ) ) ) / / / / Q Q Z x k i w w i k c Z Y T T ) / / ) ) ) ) ",
") ) ) / / / / / Q Q Q C C x x x x C Z Y Y T ) ) / / ) ) ) ) ",
") ) ) ) / / / / / ) ) Q P P V V Z P Q Q Q / / / / / / / ) ) ",
") ) ) ) / / / / / / Q Q Q Q Q / Q Q Q Q / / / / / / / / ) ) ",
") ) ) ) / / / / / / Q / / / Q Q Q Q Q / / / / / / / / / ) ) ",
") ) ) ) / / / / / / / / / / / / / / / / / / / / / / / / ) ) ",
") ) ) ) / / / / / / / / / ( ( ( / / / / / / / / / / ) ) ) ) ",
") ) ) ) / / / / / / / / ( ( ( ( / / / / / / / / / / ) ) ) ) "
};
