/* XPM */
static xpm_row_t const highscore[] = {
/* columns rows colors chars-per-pixel */
"50 50 114 2",
"   c #447D44",
".  c #3C883C",
"X  c #3F903F",
"o  c #3BA43B",
"O  c #4B8C4C",
"+  c #479247",
"@  c #4C964C",
"#  c #4D9B4E",
"$  c #528B52",
"%  c #598F59",
"&  c #579557",
"*  c #529A52",
"=  c #579E58",
"-  c #5C945D",
";  c #44A444",
":  c #4AA24A",
">  c #4FA750",
",  c #44BD44",
"<  c #4BB34B",
"1  c #59AA59",
"2  c #57B258",
"3  c #50BB50",
"4  c #619362",
"5  c #659A65",
"6  c #6C9C6C",
"7  c #709470",
"8  c #729C72",
"9  c #7A967B",
"0  c #7D987D",
"q  c #64A564",
"w  c #67AE67",
"e  c #6DA06E",
"r  c #68AB69",
"t  c #63BE63",
"y  c #6DB16D",
"u  c #73A473",
"i  c #72AC73",
"p  c #7DA57D",
"a  c #7EAE7F",
"s  c #70B070",
"d  c #76BC76",
"f  c #7EB17E",
"g  c #44C544",
"h  c #46CB46",
"j  c #48C348",
"k  c #4ACB4A",
"l  c #47D047",
"z  c #49D349",
"x  c #4BDB4B",
"c  c #4DE34D",
"v  c #808F81",
"b  c #839185",
"n  c #829983",
"m  c #8B978C",
"M  c #8B9B8C",
"N  c #8E9A90",
"B  c #919F92",
"V  c #82A483",
"C  c #84AB85",
"Z  c #89A28A",
"A  c #8BAC8C",
"S  c #8EA590",
"D  c #8FAD90",
"F  c #83B184",
"G  c #81BE82",
"H  c #8DB18E",
"J  c #8AB98A",
"K  c #93A395",
"L  c #97A098",
"P  c #92AE93",
"I  c #9AA49B",
"U  c #9BAA9B",
"Y  c #94B294",
"T  c #90BF91",
"R  c #9AB59B",
"E  c #9CBC9C",
"W  c #A0AAA2",
"Q  c #A7AEA9",
"!  c #AAAEAC",
"~  c #A4B3A5",
"^  c #A7B3A8",
"/  c #A5B9A6",
"(  c #ABB3AC",
")  c #A9BCA9",
"_  c #B2B5B4",
"`  c #B6B6B8",
"'  c #B2BBB4",
"]  c #B7B8B9",
"[  c #BABBBC",
"{  c #BEBFC0",
"}  c #88C289",
"|  c #91C591",
" . c #9DC39E",
".. c #A4C4A4",
"X. c #A7C5A8",
"o. c #A9C7A9",
"O. c #ABC9AC",
"+. c #B1C4B2",
"@. c #B6C1B8",
"#. c #B3CBB3",
"$. c #BDC0BE",
"%. c #B9CDBA",
"&. c #BFC3C1",
"*. c #C2C3C3",
"=. c #C6C5C9",
"-. c #C6C9C7",
";. c #C6C8C8",
":. c #C8C6C9",
">. c #CBCBCC",
",. c #CECDD0",
"<. c #CFD1D0",
"1. c #D3D3D4",
"2. c #D8D6D8",
"3. c #DBD9DC",
/* pixels */
"c c c c c c c c c c c c c c c c c c c c c c c c c c c c c c c c c c c c c c c c c c c c c c c c c c ",
"c c c c c c c c c c c c c c c c c c c c c c c c c c c c c c c c c c c c c c c c c c c c c c c c c c ",
"c c c c c c c c c c c c c c c c c c c c c c c c c c c c c c c c c c c c c c c c c c c c c c c c c c ",
"c c c c c c c c c c c c c c c c c c c c c c c c c c c c c c c c c c c c c c c c c c c c c c c c c c ",
"c c c c c c c c c c c c c c c c c c c c c c c c c c c c c c c c c c c c c c c c c c c c c c c c c c ",
"c c c c c c c c c c c c c c c c c c c c c c c c c c c c c c c c c c c c c c c c c c c c c c c c c c ",
"c c c c c c c c c c c c c c c c c c c c c c c c c c c c c c c c c c c c c c c c c c c c c c c c c c ",
"c c c c c c c c c c c c c c c c c c c c c c c c c c c c c c c c c c c c c c c c c c c c c c c c c c ",
"c c c c c c c c c c c c c c c c c c c c c c c c c c c c c c c c c c c c c c c c c c c c c c c c c c ",
"c c c c c c c c c c c c c c c c c c c c c c c c c c c c c c c c c c c c c c c c c c c c c c c c c c ",
"c c c c c c c c c c c c c c c c c c c c c c c c c c c c c c c c c c c c c c c c c c c c c c c c c c ",
"c c c c c c c c c c c c c c c c c c c c c c c c c c c c c c c c c c c c c c c c c c c c c c c c c c ",
"c c c c c c c c c c c c c c c c c c c c c c c c c c c c c c c c c c c c c c c c c c c c c c c c c c ",
"c c c c c c c c c c c c c c c c c c c c c c c c c c c c c c c c c c c c c c c c c c c c c c c c c c ",
"c c c c c c c c c c c c c c c c c c c c c c c c c c c c c c c c c c c c c c c c c c c c c c c c c c ",
"c c c c c c c c c c c c c c c c c c c c c c c c c c c c c c c c c c c c c c c c c c c c c c c c c c ",
"c c c c c c c c c c c c c c c c c c c c c c c c c c c c c c c c c c c c c c c c c c c c c c c c c c ",
"c c c c c c c c c c c c c c c c c c c c c c c c c c c c c c c c c c c c c c c c c c c c c c c c c c ",
"c c c c c c c c c c c c c c c c c c c c c c c c c c c c c c c c c c c c c c c c c c c c c c c c c c ",
"c c c c c c c c c c c c c c c c c c c c c c c c c c c c c c c c c c c c c c c c c c c c c c c c c c ",
"c c c c c c c c c c c x c c x c c c c c c c c x c c c c c c c c c c c c c x c c c c c c c c c c c c ",
"c c c h h z h h h g g g g g g h z c z h h g g g g h g g g g g h g g g g h g g , g g g g g g g x c c ",
"c c h f f , s A 6 A 6 Y Y E Y - T 2 < H 5 8 Y P R e 5 D Y Y C # V D D C - p A P A 5 8 Y P R a k c c ",
"c c g / / o H *.M [ m *.K A p 4 :.q : $.M ! Q V A - Z ` Z Y u - ] B M ` v ! W 0 _ L L ] Z D s l c c ",
"c c , ^ ^ $ P [ M [ M *.$ @ @ 4 *.7 - ] m ! K O @ X P Q ; g g q ] 4 + _ b ! 9 O ! W I ! $ * < x c c ",
"c x g ) ,.*.,.*.L *.L :.7 $.-.M =.*.[ =.N ^ *.[ *.K I ' < x x w *.q # [ M _ N ' [ 0 U =.{ >.G x c c ",
"c c , +.@.& ~ :.U >.I ,.$ 8 1.K >.p 5 -.D + & & ' ( W ' ; g g q -.5 @ *.B $.M ^ ( . / [ % = < z c c ",
"c c j %.%.o E 1.W 1.W 3./ / 2.L 2.y > 1.Y u R Y -.' ^ :.R E J u ,.^ R >.I :.F e 1.5 X.>.U E J k c c ",
"c c k | | , G  .F  .F o.O.O...a ..t 3 ..f T O.O.X.F i ..X.O.| 1  ...../ i  .d <  .a J X.#.#.} h c c ",
"c c x h l x z h h g h j g g g g l z z l h h j g g h h g g j h l g g g h h g l z l l h g k c z c c c ",
"c c c c c c c c c c c c c c c c c c c c c x c c c c c c c c c c c x c c c c c c c c c c c c c c c c ",
"c c c c c c c c c c c c c c c c c c c c c c c c c c c c c c c c c c c c c c c c c c c c c c c c c c ",
"c c c c c c c c c c c c c c c c c c c c c c c c c c c c c c c c c c c c c c c c c c c c c c c c c c ",
"c c c c c c c c c c c c c c c c c c c c c c c c c c c c c c c c c c c c c c c c c c c c c c c c c c ",
"c c c c c c c c c c c c c c c c c c c c c c c c c c c c c c c c c c c c c c c c c c c c c c c c c c ",
"c c c c c c c c c c c c c c c c c c c c c c c c c c c c c c c c c c c c c c c c c c c c c c c c c c ",
"c c c c c c c c c c c c c c c c c c c c c c c c c c c c c c c c c c c c c c c c c c c c c c c c c c ",
"c c c c c c c c c c c c c c c c c c c c c c c c c c c c c c c c c c c c c c c c c c c c c c c c c c ",
"c c c c c c c c c c c c c c c c c c c c c c c c c c c c c c c c c c c c c c c c c c c c c c c c c c ",
"c c c c c c c c c c c c c c c c c c c c c c c c c c c c c c c c c c c c c c c c c c c c c c c c c c ",
"c c c c c c c c c c c c c c c c c c c c c c c c c c c c c c c c c c c c c c c c c c c c c c c c c c ",
"c c c c c c c c c c c c c c c c c c c c c c c c c c c c c c c c c c c c c c c c c c c c c c c c c c ",
"c c c c c c c c c c c c c c c c c c c c c c c c c c c c c c c c c c c c c c c c c c c c c c c c c c ",
"c c c c c c c c c c c c c c c c c c c c c c c c c c c c c c c c c c c c c c c c c c c c c c c c c c ",
"c c c c c c c c c c c c c c c c c c c c c c c c c c c c c c c c c c c c c c c c c c c c c c c c c c ",
"c c c c c c c c c c c c c c c c c c c c c c c c c c c c c c c c c c c c c c c c c c c c c c c c c c ",
"c c c c c c c c c c c c c c c c c c c c c c c c c c c c c c c c c c c c c c c c c c c c c c c c c c ",
"c c c c c c c c c c c c c c c c c c c c c c c c c c c c c c c c c c c c c c c c c c c c c c c c c c ",
"c c c c c c c c c c c c c c c c c c c c c c c c c c c c c c c c c c c c c c c c c c c c c c c c c c ",
"c c c c c c c c c c c c c c c c c c c c c c c c c c c c c c c c c c c c c c c c c c c c c c c c c c "
};
