/* XPM */
static xpm_row_t const highscore[] = {
/* columns rows colors chars-per-pixel */
"30 30 110 2",
"   c #59B959",
".  c #6C9E6C",
"X  c #6E9E6F",
"o  c #709D71",
"O  c #779C78",
"+  c #65A065",
"@  c #65AB66",
"#  c #66A866",
"$  c #6EAA6F",
"%  c #60B160",
"&  c #65B565",
"*  c #60BC60",
"=  c #6AB66A",
"-  c #6FB070",
";  c #71A971",
":  c #73A974",
">  c #73AC74",
",  c #77AD78",
"<  c #7AA87B",
"1  c #7EAF7F",
"2  c #72B972",
"3  c #79B279",
"4  c #7AB37A",
"5  c #7CB27D",
"6  c #7CB37C",
"7  c #7FB17F",
"8  c #7CB57C",
"9  c #48C248",
"0  c #49D649",
"q  c #4AD44A",
"w  c #4FD14F",
"e  c #4AD94A",
"r  c #4ADA4A",
"t  c #4CDE4C",
"y  c #57C257",
"u  c #52CD52",
"i  c #54C955",
"p  c #55CD55",
"a  c #54CE54",
"s  c #5DC65D",
"d  c #5ECB5E",
"f  c #51D651",
"g  c #50D850",
"h  c #4AE14A",
"j  c #4BE14B",
"k  c #4BE34B",
"l  c #4DE34D",
"z  c #63C563",
"x  c #63C664",
"c  c #65C565",
"v  c #62C962",
"b  c #61CC61",
"n  c #65C966",
"m  c #68C668",
"M  c #6BC76B",
"N  c #6DC76D",
"B  c #6DC86E",
"V  c #6FC870",
"C  c #6ED36F",
"Z  c #72CC72",
"A  c #7FAF80",
"S  c #819D82",
"D  c #85A485",
"F  c #83A883",
"G  c #84AD85",
"H  c #8BA78C",
"J  c #8AA98B",
"K  c #8AAF8A",
"L  c #8FA591",
"P  c #83B383",
"I  c #80B480",
"U  c #86B686",
"Y  c #8BBC8B",
"T  c #90A791",
"R  c #93A894",
"E  c #93AA95",
"W  c #95AC97",
"Q  c #99A29B",
"!  c #99A89B",
"~  c #99AC9A",
"^  c #9CAA9E",
"/  c #9DAA9E",
"(  c #90B291",
")  c #93B194",
"_  c #97B497",
"`  c #91BA92",
"'  c #9BB09D",
"]  c #99B499",
"[  c #98B799",
"{  c #9FADA0",
"}  c #A0A6A1",
"|  c #A1A9A3",
" . c #A3AAA5",
".. c #A6ADA7",
"X. c #A1B1A2",
"o. c #A3B6A4",
"O. c #A4B5A5",
"+. c #A5B7A6",
"@. c #A6B5A7",
"#. c #A2BAA3",
"$. c #A7BBA8",
"%. c #A9B3AA",
"&. c #A9B6A9",
"*. c #AEB3AF",
"=. c #AEBAAF",
"-. c #AFB4B0",
";. c #B0BEB1",
":. c #B2BDB3",
">. c #B6BAB7",
",. c #A0C3A1",
/* pixels */
"l l l l l l l l l l l l l l l l l l l l l l l l l l l l l l ",
"l l l l l l l l l l l l l l l l l l l l l l l l l l l l l l ",
"l l l l l l l l l l l l l l l l l l l l l l l l l l l l l l ",
"l l l l l l l l l l l l l l l l l l l l l l l l l l l l l l ",
"l l l l l l l l l l l l l l l l l l l l l l l l l l l l l l ",
"l l l l l l l l l l l l l l l l l l l l l l l l l l l l l l ",
"l l l l l l l l l l l l l l l l l l l l l l l l l l l l l l ",
"l l l l l l l l l l l l l l l l l l l l l l l l l l l l l l ",
"l l l l l l l l l l l l l l l l l l l l l l l l l l l l l l ",
"l l l l l l l l l l l l l l l l l l l l l l l l l l l l l l ",
"l l l l l l l l l l l l l l l l l l l l l l l l l l l l l l ",
"l l l l l l l l l l l l l l l l l l l l l l l l l l l l l l ",
"l l r r r 0 0 0 0 r l r 0 0 0 0 r 0 0 r 0 0 0 0 r 0 0 0 t l ",
"l a 2   3 , , U 3 - * = ; 7 7 # 6 I # , G : ; 1 , : P 3 u k ",
"h s ^ < %. ...D X H F T } ! X X E & % E O Q Q S ^ } T $ w h ",
"h d ;.+.>.*.*.D o.%.O.%.T J ' ^ ) 9 y _ + ^  .^ T ~ X.7 f l ",
"h b ,.- ;.;.:.+.;.=.6 ` K G $.O.$.Y 4 #.] &.O.G ( [ +.U a k ",
"l f b a n c m B M c a s c B N s m V s c B c z i v c Z C g k ",
"l l h h h h h h h h k h t h h h e k h h h h h h h h h h l l ",
"l l l l l l l l l l l l l l l l l l l l h l l l l l l l l l ",
"l l l l l l l l l l l l l l l l l l l l l l l l l l l l l l ",
"l l l l l l l l l l l l l l l l l l l l l l l l l l l l l l ",
"l l l l l l l l l l l l l l k l l l l l l l l l l l l l l l ",
"l l l l l l l l l l l l l l l l l l l l l l l l l l l l l l ",
"l l l l l l l l l l l l l l l l l l l l l l l l l l l l l l ",
"l l l l l l l l l l l l l l l l l l l l l l k l l l l l l l ",
"l l l l l l l l l l l l l l l l l l l l l l l l l l l l l l ",
"l l l l l l l l l l l l l l l l l l l l l l l l l l l l l l ",
"l l l l l l l l l l l l l l l l l l l l l l l l l l l l l l ",
"l l l l l l l l l l l l l l l l l l l l l l l l l l l l l l "
};
