/* XPM */
static  xpm_row_t const number9resize[] = {
/* columns rows colors chars-per-pixel */
"70 80 152 2",
"   c black",
".  c gray5",
"X  c #0F1010",
"o  c #100F0F",
"O  c gray7",
"+  c #171818",
"@  c #181717",
"#  c #1B1B1B",
"$  c #1E1F20",
"%  c #1F2020",
"&  c #201F1F",
"*  c #232424",
"=  c #262728",
"-  c #272829",
";  c gray17",
":  c #2E2F30",
">  c #2F3031",
",  c #323334",
"<  c #353738",
"1  c #36393A",
"2  c #3A3C3D",
"3  c #3A3F41",
"4  c #3D4143",
"5  c #424445",
"6  c #444749",
"7  c #454A4D",
"8  c #4A4C4D",
"9  c #4B4F51",
"0  c #4D5153",
"q  c #4F585D",
"w  c #525455",
"e  c #535658",
"r  c #555A5D",
"t  c #595B5C",
"y  c #555D62",
"u  c #5B5F61",
"i  c #5C6164",
"p  c #5C6569",
"a  c #626466",
"s  c #666768",
"d  c #64696B",
"f  c #6A6D6E",
"g  c #626D73",
"h  c #6C6F71",
"j  c #67767F",
"k  c #6D7173",
"l  c #6B777D",
"z  c #727374",
"x  c #727779",
"c  c #76797B",
"v  c #7A7C7E",
"b  c #6C7B84",
"n  c #6E7F88",
"m  c #777F85",
"M  c #797E80",
"N  c #6F808A",
"B  c #73838C",
"V  c #7D8183",
"C  c #7C858A",
"Z  c #768790",
"A  c #778891",
"S  c #7B8B94",
"D  c #7C8E98",
"F  c #7F909A",
"G  c #838586",
"H  c #848688",
"J  c #858A8D",
"K  c #898B8D",
"L  c #828D93",
"P  c #8B8F91",
"I  c #839097",
"U  c #83939D",
"Y  c #8D9396",
"T  c #8E9598",
"R  c #929495",
"E  c #929699",
"W  c #949A9D",
"Q  c #9C9D9E",
"!  c #8596A0",
"~  c #8699A3",
"^  c #8B9BA4",
"/  c #8E9FA8",
"(  c #959DA1",
")  c #999EA1",
"_  c #8EA1AB",
"`  c #92A3AC",
"'  c #9DA2A5",
"]  c #9DA5AA",
"[  c #93A6B1",
"{  c #96A9B4",
"}  c #9BACB6",
"|  c #9CAFB9",
" . c #9EB2BD",
".. c #A0A3A5",
"X. c #A2A7A9",
"o. c #A4AAAD",
"O. c #ACADAE",
"+. c #A5ADB1",
"@. c #AAAFB2",
"#. c #A4B0B6",
"$. c #A3B2BC",
"%. c #ACB2B5",
"&. c #AEB6BA",
"*. c #AFB9BE",
"=. c #B1B3B5",
"-. c #B1B7BA",
";. c #B4BABD",
":. c #B9BCBD",
">. c #A2B5C1",
",. c #A6B9C4",
"<. c #AABBC5",
"1. c #ACBEC8",
"2. c #B6BDC2",
"3. c #B2BFC9",
"4. c #B9BEC1",
"5. c #ADC0CB",
"6. c #B2C2CC",
"7. c #BCC2C5",
"8. c #BDC5C9",
"9. c #BDC7D0",
"0. c #BDCDD8",
"q. c #C1C4C5",
"w. c #C2C6C9",
"e. c #C5CACC",
"r. c #CCCDCE",
"t. c #C5CED2",
"y. c #CACED1",
"u. c #C5D4DF",
"i. c #CCD2D4",
"p. c #CAD4DB",
"a. c #D2D3D4",
"s. c #D4D7D8",
"d. c #D4D9DC",
"f. c #D9DBDC",
"g. c #CFDDE8",
"h. c #D4DCE2",
"j. c #DCDFE0",
"k. c #DDE1E3",
"l. c #D8E3E9",
"z. c #E2E4E4",
"x. c #E6E7E8",
"c. c #E6EAEB",
"v. c #EBECEC",
"b. c #E7EFF1",
"n. c #EBEFF1",
"m. c #EEF1F2",
"M. c #ECF3F8",
"N. c #F3F4F4",
"B. c #F3F7F8",
"V. c #F6F9FA",
"C. c #F8F7F7",
"Z. c #FDFDFD",
/* pixels */
"                                                                                                                                            ",
"                                                                                                                                            ",
"                                                                                                                                            ",
"                                                                                                                                            ",
"                                                                                                                                            ",
"                                                                                                                                            ",
"                                                                                                                                            ",
"                                                                                                                                            ",
"                                                                                                                                            ",
"                                                                                                                                            ",
"                                                                                                                                            ",
"                                                                                                                                            ",
"                                                                          . . . . . . . .                                                   ",
"                                                                        . O O O O O O O . .         .                                       ",
"                                                        . . . . O . . . . O O O O O O O . . . o . . . . .                                   ",
"                                                  .   . o o o o O O @ O O O . . . O . . . . O O O O O O .   .                               ",
"                                                . o o o o o o o o o o o O o o o O O O O o o o o o . . . o o o .                             ",
"                                          . . . o o o o o o o o . . . . . O # - = = = % @ o . . . . . O o . o o . .                         ",
"                                          . O . o o o o o o @ # # & * - : < 6 w e e w 8 2 : * & # @ O . o . o o o .                         ",
"                                        . O O . o o o o . @ , 5 8 a c K E Q X.@.O.O.O.o.Q Y G a 8 2 = O . o o o o o .                       ",
"                                      . O O . . o o @ * : 8 h v K ..=.q.e.y.y.r.r.r.r.i.r.w.;.' K v u 2 - # O o O O O .                     ",
"                                    O O O O O O o O : w v ..:.w.w.w.q.4.:.:.;.;.;.-.;.:.4.7.q.w.w.q.%.K a < & o . . . . o .                 ",
"                                  . . O O O O O * 5 f R O.q.e.w.q.2.=.%.O.X.X.........X.o.O.=.:.7.e.w.:.Q c 8 - @ . . . O .                 ",
"                                  . . . O . O * 6 v O.q.q.q.%.o.) Q Q W W W E W R W R R W W Q ) ' +.;.w.r.:.H w * O O O . . .               ",
"                                  . . o O . * 8 G +.2.:.%.X.) W E E E T E E W W ( W E W E E E T T W ..#.;.7.%.Y e ; O . . . . .             ",
"                                . O . O O + 3 v o.7.&.] W Y Y Y E E ( ) ' ] o.+.+.o.] ] ' ' W R Y Y Y E ' #.7.&.K t = O . o o . .           ",
"                              . . . O . + < g X.*.%.' W Y Y T W ) +.%.&.2.7.7.8.7.8.7.7.:.-.#.X.Q R Y Y R ) +.&.%.Y 0 - O . o o . . .       ",
"                                . . O O = r Y 2.-.' E Y Y W ' +.&.&.+.X.] X.) ) ' ) ' ' X.+.%.-.%.X.W T Y E ( +.2.%.J 0 % O o O o . .       ",
"                                . O O @ < V o.%.X.W Y Y W ] %.2.2.] L h u y 0 9 8 8 9 e p m ) *.7.-.o.) T T T ( o.-.%.m 4 % o o o .         ",
"                              . . O O * 0 ( &.+.( Y Y ) +.%.%.W M a 9 1 : - = * * * * - , 6 t c Y X.%.%.] W T T ) #.2.( d , O O O . .       ",
"                            . . O . @ < d +.2.' E Y W o.;.%.Y t : # O O O O O O O O O O O O + ; 8 V ] ;.&.' T Y Y ' %.%.T 8 + O o o . . .   ",
"                            . O O . + 4 x %.*.) T T ] %.%.J 8 - @ . . . . . O O o o O . . . X O % 4 k ' &.%.' T T W X.&.%.h , + o . . .     ",
"                            . O X . # 8 V &.;.( Y W %.=.E t + . O O . O O . . O . O . . . O o . . @ 2 x ] ;.+.' T T ' -.2.K w % . . . .     ",
"                            . . X . # q I *.-.( W ] 7.%.s , O . . O O . . . .   . O . . . . o O O O # 2 c %.*.#.' T W %.2.] x ; . o o o .   ",
"                            . . O . $ p ` 7.-.Q ' +.e.#.7 @ o . O O . . . .     .     . . . O O O o O + q Y &.7.] W W +.2.2.Y 2 O O o o     ",
"                            . O X . % k %.8.;.' ' &.i.+.2 . O o . . .                       . . o O . @ > d #.e.&.' W ] ;.t.%.e * O o o     ",
"                            O O X . $ c 2.e.2.] o.7.p.%.2 . . o . .                           . . . o O + 4 ) p.8.%.) ] -.i.7.f , @ o o . . ",
"                            . . X . % c 2.i.8.@.%.8.j.-.2   o o . .                               . O o . * K r.i.4.X.] -.s.e.C 6 @ o o . . ",
"                            . . X . % k ;.d.i.=.-.9.l.e.8 @ O o O . . . . . . . . . . . . . .   . O O o . # x ;.d.i.%.@.;.d.d.' t & . o . . ",
"                            . O O . % h &.j.j.2.;.e.n.d.z : @ . O . O O . O . O O o . o . . o O O O o O . # i o.j.j.2.%.;.h.k.2.z & . o o o ",
"                            . O X . & s %.x.c.w.4.e.b.x.o.i # . O O O O o o o o o o O o o O @ O o o o o . # w Q z.c.8.-.;.d.c.f.K * . o o o ",
"                            . O X . & i X.v.m.a.w.e.z.b.s.W 8 * O . . . . o o . . . o o . o O O o . . . . @ 8 R z.m.i.;.:.f.m.m.Q * . . O O ",
"                            . . O O % w Q z.V.k.i.t.f.v.C.a.W t ; # O @ @ & # @ O @ # # @ O @ # & @ O @ @ * 8 P z.N.a.q.7.j.V.V.O.* . O & O ",
"                            . O @ O $ 2 v j.Z.m.k.a.f.x.C.N.a.=.R v z z z z z f h z z z z z f z z z z z z v P :.v.N.d.e.e.x.Z.Z.O.; . O @ & ",
"                            . O @ @ @ * s r.C.Z.v.z.f.x.N.Z.Z.Z.C.z.a.a.a.r.r.r.r.r.r.r.r.i.r.r.r.r.a.a.a.s.f.z.N.N.j.i.a.v.Z.Z.O., O & # # ",
"                              . @ @ # # 5 Q f.C.V.N.x.x.m.C.Z.Z.Z.C.N.N.N.N.N.N.N.N.N.N.N.N.N.N.N.N.N.N.N.N.N.C.C.N.z.f.f.v.Z.Z.O., O & # # ",
"                              . @ # @ @ : f O.v.Z.Z.N.N.m.N.Z.Z.Z.Z.Z.Z.Z.Z.Z.Z.Z.Z.Z.Z.Z.Z.Z.Z.Z.Z.Z.Z.Z.Z.Z.V.C.m.x.z.z.N.Z.Z.O., O @ # # ",
"                                o @ # @ * 2 v s.N.Z.Z.Z.C.V.V.V.C.C.V.Z.Z.Z.Z.Z.Z.Z.Z.Z.Z.Z.Z.Z.Z.Z.Z.Z.Z.Z.V.V.N.N.N.v.v.C.Z.Z.O.> O # # # ",
"                                . O # # # - w R r.N.Z.Z.Z.Z.V.V.V.V.V.Z.Z.Z.Z.Z.Z.Z.Z.Z.Z.Z.Z.Z.Z.Z.Z.Z.Z.Z.Z.V.V.V.C.N.N.C.Z.Z.O., @ # # & ",
"                                  . # * # * ; 5 K r.v.C.Z.Z.Z.Z.Z.Z.Z.Z.Z.Z.Z.Z.Z.Z.Z.Z.Z.Z.Z.Z.Z.Z.Z.Z.Z.Z.Z.Z.Z.Z.Z.Z.Z.Z.Z.Z.=., @ & # & ",
"                                  . @ & * # * * 8 z ..q.f.N.Z.Z.Z.Z.Z.Z.Z.Z.Z.Z.Z.Z.Z.Z.Z.Z.Z.Z.Z.Z.Z.Z.Z.Z.Z.Z.Z.Z.Z.Z.Z.Z.Z.Z.O., @ * & & ",
"                                    . + * * * * & ; 0 v Q w.j.x.v.v.v.v.v.v.v.v.v.v.v.v.v.v.v.x.v.v.v.v.v.v.C.Z.Z.Z.Z.Z.Z.Z.Z.V.O.< # * & * ",
"                                    . o @ * * * & * > 5 8 t s v R Q Q Q Q Q Q Q Q ..Q Q Q Q Q Q Q Q Q Q Q o.f.C.Z.Z.N.V.Z.Z.V.x.Q < & * & # ",
"                                        . + # * * * - * & & * 2 w w t t t t t t t t t t w t t t t t t a s G r.C.V.N.c.N.Z.Z.N.a.K < * * & # ",
"                                          . O + & * - * = * = - : > , , , : : , , , , , , , , , < , , < u R f.C.m.k.d.z.C.Z.x.O.f > * ; & # ",
"                                            . O @ @ & * = - - - - - - ; - * * * - - * - * - * * * * * - f :.x.C.k.i.e.h.N.Z.z.K w : - - # @ ",
"                                                    O # * ; - ; - ; ; ; ; ; ; = ; - - - ; ; - - - - = , H j.B.b.i.7.8.d.M.V.p.k 1 ; ; - # o ",
"                                                    . @ & & & & & & & & & & & & % * * = ; ; ; ; - - , w X.N.b.d.7.&.7.h.M.k.o.e ; ; ; ; @   ",
"                                                . . o @ # # & & & & & & & & & & % % * - ; ; ; ; ; : 9 H w.v.d.3.#.%.7.l.b.7.V 4 ; ; ; * o   ",
"                                              @ @ # * * * * * * * - - * * * ; * - - - - ; - - * : 8 C 9.h.p.3.+.` $.8.l.l.( y 1 - ; - & .   ",
"                                            . & - ; ; ; - : - ; ; : ; ; ; ; ; : : : : - ; ; , 3 e m #.g.u.,.] ( _ $.t.p.<.l 4 : ; ; * O     ",
"                                            o ; > ; ; ; , : ; : : ; ; ; ; ; : : : : : : ; < 8 h E 3.0.6.$._ U U ` ,.g.#.v 8 , - ; ; # .     ",
"                                          . @ ; , : : , 4 6 4 3 4 2 2 1 1 3 2 2 3 4 7 0 u h A ( $.3.1.[ ! D D ~  .1.<.J w < ; : - * @ .     ",
"                                          . @ ; : , < 5 e p p p y y y r r r r t y p k C ^ | 1.,.$.` U S B Z F ` 1.$.I i 2 : : : - # .       ",
"                                          O # - ; , 2 w l L ^ ( ^ ^ ^ T ^ U F ~ ~ ^ ^ ` [ { { _ F D N b N D _ |  .U p 4 ; ; ; : & o .       ",
"                                          . # - ; ; 3 u L | 1.1.,.,.,.,.>.$.>.>. . .{ [ / F S Z n b b Z D ~ { { U g 5 , ; ; ; ; #           ",
"                                          o + - ; : 2 p ` 1.>.} _ / ^ ^ ~ ! F F F F F D N b b b b N A F [ | _ Z y 4 , - ; ; - # o           ",
"                                          . # = ; ; 2 p } 1.} ^ S Z Z n n n N b b b b b b b b B A ! _ [ [ / n q 3 ; - - - - & o             ",
"                                          . @ = = ; < p | 1.` I B n b b j j j b b b b n N Z F ! _ | >.{ D p 4 < ; - - - - # O               ",
"                                          . @ = = - < p } 1.} / U L S S Z Z Z A S S F ~ _ [ { { { ~ D b y 1 : = = * = * # O                 ",
"                                          . @ * * * < i _ 1.,.$.} ] ] ` _ _ _ ` ` [ { |  . . .{ F g 0 3 : % % - * * * + .                   ",
"                                          . O # % % < r I | ,.1.,.1.,.,.,.$.$. .| [ ~ D Z B l p 0 3 ; % $ $ $ % # + @ o                     ",
"                                            O + # # > 7 g B U ^ ( / _ ^ ^ / ^ U D N g y q 4 4 > % $ + + + # + @ @ O .                       ",
"                                            . @ # # % - > < 2 2 3 4 4 3 4 4 3 1 1 3 > : - = * # $ + + # # + @ . .                           ",
"                                            . @ + @ @ @ O O @ O O @ O O o O @ @ O + @ @ O @ + @ + + + @ @ O .                               ",
"                                              . O O O O O @ + @ O + + @ o O @ @ O O @ @ O @ @ @ O O . . .                                   ",
"                                              . . . . O O O @ O O @ @ O o O O @ O O @ O O O O . . .   .                                     ",
"                                                  . . . o o o o . . . . . O . . o o o . . O .                                               ",
"                                                  .   . .     .   . .     .   . .   .                                                       ",
"                                                                                                                                            "
};
