/* XPM */
static  xpm_row_t const number5resize[] = {
/* columns rows colors chars-per-pixel */
"63 80 256 2",
"   c #0A0E09",
".  c #0E1E0E",
"X  c #121F12",
"o  c #122511",
"O  c #162B16",
"+  c #153215",
"@  c #193319",
"#  c #1A391A",
"$  c #262F2A",
"%  c #243D25",
"&  c #263828",
"*  c #2F3536",
"=  c #36373A",
"-  c #363B3A",
";  c #3A3A3D",
":  c #323834",
">  c #3A3E41",
",  c #1E461E",
"<  c #1F4B1F",
"1  c #1E551D",
"2  c #20561F",
"3  c #204420",
"4  c #2D462E",
"5  c #294C2A",
"6  c #2F4430",
"7  c #215421",
"8  c #2F552F",
"9  c #2A5C2B",
"0  c #235C23",
"q  c #314335",
"w  c #344139",
"e  c #304C31",
"r  c #3B463E",
"t  c #374C3E",
"y  c #345435",
"u  c #375339",
"i  c #3C5E3E",
"p  c #365738",
"a  c #236323",
"s  c #266D26",
"d  c #2B6C2B",
"f  c #2C632C",
"g  c #2F6C31",
"h  c #2F6530",
"j  c #2D7B2D",
"k  c #2B722B",
"l  c #316D32",
"z  c #3B663C",
"x  c #3B693C",
"c  c #336634",
"v  c #337235",
"b  c #367438",
"n  c #337C33",
"m  c #377F38",
"M  c #39753A",
"N  c #3A7A3B",
"B  c #3D4644",
"V  c #3C4A43",
"C  c #3E4349",
"Z  c #3E5642",
"A  c #3D6241",
"S  c #434A44",
"D  c #444C4D",
"F  c #49494A",
"G  c #454745",
"H  c #4B4B51",
"J  c #474C53",
"K  c #47564A",
"L  c #4D5254",
"P  c #4B5158",
"I  c #4C5951",
"U  c #4F5C5C",
"Y  c #524F55",
"T  c #535455",
"R  c #535D57",
"E  c #565D5A",
"W  c #595E5C",
"Q  c #575C65",
"!  c #456D47",
"~  c #466D48",
"^  c #4A6C4D",
"/  c #446147",
"(  c #4E6A52",
")  c #437D46",
"_  c #457E48",
"`  c #487248",
"'  c #55665F",
"]  c #56685F",
"[  c #5A6D5B",
"{  c #556558",
"}  c #58755B",
"|  c #556164",
" . c #576860",
".. c #596A62",
"X. c #5B6468",
"o. c #645E67",
"O. c #60785F",
"+. c #626C64",
"@. c #636568",
"#. c #6D6B71",
"$. c #68756A",
"%. c #66747D",
"&. c #6E7376",
"*. c #6A757D",
"=. c #677A74",
"-. c #727675",
";. c #72767A",
":. c #727976",
">. c #75797D",
",. c #7A7C7E",
"<. c #6D7781",
"1. c #6C7A83",
"2. c #6F7E88",
"3. c #717C85",
"4. c #707F88",
"5. c #7A7E82",
"6. c #2E832D",
"7. c #30832F",
"8. c #348534",
"9. c #348C34",
"0. c #3C8C3D",
"q. c #3A833A",
"w. c #359135",
"e. c #349A34",
"r. c #3A9C3A",
"t. c #3A953A",
"y. c #3AA53A",
"u. c #3BAB3B",
"i. c #37A037",
"p. c #3CB33C",
"a. c #3FBA3F",
"s. c #3F9140",
"d. c #40AA3F",
"f. c #40B73F",
"g. c #418343",
"h. c #428D44",
"j. c #429B42",
"k. c #548454",
"l. c #42A641",
"z. c #45AA45",
"x. c #47AE48",
"c. c #42B342",
"v. c #41BC41",
"b. c #778379",
"n. c #43C443",
"m. c #47C748",
"M. c #45CB45",
"N. c #49CD49",
"B. c #47D247",
"V. c #48D347",
"C. c #49D649",
"Z. c #4BDC4B",
"A. c #4DE34D",
"S. c #4EE94E",
"D. c #50ED50",
"F. c #73828B",
"G. c #7D8284",
"H. c #7B868D",
"J. c #7F8D86",
"K. c #7C8E8E",
"L. c #7B8790",
"P. c #7C8B94",
"I. c #7E8E98",
"U. c #758690",
"Y. c #7E909A",
"T. c #828386",
"R. c #828689",
"E. c #84898D",
"W. c #898C8E",
"Q. c #818983",
"!. c #858C92",
"~. c #8B8E91",
"^. c #818E99",
"/. c #8C938F",
"(. c #82929C",
"). c #8D9194",
"_. c #8B959A",
"`. c #8D989E",
"'. c #839097",
"]. c #908E93",
"[. c #919396",
"{. c #929599",
"}. c #929A9D",
"|. c #99969A",
" X c #999C9F",
".X c #8596A0",
"XX c #8798A2",
"oX c #8B9BA5",
"OX c #8C9EA9",
"+X c #959DA3",
"@X c #999DA1",
"#X c #9BA19E",
"$X c #8FA2AC",
"%X c #96A0A6",
"&X c #93A3AD",
"*X c #9CA2A4",
"=X c #9BA4AA",
"-X c #9BA8AE",
";X c #9DACB5",
":X c #9BAEB8",
">X c #95A8B3",
",X c #9DB0BB",
"<X c #A1A2A5",
"1X c #A2A6A9",
"2X c #ABACAE",
"3X c #A5A8AB",
"4X c #A4AEB3",
"5X c #A8AFB3",
"6X c #A3B4BE",
"7X c #ACB1B4",
"8X c #ADB6BA",
"9X c #A9B4BA",
"0X c #B2AFB3",
"qX c #B2B3B6",
"wX c #B2B6B9",
"eX c #B5BABC",
"rX c #B9BDBC",
"tX c #B5B9B6",
"yX c #BBBFC1",
"uX c #B5BDC0",
"iX c #BBC3BC",
"pX c #BEC2C5",
"aX c #BDC6CB",
"sX c #BAC4CA",
"dX c #BCC9D3",
"fX c #C0BFC2",
"gX c #C1C3C5",
"hX c #C2C7CA",
"jX c #C6CACC",
"kX c #CACBCC",
"lX c #C8C7C8",
"zX c #C6CED2",
"xX c #C9CDD0",
"cX c #CDD1D3",
"vX c #CDD5DC",
"bX c #D3D4D5",
"nX c #D3D6D9",
"mX c #D5D9DB",
"MX c #DADBDC",
"NX c #C8D6E0",
"BX c #DADFE1",
"VX c #DEE1E3",
"CX c #DFE6E9",
"ZX c #E2E3E4",
"AX c #E1E6EA",
"SX c #E6EAEC",
"DX c #ECEDED",
"FX c #E8E7E8",
"GX c #EFEFF0",
"HX c #E7ECF0",
"JX c #EEF0F1",
"KX c #F0EFF0",
"LX c #F3F4F5",
"PX c #F7F8F8",
"IX c #FCFCFC",
"UX c #F7F7F8",
/* pixels */
"A.A.A.A.A.A.A.A.A.A.A.A.A.A.A.A.A.A.A.A.A.A.A.A.A.A.A.A.A.A.A.A.A.A.A.A.A.A.A.A.A.A.A.A.A.A.A.A.A.A.A.A.A.A.A.A.A.A.A.A.A.A.A.",
"A.A.A.A.A.A.A.Z.A.A.A.A.A.A.A.A.A.A.A.Z.A.A.A.A.A.A.A.A.A.A.A.A.Z.A.A.A.A.A.A.A.A.A.A.A.A.A.Z.A.A.A.A.A.A.A.A.A.A.A.A.A.Z.A.A.",
"A.A.A.A.A.A.A.A.A.A.A.A.A.A.A.A.A.A.A.A.A.A.A.A.A.A.A.A.A.A.A.A.A.A.A.A.A.A.A.A.A.A.A.A.A.A.A.A.A.A.A.A.A.A.A.A.A.A.A.A.A.A.A.",
"A.A.A.A.A.A.A.A.A.A.A.A.A.A.A.Z.A.A.A.A.A.A.A.A.A.A.Z.A.A.A.A.A.A.A.A.A.Z.A.A.A.A.A.A.Z.A.A.A.A.A.A.A.A.Z.A.A.A.A.A.A.A.A.A.A.",
"A.A.A.A.A.A.A.A.A.A.Z.A.A.A.A.A.A.A.A.A.A.A.A.A.A.A.A.A.A.A.A.A.A.A.A.A.A.A.A.A.A.A.A.A.A.A.A.A.A.A.A.A.A.A.A.A.A.A.A.Z.A.A.A.",
"A.A.A.A.A.Z.A.A.A.A.A.A.A.A.A.A.A.A.A.A.A.A.A.A.A.A.A.A.A.A.A.A.Z.A.A.A.A.A.A.A.A.A.A.A.A.A.A.A.A.A.A.A.A.A.A.A.A.A.A.A.A.A.A.",
"A.A.A.A.A.A.A.A.A.A.A.A.A.A.A.A.A.A.Z.A.A.A.A.A.A.A.A.A.A.Z.A.A.A.A.A.A.A.A.A.A.A.A.A.A.A.A.A.A.A.A.A.A.A.A.A.A.A.A.A.A.A.A.A.",
"A.A.A.A.A.A.A.A.A.A.A.A.A.A.A.A.A.A.A.A.A.A.A.A.A.A.A.A.A.A.A.A.A.A.A.A.A.A.A.A.A.A.A.A.A.A.A.A.A.A.Z.A.A.A.A.A.A.A.A.A.A.A.A.",
"A.A.A.A.A.A.A.A.A.A.A.A.A.A.A.A.A.A.A.A.A.A.A.A.A.A.A.A.A.A.A.A.A.A.A.A.A.A.A.A.A.A.A.A.A.A.A.A.A.A.A.A.A.A.A.A.A.A.A.A.A.A.A.",
"A.A.A.A.A.A.A.A.A.A.A.A.A.Z.A.A.A.A.A.A.A.A.A.A.A.A.A.A.A.A.A.A.A.A.A.A.A.A.A.A.A.A.A.A.A.A.A.A.A.A.A.A.A.A.A.A.A.A.A.A.A.Z.A.",
"A.A.A.A.A.A.A.A.A.A.A.A.A.A.A.A.A.A.A.A.A.A.A.A.A.A.A.A.A.A.A.A.A.A.A.A.A.A.A.A.A.A.A.A.A.A.A.A.A.A.A.A.A.A.A.A.A.A.A.A.A.A.A.",
"A.A.A.A.Z.A.A.A.A.A.A.A.A.A.A.A.A.A.A.A.A.A.A.A.A.A.A.A.A.A.A.A.A.A.A.A.A.A.A.A.A.A.A.A.A.A.A.A.A.A.A.A.A.A.A.A.A.A.A.A.A.A.A.",
"A.A.A.A.A.A.A.A.A.A.A.A.A.A.A.A.A.A.S.A.A.A.A.A.A.A.A.S.A.A.A.S.A.A.A.A.S.A.A.A.A.A.A.S.A.A.A.A.A.A.A.A.A.A.A.A.A.A.Z.A.A.A.A.",
"A.A.A.A.A.A.A.A.A.A.A.A.A.A.A.A.A.V.M.M.M.M.N.M.M.M.M.M.M.M.M.M.M.M.M.M.M.M.M.M.M.M.M.M.M.M.M.M.M.M.M.Z.Z.A.A.A.A.A.A.A.A.A.A.",
"A.A.A.A.A.A.A.A.A.A.A.A.A.A.A.Z.B.u.w.w.w.9.9.w.w.w.w.w.w.w.w.w.w.w.w.w.w.w.w.w.w.w.w.t.w.t.w.w.w.w.r.p.M.A.A.A.A.A.A.A.A.A.A.",
"A.A.Z.A.A.A.Z.A.A.A.A.A.A.A.Z.v.0.M x z x A z x x x x z x x x x x x z x x x x x x x x x x x x x x x x N d.M.Z.A.A.A.A.A.A.A.A.",
"A.A.A.A.A.A.A.A.A.A.A.A.A.Z.V.t.4 B E E T E E E E E E E E E E E W E E W W W W { W W W { { E T E E { T S N d.V.A.A.A.A.A.A.A.A.",
"A.A.A.A.A.A.A.A.A.A.A.A.A.Z.a.n - o.{.{.[.[.[.[.{.{.[.[.[.{.[.[.[.[.[.[.[.[.{.[.{.{.|.{.{.[.).~.[. XT.T A w.M.A.A.A.A.A.A.A.A.",
"A.A.A.A.A.A.Z.A.A.A.A.A.A.C.u.n r T.lXgXtXeXtXeXtXeXeXtXeXeXeXrXeXeXrXeXeXeXrXeXwXeXeXwXqXqX5X7XwXkX3X@.i n f.S.A.A.A.A.A.A.A.",
"A.A.A.A.A.A.A.A.A.A.A.A.A.V.y.v r T.gX5X@X@X<X<X<X1X1X<X<X*X*X*X*X*X@X*X*X*X*X*X*X<X*X@X X{.).!.{.qX X@.p k a.A.A.A.A.A.A.A.A.",
"A.A.A.A.A.A.A.A.A.A.A.A.A.V.y.l r 5.uX<X~.[.[.[.[.[.)._.).).).~.W.W.W.].~.W.].W.W.W.W.W.T.G.5.>.T.3X[.Q u d p.A.A.A.A.A.A.A.A.",
"A.A.A.Z.A.A.A.A.A.A.A.A.S.V.y.l r 5.eX*X~.].[.[.).~.~.~.W.W.W.W.T.E.E.Q.R.R.R.R.R.T.T.G.,.,.,.>.T.1X].W u d a.A.A.A.A.A.A.A.A.",
"A.A.A.A.A.A.A.A.A.A.A.A.A.C.y.g w ,.wX*XW.).).~.!.E.R.T.G.b.,.,.>.>.>.>.>.>.;.,.>.,.>.;.&.&.&.&.G.%X~.E u d a.S.A.A.A.A.A.A.A.",
"A.A.A.A.A.A.A.A.A.A.A.A.A.V.y.g - ;.5X}.E.W.W.E.E.T.T.5.5.5.;.>.>.>.;.;.;.;.;.;.;.>.;.;.>.&.&.&.G.+X~.E u d p.A.A.A.A.A.A.A.A.",
"A.A.A.A.A.A.A.A.A.A.A.A.S.V.y.g - ;.4X}.R.E.W.H.R.E.`.*X=X*X*X*X<X=X=X%X%X=X%X%X*X*X=X=X*X*X*X=X;X5X].W u d a.A.A.A.A.A.A.A.A.",
"A.A.A.A.A.A.A.A.A.A.A.A.A.V.y.g w &.4X}.H.R.H.G.E._._._.}. X@X X@X+X=X}.%X%X%X}.%X}.%X%X@X X X%X+X{.>.L y j a.A.A.A.A.A.A.A.A.",
"A.A.A.A.A.A.A.A.A.A.A.A.A.V.y.g - &.4X`.G.H.G.G.}.%XX.: - - - - ; ; ; ; ; ; > ; - - w q ; ; ; ; ; = : & f t.M.A.A.A.A.A.A.A.A.",
"A.A.A.A.A.A.A.A.A.A.Z.A.S.V.y.g - ;.4X}.G.G.G.G.%X=XF   . o o o o o o o o o o o o o o . o o o o o o + < 7.a.C.A.A.A.A.A.A.A.A.",
"Z.A.A.A.A.A.A.A.A.A.A.A.A.V.y.l q &.5X`.H.G.G.>.%X-XJ o < a a a a a a a a a a a a a a a a a a a a a k w.p.B.Z.A.A.A.A.A.A.A.A.",
"A.A.A.A.A.A.A.Z.A.A.A.A.A.V.y.l q &.5X`.H.R.G.G.*X4XH O 6.u.u.y.u.y.y.y.y.u.y.y.u.i.i.u.u.i.i.i.y.y.p.a.B.Z.A.A.A.A.A.A.A.A.A.",
"A.A.A.A.A.A.A.A.A.A.A.A.A.C.y.d q :.5X+XH.R.H.G.-X4XF # p.S.A.Z.A.Z.Z.Z.Z.Z.A.A.A.V.A.A.A.A.A.A.A.A.A.A.A.A.A.A.A.A.A.Z.A.A.A.",
"A.A.A.A.A.A.A.A.A.A.A.A.A.C.y.l t >.8X%XE.W.E.W.4X7XH # a.D.A.S.S.A.S.A.S.S.A.A.A.A.A.A.A.A.A.A.A.A.A.A.A.A.A.A.A.A.A.A.A.A.A.",
"A.A.A.A.A.Z.A.A.A.A.A.A.A.V.y.l r 5.iX=X~./.).'.9XeXY # p.S.A.A.A.A.A.A.A.A.A.A.Z.Z.A.A.A.A.A.A.A.A.A.A.A.A.A.A.A.A.A.A.A.A.A.",
"A.A.A.A.A.A.A.A.A.A.A.A.S.C.y.l r 5.sX4X).{._.}.uXyXY # a.D.A.A.S.A.A.A.A.A.S.A.A.Z.A.A.A.A.A.A.A.A.A.Z.Z.A.A.A.A.A.A.A.A.A.Z.",
"A.A.A.A.A.A.A.A.A.A.A.A.A.V.y.l r R.dX7X}.}.}.#XpXjXT O e.M.n.n.n.n.n.n.n.n.n.N.B.C.A.A.A.A.A.A.A.A.A.A.A.A.A.A.A.A.A.A.A.A.A.",
"A.A.A.A.A.A.A.A.A.A.A.Z.S.V.y.l B !.zXeX*X*X*X*XjXjXW o s 9.8.8.9.9.9.9.9.9.9.j.d.n.C.A.A.A.A.A.A.A.A.A.A.A.A.A.A.A.A.A.A.A.A.",
"A.A.A.Z.A.A.A.A.A.A.A.A.S.V.y.l S ~.mXyX=X1X1X3XjXcX,.V / ~ ~ ~ ~ ~ ~ ^ ~ ~ ^ ` N 7.6.w.u.M.A.S.A.A.A.A.A.A.A.A.A.Z.A.A.A.A.A.",
"A.A.A.A.A.A.A.A.A.A.A.A.A.V.y.v K |.VXpX1X2X2X2XjXnX4XH.>.-.-.-.:.:.:.;.;.-.-.$.( c e 8 n d.m.V.Z.A.A.A.A.A.A.A.A.A.A.A.A.A.A.",
"A.A.A.A.A.A.A.A.A.A.A.A.A.C.y.b K <XDXjX2X7XqXqXpXjXhXpXpXyXyXpXgXfXyXyXyXgXfXfXiXtX1XQ.} A h 7.y.C.S.A.A.A.A.A.A.A.A.A.A.A.A.",
"A.A.A.A.A.A.A.A.A.Z.A.A.A.B.y.M I 3XLXxX5XqXeXeXeXgXxXMXZXAXZXSXSXZXAXAXAXSXHXJXLXLXSXjX[.#.T i q.c.V.A.A.A.A.A.A.A.A.A.A.A.A.",
"A.A.A.A.A.A.A.A.A.A.A.A.A.V.y.M R 3XKXbXqXtXyXyXiXpXgXhXjXkXjXjXjXjXkXzXzXkXcXcXbXmXmXVXMXMXiXQ.( b i.M.Z.A.A.A.A.A.A.A.A.A.A.",
"A.A.A.A.Z.A.A.A.A.A.A.A.A.V.y.M E 2XLXbXpXiXyXgXgXlXgXpXpXpXhXhXgXgXhXhXlXgXhXjXjXjXcXVXLXUXGXfX/.} g.y.n.A.A.A.A.A.A.A.A.A.A.",
"A.A.A.A.A.A.A.A.A.A.A.A.A.V.y.N W 2XKXZXlXkXkXkXkXkXkXkXzXkXxXkXkXkXxXxXkXbXkXbXcXbXbXmXmXZXFXLXMX#X$.b y.Z.A.A.A.A.A.A.A.Z.A.",
"A.A.A.A.A.A.A.A.A.A.A.A.S.V.y.g.+.0XUXFXbXbXbXbXbXbXbXbXmXbXmXbXnXnXnXmXbXMXMXMXMXMXmXmXMXMXFXLXKXbX*X+.h.c.C.A.A.A.A.A.A.A.A.",
"A.A.A.A.A.A.A.A.A.A.A.A.S.V.i.) $.0XUXKXZXZXZXZXZXZXZXZXVXZXZXZXZXZXZXZXZXZXZXZXZXZXZXZXFXZXZXFXKXIXbX|.} q.v.A.A.A.A.A.A.A.A.",
"A.A.A.A.A.A.A.A.A.A.A.A.A.V.i.g.#.rXIXIXPXPXPXIXIXIXIXUXIXIXPXPXIXIXIXIXIXUXUXUXPXPXUXKXGXDXDXDXLXIXKXcXb.p y.Z.Z.A.A.A.A.A.A.",
"A.A.A.A.A.Z.A.A.A.A.A.A.A.C.u.g.{ [.lXkXkXkXkXkXlXlXkXkXkXkXkXkXlXkXkXkXlXkXbXMXFXGXIXIXUXLXUXLXLXIXIXUX<XR h.n.C.A.A.A.A.A.A.",
"A.A.A.A.A.A.A.A.A.A.A.A.A.Z.m.t.8 r F F F F F F F F F F F F F V r G F F F F o.Q.#XlXFXIXIXIXIXIXIXIXIXIXkX/.k.t.B.S.A.A.A.A.A.",
"A.A.A.A.A.A.A.A.A.A.A.A.A.Z.Z.d.d , @ @ @ @ # @ @ # @ @ @ @ + + + + # + @ @ 4 / +.b.#XlXLXIXIXIXIXIXIXIXFXiXO.k n.S.A.A.A.A.A.",
"A.A.A.A.A.A.A.A.A.Z.A.A.A.A.A.M.i.6.s s s s s s s s s s s s s s s s s s s s s f 9 8 S ,.bXLXIXIXIXIXIXIXUXbX$.8 f.S.A.A.A.A.A.",
"A.A.A.Z.A.A.A.A.A.A.A.A.A.A.A.Z.n.a.p.d.u.u.u.p.p.u.u.u.u.p.p.u.f.u.f.u.f.u.u.e.6.d 5 S T.gXPXIXIXPXPXIXIXZX,.i x.A.Z.A.A.A.A.",
"A.A.A.A.A.A.A.A.A.A.A.A.A.A.A.A.A.A.A.A.A.A.A.A.A.A.A.A.A.A.A.A.A.A.A.A.A.Z.C.M.f.r.d 5 r [.DXIXIXJXDXJXIXDXW.^ x.C.C.A.A.A.A.",
"A.A.A.A.A.A.A.A.A.A.A.A.A.A.A.A.A.A.A.A.S.A.A.S.A.A.A.A.A.A.A.S.A.A.A.S.A.A.A.Z.C.M.y.k e b.mXJXJXCXBXVXLXDX].[ z.M.C.A.A.A.A.",
"A.A.A.A.A.A.A.A.A.A.A.A.A.A.A.A.A.A.A.A.A.A.A.A.A.A.A.A.A.A.A.A.A.A.A.A.A.A.A.A.A.Z.M.w.9 :.fXSXHXmXxXkXDXDX|.[ j.n.C.A.A.A.A.",
"A.A.A.A.A.A.A.A.A.A.A.A.A.A.A.A.A.A.A.A.A.A.A.A.A.A.A.A.A.A.A.A.A.A.A.A.A.A.A.A.A.A.Z.d.c =.8XnXCXjXuXuXVXDX|.{ h.f.Z.A.A.A.A.",
"A.A.A.A.A.Z.A.A.Z.A.A.A.A.A.A.A.A.A.A.A.A.A.A.A.A.A.A.A.A.A.A.A.A.A.A.A.A.A.A.A.A.A.S.d.8 b.pXnXcXsX8X8XMXDX[.( 0.f.C.A.A.A.A.",
"A.A.A.A.A.Z.A.A.A.A.A.A.A.A.A.A.A.A.A.A.A.A.A.A.A.A.A.A.A.A.A.A.A.A.A.A.A.A.A.A.A.A.Z.r.u W.BXvXyX9X4X5XMXHX).I 0.f.Z.A.A.A.A.",
"A.A.A.A.A.A.A.A.A.A.A.A.A.A.A.A.A.A.A.S.A.A.A.A.A.A.S.A.A.S.A.A.A.A.A.A.S.A.S.A.A.C.c.g.{  XBXjX5X-X+X1XvXCXT.Z s.v.Z.A.A.A.A.",
"A.A.A.A.A.A.A.A.A.A.A.A.A.A.A.Z.A.Z.C.C.Z.C.C.C.Z.C.C.C.Z.C.C.C.C.C.C.C.C.C.C.N.m.z.q.} G.4XzX8X%X+XXXOXdXNX&.u d.M.A.A.A.A.A.",
"A.A.A.A.A.A.A.A.A.A.A.A.A.A.A.Z.C.v.z.l.l.l.z.l.l.z.l.l.l.l.l.l.d.d.d.d.d.d.r.0.b A { H.8XsX6X+X_.^.I..XuX:XX.y d.Z.A.A.A.A.A.",
"A.A.A.A.A.A.A.A.Z.A.A.A.A.A.A.M.z.h.g.) ) ) ) _ _ _ _ _ _ _ _ _ ) _ _ _ g.g._ ( ' X.4.&XsX8X`.(.L.L.(.&X$XF.I h f.A.A.A.A.A.A.",
"A.A.A.A.A.A.A.A.A.A.A.A.A.A.Z.z.Z I | .. . . .X. . .' ' |  .[  . ..... .[ +.=.K.&XuXuX>X&X`.I.4.4.F.XX,XI.| p j m.A.A.A.A.A.A.",
"A.A.Z.A.A.A.A.A.A.A.A.A.A.Z.M.s.B Q L.L.4.L.5.L.L.H.H.H.L.L.!.H.H.H.!.H.H.L.^.oX,X6X;XoXI.H.2.1.1.4..X&X&.r c r.C.A.A.A.A.A.A.",
"A.A.A.A.A.A.A.A.A.A.A.A.A.Z.f.q.B <.uX;X&X4X;X;X4X;X;X4X;X;X;X;X;X4X;X;X;X;X&XoX(.Y.F.F.2.1.%.%.2.P.(.U.R 4 8.n.Z.A.A.A.A.A.A.",
"A.A.A.A.A.A.A.A.A.A.A.A.A.V.f.b S ,.,X&XI.Y.oXoXoX+X$XoX+XoXoX%XOXOXoXoXoX`.Y.P.U.F.F.*.<.%.%.2.P.$XI.| V 9 y.C.A.A.A.A.A.A.A.",
"A.A.A.A.A.A.Z.A.A.A.A.A.A.C.d.b r 3.:XI.<.1.F.U.L.U.U.U.F.L.L.F.U.U.L.H.F.F.F.F.1.*.%.*.%.1.F.I.Y.OX2.V 5 j a.A.A.A.A.A.A.A.A.",
"A.A.A.A.A.A.A.A.A.A.A.A.A.C.d.b V 1.>XI.%.%.1.1.4.F.2.1.F.F.F.F.2.1.1.1.1.1.1.1.%.%.%.%.1.U.XX$XY.X.V 6 d y.B.A.A.A.A.A.A.A.A.",
"A.A.A.A.A.A.A.A.A.A.A.A.S.C.d.b B 1.>XP.%.%.<.1.1.1.<.%.%.1.*.1.1.1.1.1.*.*.1.1.1.F.F.P.I.I.I.4.X.B % 9 w.n.Z.A.A.A.A.A.A.A.A.",
"A.A.Z.A.A.A.A.A.A.A.A.A.A.V.u.v V *.:XI.%.%.<.%.%.%.%.%.%.%.%.%.1.%.%.1.1.1.1.U.U.I.XX>X,XI.U > $ % 9 w.v.Z.A.A.A.Z.A.A.A.A.A.",
"A.A.A.A.A.A.A.A.A.A.A.A.S.V.y.v B *.>X&XXXXXoXoXoXoXXXoXoXoX$XXXOXXXY.OXY.XXXXY.P.F.2.2.%.U : & 3 d w.n.C.A.A.A.A.A.A.A.A.A.A.",
"A.A.A.A.A.A.A.A.A.A.A.A.A.V.d.v w | (.>X:X:X:X:X:X:X:X,X4X,X:X:X:X:X:X:X,X:X>XY.F.| C * $ & , 0 j y.n.Z.A.A.A.A.A.A.A.A.A.A.A.",
"A.A.A.A.A.A.A.A.A.A.A.A.A.Z.n.8.4 * C J P P P P P P P L L L P J P P P P P P P C V 6 4 3 , 0 j e.c.M.Z.A.A.A.A.A.A.A.A.A.A.A.A.",
"A.A.A.A.A.A.A.A.A.A.A.A.A.A.B.r.1 O X . X X X . X X X X X X X X X X X X X X o @ # , 7 a j e.p.M.Z.A.A.A.Z.A.A.A.A.A.A.A.A.A.A.",
"A.A.A.A.A.A.A.A.A.A.A.A.A.A.Z.f.7.s 1 1 1 1 1 1 2 0 1 1 1 1 1 1 1 1 1 1 1 1 0 s k j 9.y.n.M.C.Z.A.A.A.A.A.A.A.A.A.A.A.A.Z.A.A.",
"A.A.A.A.A.A.A.A.A.A.A.A.A.A.A.V.a.u.e.e.e.e.e.e.e.r.e.e.e.e.e.e.e.e.e.e.e.e.e.y.p.p.a.M.Z.A.A.A.A.A.A.A.A.A.A.A.A.A.A.A.A.A.A.",
"A.A.A.A.A.Z.A.A.A.A.A.A.A.A.A.Z.Z.Z.C.B.M.C.C.C.C.C.C.C.C.C.C.C.C.C.C.C.C.C.C.Z.C.Z.Z.A.A.A.A.A.A.A.A.A.A.A.A.A.A.A.A.A.A.A.A.",
"A.A.A.A.A.A.A.A.A.A.A.A.A.A.A.A.A.A.S.A.A.A.S.S.S.A.S.A.A.A.S.A.A.S.A.S.A.S.S.A.S.A.A.A.A.A.A.A.A.A.Z.A.A.A.A.A.A.A.A.A.A.A.A.",
"A.A.A.A.A.A.A.A.Z.A.A.A.A.A.A.A.A.A.A.A.A.A.A.A.A.A.A.A.A.A.A.A.A.A.A.A.A.A.A.A.A.A.A.A.A.A.A.A.A.A.A.A.A.A.A.A.A.A.A.A.A.A.A.",
"A.A.A.A.A.A.A.A.A.A.A.A.A.A.A.A.A.A.A.A.A.A.A.A.A.A.A.A.A.A.A.A.A.A.A.A.A.A.A.A.A.A.A.A.A.A.A.A.A.A.A.A.A.A.A.A.A.Z.A.A.A.A.A.",
"Z.A.A.A.A.A.A.A.A.A.A.A.A.A.A.A.A.A.A.A.A.A.A.A.A.A.A.A.A.A.A.A.A.A.A.A.A.A.A.A.A.A.A.A.A.A.A.A.A.A.A.A.A.A.A.A.A.A.A.A.A.A.A."
};
