/* XPM */
static  xpm_row_t const number3resize[] = {
/* columns rows colors chars-per-pixel */
"57 80 219 2",
"   c #0D0B0D",
".  c #100F10",
"X  c #121312",
"o  c #171618",
"O  c #131B13",
"+  c #171818",
"@  c #181717",
"#  c #181718",
"$  c #1A1B1B",
"%  c #1F1F20",
"&  c #152415",
"*  c #172B17",
"=  c #1B221B",
"-  c #1A2B1A",
";  c #173017",
":  c #1A341A",
">  c #1B3C1B",
",  c #1F2021",
"<  c #201F20",
"1  c #232424",
"2  c #262728",
"3  c #242A24",
"4  c #272929",
"5  c #29272A",
"6  c #2B2B2B",
"7  c #2E2F30",
"8  c #253525",
"9  c #27322A",
"0  c #233D23",
"q  c #273A29",
"w  c #2B342B",
"e  c #2A3C2A",
"r  c #2E3032",
"t  c #302F30",
"y  c #323334",
"u  c #353738",
"i  c #36393B",
"p  c #3A3B3C",
"a  c #3C3F41",
"s  c #1D441D",
"d  c #1E4C1E",
"f  c #1F521F",
"g  c #234423",
"h  c #274428",
"j  c #234C23",
"k  c #2A442A",
"l  c #2A4A2A",
"z  c #235423",
"x  c #235B23",
"c  c #2A522A",
"v  c #295D29",
"b  c #304530",
"n  c #334B33",
"m  c #315531",
"M  c #246424",
"N  c #256C25",
"B  c #296329",
"V  c #296C29",
"C  c #267226",
"Z  c #29742A",
"A  c #2A7B2A",
"S  c #316431",
"D  c #346B34",
"F  c #317A31",
"G  c #3A7D3A",
"H  c #3E4143",
"J  c #3D4D40",
"K  c #424445",
"L  c #454748",
"P  c #424E44",
"I  c #46494B",
"U  c #4B4D4D",
"Y  c #4B4E50",
"T  c #455848",
"R  c #4D5254",
"E  c #4F5558",
"W  c #525455",
"Q  c #545758",
"!  c #565A5C",
"~  c #5A5B5C",
"^  c #565E62",
"/  c #595F63",
"(  c #5D6265",
")  c #5D6569",
"_  c #616264",
"`  c #616669",
"'  c #62696C",
"]  c #696B6C",
"[  c #646C71",
"{  c #6B6F71",
"}  c #667669",
"|  c #68726C",
" . c #677075",
".. c #6C7273",
"X. c #6D767A",
"o. c #6E787F",
"O. c #727373",
"+. c #73777A",
"@. c #73797D",
"#. c #797A7C",
"$. c #727D83",
"%. c #7C7F81",
"&. c #2D832D",
"*. c #2E892E",
"=. c #318331",
"-. c #338E33",
";. c #3C843C",
":. c #3A8B3A",
">. c #339333",
",. c #359A35",
"<. c #3E963E",
"1. c #389C38",
"2. c #37A137",
"3. c #39A439",
"4. c #3BAB3B",
"5. c #3EB33E",
"6. c #3FB83F",
"7. c #409C40",
"8. c #43AD43",
"9. c #42B542",
"0. c #43BC43",
"q. c #43C343",
"w. c #46CD46",
"e. c #48C648",
"r. c #47D247",
"t. c #49D449",
"y. c #4BDD4B",
"u. c #4EE44E",
"i. c #4FE94F",
"p. c #768086",
"a. c #7D8183",
"s. c #7A868D",
"d. c #7C888F",
"f. c #7D8A92",
"g. c #828485",
"h. c #828689",
"j. c #84898B",
"k. c #8B8D8D",
"l. c #828E94",
"z. c #8C8F91",
"x. c #85939B",
"c. c #8D9294",
"v. c #89969D",
"b. c #8C989F",
"n. c #929596",
"m. c #929698",
"M. c #959A9C",
"N. c #999B9D",
"B. c #8997A0",
"V. c #8D9BA3",
"C. c #939EA4",
"Z. c #919FA8",
"A. c #999EA1",
"S. c #95A1A5",
"D. c #94A3AB",
"F. c #9CA1A4",
"G. c #9CA7AE",
"H. c #97A7B0",
"J. c #97A8B1",
"K. c #9BABB4",
"L. c #9FAFB8",
"P. c #A2A5A6",
"I. c #A3A7A9",
"U. c #A5AAAD",
"Y. c #AAACAE",
"T. c #A4ADB2",
"R. c #A0AFB8",
"E. c #AAAEB0",
"W. c #A5B0B6",
"Q. c #A3B3BC",
"!. c #ABB1B5",
"~. c #AEB5B9",
"^. c #AAB8BF",
"/. c #B2B5B6",
"(. c #B1B6B9",
"). c #B5BABC",
"_. c #BBBDBE",
"`. c #A5B6C0",
"'. c #A7B8C1",
"]. c #ABBCC5",
"[. c #ADBFC9",
"{. c #B5BEC3",
"}. c #BABEC1",
"|. c #AFC1CB",
" X c #B7C0C6",
".X c #B2C3CC",
"XX c #BCC2C5",
"oX c #BBC4C9",
"OX c #BFC8CE",
"+X c #B8C7D0",
"@X c #BCCAD2",
"#X c #C2C5C6",
"$X c #C1C5C8",
"%X c #C4C9CC",
"&X c #CCCDCE",
"*X c #C2CDD3",
"=X c #CBCFD2",
"-X c #CDD1D4",
";X c #CDD4D9",
":X c #D4D5D5",
">X c #D2D6D9",
",X c #D5D9DC",
"<X c #DBDCDD",
"1X c #CEDDE5",
"2X c #D1DCE3",
"3X c #D2DFE8",
"4X c #DBDEE0",
"5X c #DDE1E3",
"6X c #DCE6EC",
"7X c #E2E3E4",
"8X c #E3E6E8",
"9X c #E5E9EB",
"0X c #EBEDEE",
"qX c #E5EFF6",
"wX c #ECEFF0",
"eX c #EEF1F2",
"rX c #F3F5F5",
"tX c #F7F9FA",
"yX c #FDFDFD",
/* pixels */
"u.u.u.u.u.u.u.u.u.u.u.u.u.u.u.u.u.u.u.u.u.u.u.u.u.u.u.u.u.u.u.u.u.u.u.u.u.u.u.u.u.u.u.u.u.u.u.u.u.u.u.u.u.u.u.u.u.",
"u.u.u.u.u.u.u.u.u.u.u.u.u.u.u.u.u.u.u.u.u.u.u.u.u.y.u.u.u.u.u.u.u.u.u.u.u.u.u.u.u.u.u.u.u.u.u.u.u.u.u.u.u.u.u.u.u.",
"u.u.u.u.u.u.u.u.u.u.u.u.u.u.u.u.u.u.u.u.u.u.u.u.u.u.u.u.u.u.u.u.u.u.u.u.u.u.u.u.u.u.u.u.u.u.u.u.u.u.u.u.u.u.u.u.u.",
"u.u.u.u.u.u.u.u.u.u.u.u.u.u.u.u.u.u.u.u.u.u.u.u.u.u.u.u.u.u.u.u.u.u.u.u.u.u.u.u.u.u.u.u.u.u.u.u.u.u.u.u.u.u.u.u.u.",
"u.u.u.u.u.u.u.u.u.u.u.u.u.u.u.u.u.u.u.u.u.u.u.u.u.u.u.u.u.u.u.u.u.u.u.u.u.u.u.u.u.u.u.u.u.u.u.u.u.u.u.u.u.u.u.u.u.",
"u.u.u.u.u.u.u.u.u.u.u.u.u.u.u.u.u.u.u.u.u.u.u.u.u.u.u.u.u.u.u.u.u.u.u.u.u.u.u.u.u.u.u.u.u.u.u.u.u.y.u.u.u.u.u.u.u.",
"u.u.u.u.u.u.u.u.u.u.u.u.u.u.u.u.u.u.u.u.u.u.u.u.u.u.u.u.u.u.u.u.y.u.u.u.u.u.u.u.u.u.u.u.u.u.u.u.u.u.u.u.u.u.u.u.u.",
"u.u.u.u.u.u.u.u.u.u.u.u.u.u.u.u.u.u.u.u.u.u.u.u.u.u.u.u.u.u.u.u.u.u.u.u.u.u.u.u.u.u.u.u.u.u.u.u.u.u.u.u.u.u.u.u.u.",
"u.u.u.u.u.u.u.u.u.u.u.u.u.u.u.u.u.u.u.u.u.u.u.u.u.u.u.u.u.u.u.u.u.u.u.u.u.u.u.u.u.u.u.u.u.u.u.u.u.u.u.u.u.u.u.u.u.",
"u.u.u.u.u.u.u.u.u.u.u.u.u.u.u.u.u.u.u.u.u.u.u.u.u.u.u.u.u.u.u.u.u.u.u.u.u.u.u.u.u.u.u.u.u.u.u.u.u.u.u.u.u.u.u.u.u.",
"u.u.u.u.u.u.u.u.u.u.u.u.u.u.u.u.u.u.u.u.u.i.i.u.u.i.u.u.u.i.u.i.u.i.i.u.i.i.u.u.u.u.u.u.u.u.u.u.u.u.u.u.u.u.u.u.u.",
"u.u.u.u.u.u.u.u.u.u.u.u.u.u.u.u.u.u.u.u.y.y.y.y.y.y.y.y.y.y.y.y.y.y.y.y.y.y.y.u.u.u.u.u.u.u.u.u.u.u.u.u.u.u.u.u.u.",
"u.u.u.u.u.u.u.u.u.u.u.u.u.u.u.u.i.i.i.u.t.q.0.q.0.0.6.0.q.0.0.0.0.q.q.q.0.q.r.y.i.i.i.i.i.u.u.u.u.u.u.u.u.u.u.u.u.",
"u.u.u.u.u.u.u.u.u.u.u.u.u.u.u.y.t.q.5.3.,.=.=.=.=.=.Z F G =.=.=.=.=.=.F =.*.>.1.4.9.0.w.r.y.u.u.u.u.u.u.u.u.u.u.u.",
"u.u.u.u.u.u.u.u.u.u.u.u.u.u.u.r.5.F g : * * - & & - & * = * & - * - & - * & - - : g B =.1.0.t.u.i.u.u.u.u.u.u.u.u.",
"u.u.u.u.u.u.u.u.u.u.u.u.u.u.u.5.Z > O .                                         . O , j v D -.4.e.t.u.u.u.u.u.u.u.",
"u.u.u.u.u.u.u.u.u.u.u.u.u.u.y.-.: O X . X X X X . X X X X X X X X X X X X X X X   X X X X O > M -.9.t.u.u.u.u.u.u.",
"u.u.u.u.u.u.u.u.u.u.u.u.u.y.e.Z O   X X $ 2 5 2 2 2 5 2 1 1 1 1 1 1 1 1 1 < < X       .     O * g B 1.q.u.i.u.u.u.",
"u.u.u.u.u.u.u.u.u.u.u.u.i.r.3.z X   O $ t U W W Q Q Q Q Q W W W W W W W W W L p 6 1 < $ O . . . . & z ,.e.y.u.u.u.",
"u.u.u.u.u.u.u.u.u.u.u.u.u.q.&.s X   # r W %.M.I.E.E.E.E.E.E.E.E.E.Y.Y.Y.Y.Y.I.N.n.#.~ I t X   .   X & j =.0.u.i.u.",
"u.u.u.u.u.u.u.u.u.u.u.u.u.0.N > X   $ p [ I.#X=X=X=X=X=X=X=X=X=X:X=X=X=X-X&X-X=X%X!.M.g.' K 5 $ X .   O j -.w.y.u.",
"u.u.u.u.u.u.u.u.u.u.u.u.u.6.M ; X . # u O.).=X%X}.~.~.~.~.~.(.).(./.(.).(.).)._._.XX#X#X(.m.] H 1 . . . O z 3.w.u.",
"u.u.u.u.u.u.u.u.u.u.u.u.t.4.M * X X $ w | #X%X).U.A.F.A.F.F.F.P.P.F.F.P.P.P.P.I.E.(.XX%X%X_.F.#.U 1 X   . ; B 0.i.",
"u.u.u.u.u.u.u.u.u.u.u.u.r.3.M : X X = 8 } }.#XY.N.n.m.n.n.m.n.n.n.n.n.c.c.c.n.M.M.A.P.U.(.XX$X(.%.U 1 . X . ; 1.u.",
"u.u.u.u.u.u.u.u.u.u.u.y.w.2.M * X . $ w | ).XX!.P.M.N.N.N.N.M.M.M.M.M.M.M.M.n.c.c.c.M.M.F.Y.).XXP.+.u O .   & Z 4.",
"u.u.u.u.u.u.u.u.u.u.u.y.r.2.M * X   @ y ] T.{.).!.U.T.U.U.Y.T.Y.E.E.T.I.T.I.P.F.M.c.c.c.c.M.I.).).M.Y 1 X   O f Z ",
"u.u.u.u.u.u.u.u.u.u.u.y.w.2.M ; X   @ y _ M.!.XXXXXXXXXXXXXXXX#XXXXXXXXXXXXX{.).U.F.n.c.z.z.M.I.).E.' y + . X : g ",
"u.u.u.u.u.u.u.u.u.u.u.u.r.3.N ; X . @ 6 T ..j.n.A.F.F.F.F.F.A.N.F.F.C.C.C.F.G.E.~.E.P.C.c.c.c.M.).).s.Y $   X & ; ",
"u.u.u.u.u.u.u.u.u.u.u.u.w.4.C > X   X $ 8 n P U Y Y U U Y W W U R R I L n T ) j.I.(.(.I.C.c.z.M.T.~.C.' =   . O O ",
"u.u.u.u.u.u.u.u.u.u.u.y.w.4.A s O X X X $ = 3 1 1 1 1 1 1 1 1 1 1 , , = = 3 u I _ j.I.!.I.m.z.c.I.~.E.+.,   . X X ",
"u.u.u.u.u.u.u.u.u.u.u.y.w.4.A d & O   X O $ o X X X X X . X X X O X X X X X O X # R j.E.~.A.c.z.F.!.).p.3   . X . ",
"u.u.u.u.u.u.u.u.u.u.u.u.t.5.A f > & X   . . . . .     . .     . .   .   .         6 ^ F.{.I.m.c.C.W.).s.,   X . . ",
"u.u.u.u.u.u.u.u.u.u.u.u.u.6.&.M f s * & O O O O O O O O O O O O O O O O & O X   X X i M.oXU.M.c.S.!.|.s.1   . X . ",
"u.u.u.u.u.u.u.u.u.u.u.u.u.q.*.C N M x d d s g s d s s s d s d d s > s s s > O X     6 m.OXW.A.c.F.!.{.h.1   . . . ",
"u.u.u.u.u.u.u.u.u.u.u.u.u.w.,.&.C N C N N M M M M M M M x f d d s s d d f > O   .   2 m.*X~.F.m.U.).XXh.3   . . X ",
"u.u.u.u.u.u.u.u.u.u.u.u.u.r.6.*.C C C N N N N N N N N N x d : ; * * * * ; & O X .   5 N.>X{.G.N.~.oX{.a.=   X X O ",
"u.u.u.u.u.u.u.u.u.u.u.u.u.y.r.4.*.&.C N N N N N N N f d > * & & O O O O O O X   . # K E.:XXXT.I.XX=X!...<   X O & ",
"u.u.u.u.u.u.u.u.u.u.u.u.u.u.u.w.6.,.&.&.A A C A C N s & X X . . X . .     .   X O p ..}.4XXX(.).>X>XN.~ $   X & * ",
"u.u.u.u.u.u.u.u.u.u.u.u.u.u.u.y.r.w.6.6.5.2.3.2.2.A ;   .                     O y +.).,X,XoXXX=X6X>Xh.K $   X * > ",
"u.u.u.u.u.u.u.u.u.u.u.u.u.u.u.u.u.u.u.u.y.w.w.q.5.A *   X $ 1 3 6 9 7 w w y u P ..(.9X6X,X&X>X7X5X_.` 9 O   X > f ",
"u.u.u.u.u.u.u.u.u.u.u.u.u.u.u.u.u.u.u.u.u.y.u.r.>.z O   o y ~ O.a.h.k.z.c.M.P._.:X9X0X5X<X<X0XeX%Xj.p O X   O s M ",
"u.u.u.u.u.u.u.u.u.u.u.u.u.u.u.u.u.u.u.u.u.u.u.w.&.> O   @ L %.Y.#X%X&X-X:X<X7XeXtXrX8X,X4X0X0X<Xn.Y <   . O * z C ",
"u.u.u.u.u.u.u.u.u.u.u.u.u.u.u.u.u.u.u.u.u.u.y.q.Z > O   @ U k.:XtXrXrXrXrXtXrXrX9X5X,X4X8XtX4XP.Q # . . X * j M N ",
"u.u.u.u.u.u.u.u.u.u.u.u.u.u.u.u.u.u.u.u.u.u.r.5.V : @ . @ U n.<XyXyXtXeX0X0X0X7X4X,X,X5X8X7XY.~ 5 . X o X : z M C ",
"u.u.u.u.u.u.u.u.u.u.u.u.u.u.u.u.u.u.u.u.u.u.w.2.V : = X < W n.7XyXtX0X5X<X5X7X<X,X,X5X0X0X:Xk.u 1 # # # $ : z N C ",
"u.u.u.u.u.u.u.u.u.u.u.u.u.u.u.u.u.u.u.u.u.u.w.2.M : = o < ~ N.7XyXyXrX9X8X9X7X7X5X5X9XeXrX0X&Xn.W 1 $ # # * g Z *.",
"u.u.u.u.u.u.u.u.u.u.u.u.u.u.u.u.u.u.u.u.u.u.w.2.V > = X < ~ P.7XyXyXtXrXrXrXeXeX0X0XwXtXyXyXyX7XN.W 6 $ $ $ - Z ,.",
"u.u.u.u.u.u.u.u.u.u.u.u.u.u.u.u.u.u.u.u.u.u.r.2.M > = @ 1 _ P.0XyXyXyXyXtXtXtXtXtXtXtXyXyXyXyXtX5XY.W 1 $ # = M *.",
"u.u.u.u.u.u.u.u.u.u.u.u.u.u.u.u.u.u.u.u.u.y.w.3.B > = $ 1 _ Y.<XrXrXrXrXrXrXyXtXyXyXyXyXyXyXyXyXyX<Xj.L 1 o < h B ",
"u.u.u.u.u.u.u.u.u.u.u.u.y.u.u.u.u.u.u.u.i.u.e.3.V 0 1 < 1 ~ n._.&X&X&X:X&X:X<X0XtXyXyXyXyXyXyXyXyXeX_.#.t $ < - 8 ",
"u.u.u.u.u.u.u.u.u.u.u.u.u.u.u.u.u.u.u.u.u.y.w.3.Z g 3 < 1 p ~ ] O.O.O.O.O.O.#.n./.<XtXyXyXyXyXyXyXtX0XP.K 1 < < 3 ",
"u.u.u.u.u.u.u.u.u.u.u.u.u.u.u.u.u.u.u.u.u.u.w.4.A z 8 1 1 1 1 1 1 1 1 1 1 1 1 p ] P.<XrXyXyXyXyXyXyXtX#X~ t 1 3 < ",
"u.u.u.u.u.u.u.u.u.u.u.u.u.u.u.u.u.u.u.u.i.u.w.4.&.x g 3 1 1 < < < < < < < < < 1 p ~ k.<XyXyXyXtXyXyXyX:Xh.U 4 < 1 ",
"u.u.u.u.u.u.u.u.u.u.u.u.u.u.u.u.u.u.u.u.u.u.w.5.*.M z g 8 3 3 3 3 1 3 3 3 3 1 1 1 t ~ _.tXyXtXrXtXyXyX5XN.~ 4 < 1 ",
"u.u.u.u.u.u.u.u.u.u.u.u.u.u.u.u.u.u.u.u.u.u.t.0.*.N N B v c h e 8 w w w 8 8 6 1 1 1 H N.5XrXrX8XeXtXyX<Xn.~ 4 1 5 ",
"u.u.u.u.u.u.u.u.u.u.u.u.u.u.u.u.u.u.u.u.i.u.u.t.,.Z C C C V B z z z z z c j h w 5 1 u g.#XrXeX4X5X0XyX<Xn.~ 6 2 4 ",
"u.u.u.u.u.u.u.u.u.u.u.u.u.u.u.u.u.u.u.u.u.y.u.t.3.A A Z C C V Z Z V V N N M c e 4 , u { !.0X0X;X>X4XrX<Xk.W t 3 4 ",
"u.u.u.u.u.u.u.u.u.u.u.u.u.u.u.u.i.i.u.t.e.9.9.8.<.;.V B B v B B B B B v x l k w 6 1 u ..!.qX8X*X%X,XrX<Xk.W 6 3 5 ",
"u.u.u.u.u.u.u.u.u.u.u.u.u.u.u.y.y.t.e.8.7.;.G G G D m c l l l l l l l l k 8 6 6 6 2 a h.XX6X2X{.{.;XrX>Xh.U 6 6 6 ",
"u.u.u.u.u.u.u.u.u.u.u.u.u.u.u.r.0.;.D m n b b b b b e w w w w t w w w w w 6 6 6 7 7 Y G.2X1X@X~.].*XqX:Xg.W 6 5 6 ",
"u.u.u.u.u.u.u.u.u.u.u.u.u.u.u.q.;.m 8 6 5 5 6 6 5 5 5 6 5 5 6 5 5 6 6 6 6 6 1 t a R @.{.3X@X^.T.Q.@X6X*X#.L t 5 6 ",
"u.u.u.u.u.u.u.u.u.u.u.u.u.i.u.3.n t 6 6 6 6 t t t 6 6 6 6 6 t 5 6 6 6 6 6 6 6 p Q j.~.*X*X`.D.D.Q.+X2XE._ p 6 6 6 ",
"u.u.u.u.u.u.u.u.u.u.u.u.u.y.q.;.w 5 6 t p K L L K K K H a H H H K n H K I R _ O.l.W..X{.R.D.V.Z.`.+X{.z.U t 6 6 6 ",
"u.u.u.u.u.u.u.u.u.u.u.u.u.w.3.S t 5 t p Y _ ' ' ' ' ' ` ' ' ' ' ' ' ' ' o.l.F.!..X.XQ.D.B.x.x.Z.]..XC.[ u 6 6 6 w ",
"u.u.u.u.u.u.u.u.u.u.u.u.i.q.=.c 6 5 y H ( p.b.D.D.G.D.D.S.D.D.Z.H.Z.Z.Z.H.J.Q.`.Q.L.Z.f.f.f.J.J.|.`.$.J a 4 7 9 h ",
"u.u.u.u.u.u.u.u.u.u.u.u.u.0.F k 6 5 y K [ S.'..X|.|..X.X|.[.[.[.|.|.[.[.`.Q.J.D.f.f.f.f.f.f.K.`.'.f.^ a 4 2 r k c ",
"u.u.u.u.u.u.u.u.u.u.u.u.y.5.F k 5 2 t K X.R.|.^.Q.K.J.H.H.D.H.H.L.J.Z.V.B.f.B.f.f.f.f.f.f.L.[.[.f.) H 4 4 r 4 c N ",
"u.u.u.u.u.u.u.u.u.u.u.u.w.4.V h 5 2 w H @.].].K.V.v.v.x.x.x.x.x.f.f.f.s.s.f.s.s.f.f.f.Z.J.`.L.f.$.H r 2 4 , 9 v C ",
"u.u.u.u.u.u.u.u.u.u.u.y.w.3.B g 4 3 r K @.].].D.c.l.l.l.f.f.f.s.s.s.s.s.f.f.f.f.f.J.K.'.[.L.f.) H r 4 9 4 q c B C ",
"u.u.u.u.u.u.u.u.u.u.i.y.w.3.V 0 5 1 6 H o.'.].R.Z.b.V.V.B.x.x.x.B.B.B.B.V.D.H.K.`.[.`.J.f.$.^ a r , , , 9 j B N C ",
"u.u.u.u.u.u.u.u.u.u.i.y.w.3.V 0 1 1 4 H  .K.|.].Q.K.K.K.K.K.K.K.K.K.L.L.L.`.'.].'.L.Z.$.^ a r 2 , , , 3 g x N Z C ",
"u.u.u.u.u.u.u.u.u.u.u.u.w.3.M 0 1 $ 1 p ' V.Q.|.[.[.{.].[.].[.[.].'.`.L.H.V.x.f.p.$.^ H a , , , , , , g x N N &.*.",
"u.u.u.u.u.u.u.u.u.u.u.y.w.3.N 0 $ $ , y R ..d.v.V.S.A.A.Z.Z.Z.Z.Z.B.x.l.$.' ^ E L r , $ $ $ = $ , , s x C C C ,.4.",
"u.u.u.u.u.u.u.u.u.u.u.y.w.3.Z s $ # $ 1 5 y i a a H H H a a H a a b a i u 7 6 6 , 1 $ + $ $ $ = > d M N C A *.6.r.",
"u.u.u.u.u.u.u.u.u.u.u.u.w.4.A d - # + # + + X X X X X X X . X . X X X . X X o X # $ + + + - > s f M N C A *.3.w.i.",
"u.u.u.u.u.u.u.u.u.u.u.y.w.4.C f g & X # # # X X # # X X $ O . X . O O X X O X X $ $ $ O & g f M N C C C *.2.w.t.u.",
"u.u.u.u.u.u.u.u.u.u.u.u.y.5.A M x s & & O O . . X . .   . X       . X . O & O & ; : 0 s f M N N C N C *.4.q.y.u.u.",
"u.u.u.u.u.u.u.u.u.u.u.u.u.q.&.N N f d ; & O X O O O O O + + O O O O & & & ; > s d z M M C A C N C C *.3.q.y.u.u.u.",
"u.u.u.u.u.u.y.u.u.u.u.u.u.w.,.A C N M f f d d d j f f f f f f d d f f f f x x M M M M C C C C C &.,.6.w.y.u.u.u.u.",
"u.u.u.u.u.u.u.u.u.u.u.u.u.w.2.*.C C C C C C N N C A A A C A Z N C C C N N C Z C N N N N C C C C *.5.y.i.u.u.u.u.u."
};
