/* XPM */
static  xpm_row_t const number4resize[] = {
/* columns rows colors chars-per-pixel */
"66 80 190 2",
"   c #0D0C0D",
".  c #100F0F",
"X  c #100F10",
"o  c #131413",
"O  c #171718",
"+  c #141B14",
"@  c #171818",
"#  c #191719",
"$  c #1B1B1B",
"%  c #1E1F20",
"&  c #152315",
"*  c #172C17",
"=  c #1B231B",
"-  c #1B2D1B",
";  c #173017",
":  c #193419",
">  c #1D3C1D",
",  c #1F2020",
"<  c #201F1F",
"1  c #242424",
"2  c #252A25",
"3  c #272828",
"4  c #282728",
"5  c #2A2B2B",
"6  c #2D2F30",
"7  c #253325",
"8  c #233C23",
"9  c #2A332A",
"0  c #293C29",
"q  c #2F3131",
"w  c #343535",
"e  c #353738",
"r  c #37393A",
"t  c #3A3C3C",
"y  c #3B3F40",
"u  c #1D441D",
"i  c #1E4B1E",
"p  c #1E501E",
"a  c #224322",
"s  c #224D22",
"d  c #294429",
"f  c #284E28",
"g  c #235423",
"h  c #245B24",
"j  c #285428",
"k  c #285A28",
"l  c #324434",
"z  c #256525",
"x  c #256C25",
"c  c #286528",
"v  c #296C29",
"b  c #267226",
"n  c #2A742A",
"m  c #2B7C2B",
"M  c #307730",
"N  c #307D30",
"B  c #3F4141",
"V  c #424444",
"C  c #424649",
"Z  c #46494B",
"A  c #4B4D4D",
"S  c #4A4F52",
"D  c #4C5153",
"F  c #535455",
"G  c #535659",
"H  c #55595C",
"J  c #5A5C5D",
"K  c #5C5E60",
"L  c #5F605F",
"P  c #5D6162",
"I  c #636465",
"U  c #646768",
"Y  c #65696B",
"T  c #6A6C6D",
"R  c #6D7173",
"E  c #6D777C",
"W  c #747475",
"Q  c #737678",
"!  c #767879",
"~  c #7B7B7C",
"^  c #7B7F80",
"/  c #2D852D",
"(  c #2F8A2F",
")  c #318431",
"_  c #328C32",
"`  c #339333",
"'  c #359B35",
"]  c #399D39",
"[  c #37A137",
"{  c #39A639",
"}  c #3BAD3B",
"|  c #3DB33D",
" . c #3FBA3F",
".. c #40B740",
"X. c #41BD41",
"o. c #43C443",
"O. c #45CC45",
"+. c #47D047",
"@. c #49D549",
"#. c #4BDC4B",
"$. c #4EE44E",
"%. c #4FE84F",
"&. c #50EA50",
"*. c #75838B",
"=. c #7E8183",
"-. c #7A858B",
";. c #7E8B92",
":. c #808283",
">. c #838789",
",. c #848A8B",
"<. c #8A8D8E",
"1. c #848E93",
"2. c #818F98",
"3. c #898F91",
"4. c #809088",
"5. c #85939A",
"6. c #8B9295",
"7. c #8A959B",
"8. c #8C989F",
"9. c #929495",
"0. c #92979A",
"q. c #949A9D",
"w. c #9B9D9D",
"e. c #8997A0",
"r. c #8D9BA3",
"t. c #949DA3",
"y. c #999EA1",
"u. c #94A4AC",
"i. c #9CA2A5",
"p. c #9DA4A8",
"a. c #9EA9AF",
"s. c #97A6B0",
"d. c #9CACB5",
"f. c #A3A5A6",
"g. c #A2A6A9",
"h. c #A4A9AD",
"j. c #A9AAAB",
"k. c #A5ACB1",
"l. c #A0AFB8",
"z. c #AAAFB1",
"x. c #A2B0B7",
"c. c #A4B4BD",
"v. c #ACB1B5",
"b. c #ADB6BA",
"n. c #AFB8BC",
"m. c #B3B4B5",
"M. c #B1B6B9",
"N. c #B5BABD",
"B. c #BBBCBD",
"V. c #A5B7C0",
"C. c #A6B8C2",
"Z. c #ABBCC5",
"A. c #B5BDC1",
"S. c #B9BEC1",
"D. c #AFC0CA",
"F. c #B2C2CB",
"G. c #BCC2C5",
"H. c #BBC4C8",
"J. c #B7C9D2",
"K. c #BCCBD4",
"L. c #BDCED8",
"P. c #C2C4C5",
"I. c #C2C7C9",
"U. c #C4C9CC",
"Y. c #CBCDCE",
"T. c #C5CDD2",
"R. c #C8CDD0",
"E. c #C6D5DD",
"W. c #CDD1D4",
"Q. c #CDD5DA",
"!. c #D3D3D4",
"~. c #D1D6D9",
"^. c #D5DADD",
"/. c #DBDCDC",
"(. c #C9D9E3",
"). c #D6DDE0",
"_. c #DBDEE0",
"`. c #DDE1E3",
"'. c #DCE5EA",
"]. c #E4E4E5",
"[. c #E2E6E8",
"{. c #E5EAEC",
"}. c #EBEBEC",
"|. c #E4EEF6",
" X c #E8EEF0",
".X c #EEF2F3",
"XX c #F3F4F5",
"oX c #F4F7F8",
"OX c #F6F8F9",
"+X c #FDFDFD",
/* pixels */
"$.$.$.$.$.$.$.$.$.$.$.$.$.$.$.$.$.$.$.$.$.$.$.$.$.$.$.$.$.$.$.$.$.$.$.$.$.$.$.$.$.$.$.$.$.$.$.$.$.$.$.$.$.$.$.$.$.$.$.$.$.$.$.$.$.$.",
"$.$.$.$.$.$.$.$.$.$.$.$.$.$.$.$.$.$.$.$.$.$.$.$.$.$.$.$.$.$.$.$.$.$.$.$.$.$.$.$.$.$.$.$.$.$.$.$.$.$.$.$.$.$.$.$.$.$.$.$.$.$.$.$.$.$.",
"$.$.$.$.$.$.$.$.$.$.$.$.$.$.$.$.$.$.$.$.$.$.$.$.$.$.$.$.$.$.$.$.$.$.$.$.$.$.$.$.$.$.$.$.$.$.$.$.$.$.$.$.$.$.$.$.$.$.$.$.$.$.$.$.$.$.",
"$.$.$.$.$.$.$.$.$.$.$.$.$.$.$.$.$.$.$.$.$.$.$.$.$.$.$.$.$.$.$.$.$.$.$.$.$.$.$.$.$.$.$.$.$.$.$.$.$.$.$.$.$.$.$.$.$.$.$.$.$.$.$.$.$.$.",
"$.$.$.$.$.$.$.$.$.$.$.$.$.$.$.$.$.$.$.$.$.$.$.$.$.$.$.$.$.$.$.$.$.$.$.$.$.$.$.$.$.$.$.$.$.$.$.$.$.$.$.$.$.$.$.$.$.$.$.$.$.$.$.$.$.$.",
"$.$.$.$.$.$.$.$.$.$.$.$.$.$.$.$.$.$.$.$.$.$.$.$.$.$.$.$.$.$.$.$.$.$.$.#.$.$.$.$.$.$.$.$.$.$.$.$.$.$.$.$.$.$.$.$.$.$.$.$.$.$.$.$.$.$.",
"$.$.$.$.$.$.$.$.$.$.$.$.$.$.$.$.$.$.$.$.$.$.$.$.$.$.$.$.$.$.$.$.$.$.$.$.$.$.$.$.$.$.$.$.$.$.$.$.$.$.$.$.$.$.$.$.$.$.$.$.$.$.$.$.$.$.",
"$.$.$.$.$.$.$.$.$.$.$.$.$.$.$.$.$.$.$.$.$.$.$.$.$.$.$.$.$.$.$.$.$.$.$.$.$.$.$.$.$.$.$.$.$.$.$.$.$.$.$.$.$.$.$.$.$.$.$.$.$.$.$.$.$.$.",
"$.$.$.$.$.$.$.$.$.$.$.$.$.$.$.$.$.$.$.$.$.$.$.$.$.$.$.$.$.$.$.$.$.$.$.$.$.$.$.$.$.$.$.$.$.$.$.$.$.$.$.$.$.$.$.$.$.$.$.$.$.$.$.$.$.$.",
"$.$.$.$.$.$.$.$.$.$.$.$.$.$.$.$.$.$.$.$.$.$.$.$.$.$.$.$.$.$.$.$.$.$.$.$.$.$.$.$.$.$.$.$.$.$.$.$.$.$.$.$.$.$.$.$.$.$.$.$.$.$.$.$.$.$.",
"$.$.$.$.$.$.$.$.$.$.$.$.$.$.$.$.$.$.$.$.$.$.%.%.%.$.&.&.$.$.$.$.$.$.$.$.$.$.$.$.$.$.$.$.$.$.$.$.$.$.$.$.$.$.$.$.$.$.$.$.$.$.$.$.$.$.",
"$.$.$.$.$.$.$.$.$.$.$.$.$.$.$.$.$.$.$.#.@.#.@.#.@.@.@.@.@.#.$.$.$.$.$.$.$.$.$.$.$.$.$.$.$.$.$.$.$.$.$.$.$.$.$.$.$.$.$.$.$.$.$.$.$.$.",
"$.$.$.$.$.$.$.$.$.$.$.$.$.$.$.$.%.&.$.@.X.{ { { { ' ' ' ' | O.#.%.$.$.$.$.$.$.$.$.$.$.$.$.$.$.$.$.$.$.$.$.$.$.$.$.$.$.$.$.$.$.$.$.$.",
"$.$.$.$.$.$.$.$.$.$.$.$.$.$.$.#.@.o...` ) c c z h h p h h n ` | O.#.$.$.$.$.$.$.$.$.$.$.$.$.$.$.$.%.$.$.$.$.$.$.$.$.$.$.$.$.$.$.$.$.",
"$.$.$.$.$.$.$.$.$.$.$.$.$.$.$.+.} v > - * & + & & & & & + & : g ) +.$.$.$.$.$.$.$.$.$.$.$.$.$.$.$.$.$.$.$.$.$.$.#.#.$.$.$.$.$.$.$.$.",
"$.$.$.$.$.$.$.$.$.$.$.$.$.%.$...n : X     .                 X & j { @.$.$.$.$.$.$.$.$.$.$.$.+.X.....X.o.o.X.X.O.@.$.$.$.$.$.$.$.$.$.",
"$.$.$.$.$.$.$.$.$.$.$.$.$.%.$.` : o X o o o o o o o O O X o X X * n } #.%.$.$.$.$.$.$.$.@.o.{ / n M M ) ) ) ) ] | O.@.$.$.$.$.$.$.$.",
"$.$.$.$.$.$.$.$.$.$.$.$.$.#.X.n + X o $ 1 w e e w e w e e 1 X . + u _ @.%.$.$.$.$.%.$.X._ v s > : > > a a a > s h v ) ..+.$.$.$.$.$.",
"$.$.$.$.$.$.$.$.$.$.$.$.%.O.' g +   o 1 y K T T T T T Y P r o .   + v O.%.$.$.$.$.$.+._ d + X X . . . o o O o . o o : n | #.$.$.$.$.",
"$.$.$.$.$.$.$.$.$.$.$.$.%.o.m u o   @ 6 G >.g.m.M.M.M.f.,.A o .   o s } +.$.$.$.$.+.{ h + o             . .   . . . + : M @.&.$.$.$.",
"$.$.$.$.$.$.$.$.$.$.$.$.$. .b : o . # 6 I g.I.R.W.R.!.U.g.J o   o   u ` o.$.%.$.$...M -   X O 1 1 1 1 1 1 1 1 $ @ o . o g X.$.$.$.$.",
"$.$.$.$.$.$.$.$.$.$.$.$.#.| x ; X . O 6 T N.R.P.M.M.I.U.N.Y o     o > / X.$.$.%.$.] 8 o o   1 C G F F F F F F V 2 @ . . u _ o.$.$.$.",
"$.$.$.$.$.$.$.$.$.$.$.$.@.| z : o   O 6 T S.R.N.f.i.N.I.S.T o     o : n | $.$.$.+.) & X X   6 T ,.<.9.9.9.<.:.K w $ . . - v } $.$.$.",
"$.$.$.$.$.$.$.$.$.$.$.#.+.{ x : o   O 6 T A.I.z.w.0.z.S.H.T o   o   ; x } $.&.@.| v + X o   6 >.m.G.I.I.I.G.f.Q t 1 . . & g { #.&.$.",
"$.$.$.$.$.$.$.$.$.$.$.#.+.{ z : o   O 9 Y B.G.g.0.0.g.S.N.T o     o ; x | $.%.+.[ h +       r 9.G.G.S.N.G.G.M.=.B , X X & p ' @.$.$.",
"$.$.$.$.$.$.$.$.$.$.$.#.+.{ x ; o   O 5 U M.S.f.9.6.g.M.M.Y O   X   ; x } #.%.+.` p +   .   y t.A.N.h.y.h.N.S.>.V $ X X & p ` +.$.$.",
"$.$.$.$.$.$.$.$.$.$.$.$.+.{ x : o   O 5 U n.A.i.6.6.i.M.n.Y o   X X ; x } $.%.O./ u + . .   r y.S.v.t.6.y.v.G.,.B $ o X & p _ o.#.$.",
"$.$.$.$.$.$.$.$.$.$.$.$.+.{ z : o . O 6 U b.A.i.7.6.y.M.v.Y O   o   ; z | $.%.O.m u .   .   l i.A.k.q.1.0.z.H.<.B $ X X & p _ o.#.$.",
"$.$.$.$.$.$.$.$.$.$.$.#.+.{ x ; o   @ q Y b.A.i.6.6.i.b.M.Y o   .   ; x } $.%.O./ u + .     t y.A.a.7.3.q.v.H.6.V $ o X & p _ o.#.$.",
"$.$.$.$.$.$.$.$.$.$.$.$.+.{ x : o   o q Y n.A.i.6.6.i.b.M.Y o   .   ; x } #.%.O./ i +       B i.Z.a.7.3.q.x.S.1.C 1   X & i _ o.#.$.",
"$.$.$.$.$.$.$.$.$.$.$.#.+.{ z : o   + q Y n.A.i.6.6.y.b.b.Y O   . . ; x } $.%.O./ u +   X   y i.A.h.0.3.q.v.H.3.V =     & s _ X.#.$.",
"$.$.$.$.$.$.$.$.$.$.$.$.+.{ z : .   @ q Y b.A.i.6.6.p.b.v.U o .   o ; x } $.%.O./ u + . .   t i.A.h.0.6.q.x.G.,.l $ o   & s _ o.#.$.",
"$.$.$.$.$.$.$.$.$.$.$.$.+.{ x : o   o q Y n.S.p.6.7.i.b.v.U o   o   ; x | $.%.O./ i +       B g.N.k.t.6.y.v.H.;.l & X X & p _ o.#.$.",
"$.$.$.$.$.$.$.$.$.$.$.#.+.{ z ; o   @ q Y N.H.g.q.7.h.N.A.T +   o X ; x } #.%.O./ u +       l f.S.v.t.6.i.n.U.6.l = X X & p _ o.#.$.",
"$.$.$.$.$.$.$.$.$.$.$.$.+.{ z : o   @ q T S.U.h.q.q.z.H.H.R o     X : x | #.%.O./ i +   .   l j.I.n.y.q.p.N.R.9.Z 1 X X & p ( o.#.$.",
"$.$.$.$.$.$.$.$.$.$.$.$.+.{ x : o   @ q T I.T.v.y.y.b.I.I.R o   X X ; b | $.%.O./ u o   .   V j.R.N.f.y.k.S.W.9.V < X X & i _ o.#.$.",
"$.$.$.$.$.$.$.$.$.$.$.$.+.{ z : o   + 6 R T.Q.n.f.i.N.T.R.! o   X X ; b | #.%.O./ i +       V B.~.H.k.y.z.I.~.w.Z , . . & p _ o.#.$.",
"$.$.$.$.$.$.$.$.$.$.$.#.+.{ z > +   @ q ! W.^.S.k.h.A.Q.^.=.$   o X ; x } $.%.O./ u +       Z B._.I.v.g.M.T.).y.Z 1 . . & p _ o.#.$.",
"$.$.$.$.$.$.$.$.$.$.$.$.+.{ x : o   @ e ^ ).'.H.v.h.S.^.{.9.w @     * h } %.&.+./ i +   .   V P.[.R.N.h.N.Q. Xh.S 1 o   & p ( o.#.$.",
"$.$.$.$.$.$.$.$.$.$.$.$.+.} z > o   @ r :.[.{.U.M.m.G.).}.i.V $   o & p ` +.@. ./ u +       A Y.|.~.S.z.S._..Xv.D 1     & i ( o.#.$.",
"$.$.$.$.$.$.$.$.$.$.$.#.+.{ z : o   @ y >.[.XXW.N.M.P.].XXj.A < X   + > v ` ] ) h : o .     A !.oX`.G.M.U.`.XXm.F 1     & u m } @.$.",
"$.$.$.$.$.$.$.$.$.$.$.$.+.{ z > + X @ e =.].OX_.U.N.Y.`.XXB.T 5   o + - a g k s > * o X     A /.+X'.U.B.R.{.OXm.F 1 o o + : s n { X.",
"$.$.$.$.$.$.$.$.$.$.%.#.+.} b a $ o O 5 ! ].+X{.R.G.Y.].OX/.w.V o o $ $ # + + + # < < o X   A /.+X}.W.I.~.}.OXm.F 1 o o $ o o - j M ",
"$.$.$.$.$.$.$.$.$.$.$.$.+.} n u $ o O $ I `.+XoX/.Y.!.`.OXXXY.:.y $   o X . . . . o o X X   A /.+X.X^.Y.`..X+Xm.J 2 o o o X X o - 8 ",
"$.$.$.$.$.$.$.$.$.$.$.#.+.| m i # < < o G !.OXOX}./.^.[.OX+XXXB.:.t 1 4 4 3 4 1 < < 2 2 3 < L /.+XoX`.^.].XX+XB.W B 4 4 1 1 < $ $ $ ",
"$.$.$.$.$.$.$.$.$.$.$.$.#.| m p * o < o A z.].+XOX}.`.[.XX+X+X}.!.z.9.~ T I T I I I I Y T T 9.].+X+X}.`.}.OX+X!.w.:.T I U K t $ @ @ ",
"$.$.$.$.$.$.$.$.$.$.$.$.#. .m g > = o o B <.Y.+X+X+X.X{..XoX+X+X+XXX].P.m.z.j.j.j.j.z.m.m.m.Y.XX+X+X}.].XXOX+X].Y.B.B.z.j.9.J < @ $ ",
"$.$.$.$.$.$.$.$.$.$.$.$.$.o./ z p : < o w R m.OX+X+XOXXXXXoX+X+X+X+XOXXX}.}.}.}.}.}.}.}.}.}.XX+X+X+XXX}.XX+X+XXXXXXX}.}._.B.T < $ , ",
"$.$.$.$.$.$.$.$.$.$.$.$.$.O.( b z : < < 1 V 9.].OX+X+X+XOXOX+X+X+X+X+X+X+X+X+X+X+X+X+X+X+X+X+X+X+X+XXXXX+X+X+X+X+X+X+X+XXX!.! < $ 1 ",
"$.$.$.$.$.$.$.$.$.$.$.$.$.+.[ / z > # < < 5 I B.].+X+X+X+X+X+X+X+X+X+X+X+X+X+X+X+X+X+X+X+X+X+X+X+X+X+X+X+X+X+X+X+X+X+X+XXX!.! < $ 1 ",
"$.$.$.$.$.$.$.$.$.$.$.$.$.+.} ( x s 7 2 < < V ~ P.OX+X+X+X+X+X+X+X+X+X+X+X+X+X+X+X+X+X+X+X+X+X+X+X+X+X+X+X+X+X+X+X+X+X+XXX!.~ 1 $ 1 ",
"$.#.$.$.$.$.$.$.$.$.$.$.$.#. .` b h s 7 1 1 5 V <.Y.}.XX+X+X+X+X+X+X+X+X+X+X+X+X+X+X+X+X+X+X+X+X+X+X+X+XOX+X+X+X+X+X+X+XXX!.~ 4 = 1 ",
"$.$.$.$.$.$.$.$.$.$.$.$.$.$.O.[ b x h 8 2 < 1 5 V T f.!.XX+X+X+X+X+X+X+X+X+X+X+X+X+X+X+X+X+X+X+XOXOXXXXXXXXX+X+X+X+X+X+XXX!.~ 4 , 1 ",
"$.$.$.$.$.$.$.$.$.$.$.$.$.$.#.} m b x s 7 1 1 1 < q I 9.B.!./.].XXXX+X+X+X+X+X+X+X+X+X+X+X+X+X+XOX.X}.].{.}.+X+X+X+X+X+XXXY.! 2 1 2 ",
"$.$.$.$.$.$.$.$.$.$.$.$.$.$.$.o.` / b h d 7 1 2 2 2 w V F W 9.m.Y.`.XX+X+X+X+X+X+X+X+X+X+X+X+X+XXX'._./.`.'.OX+X+X+X+XOX{.B.R 4 1 2 ",
"$.$.$.$.$.$.$.$.$.$.$.$.$.$.$.+.| _ x z h d 7 9 2 2 1 2 5 V J T ~ <.w.f.j.f.j.j.j.f.j.j.j.f.B.XXoX`.!.I.W.'.OX{.I.m.f.f.0.~ F 5 2 5 ",
"$.$.$.$.$.$.$.$.$.$.$.$.$.$.$.#.O.' n b x z j d 7 2 5 5 5 5 q q w w w e e w e e e e e r e w T /.oX).P.A.T.[.OXI.~ A w w w q 6 4 5 5 ",
"$.$.$.$.$.$.$.$.$.$.$.$.$.$.$.$.#.| _ m b x x h f d 9 5 5 4 4 1 1 1 3 1 3 1 1 1 1 1 1 1 1 $ J /.oX(.A.z.H._.oXB.I r 1 1 1 3 4 5 5 5 ",
"$.$.$.$.$.$.$.$.$.$.$.$.$.$.$.$.$.O.} ( b b b x z k d 0 9 9 9 5 5 5 5 5 4 5 5 5 5 5 5 5 4 1 L ^..XQ.M.k.A.(.oXm.J w 5 4 5 9 5 9 0 0 ",
"$.$.$.$.$.$.$.$.$.$.$.$.$.$.$.$.$.#.+.{ ( b b b b x c k j f d d 0 9 9 5 4 5 5 5 4 5 5 5 4 1 J T.'.K.l.y.c.E.|.v.J w 5 5 5 9 0 d j h ",
"$.$.$.$.$.$.$.$.$.$.$.$.$.$.$.$.$.$.$.o.{ ( m b b x b x x z h j f f d d 0 0 0 0 0 0 5 5 5 1 K Z.(.Z.d.r.d.K.'.k.J e 5 5 9 d f k x x ",
"$.$.$.$.$.$.$.$.$.$.$.$.$.$.$.$.$.$.$.#.O.} ` / n b x b x b z x x z z z c c z v z f 9 5 6 3 G C.L.C.t.7.u.Z.(.y.D w 5 4 0 j c v x b ",
"$.$.$.$.$.$.$.$.$.$.$.$.$.$.$.$.$.$.$.$.#.+. .} ' / m b x x b b b b b b b b b b b k 5 5 5 2 D l.J.l.e.1.r.V.T.t.D w 5 4 0 k c b b b ",
"$.$.$.$.$.$.$.$.$.$.$.$.$.$.$.$.$.$.$.$.$.$.$.#.o.} ` / m b b b b b b b b b b b b j 9 5 5 2 D s.Z.d.;.^ e.d.J.0.D w 5 4 0 k x b b b ",
"$.$.$.$.$.$.$.$.$.$.$.$.$.$.$.$.$.$.$.$.$.$.$.$.#.+.o.| { [ ` ( / m b x x x x x b h 7 5 4 2 D u.c.u.;.*.e.l.D.e.D e 4 4 0 j M _ ` [ ",
"$.$.$.$.$.$.$.$.$.$.$.$.$.$.$.$.$.$.$.$.$.$.$.$.$.$.$.#.+.o. .} [ ` ( / / / / / b h 0 5 5 1 D u.V.u.;.*.;.l.D.;.S w 5 5 0 k ) } o.O.",
"$.$.$.$.$.$.$.$.$.$.$.$.$.$.$.$.$.$.$.$.$.$.$.$.$.$.$.$.$.#.@.+.+.O.O.o.o.o.O.| / j 9 4 5 2 D u.V.s.;.*.e.l.F.e.D e 5 4 0 k _ X.@.#.",
"$.$.$.$.$.$.$.$.$.$.$.$.$.$.$.$.$.$.$.$.$.$.$.$.$.$.$.$.$.$.$.%.$.%.%.%.%.%.%.O./ j 5 5 5 1 S u.C.s.e.;.e.d.D.e.S 6 5 3 9 k ` o.#.$.",
"$.$.$.$.$.$.$.$.$.$.$.$.$.$.$.$.$.$.$.$.$.$.$.$.$.$.$.$.$.$.$.$.$.$.$.$.$.$.%.o./ s 9 4 4 < Z u.Z.s.7.1.e.l.D.5.S q 1 1 7 k _ o.#.$.",
"$.$.$.$.$.$.$.$.$.$.$.$.$.$.$.$.$.$.$.$.$.$.$.$.$.$.$.$.$.$.$.$.$.$.$.$.$.$.%.O./ s 2 3 2 < C u.Z.C.u.r.u.V.D.;.C 6 1 1 7 j ` o.#.$.",
"$.$.$.$.$.$.$.$.$.$.$.$.$.$.$.$.$.$.$.$.$.$.$.$.$.$.$.$.$.$.$.$.$.$.$.$.$.$.%.O.( s 2 < 1 < V 5.Z.D.c.d.C.Z.C.*.B 6 1 , 7 g ` o.#.$.",
"$.$.$.$.$.$.$.$.$.$.$.$.$.$.$.$.$.$.$.$.$.$.$.$.$.$.$.$.$.$.$.$.$.$.$.$.$.$.$.O./ s 2 < = # t >.d.Z.F.Z.Z.c.u.E B 6 % % - g _ o.#.$.",
"$.$.$.$.$.$.$.$.$.$.$.$.$.$.$.$.$.$.$.$.$.$.$.$.$.$.$.$.$.$.$.$.$.$.$.$.$.$.$.O.( s - = & + q U -.2.r.u.7.1.E K y 5 % # - g ` o.#.$.",
"$.$.$.$.$.$.$.$.$.$.#.$.$.$.$.$.$.$.$.$.$.$.$.$.$.$.$.$.$.$.$.$.$.$.$.$.$.$.$.O./ s - $ < $ < q e e y t y r 6 6 , % % # : h ` o.#.$.",
"$.$.$.$.$.$.$.$.$.$.$.$.$.$.$.$.$.$.$.$.$.$.$.$.$.$.$.$.$.$.$.$.$.$.$.$.$.$.%.O./ h > < o o + o o o o o o o o o o O # = u x ' o.#.$.",
"$.$.$.$.$.$.$.$.$.$.$.$.$.$.$.$.$.$.$.$.$.$.$.$.$.$.$.$.$.$.$.$.$.$.$.$.$.$.%.O./ h s - o X o + o o o $ $ + o . o O = 8 p x ' o.#.$.",
"$.$.$.$.$.$.$.$.$.$.$.$.$.$.$.$.$.$.$.$.$.$.$.$.$.$.$.$.$.$.$.$.$.$.$.$.$.$.%.O._ v h u * + + . X X o o X X   o + = > g z b [ +.$.$.",
"$.$.$.$.$.$.$.$.$.$.$.$.$.$.$.$.$.$.$.$.$.$.$.$.$.$.$.$.$.$.$.$.$.$.$.$.$.$.%.+.' / b h p : * + o + + + + + + & ; u g x b b { #.$.$.",
"$.$.$.$.$.$.$.$.$.$.$.$.$.$.$.$.$.$.$.$.$.$.$.$.$.$.$.$.$.$.$.$.$.$.$.$.$.$.$.+.} ( b x z h p i p p p p s p p p h h x x b (  .#.$.$.",
"$.$.$.$.$.$.$.$.$.$.$.$.$.$.$.$.$.$.$.$.$.$.$.$.$.$.$.$.$.$.$.$.$.$.$.$.$.$.%.+.| _ b b b b b b b b b b n m m b b b b x / `  .#.#.#."
};
