/* XPM */
static  xpm_row_t const number2resize[] = {
/* columns rows colors chars-per-pixel */
"64 80 226 2",
"   c #0E0C0D",
".  c #0F140F",
"X  c #100E10",
"o  c #131313",
"O  c #161718",
"+  c #141A14",
"@  c #171818",
"#  c #181718",
"$  c #181817",
"%  c #1A1B1B",
"&  c #162316",
"*  c #172C17",
"=  c #1C221C",
"-  c #1A2C1A",
";  c #1A341A",
":  c #1B3B1B",
">  c #1F2021",
",  c #1F2D20",
"<  c #201F1F",
"1  c #211F21",
"2  c #232424",
"3  c #272728",
"4  c #232B23",
"5  c #272829",
"6  c #292629",
"7  c #282A27",
"8  c #2B2B2B",
"9  c #2F2F30",
"0  c #233423",
"q  c #243B24",
"w  c #2B352B",
"e  c #2B3C2B",
"r  c #2F3131",
"t  c #333334",
"y  c #353738",
"u  c #373A3C",
"i  c #3A3D3E",
"p  c #3B3F40",
"a  c #1D431D",
"s  c #1E4C1E",
"d  c #1F501F",
"f  c #244424",
"g  c #224C22",
"h  c #2A432A",
"j  c #294B29",
"k  c #225422",
"l  c #245C24",
"z  c #295329",
"x  c #2B5B2B",
"c  c #304630",
"v  c #37403E",
"b  c #314B31",
"n  c #335533",
"m  c #3C5B3D",
"M  c #256325",
"N  c #256D25",
"B  c #286328",
"V  c #2A6B2A",
"C  c #267226",
"Z  c #2A742A",
"A  c #2A7C2A",
"S  c #306331",
"D  c #346A34",
"F  c #317731",
"G  c #327E32",
"H  c #397439",
"J  c #3B7E3B",
"K  c #3D4142",
"L  c #424445",
"P  c #454748",
"I  c #454A4C",
"U  c #4B4B4C",
"Y  c #464D52",
"T  c #4C4F50",
"R  c #4E5253",
"E  c #525456",
"W  c #545658",
"Q  c #545857",
"!  c #55585A",
"~  c #5A5C5D",
"^  c #555D61",
"/  c #5C5E60",
"(  c #516555",
")  c #576066",
"_  c #5D6365",
"`  c #5D6569",
"'  c #616464",
"]  c #62676A",
"[  c #65696C",
"{  c #6A6C6D",
"}  c #626D73",
"|  c #696F72",
" . c #66747B",
".. c #6D7171",
"X. c #6A757C",
"o. c #727373",
"O. c #727679",
"+. c #75797C",
"@. c #7A7C7D",
"#. c #6C7B84",
"$. c #727E84",
"%. c #2C822C",
"&. c #2E892E",
"*. c #328432",
"=. c #348C34",
"-. c #3C833C",
";. c #3B8E3B",
":. c #329332",
">. c #359A35",
",. c #3C953C",
"<. c #399C39",
"1. c #37A337",
"2. c #3AA43A",
"3. c #3BAB3B",
"4. c #3DB33D",
"5. c #419E41",
"6. c #40A340",
"7. c #43AD43",
"8. c #42B342",
"9. c #42BC42",
"0. c #43C343",
"q. c #46CD46",
"w. c #48C648",
"e. c #49CD49",
"r. c #47D047",
"t. c #49D549",
"y. c #4BDC4B",
"u. c #4EE44E",
"i. c #4FE94F",
"p. c #738087",
"a. c #73828B",
"s. c #7C8184",
"d. c #7B868C",
"f. c #778790",
"g. c #778891",
"h. c #7B8A93",
"j. c #858787",
"k. c #828789",
"l. c #848A8D",
"z. c #898C8D",
"x. c #858E93",
"c. c #808F98",
"v. c #8A8E91",
"b. c #869197",
"n. c #84939C",
"m. c #8C9295",
"M. c #8A969D",
"N. c #8D999F",
"B. c #939597",
"V. c #929799",
"C. c #959A9C",
"Z. c #9A9D9E",
"A. c #8597A1",
"S. c #8C9BA4",
"D. c #8C9DA8",
"F. c #939FA5",
"G. c #909FA8",
"H. c #9B9FA1",
"J. c #8FA1AB",
"K. c #93A0A6",
"L. c #93A2AB",
"P. c #9DA1A4",
"I. c #9CA5AA",
"U. c #9FA8AD",
"Y. c #96A7B0",
"T. c #96A8B2",
"R. c #9BABB4",
"E. c #9CAFB9",
"W. c #9EB2BC",
"Q. c #A2A4A5",
"!. c #A1A7AA",
"~. c #A4AAAD",
"^. c #A9ABAB",
"/. c #A6ADB2",
"(. c #ABAFB1",
"). c #A1B0A5",
"_. c #A2B3BD",
"`. c #ACB1B4",
"'. c #ADB5B9",
"]. c #AFB8BC",
"[. c #B1B3B4",
"{. c #B2B6B8",
"}. c #B4BABD",
"|. c #BABCBD",
" X c #A4B6C0",
".X c #A6B8C3",
"XX c #AABBC5",
"oX c #ACBEC8",
"OX c #B5BDC1",
"+X c #BABFC2",
"@X c #AFC1CB",
"#X c #B2C2CB",
"$X c #BCC2C4",
"%X c #BAC3C9",
"&X c #B5C7D1",
"*X c #BCC9D1",
"=X c #C1C3C4",
"-X c #C2C6C9",
";X c #C4C9CC",
":X c #C9CCCD",
">X c #C6CED2",
",X c #CACED0",
"<X c #C3D2DB",
"1X c #CDD2D4",
"2X c #C8D5DD",
"3X c #D2D4D5",
"4X c #D3D7D9",
"5X c #D6DADC",
"6X c #DADCDE",
"7X c #D0DCE4",
"8X c #D3DFE8",
"9X c #DBDFE1",
"0X c #D6E2EB",
"qX c #DEE0E2",
"wX c #DEE6EB",
"eX c #E2E3E4",
"rX c #E2E6E8",
"tX c #E6E8EA",
"yX c #EBECED",
"uX c #E5EEF4",
"iX c #EBEFF0",
"pX c #EEF0F1",
"aX c #F3F5F5",
"sX c #F6F7F8",
"dX c #F6F8F9",
"fX c #FDFDFE",
/* pixels */
"u.u.u.u.u.u.u.u.u.u.u.u.u.u.u.u.u.u.u.u.u.u.u.u.u.u.u.u.u.u.u.u.u.u.u.u.u.u.u.u.u.u.u.u.u.u.u.u.u.u.u.u.u.u.u.u.u.u.u.u.u.u.u.u.",
"u.u.u.u.u.u.u.u.u.u.u.u.u.u.u.u.u.u.u.u.u.u.u.u.u.u.u.u.u.u.u.y.u.u.u.u.u.u.u.u.u.u.u.u.u.u.u.u.u.u.u.u.u.u.u.u.u.u.u.u.u.u.u.u.",
"u.u.u.u.u.u.u.u.u.u.u.u.u.u.u.u.u.u.u.u.u.u.u.u.u.u.u.u.u.u.u.u.u.u.u.u.u.u.u.u.u.u.u.u.u.u.u.u.u.u.u.u.u.u.u.u.u.u.u.u.u.u.u.u.",
"u.u.u.u.u.u.u.u.u.u.u.u.u.u.u.u.y.u.u.u.u.u.u.u.u.u.u.u.u.u.u.u.u.u.u.u.u.u.u.u.u.u.u.u.u.u.u.u.u.u.u.u.u.u.u.u.u.u.u.u.u.u.u.u.",
"u.u.u.u.u.u.u.u.u.u.u.u.u.u.u.y.u.u.u.u.u.u.u.u.u.u.u.u.u.u.u.u.u.u.u.u.u.u.u.u.u.u.u.u.u.u.u.u.u.u.u.u.u.u.u.u.u.u.u.u.u.u.u.u.",
"u.u.u.u.u.u.u.u.u.u.u.u.u.u.u.u.u.u.u.u.u.u.u.u.u.u.u.u.u.u.u.u.u.u.u.u.u.u.u.u.u.u.u.u.u.u.u.u.u.u.u.u.u.u.u.u.u.u.u.u.u.u.u.u.",
"u.u.u.u.u.u.u.u.u.u.u.u.u.u.u.u.u.u.u.u.u.u.u.u.u.u.u.u.u.u.u.u.u.u.u.u.u.u.u.u.u.u.u.u.u.u.u.u.u.u.u.u.u.u.u.u.u.u.u.u.u.u.u.u.",
"u.u.u.u.u.u.u.u.u.u.u.u.u.u.u.u.u.u.u.u.u.u.u.u.u.u.u.u.u.u.u.u.u.u.u.u.u.u.u.u.u.u.u.u.u.u.u.u.u.u.u.u.y.u.u.u.u.y.u.u.u.u.u.u.",
"u.u.u.u.u.u.u.u.u.u.u.u.u.u.u.u.u.u.u.u.u.u.u.u.u.u.u.u.u.u.u.u.u.u.u.u.u.u.u.u.u.u.u.u.u.u.u.u.u.u.u.u.u.u.u.u.u.u.u.u.u.u.u.u.",
"u.u.u.u.u.u.u.u.u.u.u.u.u.u.u.u.u.u.u.u.u.u.u.u.u.u.u.u.u.u.u.u.u.u.u.u.u.u.u.u.u.u.u.u.u.u.u.u.u.u.u.u.u.u.u.u.u.u.u.u.u.u.u.u.",
"u.u.u.u.u.u.u.u.u.u.u.u.u.u.u.u.u.u.u.u.u.u.i.i.i.i.i.i.u.i.u.i.i.i.u.u.i.i.i.u.i.i.u.i.u.u.u.u.u.u.u.u.u.u.u.u.u.u.u.u.u.u.u.u.",
"u.u.u.u.u.u.u.u.u.u.u.u.u.u.u.u.u.u.u.u.u.y.y.t.t.t.t.t.t.t.t.t.t.y.t.t.t.t.t.t.t.t.t.t.y.y.u.y.y.u.u.u.u.u.u.u.u.u.u.u.u.u.u.u.",
"u.u.u.u.u.u.u.u.u.u.u.u.u.u.u.u.u.i.i.u.t.0.4.2.2.1.>.<.2.2.2.2.2.2.2.2.>.>.2.2.6.2.2.6.4.0.e.t.u.i.i.i.u.u.u.u.u.u.u.u.u.u.u.u.",
"u.u.u.u.u.u.u.u.u.u.u.u.u.u.u.u.u.t.0.4.<.*.Z B B M l l B B B B B B B B l l x B B B B V Z *.=.<.3.8.0.q.t.y.u.i.u.u.u.u.u.u.u.u.",
"u.u.u.u.u.u.u.u.u.u.u.u.u.u.u.u.y.8.G g - * & & & & % & % & & & & & & % % & & & & & & & & - - - : g V =.4.q.u.u.u.u.u.u.u.u.u.u.",
"u.u.u.u.u.u.u.u.u.u.u.u.u.u.u.u.t.*.a o   X           X             X   X       X               X + ; g B *.4.w.t.y.u.u.u.u.u.u.",
"u.u.y.u.u.u.u.u.u.u.u.u.u.u.u.u.q.M o o o o o o $ o $ o $ o # $ o # # o o # o # # o # o o # # X o o + + + ; B *.4.t.u.u.u.u.u.u.",
"u.u.u.u.u.u.u.u.u.u.u.u.u.u.u.0.>.a X X # 5 t u y y t y t t t y y t t t t t y y t t t t 9 6 1 # X       X + - f B 2.e.u.u.u.u.u.",
"u.u.u.u.u.u.u.u.u.u.u.u.u.i.u.4.M * . X 2 K ! ] { { { [ [ [ [ { { [ [ [ { [ { { { { [ ] ' ~ T L 9 2 % # o o X X & B 2.e.u.u.u.u.",
"u.u.u.u.u.u.u.u.u.u.u.u.u.u.y.<.d & .   5 E @.Z.(.{.{.{.{.{.{.{.{.{.{.{.{.{.{.{.{.{.{.[.[.(.^.Z.j.[ E t o   X o o * l <.e.u.u.u.",
"u.u.u.u.u.u.u.u.u.u.u.u.u.u.t.:.a & . o 5 ! m.$X,X1X,X,X:X:X:X:X,X,X,X,X,X,X,X,X,X,X,X,X,X,X,X:X|.P.z.{ L 8 % o X X * B 2.r.y.u.",
"u.u.u.u.u.u.u.u.u.u.u.u.u.y.q.=.a + X   5 W C.;X-X|.[.`.`.`.`.`.(.(.(.(.`.`.(.(.(.[.[.[.[..XOX|.$X=X-X{.B.] u % X X o & B 3.t.y.",
"u.u.u.u.u.u.u.u.u.u.u.u.u.t.0.%.a &   o 6 W C.,X+X^.H.Z.Z.Z.Z.Z.H.H.H.H.H.Z.Z.Z.Z.H.Z.H.H.H.!.~.[.|.-X-X{.C.{ i % o X X ; Z 9.y.",
"u.u.u.u.u.u.u.u.u.u.u.u.i.t.4.A a & o X 6 W C.;X}.P.V.m.B.B.B.B.m.B.B.B.B.B.B.B.B.B.B.B.B.C.B.C.C.H.~.{.=X$XQ.{ t % X o o : <.y.",
"u.u.u.u.u.u.u.u.u.u.u.u.u.t.4.A a & . . 5 E V.;X$X`.I.H.P.P.H.H.H.H.P.P.P.P.P.P.P.P.P.H.H.C.B.m.V.V.C.Q./.+X}.C.[ w o o X & V 1.",
"u.u.u.u.u.u.u.u.u.u.u.u.u.t.4.A a + .   5 W v.}.$X}.'.`.`.`.`.`.(.[.`.`.'.`.`.`.`.'.`.(.~.!.P.Z.M.m.z.z.C./.}.}.M.U > o X o a x ",
"u.u.u.u.u.u.u.u.u.u.u.u.u.t.4.A a &   . 5 E s.P.(.|.}.OX}.OX}.}.+X+X+XOXOXOXOX+X+X+X+X+X+X+XOX~.P.M.m.b.z.H.~.}./.| u O X o & ; ",
"u.u.u.u.u.u.u.u.u.u.u.u.i.t.4.A a & X X > p W [ +.$.k.k.l.l.l.k.k.l.k.l.k.l.l.l.l.l.x.m.C.I.!.(.~.I.m.b.b.z.C.'.}.x.W > X o o o ",
"u.u.y.u.u.u.u.u.u.u.u.u.u.t.4.A s & .   o # % 2 2 3 2 7 3 3 3 2 5 2 5 5 6 1 6 6 6 6 6 r K ~ 5.Q.'.`.K.b.l.z.B.!.'.!.O.8 o . o o ",
"u.u.u.u.u.u.u.u.u.u.u.u.u.r.4.&.d ; + . o X .                                         X # 9 E ' V.{.!.M.l.k.x.F./.{.l.i % o X X ",
"u.u.u.u.u.u.u.u.u.u.u.u.u.t.4.:.C s * & o o X . X X X o . o X o X X o o o X X X X X X X # # . = ..`./.K.x.d.d.M.^.}.C.R 5 o . o ",
"u.u.u.u.u.u.u.u.u.u.u.u.u.y.0.>.C M d a * + o X X X X X   X X X X X X X X X X X X # X X X X   + T b.~.~.B.k.d.b.U.%XI./ r o X X ",
"u.u.u.u.u.u.u.u.u.u.u.u.u.y.r.1.C C C d s ; * & & * & * & & & & & + + + + + + + . + + + + . X o v O.!.'.C.h.d.b.I.%X~.] t o o o ",
"u.u.u.u.u.u.u.u.u.u.u.u.u.u.y.4.%.C C N M l d k d l d d l l d k g a : : : : : : : : : * * . X o i ..~.}.C.z.l.m.U.;X`.[ t o X X ",
"u.u.u.u.u.u.u.u.u.u.u.u.u.i.u.0.1.%.C C N N N C C C C C N M k d a : : ; ; ; ; ; ; ; ; * & +   o K $.`.OXP.v.z.V.^.>X'.[ t o . X ",
"u.u.u.u.u.u.u.u.u.u.u.u.u.u.u.t.9.>.%.C N C C C C C C M s a * & + + + . + + . . + o + + . X . o W M.].OXP.m.m.H.'.1X'.' t o X o ",
"u.u.u.u.u.u.u.u.u.u.u.u.u.u.u.y.r.0.3.:.%.A Z C N l s a ; & + o X X X X         X           O y s.$X%X'.P.V.C.!.+X5X'.( 0 o . X ",
"u.u.u.u.u.u.u.u.u.u.u.u.u.u.u.u.u.u.t.9.1.:.%.N d a * . o X X X o o $ # + + % % # % % % % % i | '.7X;X`.P.H.P.{.>X5X).m * o X o ",
"u.u.u.u.u.u.u.u.u.u.u.u.u.u.u.u.u.i.u.t.r.q.>.B : & .   X .     o 8 y v L L K I P L P P ! O.F.$X4X5X$X/.I.I./.;X5X1Xm.e . o o X ",
"u.u.u.u.u.u.u.u.y.u.u.u.u.u.u.u.u.u.u.i.y.w.*.a &   . . # < 7 t U { @.s.j.z.z.b.z.z.z.v.P.=X9XpX9X-X{./.U.`.+X9XwX+XO.= . o o o ",
"u.u.u.y.u.u.u.u.u.u.u.u.u.u.u.u.u.u.u.i.9.V q & o X X # 8 T o.H.=X3X6X6XeXeXeXeXeXeXeXeXrXrXrX9X,X|.{.`.`.=X4XpXtXZ.Q = o o & * ",
"u.u.u.u.u.u.u.u.u.u.u.u.u.u.u.u.u.i.u.9.*., # X . # 8 T @.H.=XeXaXfXfXfXdXdXaXaXaXaXaXaXpXtX5X,X$X|.|.+X;X6XyXyX-X..t % o + * a ",
"u.u.u.u.u.u.u.u.u.u.u.u.u.u.u.u.u.u.q.G g & o o o 8 ( H.eXaXaXdXsXiXyXtXrX9X9X9X6X5X6X4X3X,X;X=X$X=X-X1XwXaXaX:Xz.K $ + o % a k ",
"u.u.u.u.u.u.u.u.u.u.u.u.u.u.u.u.y.q.>.d = + o # i o.[.6XdXfXsXpXtX9X6X6X4X3X4X1X1X3X1X,X,X:X:X:X3X6XeXyXdXsX6XB.Q 7 o o % - g M ",
"u.u.u.u.u.u.u.u.u.u.u.u.u.u.u.i.y.6.S , # % % t O.|.yXfXfXaXtXeX6X5X3X3X6X3X4X4X4X4X4X4X4X4X5XeXyXsXdXfXaX3XQ.~ 3 < # # * a l C ",
"u.u.u.u.u.u.u.u.u.u.u.u.u.u.u.i.y.G 0 < o # u o.|.yXfXfXaXpXtXrXtXiXpXpXpXpXpXpXpXpXpXpXpXpXaXaXdXfXfXyX=Xj.U 8 # $ < < a M N C ",
"u.u.u.u.u.u.u.u.u.u.u.u.u.u.u.y.9.x % # % 7 [ [.eXfXfXdXaXpXpXpXaXfXfXfXfXfXfXfXfXfXfXfXfXfXfXaXyXeX3X[.@.P < o # % = ; d C C Z ",
"u.u.u.u.u.u.u.u.u.u.u.u.u.u.u.9.*.f # # 6 U Z.yXfXfXfXfXfXfXdXfXfXfXfXfXfXfXfXfXfXfXfXfXfXaXtX3X|.B...U t 2 $ $ # = ; g M C %.&.",
"u.u.u.u.u.u.u.u.u.u.u.u.u.u.y.2.k , < $ i @.=XfXfXfXfXfXfXfXfXfXpX6X:X|.[.^.^.^.^.^.^.^.^.H.B.j.o.Q t 2 # # < = - q g M N C &.1.",
"u.u.u.u.u.u.u.u.u.u.u.u.u.u.t.=.0 , < $ U ^.6XfXfXfXfXfXfXfXaXrX=XQ.@.~ L t t t 9 9 w t 8 9 9 9 8 3 2 1 = 1 = ; s l N C N A 3.0.",
"u.u.u.u.u.u.u.u.u.u.u.u.i.t.9.F , 1 < < ' :XsXfXfXfXfXfXfXpX3XB.{ Q L t < < < # % # % # % # % % < < < 1 , 4 q k l N N C %.:.0.y.",
"u.u.u.u.u.u.u.u.u.u.u.u.u.t.2.S 2 < 1 6 o.yXfXfXfXfXfXfXaX3XB.P < < 2 2 < < 2 2 2 2 2 1 1 3 2 2 1 4 4 , 0 g x N C C C C :.4.r.u.",
"u.u.u.y.u.u.u.u.u.u.u.u.i.w.=.z 2 < 8 U B.pXfXfXfXfXfXfXyXC.U 6 < < < < 1 1 2 2 6 6 < 1 2 2 4 0 q f g k l B N N N N A &.4.r.u.u.",
"u.u.u.u.u.u.u.u.u.u.u.u.u.0.A f 3 < 9 ~ Q.pXfXfXfXfXfXaX3Xo.1 1 6 7 4 0 0 0 0 q e q 0 0 q q f g z x M N C C C C C %.:.4.q.u.u.u.",
"u.u.u.u.u.u.u.u.u.u.u.u.y.9.Z f 7 2 9 Q H.pXfXfXpXaXfXrX[.( 6 2 7 e h l M M M N M N B M N M N B N N N N C C C A &.3.0.t.u.u.u.u.",
"u.u.u.u.u.u.u.u.u.u.u.u.t.4.V f 7 2 t E H.pXfXpXtXtXdX6XC.E 6 6 w h z M C C C C C C C C C C N C N C C C C %.&.>.4.q.y.u.u.u.u.u.",
"u.u.u.u.u.u.u.u.u.u.i.y.r.3.V a , 2 t E Z.yXdXwX5XqXdX1Xd.Y 8 8 w j l N N N N N N N C N C N C C N Z V Z A :.3.w.u.y.y.y.i.u.u.u.",
"u.u.u.u.u.u.u.u.u.u.i.y.r.2.V f 4 7 t T B.pXpX7X>X6XdX>X$.Y 8 5 w j x l z M l B B B x B M B V Z Z Z F G =.,.2.7.9.9.w.t.y.i.u.u.",
"u.u.u.u.u.u.u.u.u.u.u.y.q.2.V h 0 5 t U B.yXyX1X;X4XaX>X$.Y 8 8 w h j j j j j j j j j j j l x n S D H H J J J J -.-.,.7.w.t.u.u.",
"u.u.u.u.u.u.u.u.u.u.i.y.r.3.V j 7 6 t U B.rX0X;X$X>XuX*X#.I 8 8 w w w w w w w w w w w 9 w w w w e e e c c c c c c c b n H 5.e.u.",
"u.u.u.u.u.u.u.u.u.u.u.y.q.3.N h 8 8 t U x.8X7XOX'.#X0X#X#.I 8 5 8 8 5 8 8 8 8 8 8 8 6 8 6 6 6 9 9 8 8 6 8 6 6 6 8 6 6 8 e D 7.y.",
"u.u.u.u.u.u.u.u.u.u.u.u.r.2.V h 8 8 t L k.2X<X.XR.'.2XXXa.Y 8 8 8 8 8 8 8 8 8 8 8 8 8 8 8 9 9 t y t 9 8 8 8 8 8 8 8 8 8 9 c ;.9.",
"u.u.u.u.u.u.u.u.u.u.u.y.e.2.V h 8 8 9 U $.*X&XR.G.I.oXXXS.} Y K L i K K L L L i p p p p p p p P P P L K K K p L L L i 8 8 9 D ;.",
"u.u.u.u.u.u.u.u.u.u.u.y.r.3.C h 8 6 9 U $.oXoXL.A.S.R..X_.A.X.[ ` ` / / ' ' ' ' ' / ` ` ` ` ` ` ` ] ] ] ] ] [ [ ] / U t 6 w j x ",
"u.u.u.u.u.u.u.u.u.u.u.y.r.3.V h 8 6 t L O.XX.XD.c.h.A.D.L.J.J.J.J.J.J.D.S.D.D.D.S.S.D.K.K.J.D.K.K.L.K.L.I.L.I.L.n.$.! t 5 8 e j ",
"u.u.u.u.u.u.u.u.u.u.u.u.r.2.S h w 8 9 i X.XX_.A.d.p.g.a.d.S.W..X.X@X X X X X.XoX.X.XXXXXoXXXoX@X@X@X@X#X#X#X#X#X_.h.) t 5 8 w f ",
"u.u.u.u.u.u.u.u.u.u.u.u.q.2.V h 8 8 9 p X..X_.A.a.#.#.#.$.a.h.h.h.h.A.h.A.h.J.h.A.A.A.L.L.D.L.Y.I.T.I.R.R.R._.@XoXM.` t 5 w w e ",
"u.u.u.u.u.u.u.u.u.u.u.y.r.2.V f 5 6 9 p X..X_.n.p.#.X.X. .#.#.#.#.#.a.$.a.$.a.#.a.a.a.a.h.h.h.c.n.n.A.n.M.C.K.XXoXC.` t 5 8 w e ",
"u.u.u.u.u.u.u.u.u.u.i.u.q.3.V a 2 2 5 p X..X_.n.a.#.#.} `  .#.#.#.#.#.#.#.#. . .#.#.#.#.$.a.a.d.d.c.h.h.c.b.S._.].N.` t 2 8 w q ",
"u.u.u.u.u.u.y.u.u.u.u.y.q.2.B q 2 1 5 i .._..XY.h.g.a.$.a.a.h.a.g.g.g.g.g.g.g.f.h.h.h.h.h.h.n.n.M.S.A.S.F.D.L..XoXm.' 8 2 7 0 q ",
"u.u.u.u.u.u.u.u.u.u.u.y.r.2.V q 2 < 6 u } T..X_.E.J.J.D.D.D.D.D.J.D.A.A.D.D.J.S.S.J.J.J.T.T.T.R.R.R.R.R.E._..X@X.Xb.~ 8 % 2 0 q ",
"u.u.u.u.u.u.u.u.u.u.u.y.r.2.V : = < 3 u ` n.E..XXX X XW.W.W.W.W.W.W.W.W.E.W.W.W.W.W. X X XXXXXXXoX@XoX@XOX@X@X.XR.c.^ 5 # 2 , 0 ",
"u.u.u.u.u.u.u.u.u.u.u.y.r.1.C a % % 2 t T } a.b.S.D.S.A.A.A.A.M.M.A.M.n.A.A.n.S.S.A.S.S.F.D.D.D.K.J.J.D.H.H.D.c.p. .Y > # % 0 0 ",
"u.u.u.u.u.u.u.u.u.u.u.u.r.3.C a # # # 2 5 t y y p K p p K p i K i i K i K K v v K K p K i K i K K K K v i i i u y r 5 % % % ; f ",
"u.u.u.u.u.y.u.u.u.u.u.y.q.3.%.d - % O # O o o o o o o o o o o o o $ o o O O . . o O o o o o o o o o o X o + o o o o O O o % a d ",
"u.u.u.u.u.u.u.u.u.u.u.u.r.3.C l s & o # O o o o O O o o o O # o o # o o + + o o o O # o o # o o # # o o X $ % # # o o o o & s M ",
"u.u.u.u.u.u.u.u.u.u.u.u.t.4.C N l a - & + X X X o o X . o X o X X o o X X o X X X o o X X o o X o o X X X X o # O O + * * a d C ",
"u.u.u.u.u.u.u.u.u.u.u.u.u.9.%.N N l g : * + + + O + + + + + + O + + + + + + + + + + + O + + + + + $ + + + + + + & * : a d M N C ",
"u.u.u.u.u.u.u.u.u.u.u.u.u.0.>.A C N M l k k d d s d d d d d d d d d d d d d k d k d d d d d d s d d d d d d d d d k l M N C C N ",
"u.u.u.u.u.u.u.u.u.u.u.u.i.r.1.&.C C C C Z Z Z C C C C C C C C C C C C C C Z Z Z C C C N C C C C C C C C C C C C N C C C C C N C "
};
