/* XPM */
static  xpm_row_t const number9[] = {
/* columns rows colors chars-per-pixel */
"40 46 125 2",
"   c #4ee44e",
".  c #0C0C0C",
"X  c #111111",
"o  c #1B1B1B",
"O  c #1F1F20",
"+  c #1F2020",
"@  c #232323",
"#  c #262829",
"$  c #2b2b2b",
"%  c #2E2F30",
"&  c #333535",
"*  c #353738",
"=  c #36393A",
"-  c #393A3B",
";  c #3D3F40",
":  c #3D4042",
">  c #404142",
",  c #434649",
"<  c #45494B",
"1  c #4B4C4E",
"2  c #464D51",
"3  c #4C5051",
"4  c #4F575B",
"5  c #4F585E",
"6  c #515558",
"7  c #54595B",
"8  c #535C61",
"9  c #5A6265",
"0  c #586168",
"q  c #626464",
"w  c #636769",
"e  c #666A6C",
"r  c #696C6D",
"t  c #676D72",
"y  c #65747D",
"u  c #69767D",
"i  c #707172",
"p  c #757778",
"a  c #73797C",
"s  c #787A7B",
"d  c #6B7A83",
"f  c #707D85",
"g  c #7B7E80",
"h  c #72828B",
"j  c #758690",
"k  c #768892",
"l  c #798A93",
"z  c #7E909A",
"x  c #868B8E",
"c  c #888B8C",
"v  c #818E95",
"b  c #84939B",
"n  c #8C9194",
"m  c #8D9599",
"M  c #929496",
"N  c #919699",
"B  c #93999C",
"V  c #989B9D",
"C  c #8798A2",
"Z  c #8997A0",
"A  c #8C9CA4",
"S  c #969DA0",
"D  c #909FA8",
"F  c #989EA1",
"G  c #8FA1AB",
"H  c #91A3AD",
"J  c #9CA1A4",
"K  c #9CA4AA",
"L  c #96A7B1",
"P  c #96A9B4",
"I  c #9CABB4",
"U  c #9DB2BD",
"Y  c #A0A3A6",
"T  c #A0A5A8",
"R  c #A2A9AB",
"E  c #A8ABAD",
"W  c #A5ADB2",
"Q  c #A8AFB1",
"!  c #A0B1BC",
"~  c #ACB2B4",
"^  c #AFB5B8",
"/  c #B0B4B6",
"(  c #B3B7BA",
")  c #B1B9BC",
"_  c #B8BDBE",
"`  c #A5B9C5",
"'  c #A7BCC8",
"]  c #A9BBC4",
"[  c #A9BECA",
"{  c #B5BDC1",
"}  c #BABFC3",
"|  c #AEC1CC",
" . c #B0C2CC",
".. c #BAC2C6",
"X. c #BDC5CA",
"o. c #B5C9D4",
"O. c #BDC9D2",
"+. c #C0C5C7",
"@. c #C1C5C8",
"#. c #C3C9CD",
"$. c #CBCCCD",
"%. c #C3CCD2",
"&. c #C9CDD0",
"*. c #CCD2D4",
"=. c #CED7D9",
"-. c #d3d3d3",
";. c #D1D5D8",
":. c #DBDDDD",
">. c #CDDEEA",
",. c #D4DDE0",
"<. c #DBDEE0",
"1. c #DCE2E5",
"2. c #DBE8F2",
"3. c #E4E6E7",
"4. c #E3E9EB",
"5. c #ECEDEE",
"6. c #E6EEF1",
"7. c #EAEFF1",
"8. c #E5F2FE",
"9. c #EEF0F0",
"0. c #ECF4FA",
"q. c #F4F4F4",
"w. c #F1F6F8",
"e. c #F5FCFD",
"r. c #FEFEFE",
/* pixels */
"                                                                                ",
"                                                                                ",
"                                                                                ",
"                                                                                ",
"                                                                                ",
"                                                                                ",
"                                                                                ",
"                                          X X X X X                             ",
"                                X . X X X X X X X . X X X X                     ",
"                            X X X X X X X X . X X X X X . X X X                 ",
"                        X X X X X X X . X O > > : + X X . X . X X               ",
"                      X X . X X . 1 e V @.&.;.-.;.&./ i 1 X X X X X             ",
"                    X X X X X 1 Y -.;.$.} ( / ~ / _ @.;.;.J > X X . X           ",
"                    . X X o p &.$.~ Y B B N M M M M V F ~ $.&.q X X X .         ",
"                  . X X X s %.Q B n n N B F K K F F N n n B ^ #.r X . X .       ",
"                  . X X 7 X.E m n N R ) ..#.#.#.#.+.) R N n N W X.w X X X X     ",
"                  X X + K ^ m n F { X.m 7 < ; - : 7 B #.) F m m Q ..< X X .     ",
"                . X X 3 X.J n J X.N $ X . X X X X X X - B X.J n m ) J o X X .   ",
"                X X X e X.B m ) S X X X X X X X X . X . O N ..S m J #.7 X . .   ",
"                . X X l X.B K *.& . X X . .   . . . X X X @ W { B B ..J X X X   ",
"                X X X Q #.V ^ =.X X X .             . X X X 4 =.Q B ) =.= X X   ",
"                . X X ( =.T ..1.. X X                   X X X *.%.J ~ 1.w X X . ",
"                X X X T 4.^ X.e.& X X X X X X X X . . X X X X B 5.^ ^ 6.J X X X ",
"                X X X B r.@.@.e.E X X X X X X X X X o X X X X s r.X./ 7.:.X X X ",
"                . X o s r.1.#.3.r.B $ X X o X X o X X o X X o r r.*._ q.r.X X o ",
"                . o X > r.r.:.:.r.r.r.-.-.$.$.$.$.*.$.$.*.-.-.:.r.:.$.r.r.o o o ",
"                  o o o V r.r.5.5.r.r.r.r.r.r.r.r.r.r.r.r.r.r.r.w.3.:.r.r.o o o ",
"                  X o o * :.r.r.r.e.q.e.r.r.r.r.r.r.r.r.r.r.r.e.q.q.5.r.r.o o o ",
"                    + + + - -.r.r.r.r.r.r.r.r.r.r.r.r.r.r.r.r.r.r.r.r.r.r.+ + + ",
"                    . @ @ @ @ p @.r.r.r.r.r.r.r.r.r.r.r.r.r.r.r.r.r.r.r.q.@ @ @ ",
"                      . @ @ @ # @ # q i i i i i i r i i i p p q.r.9.r.r.-.# # o ",
"                        . o # # # # # # $ @ # # $ # # # # $ M r.4.*.q.r.c # $ o ",
"                              o # $ $ $ $ $ $ $ # $ $ # $ $ 3.e.X...0.e.< $ $ X ",
"                              X o o o o o o o o @ $ $ $ $ a r.%.W ..e.K % $ $   ",
"                          o $ $ $ $ $ % $ $ % % % $ $ $ t 8.O.K H %.2.4 $ $ o   ",
"                          & $ $ & $ % $ $ % % % % $ 1 N >.] C z I >.i % $ $ .   ",
"                        X $ & - 9 9 8 7 4 4 4 8 a H o.' A k h C o.v * % % o     ",
"                        X $ $ 1 A  . .| | ' ' ' U H z h d d z ` C : $ $ $       ",
"                        X $ $ 2  .! b z k k h h h d y d k G [ h = $ $ $ X       ",
"                        X # # < o.A h d u y y u d h z H ' U 5 % # # # X         ",
"                        . # @ < ] [ I K H G H P U [ [ P 0 & @ # @ @ .           ",
"                        . o o , v ! ] [ ] ` ! H d 8 2 # o o o o o .             ",
"                          o o o o o o o o o o o o o o o o o o .                 ",
"                          X X X X o X o X X o X o X o X X .                     ",
"                            . X X X X X X X X X X . .                           ",
"                                                                                "
};
