/* XPM */
static  xpm_row_t const number0resize[] = {
/* columns rows colors chars-per-pixel */
"75 80 233 2",
"   c #0E0C0E",
".  c #0F110F",
"X  c #100E10",
"o  c #10100F",
"O  c #121312",
"+  c #141B14",
"@  c #181717",
"#  c #191719",
"$  c #1A1B1B",
"%  c #152315",
"&  c #172B17",
"*  c #1C241C",
"=  c #1B2C1B",
"-  c #173117",
";  c #1B331B",
":  c #1C3C1C",
">  c #1F2120",
",  c #201E1F",
"<  c #201F20",
"1  c #232423",
"2  c #262728",
"3  c #252A25",
"4  c #272828",
"5  c #292729",
"6  c #2B2B2B",
"7  c #2E2F30",
"8  c #243324",
"9  c #273228",
"0  c #243B24",
"q  c #2B342B",
"w  c #2B3C2B",
"e  c #2F3132",
"r  c #323334",
"t  c #353738",
"y  c #353D36",
"u  c #36393A",
"i  c #3A3C3D",
"p  c #3B3E40",
"a  c #1D431D",
"s  c #1E4D1E",
"d  c #1F501F",
"f  c #234323",
"g  c #234D23",
"h  c #2B432B",
"j  c #294C2A",
"k  c #225322",
"l  c #235B23",
"z  c #2B552C",
"x  c #295A29",
"c  c #314631",
"v  c #3D403F",
"b  c #325432",
"n  c #246324",
"m  c #256C25",
"M  c #286328",
"N  c #296C29",
"B  c #267226",
"V  c #2A742A",
"C  c #2B7B2B",
"Z  c #316631",
"A  c #376E37",
"S  c #386E38",
"D  c #327532",
"F  c #347934",
"G  c #397739",
"H  c #3B7C3B",
"J  c #3E4143",
"K  c #424445",
"L  c #434648",
"P  c #454A47",
"I  c #474A4B",
"U  c #4A4C4D",
"Y  c #464C50",
"T  c #4B4F51",
"R  c #465049",
"E  c #49524D",
"W  c #4D5255",
"Q  c #4F5659",
"!  c #515354",
"~  c #52575A",
"^  c #56595A",
"/  c #5A5C5D",
"(  c #555D62",
")  c #5B5E60",
"_  c #4C6450",
"`  c #536B57",
"'  c #5D6164",
"]  c #5D6468",
"[  c #626364",
"{  c #636668",
"}  c #65696B",
"|  c #6A6C6E",
" . c #646D72",
".. c #6B6E70",
"X. c #677176",
"o. c #6D7173",
"O. c #6C757B",
"+. c #737575",
"@. c #747779",
"#. c #757A7D",
"$. c #797B7B",
"%. c #727E85",
"&. c #787E82",
"*. c #2C842C",
"=. c #2E8A2E",
"-. c #328532",
";. c #318C31",
":. c #3B803B",
">. c #388E38",
",. c #339333",
"<. c #359C35",
"1. c #3C943C",
"2. c #399C39",
"3. c #36A136",
"4. c #3AA43A",
"5. c #3BAC3B",
"6. c #3DB33D",
"7. c #3FB93F",
"8. c #43AA43",
"9. c #43B543",
"0. c #41BC41",
"q. c #6C8373",
"w. c #708678",
"e. c #43C343",
"r. c #46CC46",
"t. c #48CB48",
"y. c #47D147",
"u. c #49D549",
"i. c #4BDC4B",
"p. c #4EE44E",
"a. c #4FE94F",
"s. c #748087",
"d. c #76848C",
"f. c #7D8284",
"g. c #79868D",
"h. c #7C888F",
"j. c #798790",
"k. c #7D8B93",
"l. c #828485",
"z. c #828688",
"x. c #848A8C",
"c. c #8B8D8D",
"v. c #838E94",
"b. c #818F98",
"n. c #898E91",
"m. c #879094",
"M. c #84929B",
"N. c #8C9294",
"B. c #8C969B",
"V. c #8C9E96",
"C. c #8E989E",
"Z. c #929495",
"A. c #929799",
"S. c #959A9D",
"D. c #999C9C",
"F. c #8C9BA3",
"G. c #8F9FA8",
"H. c #939EA4",
"J. c #909FA8",
"K. c #999EA1",
"L. c #90A29A",
"P. c #95A3AB",
"I. c #9CA1A5",
"U. c #9BA4A9",
"Y. c #9EA8AE",
"T. c #96A7B0",
"R. c #9BABB4",
"E. c #9EAFB9",
"W. c #9FB0B9",
"Q. c #A3A5A6",
"!. c #A2A6A9",
"~. c #A7A9A7",
"^. c #A4AAAD",
"/. c #A9ACAD",
"(. c #A5ADB2",
"). c #AAAEB1",
"_. c #AFB0AF",
"`. c #A6B0B6",
"'. c #A3B3BD",
"]. c #ABB1B4",
"[. c #ADB5B9",
"{. c #AEB9BE",
"}. c #B1B4B5",
"|. c #B2B6BA",
" X c #B4BABC",
".X c #B9BCBD",
"XX c #A5B7C1",
"oX c #A6B8C2",
"OX c #A8B7C1",
"+X c #ABBBC5",
"@X c #ACBDC8",
"#X c #B5BDC2",
"$X c #B9BEC1",
"%X c #B4C4CC",
"&X c #BCC2C5",
"*X c #BDC5CA",
"=X c #BFC9CF",
"-X c #B6C7D1",
";X c #B7C8D1",
":X c #BBCAD3",
">X c #C1C4C5",
",X c #C2C6C9",
"<X c #C4CACC",
"1X c #CACDCE",
"2X c #C3CDD3",
"3X c #C9CED1",
"4X c #C5D1D7",
"5X c #C3D1DA",
"6X c #CBD1D4",
"7X c #CCD5DB",
"8X c #D3D4D5",
"9X c #D1D7DA",
"0X c #D4D9DC",
"qX c #DADBDC",
"wX c #CBD8E1",
"eX c #D3DDE3",
"rX c #D8DFE2",
"tX c #D7E1E8",
"yX c #DDE1E3",
"uX c #DCE5EB",
"iX c #E2E3E4",
"pX c #E4E6E8",
"aX c #E3E9EB",
"sX c #EBECED",
"dX c #E4ECF1",
"fX c #ECEFF0",
"gX c #EEF1F2",
"hX c #E8F2F8",
"jX c #F4F5F5",
"kX c #F1F7FA",
"lX c #F6F8F9",
"zX c #F8F7F7",
"xX c #FDFDFD",
/* pixels */
"p.p.p.p.p.p.p.p.p.p.p.p.p.p.p.p.p.p.p.p.p.p.p.p.p.p.p.p.p.p.p.p.p.p.p.p.p.p.p.p.p.p.p.p.p.p.p.p.p.p.p.p.p.p.p.p.p.p.p.p.p.p.p.p.p.p.p.p.p.p.p.p.p.p.p.",
"p.p.p.p.p.p.p.p.p.p.p.p.p.p.p.p.p.p.p.p.p.p.p.p.p.p.p.p.p.p.p.p.p.p.p.p.p.p.p.p.p.p.p.p.p.p.p.p.p.p.p.p.p.p.p.p.p.p.p.p.p.p.p.p.p.p.p.p.p.p.p.p.p.p.p.",
"p.p.p.p.p.p.p.p.p.p.p.p.p.p.p.p.p.p.p.p.p.p.p.p.p.p.p.p.p.p.p.p.p.p.p.p.p.p.p.p.p.p.p.p.p.p.p.p.p.p.p.p.p.p.p.p.p.p.p.p.p.p.p.i.p.p.p.p.i.p.p.p.p.p.p.",
"p.p.p.p.p.p.p.p.p.p.p.p.p.p.p.p.p.p.p.p.p.p.p.p.p.p.p.p.p.p.p.p.p.p.p.p.p.p.p.p.p.p.p.p.p.p.p.p.p.p.i.p.p.p.p.p.p.p.p.p.p.p.p.p.p.p.p.p.p.p.p.p.p.p.p.",
"p.p.p.p.p.p.p.p.p.p.p.p.p.p.p.i.i.p.p.p.p.p.p.p.p.p.p.p.p.p.p.p.p.p.i.p.p.p.p.p.p.p.p.p.p.p.p.p.p.p.p.p.p.p.p.p.p.p.p.p.p.p.p.p.p.p.p.p.p.p.p.p.p.p.p.",
"p.p.p.p.p.p.p.p.p.p.p.p.p.p.p.p.p.p.p.p.p.p.p.p.p.p.p.p.p.p.p.p.p.p.p.p.p.p.p.p.p.p.p.p.p.p.p.p.p.p.p.p.p.p.p.p.p.p.p.p.p.p.p.p.p.p.p.p.p.p.p.p.p.p.p.",
"p.p.p.p.p.p.p.p.p.p.p.p.p.p.p.p.p.p.p.p.p.p.p.p.p.p.p.p.p.p.i.p.p.p.p.p.p.p.p.p.p.p.p.p.p.p.p.p.p.p.p.p.p.p.p.p.p.p.p.p.p.p.p.p.p.p.p.p.p.p.p.p.p.p.p.",
"p.p.p.p.p.p.p.p.p.p.p.p.p.p.p.p.p.p.p.p.p.p.p.p.p.p.p.p.p.p.p.p.p.p.p.p.p.p.p.p.p.p.p.p.p.p.p.p.p.p.p.p.p.p.p.p.p.p.p.p.p.p.p.p.p.p.p.p.p.p.p.p.p.p.p.",
"p.p.p.p.p.p.p.p.p.p.p.p.p.p.p.p.p.p.p.p.p.p.p.p.p.p.p.p.p.p.p.p.p.p.p.p.p.p.p.p.p.p.p.p.p.p.p.p.p.p.p.p.p.p.p.p.p.p.p.p.p.p.p.p.p.p.p.p.p.p.p.p.p.p.p.",
"p.p.p.p.p.p.p.p.p.p.p.p.p.p.p.p.p.p.p.p.p.p.p.p.p.p.p.p.p.p.p.p.p.p.p.p.p.p.p.p.p.p.p.p.p.p.p.p.p.p.p.p.p.p.p.p.p.p.p.p.p.p.p.p.p.p.p.p.p.p.p.p.p.p.p.",
"p.p.p.p.p.p.p.p.p.p.p.p.p.p.p.p.p.p.p.p.p.p.p.p.p.p.p.p.p.p.p.p.p.p.p.p.p.p.p.p.p.a.p.p.a.a.a.a.p.p.p.p.p.p.p.p.p.p.p.p.p.p.p.p.p.p.p.p.p.p.p.p.p.p.p.",
"p.p.p.p.p.p.p.p.p.p.p.p.p.p.p.p.p.p.p.p.p.p.p.p.p.p.p.p.p.p.p.p.p.p.p.p.p.p.p.p.u.i.u.u.i.u.u.u.i.i.p.p.p.p.p.p.p.p.p.p.p.p.p.p.i.p.p.p.p.p.p.p.p.p.p.",
"p.p.p.p.p.p.p.p.p.p.p.p.p.p.p.p.p.p.p.p.p.p.p.p.p.p.p.p.p.p.p.p.p.p.a.a.p.i.t.7.5.<.4.<.<.<.<.<.5.e.u.p.p.a.a.a.p.p.p.p.p.p.p.p.p.p.p.p.p.p.p.p.p.p.p.",
"p.p.p.p.p.p.p.p.p.p.p.p.p.p.p.p.p.p.p.p.p.p.p.p.p.p.p.p.p.a.p.p.i.t.e.9.8.4.,.F N l M M l x l l N -.1.8.6.9.e.t.i.p.p.p.p.p.p.p.p.p.p.p.p.p.p.p.p.p.p.",
"p.p.p.p.p.p.p.p.p.p.p.i.p.p.p.p.p.p.p.p.p.p.p.p.p.p.p.p.p.p.p.u.0.,.N k : ; & % % % * * % % % + % % - ; a k V ,.7.u.p.p.p.p.p.p.p.p.p.p.p.p.p.p.p.p.p.",
"p.p.p.p.p.p.p.p.p.p.p.p.p.p.p.p.p.p.p.p.p.p.p.p.p.p.p.p.u.0.2.-.N k ; * O X       X O                 X o $ ; k V -.4.0.u.p.p.p.p.p.p.p.p.p.p.p.p.p.p.",
"p.p.p.p.p.p.p.p.p.p.p.p.p.p.p.p.p.p.p.i.p.p.p.p.p.p.p.y.6.C f & + O O o O O O O @ O O @ @ O @ o X O O X o O o + + & a -.9.u.p.p.p.p.p.p.p.p.p.p.p.p.p.",
"p.i.p.p.p.p.p.p.p.p.p.p.p.p.p.p.p.p.p.p.p.p.p.p.a.p.7.,.x : % o           X $ 5 r t t t t t t u r 5 , O         X   $ : n ,.7.p.a.p.p.p.p.p.p.p.p.p.p.",
"p.p.p.p.p.p.p.p.p.p.p.p.p.p.p.p.p.p.p.p.p.p.p.p.i.0.-.g + o X o O O $ 1 5 r L / { | | | | | | | { ^ I u 6 < $ # O   O X % d =.e.i.p.p.p.p.p.p.p.p.p.p.",
"p.p.p.p.p.p.p.p.p.p.p.p.p.p.p.p.p.p.p.p.p.p.a.p.5.M : % o   o o * r I { l.D.^./.}.|.|.}.|.|.|.}.}./.Q.D.f.{ I 7 , O     O + : M 4.p.a.p.p.p.p.p.p.p.p.",
"p.p.p.p.p.p.p.p.p.p.p.p.p.p.p.p.p.p.p.p.p.a.u.9.N & X     @ , r T | z.Q.#X<X6X8X1X3X1X3X6X3X3X6X3X6X3X<X}.I.z.| U r , O     O % M 9.i.a.p.p.p.p.p.p.p.",
"p.p.p.p.p.p.p.p.p.p.p.p.p.p.p.p.p.p.p.p.p.p.5.k & + X X X 1 K o.S.|.,X>X&X&X X|.|.}.]./.).).).[.}.|.#X$X>X,X>X|.A.| K 1   O O o & l 5.p.p.p.p.p.p.p.p.",
"p.p.p.p.p.p.p.p.p.p.p.p.p.p.p.p.p.p.p.a.i.5.N % o X   @ 7 ^ l.~.$X,X,X$X}.(.!.Q.Q.K.K.K.D.K.K.I.I.Q.!./.}..X,X,X.XQ.l.! 6 O   o O % V 9.i.a.p.p.p.p.p.",
"p.p.p.p.p.p.p.p.p.p.p.p.p.p.p.p.p.p.p.p.9.n = O X X X 6 / Z..X<X>X}.^.K.S.A.A.A.Z.A.A.A.A.A.A.A.A.A.A.A.S.Q.^.}.&X<X.XZ./ 5 O O O O ; N 0.p.p.p.p.p.p.",
"p.p.p.p.p.p.p.p.p.p.p.p.p.p.p.p.p.a.i.0.-.; . .   O e ) S.|.$X|./.K.A.A.A.N.A.S.S.K.K.Q.I.I.K.K.S.S.A.N.Z.A.S.I./.|.#X}.A./ 6 O   O O : -.0.i.a.p.p.p.",
"p.p.p.p.p.p.p.p.p.p.p.p.p.p.p.p.p.p.r.;.d + . . O 4 / N.#X$X/.Q.A.n.n.Z.A.S.K.^.^.(./.).].).].(.^.!.K.H.A.Z.Z.Z.A.K.(.&X Xm.^ 2 O     % d ,.u.p.p.p.p.",
"p.p.p.p.p.p.p.p.p.p.p.p.p.p.p.p.p.i.7.l + O   O 5 ! N.[.[.^.A.n.n.n.Z.S.I.(.|.$X>X&X#X X#X#X#X&X>X.X|.(.I.A.n.n.N.N.S.^.|.[.n.I 2 O . O + M e.p.p.p.p.",
"p.p.p.p.p.p.p.p.p.p.p.p.p.p.p.a.p.e.-.;   . . * E g.).#X(.S.v.n.n.A.K.^.].].(.!.I.A.x.h.x.x.x.Z.K.!.(.[.(.^.H.B.v.n.N.H.(.#X(.&.P & . .   : ,.t.p.p.p.",
"i.p.p.p.p.p.p.p.p.p.i.p.p.p.p.a.i.1.j % X X % j w.[.|.(.H.N.n.n.N.I.`.|.[.U.&.] T p 6 1 1 1 5 y P ' f.U.|.#X(.I.B.N.n.N.H.(.|.].q.h % . X = k 2.u.p.p.",
"p.p.p.p.p.p.p.p.p.p.p.p.p.p.p.i.e.V % O X   9 ` L.$X).K.N.n.N.B.I.[.|.P.d.) K r 1 #           + 1 e L ] f.Q.|.[.I.A.N.n.N.K.].&XV._ > .   o = C r.p.p.",
"p.p.p.p.p.p.p.p.p.p.p.p.p.p.p.y.4.k O X X O K z.(.#XI.N.n.n.A.I.(.$X^...p $ O O O O O O   . O O O O O $ J O.!.#X).!.A.N.N.N.Y.#X/.&.i O O   + M 9.u.p.",
"p.p.p.p.p.p.p.p.p.p.p.p.p.p.p.0.C : X X O 6 { (.|.(.S.N.N.B.K.[. XH...i $             X       .         , p ..K. X).H.B.N.N.H.].|.I./ 1 @   o a >.r.p.",
"p.p.p.p.p.p.p.p.p.p.p.p.p.a.i.8.j & O   < L f.$X XI.A.N.N.D./.#X(...u #     O O + % % % % % % + . . . .   + u o.).#XR.S.N.N.S.Y.#X#X@.i #   o ; N 6.p.",
"p.p.p.p.p.p.p.p.p.p.p.p.p.i.u.,.; O O   5 ` S.&X|.K.B.B.A.(.&X).l.K O O O O + & - d d n n d d s a & . . . . # P n.[.#XR.S.B.A.K.#X&XN.! 1   o + a 4.i.",
"p.p.p.p.p.p.p.i.p.p.p.p.a.i.e.C %   X   r &.].*X[.K.A.S.U.&X:XA.^ 2   O . + & a d m B B B B B n d s - % . .   3 ] H.,X#XY.S.S.I.}.&X^.+.6     o - -.e.",
"p.p.p.p.p.p.p.p.p.p.p.p.p.u.5.M +   O # I ~.<X&X].I.D.Q.[.:X3X&.7 #     % ; d m m m B m B B B B m m d - + . . % r f.3X,X[.I.S.I.[.,X,XD.t   o   $ V 5.",
"p.p.p.p.p.p.p.p.p.p.p.p.a.r.,.d O   O 5 ' $X0X&X(.I.I.[.,X:X[.) * O .   & s n B B B m m m m m B B B n s & . . . $ { [.<X*X].Q.I.`.>X9X[.! $ X   + l =.",
"p.p.p.p.p.p.p.p.p.p.p.p.a.e.V : +   # u #.6XrX&X(.Y.^.&X9X>XN.P O   . + : m B B B C C *.C C C C B B B n a + .   O P B.,X9X.X/.^.[.&XyX<X| e @   + s m ",
"p.p.p.p.p.p.p.p.p.p.p.p.a.0.M & O   # K x.qXuX&X].^.[.3XpX&X@.t     + - d m B C =.3.7.7.7.7.6.3.=.*.B m s & .   O u $.,XaX1X[./.}.,XaX9Xf.v @   + : d ",
"p.p.p.p.p.p.p.p.p.p.p.p.i.6.l & o   $ W A.iXaX*X}.[.&X0XjX.X[ 6 O   % s d m *.,.6.e.p.a.p.a.i.e.6.=.*.m d a +   O q [ &XgX0X$X].[.<XsXiXc.P @   o - a ",
"p.p.p.p.p.p.p.p.p.p.p.i.y.2.l & +   * ) ^.sXpX<X.X.X1XiXzX}.U > .   % k m B ,.0.y.p.p.p.p.p.p.p.y.7.,.B n s % X X 1 T .XzXiX<X X.X1XsXiXZ.U ,   o - f ",
"p.p.p.p.p.p.p.p.p.p.p.i.e.,.g %     1 ...XsXsX1X&X>X0XgXxX~.t o O   % l B *.6.i.p.p.p.p.p.p.p.p.p.u.5.*.B k &   O O y _.xXsX9X&X>X8XjXpX~.[ <   + & : ",
"p.p.p.p.p.p.p.p.p.p.p.i.e.,.f + o . 3 l.1XgXgX8X>X1XpXxXxXD.1   O   & n *.3.r.i.p.p.p.p.p.p.p.p.p.p.e.3.*.l - O X   3 ~.xXkXrX<X>X8XfXjX>X$.3 o X * = ",
"p.p.p.p.p.p.p.p.p.p.a.i.0.-.f @ + o 9 x.8XjXgXqX8X8XfXxXjXZ.>   O + - n ,.7.y.p.p.p.p.p.p.p.p.p.p.p.y.7.;.n - + O . 6 ~.xXxXpX8X1XqXjXjX8Xl.5 o @ & ; ",
"p.p.p.p.p.p.p.p.p.p.a.i.7.C : * , O 7 Z.qXjXjXiXqXiXjXzXiXc.1 O $ % : m ,.r.i.p.p.p.p.p.p.p.p.p.p.p.i.e.,.n & o # O 6 ~.xXxXjX0X8XiXjXjXqXc.6 X $ & ; ",
"p.p.p.p.i.p.p.p.p.p.p.i.6.C f * @ O 7 Z.iXjXzXsXpXpXzXzXqXl.5 O * > 0 m 3.u.p.p.p.p.p.p.p.p.p.p.p.p.p.u.3.n - + # X 6 ~.xXxXjXiXiXsXzXzXqXZ.6 @ $ = ; ",
"p.p.p.p.p.p.p.p.p.p.p.i.5.C f * @ O q D.iXzXxXzXgXgXzXzXqXc.1 @ $ * f m 3.i.a.p.p.p.p.p.p.p.p.p.p.p.a.i.3.l 8 # # O 6 ~.xXxXjXsXsXjXxXjXiXZ.6 X @ = ; ",
"p.p.p.p.p.p.p.p.p.p.p.i.5.C f * , O e Z.iXzXxXxXzXjXxXzXsXZ.6 @ $ = a V 6.i.a.p.p.p.p.p.p.p.p.p.p.p.p.i.3.l = # # O 6 ~.xXxXzXgXjXxXxXjXiXZ.6 @ $ = ; ",
"p.p.p.p.p.p.p.p.p.p.a.i.5.C f = , O 7 c.8XjXxXxXxXlXxXxXjXD.6 @ $ * f C 6.i.p.p.p.p.p.p.p.p.p.p.p.p.a.i.3.n ; $ , o 6 ~.xXxXxXzXxXxXxXjX1Xc.7 O , = : ",
"p.p.p.p.p.p.p.p.p.p.p.u.5.C g 8 * , r l.>XjXxXxXxXxXxXxXxXQ.r @ $ $ 0 V 6.i.a.p.p.p.p.p.p.p.p.p.p.p.p.i.3.l : * > , r ~.xXxXxXxXxXxXxXgX.X+.q @ @ 8 f ",
"p.p.p.p.p.p.p.p.p.p.a.i.5.C k 0 1 , r $..XsXxXxXxXxXxXxXxX}.U 5 < < 0 N 4.i.a.p.p.p.p.p.p.p.p.p.p.p.a.i.<.l ; * 1 6 ! .XxXxXxXxXxXxXxXgX.X+.6 @ * 8 g ",
"p.p.p.p.p.p.p.i.p.p.a.i.5.C l 0 1 , 7 +..XsXxXxXxXxXxXxXxX>X+.v < < 8 x 3.i.p.p.p.p.p.p.p.p.p.p.p.p.p.i.,.k 3 < 1 v +.>XxXxXxXxXxXxXxXsX}.| r , > f g ",
"p.p.p.p.p.p.p.p.p.p.a.i.6.;.n f 3 1 7 [ Q.pXxXxXxXzXxXxXxX8Xc.U 1 < 2 h >.i.a.p.p.p.p.p.p.p.p.p.p.p.a.i.>.0 3 < 1 U Z.8XxXxXxXzXzXxXxXiXZ.^ 6 > 3 s l ",
"p.p.p.p.p.p.p.p.p.p.p.i.0.,.N g 3 1 q P l.iXxXxXjXgXjXzXxXiX_.) 1 1 3 8 G t.p.p.p.p.p.p.p.p.p.p.p.p.p.e.D 9 1 > 1 [ }.iXxXxXjXgXjXxXxXqX$.v 6 1 3 g m ",
"p.p.p.p.p.p.p.p.p.p.p.i.0.2.V j 3 1 3 3 [ 8XxXxXsXrXpXsXxXjX0X+.2 > 2 3 x 2.t.p.p.p.p.p.p.p.p.p.p.p.e.2.b 3 1 > 5 $.0XzXxXgXpXrXgXxXxX1X/ 3 2 1 3 x B ",
"p.p.p.p.p.p.p.p.p.p.p.p.e.4.C k 8 3 5 < ! }.pXxXsX0X9XiXgXxXsXc.v 6 1 2 w Z 8.i.p.a.p.p.p.a.p.p.p.i.5.Z w 2 1 6 v Z.gXzXgXrX0X0XsXzXpX_.P < 1 2 0 x B ",
"p.p.p.p.p.p.p.p.p.p.p.p.y.6.C l f 8 5 2 P x.<XzXsX9X3X7XuXkXjX/.[ y 4 4 4 q F 0.u.i.p.i.p.i.i.p.u.0.G q 5 4 2 u [ _.jXkXyX3X3X0XsXjX>Xf.J 1 2 8 a n B ",
"p.p.p.p.p.p.p.p.p.p.p.p.i.0.*.n g w 6 5 i } ].jXhX0X,X&X7XaXkX0XI.! 4 6 5 4 c S 1.8.9.9.9.9.9.8.1.A c 6 5 6 5 W I.8XgXuX4X&X,X0XjXjX^.{ t 2 6 w g m B ",
"p.p.p.p.p.p.p.p.p.p.p.p.a.r.=.n l 0 6 6 r U Z.rXsXeX=X#X&X7XuXhX7X#.i 6 6 6 6 q b A H H _ :.:.S b e 6 5 6 e J #.3XdXuX4X#X#X:XyXgXiXN.Y r 5 q h x N B ",
"p.p.p.p.p.p.p.p.p.p.p.p.p.r.<.C m f 6 5 6 t } ).eXuX2X|.}. X3XuXuX[.#.K 6 7 6 7 q y c c z c c h q 6 5 4 6 K &.[.uXtX,X#X[.{.3XuXeX[.} t 6 5 6 h M C *.",
"p.p.p.p.p.p.p.p.p.p.p.p.a.y.5.=.B z 9 6 6 6 U l.&XuX2XOXR.^.[.2XeX7X(...L t 7 6 5 5 7 5 5 5 6 6 5 5 6 t P ..(.7XeX2X[.(.R. X4XuX#Xh.U 6 4 6 9 z V ;.<.",
"p.p.p.p.p.p.p.p.p.p.p.p.p.u.6.,.B x j q 7 7 i ] Y.wX5X@XR.P.U.`.%X4X4X`.l.! u 7 6 6 7 7 7 7 7 7 7 7 u ! h.[.2X4X-X'.U.U.R.#X5X7XI.' i 6 6 q j x V <.5.",
"p.p.p.p.p.p.p.p.p.p.p.p.p.p.e.3.B n z w 6 7 r L &.`.-X-X`.P.H.H.R.#X:X%X(.v.@.] ! I K p p J K I ~ ] @.N.(.%X%X+XR.P.P.I.`.;X;X(.@.J r 6 6 w x m V 4.0.",
"p.p.p.p.p.p.p.p.p.p.p.p.p.p.u.5.C m M w 6 7 6 r Y O.'.:XXXT.G.B.B.P.R.XX%X-XOXP.k.O.} { ] {  .O.k.P.+X2X%X{.R.G.C.F.G.R.oX:X'.O.U r 6 6 6 h n m C 6.u.",
"p.p.p.p.p.p.p.p.p.p.p.p.p.p.p.7.=.C m k w 6 6 6 y ! v.'.@X'.P.M.k.k.F.G.E.oX@XXXE.T.G.G.G.P.P.T.R.W.oX+X'.P.F.k.m.M.G.'.+XXXk.W r 7 5 q w z m C ,.0.p.",
"p.p.p.p.p.p.p.p.p.p.p.p.p.p.p.r.3.=.m n j q 5 6 6 i ] v.'.OXR.F.k.k.k.k.k.F.T.W.W.XXXXXX@XoX+XXXW.R.G.F.F.F.k.k.M.F.Y.XXXXk.] r 4 6 5 q j M m *.5.y.p.",
"p.p.p.p.p.p.p.p.p.p.p.p.p.p.p.y.7.;.B m x 0 6 6 6 r i / v.'.+XE.F.k.k.k.j.j.k.k.M.F.F.G.G.G.G.F.F.k.k.k.k.j.k.F.I.'.+XE.k.( u 3 4 6 6 0 l m m ,.0.u.a.",
"p.p.p.p.p.p.p.p.p.p.p.p.p.p.p.i.r.3.C B M g q 5 5 5 1 i ' k.R.'.E.P.F.k.j.j.j.j.d.d.j.j.j.j.j.j.d.d.j.k.k.M.F.P.'.'.R.k.] u 3 2 5 4 w j n B C 3.r.i.p.",
"p.p.p.p.p.p.i.p.p.p.p.p.p.p.p.p.i.7.;.C M l f 3 2 4 4 3 r Q %.P.oXoXE.G.F.F.k.j.s.s.s.%.%.%.s.d.j.j.k.M.G.T.W.oXoXG.X.W u 6 2 4 4 3 j M m C ,.7.i.p.p.",
"p.p.p.p.p.p.p.p.p.p.p.p.p.p.p.p.p.y.5.-.N m l f 8 1 1 3 1 e Y X.F.R.W.W.W.W.R.G.M.M.M.k.k.k.k.F.F.G.T.R.XXXXW.T.k. .L e 2 > 2 2 8 f n B N =.6.y.p.p.p.",
"p.p.p.p.p.p.p.p.p.p.p.p.p.p.p.p.p.p.y.<.C B m n f 1 3 > > 1 3 u Q %.G.E.oXoXoXXXR.T.T.G.T.T.T.T.R.'.XXoXoXW.F.X.W e 2 > > > > > f n m B C 3.r.p.p.p.p.",
"p.p.p.p.p.p.p.p.p.p.p.p.p.p.i.p.p.p.i.6.;.V m m k f > * 1 , $ > 7 p Q  .%.j.k.G.R.XXXXXXoXoXXXXXE.G.F.j.s. .W p 6 1 > > $ * ; a k m m C ,.7.i.p.p.p.p.",
"p.p.p.p.p.p.p.p.p.p.p.p.p.p.p.p.p.p.i.r.5.*.B B m l a ; 3 * # # # # > e J W ( X.g.F.C.G.G.F.F.C.j.X.] Y J p > # + , > , & ; a l m B B =.6.y.i.p.p.p.p.",
"p.p.p.p.p.p.p.p.p.p.p.p.p.p.p.p.p.p.p.i.r.3.*.B m m n d a = # # # $ $ > 2 4 7 r r u p J i p i p u r 7 2 > > $ # # # % > a d n m N B *.3.r.p.p.p.p.p.p.",
"p.p.p.p.p.p.p.p.p.p.p.p.p.p.p.p.p.p.p.p.i.0.3.*.B B B m l a ; * + + + + O O O O O O O O O . O O O O O O O + + + % > ; s l m B B B *.3.e.i.p.p.p.p.p.p.",
"p.p.p.p.p.p.i.p.p.p.p.p.p.p.p.p.p.p.p.p.p.p.e.<.*.B m m m n k f & % + + + O # # O O # O O . O # # O O + + + O + > a k n m B B B *.3.r.i.p.p.p.p.p.p.p.",
"p.p.p.p.p.p.p.p.p.p.p.p.p.p.p.p.p.p.p.p.p.a.u.e.3.=.B B B m m l d s : : & % % % O X O O       O + + % & - - - a d n m m B m C =.5.e.i.p.p.p.p.p.p.p.p.",
"p.p.p.p.p.p.p.p.p.p.p.p.p.p.p.p.p.p.p.p.p.p.p.p.r.6.=.B B B B m m m n d s a ; - + + + O + + + + % = - a d l n m B B B B B C ,.5.r.i.p.p.p.p.p.p.p.p.p.",
"p.p.p.p.p.p.p.p.p.p.p.p.p.p.p.p.p.p.p.p.p.p.p.a.i.y.7.3.=.*.B m B B m m n n l d d d d s s s d d k l l l n m B B B B B *.,.5.0.y.i.a.p.p.p.p.p.p.p.p.p.",
"p.p.p.p.p.p.p.p.p.p.p.p.p.p.p.p.p.p.p.p.p.p.p.p.p.p.u.0.<.*.B m B m B m B B B B B m N N m B B m N B B B B B B m B B B *.3.r.i.p.p.p.p.p.p.p.p.p.p.p.p."
};
