/* XPM */
static  xpm_row_t const number4[] = {
/* columns rows colors chars-per-pixel */
"38 46 138 2",
"   c #111111",
".  c #1A1A1A",
"X  c #162316",
"o  c #172A17",
"O  c #1D2F1D",
"+  c #1C351C",
"@  c #232323",
"#  c #272927",
"$  c #2B2B2B",
"%  c #253125",
"&  c #2B352B",
"*  c #2B3B2B",
"=  c #3C3C3C",
"-  c #3D3F40",
";  c #1E461E",
":  c #1F4D1F",
">  c #244E24",
",  c #294329",
"<  c #2A4F2A",
"1  c #205620",
"2  c #245B24",
"3  c #295329",
"4  c #285E28",
"5  c #256325",
"6  c #266D26",
"7  c #2D6D2D",
"8  c #267126",
"9  c #287528",
"0  c #297829",
"q  c #3D4041",
"w  c #414344",
"e  c #414649",
"r  c #45494C",
"t  c #4B4D4E",
"y  c #4A4E51",
"u  c #4D5153",
"i  c #515354",
"p  c #565758",
"a  c #55595A",
"s  c #595A5C",
"d  c #5D5F60",
"f  c #676869",
"g  c #6E6F6F",
"h  c #727577",
"j  c #7B7E7F",
"k  c #717F87",
"l  c #2D852D",
"z  c #2F8C2F",
"x  c #318131",
"c  c #328832",
"v  c #339533",
"b  c #359C35",
"n  c #37A237",
"m  c #3AA63A",
"M  c #3BAE3B",
"N  c #3FB23F",
"B  c #40BD40",
"V  c #43C443",
"C  c #45CA45",
"Z  c #48D348",
"A  c #4CDF4C",
"S  c #4EE44E",
"D  c #748289",
"F  c #78858C",
"G  c #7D8990",
"H  c #838484",
"J  c #868C8F",
"K  c #848D92",
"L  c #8A8E91",
"P  c #8D9396",
"I  c #8D979F",
"U  c #909192",
"Y  c #94999B",
"T  c #9A9B9D",
"R  c #8C9CA4",
"E  c #909FA8",
"W  c #9A9FA2",
"Q  c #92A2AB",
"!  c #9CA2A6",
"~  c #9DA5A9",
"^  c #97A7B1",
"/  c #9BAAB3",
"(  c #A0A0A0",
")  c #A2A5A9",
"_  c #A5AAAD",
"`  c #ABADAE",
"'  c #A5ACB0",
"]  c #AAAFB3",
"[  c #A1B0B8",
"{  c #ACB3B6",
"}  c #AEB4B8",
"|  c #B1B5B7",
" . c #B2B6B9",
".. c #B5BBBE",
"X. c #BBBBBB",
"o. c #A2B6C0",
"O. c #A7BAC4",
"+. c #A8B7C0",
"@. c #AABBC4",
"#. c #ABBEC8",
"$. c #B4BDC1",
"%. c #B8BFC2",
"&. c #AEC0C9",
"*. c #B1C2CB",
"=. c #BCC1C3",
"-. c #BEC6CB",
";. c #BFC9CE",
":. c #B4C6D1",
">. c #B6C8D2",
",. c #BAC9D2",
"<. c #BDCED8",
"1. c #BED1DA",
"2. c #C0C6C9",
"3. c #C3C9CC",
"4. c #C8CBCC",
"5. c #C7CDD0",
"6. c #CECFD0",
"7. c #CBD1D4",
"8. c #CCD7DC",
"9. c #D4D4D4",
"0. c #D1D6D8",
"q. c #D5D8DA",
"w. c #DFDFDF",
"e. c #D4DCE0",
"r. c #CFE0E9",
"t. c #D4E2EC",
"y. c #DCE1E4",
"u. c #E1E2E3",
"i. c #E0E6E8",
"p. c #E3EAEC",
"a. c #EBECEC",
"s. c #ECEFF0",
"d. c #E6F3FE",
"f. c #ECF2F3",
"g. c #F2F3F4",
"h. c #F2F6F8",
"j. c #F3F9FC",
"k. c #FEFEFE",
/* pixels */
"S S S S S S S S S S S S S S S S S S S S S S S S S S S S S S S S S S S S S S ",
"S S S S S S S S S S S S S S S S S S S S S S S S S S S S S S S S S S S S S S ",
"S S S S S S S S S S S S S S S S S S S S S S S S S S S S S S S S S S S S S S ",
"S S S S S S S S S S S S S S S S S S S S S S S S S S S S S S S S S S S S S S ",
"S S S S S S S S S S S S S S S S S S S S S S S S S S S S S S S S S S S S S S ",
"S S S S S S S S S S S S S S S S S S S S S S S S S S S S S S S S S S S S S S ",
"S S S S S S S S S S S A S S S S S S S S S S S S S S S S S S S S S S S S S S ",
"S S S S S S S S S S S B x c 0 0 0 B S S S S S S S S S S S S S S S S S S S S ",
"S S S S S S S S S m X               2 S S S S S S S S S S S S S A A S S S S ",
"S S S S S S S S S X                   z S S S S S S B 0 7 c x c B S S S S S ",
"S S S S S S S S v     $ s s s s a     o S S S S S 3         .     X m S S S ",
"S S S S S S S S 2     w _ 0.q.7.Y       m S S S c                   X S S S ",
"S S S S S S S Z 1     q 7.=._ 4.%.      z S S S X     d d d d d $     v S S ",
"S S S S S S S V 1     q 7.] U  .2.      8 S S m       W 4.7.6.) q     2 S S ",
"S S S S S S S V 1     = 4.) L ] ..      8 S S l       } %.W  .%.-     1 Z S ",
"S S S S S S S V 1     = ;.! K _ ..      8 S S 5       $.] K W 3.=     1 V S ",
"S S S S S S S V 1     q ;.! K _ ..      8 S S 8       ../ J ! ;.w     1 V S ",
"S S S S S S S V 1     q 3.! J ' $.      8 S S 8       $._ J ! -.w     > V S ",
"S S S S S S S V 1     q ;.! K ' }       8 S S 8       $.' K ~ ;.,     1 V S ",
"S S S S S S S V 1     q 7._ P { -.      8 S S 8       =.} P _ 7.w     1 V S ",
"S S S S S S S V 1     q q.{ Y %.5.      9 S S 8       5.%.Y { q.w     1 V S ",
"S S S S S S S V 1     e p.$.! -.y.      8 S S 8       y.3.! %.y.r     1 V S ",
"S S S S S S S V 2     t j.3._ 4.h.q     2 S S 9       p.0._ 3.j.t     1 V S ",
"S S S S S S S V 1     u k.q.} 6.k.u     + x x ;       k.y.| 8.k.i     ; m S ",
"S S S S S S S V 5 .   = k.f.=.9.k.`   . .     . .     k.f.=.y.k.i   .     7 ",
"S S S S S S S V 8 . . . g.k.q.q.k.k.U   . . .   . . . k.j.9.a.k.f . . . . . ",
"S S S S S S S Z 6 + . . ` k.k.i.f.k.k.a.` U U U P T ( k.k.u.h.k.X.( U H . . ",
"S S S S S S S S 0 1 . . g k.k.k.g.k.k.k.k.k.k.k.k.k.k.k.k.a.k.k.k.k.k.4.. @ ",
"S S S S S S S S v 6 . @ @ X.k.k.k.k.k.k.k.k.k.k.k.k.k.k.k.k.k.k.k.k.k.9.. @ ",
"S S S S S S S S M 8 > # @ = w.k.k.k.k.k.k.k.k.k.k.k.k.k.k.k.k.k.k.k.k.9.@ @ ",
"S S S S S S S S Z 8 8 % @ @ @ T g.k.k.k.k.k.k.k.k.k.k.k.h.a.f.k.k.k.k.6.@ # ",
"S S S S S S S S S b 8 4 # # # # = j | u.k.k.k.k.k.k.k.k.i.9.e.k.k.k.h.} # # ",
"S S S S S S S S S Z 9 8 5 , # $ $ $ # $ $ $ $ $ $ $ $ k.e. .8.k.h $ # $ $ $ ",
"S S S S S S S S S S N 9 9 8 4 & $ $ $ $ $ $ $ $ $ $ # k.8.) ;.k.p $ $ $ $ & ",
"S S S S S S S S S S S n 8 8 8 8 5 3 , * $ $ $ $ $ $ $ t.,.R #.d.a $ $ * < 6 ",
"S S S S S S S S S S S S N l 8 8 8 8 8 8 8 8 8 8 $ & $ <.+.K / e.y $ $ 4 8 8 ",
"S S S S S S S S S S S S S S N l 8 8 8 8 8 8 8 8 $ $ $ #./ k E 1.y $ $ 4 8 8 ",
"S S S S S S S S S S S S S S S S C N v l 8 8 8 8 & $ $ o.^ k R :.y $ $ 4 m V ",
"S S S S S S S S S S S S S S S S S S S S S S S 8 $ $ $ O.^ F E >.y $ $ 4 V S ",
"S S S S S S S S S S S S S S S S S S S S S S S 8 $ $ @ #./ G E ,.r # @ 4 V S ",
"S S S S S S S S S S S S S S S S S S S S S S S 8 @ @ @ / >./ &.@.q @ @ 2 V S ",
"S S S S S S S S S S S S S S S S S S S S S S S 8 @ X . K / &.[ G e @ . 2 V S ",
"S S S S S S S S S S S S S S S S S S S S S S S 8 O . . . . . . . . . . 6 V S ",
"S S S S S S S S S S S S S S S S S S S S S S S 8 >     .   . .     . > 8 V S ",
"S S S S S S S S S S S S S S S S S S S S S S S c 8 : o           o > 8 8 A S ",
"S S S S S S S S S S S S S S S S S S S S S S S m 8 8 8 8 8 8 9 9 8 8 8 b A A "
};
