/* XPM */
static  xpm_row_t const number8resize[] = {
/* columns rows colors chars-per-pixel */
"66 80 226 2",
"   c #0D0C0D",
".  c #0F110F",
"X  c #100E10",
"o  c #121312",
"O  c #131B13",
"+  c #171818",
"@  c #181718",
"#  c #1B1B1B",
"$  c #152215",
"%  c #172B17",
"&  c #1C231D",
"*  c #1A2C1A",
"=  c #173017",
"-  c #1B341B",
";  c #1C3C1C",
":  c #1F2121",
">  c #201F20",
",  c #20211F",
"<  c #242424",
"1  c #262728",
"2  c #242A24",
"3  c #272929",
"4  c #282728",
"5  c #282827",
"6  c #2A2B2B",
"7  c #2D2E30",
"8  c #253525",
"9  c #233B23",
"0  c #2A342A",
"q  c #293C2A",
"w  c #2E3131",
"e  c #323334",
"r  c #353738",
"t  c #353A37",
"y  c #36393B",
"u  c #383738",
"i  c #3A3C3C",
"p  c #3A3E40",
"a  c #1D431D",
"s  c #1E4B1E",
"d  c #1F521F",
"f  c #254325",
"g  c #224C22",
"h  c #294329",
"j  c #294A29",
"k  c #235323",
"l  c #235B23",
"z  c #295429",
"x  c #2A5C2A",
"c  c #3F413E",
"v  c #256325",
"b  c #256C25",
"n  c #296429",
"m  c #2A6B2A",
"M  c #267126",
"N  c #297529",
"B  c #2B7C2B",
"V  c #327332",
"C  c #317D31",
"Z  c #3E4143",
"A  c #3E4448",
"S  c #424445",
"D  c #424649",
"F  c #444947",
"G  c #454A4B",
"H  c #4B4C4D",
"J  c #474E52",
"K  c #4B4F51",
"L  c #4D534D",
"P  c #4D5153",
"I  c #4F5458",
"U  c #525455",
"Y  c #545759",
"T  c #515857",
"R  c #545A5D",
"E  c #5A5C5D",
"W  c #535D62",
"Q  c #5B5E60",
"!  c #576065",
"~  c #5C6164",
"^  c #5B656B",
"/  c #5F6A71",
"(  c #626465",
")  c #646668",
"_  c #666969",
"`  c #696C6D",
"'  c #616D73",
"]  c #6A6F71",
"[  c #657077",
"{  c #66757E",
"}  c #6E7274",
"|  c #6A757B",
" . c #727373",
".. c #727779",
"X. c #757976",
"o. c #74797C",
"O. c #7C7D7D",
"+. c #687780",
"@. c #6C7B84",
"#. c #6F7F88",
"$. c #737E84",
"%. c #7A7F81",
"&. c #2C822C",
"*. c #2F8B2F",
"=. c #328332",
"-. c #328C32",
";. c #398C39",
":. c #339433",
">. c #359B35",
",. c #389638",
"<. c #399E39",
"1. c #37A237",
"2. c #3AA33A",
"3. c #3BAB3B",
"4. c #3EB33E",
"5. c #3FBA3F",
"6. c #40B440",
"7. c #41BC41",
"8. c #43C443",
"9. c #45CC45",
"0. c #47D147",
"q. c #49D649",
"w. c #4BDC4B",
"e. c #4EE44E",
"r. c #4FE84F",
"t. c #74838C",
"y. c #7D8183",
"u. c #7D858B",
"i. c #7D898E",
"p. c #768790",
"a. c #778892",
"s. c #788790",
"d. c #7B8B95",
"f. c #7E8F99",
"g. c #7F9099",
"h. c #828485",
"j. c #81878B",
"k. c #868986",
"l. c #848A8D",
"z. c #8B8C8C",
"x. c #858D92",
"c. c #898E91",
"v. c #82939C",
"b. c #8C9295",
"n. c #8D959B",
"m. c #919496",
"M. c #929698",
"N. c #949A9D",
"B. c #9C9E9F",
"V. c #8596A0",
"C. c #8798A2",
"Z. c #8897A0",
"A. c #8A9BA5",
"S. c #8D9EA9",
"D. c #959DA3",
"F. c #9A9EA1",
"G. c #8EA0AB",
"H. c #97A0A6",
"J. c #91A2AC",
"K. c #9CA2A5",
"L. c #9DA5A9",
"P. c #9FA8AD",
"I. c #94A6B1",
"U. c #96A9B4",
"Y. c #9BABB5",
"T. c #9BAEB9",
"R. c #9DB2BD",
"E. c #A2A4A5",
"W. c #A3A7A9",
"Q. c #A4AAAD",
"!. c #A9ACAD",
"~. c #A5ADB1",
"^. c #AAAFB1",
"/. c #A7B0B6",
"(. c #A3B3BC",
"). c #ACB1B4",
"_. c #ADB5BA",
"`. c #AFB8BC",
"'. c #B2B4B5",
"]. c #B1B6B9",
"[. c #B6B9B7",
"{. c #B4BABD",
"}. c #BABCBD",
"|. c #A2B6C1",
" X c #A6B9C4",
".X c #A9BBC4",
"XX c #B5BDC2",
"oX c #B9BEC1",
"OX c #ADC0CB",
"+X c #B6C0C7",
"@X c #B3C3CC",
"#X c #BBC1C5",
"$X c #BEC5CA",
"%X c #BDCBD3",
"&X c #BECED9",
"*X c #C2C4C5",
"=X c #C2C7C9",
"-X c #C4CACD",
";X c #CBCCCD",
":X c #C4CCD2",
">X c #CACFD1",
",X c #C4D2DB",
"<X c #CDD1D3",
"1X c #CCD5DB",
"2X c #D2D4D5",
"3X c #D3D7D8",
"4X c #D5D9DC",
"5X c #DBDCDD",
"6X c #CDDBE4",
"7X c #D5DEE3",
"8X c #DADEE1",
"9X c #D4E1EA",
"0X c #DDE1E3",
"qX c #DDE5EB",
"wX c #DBE8F1",
"eX c #E2E4E5",
"rX c #E3E7E9",
"tX c #E5E9EB",
"yX c #ECEDED",
"uX c #E5EDF2",
"iX c #ECEEF0",
"pX c #EEF1F2",
"aX c #F3F4F5",
"sX c #F3F7F9",
"dX c #F7F9FA",
"fX c #FCFDFD",
/* pixels */
"e.e.e.e.e.e.e.e.e.e.e.e.e.e.e.e.e.e.e.e.e.e.e.e.e.e.e.w.e.e.e.e.e.e.e.e.e.e.e.e.e.e.e.e.e.e.e.e.e.e.e.e.e.e.e.e.e.e.e.e.e.e.e.e.e.e.",
"e.e.e.e.e.e.e.e.e.e.e.e.e.e.e.e.e.e.e.e.e.e.e.e.e.e.e.e.e.e.e.e.e.e.e.e.e.e.e.e.e.e.e.e.e.e.e.e.e.e.e.e.e.e.e.e.e.e.e.e.e.e.e.e.e.e.",
"e.e.e.e.e.e.e.e.e.e.e.e.e.e.e.e.e.e.e.e.e.e.e.e.e.e.e.e.e.e.e.e.e.e.e.e.e.e.e.e.e.e.e.e.e.e.e.e.e.e.e.e.e.e.e.e.e.e.e.e.e.e.e.e.e.e.",
"e.e.e.e.e.e.e.e.e.e.e.e.e.e.e.e.e.e.e.e.e.e.e.e.e.e.e.e.e.e.e.e.e.e.e.e.e.e.e.e.e.e.e.e.e.e.e.e.e.e.e.e.e.e.e.e.e.e.e.e.e.e.e.e.e.e.",
"e.e.e.e.e.e.e.e.e.e.e.e.e.e.e.e.e.e.e.e.e.e.e.e.e.e.e.e.e.e.e.e.e.e.e.e.e.e.e.e.e.e.e.e.e.e.e.e.e.e.e.w.e.e.e.e.e.e.e.e.e.e.e.e.e.e.",
"e.e.e.e.e.e.e.e.e.e.e.e.e.e.e.e.e.e.e.e.e.e.e.e.e.e.e.e.e.e.e.e.e.e.e.e.e.e.e.e.e.e.e.e.e.e.e.e.e.e.e.e.e.e.e.e.e.e.e.e.e.e.e.e.e.e.",
"e.e.e.e.e.e.e.e.e.e.e.e.e.e.e.e.e.e.e.e.e.e.e.e.e.e.e.e.e.e.e.e.e.e.e.e.e.e.e.e.e.e.e.e.e.e.e.e.e.e.e.e.e.e.e.e.e.e.e.e.e.e.e.e.e.e.",
"e.e.e.e.e.e.e.e.e.w.e.e.e.e.e.e.e.e.e.e.e.e.e.e.e.e.e.e.e.e.e.e.e.e.e.e.e.e.e.e.e.e.e.e.e.e.e.e.e.e.e.e.e.e.e.e.e.e.e.e.e.e.e.e.e.e.",
"e.e.e.w.e.e.e.e.e.e.e.e.e.e.e.e.e.e.e.e.e.e.e.e.e.e.e.e.e.e.e.e.e.e.e.e.e.e.e.e.e.e.e.e.e.e.e.e.e.e.e.e.e.e.e.e.e.e.e.e.e.e.e.e.e.e.",
"e.e.e.e.e.e.e.e.e.e.e.e.e.e.e.e.e.e.e.e.e.e.e.e.e.e.e.e.e.e.e.e.e.e.e.e.e.e.e.e.e.e.e.e.e.e.e.e.e.e.e.e.e.e.e.e.e.e.e.e.e.e.e.e.e.e.",
"e.e.e.e.e.e.e.e.e.e.e.e.e.e.e.e.e.e.e.e.e.e.e.e.e.e.e.e.e.e.e.e.e.e.e.e.r.r.r.r.r.r.r.e.e.r.e.r.e.e.e.e.e.e.e.e.e.e.e.e.e.e.e.e.e.e.",
"e.e.e.e.e.e.e.e.e.e.e.e.e.e.e.e.e.e.e.e.e.e.e.e.e.e.e.e.e.e.e.e.e.w.w.w.w.w.q.q.q.q.q.w.e.w.w.w.e.e.e.e.e.e.e.e.e.e.e.e.e.e.e.e.e.e.",
"e.e.e.e.e.e.e.e.e.e.e.e.e.e.e.e.e.e.e.e.e.e.e.e.e.e.e.r.e.r.r.r.w.9.7.8.5.6.3.2.2.<.<.6.9.8.8.q.w.e.r.r.e.e.e.e.e.e.e.e.e.e.e.e.e.e.",
"e.e.e.e.e.e.e.e.e.e.e.e.e.e.e.e.e.e.e.e.e.e.e.e.e.e.w.q.9.8.7.4.2.-.=.=.C N n n n x x B -.=.-.;.3.6.7.8.9.q.e.e.e.e.e.e.e.w.e.e.e.e.",
"e.e.e.e.e.e.e.e.e.e.e.e.e.e.e.e.e.e.e.e.e.e.e.e.r.w.9.6.;.N k a * * $ & % $ $ $ # $ O $ * % % * - 9 j V :.4.0.w.e.e.e.e.e.e.e.e.e.e.",
"e.e.e.e.e.e.e.e.e.e.e.e.e.e.e.e.e.e.e.e.e.r.w.9.4.,.C n g - $ X                     X           X o # - g n =.<.8.w.r.e.e.e.e.e.e.e.",
"e.e.e.e.e.e.e.e.e.e.e.e.e.e.e.e.e.e.e.e.e.e.8.<.n - $ O o o X X X o X @ @ X @ o o o o o o o o o X X o o o o O g =.7.w.w.e.e.e.e.e.e.",
"e.e.e.e.e.e.e.e.e.e.e.e.e.e.e.e.e.e.e.r.q.4.B k % O             X > 4 > < 6 e r u u u 7 4 4 < # @         X X $ ; n -.7.w.e.r.e.e.e.",
"e.e.e.e.e.e.e.e.e.e.e.e.e.e.e.e.e.e.e.q.4.N ; o X X o o @ > < < r K U U Y Q ) ] ] ] ` ( Y Y U S e 4 < # @ o X X o O ; C 6.0.w.e.e.e.",
"e.e.e.e.e.e.e.e.e.e.e.e.e.e.e.e.e.r.q.2.m - O o X X @ < i L ` h.N.W.^.^.^.^.'.{.[.'.'.).^.^.!.K.M.h.` P i < o   X X O - n 6.q.e.e.e.",
"e.e.e.e.e.e.e.e.e.e.e.e.e.e.e.e.e.w.7.m - o   o @ 4 i E X.c.W.}.-X<X<X>X>X>X>X>X>X>X>X>X>X>X>X>X=X}.W.z.X.Y e > o o X   - B 6.e.e.e.",
"e.e.e.e.e.e.e.e.e.e.e.e.e.e.e.e.w.8.-.; o .   o 6 U h.!.#X=X=X*X}.oX[.).'.'.'._.^.^.'.^.).'.{.oXoX*X=X=X}.B. .G < o X X o - -.w.r.e.",
"e.e.e.e.e.e.e.e.e.e.e.e.e.e.e.r.e.,.k O   o # 6 Q z.).=X=X*X}._.^.W.E.F.B.F.B.F.F.F.F.F.F.E.K.W.!.).oX*X;X*X!.%.P 6 o o X O n 7.q.r.",
"e.e.e.e.e.e.e.e.e.e.e.e.e.e.e.r.0.N O o X o 6 E M.oX$XXX^.E.N.N.M.M.m.m.M.M.M.M.M.M.M.M.M.M.M.M.M.N.F.W.^.oX-X'.k.G & o X o ; &.8.e.",
"e.e.e.e.e.e.e.e.e.e.e.e.e.e.e.9.<.s o   o > H k.^.+X_.W.N.m.b.b.m.m.M.F.F.D.F.K.K.K.B.F.B.M.M.m.b.b.b.M.N.Q.XXoX^.} i #   o $ s 3.w.",
"e.e.e.e.e.e.e.e.e.e.e.e.e.e.e.4.m - o   @ 7 ` W.{.^.F.b.c.c.c.M.N.F.K.~.~.^.^.).).).).!.Q.Q.W.D.N.n.c.c.l.b.K.{.oXN.~ 3 . . X % -.9.",
"e.w.e.e.e.e.e.e.e.e.e.e.e.e.w.>.a $ X   < G j.{._.D.c.x.l.b.N.K.^.[.oX#X+XoX*XoXXXXXoXoXoX#XoX_.~.K.n.c.l.l.b.L.{.~.l.i o o X O b >.",
"e.e.e.e.e.e.e.e.e.e.e.e.e.e.9.=.- O o   6 ) N..XP.b.l.l.b.F.Q.).).!.K.K.D.M.c.x.l.l.c.n.D.K.L.~.~.).L.N.c.l.l.N.Q.XXL.T 3 o   O d M ",
"e.e.e.e.e.e.e.e.e.e.e.e.e.q.7.B % o X   r y.Q.).D.u.j.c.D.Q.{._.D...E K S t 6 3 < < 4 i K P Q ..N.{._.L.n.l.l.b.L.{.).[ y +   o ; d ",
"e.e.e.e.e.e.e.e.e.e.e.e.e.q.4.m $ o .   i b.).Q.n.u.j.n.L.~.L.y.Y S 6 < # o           + < < 6 Z E y.K.).H.b.l.x.N.`.).o.S #   o = a ",
"e.e.e.e.e.e.e.e.e.e.e.e.r.0.1.l O   . . Z H._.W.b.u.x.F.).K.o.i o o o o o o X X X X X o o o o o # i y.).Q.N.l.l.n._._.y.F #   o % = ",
"e.e.e.e.e.e.e.e.e.e.e.e.r.9.-.s o   o # P L._.K.x.u.c.K.XXl.D #   X   X     . X X X X X         o & ! n.P.L.l.u.b.)._.j.P #   o $ % ",
"e.e.e.e.e.e.e.e.e.e.e.e.r.8.&.a o X o : I Q.{.D.l.j.b.~.XXo.2 o o X o $ $ $ $ $ $ $ $ $ $ O O .   O S O.Q.~.x.l.n./._.x.T #   o $ % ",
"e.e.e.e.e.e.e.e.e.e.e.e.r.5.&.a o X . o G L.XXP.b.i.N./.$X .O   X X $ a d d l d l d d d s ; = .   o i } Q._.N.l.n._.XXl.I #   . $ % ",
"e.e.e.e.e.e.e.e.e.e.e.e.w.8.&.a o .     Z Q.oX^.Z.x.D.XX$X} o   X X % s d l d d l d d d s a % O X o e ` ~.+XK.b.N.+X}.j.J #   o $ = ",
"e.e.e.e.e.e.e.e.e.e.r.w.0.5.&.a o X .   Z L.+XXXK.M.L.XX%Xo.O   o X O % = = = = = = % % % % $ . X o i  .).+XL.A.L.=X#Xy.Z O   O = a ",
"e.e.e.e.e.e.e.e.e.e.e.e.e.5.&.a O . .   i k.XX:X~.D.W.XX1Xx.e # . X X O $ O O O O O O O O O O .   o P m.XXoXL.K.).<X*X .e @   o - d ",
"e.e.e.e.e.e.e.e.e.e.e.e.r.8.&.s % O .   6 ` ~.3X+XQ.Q.#X4X~._ 0 o X .   . . . . . . . X . . . . o < X.{.=XXXQ./.$X3X}.E 6 o   O a l ",
"e.e.e.e.e.e.e.e.e.e.e.e.r.8.&.d - $ .   < Y K.qX1XXX].oX3X1X).) 3 o                           O r ) ).7X:XXX).$X7X<XF.S o o X o s b ",
"e.w.e.e.e.e.e.e.e.e.e.e.r.9.&.b d % . X > p k.>X8X2X=X=X2XqX0XK.) F e e 0 e e 0 w w 6 w w w t L  .!.4XtX<XoX$X0XuX{...0   X o $ d M ",
"e.e.e.e.e.e.e.e.e.e.e.e.r.9.:.N v = . X . # Y K.5XpX5X<X<X0XtXeX2X#XQ.M.m.z.m.z.m.z.z.b.z.m.E.*X4XrXeX7X>X<XeXpXeXb.G , . o O - l M ",
"e.e.e.e.e.e.e.e.e.e.e.e.e.0.1.&.b a O O . . w _ [.yXtX5X2X3X0XpXdXsXtX4X2X2X2X2X2X<X<X2X2X5XeXaXdXaX8X2X3XeXaXeX'.( 6 $ O o % s v N ",
"e.e.e.e.e.e.e.e.e.e.e.e.e.0.4.*.b d ; $ o o # i k.;XyXpX4X<X3X0XyXpXsXdXaXdXaXaXaXaXaXaXaXdXaXpXeX5X>X>X7XiXyX'.( e O o o @ ; l b N ",
"e.e.e.e.e.e.e.e.e.e.e.e.e.w.7.>.M l s % o @ o < c X.;XyXeX3X<X3X5XqXyXyXpXpXpXpXpXpXpXpXyXpXyXeX5X>X>X2XiXrX}.X.r # O o O & s v &.*.",
"e.e.e.e.e.e.e.e.e.e.e.e.e.w.0.3.N v g * # # # # , L [.yXtXeX2X2X3X4X5X5X0X0XeXeXeX5X5XeX5XeX5X2X2X2X2X8XaXeXB.E 6 # # # & = s M :.1.",
"e.e.e.e.e.e.e.e.e.e.e.e.e.e.w.7.*.z - # # @ # 6 ( !.eXaXaXtX0X5X0X0XeXeXrXrXyXyXyXyXyXeXeXeXeXeX8X5X8XeXdXaX5XE.) e o # # & ; v :.4.",
"e.e.e.e.e.e.e.e.e.e.e.e.e.r.e.8.-.j # # @ > r ( '.yXfXfXfXpXyXyXyXyXyXyXpXpXaXaXaXaXaXpXyXaXyXyXyXyXtXpXdXfXfX0XW.( 6 # @ @ * k <.9.",
"e.e.e.e.e.e.e.e.e.e.e.e.e.e.e.7.C f # @ # 6 ` }.eXfXfXfXfXdXdXdXdXdXfXfXfXfXfXfXdXfXfXfXdXdXdXdXdXdXdXdXfXfXfXdXeX!.` e o # # 9 <.e.",
"e.e.e.e.e.e.e.e.e.e.e.e.e.e.w.3.x 8 @ @ w E E.yXfXfXfXfXfXfXfXfXfXdXaXaXaXaXaXaXaXaXaXaXpXaXaXfXdXfXfXfXfXfXfXfXfX0XW.H < # # - ;.7.",
"e.e.e.e.e.e.e.e.e.e.e.e.e.e.q.:.8 , , , H B.3XdXfXfXfXfXfXfXfXfXaXyX5X2X;X2X;X;X;X;X;X2X<X;X5XpXdXdXfXfXfXfXfXfXfXfX5XX.i , # 2 x C ",
"e.e.e.e.e.e.e.e.e.e.e.e.r.q.5.B 5 > , w ` ;XaXfXfXfXfXfXfXfXaX;X!.k.X. . . .X. .X. . . . . .O.m.'.<XyXfXfXfXfXfXfXfXyXW.( 6 # 2 h z ",
"e.e.e.e.e.e.e.e.e.e.e.e.r.0.>.x 5 , 6 F z.yXfXfXfXfXfXfXfXpX;Xm.E 0 , < < < 5 5 , 4 , 4 4 , 6 i E M.<XdXfXfXfXfXfXfXaX2Xz.u # < 8 9 ",
"e.e.e.e.e.e.e.e.e.e.e.e.r.8.C j 2 , e Q W.yXfXfXfXfXfXfXfX*XO.U e , , , , , , , > , , , > > < < e H M.5XaXfXfXfXfXfXfXyXE.u > , 2 2 ",
"e.e.e.e.w.e.e.e.e.e.e.e.e.5.m 9 2 , u ` '.pXfXdXsXpXfXfXpXB.H 6 , , 5 , 5 , 5 , 5 , , 5 2 < < < > 4 ( '.eXfXfXdXaXfXfXfX[.c < , 2 < ",
"e.e.e.e.e.e.e.e.e.e.e.e.q.6.n 0 < , e ` !.yXdXaXrXrXdXaX3Xh.u , , 4 0 8 8 q 0 8 8 8 q q 8 0 5 5 , 5 F y.5XfXdXyX0XpXfXfX}.E 7 , < 6 ",
"e.e.e.e.e.e.e.e.e.e.r.w.9.<.x 8 2 , i ..[.pXaXqX4X0XpXtX'.` 4 , 5 8 h z z z z z z k z k k k h 0 6 6 w E ;XfXpX8X-XeXdXfX;X_ i 6 4 6 ",
"e.e.e.e.e.e.e.e.e.e.e.w.8.,.z 0 2 < i h.*XaXtX>X:X1XaX8XM.E 6 4 0 h z b b b b b v b b b b b x 0 4 6 4 L -XfXtX:XXX1XpXfX;X` S 6 6 6 ",
"e.e.e.e.e.e.e.e.e.e.r.w.7.,.z 8 6 < i X.{.iXrX+XXX:XuX8XF.E 7 4 6 0 f z v v v x n n n l x z h 0 4 6 4 U ;XdX7X+X_.=XwXfX;X} S 6 4 6 ",
"e.e.e.e.e.e.e.e.e.e.e.w.7.-.z 0 6 4 y _ ^.iXeXXX~.XX9X6X^.] 7 6 6 6 0 h j j j j j j j j h q 6 6 6 7 r ) ;XaX:X`./.@X9XpX*X) i 6 6 6 ",
"e.e.e.e.e.e.e.e.e.e.r.q.3.C x q 6 4 r Q D.qX7X{.L.~.%X6X,Xj.u 6 6 6 6 6 0 0 0 0 0 0 0 6 0 6 6 6 4 7 J u.<X9XXX~.P.+X6XwX).G 6 6 6 6 ",
"w.e.e.e.e.e.e.e.e.e.r.w.3.&.x h 6 6 w U x.6X6X_.J.D.(.&X6XY.~ Z 7 6 6 4 6 6 6 6 6 6 6 6 4 6 6 6 e D ..~.&X&X~.D.L.XX6X,Xn.i < 6 6 0 ",
"r.e.e.e.e.e.e.e.e.e.e.q.4.*.m h 6 6 r Z o.%X,X XD.v.D./.%X@XI.| J r 6 6 6 7 7 7 7 7 7 6 6 7 e u H ] Y.&XXXT.C.n.J.XX:X(.$.i 6 6 0 0 ",
"e.e.e.e.e.e.e.e.e.e.r.w.5.:.N j 6 7 7 w Q Y.OX XD.d.x.A.T..X.XJ.u.' W J D p c i p p Z p A K ^ | s.D. X.XU.V.x.v.I.@X$Xn.^ y 6 7 q j ",
"e.e.e.e.e.e.e.e.e.e.e.w.8.>.N z w 7 6 6 D u.U. XI.d.p.p.f.S.T..X.XT.C.#./ Q E Y W W Q ~ ' #.A. X.X.XT.A.f.a.a.C.T.@X.Xo.H w 7 w h g ",
"e.e.e.e.e.e.e.e.e.e.e.w.9.3.B l q 6 6 6 y ~ v. XY.v.p.#.#.p.g.G.U.U.U.G.C.C.C.V.V.V.V.V.A.S.Y.Y.I.S.v.#.#.#.a.S.|.R.v.Y r w 7 6 j x ",
"e.e.e.e.e.e.w.e.e.e.e.e.q.4.&.v j 0 6 6 e D | I.Y.J.f.t.@.@.@.t.a.V.G.I.T.R.R.|.R.R.T.T.T.U.A.v.a.#.#.+.#.p.V.(. XA.' p 6 7 6 0 z n ",
"e.e.e.e.e.e.e.e.e.e.e.e.e.8.&.v x q 6 4 6 e K | S.R.I.V.p.@.+.+.@.#.p.d.f.g.V.g.v.v.V.v.f.a.#.#.#.+.@.#.a.C.T.|.D.[ D e 4 6 0 h l M ",
"e.e.e.e.e.e.e.e.e.e.e.e.r.9.*.N v h 0 6 5 6 e J @.J.Y.U.A.f.p.@.@.+.@.@.@.@.@.@.+.#.@.+.+.+.+.@.#.#.a.v.S.U.(.S.$.K 7 6 4 4 q j n M ",
"e.e.e.e.e.e.e.e.e.e.e.e.r.9.1.&.b z h 0 2 2 2 0 J ' C.T.R.U.A.g.p.#.#.@.+.+.+.+.+.+.+.+.+.+.#.p.p.d.S.T.|.Y.v.' D 7 4 < < 2 a l b M ",
"e.e.e.e.e.e.e.e.e.e.e.e.e.q.4.*.b v k ; , , < 2 w D ^ #.g.J.U.U.I.G.A.V.d.a.p.a.#.p.a.a.f.v.C.G.J.U.Y.I.C.#.W p 6 < < > 2 9 d b N B ",
"e.e.e.e.e.e.e.e.e.e.e.e.e.q.5.:.N M v s ; 2 < < < 4 w A W t.G.T.R.R.R.U.I.I.S.A.A.S.S.S.I.U.U.T.|.T.A.t.Q Z 7 < < < < < 8 d v M &.:.",
"e.e.e.e.e.e.e.e.e.e.e.e.e.e.q.4.*.N b v k - , # > < : 1 w A ! [ #.p.d.g.G.U.T.T.T.|.T.U.J.A.v.a.#.{ W A r 4 > # > # & ; g b b M :.3.",
"e.e.e.e.e.e.e.w.e.e.e.e.e.e.e.9.<.&.M M v s - % & > # @ # > 6 y A J W ^ @.f.v.V.C.V.v.d.#.{ ^ I G p 4 + # # # # # & - g v M M &.3.8.",
"e.e.e.e.e.e.e.e.e.e.e.e.e.e.e.w.8.>.N M b v l a 2 # # + @ # > : 1 3 3 7 w p p p p p p y r w 7 3 < < # + # O # & 8 g l v b M &.:.8.w.",
"e.e.e.e.e.e.e.e.e.e.e.e.e.e.e.e.q.4.*.B M M b d s ; * & # + o + + o o o o o o o X o o . . o o O o # o @ # & - ; g v b b M B :.5.q.e.",
"e.e.e.e.e.e.e.e.e.e.e.e.e.e.e.e.e.9.4.*.N M M M b v g ; & + o O O o o o + + @ X o X o X o o o O O O o O % ; d l v b M M B *.5.q.e.e.",
"e.e.e.e.e.e.e.e.e.e.e.e.e.e.e.e.e.w.9.4.:.&.M M M M l l s ; - - * $ O O o o X X X X X X o O $ $ - - = a s d b b M M M &.:.4.0.r.r.e.",
"e.e.e.e.e.e.e.e.e.e.e.e.e.e.e.e.e.e.e.0.5.:.&.M M M M b M v l k g a - - $ O O O O O O O $ % - ; s k l b M M M M M M &.>.5.w.e.e.e.e.",
"e.e.e.e.e.e.e.e.e.e.e.e.e.e.e.e.e.e.e.w.q.8.4.:.B M M M M b b n v l l l k d d s d d d d d l l l v b b M M M M M *.:.3.8.q.e.e.e.e.e.",
"e.e.e.e.e.e.e.e.e.e.e.e.e.e.e.e.e.e.e.e.e.e.9.1.&.M M M M M M M M M M M M M M M M N N M M M M M M b b M M M M B *.3.8.w.r.r.e.e.e.e."
};
