/* XPM */
static  xpm_row_t const number8[] = {
/* columns rows colors chars-per-pixel */
"38 46 179 2",
"   c #111111",
".  c #141C14",
"X  c #1A1A1A",
"o  c #152415",
"O  c #162A16",
"+  c #1D231D",
"@  c #1A2B1A",
"#  c #1A351A",
"$  c #1C3B1C",
"%  c #242424",
"&  c #242924",
"*  c #2B2B2B",
"=  c #273327",
"-  c #263B26",
";  c #2B332B",
":  c #2B3C2B",
">  c #2D3032",
",  c #333435",
"<  c #36393A",
"1  c #3B3C3D",
"2  c #3C3E40",
"3  c #1D431D",
"4  c #1E4A1E",
"5  c #274C27",
"6  c #294529",
"7  c #2A4A2A",
"8  c #215321",
"9  c #235B23",
"0  c #295129",
"q  c #295A29",
"w  c #256325",
"e  c #256A25",
"r  c #286328",
"t  c #267126",
"y  c #2A752A",
"u  c #2D7B2D",
"i  c #307530",
"p  c #317B31",
"a  c #3E4042",
"s  c #404243",
"d  c #44484A",
"f  c #4A4B4C",
"g  c #444B50",
"h  c #494F53",
"j  c #4D5153",
"k  c #4E565A",
"l  c #525353",
"z  c #53595C",
"x  c #595B5D",
"c  c #545C61",
"v  c #5C5F60",
"b  c #576268",
"n  c #5F6163",
"m  c #5A656A",
"M  c #616567",
"N  c #65686A",
"B  c #696E72",
"V  c #65747D",
"C  c #68777F",
"Z  c #6E787E",
"A  c #747576",
"S  c #717679",
"D  c #76797A",
"F  c #6B7A83",
"G  c #6F7F88",
"H  c #787E81",
"J  c #2E852E",
"K  c #2F8C2F",
"L  c #318231",
"P  c #308E30",
"I  c #349334",
"U  c #359B35",
"Y  c #399D39",
"T  c #37A237",
"R  c #3AA73A",
"E  c #3CAB3C",
"W  c #3EB33E",
"Q  c #40BD40",
"!  c #43C343",
"~  c #45CB45",
"^  c #48D448",
"/  c #4CDE4C",
"(  c #4EE44E",
")  c #73838C",
"_  c #7D8387",
"`  c #7D858B",
"'  c #78888F",
"]  c #758690",
"[  c #778891",
"{  c #7B8B94",
"}  c #7D8E98",
"|  c #838383",
" . c #81878A",
".. c #84898C",
"X. c #8B8C8E",
"o. c #838F97",
"O. c #898E91",
"+. c #83929B",
"@. c #8B9195",
"#. c #8F9599",
"$. c #919496",
"%. c #919699",
"&. c #94999B",
"*. c #8497A1",
"=. c #8798A1",
"-. c #8B9CA6",
";. c #8D9EA8",
":. c #949DA3",
">. c #999DA0",
",. c #8EA1AC",
"<. c #92A2AC",
"1. c #9BA2A5",
"2. c #9EA5A9",
"3. c #94A7B2",
"4. c #96AAB5",
"5. c #99ABB5",
"6. c #9BAEBA",
"7. c #9DB2BD",
"8. c #A1A3A4",
"9. c #A1A7AA",
"0. c #A4A9AD",
"q. c #A8ACAE",
"w. c #A4ADB1",
"e. c #A9ADB0",
"r. c #A0B1BB",
"t. c #ADB2B4",
"y. c #ACB5BA",
"u. c #B1B5B6",
"i. c #B3B9BC",
"p. c #BBBBBB",
"a. c #A1B6C2",
"s. c #A5B9C5",
"d. c #A6BCC8",
"f. c #A9B7C1",
"g. c #A8BDC9",
"h. c #B4BCC1",
"j. c #ADC1CC",
"k. c #B6C0C3",
"l. c #B1C4CE",
"z. c #BAC1C4",
"x. c #BCC5CA",
"c. c #BFC8CC",
"v. c #B1C7D2",
"b. c #B9CAD3",
"n. c #BFD2DA",
"m. c #C2C5C8",
"M. c #C2C9CE",
"N. c #C9CBCC",
"B. c #C5CDD1",
"V. c #CACED1",
"C. c #CDD2D4",
"Z. c #C9D4DD",
"A. c #D3D4D4",
"S. c #D2D6D9",
"D. c #D3D9DB",
"F. c #DDDEDE",
"G. c #C9D7E1",
"H. c #C8D8E1",
"J. c #CDDEEA",
"K. c #D6DDE1",
"L. c #DADEE0",
"P. c #D6E0E9",
"I. c #DDE1E3",
"U. c #DDE5E9",
"Y. c #D8E6F0",
"T. c #DBE8F2",
"R. c #E2E4E5",
"E. c #E6E7E9",
"W. c #E4EBEE",
"Q. c #EAEBEB",
"!. c #E4EDF0",
"~. c #EBEFF1",
"^. c #E7F4FF",
"/. c #ECF1F3",
"(. c #ECF6FB",
"). c #F2F2F3",
"_. c #F0F6FA",
"`. c #F5FAFC",
"'. c #FEFEFE",
/* pixels */
"( ( ( ( ( ( ( ( ( ( ( ( ( ( ( ( ( ( ( ( ( ( ( ( ( ( ( ( ( ( ( ( ( ( ( ( ( ( ",
"( ( ( ( ( ( ( ( ( ( ( ( ( ( ( ( ( ( ( ( ( ( ( ( ( ( ( ( ( ( ( ( ( ( ( ( ( ( ",
"( ( ( ( ( ( ( ( ( ( ( ( ( ( ( ( ( ( ( ( ( ( ( ( ( ( ( ( ( ( ( ( ( ( ( ( ( ( ",
"( ( ( ( ( ( ( ( ( ( ( ( ( ( ( ( ( ( ( ( ( ( ( ( ( ( ( ( ( ( ( ( ( ( ( ( ( ( ",
"( ( ( ( ( ( ( ( ( ( ( ( ( ( ( ( ( ( ( ( ( ( ( ( ( ( ( ( ( ( ( ( ( ( ( ( ( ( ",
"( ( ( ( ( ( ( ( ( ( ( ( ( ( ( ( ( ( ( ( ( ( ( ( ( ( ( ( ( ( ( ( ( ( ( ( ( ( ",
"( ( ( ( ( ( ( ( ( ( ( ( ( ( ( ( ( ( ( ( ( ( ( ( ( ( ( ( ( ( ( ( ( ( ( ( ( ( ",
"( ( ( ( ( ( ( ( ( ( ( ( ( ( ( ( ( ( / E E Y L L i Q E ~ ( ( ( ( ( ( ( ( ( ( ",
"( ( ( ( ( ( ( ( ( ( ( ( ( ( ( Q i $                     X 5 I ^ ( ( ( ( ( ( ",
"( ( ( ( ( ( ( ( ( ( ( ( ( R #                                   L ( ( ( ( ( ",
"( ( ( ( ( ( ( ( ( ( ( ( y             a 1 d x x x s s *           @ W ( ( ( ",
"( ( ( ( ( ( ( ( ( ( ( r       % l X.m.A.S.S.D.D.A.S.S.V.t.A s         E ( ( ",
"( ( ( ( ( ( ( ( ( ( I       f q.D.C.z.u.q.e.q.0.q.q.t.i.m.S.N.D %     o ( ( ",
"( ( ( ( ( ( ( ( ( ( .     l m.M.q.&.&.$.$.$.$.$.$.$.$.$.&.8.i.S.O.+     u ( ",
"( ( ( ( ( ( ( ( ( y     * 0.h.&.O.O.$.&.2.0.e.e.q.9.>.&.@.O.O.0.B.M     . ^ ",
"( ( ( ( ( ( ( ( ^ #     n x.:...O.>.t.m.c.x.z.h.z.x.M.h.9.@...O.t.y.&     J ",
"( ( ( ( ( ( ( ( W o     &.y.` ..:.z.w.x 1 &       1 s S z.w.@.` 1.x.z     4 ",
"( ( ( ( ( ( ( ( U       y.0.` O.i. .                    , i.1...@.x.N     # ",
"( ( ( ( ( ( ( ( e     > i.1._ %.x.&                       Z y.` O.k.D     O ",
"( ( ( ( ( ( ( ( t       k.w.` 2.B.      9 e e e e 9 3     x c.#.#.M.Z     O ",
"( ( ( ( ( ( ( ~ t       h.z.@.w.Z.      O O O O o O o     n B.:.1.D.v     3 ",
"( ( ( ( ( ( ( ( t o     D P.2.q.U.n                       u.M.1.z.F.1     9 ",
"( ( ( ( ( ( ( ( t 4     l W.C.i.D.W.j                 & %._.z.i.(.1.      t ",
"( ( ( ( ( ( ( ( K e       ..'.D.C.W.'.U.i.u.u.t.t.t.z.).'.D.V._.Q.s .   $ t ",
"( ( ( ( ( ( ( ( R t 3 .   * p.'.S.C.R.`.'.'.'.'.'.'.'./.S.N.W.).x .   X 9 y ",
"( ( ( ( ( ( ( ( ~ t 9 X X X . F.Q.A.A.D.F.F.R.F.F.F.F.A.C.S.'.| X X X # t T ",
"( ( ( ( ( ( ( ( ( I + X X , F.'.`.R.E.E.Q.~.).).).Q.Q.E.R.E.'.'.$.X X X 8 Q ",
"( ( ( ( ( ( ( ( ( p X X , F.'.'.'.'.'.'.'.'.'.'.'.'.'.'.'.'.'.'.'.&.X X + ( ",
"( ( ( ( ( ( ( ( ^ % + % p.'.'.'.'.'.'.Q.A.A.A.A.A.A.A.'.'.'.'.'.'.'.j + + i ",
"( ( ( ( ( ( ( ( I % % l '.'.'.'.'.Q.A + % % % % % % % s 8.'.'.'.'.'.p.% % - ",
"( ( ( ( ( ( ( ( q & % X.'.'.`.'.'.l % % % % % % % % % % % p.'.'.'.'.).% % & ",
"( ( ( ( ( ( ( ~ 7 % & ..'.~.L.'.N.* % * - : : - - - = * & z '.`.S.'.'.f % * ",
"( ( ( ( ( ( ( W 6 & * 0.'.B.B.'...* * 5 t t t t t t t * * * '.U.y.W.'.n * * ",
"( ( ( ( ( ( ( R 6 * * ..'.h.y.^.1.* * * 6 0 0 0 0 7 ; * * s '.B.w.G.'.x * * ",
"( ( ( ( ( ( ( K 0 * * B ^.y.:.b.T.a * * * * * * * * * * > ` T.w.1.Z.J.* * * ",
"( ( ( ( ( ( ( T r * > f H.f.o.:.b.j.z > * > > > > * > 1 S J.r.+.:.Z.:.> * : ",
"( ( ( ( ( ( ( E t > * * +.j.} ) } 7.b.7.F c k k x m +.v.v.;.[ [ 4.n.v > > 7 ",
"( ( ( ( ( ( ( ~ t 6 * * h s.<.) F F { ,.6.d.d.d.s.f.4.+.) F F +.l.[ * > * r ",
"( ( ( ( ( ( ( ( y r * * * c s.4.[ F V F G ) ) ) ) G F F F G *.j.-.1 * * 6 t ",
"( ( ( ( ( ( ( ( U e 7 & & & k 4.d.,.{ ) F V V V V C F ] } a.g.[ < % % % w t ",
"( ( ( ( ( ( ( ( W t t $ % % % , b 5.g.d.6.3.-.-.;.3.7.d.g.+.j % % % % 9 t P ",
"( ( ( ( ( ( ( ( ( I t t $ X % X X > g b F 3.7.a.6.-.G c d X + X X + 8 t t Q ",
"( ( ( ( ( ( ( ( ( ^ u t t 8 + X X X X X X X X X X X X X X X X X - w t t T ( ",
"( ( ( ( ( ( ( ( ( ( ! u t t t 4 +   .     X           . .   # 9 t t t I ( ( ",
"( ( ( ( ( ( ( ( ( ( ( ~ J t t t t 9 5 # @         . @ $ 8 e t t t t T ( ( ( ",
"( ( ( ( ( ( ( ( ( ( ( ( ( R t t t t t t t t t t y t t t t t t t K Q ( ( ( ( "
};
