/* XPM */
static  xpm_row_t const number6[] = {
/* columns rows colors chars-per-pixel */
"41 46 175 2",
"   c #111111",
".  c #131A13",
"X  c #1A1B1C",
"o  c #162516",
"O  c #182218",
"+  c #1A2C1A",
"@  c #1B351B",
"#  c #1B3A1B",
"$  c #232525",
"%  c #2A2B2C",
"&  c #2C2F31",
"*  c #243424",
"=  c #233C23",
"-  c #2B332B",
";  c #2B3A2B",
":  c #2E3031",
">  c #313334",
",  c #33373A",
"<  c #35393B",
"1  c #3D3D3D",
"2  c #373E42",
"3  c #1E461E",
"4  c #1F511F",
"5  c #234523",
"6  c #244C24",
"7  c #2A4E2A",
"8  c #225222",
"9  c #245B24",
"0  c #2A532A",
"q  c #2A5B2A",
"w  c #304F30",
"e  c #345234",
"r  c #256325",
"t  c #2A632A",
"y  c #2A6C2A",
"u  c #267126",
"i  c #2C742C",
"p  c #2B7F2B",
"a  c #326E32",
"s  c #386A38",
"d  c #337233",
"f  c #367836",
"g  c #3A763A",
"h  c #3E4143",
"j  c #3E464A",
"k  c #404243",
"l  c #454748",
"z  c #46494B",
"x  c #4A4B4C",
"c  c #424B51",
"v  c #4F5558",
"b  c #515354",
"n  c #545658",
"m  c #50585D",
"M  c #595C5D",
"N  c #545D63",
"B  c #5D6468",
"V  c #606365",
"C  c #606668",
"Z  c #65696C",
"A  c #686B6D",
"S  c #65747D",
"D  c #6D7275",
"F  c #68767F",
"G  c #737576",
"H  c #707578",
"J  c #75797C",
"K  c #797D7F",
"L  c #677680",
"P  c #6B7A82",
"I  c #6F7F89",
"U  c #737E83",
"Y  c #7A7E82",
"T  c #2D842D",
"R  c #318131",
"E  c #338E33",
"W  c #398339",
"Q  c #3F8E3F",
"!  c #369136",
"~  c #369E36",
"^  c #3A953A",
"/  c #399C39",
"(  c #39A439",
")  c #3BAD3B",
"_  c #3EB63E",
"`  c #45B545",
"'  c #41BC41",
"]  c #43C543",
"[  c #47CA47",
"{  c #48CA48",
"}  c #48D348",
"|  c #4BDA4B",
" . c #4ee44e",
".. c #74838B",
"X. c #7D8285",
"o. c #7A868C",
"O. c #7B888F",
"+. c #768690",
"@. c #7B8A92",
"#. c #7E8E98",
"$. c #7E909A",
"%. c #848586",
"&. c #828689",
"*. c #85898C",
"=. c #8A8D8E",
"-. c #858D92",
";. c #8B8F91",
":. c #849197",
">. c #84949C",
",. c #8C9194",
"<. c #8A959A",
"1. c #919496",
"2. c #959A9D",
"3. c #989899",
"4. c #879AA4",
"5. c #8C99A1",
"6. c #8D9FA9",
"7. c #939CA2",
"8. c #9E9FA1",
"9. c #8EA1AC",
"0. c #9CA2A4",
"q. c #9AA4AB",
"w. c #9CA9B0",
"e. c #9AAEB9",
"r. c #9CB1BC",
"t. c #A1A2A2",
"y. c #A1A6A9",
"u. c #A2AAAE",
"i. c #A3ADB3",
"p. c #AAAEB0",
"a. c #A7B0B6",
"s. c #A3B3BB",
"d. c #A9B0B5",
"f. c #ABB5BA",
"g. c #808080",
"h. c #B2B6B9",
"j. c #B4B9BC",
"k. c #BABBBD",
"l. c #A0B5C0",
"z. c #A4B9C5",
"x. c #A6BCC8",
"c. c #A9BECA",
"v. c #B1BBC0",
"b. c #BBBEC2",
"n. c #BDC1C3",
"m. c #BCC3C8",
"M. c #BBCCD5",
"N. c #C0C4C5",
"B. c #C2C6C9",
"V. c #C3CACC",
"C. c #CACCCE",
"Z. c #CACDD0",
"A. c #C3D4DC",
"S. c #CCD0D3",
"D. c #CCD3D8",
"F. c #D2D3D4",
"G. c #D1D6D8",
"H. c #D3D8DB",
"J. c #DCDDDE",
"K. c #CBD9E1",
"L. c #D4DDE0",
"P. c #DADEE0",
"I. c #DAE6F0",
"U. c #DFECF6",
"Y. c #E3E4E5",
"T. c #E6EBED",
"R. c #EAEAEA",
"E. c #E1ECF3",
"W. c #E9EEF1",
"Q. c #E6F0F5",
"!. c #E5F0F9",
"~. c #EDF0F2",
"^. c #F2F3F3",
"/. c #F5FBFE",
"(. c #FEFEFE",
/* pixels */
" . . . . . . . . . . . . . . . . . . . . . . . . . . . . . . . . . . . . . . . . .",
" . . . . . . . . . . . . . . . . . . . . . . . . . . . . . . . . . . . . . . . . .",
" . . . . . . . . . . . . . . . . . . . . . . . . . . . . . . . . . . . . . . . . .",
" . . . . . . . . . . . . . . . . . . . . . . . . . . . . . . . . . . . . . . . . .",
" . . . . . . . . . . . . . . . . . . . . . . . . . . . . . . . . . . . . . . . . .",
" . . . . . . . . . . . . . . . . . . . . . . . . . . . . . . . . . . . . . . . . .",
" . . . . . . . . . . . . . . . . . . . . . . . . . . . . . . . . . . . . . . . . .",
" . . . . . . . . . . . . . . . . . . . . . . . . . . . . . . . . . . . . . . . . .",
" . . . . . . . . . . . . . . . . . . . . .) / R R R R R R R R }  . . . . . . . . .",
" . . . . . . . . . . . . . . . . . .! 8   1 l n n n n n b n n t  . . . . . . . . .",
" . . . . . . . . . . . . . . . .R + b *.G.F.V.n.n.n.k.k.h.h.n.   . . . . . . . . .",
" . . . . . . . . . . . . . .^ # b j.Z.p.2.1.1.1.1.1.;.*.X.X.S.   . . . . . . . . .",
" . . . . . . . . . . . . .i % 2.B.t.1.;.=.*.*.&.%.o.X.J K J C.   . . . . . . . . .",
" . . . . . . . . . . . .i > j.y.;.*.X.Y J J G H H D D D D D n.   . . . . . . . . .",
" . . . . . . . . . . .R : f.2.*.X.Y J J <.w.f.j.v.v.j.v.v.v.,.   . . . . . . . . .",
" . . . . . . . . . .[ X q.0.=.O.Y ..7.a.m < $                 #  . . . . . . . . .",
" . . . . . . . . . .r n a.=.*.X.X.f.v X 3 4 r u u u u u u u u ~  . . . . . . . . .",
" . . . . . . . . .' $ m.,.:.*.*.f.h # r ( _ }  . . .|  . . . . . . . . . . . . . .",
" . . . . . . . . .9 B u.,.,.,.w.J @ ( }  . . . . . . . . . . . . . . . . . . . . .",
" . . . . . . . . .. M.0.2.2.0.H.% u  . . . . . . . . . . . . . . . . . . . . . . .",
" . . . . . . . .( x L.0.y.0.k.3.# u R R R R R R R R R R ~ ]  . . . . . . . . . . .",
" . . . . . . . .y V G.p.p.p.V.f.H A A A A A A A Z A A Z b > # !  . . . . . . . . .",
" . . . . . . . .# p.F.h.k.j.n.H.T.W.W.W.W.W.W.W.W.W.W.~./.(.C.M t '  . . . . . . .",
" . . . . . . . .@ V.J.N.N.N.N.N.n.n.n.n.n.n.n.n.n.N.N.N.N.V.J.(.1.q '  . . . . . .",
" . . . . . . . .@ F.^.F.F.F.F.C.C.C.C.C.C.C.C.C.C.C.C.F.F.F.F.J.(.8.q  . . . . . .",
" . . . . . . . .# F.(.Y.Y.R.(.(.(.(.(.(.(.(.(.(.(.(.(.(.^.Y.Y.Y.R.(.G /  . . . . .",
" . . . . . . . .= F.(.^.^.(.J.t.3.3.3.3.3.3.3.3.3.3.3.k.^.(./.^.^.(.J.=  . . . . .",
" . . . . . . . .= F.(.(.(.(.F.* 6 6 6 6 6 6 6 6 6 6 6 5 1 B.(.(.(.(.(.b [  . . . .",
" . . . . . . . .0 g.(.(.(.(.R.* ( ) ) ) ) ) ) ) ) ) ) ~ 9 1 R.(.(.(.(.%./  . . . .",
" . . . . . . . .d =.(.~.^.^.(.b [  . . . . . . . . . . .] 0 t.(.^.~.(.3.f  . . . .",
" . . . . . . . .( x (.H.H.H.(.%.W  . . . . . . . . . . . .R G (.H.G.(.*.a  . . . .",
" . . . . . . . .} - R.D.n.n.H.R.; |  . . . . . . . . . . .f X./.n.v./.J a  . . . .",
" . . . . . . . . .q D I.d.f.j.W.H g  . . . . . . . . . . .w m.Z.i.i.U.D d  . . . .",
" . . . . . . . . .( < I.i.q.i.f.!.Z s `  . . . . . . .` s A U.i.7.7.U.b W  . . . .",
" . . . . . . . . .| w N M.<.<.7.w.K.<.j e g ^ Q Q g e k <.K.q.:.@.5.M.- ]  . . . .",
" . . . . . . . . . .( ; >.6...@.:.2.s.M.r.K B B B U i.A.s.<.O.I I l.v 7  . . . . .",
" . . . . . . . . . .| t , e.@.P ....@.-.5.w.r.l.s.w.5.@...P L S #.6.: (  . . . . .",
" . . . . . . . . . . .' 6 < r.$.P P I ..o.@.@.+.O.....P F S L #.r.< 6 |  . . . . .",
" . . . . . . . . . . . .( 5 : @.r...L P P P L L P L L S F ..e.:.< 6 )  . . . . . .",
" . . . . . . . . . . . . .( 8 + j 9.r.4...P S S L I #.9.z.9.c + 6 (  . . . . . . .",
" . . . . . . . . . . . . . ._ T 3 o 2 N +.x.x.m.x.4.P j 2 O 3 p _  . . . . . . . .",
" . . . . . . . . . . . . . . . .) T 4 @ +         o + 3 4 p )  . . . . . . . . . .",
" . . . . . . . . . . . . . . . . . ._ ( E u u u u T E ) ]  . . . . . . . . . . . .",
" . . . . . . . . . . . . . . . . . . . . . . . . . . . . . . . . . . . . . . . . .",
" . . . . . . . . . . . . . . . . . . . . . . . . . . . . . . . . . . . . . . . . .",
" . . . . . . . . . . . . . . . . . . . . . . . . . . . . . . . . . . . . . . . . ."
};
