/* XPM */
static  xpm_row_t const number7[] = {
/* columns rows colors chars-per-pixel */
"40 46 131 2",
"   c #111111",
".  c #131C13",
"X  c #1A1A1A",
"o  c #1E1F20",
"O  c #152315",
"+  c #172917",
"@  c #1E2D1E",
"#  c #193419",
"$  c #1F3A1F",
"%  c #232323",
"&  c #272927",
"*  c #2B2B2B",
"=  c #253125",
"-  c #2C362C",
";  c #2B3C2B",
":  c #333535",
">  c #353738",
",  c #363838",
"<  c #3A3B3C",
"1  c #3C3E40",
"2  c #1C411C",
"3  c #1F4F1F",
"4  c #224B22",
"5  c #2A452A",
"6  c #215521",
"7  c #255C25",
"8  c #285428",
"9  c #295E29",
"0  c #305930",
"q  c #266526",
"w  c #267126",
"e  c #2A762A",
"r  c #326C32",
"t  c #424344",
"y  c #454849",
"u  c #4A4D50",
"i  c #4E5153",
"p  c #545657",
"a  c #56595B",
"s  c #585A5C",
"d  c #575E62",
"f  c #626363",
"g  c #60666A",
"h  c #66686A",
"j  c #666C70",
"k  c #6A7174",
"l  c #76797A",
"z  c #7D7E7E",
"x  c #747E84",
"c  c #2D852D",
"v  c #2F8C2F",
"b  c #318131",
"n  c #348834",
"m  c #398139",
"M  c #398C39",
"N  c #339333",
"B  c #37A237",
"V  c #3AA53A",
"C  c #3DAD3D",
"Z  c #3DB23D",
"A  c #43AC43",
"S  c #41B541",
"D  c #40BD40",
"F  c #44C944",
"G  c #49D349",
"H  c #4CDE4C",
"J  c #4EE34E",
"K  c #838485",
"L  c #82878A",
"P  c #838A8D",
"I  c #898C8E",
"U  c #828E95",
"Y  c #888E92",
"T  c #849097",
"R  c #8B9194",
"E  c #8C959A",
"W  c #8C989F",
"Q  c #909395",
"!  c #93999C",
"~  c #989B9D",
"^  c #8C99A1",
"/  c #939DA2",
"(  c #95A3AB",
")  c #9CA2A5",
"_  c #9DA5A9",
"`  c #9CA8AE",
"'  c #9EACB5",
"]  c #a3a3a3",
"[  c #A0A7AB",
"{  c #A5A9AB",
"}  c #A9AEB2",
"|  c #A4B3BC",
" . c #AAB1B4",
".. c #ADB5BA",
"X. c #B3B6B9",
"o. c #B2B9BD",
"O. c #BABCBD",
"+. c #A7B7C0",
"@. c #ABBBC4",
"#. c #AEBFC8",
"$. c #B4BCC1",
"%. c #B9BDC0",
"&. c #B3C4CD",
"*. c #BAC1C4",
"=. c #BDC5CA",
"-. c #B7C8D2",
";. c #B9CAD4",
":. c #C4C9CB",
">. c #C8C8C8",
",. c #CACFD2",
"<. c #C3D4DC",
"1. c #CAD0D3",
"2. c #CDD5DA",
"3. c #D2D6D7",
"4. c #D3D7DA",
"5. c #D3D8DC",
"6. c #DCDDDD",
"7. c #CED8E0",
"8. c #D4E2EB",
"9. c #DAE1E6",
"0. c #DBE4EA",
"q. c #e0e0e0",
"w. c #E1E6E8",
"e. c #E1E8EB",
"r. c #EAEBEC",
"t. c #E2EDF5",
"y. c #EDF4F6",
"u. c #EFF8FE",
"i. c #F4F4F5",
"p. c #F6F7F9",
"a. c #FEFEFF",
/* pixels */
"J J J J J J J J J J J J J J J J J J J J J J J J J J J J J J J J J J J J J J J J ",
"J J J J J J J J J J J J J J J J J J J J J J J J J J J J J J J J J J J J J J J J ",
"J J J J J J J J J J J J J J J J J J J J J J J J J J J J J J J J J J J J J J J J ",
"J J J J J J J J J J J J J J J J J J J J J J J J J J J J J J J J J J J J J J J J ",
"J J J J J J J J J J J J J J J J J J J J J J J J J J J J J J J J J J J J J J J J ",
"J J J J J J J J J J J J J J J J J J J J J J J J J J J J J J J J J J J J J J J J ",
"J J J J J J J J J J J J J J J J J J J J J J J J J J J J J J J J J J J J J J J J ",
"J J J J J J J J J J J S b b n e e n b b b b b b b b b b b b b b b b A H J J J J ",
"J J J J J J J J J J 7                                                   7 Z J J ",
"J J J J J J J J J n                                                         N J ",
"J J J J J J J J J +     s s s s a a s s a a s s s s s s s s p s s s 1         Z ",
"J J J J J J J J B       ~ 1.5.5.4.4.4.4.4.4.4.4.4.4.4.4.4.4.4.4.5.5.1.Q ,     2 ",
"J J J J J J J J v       O.:.{ { { { { { { { { { { { { { { { { { { } O.5.R       ",
"J J J J J J J J w       :.X.Q Q Q Q Q Q Q R Q Q Q Q Q Q Q Q Q Q Q Q ! O.*.<     ",
"J J J J J J J J w       { :.}  .} } { } } } }  .} } } } { ] Q Q I I R  .O.*     ",
"J J J J J J J J w       P ` o.o.$.$.$.X.o.$.$.$.$.%.$.*.=.*.[ Y P L E *.T     . ",
"J J J J J J J J w O                                       % [ E P P { *.y     # ",
"J J J J J J J J w 3                                       K ..Y P / =.j       7 ",
"J J J J J J J J c w 3 O                                 u =._ P R $.E O     $ w ",
"J J J J J J J J B w w w w w w w w w w q w w w w .     - ..o.E E o.%.>     . w w ",
"J J J J J J J J J v w w w w w w w w w w w w w 2     @ ~ 1.) E  .5.s       6 w N ",
"J J J J J J J J J J B v w w w w w w w w w w 6       k e.X.) } 0.L       3 w e G ",
"J J J J J J J J J J J J J J J J J J J J J G .     p y.2. ...e.1.&     # w w Z J ",
"J J J J J J J J J J J J J J J J J J J J J 4     , 9.i.*.O.0.a.u     O w w B J J ",
"J J J J J J J J J J J J J J J J J J J J e X X   X.a.5.:.w.a.l   X   6 w c J J J ",
"J J J J J J J J J J J J J J J J J J J A X   X K a.a.6.r.a.3.X X   3 w w F J J J ",
"J J J J J J J J J J J J J J J J J J H @ X X h a.a.i.p.a.p.y X X $ w w C J J J J ",
"J J J J J J J J J J J J J J J J J J 8 X X , r.a.a.a.a.a.z X X X q w N J J J J J ",
"J J J J J J J J J J J J J J J J J M o o X >.a.a.a.a.a.O.% o o 7 w c J J J J J J ",
"J J J J J J J J J J J J J J J J S % % % ] a.a.a.a.a.q.1 % % 4 w w D J J J J J J ",
"J J J J J J J J J J J J J J J J - & & f i.a.a.a.a.a.f % & = w w B J J J J J J J ",
"J J J J J J J J J J J J J J J r & & < q.a.i.w.a.a.I & & & 7 w N J J J J J J J J ",
"J J J J J J J J J J J J J J V * * * Y a.e.,.9.a.} & * & 8 w e G J J J J J J J J ",
"J J J J J J J J J J J J J G ; * * h a.0.=.:.p.8.< * * 5 w w Z J J J J J J J J J ",
"J J J J J J J J J J J J J 0 * * t 2.8.@.@.7.t.d * * - w w B J J J J J J J J J J ",
"J J J J J J J J J J J J m : * * E 8...' $.8.j * * * 9 w c J J J J J J J J J J J ",
"J J J J J J J J J J J A * * : h 7.' ^ ` <.^ * * : 8 w w F J J J J J J J J J J J ",
"J J J J J J J J J J H ; * * u &.| ^ ^ #.| 1 * * 5 w w C J J J J J J J J J J J J ",
"J J J J J J J J J J 0 * & : ` $.^ ^ ' -.i * * & q e N J J J J J J J J J J J J J ",
"J J J J J J J J J M % & & x ;.( ^ ( ;.k & & & 9 w e J J J J J J J J J J J J J J ",
"J J J J J J J J J % % % d | -.| +.;.T * % % 4 w w D J J J J J J J J J J J J J J ",
"J J J J J J J J n o X < U ^ +.#.| W 1 X o @ w w B J J J J J J J J J J J J J J J ",
"J J J J J J J J w X X X X X X X X X X X X 7 w N J J J J J J J J J J J J J J J J ",
"J J J J J J J F w 6   X     X   X   X   3 w w G J J J J J J J J J J J J J J J J ",
"J J J J J J J J w w 4 +             + 3 w w Z J J J J J J J J J J J J J J J J J ",
"J J J J J J J J B w w w e w w e w w e w w B J J J J J J J J J J J J J J J J J J "
};
