/* XPM */
static  xpm_row_t const number2[] = {
/* columns rows colors chars-per-pixel */
"37 46 163 2",
"   c #121212",
".  c #151C15",
"X  c #1A1A1A",
"o  c #1E1F20",
"O  c #162516",
"+  c #172A17",
"@  c #1E251E",
"#  c #1D281D",
"$  c #193419",
"%  c #1C3B1C",
"&  c #1F2020",
"*  c #232323",
"=  c #252F25",
"-  c #2C2C2C",
";  c #213221",
":  c #253B25",
">  c #2A3E2A",
",  c #373737",
"<  c #373839",
"1  c #3A3B3C",
"2  c #3D3F40",
"3  c #1C441C",
"4  c #1F4D1F",
"5  c #204520",
"6  c #245324",
"7  c #255D25",
"8  c #295129",
"9  c #2A5D2A",
"0  c #266426",
"q  c #256B25",
"w  c #2B6C2B",
"e  c #267126",
"r  c #2C732C",
"t  c #306430",
"y  c #347234",
"u  c #3B7B3B",
"i  c #404142",
"p  c #414649",
"a  c #44494C",
"s  c #4C4E4F",
"d  c #4A4F51",
"f  c #4F5356",
"g  c #505253",
"h  c #54585A",
"j  c #595A5C",
"k  c #5D5F60",
"l  c #596164",
"z  c #5D6468",
"x  c #606365",
"c  c #606669",
"v  c #67696A",
"b  c #696D6E",
"n  c #6A6F71",
"m  c #63727A",
"M  c #6B767C",
"N  c #6F797F",
"B  c #727273",
"V  c #727678",
"C  c #75797C",
"Z  c #787B7B",
"A  c #6B7A82",
"S  c #6F7E88",
"D  c #737C81",
"F  c #717F88",
"G  c #2D852D",
"H  c #2F8C2F",
"J  c #318231",
"K  c #358F35",
"L  c #398039",
"P  c #3E8D3E",
"I  c #379537",
"U  c #359C35",
"Y  c #3AA53A",
"T  c #3BAD3B",
"R  c #3FB33F",
"E  c #409A40",
"W  c #41B541",
"Q  c #43C443",
"!  c #44C944",
"~  c #48C548",
"^  c #48D348",
"/  c #4BDD4B",
"(  c #4EE44E",
")  c #73828A",
"_  c #7A848A",
"`  c #768690",
"'  c #778892",
"]  c #7C8A92",
"[  c #818486",
"{  c #84898C",
"}  c #8B8C8C",
"|  c #818D94",
" . c #888F92",
".. c #83929A",
"X. c #8C9193",
"o. c #8C959B",
"O. c #919395",
"+. c #919699",
"@. c #959A9D",
"#. c #9A9C9D",
"$. c #8897A0",
"%. c #899AA4",
"&. c #8B9DA8",
"*. c #919DA4",
"=. c #9A9FA1",
"-. c #8EA0AB",
";. c #93A4AD",
":. c #9BA2A5",
">. c #9BA6AC",
",. c #97A7B1",
"<. c #9CACB5",
"1. c #A2A6A9",
"2. c #A5A9AB",
"3. c #A8ACAD",
"4. c #A9AEB2",
"5. c #A1B3BD",
"6. c #ABB1B4",
"7. c #AAB4B9",
"8. c #B0B5B7",
"9. c #B3B6B8",
"0. c #B3BABD",
"q. c #BABCBD",
"w. c #A2B6C0",
"e. c #A6B9C3",
"r. c #AABBC5",
"t. c #ACBFC9",
"y. c #B4BCC0",
"u. c #B9BFC3",
"i. c #ADC0CB",
"p. c #B0C3CF",
"a. c #BCC2C4",
"s. c #BDC5C9",
"d. c #BFC8CC",
"f. c #B2C5D0",
"g. c #B6C8D2",
"h. c #B9CAD4",
"j. c #C0C6C9",
"k. c #C4CACC",
"l. c #C8CACB",
"z. c #C3CBD0",
"x. c #C9CDD0",
"c. c #C0D3DB",
"v. c #CCD2D5",
"b. c #CCD4DA",
"n. c #D1D3D4",
"m. c #D3D6D9",
"M. c #D4D9DB",
"N. c #DBDDDF",
"B. c #C9D7E0",
"V. c #D4DDE0",
"C. c #DADEE0",
"Z. c #D3E2EB",
"A. c #DCE1E3",
"S. c #DFE6EA",
"D. c #E4EAED",
"F. c #EAECEC",
"G. c #E7EEF0",
"H. c #E7F3FC",
"J. c #EBF0F3",
"K. c #E9F4FE",
"L. c #F3F3F4",
"P. c #F3F8FA",
"I. c #FEFFFF",
/* pixels */
"( ( ( ( ( ( ( ( ( ( ( ( ( ( ( ( ( ( ( ( ( ( ( ( ( ( ( ( ( ( ( ( ( ( ( ( ( ",
"( ( ( ( ( ( ( ( ( ( ( ( ( ( ( ( ( ( ( ( ( ( ( ( ( ( ( ( ( ( ( ( ( ( ( ( ( ",
"( ( ( ( ( ( ( ( ( ( ( ( ( ( ( ( ( ( ( ( ( ( ( ( ( ( ( ( ( ( ( ( ( ( ( ( ( ",
"( ( ( ( ( ( ( ( ( ( ( ( ( ( ( ( ( ( ( ( ( ( ( ( ( ( ( ( ( ( ( ( ( ( ( ( ( ",
"( ( ( ( ( ( ( ( ( ( ( ( ( ( ( ( ( ( ( ( ( ( ( ( ( ( ( ( ( ( ( ( ( ( ( ( ( ",
"( ( ( ( ( ( ( ( ( ( ( ( ( ( ( ( ( ( ( ( ( ( ( ( ( ( ( ( ( ( ( ( ( ( ( ( ( ",
"( ( ( ( ( ( ( ( ( ( ( ( ( ( ( ( ( ( ( ( ( ( ( ( ( ( ( ( ( ( ( ( ( ( ( ( ( ",
"( ( ( ( ( ( ( ( ( ( ( / T J G r J J J J J r J J J K R ! ( ( ( ( ( ( ( ( ( ",
"( ( ( ( ( ( ( ( ( ( J                                   O w T ( ( ( ( ( ( ",
"( ( ( ( ( ( ( ( ( /                                           9 T ( ( ( ( ",
"( ( ( ( ( ( ( ( ( e     i j j j h h j h h h j j h g i -           I ( ( ( ",
"( ( ( ( ( ( ( ( / 3     l 8.m.m.m.m.m.m.m.m.m.m.m.m.m.l.+.j         I ( ( ",
"( ( ( ( ( ( ( ( Q 3     j v.q.2.2.2.2.2.2.3.2.2.3.3.4.q.l.m.=.1       Y / ",
"( ( ( ( ( ( ( ( T 3     j v.1.X.O.O.O.O.O.O.O.O.O.+.+.+.=.6.l.6.,     O / ",
"( ( ( ( ( ( ( ( T 3     j s.a.4.4.3.3.4.4.4.4.4.4.1.=.+.X.X.=.j.>.&     w ",
"( ( ( ( ( ( ( ( T 3     h X.4.0.y.y.y.u.y.y.y.u.u.j.j.6.*. . .=.d.z     . ",
"( ( ( ( ( ( ( ( T 4                               * f 2.0.o.{ X.7.1.o     ",
"( ( ( ( ( ( ( ( T e $                                 . 0.>.{ _ 1.u.i     ",
"( ( ( ( ( ( ( ( ! e e 4 O                               n 0.X._ *.z.j     ",
"( ( ( ( ( ( ( ( ( G e e q q e e e q 0 4 3 3 3 3 3 $     z d.+.{ =.b.j     ",
"( ( ( ( ( ( ( ( ( ! G e e e e e 4 +                     o.s.@.X.3.V.h     ",
"( ( ( ( ( ( ( ( ( ( ( T H e 4 .                       c D.0.=.=.j.C.8     ",
"( ( ( ( ( ( ( ( ( ( ( ( ( 9           s k v b b v V a.P.v.6.>.8.D.0.      ",
"( ( ( ( ( ( ( ( ( ( ( ( :       , { N.I.I.I.I.I.I.I.J.m.q.8.0.A.I.v .   $ ",
"( ( ( ( ( ( ( ( ( ( ( 6 .   . V I.I.I.F.D.N.N.M.M.v.l.a.a.l.J.I.=.X   X 6 ",
"( ( ( ( ( ( ( ( ( ( L X X X #.I.I.F.N.n.n.n.v.n.n.v.n.N.L.I.I.9.- X X % e ",
"( ( ( ( ( ( ( ( ( ( & X X X.I.I.L.F.F.I.I.I.I.I.I.I.I.I.I.L.} X X X # e e ",
"( ( ( ( ( ( ( ( ( r X X j I.I.I.I.I.I.I.I.I.I.I.I.I.F.l.} , X X X # 7 e H ",
"( ( ( ( ( ( ( ( ^ ; & & q.I.I.I.I.I.N.O.g * * & & & & & & & & & 5 q e e ! ",
"( ( ( ( ( ( ( ( Y * * * I.I.I.I.I.q.* * * * * * * * * * * * ; 9 e e e T ( ",
"( ( ( ( ( ( ( ( r * * B I.I.I.I.F.* * * * * * - * * = : 8 0 e e e e Y ( ( ",
"( ( ( ( ( ( ( / 7 - * v I.I.F.I.3.* - > 0 e e e e e e e e e e e G Q ( ( ( ",
"( ( ( ( ( ( ( Q 0 # - x I.S.m.I.F - - 8 q q e e e e e e e e G T ( ( ( ( ( ",
"( ( ( ( ( ( ( Q 9 = - j I.b.k.I.A - - 8 8 8 8 8 8 8 9 t y u P P P E ~ ( ( ",
"( ( ( ( ( ( ( Q 0 - - h K.s.y.H.A - - - - - - - - - - - - - - - - - - u ( ",
"( ( ( ( ( ( ( Q 9 - - g Z.5.>.B.S - - - - - - - - - - , , - - - - - - - W ",
"( ( ( ( ( ( ( Q 0 - - f h.,...5.t.A z l l z k k l l l l z z z c c l - - 9 ",
"( ( ( ( ( ( ( Q 9 - - a g.%.) ] ] w.p.p.t.t.t.t.p.f.f.g.g.g.h.h.r.A - - > ",
"( ( ( ( ( ( ( Q 9 - - a f.$.A A A S S S ' ' ` ' ] ....$.%.*.*.>.h._ - - > ",
"( ( ( ( ( ( ( Q 7 * * a f.$.A m z A A A A A m A A A F _ ] ] | $.t.{ * - : ",
"( ( ( ( ( ( ( Q 7 * * p w.r.;.&.&.&.&.&.%.&.&.&.-.;.,.<.<.<.5.w.h.C * * : ",
"( ( ( ( ( ( ( Q 7 X o i ] <.r.e.w.w.5.5.5.5.w.w.e.e.r.r.t.t.y.r.&.A X & ; ",
"( ( ( ( ( ( ( Q e X X X X X X X X X X X X o . o X X X X X X X X X X X X 5 ",
"( ( ( ( ( ( ( Q e 4   X     X     X   X   .     X   X   X     X X     . 0 ",
"( ( ( ( ( ( ( / e e 6 +                                         . + 3 0 e ",
"( ( ( ( ( ( ( ( U e e e r e e e e e e e e e r e e e e e e e e e q e e e e "
};
