/* XPM */
static  xpm_row_t const number1resize[] = {
/* columns rows colors chars-per-pixel */
"45 80 173 2",
"   c #0E0C0E",
".  c #100E10",
"X  c #131313",
"o  c #141B14",
"O  c #191619",
"+  c #1C1C1C",
"@  c #1F1F20",
"#  c #152215",
"$  c #162916",
"%  c #192519",
"&  c #192B19",
"*  c #173317",
"=  c #1A341A",
"-  c #1C3D1C",
";  c #211F21",
":  c #242424",
">  c #272728",
",  c #202D20",
"<  c #272829",
"1  c #292729",
"2  c #2B2B2C",
"3  c #2E2F30",
"4  c #253225",
"5  c #2A372A",
"6  c #2B382B",
"7  c #2F3132",
"8  c #333435",
"9  c #343738",
"0  c #37393A",
"q  c #3B3C3D",
"w  c #3B3E40",
"e  c #1C441C",
"r  c #1E491E",
"t  c #1F511F",
"y  c #214C21",
"u  c #215421",
"i  c #245C24",
"p  c #236423",
"a  c #256E25",
"s  c #2A6B2A",
"d  c #267226",
"f  c #2A752A",
"g  c #297A29",
"h  c #3E4042",
"j  c #424445",
"k  c #454748",
"l  c #444945",
"z  c #47494B",
"x  c #4A4C4D",
"c  c #4C4F51",
"v  c #4E5152",
"b  c #4E5458",
"n  c #525455",
"m  c #545658",
"M  c #56595B",
"N  c #5B5C5D",
"B  c #555C60",
"V  c #5A5E60",
"C  c #5E676B",
"Z  c #626364",
"A  c #646769",
"S  c #63696D",
"D  c #6A6C6E",
"F  c #656C72",
"G  c #696E70",
"H  c #6D757A",
"J  c #707577",
"K  c #717578",
"L  c #74797C",
"P  c #7A7E7F",
"I  c #797F83",
"U  c #2C842C",
"Y  c #2F8C2F",
"T  c #318331",
"R  c #328D32",
"E  c #349334",
"W  c #339A33",
"Q  c #399F39",
"!  c #36A036",
"~  c #39A539",
"^  c #3CAC3C",
"/  c #3EB33E",
"(  c #40B640",
")  c #40BD40",
"_  c #43C243",
"`  c #45CB45",
"'  c #47D147",
"]  c #49D549",
"[  c #4ADA4A",
"{  c #4EE44E",
"}  c #4FE84F",
"|  c #50EB50",
" . c #768086",
".. c #7E8385",
"X. c #788389",
"o. c #838587",
"O. c #848789",
"+. c #85898B",
"@. c #8A8D8E",
"#. c #838D93",
"$. c #8B8F92",
"%. c #879197",
"&. c #869299",
"*. c #8C9295",
"=. c #8A959B",
"-. c #8C989E",
";. c #919496",
":. c #919699",
">. c #959A9D",
",. c #999C9D",
"<. c #8F9CA3",
"1. c #949EA3",
"2. c #989EA1",
"3. c #97A1A6",
"4. c #96A3AA",
"5. c #9CA2A5",
"6. c #9BA5AB",
"7. c #9DA8AE",
"8. c #9CABB3",
"9. c #A2A4A5",
"0. c #A3A7A9",
"q. c #A4AAAD",
"w. c #A9ABAC",
"e. c #A4ADB3",
"r. c #AAAFB2",
"t. c #A5B3BC",
"y. c #ABB1B5",
"u. c #ACB5BA",
"i. c #B1B5B7",
"p. c #B2B6B9",
"a. c #B4BABD",
"s. c #BCBDBD",
"d. c #A8B7C0",
"f. c #ACBCC4",
"g. c #AEBFC9",
"h. c #B3BDC2",
"j. c #BABEC1",
"k. c #AFC0CA",
"l. c #B1C2CB",
"z. c #BCC1C4",
"x. c #BCC5CA",
"c. c #B7C7D0",
"v. c #B9C9D2",
"b. c #C0C3C4",
"n. c #C2C7C9",
"m. c #C4C9CC",
"M. c #C4CED3",
"N. c #CACED1",
"B. c #C2D2DB",
"V. c #CCD1D4",
"C. c #CBD5DA",
"Z. c #D3D6D7",
"A. c #D2D6D9",
"S. c #D5D9DB",
"D. c #DADCDC",
"F. c #CDDCE4",
"G. c #D0DDE5",
"H. c #D8DEE1",
"J. c #D6E4EC",
"K. c #DDE2E4",
"L. c #DBE6ED",
"P. c #E2E3E4",
"I. c #E1E7EA",
"U. c #E5EAEC",
"Y. c #EBEDED",
"T. c #E5EEF4",
"R. c #EAEEF1",
"E. c #ECF0F2",
"W. c #EDF8FD",
"Q. c #F3F5F5",
"!. c #F6F7F8",
"~. c #F6F8F9",
"^. c #FDFEFE",
/* pixels */
"{ { { { { { { { { { { { { { [ { { { { { { { { { { { { { { { [ { { { { { { { { { { { { { { ",
"{ { { { { { { { { { { { { { { { { { { { { { { { { { { { { { } { { { { { { { { { { { { { { ",
"{ { { { { { { { { { { { { { { { [ } { { { { { { { { { { { { { { { { { { { { { { { { { [ { ",
"{ { { { { { { { { { { { { { { { { { { { { { { { { { { { { { { { { { { { { { { { { { { { { ",
"{ { { { { { { { { { { { { { { { { { { { { { { { { [ { { { { { { { { { { { { { { { { { { { ",
"{ { { { { { { { { { { { { { { { { { { { { { { { { } { { { { { { { { { { { { [ { { { { { { ",
"{ { { { { { { { { { { { { { { { { { { { { { { { { { { { { { { { { { { { { { } { { { { { { ",
"{ { { { { { { { { { { { { { { { { { { { { { { { { { { { { { { { { { { { { { { { { { { { { ",
"{ { { { { { { { { { { { { { { { { { { { { { { { { { { { { { { { { { { { { { { { { { { { { ",
"{ { { { { { { { { { { { { { { { { { { { { { { } { { { { { { { { { { { { { { { { { { { { { ",
"{ { { { { { { { { { { { { { { { { { { { { } } } { } } } { { { { { { { { { { { { { { { { { ",
"{ { { { { { { { { { { { { { { { { { { { [ [ [ [ [ [ [ { { { { { { { { { { { { { { { { { { ",
"{ { { { { { { { { { { { { { { { { } { [ ' _ ) ) _ ` ' [ } } } } { { { { { { { { { { { { { ",
"{ [ { { { { { { { { { { { { { [ ] _ / Q E R g T g R R ( / ( _ ` ] { } { { { { { { { { { { ",
"{ { { { { { { { { { { { { { { ` ^ s 4 & , % % $ % % % , e u s E ( [ } { { { { { { { { { { ",
"{ { { { { { { { { { { { { } { / s * o                 . X % = y s R ( _ [ } } { { { { { { ",
"{ { { { { { { { { { { { { { [ R & X X X X X X X X X . . X X X X o & i E _ [ { } { { { { { ",
"{ { { { { { { { { { { { { ] / s o . X + @ > > > 1 ; ; X         . . % y f Q ] | { { { { { ",
"{ { { { { { { { { { { { } ` Y r X   o 1 w x n n m n k q 1 : + O X . . X & i ^ ] { { { { { ",
"{ { { { { { { { { { { { } ) a * X   + j A O.,.0.r.w.9.:.o.A x 3 + X . . o % u E [ } { { { ",
"{ { { { { { { { { { { { { / i $ .   @ x I i.n.V.V.V.N.n.s.0.+.A z 2 + . . X o u ^ ] { { { ",
"{ { { { { { { { { { { { ] ^ t $ .   @ x O.b.Z.b.j.p.s.j.b.n.n.s.,.A 0 X   . X $ i ~ { } { ",
"{ { { { { { { { { { { [ ` W t $ X   @ z @.m.m.i.0.0.0.w.i.j.n.m.j.2.G 0 + . . X , s ) [ { ",
"{ { { { { { { { { { } { ) Y t $ X   + z O.b.j.0.2.;.:.>.,.5.q.p.b.m.0.D 9 X . . o y R ` { ",
"{ { { { { { { { { { { [ ) Y t $ X   % k o.j.j.r.2.:.:.:.:.:.,.5.r.j.s.2.Z 8 O     # u / } ",
"{ { { [ { { { { { { } [ ) E t $ .   + k I p.j.p.e.9.2.2.:.*.*.:.2.w.a.j.$.M > . X . & E [ ",
"{ { { { { { { { { { { [ ) Y t $ .   + k K 2.h.j.j.j.h.r.5.>.;.*.;.>.e.a.r.X.w + X   o s Q ",
"{ { { { { { { { { { } [ ) E t * X   + q N L #.2.2.5.e.u.u.q.2.:.*.$.2.e.a.5.M 1 X   o r p ",
"{ { { { { { { { { { } [ ) E t * X . o > 9 j c c x m J 2.h.a.e.2.*.*.-.5.h.u.K h o   X $ 4 ",
"{ { { { { { { { { { } [ ) E a e X . X # + : : > : 1 w V X.0.a.e.>.*.*.>.u.p.*.M +   . # $ ",
"{ { { { { { { { { { } [ ) W g r #   X X X o X . X O X @ q X.h.u.6.:.*.:.q.u.5.G :   . o o ",
"{ { { { { { { { { { { [ ` ~ g t e #     . . . . . . . . + m *.r.y.2.*.*.6.y.u...5 X X X X ",
"{ { { { { { { { { { { { ' ^ U p t e $ # # # o # o o X   X 8 A 0.z.6.:.*.3.y.z.:.h + X . . ",
"{ { { { { { { { { { { { { ) U a a p t t r e e e e * o   X > n 0.x.q.>.*.2.y.x.3.x : X   . ",
"{ { { { { { { { { { { { } ` W U d d d a p p p p t r o   . o j 9.V.y.3.-.3.u.V.q.n : X . X ",
"{ { { { { { { { { { { { { ' ^ Y d a d a a a a a g t #   X   7 ,.C.z.q.3.6.a.C.r.m , X . . ",
"{ { { { { { { { { { { { { [ ` ^ Y g a a d a a d d p $       , ,.S.x.y.5.w.j.H.a.Z 3 X   . ",
"{ { { { { { { { { { { { { { { ` ^ W U U d g g d g t #       2 9.H.N.a.q.r.z.K.z.J 0 X   X ",
"{ { { { { { { { { { { { { { { ] ' ) / / ^ ~ ^ ! U p #   X   2 w.L.Z.z.r.i.m.T.N.P 0 X   . ",
"{ { { [ { { { { { { { { { { { { } { { [ ' ` ' _ Y t # . .   3 w.E.H.x.i.a.N.E.V.P q o   X ",
"{ { { { { { { { { { { { { { { { { { { { { [ { ' W i # . X   3 i.~.L.N.s.z.Z.Q.Z...q o . X ",
"{ { { { { { { { { { { { { { { { { { { { { { | [ W u % X X   3 s.~.R.Z.z.n.D.~.D.o.j o X X ",
"{ { { { { { { { { { { { { { { { { { { { { { } ] W i % X O   8 s.^.Q.D.m.N.P.!.D.+.l o X O ",
"{ { { { { { { { { { { { { { { { { { { { { { } [ W i % X O   8 s.^.^.P.N.Z.U.^.D.@.z + X O ",
"{ { { { { { { { { { { { { { { { { { { { { { } ] W i $ O O . 8 s.^.^.Y.D.P.Q.^.D.;.v + o O ",
"{ { { { { { { { { { { { { { { { { { { { { { } [ W u & O O . q s.^.^.Y.P.Y.!.^.D.,.n + O O ",
"{ { { { { { { { { { { { { { { { { { { { { { } ] W i & O O X q s.^.^.Q.Y.Q.^.^.D.,.n + o + ",
"{ { { { { { { { { { { { { { { { { { { { { { | ] W i , + + X q s.^.^.!.Q.!.^.^.P.9.m ; O + ",
"{ { { { { { { { { { { { { { { { { { { { { { } ] W i , + + O q s.^.^.^.!.^.^.^.P.w.N @ + + ",
"{ { { { { { { { { { { { { { { { { { { { { { } [ W i , + ; o q s.^.^.^.~.^.^.^.P.w.N : + @ ",
"[ { { { { { { { { { { { { { { { { { { { { { } ] E i , ; ; + h s.^.^.^.^.^.^.^.P.w.N > + : ",
"{ { { { { { { { { { { { { { { { { { { { { { } ] W i 4 ; ; + j s.^.^.^.^.^.^.^.P.w.Z > + : ",
"{ { { { { { { { { { { { { { { { { { { { { { } ] W i 4 : : + j s.^.^.^.!.~.^.^.P.w.N 1 : > ",
"{ { { { { { { { { { { { { [ { { { { { { { { } [ W i 4 : 1 ; j b.^.^.Q.Y.!.^.^.P.9.N 1 : 1 ",
"{ { { { { { { { { { { { { { { { { { { { { { } ] W i 5 : 1 ; l s.^.^.E.K.Y.~.^.P.,.N 2 : 1 ",
"{ { { { { { { { { { { { { { { { { { { { { { } [ W i 5 1 1 ; k b.^.^.I.A.D.Y.!.D.;.m 2 , 1 ",
"{ { { { { { { { { { { { { { { { { { { { { { } ] W i 6 2 2 : x j.^.Q.H.x.V.K.~.D.*.n 2 < 2 ",
"{ { { { { { { { { { { { { { { { { { { { { { } [ W i 6 1 2 : k z.^.R.C.z.v.K.~.D.+.v 2 1 < ",
"{ { { { { { { { { { { { { { { { { { { { { { { ] W i 6 1 2 : k h.W.L.M.a.z.A.Q.Z.O.v 2 1 5 ",
"{ { { { { { { { { { { { { { { { { { { { { { } ] Q i 6 2 2 : k u.T.F.x.t.a.M.T.C.o.x 3 1 2 ",
"{ { { { { { { { { { { { { { { { { { { { { { } [ W i 6 3 2 > k e.J.B.f.e.e.x.L.v.I x 3 2 2 ",
"{ { { { { { { { { { [ { { { { { { { { { { { } ] W i 6 3 2 > j 7.F.v.t.4.7.h.G.x.L x 3 2 2 ",
"{ { { { { { { { { { { { { { { { { { { { { { } [ W i 6 2 3 < j 3.B.l.8.1.4.u.F.f.J l 3 2 2 ",
"{ { { { { { { { { { { { { { { { { { { { { { } [ W i 8 2 2 < h <.v.f.7.<.<.t.M.t.D l 3 2 3 ",
"{ { { { { { { { { { { { { { { { { { { { { { } [ W p 6 2 3 < h =.k.d.<.#.=.8.v.t.F h 8 3 2 ",
"{ { { { { { { { { { { { { { { { { { [ { { { } ] W p 5 2 2 < h &.k.t.1.+.&.4.l.8.F h 3 2 2 ",
"{ { { [ { { { { { { { { { { { { { { { { { { | ] W t 5 2 2 > h &.k.d.4.&.=.4.l.8.F h 2 < 2 ",
"{ { { { { { { { { { { { { { { { { { { { { { } [ W p 4 4 < : h &.k.u.4.#.&.7.l.8.F h 1 > < ",
"{ { { { { { { { { { { { { { { { { { { { { { } ] Q i 4 : > : h &.l.d.4.+.&.4.k.8.F w < : > ",
"{ { { { { { { { { { { { { { { { { { { { { { } ] W i 4 : : @ h X.g.g.e.-.4.t.c.7.S w > : : ",
"{ { { { { { { { { { { { { { { { { { { { { { { [ W i 4 @ : + 9 X.d.k.f.t.u.h.k.4.S w : @ : ",
"{ { { { { { { { { { { { { { { { { { { { { { } ] W i , + @ + 7 H 4.d.f.g.l.f.t.&.C w @ @ + ",
"{ { { { { { { { { { { { { { { { { { { { { { { [ W i , + @ O < B I X.<.<.<.<.X.F b 9 + + + ",
"{ { { { { { { { { { { { { { { { { { { { { { } ] W i - % + + @ 1 9 q w w w w 9 7 < : + + o ",
"{ { { { { { { { { { { { { { { { { { { { { { } [ W p e & O O O X . X X X . X X X o O + o o ",
"{ { { { { { { { { { { { { { [ { { { { { { { { [ W p u = O o O o o O X O X X O O O X O & = ",
"{ { { [ { { { { { { { { { { { { { { { { { { } [ ! d p r * % o X . X . X X . X X o # = r t ",
"{ { { { { { { { { { { { { { { { { { { { { { } [ ^ U d p u - & o o o + o o o o # & - u p d ",
"{ { { { { { { { { { { { { { { { { { { { { { } [ / E g a p p u u t t t t t t t u u i p a d ",
"{ { { { { { { { { { { { { { { { { { { { { { { { ) W g d d d d d d d d d d d d d d d d d a "
};
