/* XPM */
static  xpm_row_t const number5[] = {
/* columns rows colors chars-per-pixel */
"36 46 153 2",
"   c #111111",
".  c #151F15",
"X  c #192D19",
"o  c #193119",
"O  c #1B3A1B",
"+  c #1F2122",
"@  c #212121",
"#  c #292A2B",
"$  c #273527",
"%  c #283628",
"&  c #2D3B2D",
"*  c #313436",
"=  c #33373A",
"-  c #35393B",
";  c #3A3B3C",
":  c #373D40",
">  c #1D451D",
",  c #234423",
"<  c #234923",
"1  c #284128",
"2  c #275427",
"3  c #2E552E",
"4  c #266326",
"5  c #256B25",
"6  c #2B622B",
"7  c #2C6A2C",
"8  c #267126",
"9  c #2D732D",
"0  c #2B7F2B",
"q  c #386A38",
"w  c #337433",
"e  c #337A33",
"r  c #3A763A",
"t  c #3D4041",
"y  c #434547",
"u  c #404548",
"i  c #4A4C4D",
"p  c #424B50",
"a  c #4F5254",
"s  c #4C5459",
"d  c #525355",
"f  c #545658",
"g  c #56585A",
"h  c #5A5B5C",
"j  c #5C5E60",
"k  c #5A6265",
"l  c #5F6669",
"z  c #646464",
"x  c #666768",
"c  c #676A6B",
"v  c #696C6D",
"b  c #65737C",
"n  c #6D7175",
"m  c #68767F",
"M  c #707478",
"N  c #757A7D",
"B  c #6C7A83",
"V  c #6E7E88",
"C  c #707E86",
"Z  c #797E81",
"A  c #318131",
"S  c #358F35",
"D  c #3F8E3F",
"F  c #359435",
"G  c #369F36",
"H  c #389738",
"J  c #3B9B3B",
"K  c #3BA53B",
"L  c #3CAC3C",
"P  c #3EB53E",
"I  c #41B941",
"U  c #44C544",
"Y  c #46CB46",
"T  c #49CB49",
"R  c #4AD64A",
"E  c #4BDB4B",
"W  c #4ee44e",
"Q  c #74828A",
"!  c #7D8285",
"~  c #7C868B",
"^  c #7B888F",
"/  c #7C8A92",
"(  c #7E909A",
")  c #818386",
"_  c #818688",
"`  c #84898C",
"'  c #898C8D",
"]  c #858D92",
"[  c #8A8E91",
"{  c #849198",
"}  c #8D9193",
"|  c #909395",
" . c #939698",
".. c #949A9C",
"X. c #8C99A0",
"o. c #8C9EA8",
"O. c #939DA4",
"+. c #92A3AC",
"@. c #9DA2A4",
"#. c #99A4AB",
"$. c #9FA8AE",
"%. c #93A7B3",
"&. c #9CABB4",
"*. c #9FB3BE",
"=. c #A2A2A2",
"-. c #A1A7AC",
";. c #A2A9AC",
":. c #ADADAD",
">. c #A6AEB3",
",. c #AAAEB1",
"<. c #A5B4BD",
"1. c #ABB0B2",
"2. c #ABB5BA",
"3. c #AFB8BD",
"4. c #B2B5B9",
"5. c #B4B9BC",
"6. c #B8BCBF",
"7. c #9FB4C0",
"8. c #A1B5C0",
"9. c #AFBEC7",
"0. c #A9BECA",
"q. c #B0BBC0",
"w. c #BBBEC1",
"e. c #B5C0C5",
"r. c #BCC1C3",
"t. c #BDC5C9",
"y. c #BCCED5",
"u. c #C0C4C5",
"i. c #C3C7CB",
"p. c #C4C8C9",
"a. c #CACCCD",
"s. c #C3CDD1",
"d. c #CBCED0",
"f. c #CED2D3",
"g. c #D2D4D5",
"h. c #D3D9DB",
"j. c #DFDFDF",
"k. c #D2DEE4",
"l. c #DDDEE0",
"z. c #DDE1E2",
"x. c #DFE5E9",
"c. c #E2E3E4",
"v. c #E0E7EB",
"b. c #E4EBEB",
"n. c #EAEAEA",
"m. c #E5EDF1",
"M. c #E9EEF1",
"N. c #E6F4FF",
"B. c #ECF0F2",
"V. c #F3F4F4",
"C. c #F2F7FA",
"Z. c #F6FCFE",
"A. c #FEFEFE",
/* pixels */
"W W W W W W W W W W W W W W W W W W W W W W W W W W W W W W W W W W W W ",
"W W W W W W W W W W W W W W W W W W W W W W W W W W W W W W W W W W W W ",
"W W W W W W W W W W W W W W W W W W W W W W W W W W W W W W W W W W W W ",
"W W W W W W W W W W W W W W W W W W W W W W W W W W W W W W W W W W W W ",
"W W W W W W W W W W W W W W W W W W W W W W W W W W W W W W W W W W W W ",
"W W W W W W W W W W W W W W W W W W W W W W W W W W W W W W W W W W W W ",
"W W W W W W W W W W W W W W W W W W W W W W W W W W W W W W W W W W W W ",
"W W W W W W W W W W W W W W W W W W W W W W W W W W W W W W W W W W W W ",
"W W W W W W W W W Y A A e A A A A A A A A A A A A A A A A L W W W W W W ",
"W W W W W W W W Y # d d f g f f f f f f f f g g g h d f f t L W W W W W ",
"W W W W W W W W G ; d.w.w.w.r.w.r.r.r.r.r.r.r.r.r.6.5.5.g.h 9 W W W W W ",
"W W W W W W W W F ; i.[  . ... . .| | | | | | | } ' ) N 4.f 4 W W W W W ",
"W W W W W W W W F - r.[  .| [ [ ' ' _ _ _ _ _ ) ) N N N ,.d 4 W W W W W ",
"W W W W W W W W F * 5.` [ ` _ Z N n M n n n n M n n n n -.a 4 W W W W W ",
"W W W W W W W W F * 2.~ ` ~ ] >.3.5.5.9.3.9.3.5.9.5.5.9.>.d 4 W W W W W ",
"W W W W W W W W F * 2._ _ Z 2.                            o K W W W W W ",
"W W W W W W W W F * 3.~ _ N 9.  8 8 8 8 7 8 8 5 8 8 5 8 8 G E W W W W W ",
"W W W W W W W W F & 3.~ ` ! e.  W W W W W W W W W W W W W W W W W W W W ",
"W W W W W W W W F - t.] } ] s.  W W W W W W W E W W W W W W W W W W W W ",
"W W W W W W W W F ; s. .....h.  W W W W W W W E W W W W W W W W W W W W ",
"W W W W W W W W F ; k.@.#.@.x.  0 e A A A A D I W W W W W W W W W W W W ",
"W W W W W W W W F y n.;.:.:.z.~ v c v v v c z 3 X A R W W W W W W W W W ",
"W W W W W W W W F i A.1.4.5.r.l.M.n.B.n.m.B.C.A.x.n # 9 W W W W W W W W ",
"W W W W W W W W F a A.5.6.r.r.r.r.t.r.u.t.t.p.p.h.A.V.v 7 Y W W W W W W ",
"W W W W W W W W H h A.a.a.a.a.d.d.d.d.d.f.f.g.g.g.g.n.A.' 6 W W W W W W ",
"W W W W W W W W F x A.j.l.j.j.j.j.l.l.l.j.j.j.c.c.c.c.n.A.) e W W W W W ",
"W W W W W W W W F v A.A.A.A.A.A.A.A.A.A.A.A.A.A.A.V.V.B.A.V.- Y W W W W ",
"W W W W W W W W U , @ @ + + @ @ @ @ . @ @ @ z =.V.A.A.A.A.A.:.w W W W W ",
"W W W W W W W W W G 8 5 8 8 8 5 8 5 8 8 8 8 4 < ; c.A.A.A.A.n.$ W W W W ",
"W W W W W W W W W W W W W W W W W W W W W W Y K 2 ; V.A.B.V.A.a T E W W ",
"W W W W W W W W W W W W W W W W W W W W W W W W P 1 a.C.h.g.A.z I E W W ",
"W W W W W W W W W W W W W W W W W W W W W W W W W 3 >.x.r.5.A.h J W W W ",
"W W W W W W W W W W W W W W W W W W W W W W W W E & n.t.>.>.A.f J W W W ",
"W W W W W W W W W W W W W W W W W W W W W W W R r M k.-.O.O.N.- I W W W ",
"W W W W W W W W W T D D D D D D D D D D D H q - n k.#.{ / o.%.& E W W W ",
"W W W W W W W W R t k k k k k k k l k l k l { y.0.X./ V Q 0.s 6 W W W W ",
"W W W W W W W W L t 0.&.<.<.<.<.<.<.<.<.<.*.o.( Q C b b ( / $ P W W W W ",
"W W W W W W W W J t 8.B Q ^ / / ^ ^ / / ^ Q Q B B b B ( 7.: 4 W W W W W ",
"W W W W W W W W J : *.b m V V B V V Q B B B B b b B +.o.* , P W W W W W ",
"W W W W W W W W H : <.b b b b b b b b b b b V ( %.0.s @ , K W W W W W W ",
"W W W W W W W W H : o.0.0.0.0.0.e.0.0.0.0.0.%.b t + O 4 P W W W W W W W ",
"W W W W W W W W U o                         . o > 5 K R W W W W W W W W ",
"W W W W W W W W W G 8 8 8 8 9 8 8 8 8 8 8 8 A F L E W W W W W W W W W W ",
"W W W W W W W W W W W E W W W W W W W W W W W W W W W W W W W W W W W W ",
"W W W W W W W W W W W W W W W W W W W W W W W W W W W W W W W W W W W W ",
"W W W W W W W W W W W W W W W W W W W W W W W W W W W W W W W W W W W W "
};
