/* XPM */
static  xpm_row_t const number6resize[] = {
/* columns rows colors chars-per-pixel */
"71 80 256 2",
"   c #121F12",
".  c #112611",
"X  c #1D251E",
"o  c #172C17",
"O  c #1B381B",
"+  c #1F2620",
"@  c #1F3322",
"#  c #202620",
"$  c #222A23",
"%  c #243D25",
"&  c #2B3C2D",
"*  c #253728",
"=  c #2E3D34",
"-  c #3A3A3D",
";  c #323936",
":  c #1F441E",
">  c #1D4B1D",
",  c #1E551D",
"<  c #224623",
"1  c #264229",
"2  c #224D22",
"3  c #29432B",
"4  c #2A4E2B",
"5  c #2C4130",
"6  c #235423",
"7  c #235C23",
"8  c #2A542B",
"9  c #2B5C2B",
"0  c #275628",
"q  c #2F5230",
"w  c #2F5C30",
"e  c #324535",
"r  c #34443B",
"t  c #334B34",
"y  c #3B4B3E",
"u  c #375339",
"i  c #39563A",
"p  c #385839",
"a  c #325B33",
"s  c #236423",
"d  c #266B26",
"f  c #2C652C",
"g  c #286C28",
"h  c #2A7329",
"j  c #2C7D2C",
"k  c #2F7630",
"l  c #316331",
"z  c #3B643E",
"x  c #3A693C",
"c  c #346935",
"v  c #337534",
"b  c #377738",
"n  c #337C34",
"m  c #3B743C",
"M  c #3A7C3B",
"N  c #3B4542",
"B  c #3D4B43",
"V  c #3C4847",
"C  c #3D5C40",
"Z  c #3F6141",
"A  c #3F7A40",
"S  c #424C4B",
"D  c #434A47",
"F  c #4D4E53",
"G  c #444E50",
"H  c #4B544C",
"J  c #455749",
"K  c #4B5355",
"L  c #4E5A53",
"P  c #4E575A",
"I  c #515B54",
"U  c #565D5B",
"Y  c #525556",
"T  c #555C62",
"R  c #436C45",
"E  c #466D48",
"W  c #466949",
"Q  c #4D6D51",
"!  c #4D6253",
"~  c #427443",
"^  c #467C49",
"/  c #47774A",
"(  c #516B55",
")  c #546C5A",
"_  c #5B635F",
"`  c #566559",
"'  c #557757",
"]  c #5A6B63",
"[  c #596668",
"{  c #5E7160",
"}  c #656B6D",
"|  c #696C6D",
" . c #636967",
".. c #666D73",
"X. c #65736A",
"o. c #6A756C",
"O. c #6E786F",
"+. c #627767",
"@. c #657175",
"#. c #66747E",
"$. c #6D7475",
"%. c #69757C",
"&. c #6D7A73",
"*. c #6E787B",
"=. c #717677",
"-. c #727679",
";. c #757A7D",
":. c #787B7E",
">. c #717A77",
",. c #687780",
"<. c #6C7B84",
"1. c #6F7F88",
"2. c #677680",
"3. c #727E84",
"4. c #717E88",
"5. c #7A7E82",
"6. c #2E842E",
"7. c #2F892F",
"8. c #348334",
"9. c #348B34",
"0. c #378F38",
"q. c #3D873D",
"w. c #3A8B3A",
"e. c #349234",
"r. c #359B34",
"t. c #3B953B",
"y. c #3B9C3B",
"u. c #379138",
"i. c #37A337",
"p. c #3AA63A",
"a. c #3BAC3B",
"s. c #3DB33D",
"d. c #3FBA3F",
"f. c #40AA3F",
"g. c #40BB3F",
"h. c #428444",
"j. c #408940",
"k. c #449745",
"l. c #568657",
"z. c #42A642",
"x. c #42B642",
"c. c #42BC42",
"v. c #6E816F",
"b. c #6F8172",
"n. c #7A827B",
"m. c #758877",
"M. c #43C343",
"N. c #45CC45",
"B. c #48CE48",
"V. c #47D247",
"C. c #49D549",
"Z. c #4ADC4A",
"A. c #4DE34D",
"S. c #4EE84E",
"D. c #74838B",
"F. c #7C8284",
"G. c #7B858C",
"H. c #7D898D",
"J. c #788983",
"K. c #778791",
"L. c #778892",
"P. c #7D8790",
"I. c #7B8B94",
"U. c #7E8E98",
"Y. c #7F909A",
"T. c #817E84",
"R. c #828287",
"E. c #83868A",
"W. c #858A8C",
"Q. c #8A8C8F",
"!. c #838B85",
"~. c #838D93",
"^. c #8B8E92",
"/. c #82908A",
"(. c #859195",
"). c #84929B",
"_. c #8C9294",
"`. c #8B959B",
"'. c #8F999E",
"]. c #908F94",
"[. c #919396",
"{. c #91969A",
"}. c #949995",
"|. c #949A9D",
" X c #989D9B",
".X c #8799A3",
"XX c #8B9BA4",
"oX c #8D9EA8",
"OX c #949DA2",
"+X c #999EA1",
"@X c #8EA1AB",
"#X c #8CA1A6",
"$X c #95A0A7",
"%X c #93A3AC",
"&X c #9CA2A5",
"*X c #9BA4AA",
"=X c #9EAAAE",
"-X c #92A6B1",
";X c #97AAB4",
":X c #9CABB4",
">X c #99ADB8",
",X c #9EB0B8",
"<X c #A2A4A6",
"1X c #A3A7AA",
"2X c #A4AAAC",
"3X c #AAABAE",
"4X c #A3ADB3",
"5X c #AAAEB1",
"6X c #ADB0AF",
"7X c #A4B3BB",
"8X c #ADB1B4",
"9X c #ABB4BA",
"0X c #B2B3B4",
"qX c #B1B6BA",
"wX c #B6BABC",
"eX c #BDBCBE",
"rX c #ACBAC1",
"tX c #B3BCC2",
"yX c #BBBEC1",
"uX c #BEC1C4",
"iX c #BCC6CA",
"pX c #BDC8CE",
"aX c #B5C0C8",
"sX c #BECBD4",
"dX c #C2C4C5",
"fX c #C2C6C9",
"gX c #C6CACC",
"hX c #CACCCE",
"jX c #CAC7CB",
"kX c #C4CCD2",
"lX c #C4CFD8",
"zX c #CBCFD0",
"xX c #CED0CF",
"cX c #CCD1D4",
"vX c #CDD6DD",
"bX c #D1CFD2",
"nX c #D1D3D4",
"mX c #D5D9DA",
"MX c #DADBDC",
"NX c #D3D6D8",
"BX c #CFDCE6",
"VX c #D3DCE3",
"CX c #DDDFE0",
"ZX c #DDE1E3",
"AX c #D6E2EB",
"SX c #E3E4E5",
"DX c #E3E7E9",
"FX c #E6E8EA",
"GX c #EAEBEC",
"HX c #EEEFF0",
"JX c #E2EBF1",
"KX c #EDF1F3",
"LX c #F3F3F4",
"PX c #F6F7F8",
"IX c #F7F9FA",
"UX c #FCFCFC",
/* pixels */
"A.A.A.A.A.A.A.A.A.A.A.A.A.A.A.A.A.A.A.A.A.A.A.A.A.A.A.A.A.A.A.A.A.A.A.A.A.A.A.A.A.A.A.A.A.A.A.A.A.A.A.A.A.A.A.A.A.A.A.A.A.Z.A.A.A.A.A.A.A.A.A.",
"A.A.A.A.A.A.A.A.A.A.A.A.A.A.A.A.A.A.A.A.A.A.A.A.A.A.A.A.A.A.A.A.A.A.A.A.A.Z.A.A.A.A.A.A.A.A.A.A.A.A.A.A.A.A.A.A.A.A.A.A.A.A.A.A.A.A.A.A.A.A.A.",
"A.A.A.A.A.A.A.Z.A.A.A.A.A.A.A.A.A.A.A.A.A.A.A.A.A.A.A.A.A.A.A.A.A.A.A.A.A.A.A.A.A.A.A.A.A.Z.A.A.A.A.A.A.A.A.A.A.A.A.A.A.A.A.A.A.A.Z.A.A.A.A.A.",
"A.A.A.A.A.A.A.A.A.A.A.A.Z.A.A.A.A.A.A.A.A.Z.A.A.A.A.A.A.A.A.A.A.A.A.A.A.A.A.A.A.A.A.A.A.A.A.A.A.A.A.A.A.A.A.A.A.A.A.A.A.A.A.A.A.A.A.A.A.A.A.A.",
"A.A.A.A.A.A.A.A.A.A.A.A.A.A.A.A.A.A.A.A.A.A.A.A.A.A.A.A.A.A.A.A.A.A.A.A.A.A.A.A.A.A.A.A.A.A.A.A.A.A.A.A.A.A.A.A.A.A.A.A.A.A.A.A.A.A.A.A.A.A.A.",
"A.A.A.A.A.A.A.A.A.A.A.A.A.A.A.A.A.A.A.A.A.Z.A.A.A.A.A.A.A.A.A.A.A.A.A.A.A.A.A.A.A.A.A.A.A.A.A.A.A.A.A.A.A.A.A.A.A.A.A.A.A.A.A.A.A.A.A.A.A.A.A.",
"A.A.A.A.A.A.A.A.A.A.A.A.A.A.A.A.A.A.A.A.A.A.A.A.A.A.A.A.Z.A.A.A.A.A.A.A.A.A.A.A.A.A.A.A.A.A.A.A.A.A.A.A.A.A.A.A.A.A.A.A.A.A.A.A.A.A.A.A.A.A.A.",
"A.A.A.A.A.A.A.A.A.A.A.A.A.A.A.A.A.A.A.A.A.A.A.A.A.A.A.A.A.A.A.A.A.A.A.A.A.A.A.A.A.A.A.A.A.A.A.A.A.A.A.A.Z.A.A.A.A.A.A.A.A.A.A.A.A.A.A.A.A.A.A.",
"A.Z.A.A.A.A.A.A.A.A.A.A.A.A.A.A.A.A.A.A.A.A.A.A.A.A.A.A.A.A.A.A.Z.A.A.A.A.A.A.A.A.A.A.A.A.A.A.A.A.A.A.A.A.A.A.A.A.Z.A.A.A.A.A.A.A.A.A.A.A.Z.A.",
"A.A.A.A.A.A.A.A.A.A.Z.A.A.A.A.A.A.A.A.A.A.A.A.A.A.A.A.A.A.A.A.A.A.A.A.A.A.A.A.A.A.A.A.A.A.A.A.A.A.A.A.A.A.A.A.A.A.A.A.A.A.A.A.A.A.A.A.A.A.A.A.",
"A.A.A.A.A.A.A.A.A.A.A.A.A.A.A.A.A.A.A.A.A.A.A.A.A.A.A.A.A.A.A.A.A.A.A.A.A.A.A.A.A.A.A.A.A.A.A.A.A.A.A.A.A.A.A.A.A.A.A.A.A.A.A.A.A.A.A.A.A.A.A.",
"A.A.A.A.A.A.A.A.A.A.A.A.A.A.A.A.A.A.A.A.A.A.A.A.A.A.A.A.A.A.A.A.A.A.A.A.A.A.A.A.A.A.A.A.A.A.A.A.A.A.A.A.A.A.A.A.A.A.A.A.A.A.A.A.A.A.A.A.A.A.A.",
"A.A.A.A.A.A.A.A.A.A.A.A.A.A.A.A.Z.A.A.A.A.A.A.A.A.A.A.A.A.A.A.A.A.A.A.A.A.A.A.A.A.S.A.A.S.A.A.A.A.A.A.A.A.A.A.A.A.A.A.A.A.A.A.A.A.A.A.A.A.A.A.",
"A.A.A.A.A.A.A.A.Z.A.A.A.A.A.A.A.A.A.A.A.A.A.A.A.A.A.A.A.A.A.A.A.A.A.A.A.A.C.V.V.N.N.N.N.N.B.N.N.N.N.N.B.N.V.A.A.A.A.A.A.A.A.A.A.A.A.A.A.A.A.A.",
"A.A.A.A.A.A.A.A.A.A.A.A.A.A.A.A.A.A.A.A.A.A.A.A.A.A.A.A.A.A.A.A.A.A.A.A.N.s.a.y.e.e.e.9.e.9.u.e.e.9.e.0.0.a.V.Z.A.A.A.A.A.A.A.A.A.A.A.A.A.A.A.",
"A.A.A.A.A.A.A.A.A.A.A.A.A.A.A.A.A.A.A.A.A.A.A.A.A.A.A.A.A.S.A.B.g.a.r.7.n v b m x x x x x x x x x x x x x M f.N.A.A.A.A.Z.A.A.A.A.A.A.A.A.A.A.",
"A.A.A.A.A.A.A.A.A.A.A.A.A.A.A.A.A.A.A.A.A.A.A.A.A.A.A.A.Z.Z.V.f.8.f < $ ; D H L U U U U U U U U U U U U U J c a.A.A.A.A.A.A.A.A.A.A.A.A.A.A.Z.",
"A.A.A.A.A.A.Z.A.A.A.A.A.A.A.Z.A.A.A.A.A.A.A.A.A.A.S.S.C.s.9.h x W ( o.:.Q.].]._.[.[.[.[.[.^.[.].Q.Q.Q.].^. .< 9.A.S.A.A.A.A.A.A.A.A.A.A.A.A.A.",
"A.A.A.A.A.A.A.A.A.A.A.A.A.A.A.A.A.A.A.A.A.A.A.A.Z.C.V.f.n w e I $.E.2XgXhXjXdXyXeXwXwXwXeX0XqX0X8X5X3X0XuX:.# j A.A.A.A.A.A.A.A.A.A.A.A.A.A.A.",
"A.A.A.A.A.A.A.A.A.A.A.A.A.A.A.A.A.A.A.A.A.A.A.Z.M.y.h 9 J o._.<X3X<X2X3X3X<X<X<X<X<X+X<X<X+X X{.{._.^.&XdXR.# j A.A.A.A.A.A.A.A.A.A.A.A.A.A.A.",
"A.A.A.A.A.A.A.A.A.A.A.A.A.A.A.A.A.A.A.A.A.A.C.c.9.c u L $. XwXyXwX3X+X{._.Q._.Q.^.Q.Q._.Q.W.E.R.5.5.5.^.uXR.# j A.S.A.A.A.A.A.A.A.A.A.A.A.A.A.",
"A.A.A.A.A.A.A.A.A.A.A.A.A.A.A.A.A.A.A.A.S.A.s.8.4 D >. X0X3X<X+X X]._.Q.W.W.Q.W.E.E.E.E.G.G.F.;.:.5.;.Q.uXT.# j A.A.A.A.A.A.A.A.A.A.A.A.A.A.A.",
"A.A.A.A.A.A.A.A.A.A.A.A.A.A.A.A.A.A.A.A.C.d.8.8 K -.|.5X5X<X[.^.W.E.R.F.F.F.F.:.:.:.:.;.;.;.-.$.$.-.$.W.yXT.# j A.A.A.A.A.A.A.A.A.A.A.A.A.Z.A.",
"A.A.A.A.A.A.A.A.A.A.A.A.A.A.A.A.A.A.A.A.c.n q D W.5X<X+X^.Q.W.F.F.5.5.:.:.:.:.-.;.;.;.-.-.-.-.-.-.-.$.W.8X:.# j A.A.A.A.A.A.A.A.A.A.A.A.A.A.A.",
"A.A.A.Z.A.A.A.A.A.A.A.A.A.A.A.A.A.S.C.c.8.8 L F.+X1X|.^.E.F.F.5.-.-.F.E.`.|.OX&X&X*X*X&X*X&X&X*X*X&X&X1X<X| X j A.S.A.A.A.A.A.A.A.A.A.A.A.A.A.",
"A.A.A.A.A.A.A.A.A.A.A.A.A.A.A.A.A.A.N.9.w D ;.4X&X{.~.R.F.F.5.5.F.R.G.I.(.XX|.OX+X+X+X+XOX+X XOXOXOX$X{.F.F X 7.A.A.A.A.A.A.A.A.A.A.A.A.A.A.A.",
"A.A.A.A.A.A.A.A.A.A.A.A.A.A.A.A.A.A.x.6 N 3.|.*X{.Q.E.G.5.3.D.Q.|.*XQ.@.T K S D r - ; e - - - - - - - - ; # O 7.A.S.A.A.A.A.A.A.A.A.A.A.A.A.A.",
"A.A.A.A.A.A.Z.A.A.A.A.A.A.A.A.A.Z.M.u.3 F OX2X{._.E.G.G.5.I.(.~.E.G.} B e * * X . . . . . . . . . . . . . o 7 i.A.A.A.A.A.A.A.A.A.A.A.A.A.A.A.",
"A.A.A.A.A.A.A.A.A.A.A.A.A.Z.A.A.Z.r.f S $.&X*X^.Q.E.G.F.F.OX*X*.F ; & < < 6 6 s s s s s s s s s s s s s s h e.M.A.A.Z.A.A.A.A.A.A.A.A.A.A.A.A.",
"A.A.A.A.A.A.A.A.A.A.A.A.A.A.A.A.N.j t $.{.+X|.^.W.E.F.Q.|._.;.K & O > d h 6.e.r.i.i.a.i.a.i.i.i.a.i.i.a.p.s.M.V.A.A.A.A.A.A.A.A.A.A.A.A.A.A.A.",
"A.A.A.A.A.A.A.A.A.A.A.A.A.A.A.V.f.9 V |.9X{.~.(.W.E.W.|.*X*.y % : s j p.s.g.N.V.A.Z.A.A.A.C.Z.A.A.A.A.A.A.Z.A.A.A.A.A.A.A.A.A.A.A.Z.A.A.A.A.A.",
"A.A.A.A.A.A.A.A.A.A.A.A.A.A.A.d.8.u T +X5X_.^.(.^._.'.OX_.U * s 6.i.d.N.V.V.Z.A.A.A.A.S.A.A.A.A.A.A.A.A.A.A.A.A.A.A.A.A.A.A.A.A.A.A.A.A.A.A.A.",
"A.A.A.A.A.A.A.A.A.A.A.A.A.A.A.i.0 ! J.OX&X{._._._.|.4X{.o.y , 7.c.V.Z.A.A.A.S.A.A.A.A.A.A.A.A.A.A.A.A.A.A.A.A.A.A.A.A.A.A.A.A.A.A.A.A.A.A.A.A.",
"A.A.A.A.A.A.A.A.A.A.A.A.A.A.A.7.* *.7X2X&X{.{.{.|.2XfX XD 1 h s.Z.A.A.A.S.A.S.A.A.A.A.A.A.S.A.A.A.A.S.A.A.A.A.A.A.A.A.A.A.A.A.A.A.A.A.A.A.A.A.",
"A.A.A.A.A.A.A.A.A.A.A.A.A.A.V.6.= ~.kX4X X+X X&X*X8XdXE.& : j a.N.M.M.M.M.M.M.M.M.M.M.M.M.M.M.M.M.V.C.A.A.S.A.A.A.A.A.A.A.A.A.A.A.A.A.Z.A.A.A.",
"A.Z.A.A.A.A.A.A.A.A.A.A.A.C.f.b H &XlX8X&X&X&X&X0XqX<XO.1 , h 6.9.9.9.9.9.9.9.9.9.9.9.9.0.9.9.9.r.i.d.N.Z.A.A.A.A.A.A.A.A.A.A.A.A.A.A.A.A.A.A.",
"A.A.A.A.A.A.A.A.A.A.A.A.A.N.e.x T 1XnX8X*X3X<X2XwXeX2XF.J Z R E E E E E E E E E E E E E E E E E A x v j 6.r.g.C.A.S.A.A.A.A.A.Z.A.A.A.A.A.A.A.",
"A.A.A.A.A.A.A.A.A.A.A.A.S.g.j Z $.3XzXwX6X6X3X8XyXfXwX$XF.b.>.=.>.-.=.-.-.-.=.=.-.-.$.*.=.>.>.&.| [ F D t l w.x.Z.Z.Z.A.A.A.A.A.A.A.A.A.A.A.A.",
"A.A.A.A.A.A.A.A.A.A.A.A.S.g.s ! ].yXzXwX8X0XqXqXyXiXgXgXfXiXuXuXuXuXuXuXuXuXuXuXuXuXyXuXuXuXuXuXyXyXyX5X}.O.Q M e.g.V.A.A.A.A.A.A.A.A.A.A.A.A.",
"A.A.A.A.A.A.A.A.A.A.A.A.S.f.2 _ 8XzXbXyXwXyXwXwXyXiXcXmXZXZXDXDXDXDXFXAXDXDXDXDXDXDXDXDXDXDXDXFXGXLXLXHXmX0Xn.) m t.g.V.A.A.A.A.A.A.A.A.A.A.A.",
"A.A.A.A.A.A.A.A.A.A.A.A.S.a.2 { yXNXnXfXuXdXuXeXeXdXdXgXgXhXhXgXgXhXhXgXgXgXgXgXgXgXhXhXhXhXxXxXxXxXnXmXMXCXmX6Xb.A 6.g.V.A.A.A.A.A.A.A.A.A.A.",
"A.A.A.A.A.A.A.A.A.A.A.A.S.a.2 X.dXSXCXxXgXfXdXgXjXjXdXdXuXuXuXeXuXuXuXuXdXeXdXdXdXyXuXuXdXdXdXdXfXdXgXhXmXSXLXMX0XO./ t.g.Z.A.A.A.A.A.A.A.A.A.",
"A.A.A.A.A.A.A.A.A.A.A.A.S.a., o.hXGXGXMXxXnXnXnXbXbXjXxXhXxXhXxXhXhXhXhXhXhXhXjXhXhXhXhXjXjXbXbXnXnXbXbXbXMXCXHXFX0Xm.x y.Z.A.A.A.A.A.A.A.A.A.",
"A.A.A.A.A.Z.A.A.A.A.A.A.S.a.2 o.xXKXLXSXMXMXMXCXSXGXGXGXFXFXFXFXFXFXFXFXFXGXGXFXFXFXGXFXGXGXGXGXFXSXMXMXMXMXZXGXLXCX6X{ h.c.Z.A.A.A.A.A.A.A.A.",
"A.A.A.A.A.A.A.A.A.A.A.A.S.f.6 o.xXLXUXGXSXSXSXHXLXPXLXLXLXLXLXLXLXLXLXLXLXLXHXLXLXLXLXLXLXLXLXLXLXLXGXSXFXFXSXGXGXUXMX].l.y.M.A.A.A.A.A.A.A.A.",
"A.A.A.A.A.A.A.A.A.A.A.A.S.f.6 o.xXHXUXLXHXHXLXPXHXCXxXeXeXeXeXeXeXeXeXeXeXeXeXeXeXeXeXeXeXeXjXnXFXPXPXPXLXKXGXGXLXUXHXdXn.l a.A.A.A.A.A.A.A.A.",
"A.A.A.A.A.A.A.A.A.A.A.A.S.g.8 O.xXHXUXPXLXLXUXUXGXdX}.n.n.n.n.n.n.n.n.n.n.n.n.n.n.n.n.m.:.n.!.}.6XhXSXPXIXIXPXLXLXUXUXFX}.u y.Z.A.A.A.A.A.A.A.",
"A.A.A.A.A.A.A.A.A.A.A.A.S.a.0 O.xXLXUXUXUXUXUXPXGX0XI e p p p p u p p p p p p p p p p p a p p i H  .6XCXPXUXUXUXUXUXUXPX3XI k.V.A.A.A.A.A.A.A.",
"A.A.A.A.A.A.A.A.A.A.A.A.A.f.9 o.dXGXUXUXUXUXUXUXGX0XB : s g g g g d d g d d g d g g g g g g d s 6 t | 3XGXUXUXUXUXUXUXUXyXo.k.c.Z.A.A.A.A.A.A.",
"A.A.A.A.A.Z.A.A.A.A.A.A.S.g.f { 6XSXUXUXUXUXUXUXPXeXH 6 e.f.p.p.p.p.a.p.p.p.a.p.a.p.p.p.p.p.i.r.j 9 t | jXPXUXUXUXUXUXUXjX!.l.z.B.A.A.A.A.A.A.",
"A.A.A.A.A.A.A.A.A.A.A.A.S.g.n { <XMXUXIXIXIXPXIXUXjX_ c x.N.N.V.N.N.N.N.N.N.N.N.N.N.N.N.B.N.B.M.f.9.8 I 3XCXUXUXIXPXUXUXbX}.l.t.B.A.A.A.A.A.A.",
"A.A.A.Z.A.A.A.A.A.A.A.A.A.M.9.' W.bXUXLXHXKXGXLXUXMX:./ c.C.A.A.A.S.A.A.A.S.A.A.A.A.A.A.A.A.A.A.Z.g.n Z !.dXPXIXHXGXKXUXbX X' 9.N.S.A.A.A.A.A.",
"A.A.A.A.A.A.A.A.A.A.A.A.A.N.f.~ | dXUXFXCXCXCXZXUXCXQ.' z.M.A.A.A.A.A.S.A.A.A.A.A.A.S.A.A.A.A.A.A.V.e.m O.0XLXKXZXMXFXIXbX_.' 8.N.A.A.A.A.A.A.",
"A.A.A.A.A.A.A.A.A.A.A.A.S.C.g.v H 0XLXCXvXcXzXNXGXSX6Xm.m f.A.A.A.A.A.A.A.A.A.A.A.A.A.A.A.A.A.A.A.Z.f.A o.6XKXFXcXhXVXPXhX!.Q n M.A.A.A.A.A.A.",
"A.A.A.A.A.A.A.A.A.A.A.A.A.Z.N.n y <XGXMXkXfXuXfXnXCXCX Xi u.Z.A.A.A.A.A.A.A.A.A.A.A.A.A.A.A.A.A.A.Z.r.~ O.8XKXZXuXtXcXKXfXF.E 8.N.A.A.A.A.A.A.",
"A.A.A.A.A.A.A.A.A.A.A.A.A.A.Z.0.t R.yXvXlXyXqXyXdXNXGX8XI A x.Z.S.A.A.A.A.A.A.A.A.A.A.A.A.A.A.A.S.Z.e.E !.eXZXcXqX9XpXJXuX:.W 8.N.A.A.A.A.A.A.",
"A.A.A.A.A.A.A.A.A.A.A.A.A.A.A.f.a ` Q.kXBX9X7X9X9XpXZXuXn.' j.c.A.A.A.A.A.A.A.A.A.A.A.A.A.A.A.Z.A.B.b ( 2XgXkXtX4X:XtXAXtX*.W 8.N.A.A.A.A.A.A.",
"Z.A.A.A.A.A.A.A.A.A.A.A.A.A.A.g.9.i } sXBX7X2X4X8XqXkXkXtXH.Q j.a.M.Z.S.A.A.A.S.S.A.A.S.S.S.A.B.x.t.R &.iXvXtX4X&X&XrXAX9X .R w.N.A.A.A.A.A.A.",
"A.A.A.A.A.A.A.A.A.A.A.A.A.A.A.N.a.l P 7XkX7X=X+X*X:X4XpXBX4X&.' ^ k.c.B.C.C.Z.C.C.C.C.C.C.V.M.z.h./ X._.lXlX4XOXXX'.9XBX1XI x y.N.A.A.A.A.A.A.",
"A.A.A.A.A.A.A.A.A.A.A.A.A.A.A.Z.M.v B @.OXrX7XXX'.OX$X4XtXaX9X(.{ W Z M q.t.p.f.z.z.z.y.q.M x Z ) J.:XtXrX4X|.).~.).:XlX`.y b x.Z.A.A.A.A.A.A.",
"A.A.A.A.A.A.A.A.A.A.A.A.A.A.A.A.C.t.a B @.,X7X`.(.(.`.XX%X9XpX4X(.%.[ ) Q / h.h.^ ^ ^ / / Q _ } G.*XtXtX*X(.I.L.L..X-X:X@.e 0.V.A.A.A.A.A.A.A.",
"A.A.A.A.A.A.A.A.A.A.A.A.A.A.A.A.Z.d.9.t P ).@X.XI.G.I.~.(.|.*X:X7X7X>XoXL.&.] [ ] ] ] X.n.`.:XrXrX:X*XXX~.K.D.<.K.-XOX@.J q i.A.A.A.A.A.A.A.A.",
"A.A.A.A.A.A.A.A.A.A.A.A.A.A.A.A.A.N.p.f y [ I.-X).D.D.D.I.~.^.XX;X9X7X>XOX^.I.G.P.P.P.~..X$X7X7X:XXX~.D.4.<.<.<.L.-X).F t v x.A.A.A.A.A.A.A.Z.",
"A.A.A.A.A.A.A.A.A.A.A.A.A.A.A.A.A.A.M.8.q r @.#X.XG.<.1.D.D.D.I.P.~.)..XOX%X;X:X>X>X:X=X$XXX`.I.I.D.1.<.,.,.,.K.)..X3.N w i.N.A.A.A.A.A.A.A.A.",
"A.A.A.A.A.A.A.A.A.A.A.A.A.A.A.A.Z.A.V.f.h 3 D } (.#XI.D.<.<.<.D.D.D.L.I.).XXXXXX.X#XXX`.Y.U.L.4.<.<.2.#.#.2.D.XX@X2.G 5 k M.Z.A.A.A.A.A.A.A.A.",
"A.A.A.A.A.A.A.A.A.A.A.A.A.A.A.A.A.A.A.N.f.f 3 y <.XX).L.K.<.<.<.1.D.D.D.G.K.K.K.D.D.K.D.D.1.<.<.,.,.#.2.<.K.U.XXU.P 5 0 u.C.A.A.A.A.A.A.A.A.A.",
"A.A.A.A.A.A.A.Z.A.A.A.A.A.A.A.A.A.A.A.Z.M.e.f 3 N T D..X@XY.D.,.,.<.<.<.<.D.%.,.,.1.<.<.,.,.2.2.#.2.<.K.XXoX).%.G e 0 7.d.Z.A.A.A.A.A.A.A.A.A.",
"A.A.A.A.A.A.A.A.A.A.A.A.A.A.A.A.A.A.A.A.C.g.9.7 % = [ *.Y.Y.Y.L.L.D.D.<.<.#.#.#.#.#.#.#.,.<.1.D.K.L.U.U.).K.} S = 0 n s.V.A.A.A.A.A.A.A.A.A.A.",
"A.A.A.A.A.A.A.A.A.A.A.A.A.A.A.A.A.A.A.A.A.C.g.r.f 2 @ r P D..X-X@XY.Y.D.<.,.2.2.#.#.,.<.1.L.U..X-X;X-XU.[ V & @ 0 8.a.V.A.A.A.A.A.A.A.A.A.A.A.",
"A.A.A.A.A.A.A.A.A.A.A.A.A.A.A.A.A.A.A.A.A.A.C.g.r.h , : 5 V [ ,.D.D.K.L..XoX.XXXOX#XoXY.U.L.K.1.1.D.@.P N 1 > d 6.s.N.A.S.A.A.A.A.A.A.A.A.A.A.",
"A.A.A.A.A.A.A.A.A.A.A.Z.A.A.A.A.A.A.A.A.A.A.A.A.M.a.e.h , @ @ e V T ..1..X>X;X>X7X4X;X.XL.<.[ V V N * @ : s 6.i.d.V.A.A.A.A.A.A.A.A.A.A.A.A.A.",
"A.A.A.A.A.A.A.A.A.A.A.A.A.A.A.A.A.A.A.A.A.A.A.A.Z.V.M.a.7.g , < @ & N V V K K K Y Y K G V V r 1 @ < > 7 j r.g.N.Z.Z.S.A.Z.A.Z.A.A.A.A.A.A.A.A.",
"A.A.A.A.A.A.A.A.A.A.A.A.A.A.A.A.A.A.A.A.A.A.A.A.A.A.A.V.g.p.e.h 7 > : @ o . .     . . . O @ > , s g 6.r.s.N.Z.S.A.A.A.A.A.A.A.A.A.A.A.A.A.A.A.",
"A.A.Z.A.A.A.A.A.A.A.A.A.A.A.A.A.A.A.A.A.A.A.A.A.A.A.A.A.Z.V.M.a.r.7.j h s , , , , , , s d g 6.e.r.a.M.V.C.Z.A.A.A.A.A.A.A.A.A.A.A.A.A.A.A.A.A.",
"A.A.A.A.A.A.A.A.A.A.A.A.A.A.A.A.A.A.A.A.A.A.A.A.A.A.A.A.A.A.A.V.M.g.s.a.i.r.r.r.r.r.r.i.i.a.s.g.N.V.Z.S.S.A.A.A.A.A.A.A.A.A.A.A.A.A.A.A.A.A.A.",
"A.A.A.A.Z.A.A.A.A.A.A.A.A.A.A.A.A.A.A.A.A.A.A.A.A.A.A.A.A.A.A.A.A.Z.Z.Z.C.C.V.C.V.V.V.Z.C.A.Z.A.Z.A.A.Z.A.A.A.A.A.A.A.A.A.A.A.A.A.A.Z.A.A.A.A.",
"A.A.A.A.A.A.A.A.A.A.A.A.A.A.A.A.A.A.A.A.A.A.A.A.A.A.A.A.A.A.A.A.A.A.S.A.A.S.S.A.A.S.S.S.A.A.A.A.S.A.A.A.A.Z.A.A.A.A.A.A.A.A.A.A.A.A.A.A.A.A.A.",
"A.A.A.A.A.A.A.A.A.A.A.A.Z.A.A.A.A.A.A.A.A.A.A.A.A.A.A.A.A.A.A.A.A.A.A.A.A.A.A.A.A.A.A.A.A.A.A.A.A.A.A.A.A.A.A.A.Z.A.A.A.A.A.A.A.A.A.A.A.A.A.A.",
"A.A.A.A.A.A.A.A.A.A.A.A.A.A.A.A.A.A.A.A.A.A.A.A.A.A.A.A.A.A.A.A.A.A.A.A.A.A.A.A.A.A.A.A.A.A.A.A.A.A.A.A.A.A.A.A.A.A.A.A.A.A.A.A.A.A.A.A.A.A.A.",
"A.A.A.A.A.A.A.A.A.A.A.A.A.A.A.A.A.A.A.A.A.A.A.A.A.A.A.A.A.A.A.A.A.A.A.A.A.A.A.A.A.A.A.A.A.A.Z.A.A.A.A.A.A.A.A.A.A.A.A.A.A.A.A.A.A.A.A.A.A.A.A."
};
