/* XPM */
static  xpm_row_t const number3[] = {
/* columns rows colors chars-per-pixel */
"33 46 152 2",
"   c #111111",
".  c #131B13",
"X  c #1A1A1A",
"o  c #1F1F20",
"O  c #142014",
"+  c #162A16",
"@  c #1A241A",
"#  c #192B19",
"$  c #1B341B",
"%  c #1A381A",
"&  c gray14",
"*  c #212F21",
"=  c #27292A",
"-  c #2C2C2C",
";  c #273B27",
":  c #2F3B2F",
">  c #353535",
",  c #333638",
"<  c #303F30",
"1  c #3E3E3E",
"2  c #3C3F40",
"3  c #1E441E",
"4  c #1E4A1E",
"5  c #244324",
"6  c #234A23",
"7  c #2A422A",
"8  c #2A4F2A",
"9  c #215621",
"0  c #255C25",
"q  c #295129",
"w  c #2E5F2E",
"e  c #256325",
"r  c #266C26",
"t  c #2B672B",
"y  c #2A692A",
"u  c #267126",
"i  c #287528",
"p  c #2E7D2E",
"a  c #317D31",
"s  c #3E4041",
"d  c #404142",
"f  c #414649",
"g  c #454A4D",
"h  c #494C4E",
"j  c #494D50",
"k  c #4C5153",
"l  c #525354",
"z  c #50565A",
"x  c #53585B",
"c  c #5A5E60",
"v  c #5E6569",
"b  c #60666A",
"n  c #67696A",
"m  c #616B70",
"M  c #6D7275",
"N  c #777777",
"B  c #75797C",
"V  c #787B7B",
"C  c #2C832C",
"Z  c #2F8C2F",
"A  c #338733",
"S  c #338833",
"D  c #3A833A",
"F  c #3E8D3E",
"G  c #369436",
"H  c #359C35",
"J  c #389A38",
"K  c #3BA73B",
"L  c #3CAC3C",
"P  c #3DB33D",
"I  c #43AB43",
"U  c #40B540",
"Y  c #46B946",
"T  c #43C443",
"R  c #46CF46",
"E  c #49D449",
"W  c #4BDC4B",
"Q  c #4EE44E",
"!  c #76838C",
"~  c #7E8183",
"^  c #79858D",
"/  c #7B888F",
"(  c #7D8A92",
")  c #818485",
"_  c #83898C",
"`  c #8B8D8E",
"'  c #838C91",
"]  c #808F98",
"[  c #8A8E91",
"{  c #84939B",
"}  c #8C9294",
"|  c #919395",
" . c #909699",
".. c #94989A",
"X. c #989A9C",
"o. c #8B9BA3",
"O. c #919EA6",
"+. c #999EA1",
"@. c #92A0A7",
"#. c #96A4AC",
"$. c #9CA1A4",
"%. c #9EA5A8",
"&. c #9CABB4",
"*. c #9EAEB8",
"=. c #A0A5A8",
"-. c #A4A9AB",
";. c #ABACAE",
":. c #A5ADB2",
">. c #A8AFB3",
",. c #A2B3BB",
"<. c #ACB1B3",
"1. c #AEB5B8",
"2. c #AFB8BB",
"3. c #B0B4B6",
"4. c #B4B7BA",
"5. c #B4B9BB",
"6. c #A7B8C2",
"7. c #AABBC4",
"8. c #ADBEC8",
"9. c #B5BDC1",
"0. c #AEC0C9",
"q. c #B2C3CC",
"w. c #BCC1C4",
"e. c #BDC6CB",
"r. c #B4C6D1",
"t. c #B6C8D2",
"y. c #B8C9D3",
"u. c #BDCFD9",
"i. c gray78",
"p. c #C1C9CC",
"a. c #C8CBCD",
"s. c #C4CDD3",
"d. c #C1D2DA",
"f. c #CCD1D4",
"g. c #D3D3D3",
"h. c #D2D6D9",
"j. c #D4D9DB",
"k. c #DCDDDE",
"l. c #C9D8E0",
"z. c #D7DEE1",
"x. c #DBDFE1",
"c. c #DEE3E5",
"v. c #DCE8F1",
"b. c #E2E6E9",
"n. c #E3E9EC",
"m. c #EAEAEB",
"M. c #ECF0F1",
"N. c #EBF6FE",
"B. c #F3F6F7",
"V. c #F3F7F9",
"C. c #F5FAFB",
"Z. c #FEFEFE",
/* pixels */
"Q Q Q Q Q Q Q Q Q Q Q Q Q Q Q Q Q Q Q Q Q Q Q Q Q Q Q Q Q Q Q Q Q ",
"Q Q Q Q Q Q Q Q Q Q Q Q Q Q Q Q Q Q Q Q Q Q Q Q Q Q Q Q Q Q Q Q Q ",
"Q Q Q Q Q Q Q Q Q Q Q Q Q Q Q Q Q Q Q Q Q Q Q Q Q Q Q Q Q Q Q Q Q ",
"Q Q Q Q Q Q Q Q Q Q Q Q Q Q Q Q Q Q Q Q Q Q Q Q Q Q Q Q Q Q Q Q Q ",
"Q Q Q Q Q Q Q Q Q Q Q Q Q Q Q Q Q Q Q Q Q Q Q Q Q Q Q Q Q Q Q Q Q ",
"Q Q Q Q Q Q Q Q Q Q Q Q Q Q Q Q Q Q Q Q Q Q Q Q Q Q Q Q Q Q Q Q Q ",
"Q Q Q Q Q Q Q Q Q Q Q Q Q Q Q Q Q Q Q Q Q Q Q Q Q Q Q Q Q Q Q Q Q ",
"Q Q Q Q Q Q Q Q Q Q Q E L L L J I K L L L L T Q Q Q Q Q Q Q Q Q Q ",
"Q Q Q Q Q Q Q Q Q P $                           5 S Y Q Q Q Q Q Q ",
"Q Q Q Q Q Q Q Q Q +                                   0 U Q Q Q Q ",
"Q Q Q Q Q Q Q Q K     X d d d d 2 2 2 2 1 1 -             A Q Q Q ",
"Q Q Q Q Q Q Q Q e     f $.a.h.h.h.h.h.h.h.g.f.i.~ l         y Q Q ",
"Q Q Q Q Q Q Q W 9     d a.a.>.>.>.>.3.>.<.3.4.9.f.h.$.f       G Q ",
"Q Q Q Q Q Q Q T 9   X 7 f.;.| | | | | | | } | X.$.<.a.w.l     . Q ",
"Q Q Q Q Q Q Q T 9     1 9.9.=.=.=.=.=.=.%.%.X.} } } X.w.-.=     p ",
"Q Q Q Q Q Q Q T 9     1  .9.p.p.p.p.p.p.e.p.e.1.X.} [ $.p.x     % ",
"Q Q Q Q Q Q Q T r     X 7 1 1 1 1 1 1 2 , 7 b ;.9.=.[  .9. .    . ",
"Q Q Q Q Q Q Q T u O     X                       _ 9...[ >.1.      ",
"Q Q Q Q Q Q Q W u 9 O                           - p.%.[ :.7.      ",
"Q Q Q Q Q Q Q Q C u u e 9 q 9 9 9 9 9 4 9 9       s.:.[ 1.9.      ",
"Q Q Q Q Q Q Q Q P u u u u u u u e % + + + +       j.2.X.p.1.    . ",
"Q Q Q Q Q Q Q Q Q P C u u u u %                 x b.5.1.b.)     + ",
"Q Q Q Q Q Q Q Q Q Q Q W T T L                 h n.c.w.z.n.h     3 ",
"Q Q Q Q Q Q Q Q Q Q Q Q Q Q 0     b ..-.<.5.h.Z.M.h.b.Z._       r ",
"Q Q Q Q Q Q Q Q Q Q Q Q Q R 4     V Z.Z.Z.Z.C.b.h.c.Z.-.      6 u ",
"Q Q Q Q Q Q Q Q Q Q Q Q Q P 3 X X ) Z.C.k.k.k.h.k.M.i.X X X X 0 u ",
"Q Q Q Q Q Q Q Q Q Q Q Q Q L 4 X X ` Z.Z.M.M.m.b.n.Z.Z.k.> X X # H ",
"Q Q Q Q Q Q Q Q Q Q Q Q Q P 4 X o X.Z.Z.Z.Z.Z.Z.Z.Z.Z.Z.b.> X X a ",
"Q Q Q Q Q Q Q Q Q Q Q Q Q L 6 & o ` g.g.g.g.m.Z.Z.Z.Z.Z.Z.;.o o * ",
"Q Q Q Q Q Q Q Q Q Q Q Q Q P e & & & & & & & & N m.Z.Z.Z.Z.Z.1 & & ",
"Q Q Q Q Q Q Q Q Q Q Q Q Q P u 5 & & & & & & & & l Z.Z.C.Z.Z.` & & ",
"Q Q Q Q Q Q Q Q Q Q Q Q Q R u u y q ; ; ; ; = = = i.Z.c.B.Z.` = = ",
"Q Q Q Q Q Q Q Q Q Q Q Q Q Q S i i i i i u u 8 = = [ Z.f.j.Z.~ - = ",
"Q Q Q Q Q Q Q Q Q Q Q Y F F D w 8 8 8 8 8 ; - = - %.N.9.s.Z.B = - ",
"Q Q Q Q Q Q Q Q Q I 7 - - - - - - - - - - - - , f v.d.:.q.N.N - - ",
"Q Q Q Q Q Q Q Q Q : - - - > - - - - - - - - - c e.s.&.O.q.h.h - - ",
"Q Q Q Q Q Q Q Q J - - s b b b b v v v v v ^ ,.u.7.o.{ o.u.' - - - ",
"Q Q Q Q Q Q Q Q y - - j @.y.y.y.r.r.r.r.r.7.*.o.( / { ,.6.g - - q ",
"Q Q Q Q Q Q Q R t = = h q.,.O.o.o.o.o.o.( ( ^ ! / { 6.8.x = = = y ",
"Q Q Q Q Q Q Q T 0 = = h y.#.' ' ( ^ ! ! ^ ( ( o.*.r.&.z = = = q i ",
"Q Q Q Q Q Q Q T 0 & & g 6.q.&.*.&.&.&.*.,.6.q.r.6.m , & & o 5 i u ",
"Q Q Q Q Q Q Q T 0 o X f ' ,.0.9.8.8.8.,.&.^ m k = X o o X 3 i r H ",
"Q Q Q Q Q Q Q T r X X X X X X X X X X X X X X X X X X @ 9 u i Z Q ",
"Q Q Q Q Q Q Q T r 4   X X   X   X     .   .   X X . 9 u u u Z R Q ",
"Q Q Q Q Q Q Q Q u u 4 +                 . + % 4 0 i i r r Z R Q Q ",
"Q Q Q Q Q Q Q Q H u u u r r i i i i r i r r i r r r i i K Q Q Q Q "
};
