/* XPM */
static  xpm_row_t const number0[] = {
/* columns rows colors chars-per-pixel */
"43 46 154 2",
"   c #111111",
".  c #131A13",
"X  c #1A1A1A",
"o  c #152415",
"O  c #172A17",
"+  c #1C2C1C",
"@  c #1B341B",
"#  c #1C3D1C",
"$  c #222322",
"%  c #262826",
"&  c #2B2B2B",
"*  c #2E2F30",
"=  c #203320",
"-  c #293529",
";  c #283E28",
":  c #2F3031",
">  c #333435",
",  c #38393A",
"<  c #3D3F40",
"1  c #1D431D",
"2  c #1D481D",
"3  c #234323",
"4  c #224C22",
"5  c #215521",
"6  c #245D24",
"7  c #295329",
"8  c #256225",
"9  c #266C26",
"0  c #2A6A2A",
"q  c #267126",
"w  c #2A742A",
"e  c #2C7B2C",
"r  c #386F38",
"t  c #3E4244",
"y  c #404142",
"u  c #424749",
"i  c #46484A",
"p  c #4C4D4E",
"a  c #474D50",
"s  c #515456",
"d  c #565A5C",
"f  c #595B5D",
"g  c #565E64",
"h  c #5B5F61",
"j  c #586065",
"k  c #5E6569",
"l  c #636465",
"z  c #626669",
"x  c #676A6C",
"c  c #6A6C6E",
"v  c #646C70",
"b  c #6E7274",
"n  c #697479",
"m  c #727273",
"M  c #757779",
"N  c #6F7D85",
"B  c #727E84",
"V  c #797E81",
"C  c #2E872E",
"Z  c #318131",
"A  c #318E31",
"S  c #3E8D3E",
"D  c #329332",
"F  c #359B35",
"G  c #389338",
"H  c #37A237",
"J  c #38A638",
"K  c #3CAD3C",
"L  c #3EB23E",
"P  c #45B745",
"I  c #41BD41",
"U  c #43C343",
"Y  c #45CA45",
"T  c #49D449",
"R  c #4BDC4B",
"E  c #4EE44E",
"W  c #75828A",
"Q  c #7E8386",
"!  c #78858D",
"~  c #798790",
"^  c #7D8A92",
"/  c #848E93",
"(  c #808F98",
")  c #888E91",
"_  c #84929A",
"`  c #8C9294",
"'  c #8D9599",
"]  c #8B989E",
"[  c #919496",
"{  c #919699",
"}  c #95999C",
"|  c #9D9E9F",
" . c #8F9EA7",
".. c #909FA7",
"X. c #999EA1",
"o. c #94A4AD",
"O. c #9AA1A4",
"+. c #9AA4AA",
"@. c #96A7B0",
"#. c #9AABB5",
"$. c #9EAEB8",
"%. c #A1A3A4",
"&. c #A2A6A9",
"*. c #A4AAAD",
"=. c #AAADAE",
"-. c #A5ADB2",
";. c #A9AEB0",
":. c #A0B0B7",
">. c #A1B0B9",
",. c #ACB1B4",
"<. c #ACB6BB",
"1. c #B0B4B5",
"2. c #B3B6B8",
"3. c #B4BABD",
"4. c #B9BDBF",
"5. c #A5B6C0",
"6. c #A6B9C3",
"7. c #A9BBC5",
"8. c #ABBEC8",
"9. c #B4BDC1",
"0. c #AEC1CC",
"q. c #B7C0C7",
"w. c #B0C2CD",
"e. c #BAC2C5",
"r. c #BDC5CB",
"t. c #B4C6D1",
"y. c #B6C8D2",
"u. c #BBC8D0",
"i. c #C2C6C7",
"p. c #C0C5C8",
"a. c #C4C9CC",
"s. c #C9CCCC",
"d. c #C4CDD1",
"f. c #C9CDD0",
"g. c #C3D5DE",
"h. c #D2D3D3",
"j. c #D2D6D9",
"k. c #D3D9DC",
"l. c #DBDCDD",
"z. c #CCD9E2",
"x. c #D2DEE5",
"c. c #D8DEE0",
"v. c #DCE1E4",
"b. c #E3E4E5",
"n. c #E1E6E9",
"m. c #E1E8EB",
"M. c #EAEAEA",
"N. c #E2ECF3",
"B. c #E4EFF8",
"V. c #E4F0F8",
"C. c #E9F1F5",
"Z. c #F3F4F4",
"A. c #F3FAFC",
"S. c #FEFEFE",
/* pixels */
"E E E E E E E E E E E E E E E E E E E E E E E E E E E E E E E E E E E E E E E E E E E ",
"E E E E E E E E E E E E E E E E E E E E E E E E E E E E E E E E E E E E E E E E E E E ",
"E E E E E E E E E E E E E E E E E E E E E E E E E E E E E E E E E E E E E E E E E E E ",
"E E E E E E E E E E E E E E E E E E E E E E E E E E E E E E E E E E E E E E E E E E E ",
"E E E E E E E E E E E E E E E E E E E E E E E E E E E E E E E E E E E E E E E E E E E ",
"E E E E E E E E E E E E E E E E E E E E E E E E E E E E E E E E E E E E E E E E E E E ",
"E E E E E E E E E E E E E E E E E E E E E E E E E E E E E E E E E E E E E E E E E E E ",
"E E E E E E E E E E E E E E E E E E E E E T K e Z e e e P R E E E E E E E E E E E E E ",
"E E E E E E E E E E E E E E E E E E I 0 +       X           O 0 I E E E E E E E E E E ",
"E E E E E E E E E E E E E E E E K @                               @ L E E E E E E E E ",
"E E E E E E E E E E E E E E E w           X y f f f f f < $           w E E E E E E E ",
"E E E E E E E E E E E E E E #       $ s { s.j.j.j.j.j.j.j.a.[ s $       @ E E E E E E ",
"E E E E E E E E E E E E E @       p &.j.f.9.1.=.*.*.*.;.,.4.f.j.&.p       @ E E E E E ",
"E E E E E E E E E E E E 1       c s.s.=.X.{ { [ [ [ [ { [ { | =.a.s.c       4 E E E E ",
"E E E E E E E E E E E w       x f.1.} ) [ { X.&.*.=.-.&.X.{ [ [ } ,.d.x       w E E E ",
"E E E E E E E E E E I       f r.-.) ) [ X.<.p.a.9.9.9.p.p.<.X.) / ` -.r.s       Y E E ",
"E E E E E E E E E E 3     7 q.,.' ) ) -.e.+.d >       - d +.p.-.{ ) ' ,.q.7     4 R E ",
"E E E E E E E E E J       ) e.{ ) ' -.a.k                   z r.=.' ` { r.Q       P E ",
"E E E E E E E E E 7     i r.&.` ` &.a.f                       f a.+.` ` -.r.<     0 E ",
"E E E E E E E E Y .     V f.O.' X.d.Q       O 5 q q q 5 O       ) u.O.' O.f.m     o T ",
"E E E E E E E E F     $ s.e.O.| 9.z.*     @ q q q q q q q @     & k.9.| O.p.p.      H ",
"E E E E E E E E 6     s m.e.+.,.c.[     . 9 q q q q q q q 9 .     ' c.,.&.e.m.i     9 ",
"E E E E E E E R 1     x A.e.=.r.A.l     2 q e L E E E L e q 1     l A.p.;.p.A.x     1 ",
"E E E E E E E L #     ` S.i.4.l.S.,     8 q Y E E E E E U q 8     , S.l.3.s.S.M     1 ",
"E E E E E E E K +   . 2.S.h.i.A.S.      q J E E E E E E E J q .   . S.C.i.h.S.1.X   + ",
"E E E E E E E F + X X s.S.c.l.S.l.X X + q Y E E E E E E E Y q . X X S.S.h.l.S.s.X X @ ",
"E E E E E E E D = X X h.S.Z.M.S.h.X X = q E E E E E E E E E q X X X S.S.b.Z.S.h.X X @ ",
"E E E E E E E A = X X h.S.S.A.S.M.$ X + C E E E E E E E E E q X X X S.S.Z.S.S.h.X X @ ",
"E E E E E E E A 3 $ $ =.S.S.S.S.S.$ X $ C E E E E E E E E E q + $ $ S.S.S.S.S.%.$ X 3 ",
"E E E E E E E A 4 $ $ %.S.S.S.S.S.l $ $ 0 E E E E E E E E E 6 $ $ l S.S.S.S.S.%.$ $ 4 ",
"E E E E E E E H 6 % % m S.S.Z.S.S.| $ % ; E E E E E E E E E ; $ $ | S.S.Z.S.S.l % $ 8 ",
"E E E E E E E K 0 % % % Z.S.c.b.S.M.% % % G E E E E E E E G % % % M.S.n.c.S.Z.% % % w ",
"E E E E E E E U q 3 & & X.S.k.a.N.S.c % & % P E E E E E P & & % c S.m.a.k.S.} % % 3 q ",
"E E E E E E E E q 5 & & f A.v.9.a.C.N., & & & r S S S r & & & , x.C.r.9.v.S.g & * 7 q ",
"E E E E E E E E D q & & * X.B.9.-.9.B.9., * * & * & * & & & , 9.B.9.-.9.V.O.* & & 0 D ",
"E E E E E E E E K q 7 * * s z.y.@.X.5.x.9.s * & * * * * * s 9.z.7.+.+.y.k.s * & 7 w K ",
"E E E E E E E E T q 0 & * * v g.>. .` @.8.g.>.B l h k B >.z.8.o.'  .>.g.v * & * 9 q T ",
"E E E E E E E E E F q 7 & & > ^ y.o.^ ~ (  .5.8.8.t.t.8.$. . .^ ( ..t.( * & & 7 q F E ",
"E E E E E E E E E U q q - & & : ^ y.@.( ~ B ~ ^ ( ( ( ^ ~ ! ~ ( -.y.( * % & - 9 q U E ",
"E E E E E E E E E E F 0 6 % % % * n w.7. . .~ B B N B ! ~ _ @.8.8.v * % % % 0 9 F E E ",
"E E E E E E E E E E R e q 8 $ $ $ $ a  .8.w.7.#.o.o.@.#.7.t.w._ u $ $ $ $ 8 q e R E E ",
"E E E E E E E E E E E L q q 6 + $ X X X t g B $.5.7.5.>.W g u X X $ X + 6 q q I E E E ",
"E E E E E E E E E E E E H q q 9 1 X X X X X X X X X X X X X X X X X 2 q q q H E E E E ",
"E E E E E E E E E E E E E H q q q 6 @ . .   X   X     X   . .   @ 6 q q q H E E E E E ",
"E E E E E E E E E E E E E E L q q q q 9 5 # O         . O # 5 9 q q q w L E E E E E E ",
"E E E E E E E E E E E E E E E Y D q q q q q q q 9 9 q 0 q q q q q q F T E E E E E E E "
};
