/* XPM */
static  xpm_row_t const number1[] = {
/* columns rows colors chars-per-pixel */
"26 46 219 2",
"   c #111111",
".  c gray7",
"X  c #131313",
"o  c gray8",
"O  c #161616",
"+  c #131A13",
"@  c #131C13",
"#  c #151F15",
"$  c #181818",
"%  c gray10",
"&  c #1B1B1B",
"*  c #1D1D1D",
"=  c #1E1E1E",
"-  c #152115",
";  c #162416",
":  c #172617",
">  c #172817",
",  c #1D2F1D",
"<  c #1B361B",
"1  c #1A381A",
"2  c #1B381B",
"3  c #202020",
"4  c #232323",
"5  c gray15",
"6  c #272727",
"7  c #282828",
"8  c #2A2A2A",
"9  c #2A2B2C",
"0  c #2C2C2C",
"q  c #2C2C2D",
"w  c #2D2D2D",
"e  c #2D2E2F",
"r  c gray18",
"t  c #343637",
"y  c #363839",
"u  c #3D3F40",
"i  c #1C441C",
"p  c #1E4A1E",
"a  c #1E4D1E",
"s  c #1F4F1F",
"d  c #214D21",
"f  c #224C22",
"g  c #205020",
"h  c #205320",
"j  c #235023",
"k  c #205720",
"l  c #215B21",
"z  c #236423",
"x  c #267126",
"c  c #2A7C2A",
"v  c #2E7D2E",
"b  c #404142",
"n  c #404243",
"m  c #434546",
"M  c #54585A",
"N  c #57595B",
"B  c #5B5D5E",
"V  c #555D61",
"C  c #575E62",
"Z  c #5B5F61",
"A  c #585F64",
"S  c #5D5F60",
"D  c #596065",
"F  c #5B6166",
"G  c #5E6264",
"H  c #60666A",
"J  c #636768",
"K  c #656768",
"L  c #6B6D6E",
"P  c #6A6E6F",
"I  c #666C70",
"U  c #6E7072",
"Y  c #6E7377",
"T  c #727576",
"R  c #73787A",
"E  c #767B7D",
"W  c #7A7D7D",
"Q  c #2F8C2F",
"!  c #308730",
"~  c #349034",
"^  c #379637",
"/  c #389938",
"(  c #3BA33B",
")  c #39A739",
"_  c #3AAB3A",
"`  c #3BAE3B",
"'  c #3DAB3D",
"]  c #43C443",
"[  c #45C745",
"{  c #44C944",
"}  c #48D348",
"|  c #4EE44E",
" . c #7F8284",
".. c #858687",
"X. c #8B8E8F",
"o. c #828E95",
"O. c #898F92",
"+. c #869299",
"@. c #8A9093",
"#. c #8D9194",
"$. c #8C9295",
"%. c #8D9396",
"&. c #8F9396",
"*. c #8D9497",
"=. c #8A969C",
"-. c #909191",
";. c #919496",
":. c #909699",
">. c #91979B",
",. c #939698",
"<. c #93979A",
"1. c #92999C",
"2. c #939A9D",
"3. c #95999D",
"4. c #959B9D",
"5. c #959C9F",
"6. c #999A9A",
"7. c #989B9D",
"8. c #9A9B9C",
"9. c #919FA7",
"0. c #979DA1",
"q. c #959FA5",
"w. c #99A0A4",
"e. c #9CA0A4",
"r. c #9FA4A6",
"t. c #9AA8AE",
"y. c #9CAAB2",
"u. c #A0A0A0",
"i. c gray64",
"p. c #A2A6A8",
"a. c #A3A6A9",
"s. c #A3AAAE",
"d. c #A6AAAC",
"f. c #A5ACAF",
"g. c #A3ABB1",
"h. c #A5ACB0",
"j. c #A6AEB1",
"k. c #A7AFB2",
"l. c #A0AFB8",
"z. c #AAAFB1",
"x. c #A7B2B9",
"c. c #A5B4BD",
"v. c #ACB3B5",
"b. c #ADB2B5",
"n. c #ACB3B7",
"m. c #AFB2B5",
"M. c #AFB3B5",
"N. c #B0B5B9",
"B. c #B1B8BC",
"V. c #B1B9BD",
"C. c #B3BABD",
"Z. c #B3BBBF",
"A. c #B5B9BC",
"S. c #B4BABC",
"D. c #B6BABC",
"F. c #AAB9C0",
"G. c #AEBFC8",
"H. c #B7BFC3",
"J. c #AFC0C9",
"K. c #B6C0C7",
"L. c #B3C4CD",
"P. c #BBC3C7",
"I. c #BCC0C2",
"U. c #BFC2C5",
"Y. c #BFC5C7",
"T. c #B8C5CC",
"R. c #BCC4C9",
"E. c #BEC6CB",
"W. c #BFC7CC",
"Q. c #B7C8D2",
"!. c #BACAD2",
"~. c #B9CAD4",
"^. c #C2C6C7",
"/. c #C0C5C9",
"(. c #C3C6C9",
"). c #C0C9CD",
"_. c #C2C8CC",
"`. c #C3C9CC",
"'. c #C7CFD3",
"]. c #CBCFD2",
"[. c #C5D6DE",
"{. c #C8D0D5",
"}. c #C9D1D6",
"|. c #CCD0D2",
" X c #CDD2D5",
".X c #CFD3D6",
"XX c #CAD4DB",
"oX c #CED7DA",
"OX c #D3D5D6",
"+X c #D1D5D8",
"@X c #D2D6D9",
"#X c #D3D7DA",
"$X c #D1D8DA",
"%X c #D7DBDD",
"&X c #D9DDDF",
"*X c #CAD8E0",
"=X c #D5DEE1",
"-X c #D8DDE2",
";X c #D8DEE1",
":X c #D6E4EC",
">X c #DBE4E9",
",X c #DDE8F0",
"<X c #E4E5E6",
"1X c #E0E5E8",
"2X c #E4EBEE",
"3X c #E5ECEF",
"4X c #ECEEEF",
"5X c #EFF4F5",
"6X c #EAF5FE",
"7X c #EEF4F9",
"8X c #F0F2F3",
"9X c #F2F3F3",
"0X c #F0F5F7",
"qX c #F0FAFF",
"wX c #F2F9FC",
"eX c #F6FBFE",
"rX c gray99",
"tX c #FEFFFF",
"yX c gray100",
/* pixels */
"| | | | | | | | | | | | | | | | | | | | | | | | | | ",
"| | | | | | | | | | | | | | | | | | | | | | | | | | ",
"| | | | | | | | | | | | | | | | | | | | | | | | | | ",
"| | | | | | | | | | | | | | | | | | | | | | | | | | ",
"| | | | | | | | | | | | | | | | | | | | | | | | | | ",
"| | | | | | | | | | | | | | | | | | | | | | | | | | ",
"| | | | | | | | | | | | | | | | | | | | | | | | | | ",
"| | | | | | | | | | | [ ' ' ' { | | | | | | | | | | ",
"| | | | | | | | | ( :           # j ^ | | | | | | | ",
"| | | | | | | | | -                   ; / | | | | | ",
"| | | | | | | | !     q b b b q           f | | | | ",
"| | | | | | | | p     S d.].@X].m.U e       2 | | | ",
"| | | | | | | { i     S @X^.m.A.(.#X(.K       f | | ",
"| | | | | | | ` i     B  Xp.&.,.7.a.I. XP       ~ | ",
"| | | | | | | ` i     M (.N.0.3.&.$.<.m.(.N     @ | ",
"| | | | | | | ` i     M 0.P.`.P.s.<.$.*.V.h.9     v ",
"| | | | | | | ` k     9 y n y R W.n.1.O.w.).G     1 ",
"| | | | | | | _ x @     o   O   t W.g.$.%.Z.1.    @ ",
"| | | | | | | { x h @   X         G R.0.@.f.H.9     ",
"| | | | | | | | c x x z k k a     y }.s.%.g.}.n     ",
"| | | | | | | | _ x x x x x x       oXV.5.v.=Xm     ",
"| | | | | | | | | _ c x x x x       ;X`.p.A.2XJ     ",
"| | | | | | | | | | | } ] ] x       3X$Xz.Y.wXP     ",
"| | | | | | | | | | | | | | x O o o eX1XD.|.tXT o o ",
"| | | | | | | | | | | | | | x O O O tX8X(.%XtXW @ O ",
"| | | | | | | | | | | | | | x $ $ $ tXtXOX4XtX..$ $ ",
"| | | | | | | | | | | | | | x & $ * tXtX<XtXtX-.& & ",
"| | | | | | | | | | | | | | x * * * tXtX9XtXtX6.& = ",
"| | | | | | | | | | | | | | x = 3 3 tXtXrXtXtXu.3 3 ",
"| | | | | | | | | | | | | | x 4 4 4 tXtXtXtXtXi.4 4 ",
"| | | | | | | | | | | | | | x 5 5 5 tXtX8XtXtX8.6 6 ",
"| | | | | | | | | | | | | | x 6 6 9 tXtX%X0XtXX.7 7 ",
"| | | | | | | | | | | | | | x 0 0 0 tX5XR.;XtX .9 9 ",
"| | | | | | | | | | | | | | x 0 q q qX>XV.}.tXE 9 0 ",
"| | | | | | | | | | | | | | x q q q ,X[.s.H.6XY q q ",
"| | | | | | | | | | | | | | x r e e *XL.q.x.:XI r q ",
"| | | | | | | | | | | | | | x r e e Q.F.=.y.*XF r r ",
"| | | | | | | | | | | | | | x q e 9 J.l. .9.~.F r q ",
"| | | | | | | | | | | | | | x 0 9 9 J.c.+.9.~.D 8 8 ",
"| | | | | | | | | | | | | | x 6 6 9 J.F. .9.~.C 6 6 ",
"| | | | | | | | | | | | | | x 4 4 4 y.Q.l.H.L.C 4 4 ",
"| | | | | | | | | | | | | | x * = * o.y.G.c.+.V = * ",
"| | | | | | | | | | | | | | x < & & $ & % % % % & $ ",
"| | | | | | | | | | | | | | x f O O O O O O O O O < ",
"| | | | | | | | | | | | | | Q x g > X X X X X > g x ",
"| | | | | | | | | | | | | | ) x x x x x x x x x x x "
};
