/* XPM */
static  xpm_row_t const number7resize[] = {
/* columns rows colors chars-per-pixel */
"70 80 213 2",
"   c #080707",
".  c #0D0B0D",
"X  c #0F120F",
"o  c #100F0F",
"O  c #100E10",
"+  c #10120F",
"@  c #121312",
"#  c #131B13",
"$  c #191719",
"%  c #1B1B1B",
"&  c #1F1F20",
"*  c #152315",
"=  c #172B17",
"-  c #1B231B",
";  c #1A2C1A",
":  c #1A331A",
">  c #1C3C1C",
",  c #1F2320",
"<  c #211E21",
"1  c #242525",
"2  c #252A26",
"3  c #272829",
"4  c #292729",
"5  c #2A2B2B",
"6  c #2F2F30",
"7  c #253425",
"8  c #243924",
"9  c #2A332B",
"0  c #2B3B2B",
"q  c #2F3030",
"w  c #2E3F30",
"e  c #333435",
"r  c #333638",
"t  c #363D36",
"y  c #373939",
"u  c #3A3C3D",
"i  c #3B3F41",
"p  c #1D431D",
"a  c #1E4C1E",
"s  c #1F511F",
"d  c #234423",
"f  c #234B23",
"g  c #2B432B",
"h  c #2B4C2C",
"j  c #225422",
"k  c #225C22",
"l  c #2A522A",
"z  c #2A5B2A",
"x  c #314531",
"c  c #36403A",
"v  c #304E30",
"b  c #3C413E",
"n  c #315631",
"m  c #315831",
"M  c #246424",
"N  c #256C25",
"B  c #286228",
"V  c #2B6B2B",
"C  c #267226",
"Z  c #2A752A",
"A  c #2A7B2A",
"S  c #316431",
"D  c #336B33",
"F  c #386E38",
"G  c #367436",
"H  c #357B35",
"J  c #387938",
"K  c #3E4142",
"L  c #424445",
"P  c #474748",
"I  c #46494B",
"U  c #4A4C4E",
"Y  c #4D4F50",
"T  c #4C524F",
"R  c #4D5255",
"E  c #525455",
"W  c #525658",
"Q  c #55595C",
"!  c #5A5C5E",
"~  c #575E61",
"^  c #5A5F61",
"/  c #5C6263",
"(  c #5F6468",
")  c #616364",
"_  c #656769",
"`  c #656A6B",
"'  c #696B6D",
"]  c #676E72",
"[  c #6C6F71",
"{  c #6B7275",
"}  c #6F777B",
"|  c #737476",
" . c #73797C",
".. c #797B7C",
"X. c #747E83",
"o. c #7A7E80",
"O. c #2C842C",
"+. c #2E8A2E",
"@. c #358335",
"#. c #328E32",
"$. c #398539",
"%. c #3D8D3D",
"&. c #329332",
"*. c #359B35",
"=. c #3C943C",
"-. c #3A9C3A",
";. c #37A237",
":. c #3AA33A",
">. c #3CAB3C",
",. c #3DB43D",
"<. c #3FBA3F",
"1. c #3F9D40",
"2. c #40A640",
"3. c #41AE41",
"4. c #42B342",
"5. c #42BC42",
"6. c #44C344",
"7. c #46CC46",
"8. c #48C448",
"9. c #48CA48",
"0. c #47D147",
"q. c #49D649",
"w. c #4BDC4B",
"e. c #4EE34E",
"r. c #4FE94F",
"t. c #778086",
"y. c #7D8284",
"u. c #7C8489",
"i. c #7E888E",
"p. c #828485",
"a. c #828689",
"s. c #83898C",
"d. c #8A8D8F",
"f. c #848D91",
"g. c #898F92",
"h. c #849097",
"j. c #859198",
"k. c #8C9294",
"l. c #8D969B",
"z. c #8E989E",
"x. c #929597",
"c. c #929699",
"v. c #949A9D",
"b. c #999C9E",
"n. c #8D9AA2",
"m. c #949EA3",
"M. c #9B9FA1",
"N. c #97A0A4",
"B. c #95A2AA",
"V. c #9DA1A5",
"C. c #9CA5AB",
"Z. c #9DA8AE",
"A. c #99A7B0",
"S. c #9CAAB2",
"D. c #A2A4A6",
"F. c #A3A6A9",
"G. c #A3A9AC",
"H. c #ABADAE",
"J. c #A4ADB3",
"K. c #AAAEB1",
"L. c #A7B1B6",
"P. c #A5B4BC",
"I. c #ACB1B4",
"U. c #ACB5B9",
"Y. c #ADB8BE",
"T. c #B1B4B5",
"R. c #B3B6B9",
"E. c #B3B9BD",
"W. c #BCBDBF",
"Q. c #A7B7C0",
"!. c #ACBBC3",
"~. c #AEBFC8",
"^. c #B5BDC2",
"/. c #BABFC1",
"(. c #AFC0C9",
"). c #B5C1C7",
"_. c #B3C2CB",
"`. c #BCC1C4",
"'. c #BCC5CB",
"]. c #BFC8CE",
"[. c #B5C6D0",
"{. c #BCC9D1",
"}. c #C1C3C5",
"|. c #C2C7C9",
" X c #C4C9CC",
".X c #C9CBCD",
"XX c #C5CED3",
"oX c #CACED1",
"OX c #C5D1D9",
"+X c #CDD1D4",
"@X c #CBD5DB",
"#X c #CED8DE",
"$X c #D2D3D4",
"%X c #D3D7DA",
"&X c #D4D9DD",
"*X c #D9DBDB",
"=X c #CDD9E1",
"-X c #D3DEE5",
";X c #DBDFE1",
":X c #DDE2E5",
">X c #DDE4E9",
",X c #DEE8EE",
"<X c #E3E4E5",
"1X c #E4E6E9",
"2X c #E5EAED",
"3X c #EBEDEE",
"4X c #E4ECF0",
"5X c #ECEEF0",
"6X c #EEF0F3",
"7X c #F4F4F6",
"8X c #F5F7F8",
"9X c #F7F8FA",
"0X c #FDFDFE",
/* pixels */
"e.e.e.e.e.e.e.e.e.e.e.e.e.e.e.e.e.e.e.e.e.e.e.e.e.e.e.e.e.e.e.e.e.e.e.e.e.e.e.e.e.e.e.e.e.e.e.e.e.e.e.e.e.e.e.e.e.e.e.e.e.e.e.e.e.e.w.e.e.e.",
"e.e.e.e.e.e.e.e.e.e.e.e.e.e.e.e.e.e.e.e.e.e.e.e.e.e.e.e.e.e.e.e.e.e.e.e.e.e.e.e.e.e.e.e.e.e.e.e.e.e.e.e.e.e.e.e.e.e.e.e.e.e.e.e.e.e.e.e.e.e.",
"e.e.e.e.e.w.e.e.e.e.e.e.e.e.e.e.e.e.e.e.e.e.e.w.e.e.e.e.e.e.e.e.e.e.e.e.e.e.e.e.e.e.e.e.e.e.e.e.e.e.e.e.e.e.e.e.e.e.e.e.e.e.e.e.e.e.e.e.e.e.",
"e.e.e.e.e.e.e.e.e.e.e.e.e.e.e.e.e.e.e.e.e.e.e.e.e.e.e.e.e.e.e.e.e.e.e.e.e.e.e.e.e.e.e.e.e.e.w.e.e.e.e.e.e.e.e.e.e.e.e.e.w.e.e.e.e.e.e.e.e.e.",
"e.e.e.e.e.e.e.e.e.e.e.e.e.e.e.e.e.e.e.e.e.e.e.e.e.e.e.e.e.e.w.e.e.e.e.e.e.e.e.e.e.e.e.e.e.e.e.e.e.e.e.e.e.e.e.e.e.e.e.e.e.e.e.e.e.e.e.e.e.e.",
"e.e.e.e.e.e.e.e.e.e.e.e.e.e.e.e.e.e.e.e.e.w.e.e.e.e.e.e.e.e.e.e.e.e.e.e.w.e.e.e.e.e.e.e.e.e.e.e.e.e.e.e.e.e.e.w.e.e.e.e.e.e.e.e.e.e.e.e.e.e.",
"e.e.e.e.e.e.e.e.e.e.e.e.e.e.e.e.e.e.e.e.e.e.e.e.e.e.e.e.e.e.e.e.e.e.e.e.e.e.e.e.e.e.e.e.e.e.e.e.e.e.e.e.e.e.e.e.e.e.e.e.e.e.e.e.e.e.e.e.e.e.",
"e.e.e.e.e.e.e.e.e.e.e.e.e.e.e.w.e.e.e.e.e.e.e.e.e.e.e.e.e.e.e.e.e.e.e.e.e.e.e.e.e.e.e.e.e.e.e.e.e.e.e.e.e.e.e.e.e.e.e.e.e.e.e.e.e.e.e.e.e.e.",
"e.e.e.e.e.e.e.e.e.e.e.e.e.e.e.e.e.e.e.e.e.e.e.e.e.e.e.e.e.e.e.e.e.e.e.e.e.e.e.e.e.e.e.e.e.e.e.e.e.e.e.e.e.e.e.e.e.e.e.e.e.e.e.e.e.e.e.e.e.e.",
"w.e.e.e.e.e.e.e.e.e.e.e.e.e.e.e.e.e.e.e.e.e.e.e.e.e.e.w.e.e.e.e.e.e.e.e.e.e.e.e.e.e.e.e.e.e.e.e.e.e.e.e.e.e.e.e.e.e.e.e.e.e.e.e.e.e.e.e.e.e.",
"e.e.e.e.e.e.e.e.e.e.e.e.e.w.e.e.e.e.e.e.e.e.r.r.r.r.r.r.r.r.e.r.r.r.r.e.r.r.e.r.r.r.e.r.r.r.r.r.e.r.r.r.e.r.r.r.e.e.r.e.e.e.e.e.e.e.e.e.e.e.",
"e.e.e.e.e.e.e.e.e.e.e.e.e.e.e.e.e.e.e.e.w.w.q.q.q.q.q.q.q.q.q.w.q.q.q.q.q.q.q.q.q.q.q.q.q.q.q.q.q.q.q.q.q.q.q.q.q.q.q.w.w.e.e.e.e.e.e.e.e.e.",
"e.e.e.e.e.e.e.e.e.e.e.e.e.e.e.e.e.r.e.q.5.>.-.:.:.2.;.*.*.*.:.:.-.:.:.;.:.:.:.:.-.:.:.:.:.-.:.;.:.:.:.:.;.:.-.:.:.-.:.4.8.w.e.r.e.e.e.e.e.e.",
"e.e.e.e.e.e.e.e.e.e.e.e.e.e.e.e.e.q.5.-.H V B B B B z j k z V B B B B B B B B B B B B B B B B B z B B B B B B B B B B Z $.-.3.5.7.q.e.e.e.r.",
"e.e.e.e.e.e.e.e.e.e.e.e.e.e.e.e.w.>.V p = * * * * * * * # * * * * * * % * % * * * % * * * * * % * % * * % * * * * * % * ; ; > B #.,.0.e.e.e.",
"e.e.e.e.e.e.e.e.e.e.e.e.e.e.e.w.6.H > @ . . . . . . . . . . . . . . . . . . . . . . . . . . . . . . . . O . . . . . . . . . @ ; a V *.7.w.e.",
"e.e.e.e.e.e.e.e.e.e.e.e.e.e.e.7.#.f # . @ @ $ @ $ @ @ $ @ @ @ $ $ @ $ @ $ @ @ $ @ $ @ @ $ @ @ @ $ @ @ $ @ @ @ $ @ @ @ @ @ @ @ @ @ # j &.9.e.",
"e.e.e.e.e.e.e.e.e.e.e.e.e.e.e.4.z ; @ . $ 9 y r e e e r e e e e e e e e e e e e e e y y e e y r e e e e e e e e e e r 5 1 @ . . . o * j -.7.",
"e.e.e.e.w.e.e.e.e.e.e.e.e.e.w.*.: @ X . 1 Y _ ' ' ' ' ' ' ' ' ' ' ' ' ' ' ` ' ' ' ' ' ' ' ' [ ' ' ' ] ' ' ' ' ' ' ' ' ) Y e < $ @ @ o # Z ;.",
"e.e.e.e.e.e.e.e.e.e.e.e.e.w.6.A * X @ . 4 [ v.K.R.R.E.R.R.R.R.R.R.R.R.R.R.R.R.R.R.R.R.R.R.R.R.R.R.R.R.R.R.T.R.R.E.E.R.T.V.p.! y , @ . @ p z ",
"e.e.e.e.e.e.e.e.e.e.e.e.e.0.>.N # o + . 6 p.E..X+XoXoXoXoXoXoXoXoX.XoXoXoXoXoXoXoXoXoXoXoXoXoXoXoXoX.XoXoXoXoXoXoXoX+X+X.XE.c.) e # o @ * : ",
"e.e.e.e.e.e.e.e.e.e.e.e.r.0.;.M # o +   e x.}.|.W.I.L.I.K.I.K.I.I.I.I.I.K.K.K.I.K.K.T.K.I.I.K.K.I.I.I.I.I.I.K.K.I.I.U.E.`..X`.c.Q $ . @ + + ",
"e.e.e.e.e.e.e.e.e.e.e.e.r.7.&.s # o + . e b..X/.K.M.b.b.b.b.b.b.b.b.b.b.v.b.b.M.b.b.b.b.b.b.b.b.b.b.b.b.b.b.b.b.b.M.V.D.I.`. XU...e @ @ o o ",
"e.e.e.e.e.e.e.e.e.e.e.e.r.7.+.a @ o o . y V.|.E.F.x.x.x.x.x.x.x.x.x.x.x.x.x.x.x.x.x.x.x.x.x.x.x.x.x.x.x.x.x.x.x.k.x.x.x.b.I.W.`.g.L , @ o + ",
"e.e.e.e.e.e.e.e.e.e.w.e.r.7.+.a # o + . e x.`.`.I.D.V.V.V.V.V.V.b.V.V.V.V.V.M.V.V.V.V.V.V.V.V.V.V.M.M.b.x.k.k.x.g.d.k.g.x.G.R.`.k.b % o o @ ",
"e.e.e.e.e.e.e.e.e.e.e.e.e.7.+.a @ o o . 5 a.R.`.E.I.I.U.U.U.I.K.K.I.I.I.U.I.K.U.U.U.I.I.I.U.I.U.I.K.H.F.M.x.x.g.d.d.s.d.k.Z.R.R.y.e $ @ o + ",
"e.e.e.e.e.e.e.e.e.e.e.e.r.7.+.a # o o o 5 | V.L.E.E.^.^.^.^.^.^.E.E.E.E.^.^./.^.^.^.^.^.W.W.^./.`.`.`.^.I.V.c.g.s.s.s.s.l.I.R.C.] 1 X X # # ",
"e.e.e.e.e.e.e.e.e.e.e.e.r.7.+.a # o o . 1 R ] { t.u.a.a.a.a.a.a.a.a.p.a.u.s.s.s.f.a.a.f.s.s.a.f.d.g.g.g.b.V.c.g.s.s.s.d.N.Y.U.s.R $ . @ # * ",
"e.w.e.e.e.e.e.e.e.e.e.e.e.7.+.s = + o o @ - 1 1 1 1 1 1 1 1 1 1 1 1 1 1 1 1 1 1 1 1 3 1 1 4 < 4 4 4 4 i o.F.V.j.h.s.s.c.F.^.G.` r $ . @ * = ",
"e.e.e.e.e.e.e.e.e.e.e.e.e.7.+.s > * o o o o . . . . . . . . . . . . . . . . . . .   .   . . . . O . $ i 1.Z.V.g.s.s.k.C.U.G.y.L % @ . @ : a ",
"e.e.e.e.e.e.e.e.e.e.e.e.r.7.+.M s : + + o + @ o X @ o O X @ O @ o o O o @ o O o o @ @ O O O O O O O i o.V.L.v.f.s.h.v.L.Y.s.W 1 @ @ X # p M ",
"e.e.e.e.e.e.e.e.e.e.e.e.r.7.&.C M a : * @ o o o . o o o . O O O O o O O O O O O O O O @ O @ O O $ 4 ^ M.U.F.l.s.s.v.L.L.N./ 9 # . O # ; j N ",
"e.e.e.e.e.e.e.e.e.e.e.e.r.0.&.O.C k s p = = * * * = * = * * * * * * * * * # * * * * X X X @ o + 1 R s.E.U.N.k.d.k.Z.E.C. .x # o X X = a z C ",
"e.e.e.e.e.e.e.e.e.e.e.e.r.q.;.+.C N N k k k k k s k s s k s k k k s s k k k k s k s = X X X + % b y.L.U.J.z.j.z.Z.E.E.s.I 1 + o X # > M N C ",
"e.w.e.e.e.e.e.e.e.e.e.e.r.q.6.;.O.C C C C C C C C C C C C C C C C N N C C C C C N s = @ @ X % t ` G.`.L.N.l.z.C././.M./ 2 $ o o # = s C A O.",
"e.e.e.e.e.e.e.e.e.e.e.e.e.r.e.<.+.O.C C C C C N C C C C C C C C C C C N C C C C s > # o X # 7 ` M.`.`.Z.v.c.C.R.oXK.' t $ o @ o * p M C O.+.",
"e.e.e.e.e.e.e.e.e.e.e.e.e.e.e.0.,.;.+.O.C C N N C N N N N N N N N N N N N N N k > * @ . X 2 T v. X|.R.V.v.C.^.].W.a.K % . . # * p M N A *.,.",
"e.e.e.e.e.e.e.e.e.e.e.e.e.e.e.e.w.<.;.&.+.O.O.C O.C C O.A A A A A A A A A A N a * X X X % L t.`.*X`.K.C.F.R.@XoXc.Q % . X o * p s N C O.<.0.",
"e.e.e.e.e.e.e.e.e.e.e.e.e.e.e.e.r.0.7.7.6.<.<.<.<.<.<.<.5.<.5.5.<.<.<.<.<.,.C = @ X X % r y.'.&X%XE.K.K.`.@X;X^.` 9 @ . X # = k N C O.;.7.w.",
"e.e.e.e.e.e.e.e.e.e.e.w.e.e.e.e.r.e.e.r.e.r.e.e.r.e.e.r.e.e.e.e.e.e.e.r.w.5.N # X X @ e ' E.5X:X].E.U.^.#X1XoXc.u $ @ X # = a N C A *.<.w.e.",
"e.e.e.e.e.e.e.e.e.e.e.e.e.e.e.e.w.r.r.w.r.r.e.r.e.e.e.e.e.r.e.e.e.e.r.r.5.D > @ o $ 1 / R.<X6X#X`.E.`.#X6X3XV.E 1 o X @ = a N N A &.<.w.w.e.",
"e.e.e.e.e.e.e.e.e.e.e.e.e.e.e.e.r.w.w.r.r.w.e.w.e.e.e.e.e.e.e.e.e.e.w.7.#.d * @ . % Y c.:X7X<X+X`.|.&X2X1X}.' 1 $ @ o # > k C C +.<.0.e.r.e.",
"e.e.e.e.e.e.e.e.e.e.e.e.e.e.e.e.w.r.r.w.e.e.e.e.e.e.e.e.e.e.e.e.e.e.7.&.k - $ $ + q d..X6X3X*X.X.X*X6X7X}...y $ $ $ X : s N C O.;.q.e.e.e.e.",
"e.e.e.e.e.e.e.e.e.e.e.e.e.e.e.e.r.w.w.r.e.e.e.e.e.e.e.e.e.e.e.e.e.w.3.B ; # @ $ q _ }.5X0X3X&X%X:X6X8X3Xc.L < @ @ # = a k N A &.5.w.r.e.e.e.",
"e.e.e.e.w.e.e.e.e.e.e.e.e.e.e.e.e.e.e.e.e.e.e.e.e.e.e.e.e.e.e.e.w.5.$.7 @ @ $ 5 _ D.<X0X0X3X<X<X5X0X3X|.[ % $ # X = a k C C +.,.q.w.r.e.e.e.",
"e.e.e.e.e.e.e.e.e.e.e.e.e.e.e.e.e.e.e.e.e.e.e.e.e.e.e.e.e.e.e.r.q.$.f - @ $ 5 E D.<X9X0X9X7X6X7X0X0X$Xy.L # $ % = p M N C +.;.0.w.e.e.e.e.e.",
"e.e.e.e.e.e.e.e.w.e.e.e.e.e.w.r.e.e.e.e.e.e.e.e.e.e.e.e.e.e.e.q.4.z * $ $ 1 U x.*X0X0X0X7X7X9X0X9X1XD.P 1 % $ - > j N C O.;.6.w.e.e.e.e.e.e.",
"e.e.e.e.e.e.e.e.e.e.e.e.e.e.e.e.e.e.e.e.e.e.e.e.e.e.e.e.e.e.e.>.S 7 $ $ % e y.$X7X0X0X0X0X0X0X0X3XH._ 5 % $ $ - j z C A &.5.w.e.e.e.e.e.e.e.",
"e.e.e.e.e.e.e.e.e.e.e.e.e.e.e.e.e.e.e.e.e.e.e.e.e.e.e.e.e.w.8.@.8 - $ $ e _ T.7X0X0X0X0X0X0X9X7X.X| u & $ % ; > B C A &.,.0.r.e.e.e.e.e.e.e.",
"e.e.e.e.e.e.e.e.e.e.e.e.e.e.e.e.e.e.e.e.e.e.e.w.e.e.e.e.e.9.=.l , < % % E H.<X0X0X0X0X0X0X0X7X*Xb.P & & & , d k N Z O.,.w.e.e.e.e.e.e.e.e.e.",
"e.e.e.e.e.e.e.e.w.e.e.e.e.e.e.e.e.e.e.e.e.e.e.e.e.e.e.e.q.:.m 7 < % 5 T x.*X9X0X0X0X0X0X0X0X<XD.) q % < , > j N N A ;.6.e.e.e.e.e.e.e.w.e.e.",
"e.e.e.e.e.e.e.e.e.e.e.e.e.e.e.e.e.e.e.e.e.e.e.e.e.e.e.q.4.G 7 < 1 1 L x..X7X0X0X0X0X0X0X0X3X}.[ e 2 < 2 8 j M C Z #.<.0.e.e.e.e.e.e.e.e.e.e.",
"e.e.e.e.e.e.e.e.e.e.e.e.e.e.e.e.e.e.e.e.e.e.e.e.e.e.r.9.J g 2 < 4 t _ W.5X0X0X0X0X0X0X0X0X.Xp.P 1 1 1 2 f M N Z +.>.0.e.e.e.e.e.e.e.e.e.e.e.",
"w.e.e.e.e.e.e.e.e.e.e.e.e.e.e.e.e.e.e.e.e.e.e.e.e.e.q.2.v 4 2 4 q ) b.<X0X0X9X9X0X0X0X9X<Xb.U 9 1 1 9 8 k C Z O.;.6.w.e.e.e.e.e.e.e.e.e.e.e.",
"e.e.e.e.e.e.e.e.e.e.e.w.e.e.e.e.e.e.e.e.e.e.e.e.e.w.2.D 0 4 2 4 P x.*X7X0X7X6X4X8X0X0X<XD.) q 4 2 2 7 f M C A *.7.w.e.e.e.e.e.e.e.e.e.e.e.e.",
"e.e.e.e.e.e.e.e.e.e.e.e.e.e.e.e.e.e.e.e.e.e.e.e.w.8.J g 5 2 2 u _ W.7X7X6X1X:X<X7X9X1XT.' b 2 1 2 9 f B N Z *.<.w.r.e.e.e.e.e.e.e.e.e.e.e.e.",
"e.e.e.e.e.e.e.e.e.e.e.e.e.e.e.e.e.e.e.e.e.e.e.e.6.=.n 5 5 4 6 ! x.*X9X4X:X+X#X>X8X4X`.o.y 5 5 4 7 f k N C O.,.q.w.r.e.e.e.e.e.e.e.e.e.e.e.e.",
"e.e.w.e.e.e.e.e.e.e.e.e.e.e.e.e.e.e.e.e.e.e.e.w.2.S 0 4 4 6 P g..X3X2X&XXX.X&X5X8X#Xs.U 5 1 5 9 0 z N N A *.6.w.e.e.e.e.e.e.e.e.e.e.e.e.e.e.",
"e.e.e.e.e.e.e.e.e.e.e.e.e.e.e.e.e.e.e.e.e.e.w.5.H 0 5 4 6 L | E.7X2X%X].'..X:X6X>XJ.Q 6 5 5 5 0 l N C A *.<.q.r.e.e.e.e.e.e.e.w.e.e.w.e.e.e.",
"e.e.e.e.e.e.e.e.e.e.e.e.e.e.e.e.e.e.e.e.e.r.8.$.v 9 4 6 e ) J.=X1X@X_.)._.OX,X2XK.[ u 4 5 5 0 l N N A &.,.q.w.e.e.e.e.e.e.e.e.e.e.e.e.e.e.e.",
"e.e.e.e.e.e.e.e.e.e.e.e.e.r.e.e.e.e.e.e.w.q.1.n 0 5 4 q Y a.XX-XOX~.P.Q.'.=X=X^.| L 6 4 5 0 0 B C C +.,.0.e.e.e.e.e.e.e.e.e.e.e.e.e.e.e.e.e.",
"e.e.e.e.e.e.e.e.e.e.e.w.e.w.e.e.e.e.e.e.q.1.F x 6 4 4 b | J.=XXX^.P.J.^.{.=XL.X.P 6 5 5 5 0 z N C A ;.0.e.w.e.e.e.e.e.e.e.e.e.e.e.e.e.e.e.e.",
"e.e.e.e.e.e.e.e.e.e.e.e.e.e.e.e.e.e.e.w.4.F x q 5 6 y ! m.~.{.!.A.C.J.~.{._.f.I 6 5 5 9 0 f M N A &.<.w.r.e.e.e.e.e.e.e.e.e.e.e.e.e.e.e.e.e.",
"e.e.e.e.e.e.e.e.e.e.e.e.e.e.e.e.e.e.w.8.%.x 5 5 6 u E o.^.{.P.B.n.B.P.{._.n./ 9 5 5 e x l M C C O.,.0.e.e.e.e.e.e.e.e.e.e.e.e.e.e.e.e.e.e.e.",
"e.e.e.e.e.e.e.e.e.e.e.e.e.e.e.e.e.r.w.=.m 9 5 5 e I X.S.~.!.B.n.n.S.Q._.B.] K 5 4 5 0 h B N C O.:.7.e.e.e.e.e.e.e.e.e.e.e.e.e.e.e.e.e.e.e.e.",
"e.e.e.e.e.e.e.w.e.e.e.e.e.e.e.e.e.w.5.D 9 5 5 5 i ) m.~.P.C.n.n.m.P.~.S.X.K 6 5 5 5 g z N C A *.6.w.e.e.e.e.e.e.e.e.w.e.e.e.e.e.e.e.e.e.e.e.",
"e.e.e.e.e.e.e.e.e.e.e.e.e.e.e.e.e.4.J x 3 3 3 q ^ k.P.^.C.n.n.n.S.~.Q.X.R r 3 5 4 9 f N C A &.<.w.e.e.e.e.e.e.e.e.e.e.e.e.e.e.e.e.e.e.e.e.e.",
"e.e.e.e.e.e.e.e.e.e.e.e.e.e.e.w.9.$.g 5 3 3 9 I X.P.Y.J.n.n.n.S.P.Q.z.Q r 5 5 3 9 d z N Z &.>.0.e.e.e.e.e.e.e.e.e.e.e.e.e.e.e.e.e.e.e.e.e.e.",
"e.e.e.e.e.e.e.e.e.e.e.e.e.e.e.9.-.m 2 2 2 1 K ] m.~.Q.m.n.n.A.Q.~.n.( i 3 3 3 2 d z N C Z >.w.w.e.e.e.e.e.e.w.e.e.e.e.e.e.e.e.e.e.e.e.e.e.e.",
"e.e.e.e.e.e.e.e.e.e.e.e.e.e.r.4.S 0 4 < 2 t ~ j.Q.[.Q.A.A.S.Q.Q.S.{ K 9 , 2 , 8 l N C A &.5.e.r.e.e.e.e.e.e.e.e.e.e.e.e.e.e.e.e.e.e.e.e.e.e.",
"e.e.e.e.e.e.e.e.e.e.e.e.e.e.e.-.8 < < , 6 R X.A.~.[.!.Q.Q.!.~.S.u.U 3 1 1 1 7 s M C C +.,.0.e.e.e.e.e.e.e.e.e.e.e.e.e.e.e.e.e.e.e.e.e.e.e.e.",
"e.e.e.e.e.e.e.e.e.e.e.e.e.w.5.A 2 $ < 4 L ] f.C.Q.~.(.~.!.Q.P.i.Q q % , , , d M N C +.;.0.w.e.e.e.e.e.e.e.e.e.e.e.e.e.e.e.e.e.e.e.e.e.e.e.w.",
"e.e.e.w.e.e.e.e.e.e.e.e.r.7.*.M , $ & 3 K ] X.t.i.n.m.m.n.i.t.~ r & $ & , : j C C O.;.6.w.e.e.e.e.e.e.e.e.e.e.e.e.e.e.e.e.e.e.e.e.e.e.e.e.e.",
"e.e.e.r.e.e.e.e.e.e.e.e.r.0.+.s , $ $ & , q r r i i i i i i i 5 & & $ $ , f M C O.&.6.w.e.e.e.e.e.e.e.e.e.e.e.e.e.e.e.e.e.e.e.w.e.e.e.e.e.e.",
"e.e.e.e.e.e.e.e.e.e.e.w.r.<.O.s : # $ $ & @ @ @ @ @ @ @ @ @ O @ @ $ # = p k N C &.,.q.r.e.e.e.e.e.e.e.e.e.e.e.e.e.w.e.e.e.e.e.e.e.e.e.e.e.e.",
"e.e.e.e.e.e.e.e.e.e.e.e.0.<.O.N s : @ @ $ @ O @ @ $ @ @ & $ @ @ & @ # > k N N A >.0.e.e.e.e.e.e.e.e.e.e.e.e.e.e.e.e.e.e.e.e.e.e.e.e.e.e.e.e.",
"e.e.e.e.e.e.e.e.e.e.e.e.q.<.O.N M p ; * # o O . O @ O o O @ O @ # = : s N N O.&.6.e.e.e.e.e.e.e.e.e.e.e.e.e.e.e.e.e.e.e.e.e.e.e.e.e.e.e.e.e.",
"e.e.e.e.e.e.e.e.e.e.e.e.r.7.+.C N M f > = # # # # # # # # @ # * : p k N N C &.,.0.e.e.e.e.e.e.e.e.e.e.e.e.e.e.e.e.e.e.e.e.e.e.e.e.e.e.e.e.e.",
"e.e.e.e.e.e.e.e.e.e.e.e.r.0.;.O.C N M k k j s s a s s j s s s j k N N N A +.,.0.e.e.e.e.e.e.e.e.e.e.e.e.e.e.e.e.e.e.e.e.e.e.e.e.e.e.e.w.e.e.",
"w.e.e.e.e.e.e.e.e.e.e.e.r.0.,.+.Z N C C C Z Z C C Z Z Z C C C Z C C C N O.;.6.e.e.e.e.e.e.e.e.e.e.e.e.w.e.e.e.e.e.e.e.e.e.e.e.e.e.e.e.e.e.e."
};
