/* XPM */
static  xpm_row_t const bomba [] = {
/* columns rows colors chars-per-pixel */
"60 60 202 2 ",
"   c #7F0000",
".  c #840200",
"X  c #8B0C00",
"o  c #890600",
"O  c #8E1300",
"+  c #8F1B05",
"@  c #8F1D08",
"#  c #911500",
"$  c #921C04",
"%  c #921F09",
"&  c #9C1A03",
"*  c #A31C00",
"=  c #942007",
"-  c #95220A",
";  c #9A250B",
":  c #9B280E",
">  c #9C2105",
",  c #962412",
"<  c #9A2A13",
"1  c #9A2C1B",
"2  c #962618",
"3  c #9E331E",
"4  c #A32203",
"5  c #AB2201",
"6  c #A0270A",
"7  c #A42A0B",
"8  c #AB2D0C",
"9  c #A62807",
"0  c #B12F0C",
"q  c #BB2B07",
"w  c #AD300E",
"e  c #B4320D",
"r  c #BC340D",
"t  c #AC3312",
"y  c #BA3611",
"u  c #B93712",
"i  c #A42D10",
"p  c #9F3622",
"a  c #9E3629",
"s  c #A03721",
"d  c #A13A25",
"f  c #A23D2A",
"g  c #A03B30",
"h  c #C2360E",
"j  c #C4390F",
"k  c #C83A0F",
"l  c #C53C11",
"z  c #C93D12",
"x  c #C22F03",
"c  c #A4422E",
"v  c #B64326",
"b  c #A54432",
"n  c #A84935",
"m  c #A94D3C",
"M  c #A74A3A",
"N  c #B04E36",
"B  c #CA4413",
"V  c #CE4A15",
"C  c #C84518",
"Z  c #D24C17",
"A  c #D24D18",
"S  c #CF5115",
"D  c #D6521A",
"F  c #DA561C",
"G  c #DC5B1E",
"H  c #D45A17",
"J  c #D0540E",
"K  c #DE631D",
"L  c #DD6B1C",
"P  c #D56217",
"I  c #DD721D",
"U  c #E0651E",
"Y  c #E26B1F",
"T  c #E4731F",
"R  c #DF5D20",
"E  c #E05F21",
"W  c #DE6020",
"Q  c #E36B20",
"!  c #E06320",
"~  c #E47420",
"^  c #E67A21",
"/  c #E87D21",
"(  c #AD5443",
")  c #AC5549",
"_  c #AE5A49",
"`  c #B15D4C",
"'  c #B25D55",
"]  c #B5614E",
"[  c #B36353",
"{  c #B5655B",
"}  c #B66959",
"|  c #B96E5E",
" . c #B76857",
".. c #BA6F60",
"X. c #B96D66",
"o. c #BB7464",
"O. c #BC7568",
"+. c #BE796C",
"@. c #C07C6E",
"#. c #C17F71",
"$. c #C07E7A",
"%. c #CE6B4E",
"&. c #EB871D",
"*. c #ED951E",
"=. c #F2A918",
"-. c #DC8020",
";. c #E78322",
":. c #EA8423",
">. c #EC8B24",
",. c #E58B27",
"<. c #ED9325",
"1. c #EE9B26",
"2. c #EE9D28",
"3. c #E99627",
"4. c #F09A27",
"5. c #EFA229",
"6. c #EFA427",
"7. c #F2AC24",
"8. c #F0A429",
"9. c #F1AB2A",
"0. c #F2A727",
"q. c #EFB12B",
"w. c #F5BC23",
"e. c #F3B32B",
"r. c #F4BC2D",
"t. c #F2B026",
"y. c #F4BD33",
"u. c #F2B739",
"i. c #F5C22E",
"p. c #F6C427",
"a. c #F6C431",
"s. c #F7C931",
"d. c #F8CD32",
"f. c #F5C43A",
"g. c #F6CA3F",
"h. c #EEA545",
"j. c #C38375",
"k. c #C5897D",
"l. c #C5877C",
"z. c #E5A968",
"x. c #F5C743",
"c. c #F6CB44",
"v. c #F6CB4B",
"b. c #F6CE54",
"n. c #F7D357",
"m. c #F6D663",
"M. c #F6DE79",
"N. c #F7DC77",
"B. c #F8E27E",
"V. c #C88E82",
"C. c #C78D85",
"Z. c #CA9186",
"A. c #CB948B",
"S. c #CD998E",
"D. c #CF9C93",
"F. c #D09F95",
"G. c #D2A196",
"H. c #D3A59C",
"J. c #D3A89E",
"K. c #CFA198",
"L. c #D6ABA2",
"P. c #D9AFA6",
"I. c #DAB4AD",
"U. c #D7B1A8",
"Y. c #DDBAB3",
"T. c #DFBFB8",
"R. c #DCB7B1",
"E. c #EBBBAB",
"W. c #F6DE85",
"Q. c #F7E28C",
"!. c #F6E083",
"~. c #F6E694",
"^. c #F7E79B",
"/. c #F7E99D",
"(. c #DFC0B9",
"). c #E1C2BB",
"_. c #F8EFAD",
"`. c #F7EBA8",
"'. c #F8F1B3",
"]. c #F8F4BD",
"[. c #F7F2B8",
"{. c #E3C6C0",
"}. c #E5CAC5",
"|. c #E6CEC9",
" X c #E8CFCA",
".X c #E7D1CC",
"XX c #E9D1CC",
"oX c #EAD5D1",
"OX c #EDDAD6",
"+X c #EEDDDA",
"@X c #F8F5C4",
"#X c #EFE1DE",
"$X c #F0E2DE",
"%X c #EFE3E1",
"&X c #F2E5E2",
"*X c #F3E9E7",
"=X c #F5EDEB",
"-X c #F7F0EF",
";X c #F6F2F1",
":X c #F9F5F4",
">X c #FBF8F7",
",X c #4ee44e",
/* pixels */
"&X,X|.` =X,X,X,X,X,X,X,X,X,X,X,X,X,X,X,X,X,X,X,X,X,X,X,X,X,X,X,X,X,X,X,X,X,X,X,X,X,X,X,X,X,X,X,X,X,X,X,X,X,X,X,X,X,X,X,X",
"s oX,XY.o.;X,X,X,X,X,X,X,X,X,X,X,X,X,X,X,X,X,X,X,X,X,X,X,X,X,X,X,X,X,X,X,X,X,X,X,X,X,X,X,X,X,X,X,X,X,X,X,X,X,X,X,X,X,X,X",
"d f >X,XK.[ ,X>X,X,X,X,X,X,X,X,X,X,X,X,X,X,X,X,X,X>X,X,X,X,X,X,X,X,X,X,X,X,X,X,X,X,X|.;X,X,X,X,X,X,X,X,X,X,X,X,X,X,X,X,X",
"*X..|.,X).O.&X,X,X,X,X,X,X,X,X,X,X,X,X,X,X,X>X,X,X,X,X,X,X>X,X,X,X,X,X,X,X,X,X,X,X,XO.+X,X,X,X,X,X,X,X,X,X,X,X,X,X,X,X,X",
",XoX1 }.,XZ.X.,X>X,X,X,X,X,X,X,X,X,X,X,X,X>X,XOXI.Y.Y.I.Y.:X,X,X,X,X,X,X,X,X,X,X,X,X,X,X,X,X,X,X,X,X,X,X,X,X,X,X,X,X,X,X",
",X=X( s oX|.@.OX,X,X,X,X,X,X,X,X,X,X,X,X,XOXP.( X O O O + S.Y.>X,X>X,X,XXXXX,X,X,X,X,X,X,X,X,X,X,X,X,X,X,X,X,X,X,X,X,X,X",
",X,XXXo s OXC.a $X,X,X,X,X,X>X,X,X,X>X,X&X` o ; 8 8 8 8 i O - A.I.,X>X,X$.X.,X>X,X,X,X,X,X,X,X,X,X,X,X,X,X,X,X,X,X,X,X,X",
",X,X*XX.. O.&Xg M OX,X,X>X,X,X,X,X>X,X&X) # t r h l z h h 0 7 X , I.,X,X).).,X,X,X,X>X,X>X,X,X,X,X,X,X,X,X,X,X,X,X,X,X,X",
",X,X,X=X| s  XS.. L.,X>X,XA.+.V.,X&Xj.] 4 r j h h h h B A A A t @ < L.,X,X,X,X,X>X,X,X,X,X,X,X>X,X,X,X,X,X,X,X,X,X,X,X,X",
",X,X>X,XR.. d S._ b #XF.} , X % o.[ X > l B Z Z Z Z A G R G B h 8 @ 2 L.,X,X,X,X,XS.| o.o...k.,X,X,X,X,X,X,X,X,X,X,X,X,X",
",X,X,X,X=X#.. D.Z.. ( 1 O - - - O O 7 r z F G R R R R R G G Z Z r = $ p ] P.,X,XD.% O # O O , ` V.,X,X,X,X,X,X,X,X,X,X,X",
",X,X,X,X,XL.X s G.} o - - - e e u 8 6 h B G G G G G F F F G E F r r 8 $ & d ` ` 2 $ < - - - - O $ V.,X,X,X,X,X,X,X,X,X,X",
",X,X,X,X,X:X#.X b d $ - e r j j B L e B F U :.Y G F 3.e.9.:.G F Z e 8 8 : > O * r e r e r 0 > : O ` ,X,X,X,X,X,X,X,X;X[ ",
",X,X,X,X>X,XG.# $ $ - 0 h D F D K >.;.Y L >.>.>.U 3.a.a.1.U G G R Z h 0 6 r u l k j j j j j e - - - k.,X>X,X,X:X;X} n ).",
",X,X>X=X,X,X>Xl.$ - 0 j j F :.>.>.:.>.1.y.r.e.r.r.r.i.1.K G e.9.! D h h h j j Z F B j j h j j e - X o.,X;X=X:X+.a (.&X>X",
",X,X|.} *X-X,X,X+.# r j V ;.<.r.e.>.1.y.r.9.>.9.s.1.>.:.G W i.i.L h j j l j V K G F F l h j j e - $  .,Xk.$ 3 I.-X>X,X,X",
",X,X,X}.: [ :X,X+.* l r V e.s.e.>.<.s.e.:.>.:.>.9.6.<.~ F G q.5.h Z U W K G G G G R R l h j j e $ - ; < - < I.,X,X,X,X,X",
",X,X,X,X{.% [ ,XH.u j h 5.y.6.:.:.<.a.8.>.1.<.>.:.6.i.a.^ F G A S 8.i.t.1./ K G G G K G j h j r : ; $ = # +.:X,X,X,X,X,X",
",X,X,X>X,X{.% { +X%.x j L ,.L K :.1.e.<.9.i.i.9.1.<.6.r.a.^ D V 8.i.s.i.a.2.>.~ G G ~ G B l z r j r 6 ; - O L.,X>X,X,X,X",
",X,X,X,X,X,X(.1 X 7 r h L T >.2.1.<.i.a.w.x.x.w.y.>.<.r.s.a.K W s.i.9.9.<.>.<.>.Q G G Q Y Y U V k h j 0 : $ @.-X,X,X,X,X",
",X,X,X,X,X,X,X).3 + e j H U 8.i.8.<.p.f.n.W.~.x.9.1.r.9.9.8.~ ~ e.0.<.8.2.e.9.>.Q F G ^ >.<.>.>.F B r j e : X I.,X>X,X,X",
",X,X,X,X,X,X>X,XY.f 9 r h V ;.0.>.<.f.W.@X[.].m.w.s.e.8.<.>.^ ^ T Y >.e.r.r.<.T Q Q U G ~ T :.~ G F B r l 8 O Y.,X,X,X,X",
",X,X,X,X,X,X,X>X,X| X i j r q K T *.b.]._._.'.~.x.i./ ,.L P G ~ 2.U G T 4.<.4.<.*.7.6.~ F G U Z R G Z h j 8 O I.,X,X,X,X",
",X,X,X,X,X,X,X,X,X).c + y l -.,.~ *.v.[.'.[.].~.c.i.,.F h q V 3.e.>.Y U T <.r.n.B.M.g.7.U G D j Z F Z h l w O I.,X,X,X,X",
",X,X,X,X,X,X,X,X,X,X .O 7 y r.i./ 7.b.].'.Q.m.u.*.8.<./ L Z D 9.y.9.8.U U 9.p.W.@X[.v.6.K G D l D R S j e : O Y.,X,X,X,X",
",X,X,X,X,X,X,X,X,XG.< % 8 L r.r.:.i.a.N.@XM.=.>.:.8.9.7.t.2.>.i.a.s.e.:.:.>.e.c.^.[.g.&.^ F B l B B k j 8 @ = n OX,X>X,X",
",X,X,X,X,X,X>X,XH.- + w j &.3.<.e.a.r.a.b.c.8.:.8.i.M.~.~.Q.<.1.a.r.y.5.>.>.>.<.u././.u.Y G D D D V r j r 6 = # b +X,X,X",
",X,X,X,X,X,X,XJ.- 9 r h Z :.>.e.r.4.a.i.r.s.8.&.9.p.~.@X]._.,.>.a.i.s.t.:.>.>.:.<.u.b.a.K F R G G G Z x k j 6 - $ c #X,X",
",X,X,X,X,X,XJ.% 9 l j Z G K e.i.<.:.2.a.y.s.8.2.a.a.f.~._.v.e.>.2.a.e.>.:.8.5.>.>.t.i.r.;.G G D j V G F V h h 6 - $ c *X",
",X,X,X,X,XL.$ 9 j j A G / :.y.f.y.e.>.<.<.<.>.2.i.y.p.x.x.a.r.<.>.>.>.:.5.a.r.r.3.9.2.<.&.B G D r B G R V r j 7 = = : #X",
",X,X,X,XY.$ - e h V G K :.>.y.~._.^.f.y.r.0.P h I e.i.!._.`.x.r.t.>.>.5.i.a.i.8.>.<.>.>.U F F F h B G G V h j 7 = = < $X",
",X,X,X,XR.O 8 j j D G T >.>.r.x.^.`.M.p.8.,.H r K e.i.f.Q.[.~.s.r./ <.a.r.r.r.1.:.e.<.:.U G G D B F G G B h k 7 - = 1 &X",
",X,X,X,XR.O 8 r Z K F / >.>.e.e.i.s.s.8.<.K h F U <.r.e.y.!.f.e.8.F ~ r.i.9.>.>.T w.<.:.G G F B G R G V h j r 6 - = : #X",
",X,X,X,XR.O w j B G G / >.>.>.>.e.e.4./ >.P z / >.<.>.<.r.i.r.<.:.R G 1.s.<.~ :.h.u.2.<./ G G E G D B h k r 6 - - # ( =X",
",X,X>X,XR.+ 7 r r A E ~ / >.<.>.T T F F Y K A / :.e.9.r.a.a.9.>.~ G G :.2.Q z J z.h.w.a.9.G F D V r l r e 6 $ - - ( &X,X",
",X,X,X,XU.X , 8 j B G F F Q ^ Q G U Y U F F ^ >.<.9.9.9.i.9.<./ F G ~ <.U A V h q 3.s.r.<.R D r j r e 6 % - : - O  X,X,X",
",X,X,X,XOXm O 7 r h B F R U Y Y Y >.<.:.U F ~ >.2.0.2.>.8.>.^ :.Q ~ :.<.U A B h S q.d.9./ G G B k e % = : : $ o ` *X,X,X",
",X,X,X>X,X+X( o > j h z F >.<.0.9.2.:.>.Y F ~ >.:.e.d.<.:.:.U :.<.<.<.>.! G F j P >.>.~ F F G D j e - $ X o [ V.#X,X,X,X",
">X,X,X,X,X,X|.G.` 5 Z V F Y >.8.s.r.>./ F R U / >.4.2.<.<.Q ! >.:.Q Y Y ^ U E D D R F F ~ ~ ~ D r r * ` J.Z.OX,X>X,X,X,X",
"=Xj.} V.,X>X,X}.N q D U G F U >.2.4.:.U G G F ~ <.>.>.Q Q F G Q U G T / <.~ F E R R G ~ >.>.:.F j r > c }.,X,X>X,X,X,X,X",
"( o 2 T.,X,X).2 5 k Z G R G T >.,./ U G A A G K Q Q Q F F K T ~ T T 4.0.T R G V l D G :.>.>.:.D h h 7 O 1 ).,X,X,X,X,X,X",
"Y.{.XX,X,X).1 > y h S G B F >.>.~ / F E A h A G R F F E G G >.<.r.e.r.e.T F F L D R G :.>.:.U D h z 0 - $ 1 ).,X,X,X,X,X",
",X,X,X>X,XH.& l j j k B h D U K G K G D k r V R F E E F G / >.<.s.s.e.<./ F >.8.Q R F K :.:.F l h j 0 - : X H.,X>X,X,X,X",
">X,X>X,X,XL.* l j j r j j l F G G G F j h j l A E F G G G ,.:.U >.<.>.T G Y <.>.K B D R K U D j h h j 9 - $ L.,X,X,X,X,X",
",X,X,X,X,XL.O w k h 7 e j Z G G D l l h w 9 h h Z G G G G G K G E G U G F G K U B Z B D G D l j j h j 8 - X H.,X>X,X,X,X",
",X,X,X>X,XJ.X t h 7 - e j l D F l h j e - = 0 k h A G z j F G G G G G Z r V F F B h j j j l h h h k e - : - I.,X,X,X,X,X",
",X,X,X,X,XR.: > - > e j h h j j j h r 0 - - 7 h h j j h j D R E R F Z h j l h l h h h j h j j j j r 8 - X Z.,X,X,X,X,X,X",
",X,X,X,X,X,XE.t $ 8 j j h l r j h e % # $ : - 8 l h h j j j A D F Z h j A Z h r r l j j r r e r 8 - : $ - I.,X,X,X,X,X,X",
",X,X,X,X,X>X,XZ.# : 8 j l h l l e $ - ] f O $ 7 h l h h h h h h h r j B D B r 6 e B u h h - - - - % O , P.,X>X,X,X,X,X,X",
",X,X,X,X,X>X,XA.o % = w u e 5 5 $ < k.,X(.` b $ 8 e r l h j j j e > e j r j 8 = 4 5 # r h % O + - s ` H.,X,X,X,X,X,X,X,X",
",X,X,X,X,X+XI._ M M $ + X O [ } O b ,X,X>X,XZ.O - = r j h l h h r = > r l r 7 O ( X.o.C h 2 o.[ o  .,X,X,X,X,X,X,X,X,X,X",
",X,X,X,X=X{   f H._ X [ j.j.>X=Xp A.,X,X>X,Xl.X : = 7 j j h h j 8 = = ; 8 i O m +X,X,Xv q t >X=X(  .,X>X,X,X,X,X,X,X,X,X",
",X,X,X&XM a V.oXl.. [ *X,X,X,X+.a ,X,X,X,X,X|.n $ - - 7 8 j j 8 = = - = - O m +X,X>X,XD.w v :X,XT.2 T.,X,X,X,X,X,X,X,X,X",
",X,X#Xo.C.).,X{.f [ *X,X>X,X*X2 D.,X,X,X,X>X,X+.X < - $ = 7 7 = - = - < # m +X,X,X,X,X:X1 7 Z.,X=X) ' ,X>X,X,X,X,X,X,X,X",
",X,X%XI.,X>X,Xk.. L.,X>X,X,X:XY.,X,X,X,X,X,X,XXXb X - ; - = = - - ; = X m +X,X,X,X,X,X>XJ.% p ,X,X*Xk.P.,X>X,X,X,X,X,X,X",
",X,X,X,X,X>X,Xj.` =X,X,X,X,X,X,X,X,X,X,X,X,X,X,XXXR.f O $ = = ; - X n R.oX,X,XV.Y.,X,X,X;X- c ,X,X,XA.{ ,X,X,X,X,X,X,X,X",
",X,X,X,X,X,XL.+.-X,X,X,X,X,X,X,X,X,X,X,X,X,X,X,X,X,XXXT.Y.1 $ # f ).XX,X,X>X,X|.$X,X,X,X,XJ.n ,X,X,X&XOX,X,X,X,X,X,X,X,X",
",X,X,X,X,X,X+X#X,X,X,X,X,X,X,X,X,X,X,X,X,X,X,X,X,X>X,X,X,XoXXX XOX,X,X,X,X,X,X,X,X,X,X,X,X*X: | ,X,X,X,X,X,X,X,X,X,X,X,X",
",X,X,X,X,XJ.Z.,X>X,X,X,X,X,X,X,X,X,X,X,X,X,X,X,X,X,X,X>X,X,X,X,X,X>X,X,X,X,X,X,X,X,X,X,X,X,XU.n ,X,X,X,X,X,X,X,X,X,X,X,X",
",X,X>X,XI.} ;X,X,X,X,X,X,X,X,X,X,X,X,X,X,X,X,X,X,X,X,X,X,X>X,X,X,X,X,X,X,X,X,X,X,X,X,X,X,X,XXXm ,X,X,X,X,X,X,X,X,X,X,X,X"
};
