/* XPM */
static  xpm_row_t const bomba[] = {
/* columns rows colors chars-per-pixel */
"60 60 168 2 ",
"   c #7E0300",
".  c #850301",
"X  c #880601",
"o  c #8B0D02",
"O  c #8D1301",
"+  c #8E1A03",
"@  c #8F1C09",
"#  c #911502",
"$  c #9D1400",
"%  c #931C04",
"&  c #9B1E05",
"*  c #931E0A",
"=  c #A41C01",
"-  c #942206",
";  c #9C2106",
":  c #95220B",
">  c #9B250B",
",  c #9B2A0E",
"<  c #952411",
"1  c #952A17",
"2  c #9A2912",
"3  c #962818",
"4  c #9A2C1A",
"5  c #9B2614",
"6  c #9E351E",
"7  c #A42302",
"8  c #AC2202",
"9  c #A12609",
"0  c #A42A0B",
"q  c #AB2D0B",
"w  c #A42B04",
"e  c #BA2604",
"r  c #BA2F06",
"t  c #B22D0C",
"y  c #BD2C0C",
"u  c #AC310E",
"i  c #B4320D",
"p  c #BA320E",
"a  c #A42F10",
"s  c #AC3313",
"d  c #B53511",
"f  c #BA3512",
"g  c #B53815",
"h  c #BE3A12",
"j  c #9F3622",
"k  c #9F3A27",
"l  c #9D342A",
"z  c #A23522",
"x  c #A13925",
"c  c #A23B2A",
"v  c #C32E02",
"b  c #C2350D",
"n  c #C43A0D",
"m  c #CB3B0C",
"M  c #C53C11",
"N  c #C93D12",
"B  c #A5412D",
"V  c #B14320",
"C  c #B7442A",
"Z  c #A44730",
"A  c #AA4A35",
"S  c #A84E3A",
"D  c #D0570C",
"F  c #C54110",
"G  c #CA4413",
"H  c #CD4A15",
"J  c #C6461D",
"K  c #CD481B",
"L  c #D24D16",
"P  c #D14E19",
"I  c #CF5014",
"U  c #D15216",
"Y  c #D5531A",
"T  c #DA551C",
"R  c #D55F1B",
"E  c #DD5B1D",
"W  c #D35A14",
"Q  c #DD631D",
"!  c #DC6B1D",
"~  c #D46316",
"^  c #DE711E",
"/  c #E1651E",
"(  c #E26B1D",
")  c #E4731E",
"_  c #DD5E22",
"`  c #E15C21",
"'  c #DF6122",
"]  c #E06221",
"[  c #E26A22",
"{  c #E47422",
"}  c #E67A22",
"|  c #EA7C21",
" . c #B35C48",
".. c #E8821F",
"X. c #EC8C1C",
"o. c #EE931D",
"O. c #EF981C",
"+. c #F3AB1B",
"@. c #DC8022",
"#. c #E58423",
"$. c #EA8422",
"%. c #E18922",
"&. c #ED8B24",
"*. c #EB8E2F",
"=. c #ED9425",
"-. c #E79920",
";. c #EE9B26",
":. c #EE9D2A",
">. c #EC922B",
",. c #F29E24",
"<. c #F29429",
"1. c #F39D2A",
"2. c #EEA223",
"3. c #EDA22A",
"4. c #EFAB29",
"5. c #F3A724",
"6. c #F3AC24",
"7. c #F2A429",
"8. c #F2AB2A",
"9. c #EEB32A",
"0. c #F3B127",
"q. c #F6BC22",
"w. c #F2B32C",
"e. c #F5BC2D",
"r. c #F1B032",
"t. c #F5BD33",
"y. c #F2B43B",
"u. c #F1BA3C",
"i. c #FDD501",
"p. c #F5C22D",
"a. c #F4C524",
"s. c #F6C432",
"d. c #F5CA32",
"f. c #F9CD30",
"g. c #F6C539",
"h. c #F5C83E",
"j. c #E8A646",
"k. c #F0A544",
"l. c #E5AB6B",
"z. c #F5C643",
"x. c #F5CB44",
"c. c #F5CC4B",
"v. c #F6CC54",
"b. c #F6D351",
"n. c #F7D258",
"m. c #FBD85C",
"M. c #F7D565",
"N. c #F5DC76",
"B. c #F5DC79",
"V. c #FBE07C",
"C. c #F7DC81",
"Z. c #F4DE8A",
"A. c #F4E18B",
"S. c #F5E594",
"D. c #F5E799",
"F. c #F5EB9A",
"G. c #F6EAA5",
"H. c #F5E8AD",
"J. c #FAEFAD",
"K. c #F5F1B3",
"L. c #F9F2B4",
"P. c #F6F5BC",
"I. c #F9F5BE",
"U. c #FAF7C4",
"Y. c #F9F7F5",
"T. c #F9FAF6",
"R. c #4ee44e",
"E. c #4ee44e",
/* pixels */
"R.R.R.f R.R.R.R.R.R.R.R.R.R.R.R.R.R.R.R.R.R.R.R.R.R.R.R.R.R.R.R.R.R.R.R.R.R.R.R.R.R.R.R.R.R.R.R.R.R.R.R.R.R.R.R.R.R.R.R.",
"z R.R.R.p R.R.R.R.R.R.R.R.R.R.R.R.R.R.R.R.R.R.R.R.R.R.R.R.R.R.R.R.R.R.R.R.R.R.R.R.R.R.R.R.R.R.R.R.R.R.R.R.R.R.R.R.R.R.R.",
"k k Y.R.R.p R.T.R.R.R.R.R.R.R.R.R.R.R.R.R.R.R.R.R.R.T.R.R.R.R.R.R.R.R.R.R.R.R.R.R.R.R.R.R.R.R.R.R.R.R.R.R.R.R.R.R.R.R.R.",
"R.f R.R.R.p R.R.R.R.R.R.R.R.R.R.R.R.R.R.R.R.R.R.R.R.R.R.R.R.Y.R.R.R.R.R.R.R.R.R.R.R.R.R.R.R.R.R.R.R.R.R.R.R.R.R.R.R.R.R.",
"R.y 4 i R.y t R.T.R.R.R.R.R.R.R.R.R.R.R.R.R.R.R.R.R.R.R.R.T.R.Y.R.R.T.R.R.R.R.R.R.R.R.R.R.R.R.R.R.R.R.R.R.R.R.R.R.R.R.R.",
"R.p p j R.R.p R.R.R.R.R.R.R.R.R.R.R.T.R.R.R.p p o O + O O R.R.Y.R.R.R.R.R.R.R.T.R.R.R.R.R.R.R.R.R.R.R.R.R.R.R.R.R.R.R.R.",
"R.R.i p z R.p l R.R.R.R.R.R.R.T.R.R.R.R.R.p . ; u q q q q # < R.R.R.R.R.R.R.R.R.R.R.R.R.R.R.R.R.R.R.R.R.R.R.R.R.R.R.R.R.",
"R.R.R.y . p R.c S R.R.R.T.R.R.R.R.Y.R.R.y % u p m M M b b q 0 o < R.R.R.R.R.R.R.R.R.R.Y.R.R.R.R.R.R.R.R.R.R.R.R.R.R.R.R.",
"R.R.R.d p z R.R.p p R.T.R.p f y R.R.p p 8 f n b p b p H P Y L s * 5 R.R.R.R.R.R.R.R.R.R.R.R.R.R.R.R.R.R.R.R.R.R.R.R.R.R.",
"R.R.Y.R.t . k R.f B R.f i < o & p y o ; b G P L L L L E ` T G b q - < R.R.R.R.R.R.R.p p y i p R.R.R.R.R.R.R.R.R.R.R.R.R.",
"R.R.R.R.p p . R.y . t 4 O : : - O O , p N T ' _ ` _ ' E E E L U f - # j i R.R.R.R.: O # O O : p p R.R.R.R.R.R.R.R.R.R.R.",
"R.R.R.R.R.y o z R.f # : < : i i f q 9 n K E E T E E _ T E ` ` T n p u % = g i p 3 % < < : : : O % d T.R.R.R.R.R.R.R.R.R.",
"R.R.R.R.R.p p o c f & : t p h b G ' d G Y ( $.( T _ =.w.4...E E L f q q , ; # = p i p p p i : 2 o p p R.T.R.R.R.R.R.R.p ",
"R.R.E.R.T.R.p p % & : i n Y E Y E &.#.) ( &.&.X.] -.d.s.;./ E E E K p i 0 p f M m n n m n m i ; : : p R.R.R.R.T.R.i p R.",
"R.E.R.R.R.R.R.p + > t n n E $.&.&.$.&.3.e.e.w.e.e.e.p.-.Q E 9.4.` Y n p b n n L E F n h n r n r : O p R.R.R.R.i k i R.R.",
"R.R.R.d R.R.R.R.p # i n H $.=.e.w.&.;.e.p.8.%.4.d.:.&...Q ' p.p.( p m n M n U E T E R n n h n h 5 + p R.y % p p R.T.R.R.",
"R.R.R.R.1 p R.R.p = M p I 9.d.w.&.>.s.r.&...$.X.8.3.&.^ _ E 4.3.n H ( Q E _ E E T E E N n n n i : - : 2 - 5 R.R.R.R.R.R.",
"R.R.R.R.R.: p R.y g n b :.e.7.$.$.<.s.3.X.=.=.&.$.7.p.p.} Y R P Y 7.s.8.;.) Q _ E E Q E n n b p > > % : # f R.R.R.R.T.R.",
"R.R.R.R.R.R.* p R.p v M ! &.[ / | ,.w.=.8.f.p.8.=.&.7.e.p.#.T P 7.s.s.d.p.2.&.{ E E } E N G M p F p 9 ; > O R.R.R.R.R.R.",
"R.R.R.R.R.R.R.4 o q p b Q } $.:.;.=.s.s.q.z.z.p.t.=.=.p.d.p.E ' s.p.8.8.:.&.=.&.( E ` ( / [ ! H n n n i > # R.R.R.R.R.R.",
"R.R.R.R.R.R.R.R.6 O i n ~ Q ,.s.8.=.p.g.n.A.S.h.8.:.t.9.4.8.{ } 0.7.<.3.=.e.7.&.[ T E { &.&.&.&.T n n n i > o R.R.T.R.R.",
"R.R.R.R.R.R.T.R.R.d w n b I %.6.&.=.g.C.P.L.P.M.q.s.0.3.=.$.} } | ) $.8.e.e.=.) ( [ [ E [ } &.^ E T F b N q O R.R.R.R.R.",
"R.R.R.R.R.R.R.R.R.t o 0 h p y ' { o.b.U.J.L.L.S.z.p.#.#.' R ` { ;./ E | ;.<.<.o.O.5.5.{ E E ! H T / L b n q O R.R.R.R.R.",
"R.R.R.R.R.R.R.R.R.p f O d h } =.) o.c.L.L.L.I.F.z.p.&.T h y H =.e.$./ E ) <.e.m.B.B.h.0.Q E Y n L E L b M q O R.R.R.R.R.",
"R.R.R.R.R.R.R.R.R.R.y O a p e.p.} 6.v.P.L.A.M.y.O.3.=.} ! L U 8.e.8.7./ / r.a.Z.i.i.c.O.E E T M U ` U b i 9 O R.R.R.R.R.",
"R.R.R.R.R.R.R.R.R.d 1 % 0 ! p.w.$.t.s.N.U.N.+.&.$.:.6.0.w.2.&.p.t.d.0.$.$.=.w.x.i.i.i.X.) E F n G G m m 0 - - i R.R.R.R.",
"R.R.R.R.R.R.Y.R.p : % u n #.;.1.w.s.q.s.v.x.7.$.7.p.N.S.A.A.>.2.s.p.p.3.$.&.&.o.u.F.F.y.) E Y P U L b n f 0 : # i R.R.R.",
"R.R.R.R.R.R.R.p y q b p H $.X.w.e.,.s.p.p.s.7.#.8.p.S.U.I.H.*.&.s.p.s.0.$.&.&.&.o.u.b.g.Q E _ Q E E H r n b 0 : # p R.R.",
"R.R.R.R.R.R.y % q b m P E / w.p.<.$.:.e.e.s.3.7.s.p.g.D.J.c.w.&.>.s.0.&.$.3.3.&.%.w.p.p.X.E E Y n L E T H b b 9 : # i R.",
"R.R.R.R.R.p + w N b L E } $.e.g.t.r.&.=.=.=.$.3.s.e.p.z.x.d.e.<.&.<.&...3.s.e.e.=.8.:.>...G E P r G E E H b n 9 : - p R.",
"R.R.R.R.p + : i b L E ` $.&.t.S.K.S.g.e.e.4.Q f ( e.s.C.i.i.z.e.w.&.&.3.s.p.s.3.&.=.&.$.Q T E Y n G E E H b n 0 : * i R.",
"R.R.R.R.p O s n n Y E } &.&.p.z.D.G.N.p.6.&.W v E w.s.d.i.i.i.d.e.} ;.s.p.e.e.>.$.8.;.$.Q E E L G E T E G b b q : % p R.",
"R.R.R.R.f O 0 b H _ E } &.&.9.e.p.s.s.8.=.Q n Y _ ;.w.0.s.i.g.e.3.T } e.p.8.&.&.#.0.<.$.E E Y G E ` T G b N p 9 ; : f R.",
"R.R.R.R.p O u M G E T } &.&.$.&.e.r.;.} &.~ N } <.&.&.<.i.p.e.&.$.T E <.p.1.{ #.k.y.,.;.) E E _ E Y K b n b > : : O d R.",
"R.R.R.R.f O 0 b f P ' ) | &.<.&.| ( T T ( Q Y #.$.w.8.e.s.i.8.$.{ E T &.2.( G D l.j.0.s.8./ T Y K b n p i 9 * : * p R.R.",
"R.R.T.R.f O : q m G R E T ( { ) E / [ ( T T { =.1.5.8.8.p.8.<.$.T ` { =.! Y P f e -.f.p.&.Q Y f n p i 0 * ; : , O R.R.R.",
"R.R.R.R.R.p O a p b F E ` ( ( / [ &.&.$./ T [ &.;.7.;.&.3.&.} ..( } $.<.! P H y I 9.f.8.) E R G M i @ : > > % o y R.R.R.",
"R.R.T.R.R.R.p X 9 b b F E X.<.5.8.;.&.$./ _ } =...i.i.-.$.&.` $.&.<.=.$./ E Y b ~ >.&.[ E E T Y n i : % o o p p R.R.R.R.",
"R.R.R.R.T.R.R.R.p = L L Y ( &.7.d.t.&.} T _ Q | &.>.3.=.=.{ E &.$.( ( ( { / ` Y Y T Y T [ { { Y b h 7 p R.R.R.R.R.R.T.R.",
"R.R.R.R.R.Y.R.R.p r Y ` E E ( $.,.;.$./ E E T { =.&.&.( ( E E ! Q ` ) } =.{ E _ ' E / { &.<.$.T b f ; c p R.Y.R.R.R.R.R.",
"R.R.R.R.R.R.R.3 f N L E E E ) X.&.$.Q ` U L E Q [ ] ( T E E { } ) } =.5.{ Q ` L M T E &.&.&.$.Y b b 0 # 4 p R.R.R.R.R.R.",
"R.R.R.R.R.i 4 ; b b Y E G T &.$.( $.T _ P b Y E T T _ E E E $.=.w.9.e.w.) T E ! ~ T E $.&.$.( T b n t : # 4 R.R.R.R.R.R.",
"R.R.R.T.R.p $ M M b n N n Y / Q E ` _ Y n b H _ ` E _ E E } &.<.s.s.w.=.{ T &.:.[ E ` / $.X.Y M b n t - , o p R.R.R.R.R.",
"R.R.R.R.R.p 7 M n b n f b N Y ` E E Y m b n n L ` E E E E $.$./ &.=.<.{ ` [ &.&./ N Y T Q ] U h n p b u : O p R.R.R.R.R.",
"R.R.R.T.R.p O i n b w i n L E E U G n p q q n b L E E E E _ E E E ` Q E T E / / G H N U T P M M n b n q : # p R.R.R.R.R.",
"R.R.R.R.R.p o s n q : i n M Y E h b n i ; % q n b L E n n Y E E E E E U b L T T G n n n M b b b b m i - : * p R.T.R.R.R.",
"R.R.R.T.R.R.> & - ; i m b b n b h n p i : : 0 b b n n p n Y E ` E E L p n M n n n b b b n n n n b p q > o f p T.R.R.R.R.",
"R.R.R.R.R.R.d s + q n b b b b b m i : # + , : t n b n n n n Y Y E L n n U L b n p n n n n p i p q : 2 % p p R.R.R.R.R.R.",
"R.R.R.R.R.R.R.p O < q M n n M M u % : R.p O % q b b M b n b b n p p p G E G p > i N f n n ; : : : - O : f R.y R.R.R.R.R.",
"R.R.T.R.R.R.T.p o * : q i i e = - , R.R.R.f p # q d f n b n b n i ; p h n n q - 7 8 # p b : O # - x p p R.R.R.R.R.R.R.R.",
"R.R.R.R.R.R.f i t S % % o O p d O p R.R.T.R.f O : * i n p M p n p - > p m p 0 O y i d J r a t p X p R.Y.R.R.R.R.R.R.R.R.",
"R.R.R.R.R.f   p R.p o i p p T.R.6 R.R.R.R.R.R.X > : q n m b n n q : : > t 0 O p R.R.R.C e x p R.p p R.R.R.R.R.R.R.R.R.R.",
"R.R.R.R.p f y R.p p p R.R.R.R.R.x R.R.R.R.R.R.A % : : 0 q b n 0 : : : : : O p R.R.T.R.p d p d R.i 4 p R.R.R.R.R.R.R.R.R.",
"R.R.R.i i R.R.R.c i R.R.Y.R.R.R.R.R.R.R.R.R.R.t o < : : - 0 0 ; : : * , f p R.R.T.R.R.R.4 0 p R.R.y p R.R.R.R.R.R.R.R.R.",
"R.R.R.y R.Y.R.i . y R.Y.R.R.R.R.R.R.R.R.R.R.R.f p o : > - - : - - : : p y R.R.R.R.R.R.R.R.* p R.R.R.y p R.R.R.R.R.R.R.R.",
"R.R.R.R.R.R.d p  .f R.R.R.R.R.R.R.R.R.R.R.R.R.R.R.R.p O # : : : : o p i R.R.R.R.R.R.R.R.R.: B R.R.R.p p R.R.R.R.R.R.R.R.",
"R.R.R.R.R.R.p f R.R.R.R.R.R.R.R.R.R.R.R.R.R.R.R.R.R.R.R.R.4 % # p R.R.R.R.R.R.R.R.R.R.R.R.R.A R.R.R.R.R.R.R.R.R.R.R.R.R.",
"R.R.R.R.R.R.R.R.R.R.R.R.R.R.R.R.R.R.R.R.Y.R.R.R.R.R.R.R.R.R.R.R.R.R.R.R.R.R.R.R.R.R.R.R.R.R.> i R.R.R.R.R.R.R.R.R.R.R.R.",
"R.R.R.R.R.p p R.R.R.R.R.R.R.R.R.R.R.R.R.R.R.R.R.R.R.R.Y.R.R.R.R.R.R.R.R.R.R.R.R.R.R.R.R.R.R.R.Z R.R.R.R.R.R.R.R.R.R.R.R.",
"R.R.R.R.p p p R.R.R.R.R.R.R.R.R.R.R.R.R.R.R.R.R.R.R.R.R.R.R.R.R.R.R.R.R.R.R.R.R.R.R.R.R.R.R.R.p R.R.R.R.R.R.R.R.R.R.R.R."
};
