/* XPM */
static  xpm_row_t const tank_red [] = {
/* columns rows colors chars-per-pixel */
"40 40 68 1 ",
"  c None",
". c #3F3735",
"X c #413B37",
"o c #423A37",
"O c #433A38",
"+ c #433B38",
"@ c #463E3B",
"# c #4E4542",
"$ c #524945",
"% c #534945",
"& c #524A47",
"* c #554A47",
"= c #544B47",
"- c #534A49",
"; c #51494A",
": c #564D49",
"> c #554D4B",
", c #574C4A",
"< c #564D4A",
"1 c #564D4B",
"2 c #544B4D",
"3 c #594F4B",
"4 c #584F4C",
"5 c #59504D",
"6 c #5C544D",
"7 c #5E564F",
"8 c #5F5551",
"9 c #615753",
"0 c #675E53",
"q c #696255",
"w c #766C64",
"e c #766E64",
"r c #796E66",
"t c #756C68",
"y c #787066",
"u c #787069",
"i c #78716B",
"p c #7B726B",
"a c #7C726D",
"s c #7F7570",
"d c #7F7670",
"f c #7E7778",
"g c #817873",
"h c #837B74",
"j c #817976",
"k c #837B78",
"l c #807A7B",
"z c #867E78",
"x c #877D7A",
"c c #89807C",
"v c #978A86",
"b c #998D89",
"n c #988F89",
"m c #9C9287",
"M c #9F9489",
"N c #9D948A",
"B c #9D948B",
"V c #9D958B",
"C c #9D938C",
"Z c #9F9897",
"A c #A1978C",
"S c #A0978D",
"D c #A1978D",
"F c #A29A99",
"G c #ADA5A2",
"H c #B0A7A4",
"J c #BCB4B3",
"K c #BFB6B5",
/* pixels */
"                                        ",
"                                        ",
"                                        ",
"                                        ",
"                                        ",
"                                        ",
"                                        ",
"                                        ",
"                                        ",
"                                        ",
"                                        ",
"                   mM                   ",
"                  vMSb                  ",
"                  wMSr                  ",
"                  pMSp                  ",
"                  aMSs                  ",
"                 8sMSg9                 ",
"                 <sMSg3                 ",
"                 $sMSg*                 ",
"                 $sMSg*                 ",
"                 $sMSg<                 ",
"                 <sMSg4                 ",
"                 ;jGHl<                 ",
"                 ;fZFl2                 ",
"                 <zJKc5                 ",
"                 o7wy7o                 ",
"                  #bC$                  ",
"                  Ojz@                  ",
"                  .tpO                  ",
"                   0q                   ",
"                                        ",
"                                        ",
"                                        ",
"                                        ",
"                                        ",
"                                        ",
"                                        ",
"                                        ",
"                                        ",
"                                        "
};
