/* XPM */
static  xpm_row_t const bullet_xpm[] = {
/* columns rows colors chars-per-pixel */
"60 60 121 2",
"   c #5BBD7F",
".  c #5CBD7F",
"X  c #4FDF54",
"o  c #52D75E",
"O  c #50DE55",
"+  c #51DA5B",
"@  c #52D85E",
"#  c #52D85F",
"$  c #52DB5E",
"%  c #50DE58",
"&  c #55CE69",
"*  c #57C672",
"=  c #58C476",
"-  c #59C577",
";  c #58C676",
":  c #58CB74",
">  c #58CF72",
",  c #59C97A",
"<  c #5BC97A",
"1  c #5BCA7A",
"2  c #53D263",
"3  c #53D663",
"4  c #55D068",
"5  c #55D06A",
"6  c #55D36A",
"7  c #56D06C",
"8  c #59D075",
"9  c #4DE34E",
"0  c #4EE34E",
"q  c #4EE34F",
"w  c #4DE44E",
"e  c #4EE44E",
"r  c #4EE44F",
"t  c #4EE051",
"y  c #4EE150",
"u  c #4EE152",
"i  c #4FE052",
"p  c #4EE250",
"a  c #50E051",
"s  c #5FB789",
"d  c #5CBD82",
"f  c #5FBB8B",
"g  c #65AF99",
"h  c #61B78C",
"j  c #60BC8B",
"k  c #62B292",
"l  c #65B494",
"z  c #63B994",
"x  c #66B89B",
"c  c #68B19D",
"v  c #69ACA0",
"b  c #6BACA0",
"n  c #6DABA7",
"m  c #69B5A2",
"M  c #6AB5A1",
"N  c #6CB0A4",
"B  c #6DB6A7",
"V  c #70ABAC",
"C  c #70ABAE",
"Z  c #72B0AC",
"A  c #72B1AC",
"S  c #72B8AD",
"D  c #77B3B2",
"F  c #7CB2B7",
"G  c #7DB3B7",
"H  c #78BAB4",
"J  c #5CC082",
"K  c #5FC78C",
"L  c #5FC989",
"P  c #64C494",
"I  c #65C594",
"U  c #6FC1A7",
"Y  c #77C6B1",
"T  c #79C3B3",
"R  c #80B8BB",
"E  c #80BEB9",
"W  c #88B8BF",
"Q  c #88B9C1",
"!  c #88BDC2",
"~  c #88BEC2",
"^  c #90BFC8",
"/  c #82C6BC",
"(  c #85C2BF",
")  c #81CABC",
"_  c #8AC6C3",
"`  c #8BC9C4",
"'  c #8BCAC4",
"]  c #8DC9C5",
"[  c #93C5CA",
"{  c #98C6CE",
"}  c #9DCCD1",
"|  c #9AD5CF",
" . c #A1CDD5",
".. c #A4D2D7",
"X. c #ACD4DC",
"o. c #ADD7DD",
"O. c #B4DAE1",
"+. c #B4DBE0",
"@. c #BCDFE5",
"#. c #B5E4E0",
"$. c #B7E4E3",
"%. c #BCE0E4",
"&. c #C2E3E8",
"*. c #C2E4E8",
"=. c #C7E6EC",
"-. c #C5EAEA",
";. c #C8E5EC",
":. c #CBEAEE",
">. c #CCE8EE",
",. c #CEECEF",
"<. c #CEEEEF",
"1. c #CFEEEF",
"2. c #D1EEF0",
"3. c #D3ECF0",
"4. c #D7EFF3",
"5. c #D6F2F2",
"6. c #DCF0F4",
"7. c #DEF2F6",
"8. c #DEF3F6",
"9. c #DEF4F6",
"0. c #DEF5F6",
/* pixels */
"e e e e e e e e e e e e e e e e e e e e e e e e e e e e e e e e e e e e e e e e e e e e e e e e e e e e e e e e e e e e ",
"e e e e e e e e e e e e e e e e e e e e e e e e e e e e e e e e e e e e e e e e e e e e e e e e e e e e e e e e e e e e ",
"e e e e e e e e e e e e e e e e e e e e e e e e e e e e e e e e e e e e e e e e e e e e e e e e e e e e e e e e e e e e ",
"e e e e e e e e e e e e e e e e e e e e e e e e e e e e e e e e e e e e e e e e e e e e e e e e e e e e e e e e e e e e ",
"e e e e e e e e e e e e e e e e e e e e e e e e e e e e e e e e e e e e e e e e e e e e e e e e e e e e e e e e e e e e ",
"e e e e e e e e e e e e e e e e e e e e e e e e e e e e e e e e e e e e e e e e e e e e e e e e e e e e e e e e e e e e ",
"e e e e e e e e e e e e e e e e e e e e e e e e e e e e e e e e e e e e e e e e e e e e e e e e e e e e e e e e e e e e ",
"e e e e e e e e e e e e e e e e e e e e e e e e e e e e e e e e e e e e e e e e e e e e e e e e e e e e e e e e e e e e ",
"e e e e e e e e e e e e e e e e e e e e e e e e e e e e e e e e e e e e e e e e e e e e e e e e e e e e e e e e e e e e ",
"e e e e e e e e e e e e e e e e e e e e e e e e e e e e e e e e e e e e e e e e e e e e e e e e e e e e e e e e e e e e ",
"e e e e e e e e e e e e e e e e e e e e e e e e e e e e e e e e e e e e e e e e e e e e e e e e e e e e e e e e e e e e ",
"e e e e e e e e e e e e e e e e e e e e e e e e e e e e e e e e e e e e e e e e e e e e e e e e e e e e e e e e e e e e ",
"e e e e e e e e e e e e e e e e e e e e e e e e e e e e e y y e e e e e e e e e e e e e e e e e e e e e e e e e e e e e ",
"e e e e e e e e e e e e e e e e e e e e e e e e e e e e % K K % e e e e e e e e e e e e e e e e e e e e e e e e e e e e ",
"e e e e e e e e e e e e e e e e e e e e e e e e e e e e L ) ) L e e e e e e e e e e e e e e e e e e e e e e e e e e e e ",
"e e e e e e e e e e e e e e e e e e e e e e e e e e e % Y $.$.Y % e e e e e e e e e e e e e e e e e e e e e e e e e e e ",
"e e e e e e e e e e e e e e e e e e e e e e e e e e e 8 | 5.5.| 8 e e e e e e e e e e e e e e e e e e e e e e e e e e e ",
"e e e e e e e e e e e e e e e e e e e e e e e e e e y P #.0.0.#.P 9 e e e e e e e e e e e e e e e e e e e e e e e e e e ",
"e e e e e e e e e e e e e e e e e e e e e e e e e e q U -.0.0.-.U 9 e e e e e e e e e e e e e e e e e e e e e e e e e e ",
"e e e e e e e e e e e e e e e e e e e e e e e e e e y T <.7.0.<.T y e e e e e e e e e e e e e e e e e e e e e e e e e e ",
"e e e e e e e e e e e e e e e e e e e e e e e e e e $ / ,.9.9.,.) $ 9 e e e e e e e e e e e e e e e e e e e e e e e e e ",
"e e e e e e e e e e e e e e e e e e e e e e e e e 9 6 ` ,.9.9.2.` 6 e e e e e e e e e e e e e e e e e e e e e e e e e e ",
"e e e e e e e e e e e e e e e e e e e e e e e e e e > ` ,.7.7.,.] > e e e e e e e e e e e e e e e e e e e e e e e e e e ",
"e e e e e e e e e e e e e e e e e e e e e e e e e e , ] ,.7.7.,.] , e e e e e e e e e e e e e e e e e e e e e e e e e e ",
"e e e e e e e e e e e e e e e e e e e e e e e e e e < ] =.7.6.;._ , 9 e e e e e e e e e e e e e e e e e e e e e e e e e ",
"e e e e e e e e e e e e e e e e e e e e e e e e e e , _ &.4.4.&._ 1 9 9 e e e e e e e e e e e e e e e e e e e e e e e e ",
"e e e e e e e e e e e e e e e e e e e e e e e e e e , H @.3.3.@.H 1 e e e e e e e e e e e e e e e e e e e e e e e e e e ",
"e e e e e e e e e e e e e e e e e e e e e e e e e e : H +.>.>.O.H : e e e e e e e e e e e e e e e e e e e e e e e e e e ",
"e e e e e e e e e e e e e e e e e e e e e e e e e e & S o.=.;.X.S & e e e e e e e e e e e e e e e e e e e e e e e e e e ",
"e e e e e e e e e e e e e e e e e e e e e e e e e e 3 B ..&.*...B 3 e e e e e e e e e e e e e e e e e e e e e e e e e e ",
"e e e e e e e e e e e e e e e e e e e e e e e e e e + M } @.@.} M $ e e e e e e e e e e e e e e e e e e e e e e e e e e ",
"e e e e e e e e e e e e e e e e e e e e e e e e e e X x [ +.+.[ x X e e e e e e e e e e e e e e e e e e e e e e e e e e ",
"e e e e e e e e e e e e e e e e e e e e e e e e e e 9 z _ X.X._ l e e e e e e e e e e e e e e e e e e e e e e e e e e e ",
"e e e e e e e e e e e e e e e e e e e e e e e e e e 9 j G  . .G f y e e e e e e e e e e e e e e e e e e e e e e e e e e ",
"e e e e e e e e e e e e e e e e e e e e e e e e e e 9 J D { } D J y e e e e e e e e e e e e e e e e e e e e e e e e e e ",
"e e e e e e e e e e e e e e e e e e e e e e e e e e e = Z ^ ^ A * e e e e e e e e e e e e e e e e e e e e e e e e e e e ",
"e e e e e e e e e e e e e e e e e e e e e e e e e e e & b Q Q b 6 y e e e e e e e e e e e e e e e e e e e e e e e e e e ",
"e e e e e e e e e e e e e e e e e e e e e e e e e e 9 $ c G G c $ e e e e e e e e e e e e e e e e e e e e e e e e e e e ",
"e e e e e e e e e e e e e e e e e e e e e e e e e e e O l C C l X e e e e e e e e e e e e e e e e e e e e e e e e e e e ",
"e e e e e e e e e e e e e e e e e e e e e e e e e e e a h n n h X 9 e e e e e e e e e e e e e e e e e e e e e e e e e e ",
"e e e e e e e e e e e e e e e e e e e e e e e e e e e 9 d v v d 9 e e e e e e e e e e e e e e e e e e e e e e e e e e e ",
"e e e e e e e e e e e e e e e e e e e e e e e e e e e e = g g = e e e e e e e e e e e e e e e e e e e e e e e e e e e e ",
"e e e e e e e e e e e e e e e e e e e e e e e e e e e e & k k & e e e e e e e e e e e e e e e e e e e e e e e e e e e e ",
"e e e e e e e e e e e e e e e e e e e e e e e e e e e 9 o s s o e e e e e e e e e e e e e e e e e e e e e e e e e e e e ",
"e e e e e e e e e e e e e e e e e e e e e e e e e e e e X d d X e e e e e e e e e e e e e e e e e e e e e e e e e e e e ",
"e e e e e e e e e e e e e e e e e e e e e e e e e e e e y * * y e e e e e e e e e e e e e e e e e e e e e e e e e e e e ",
"e e e e e e e e e e e e e e e e e e e e e e e e e e e e e 2 2 e e e e e e e e e e e e e e e e e e e e e e e e e e e e e ",
"e e e e e e e e e e e e e e e e e e e e e e e e e e e e e y y e e e e e e e e e e e e e e e e e e e e e e e e e e e e e ",
"e e e e e e e e e e e e e e e e e e e e e e e e e e e e e e e e e e e e e e e e e e e e e e e e e e e e e e e e e e e e ",
"e e e e e e e e e e e e e e e e e e e e e e e e e e e e e e e e e e e e e e e e e e e e e e e e e e e e e e e e e e e e ",
"e e e e e e e e e e e e e e e e e e e e e e e e e e e e e e e e e e e e e e e e e e e e e e e e e e e e e e e e e e e e ",
"e e e e e e e e e e e e e e e e e e e e e e e e e e e e e e e e e e e e e e e e e e e e e e e e e e e e e e e e e e e e ",
"e e e e e e e e e e e e e e e e e e e e e e e e e e e e e e e e e e e e e e e e e e e e e e e e e e e e e e e e e e e e ",
"e e e e e e e e e e e e e e e e e e e e e e e e e e e e e e e e e e e e e e e e e e e e e e e e e e e e e e e e e e e e ",
"e e e e e e e e e e e e e e e e e e e e e e e e e e e e e e e e e e e e e e e e e e e e e e e e e e e e e e e e e e e e ",
"e e e e e e e e e e e e e e e e e e e e e e e e e e e e e e e e e e e e e e e e e e e e e e e e e e e e e e e e e e e e ",
"e e e e e e e e e e e e e e e e e e e e e e e e e e e e e e e e e e e e e e e e e e e e e e e e e e e e e e e e e e e e ",
"e e e e e e e e e e e e e e e e e e e e e e e e e e e e e e e e e e e e e e e e e e e e e e e e e e e e e e e e e e e e ",
"e e e e e e e e e e e e e e e e e e e e e e e e e e e e e e e e e e e e e e e e e e e e e e e e e e e e e e e e e e e e ",
"e e e e e e e e e e e e e e e e e e e e e e e e e e e e e e e e e e e e e e e e e e e e e e e e e e e e e e e e e e e e "
};
