/* XPM */
static xpm_row_t const cursor[] = {
/* columns rows colors chars-per-pixel */
"40 40 72 1 ",
"  c #4ee44e",
". c #1C192C",
"X c #201D30",
"o c #272536",
"O c #2E2C3D",
"+ c #352334",
"@ c #422B3B",
"# c #462F3E",
"$ c #353443",
"% c #3C3C49",
"& c #393E4D",
"* c #3B3F4C",
"= c #3B3E4D",
"- c #3A3F4D",
"; c #3B3F4D",
": c #4A3342",
"> c #4D3946",
", c #4F3F4C",
"< c #533E4B",
"1 c #503E4C",
"2 c #3B404D",
"3 c #40404D",
"4 c #41404D",
"5 c #40414D",
"6 c #404554",
"7 c #404654",
"8 c #404754",
"9 c #414854",
"0 c #454C58",
"q c #454D5A",
"w c #4C4D59",
"e c #4F535A",
"r c #6B494E",
"t c #495561",
"y c #4A5461",
"u c #4C5763",
"i c #505C69",
"p c #5F6061",
"a c #5F6161",
"s c #556471",
"d c #586974",
"f c #596A74",
"g c #596B74",
"h c #5B6B76",
"j c #5B6B77",
"k c #5B6C77",
"l c #5E6F7B",
"z c #5F6F7C",
"x c #60727D",
"c c #8B4B4E",
"v c #985150",
"b c #995150",
"n c #985151",
"m c #9B5251",
"M c #9E5451",
"N c #A45752",
"B c #AA5A52",
"V c #AA5A53",
"C c #AB5A53",
"Z c #BA7F65",
"A c #BB7F65",
"S c #C58769",
"D c #C08B6D",
"F c #D3946F",
"G c #627480",
"H c #627580",
"J c #627581",
"K c #647683",
"L c #647783",
"P c #667A87",
"I c #697C8A",
"U c #697D8A",
/* pixels */
"    0                                   ",
"   PL2                                  ",
"  j-wl8                                 ",
" -HXDeI8                                ",
" 2xovAel2                               ",
" 5L4vCFiL0                              ",
" 2x4MCCS9L2                             ",
" 2xOmCCCSal0                            ",
" ;L%vCCCCFeI2                           ",
" ;x.vCCCCCAel2                          ",
" ;L5vCCCCCCFaP0                         ",
" 2xXvCCCCCCCS9H2                        ",
" ;xOvCCv@<#@:ryl                        ",
" ;L%vCN,djdjddP2                        ",
" ;L$vN,syyyyey0                         ",
" ;xoc>di                                ",
" -HX+kq                                 ",
"  uxji                                  ",
"   8y                                   ",
"                                        ",
"                                        ",
"                                        ",
"                                        ",
"                                        ",
"                                        ",
"                                        ",
"                                        ",
"                                        ",
"                                        ",
"                                        ",
"                                        ",
"                                        ",
"                                        ",
"                                        ",
"                                        ",
"                                        ",
"                                        ",
"                                        ",
"                                        ",
"                                        "
};
