/* XPM */
static xpm_row_t const granade[] = {
/* columns rows colors chars-per-pixel */
"70 70 102 2 ",
"   c #4ee44e",
".  c #504855",
"X  c #514855",
"o  c #524956",
"O  c #524957",
"+  c #534957",
"@  c #524A56",
"#  c #534A56",
"$  c #534A57",
"%  c #534B57",
"&  c #544B57",
"*  c #534B58",
"=  c #544B58",
"-  c #544C58",
";  c #554C59",
":  c #554D59",
">  c #564D5A",
",  c #564E5A",
"<  c #574F5A",
"1  c #574E5B",
"2  c #584F5B",
"3  c #584F5C",
"4  c #58505A",
"5  c #59505C",
"6  c #59515C",
"7  c #59515D",
"8  c #59525D",
"9  c #5A525D",
"0  c #5B525D",
"q  c #5B525E",
"w  c #5B535E",
"e  c #5B535F",
"r  c #5B545D",
"t  c #5B545F",
"y  c #5C545E",
"u  c #5C545F",
"i  c #5D545F",
"p  c #5C555F",
"a  c #5D555F",
"s  c #5D5460",
"d  c #5C5560",
"f  c #5D5560",
"g  c #5D5561",
"h  c #5C5660",
"j  c #5D5661",
"k  c #5E5661",
"l  c #5E5761",
"z  c #5F5761",
"x  c #5F5762",
"c  c #5E5862",
"v  c #5F5862",
"b  c #605863",
"n  c #605963",
"m  c #605A63",
"M  c #605A64",
"N  c #615A64",
"B  c #615B65",
"V  c #625B64",
"C  c #625B65",
"Z  c #635B65",
"A  c #625C65",
"S  c #635C66",
"D  c #625D66",
"F  c #635D66",
"G  c #625D67",
"H  c #635D67",
"J  c #635E66",
"K  c #635E67",
"L  c #645D66",
"P  c #645D67",
"I  c #645E66",
"U  c #655E66",
"Y  c #645E67",
"T  c #655E67",
"R  c #645F67",
"E  c #655F67",
"W  c #655E68",
"Q  c #645F68",
"!  c #655F68",
"~  c #655E69",
"^  c #655F69",
"/  c #665E68",
"(  c #A69F96",
")  c #A7A196",
"_  c #A8A095",
"`  c #A8A096",
"'  c #A8A196",
"]  c #A8A197",
"[  c #A9A198",
"{  c #A9A298",
"}  c #AAA399",
"|  c #ABA399",
" . c #ABA39A",
".. c #ABA499",
"X. c #ABA599",
"o. c #AAA49A",
"O. c #ABA49A",
"+. c #ABA59A",
"@. c #C9C3B5",
"#. c #CAC5B7",
"$. c #CCC6B8",
"%. c #CDC7B9",
/* pixels */
"                                                                                                    O.] O.O. .                              ",
"                                                                                                O.O.] O.O. .O. .O.O.                        ",
"                                                                                              O.O.] O.O. .O. .O.O.] O.                      ",
"                                                                                            O.O.]  .            ] O.O.]                     ",
"                                                                                          O.O.]                   O.] O.                    ",
"                                                                                        O.O.]                       O.O. .                  ",
"                                                ! ! Y ! ! Y ! Y ! ! Y ! ! Y ! !         O.] O.                      O. .O.                  ",
"                                              ! ! Y ! ! Y ! Y ! ! Y ! ! Y ! ! ! !       ] O.O.                        O. .                  ",
"                                              ! Y ! ! Y ! Y ! ! Y ! ! Y ! Y ! ! Y       O.O.                           .O.O.                ",
"                                              Y ! ! Y ! Y ! ! Y ! ! Y ! ! ! ! Y ! %.@.%.%.#.%.%.%.                    O.O.]                 ",
"                                              ! ! Y ! Y ! ! Y ! ! Y ! ! ! ! Y ! ! @.%.%.#.%.%.%.%.                    O.]                   ",
"                                              ! Y ! Y ! ! Y ! ! Y ! Y ! ! Y ! ! Y %.%.#.%.%.%.%.@.                   .] O.                  ",
"                                              Y ! Y ! ! Y ! ! Y ! ! ! ! Y ! ! Y !         O.O.(                     ] O.O.                  ",
"                                              ! Y ! ! Y ! ! Y ! ! ! ! Y ! ! Y ! !         O.] O.                  ] O.O.                    ",
"                                              F Y Y F Y Y F Y Y Y Y F Y Y F Y Y F           O.O.] O.          O.] O.O.)                     ",
"                                            u f f u f f u f u f f u f f u f f u f u           ] O.O. .O. .O.O.] O.O.]                       ",
"                                          u f f u f f u f f f f u f f u f f u f u f f           O. .O. .O.O.] O.O.                          ",
"                                          f f u f f u f f f f u f f u f f u f u f f u f              .O.O.]  .                              ",
"                                        f f u f f u f u f f u f f u f f u f u f f u f f u                                                   ",
"                                      f f u f f u f f f f u f f u f f u f u f f u f f u f                                                   ",
"                                    u f u f f u f f f f u f f u f f u f u f f u f f u f f u                                                 ",
"                                    f u f f u f u f f u f f u f f u f u f f u f f u f f u f u                                               ",
"                            ! Y ! ! u f f u ! ! ! ! Y ! ! v f f u f u ! ! Y ! ! Y ! f u f u ! ! Y ! !                                       ",
"                          ! Y ! ! Y f f u v ! ! ! Y ! ! Y ! f u f u Y ! Y ! ! Y ! ! Y f u f ! Y ! ! Y                                       ",
"                          Y ! ! Y ! o o u Y ! ! Y ! ! Y ! ! o o u f Y Y ! ! Y ! ! Y ! o w f u ! ! Y ! Y                                     ",
"                        Y ! ! Y ! o o o f ! ! Y ! ! Y ! ! Y o o f f F ! ! Y ! ! Y ! Y F o u f ! Y ! ! Y                                     ",
"                        ! ! Y ! ! o o o Y ! Y ! ! Y ! ! Y ! o o f u Y ! Y ! ! Y ! Y ! ! o f f Y ! ! Y ! F                                   ",
"                      ! ! Y ! ! F o o w ! Y ! ! Y ! ! Y ! Y o o u f Y Y ! ! Y ! Y ! ! Y o o u f ! Y ! Y !                                   ",
"                      ! Y ! ! Y o o o f Y ! ! Y ! ! Y ! Y ! o o f f F ! ! Y ! Y ! ! Y ! ! o f f Y ! Y ! !                                   ",
"                      Y ! ! Y ! o o o M ! ! Y ! ! Y ! Y ! ! o o f u Y ! Y ! Y ! ! Y ! ! Y o w u ! Y ! ! Y !                                 ",
"                      ! ! Y ! Y o o w f ! Y ! ! Y ! Y ! ! Y o o u f f Y ! Y ! ! Y ! ! Y ! o o f f ! ! Y ! !                                 ",
"                        Y ! Y o o o f f v ! ! Y ! Y ! ! Y o o o f f u b Y ! ! Y ! ! Y ! o o o u f M Y ! !                                   ",
"                          o o o o o f u f f o o o o o o o o o o f u f u f o o o o o o o o o o f f u f o                                     ",
"                        u u o o o f u f f u w o o o o o o o = f u f u f f w o o o o o o o o f f u f f w                                     ",
"                        f f u f f u f f u f u f f u f f u f f u f u f f u f f u f f u f u f f u f f u f                                     ",
"                        f u f f u f f u f u f f u f f u f f u f u f f u f f u f f u f u f f u f f u f f                                     ",
"                        u f f u f f u f u f f u f f u f f u f u f f u f f u f f u f u f f u f f u f f f                                     ",
"                    Y F Y F u f f u f F Y Y F Y Y F Y Y b f u f f u f f F Y Y F Y F Y Y F f f u f f f Y Y !                                 ",
"                  ! Y ! ! Y M f u f Y ! ! Y ! ! Y ! ! Y ! Y f f u f f Y ! ! Y ! Y ! ! Y ! ! u f f f ! Y ! ! Y                               ",
"                  Y ! ! Y ! w o f u ! ! Y ! ! Y ! ! Y ! Y ! ; u f f F ! ! Y ! Y ! ! Y ! ! Y 4 u f f Y ! ! Y ! !                             ",
"                  ! ! Y ! ! ; o o f ! Y ! ! Y ! ! Y ! Y ! ! o o f u Y ! Y ! Y ! ! Y ! ! Y ! w o f u ! ! Y ! ! Y                             ",
"                  ! Y ! ! Y ; o o f Y ! ! Y ! ! Y ! Y ! ! Y o o u f Y Y ! Y ! ! Y ! ! Y ! ! u o o f ! Y ! ! Y !                             ",
"                  Y ! ! Y ! ; o & u ! ! Y ! ! Y ! Y ! ! Y ! o o f f F ! Y ! ! Y ! ! Y ! ! ! f o o f Y ! ! Y ! Y                             ",
"                  ! ! Y ! Y ; o o f ! Y ! ! Y ! Y ! ! Y ! ! o o f u Y Y ! ! Y ! ! Y ! ! ! ! w o o u ! ! Y ! Y !                             ",
"                  ! Y ! Y ! w o = f Y ! ! Y ! Y ! ! Y ! ! Y o o u f F ! ! Y ! ! Y ! ! ! ! Y w o o f ! Y ! Y ! !                             ",
"                  Y ! Y ! ! u o & u ! ! Y ! Y ! ! Y ! ! Y ! o o f u M ! Y ! ! Y ! ! ! ! Y ! ; o o f Y ! Y ! ! F                             ",
"                  ! Y ! ! Y & o o f Y Y ! Y ! ! Y ! ! Y ! = o o u f f Y ! ! Y ! ! ! ! Y ! ! o o o u ! Y ! ! Y                               ",
"                        o o o o o f u f o o o o o o o o o o o o f f u f u o o o o o o o o o o o = f u f o                                   ",
"                        o o o o 2 u f u w o o o o o o o o o o w f u f f u o o o o o o o o o o o f u f f                                     ",
"                        f u f f u f u f f u f f u f f u f u f f u f f u f f f f u f f u f f u f u f f u                                     ",
"                        u f f u f u f f u f f u f f u f u f f u f f u f f f f u f f u f f u f u f f u f                                     ",
"                          f u f u f f u f f u f f u f u f f u f f u f f f f u f f u f f u f u f f u f f                                     ",
"                          u f u f f u f f u f f u f u f f u f f u f f f f u f f u f f u f u f f u f f r                                     ",
"                      ! Y ! Y b f u f f Y ! ! Y ! Y ! ! Y f f u f f f ! Y ! ! Y ! ! Y ! f f f u f ! Y ! !                                   ",
"                      Y ! Y ! ! u f f M ! ! Y ! Y ! ! Y ! ! u f f f F Y ! ! Y ! ! Y ! Y ! f u f Y Y ! ! Y !                                 ",
"                      ! Y ! ! Y o & u f ! Y ! Y ! ! Y ! ! Y o ; f f F ! ! Y ! ! Y ! Y ! ! o ; f Y ! ! Y ! Y                                 ",
"                      Y ! ! Y ! 3 o f f Y ! Y ! ! Y ! ! Y ! o o f u Y ! Y ! ! Y ! Y ! ! * o o u ! ! Y ! Y                                   ",
"                        ! Y ! ! Y o f u ! Y ! ! Y ! ! Y ! ! o o u f Y Y ! ! Y ! Y ! ! Y o o o f ! Y ! Y !                                   ",
"                        Y ! ! Y ! o o f f ! ! Y ! ! Y ! ! ! o o f f F ! ! Y ! Y ! ! Y ! o o ; ! Y ! Y !                                     ",
"                        ! ! Y ! ! w o u f ! Y ! ! Y ! ! ! ! o o f u Y ! Y ! Y ! ! Y ! ; o o f Y ! Y ! !                                     ",
"                          Y ! ! Y ! o f f Y ! ! Y ! ! ! ! Y o o u f Y Y ! Y ! ! Y ! ! o o o M ! Y ! ! F                                     ",
"                          Y ! Y ! Y o o u f ! Y ! ! ! ! Y ! o o f f f ! Y ! ! Y ! ! F o o ; ! Y ! ! Y                                       ",
"                            Y ! Y ! o o f f f ! ! ! ! Y ! o o o f u f M ! ! Y ! ! F o o o f Y ! ! Y                                         ",
"                                    o o r u f f o o o o o o o o u f u f f o o o o o o o o u                                                 ",
"                                      o u f f f u o o o o o o u f u f f u w o o o o o o u f                                                 ",
"                                      u f f f f u f f u f f u f u f f u f f u f f u f u f                                                   ",
"                                        f f f u f f u f f u f u f f u f f u f f u f u f                                                     ",
"                                          f u f f u f f u f u f f u f f u f f u f u f                                                       ",
"                                            f f u f f u f u f f u f f u f f u f u f                                                         ",
"                                                f f u f u f f u f f u f f u f u                                                             "
};
