/* XPM */
static xpm_row_t const martelo[] = {
/* columns rows colors chars-per-pixel */
"55 55 162 2 ",
"   c #403F69",
".  c #68485D",
"X  c #774854",
"o  c #43426C",
"O  c #48476F",
"+  c #474670",
"@  c #484770",
"#  c #4C4B74",
"$  c #575174",
"%  c #53527A",
"&  c #58577C",
"*  c #756178",
"=  c #9A4D45",
"-  c #9F5146",
";  c #9E534C",
":  c #9C5854",
">  c #A2564A",
",  c #A75B4E",
"<  c #AB5D4D",
"1  c #A05851",
"2  c #B5644D",
"3  c #B16757",
"4  c #B16856",
"5  c #9B5F62",
"6  c #AA6962",
"7  c #A37069",
"8  c #BD7A67",
"9  c #B47663",
"0  c #B27771",
"q  c #B67F79",
"w  c #CF7F5B",
"e  c #C47A5B",
"r  c #D07B54",
"t  c #B7807A",
"y  c #C9866D",
"u  c #C0887A",
"i  c #C48572",
"p  c #C8907F",
"a  c #D89270",
"s  c #5E5D85",
"d  c #605F86",
"f  c #615E8B",
"g  c #626185",
"h  c #6E6686",
"j  c #64628B",
"k  c #68678B",
"l  c #6B6A8D",
"z  c #6D6B93",
"x  c #706D96",
"c  c #717093",
"v  c #7B7A97",
"b  c #76749E",
"n  c #7C7B9B",
"m  c #7B79A3",
"M  c #85859F",
"N  c #8A869F",
"B  c #BD8A85",
"V  c #B38F95",
"C  c #8584A1",
"Z  c #8684AC",
"A  c #8886AE",
"S  c #8F8EAA",
"D  c #9191AC",
"F  c #8A88B0",
"G  c #918FB5",
"H  c #9695B2",
"J  c #9A94B3",
"K  c #9798B1",
"L  c #9E9DB3",
"P  c #9593BA",
"I  c #9A97BD",
"U  c #9D9BBC",
"Y  c #A48DA2",
"T  c #A098BA",
"R  c #A0A0B5",
"E  c #A6A7BC",
"W  c #A8A7BD",
"Q  c #AAA9BE",
"!  c #DD9F81",
"~  c #D19D8B",
"^  c #DEA88D",
"/  c #DEA58A",
"(  c #D3A595",
")  c #E0AF96",
"_  c #CFABA7",
"`  c #D0ADA9",
"'  c #DCB6A7",
"]  c #DFBEB1",
"[  c #DABEBB",
"{  c #E7BFAB",
"}  c #E9BFAA",
"|  c #E6C7B8",
" . c #E6C9BC",
".. c #EACABB",
"X. c #EBC5B2",
"o. c #9C9AC1",
"O. c #A19FC4",
"+. c #A3A1C6",
"@. c #A8A5C7",
"#. c #A5A3C8",
"$. c #A9A6CB",
"%. c #ACAACC",
"&. c #B1AFCE",
"*. c #B3B2C6",
"=. c #B3B2CF",
"-. c #BAB9C8",
";. c #AEAAD0",
":. c #B2AED3",
">. c #B5B2D3",
",. c #BAB5D9",
"<. c #BFB9DD",
"1. c #BBB9D5",
"2. c #C1B2C2",
"3. c #C0BFD4",
"4. c #C1BCDE",
"5. c #C0C0CF",
"6. c #DEC4C2",
"7. c #C9C9D5",
"8. c #CECEDB",
"9. c #C6C5D8",
"0. c #D3D3DE",
"q. c #EBCFC2",
"w. c #EFD4C6",
"e. c #E7D1C9",
"r. c #EBD6CC",
"t. c #EBD8CE",
"y. c #F1D9CD",
"u. c #E8D7D5",
"i. c #EBDBDA",
"p. c #F3DED3",
"a. c #EEE2DC",
"s. c #C6C1E1",
"d. c #C9C4E2",
"f. c #CFCDE1",
"g. c #D1CEE4",
"h. c #D6D5E4",
"j. c #D8D7E7",
"k. c #DADBE3",
"l. c #D7D3EA",
"z. c #D9D5EB",
"x. c #DCDAEB",
"c. c #E6DFE1",
"v. c #E0DDEF",
"b. c #DEE0E7",
"n. c #EFE6E2",
"m. c #E3E4EB",
"M. c #E9E9EF",
"N. c #F2E6E5",
"B. c #F4E9E4",
"V. c #F1EDEB",
"C. c #F9EFEA",
"Z. c #FBF2EE",
"A. c #E6E5F1",
"S. c #E8E6F3",
"D. c #EBEAF3",
"F. c #F0EEF7",
"G. c #EEF1F3",
"H. c #F3F5F7",
"J. c #F9F3F3",
"K. c #F5F4F9",
"L. c #F8F7FA",
"P. c #4ee44e",
/* pixels */
"P.P.P.P.P.P.P.P.P.P.P.P.P.P.P.P.P.P.P.P.P.P.K.x.1.%.+.o.#.>.h.H.P.P.P.P.P.P.P.P.P.P.P.P.P.P.P.P.P.P.P.P.P.P.P.",
"P.P.P.P.P.P.P.P.P.P.P.P.P.P.P.P.P.P.P.P.P.h.#.o.o.U o.o.o.o.o.o.8.P.P.P.P.P.P.P.P.P.P.P.P.P.P.P.P.P.P.P.P.P.P.",
"P.P.P.P.P.P.P.P.P.P.P.P.P.P.P.P.P.P.P.K.>.o.o.o.o.o.o.o.o.o.o.o.o.>.H.P.P.P.P.P.P.P.P.P.P.P.P.P.P.P.P.P.P.P.P.",
"P.P.P.P.P.P.P.P.P.P.P.P.P.P.P.P.P.P.D.s.<.+.o.o.o.o.o.o.o.o.o.o.o.o.$.P.P.P.P.P.P.P.P.P.P.P.P.P.P.P.P.P.P.P.P.",
"P.P.P.P.P.P.P.P.P.P.P.P.P.P.P.P.P.x.<.<.<.,.o.o.o.o.o.o.o.o.@.&.%.O.U m.P.P.P.P.P.P.P.P.P.P.P.P.P.P.P.P.P.P.P.",
"P.P.P.P.P.P.P.P.P.P.P.P.P.P.P.L.l.<.<.<.<.<.;.o.o.o.o.o.>.x.L.P.P.S.j.P.P.P.P.P.P.P.P.P.P.P.P.P.P.P.P.P.P.P.P.",
"P.P.P.P.P.P.P.P.P.P.P.P.P.P.F.d.<.<.<.<.<.<.,.o.o.o.o.9.P.P.P.P.P.P.P.P.P.P.P.P.P.P.P.P.P.P.P.P.P.P.P.P.P.P.P.",
"P.P.P.P.P.P.P.P.P.P.P.P.P.S.s.<.<.4.<.<.<.<.,.o.o.o.=.L.P.P.P.P.P.P.P.P.P.P.P.P.P.P.P.P.P.P.P.P.P.P.P.P.P.P.P.",
"P.P.P.P.P.P.P.P.P.P.P.P.z.4.4.<.<.<.<.<.<.<.>.o.o.o.m.P.P.P.P.P.P.P.P.P.P.P.P.P.P.P.P.P.P.P.P.P.P.P.P.P.P.P.P.",
"P.P.P.P.P.P.P.P.P.P.L.f.<.<.<.<.<.<.<.<.<.<.$.o.o.O.K.P.P.P.P.P.P.P.P.P.P.P.P.P.P.P.P.P.P.P.P.P.P.P.P.P.P.P.P.",
"P.P.P.P.P.P.P.P.P.K.d.<.<.<.4.<.<.<.<.<.<.:.o.o.o.o.K.P.P.P.P.P.P.P.P.P.P.P.P.P.P.P.P.P.P.P.P.P.P.P.P.P.P.P.P.",
"P.P.P.P.P.P.P.P.A.4.<.<.<.<.<.<.<.<.4.<.;.o.o.o.o.o.x.P.P.P.P.P.P.P.P.P.P.P.P.P.P.P.P.P.P.P.P.P.P.P.P.P.P.P.P.",
"P.P.P.P.P.P.P.P.l.<.<.<.<.<.<.<.<.4.<.$.o.o.o.o.o.o.>.P.P.P.P.P.P.P.P.P.P.P.P.P.P.P.P.P.P.P.P.P.P.P.P.P.P.P.P.",
"P.P.P.P.P.P.P.P.P.z.<.<.<.<.<.<.<.:.O.o.o.o.o.o.o.o.U x.P.P.P.P.P.P.P.P.P.P.P.P.P.P.P.P.P.P.P.P.P.P.P.P.P.P.P.",
"P.P.P.P.P.P.P.P.P.P.x.<.<.<.<.<.:.o.o.o.o.o.o.o.o.o.o.h.P.P.P.P.P.P.P.P.P.P.P.P.P.P.P.P.P.P.P.P.P.P.P.P.P.P.P.",
"P.P.P.P.P.P.P.P.P.D.U O.<.<.<.$.o.o.o.o.o.o.o.o.o.I 2.P.P.P.P.P.P.P.P.P.P.P.P.P.P.P.P.P.P.P.P.P.P.P.P.P.P.P.P.",
"P.P.P.L.l.v.P.P.h.P A Z o.:.#.o.o.o.o.o.o.o.o.o.J 5 : i.P.P.P.P.P.P.P.P.P.P.P.P.P.P.P.P.P.P.P.P.P.P.P.P.P.P.P.",
"P.P.F.d.<.<.A.3.A A A Z m m I o.o.o.o.o.o.o.o.Y : - = 6 N.P.P.P.P.P.P.P.P.P.P.P.P.P.P.P.P.P.P.P.P.P.P.P.P.P.P.",
"P.D.s.<.<.<.<.G A A Z m f f z I o.o.o.o.U o.B y 2 = = = q J.P.P.P.P.P.P.P.P.P.P.P.P.P.P.P.P.P.P.P.P.P.P.P.P.P.",
"z.4.<.<.<.<.<.,.G Z z f f f H S.;.o.o.o.T t / r.| 4 = = = B P.P.P.P.P.P.P.P.P.P.P.P.P.P.P.P.P.P.P.P.P.P.P.P.P.",
"d.<.<.<.<.<.<.<.$.z f f j *.P.P.K.%.o.@.y a G.H.H.e., = = = _ P.P.P.P.P.P.P.P.P.P.P.P.P.P.P.P.P.P.P.P.P.P.P.P.",
"F.s.<.<.<.<.<.:.o.F f x 8.P.P.P.P.L.x.K.X./ H.H.H.H.] > = = - 6.P.P.P.P.P.P.P.P.P.P.P.P.P.P.P.P.P.P.P.P.P.P.P.",
"P.D.<.<.4.<.%.o.o.o.G S.P.P.P.P.P.P.P.P.P.} N.H.H.H.H.( - = = ; i.P.P.P.P.P.P.P.P.P.P.P.P.P.P.P.P.P.P.P.P.P.P.",
"P.P.x.<.,.#.o.o.o.o.o.j.P.P.P.P.P.P.P.P.P.P.X.V.H.H.H.J.u - = = 6 N.P.P.P.P.P.P.P.P.P.P.P.P.P.P.P.P.P.P.P.P.P.",
"P.P.P.f.O.o.o.o.o.o.o.+.P.P.P.P.P.P.P.P.P.P.C...H.H.H.H.n.8 = = = t J.P.P.P.P.P.P.P.P.P.P.P.P.P.P.P.P.P.P.P.P.",
"P.P.P.L.>.o.o.o.o.o.O.f.P.P.P.P.P.P.P.P.P.P.P.B...H.H.H.H.a.4 = = = B L.P.P.P.P.P.P.P.P.P.P.P.P.P.P.P.P.P.P.P.",
"P.P.P.P.H.$.o.o.o.@.x.P.P.P.P.P.P.P.P.P.P.P.P.P.p.t.H.H.H.H. ., = = = _ P.P.P.P.P.P.P.P.P.P.P.P.P.P.P.P.P.P.P.",
"P.P.P.P.P.A.+.o.=.M.P.P.P.P.P.P.P.P.P.P.P.P.P.P.P.w.a.H.H.H.H.' > = = ; [ P.P.P.P.P.P.P.P.P.P.P.P.P.P.P.P.P.P.",
"P.P.P.P.P.P.m.f.L.P.P.P.P.P.P.P.P.P.P.P.P.P.P.P.P.P...V.H.H.H.H.~ - - = : u.P.P.P.P.P.P.P.P.P.P.P.P.P.P.P.P.P.",
"P.P.P.P.P.P.P.P.P.P.P.P.P.P.P.P.P.P.P.P.P.P.P.P.P.P.J...G.H.H.H.V.i = = = 6 N.P.P.P.P.P.P.P.P.P.P.P.P.P.P.P.P.",
"P.P.P.P.P.P.P.P.P.P.P.P.P.P.P.P.P.P.P.P.P.P.P.P.P.P.P.Z...H.H.H.H.a.8 = = = 0 i.m.P.P.P.P.P.P.P.P.P.P.P.P.P.P.",
"P.P.P.P.P.P.P.P.P.P.P.P.P.P.P.P.P.P.P.P.P.P.P.P.P.P.P.P.C.t.H.H.H.H...< = = X $ % v P.P.P.P.P.P.P.P.P.P.P.P.P.",
"P.P.P.P.P.P.P.P.P.P.P.P.P.P.P.P.P.P.P.P.P.P.P.P.P.P.P.P.P.p.i.H.H.H.a.r ; . o       C P.P.P.P.P.P.P.P.P.P.P.P.",
"P.P.P.P.P.P.P.P.P.P.P.P.P.P.P.P.P.P.P.P.P.P.P.P.P.P.P.P.P.P.y.n.H.H.) e * s s #       R P.P.P.P.P.P.P.P.P.P.P.",
"P.P.P.P.P.P.P.P.P.P.P.P.P.P.P.P.P.P.P.P.P.P.P.P.P.P.P.P.P.P.P.} a a 9 h z s s s #     o -.P.P.P.P.P.P.P.P.P.P.",
"P.P.P.P.P.P.P.P.P.P.P.P.P.P.P.P.P.P.P.P.P.P.P.P.P.P.P.P.P.P.P.P./ 7 N m.b.E s s s o     O k.P.P.P.P.P.P.P.P.P.",
"P.P.P.P.P.P.P.P.P.P.P.P.P.P.P.P.P.P.P.P.P.P.P.P.P.P.P.P.P.P.P.P.7.g k.H.H.H.D s s s o     % m.P.P.P.P.P.P.P.P.",
"P.P.P.P.P.P.P.P.P.P.P.P.P.P.P.P.P.P.P.P.P.P.P.P.P.P.P.P.P.P.P.P.*.j k.H.H.H.E s s s & o     k L.P.P.P.P.P.P.P.",
"P.P.P.P.P.P.P.P.P.P.P.P.P.P.P.P.P.P.P.P.P.P.P.P.P.P.P.P.P.P.P.P.8.g K G.H.b.M s s s s %     o M L.P.P.P.P.P.P.",
"P.P.P.P.P.P.P.P.P.P.P.P.P.P.P.P.P.P.P.P.P.P.P.P.P.P.P.P.P.P.P.P.L.Q d v S z s s s s s s #     o L P.P.P.P.P.P.",
"P.P.P.P.P.P.P.P.P.P.P.P.P.P.P.P.P.P.P.P.P.P.P.P.P.P.P.P.P.P.P.P.P.L.H s s s s s s s s s s @     o -.P.P.P.P.P.",
"P.P.P.P.P.P.P.P.P.P.P.P.P.P.P.P.P.P.P.P.P.P.P.P.P.P.P.P.P.P.P.P.P.P.K.v s s s s s s s s s s O     o 0.P.P.P.P.",
"P.P.P.P.P.P.P.P.P.P.P.P.P.P.P.P.P.P.P.P.P.P.P.P.P.P.P.P.P.P.P.P.P.P.P.M.c s s s s s s s s s s o     % m.P.P.P.",
"P.P.P.P.P.P.P.P.P.P.P.P.P.P.P.P.P.P.P.P.P.P.P.P.P.P.P.P.P.P.P.P.P.P.P.P.0.j s s s s s s s s s % o     k H.P.P.",
"P.P.P.P.P.P.P.P.P.P.P.P.P.P.P.P.P.P.P.P.P.P.P.P.P.P.P.P.P.P.P.P.P.P.P.P.P.5.j s s s s s s s s s % o     v L.P.",
"P.P.P.P.P.P.P.P.P.P.P.P.P.P.P.P.P.P.P.P.P.P.P.P.P.P.P.P.P.P.P.P.P.P.P.P.P.P.Q d s d s s s s s s s #     o L P.",
"P.P.P.P.P.P.P.P.P.P.P.P.P.P.P.P.P.P.P.P.P.P.P.P.P.P.P.P.P.P.P.P.P.P.P.P.P.P.K.H s s s s s s s s s s @     O 7.",
"P.P.P.P.P.P.P.P.P.P.P.P.P.P.P.P.P.P.P.P.P.P.P.P.P.P.P.P.P.P.P.P.P.P.P.P.P.P.P.K.C s s s s s s s s s s O     v ",
"P.P.P.P.P.P.P.P.P.P.P.P.P.P.P.P.P.P.P.P.P.P.P.P.P.P.P.P.P.P.P.P.P.P.P.P.P.P.P.P.m.z s s s s s s s s s s     O ",
"P.P.P.P.P.P.P.P.P.P.P.P.P.P.P.P.P.P.P.P.P.P.P.P.P.P.P.P.P.P.P.P.P.P.P.P.P.P.P.P.P.k.j s s d s s s s s d @   o ",
"P.P.P.P.P.P.P.P.P.P.P.P.P.P.P.P.P.P.P.P.P.P.P.P.P.P.P.P.P.P.P.P.P.P.P.P.P.P.P.P.P.P.5.g s s s s s s s s #   & ",
"P.P.P.P.P.P.P.P.P.P.P.P.P.P.P.P.P.P.P.P.P.P.P.P.P.P.P.P.P.P.P.P.P.P.P.P.P.P.P.P.P.P.P.Q g s s s s s s s %   L ",
"P.P.P.P.P.P.P.P.P.P.P.P.P.P.P.P.P.P.P.P.P.P.P.P.P.P.P.P.P.P.P.P.P.P.P.P.P.P.P.P.P.P.P.L.H s s s s s s s # s M.",
"P.P.P.P.P.P.P.P.P.P.P.P.P.P.P.P.P.P.P.P.P.P.P.P.P.P.P.P.P.P.P.P.P.P.P.P.P.P.P.P.P.P.P.P.L.S s s s s s s g k.P.",
"P.P.P.P.P.P.P.P.P.P.P.P.P.P.P.P.P.P.P.P.P.P.P.P.P.P.P.P.P.P.P.P.P.P.P.P.P.P.P.P.P.P.P.P.P.P.7.C l j v W H.P.P."
};
