/* XPM */
static xpm_row_t const martelo[] = {
/* columns rows colors chars-per-pixel */
"55 55 118 2 ",
"   c #4ee44e",
".  c #413E69",
"X  c #684A5D",
"o  c #754855",
"O  c #43426C",
"+  c #464772",
"@  c #4A4673",
"#  c #4B4B73",
"$  c #575074",
"%  c #53537B",
"&  c #776379",
"*  c #9A4D45",
"=  c #9F5346",
"-  c #9D544D",
";  c #9F5954",
":  c #A2554A",
">  c #A65A4C",
",  c #AC5E4C",
"<  c #A05850",
"1  c #B7664F",
"2  c #B16457",
"3  c #9A5F60",
"4  c #AB6963",
"5  c #A1716B",
"6  c #B47461",
"7  c #BC7A67",
"8  c #B27670",
"9  c #B77E79",
"0  c #CF7D59",
"q  c #D07A56",
"w  c #3DFE01",
"e  c #B58178",
"r  c #CA846E",
"t  c #C48672",
"y  c #C28A7B",
"u  c #C8927C",
"i  c #DA9270",
"p  c #5D5D85",
"a  c #615E86",
"s  c #615E8A",
"d  c #626283",
"f  c #63618B",
"g  c #6A658C",
"h  c #6A698A",
"j  c #6D6C95",
"k  c #736D96",
"l  c #707190",
"z  c #7B7A96",
"x  c #77749E",
"c  c #7B7A9B",
"v  c #787BA0",
"b  c #85859C",
"n  c #8A879E",
"m  c #BD8A85",
"M  c #B28D96",
"N  c #8583AA",
"B  c #8985AE",
"V  c #9292AD",
"C  c #8889B1",
"Z  c #928FB3",
"A  c #9491B6",
"S  c #9B95B3",
"D  c #9393BC",
"F  c #9B96BF",
"G  c #9E9ABE",
"H  c #A68EA1",
"J  c #A298BA",
"K  c #A5A6BC",
"L  c #ABA6BF",
"P  c #DD9D83",
"I  c #D39D8B",
"U  c #DEA78A",
"Y  c #D2A597",
"T  c #E1AF96",
"R  c #CEABA7",
"E  c #DCB4A5",
"W  c #DCBDB1",
"Q  c #E5BCAA",
"!  c #EABFAA",
"~  c #E6CABD",
"^  c #EACABB",
"/  c #9D9AC1",
"(  c #A29DC5",
")  c #A2A2C6",
"_  c #A8A4C6",
"`  c #A5A2CB",
"'  c #ABA5CC",
"]  c #ADAACD",
"[  c #B2AECD",
"{  c #B3B1C2",
"}  c #B1B1CC",
"|  c #AEABD1",
" . c #B1AED3",
".. c #B6B3D3",
"X. c #B9B7D5",
"o. c #BBB5DA",
"O. c #BEB9DD",
"+. c #C1BCDD",
"@. c #CBC8D4",
"#. c #C4C7D8",
"$. c #CDCDD9",
"%. c #EED6C4",
"&. c #E4D2C9",
"*. c #ECD6CB",
"=. c #EAD9CC",
"-. c #EDE2DB",
";. c #C6C2E0",
":. c #C9C5E3",
">. c #DAD9E2",
",. c #D4D1EB",
"<. c #DCD8EE",
"1. c #DEE1E5",
"2. c #EDE5E3",
"3. c #E4E7EB",
"4. c #F2EBE5",
"5. c #F1ECEA",
"6. c #ECF0F1",
"7. c #F2F5F6",
/* pixels */
"                                          w w w w w w w w w w w                                               ",
"                                      w w w ` / / / / / / / / ) w w                                           ",
"                                    w w O./ / / / / / / / / / / / X.w                                         ",
"                                  w w :.O./ / / / / / / / / / / / / ' w                                       ",
"                                w w O.O.O.o./ / / / / / / G ' } _ ) / w                                       ",
"                            w w ,.O.O.O.O.O.| / / / / / ] w w w w w w w                                       ",
"                          w w ;.O.O.O.O.O.O.O./ / / / #.w                                                     ",
"                        w w ;.O.O.O.O.O.O.O.o./ / / [ w                                                       ",
"                      w <.+.O.O.O.O.O.O.O.O.../ / / w                                                         ",
"                    w ,.O.O.O.O.o.O.O.O.O.O.' / / ( w                                                         ",
"                  w :.+.+.O.O.O.O.O.O.o.O.o./ / / ( w                                                         ",
"                w ;.+.+.O.o.O.O.O.O.O.O.| / / / / / w                                                         ",
"                w O.O.o.+.O.O.O.O.O.O.' / / / / / / w                                                         ",
"                w <.+.O.O.O.O.O.O...( / / / / / ( / / w                                                       ",
"                  w w O.O.O.O.+. ./ / / / / / / G / ( w                                                       ",
"                  w G ( O.+.O.] / / / / / / / / G F w                                                         ",
"    w w w w     w D N C /  .` / / / / / / / / / S 3 < w                                                       ",
"  w w :.O.O.w w B B B C v k / / / / ( / / G / H < * * 4 w                                                     ",
"w w O.O.O.O.O./ N B C x s s j / / / / / / / M 0 1 - * * e w                                                   ",
"w +.O.o.O.O.O.o.Z N j s s f D w | / / G J y T =.W 2 * * * m w                                                 ",
"w O.O.O.O.O.O.O.' j s s j w w   w | / _ r i 7.7.7.&.> * * * w                                                 ",
"w +.O.O.O.O.O. ./ B s k w         w w w w U 7.6.7.7.W : * * - w                                               ",
"  w O.O.O.O.' / / / Z w                 w ! 5.7.7.7.7.Y = * * ; w                                             ",
"    w O.o.` / / / / / w                   w Q 5.7.7.7.5.u * * * 4 w                                           ",
"    w w ` / ( / ( / / w                     w ^ 7.7.7.7.2.7 * * * 9 w                                         ",
"      w w / / / / ( ( w                       w ^ 7.7.7.7.-.2 * * * m w                                       ",
"        w w / / ` w w w                         w =.7.7.7.7.~ , * * * R w                                     ",
"          w w / w w                               %.-.7.7.7.6.E : * * - w                                     ",
"            w w w                                 w ^ 4.7.7.7.7.I : * * : w                                   ",
"                                                    w ^ 7.7.7.7.4.t * * * 5 w                                 ",
"                                                      w %.7.7.7.7.-.7 * * * 8 w w                             ",
"                                                        w *.7.7.7.7.~ , * * o $ % w w                         ",
"                                                          w 2.7.7.7.-.q : X . . . . w w                       ",
"                                                            w 4.7.7.T q & p p # . . O w                       ",
"                                                              w P i 6 s g p p p @ . . O w                     ",
"                                                              w P 5 n 1.3.K p p p O . . # w                   ",
"                                                              w @.a >.7.7.7.V p p p O . . % w                 ",
"                                                              w { g >.7.7.7.K p p p % O . . g w               ",
"                                                              w $.s S 6.7.3.c d p p p % O . . b w             ",
"                                                              w w L a z V j p p p p a p # O . . w             ",
"                                                                w w A p p p p p p p p p p + . . O w           ",
"                                                                  w w c p p p p p p p p p p + . . O w         ",
"                                                                    w w l p p p p p p p p p p . . . % w       ",
"                                                                      w w p p p p p p p p p p % . . . h w     ",
"                                                                        w w f p p p p p s p p p % O . . z w   ",
"                                                                          w w p p f p p p p p p a # . . O J w ",
"                                                                            w w p f p d p p p p p p + . . @ w ",
"                                                                              w w p p p p p p p d f % + . . w ",
"                                                                                w w p p p p p p p p p p . . w ",
"                                                                                  w w p p p p p p p p p + . w ",
"                                                                                    w p p p p p p p s p % . w ",
"                                                                                    w w p p p p s p p p % . w ",
"                                                                                      w w p p p p p p p @ d w ",
"                                                                                        w w p p p p p p d w w ",
"                                                                                          w w w w w w w w w w "
};
