/* XPM */
static xpm_row_t const tank_red[] = {
/* columns rows colors chars-per-pixel */
"38 46 22 1 ",
"  c #2D2B22",
". c #2E2A22",
"X c #2E2B22",
"o c #39352A",
"O c #3C382C",
"+ c #403C2F",
"@ c #464133",
"# c #8C2C23",
"$ c #912E24",
"% c #932F25",
"& c #8A392D",
"* c #993027",
"= c #9A3127",
"- c #A4352A",
"; c #B43A2D",
": c #C23F31",
"> c #C94234",
", c #CD4335",
"< c #D04435",
"1 c #D24536",
"2 c #E74C3C",
"3 c #4ee44e",
/* pixels */
"33333===========================*33333",
"3333==============================3333",
"333XXX,<<<2222::::22::::2222<<<<XXX333",
"33XXXX<<<<2222::::22::::2222<<<<XXXX33",
"3XXo@@<<<<2222::::22::::2222<<<<@@oXX3",
"XXo@@@<<<<2222::::22::::2222<<<<@@@oXX",
"XX@@@@<<<<2222::::22::::2222<<<<@@@@XX",
"XX@@@@<<<<2222::::22::::2222<<<<@@@@XX",
"XX++++<<<<2222::::22::::2222<<<<++++XX",
"XX++++<<<<2222::::22::::2222<<<<++++XX",
"XX++++<<<<2222::::22::::2222<<<<++++XX",
"XX++++<<<<2222::::22::::2222<<<<++++XX",
"XX++++<<<<2222::::22::::2222<<<<++++XX",
"XX++++<<<<2222::::22::::2222<<<<++++XX",
"XX++++<<<<222222222222222222<<<<++++XX",
"XX++++<<<<222222222222222222<<<<++++XX",
"XX++++<<<<222,=########=,222<<<<++++XX",
"XX++++<<<<222%##########%222<<<<++++XX",
"XX++++<<<<222##;;;;;;;;##222<<<<++++XX",
"XX++++<<<<222##;;;;;;;;##222<<<<++++XX",
"XX++++<<<<222##;;;;;;;;##222<<<<++++XX",
"XX++++<<<<222##;;;;;;;;##222<<<<++++XX",
"XX++++<<<<222##;;;;;;;;##222<<<<++++XX",
"XX++++<<<<222##;;;;;;;;##222<<<<++++XX",
"XX++++<<<<222##;;;;;;;;##222<<<<++++XX",
"XX++++<<<<222##;;;;;;;;##222<<<<++++XX",
"XX++++<<<<222##;;;;;;;;##222<<<<++++XX",
"XX++++<<<<222##;;;;;;;;##222<<<<++++XX",
"XX++++<<<<222##;;;;;;;;##222<<<<++++XX",
"XX++++<<<<222##;;;;;;;;##222<<<<++++XX",
"XX++++<<<<222##;;;;;;;;##222<<<<++++XX",
"XX++++<<<<222##;;;;;;;;##222<<<<++++XX",
"XX@@@@<<<<222##;;;;;;;;##222<<<<@@@@XX",
"XX@@@@<<<<22,##;;;;;;;;##,22<<<<@@@@XX",
"XXO@@@<<<<2<$#-::::::::-#$<2<<<<@@@OXX",
"3XXO@@<<<<2%#-::::::::::-#$2<<<<@@OXX3",
"33XXXX&<<<2##:::::::::::>##2<<<&XXXX33",
"333XXXX&<<2##:::::::::::;##2<<&XXXX333",
"333333=====##:::::::::::>##=====333333",
"3333333====##::::::::::::##====3333333",
"33333333333##::::::::::::##33333333333",
"33333333333##::::::::::::##33333333333",
"33333333333##::::::::::::##33333333333",
"33333333333##::::::::::::##33333333333",
"33333333333################33333333333",
"333333333333##############333333333333"
};
