/* XPM */
static xpm_row_t const tank_green[] = {
/* columns rows colors chars-per-pixel */
"42 46 26 1 ",
"  c #2D2B22",
". c #2E2A22",
"X c #2E2B22",
"o c #39352A",
"O c #3C382C",
"+ c #403C2F",
"@ c #17703E",
"# c #18723F",
"$ c #464133",
"% c #187541",
"& c #197641",
"* c #197742",
"= c #1A7A44",
"- c #1A7B44",
"; c #1A7D45",
": c #1B7F46",
"> c #1C864A",
", c #209350",
"< c #23A158",
"1 c #26AB5F",
"2 c #27AE60",
"3 c #27AF60",
"4 c #28B263",
"5 c #29B765",
"6 c #2ECC71",
"7 c #4ee44e",
/* pixels */
"7777777=;--------------------------7777777",
"777777;===----------;;----;;----;=--777777",
"777XXXXX33336666331433331366661333XXXXX777",
"77XXXXXX33336666333133333366663333XXXXXX77",
"7XXo$$$$33336666666666666666663333$$$$oXX7",
"XXo$$$$$33336666666666666666663333$$$$$oXX",
"XX$$$$$$33336666666666666666663333$$$$$$XX",
"XX$$$$$$33336666666666666666663333$$$$$$XX",
"XX++++333333666666666666666666333333++++XX",
"XX++++333333666666666666666666333333++++XX",
"XX++++333333666666666666666666333333++++XX",
"XX++++333333666666666666666666333333++++XX",
"XX++++333333666666666666666666333333++++XX",
"XX++++333333666666666666666666333333++++XX",
"XX++++333333666666666666666666333333++++XX",
"XX++++333333666666666666666666333333++++XX",
"XX++++333333666664:@@@@:166666333333++++XX",
"XX++++33333366666-@@@@@@#66666333333++++XX",
"XX++++33333366666@@,,,,@#66666333333++++XX",
"XX++++33333166666@@,,,,@@66666333333++++XX",
"XX++++33333366666@@,,,,@@66666333333++++XX",
"XX++++33333366666@@,,,,@@66666333333++++XX",
"XX++++33333366666@@,,,,@@66666333333++++XX",
"XX++++33333366661@@,,,,@@36666333333++++XX",
"XX++++3333336665#@><<<<>@#3666333333++++XX",
"XX++++333333666-#><<<<<<>@#666333333++++XX",
"XX++++333333666@@<<<<<<<<@@666333333++++XX",
"XX++++333333666@@<<<<<<<<@@666333333++++XX",
"XX++++333333666@@<<<<<<<<@@666333333++++XX",
"XX++++333333666@@<<<<<<<<@@666333333++++XX",
"XX++++333333666@@<<<<<<<<@#666333333++++XX",
"XX++++333333666@@<<<<<<<<@#666333333++++XX",
"XX$$$$$$1433666#@<<<<<<<<@@6663333$$$$$$XX",
"XX$$$$$$3133666@@<<<<<<<<@@6663333$$$$$$XX",
"XXO$$$$$3333666@@<<<<<<<<@@6663333$$$$$OXX",
"7XXO$$$$3333666@@<<<<<<<<@@6663333$$$$OXX7",
"77XXXXXX3333666@@<<<<<<<<@@6661333XXXXXX77",
"777XXXXX3331666@@<<<<<<<<@@6664133XXXXX777",
"777777;;;;----;@@<<<<<<<<@@;----;---777777",
"7777777=-------@@<<<<<<<<@@=----;--7777777",
"777777777777777#@<<<<<<<<@@777777777777777",
"777777777777777@@<<<<<<<<@@777777777777777",
"777777777777777@@<<<<<<<<@@777777777777777",
"777777777777777@@<<<<<<<<@@777777777777777",
"777777777777777@@@@@@@@@@@@777777777777777",
"7777777777777777@@@@@@@@@@7777777777777777"
};
