/* XPM */
static  xpm_row_t const block2[] = {
/* columns rows colors chars-per-pixel */
"64 64 177 2 ",
"   c #031129",
".  c #5B431D",
"X  c #5B4626",
"o  c #5D4A26",
"O  c #5C4629",
"+  c #5D4929",
"@  c #5A5427",
"#  c #5E5429",
"$  c #604526",
"%  c #634B25",
"&  c #60452C",
"*  c #634E2A",
"=  c #605025",
"-  c #695027",
";  c #66512C",
":  c #69532E",
">  c #73592E",
",  c #664633",
"<  c #654A33",
"1  c #6C5631",
"2  c #6D5932",
"3  c #735C34",
"4  c #785E32",
"5  c #766229",
"6  c #7F6A2E",
"7  c #776036",
"8  c #7A6236",
"9  c #746039",
"0  c #7D6539",
"q  c #7E693D",
"w  c #5C4840",
"e  c #7D6740",
"r  c #7E6941",
"t  c #7F6B57",
"y  c #7F6C5E",
"u  c #6E6965",
"i  c #736A64",
"p  c #7A6D62",
"a  c #746D69",
"s  c #7B7067",
"d  c #77706C",
"f  c #7A726E",
"g  c #7C7572",
"h  c #85673A",
"j  c #836A3D",
"k  c #8A6D3F",
"l  c #846C41",
"z  c #896F41",
"x  c #867143",
"c  c #8C7344",
"v  c #8C7649",
"b  c #8E784C",
"n  c #927646",
"m  c #957946",
"M  c #927649",
"N  c #967B4B",
"B  c #9A7E4D",
"V  c #8C745F",
"C  c #947151",
"Z  c #967D51",
"A  c #9A7F51",
"S  c #9C795A",
"D  c #997353",
"F  c #A27954",
"G  c #847364",
"H  c #897662",
"J  c #84756B",
"K  c #8A7C6D",
"L  c #967F65",
"P  c #987E62",
"I  c #837874",
"U  c #8C7D70",
"Y  c #877B7B",
"T  c #897D7A",
"R  c #9D814E",
"E  c #9D8253",
"W  c #A0824F",
"Q  c #A38552",
"!  c #A98552",
"~  c #A58956",
"^  c #AC8A56",
"/  c #A3865A",
"(  c #A9845E",
")  c #A6895A",
"_  c #AD8D5A",
"`  c #B38154",
"'  c #B28B56",
"]  c #BB8B57",
"[  c #B38D5B",
"{  c #B88E5B",
"}  c #AE905E",
"|  c #B4915D",
" . c #BB935D",
".. c #9C8162",
"X. c #9C836C",
"o. c #8E8175",
"O. c #9E8A7A",
"+. c #9C8A75",
"@. c #A88060",
"#. c #A28967",
"$. c #AD8D63",
"%. c #A88B6C",
"&. c #B28C62",
"*. c #AF9163",
"=. c #B59463",
"-. c #BA9662",
";. c #BC9964",
":. c #B2926E",
">. c #BD9B6A",
",. c #A18B71",
"<. c #A88C70",
"1. c #B69573",
"2. c #BC9876",
"3. c #B3987C",
"4. c #B9997A",
"5. c #C08F5B",
"6. c #C1965E",
"7. c #C19762",
"8. c #C39B63",
"9. c #CD9E65",
"0. c #C39D6B",
"q. c #CA9E69",
"w. c #C49E72",
"e. c #C99F72",
"r. c #C19F79",
"t. c #C6A067",
"y. c #CEA066",
"u. c #C5A16B",
"i. c #CEA36A",
"p. c #CDA86E",
"a. c #D0A267",
"s. c #D1A56C",
"d. c #D2A96D",
"f. c #C5A271",
"g. c #CCA573",
"h. c #CEA975",
"j. c #C5A47D",
"k. c #CBA77A",
"l. c #CEAA7A",
"z. c #D1A771",
"x. c #D3AA74",
"c. c #D5AE7B",
"v. c #D6B17E",
"b. c #D8B17F",
"n. c #8E8180",
"m. c #928684",
"M. c #978883",
"N. c #97898A",
"B. c #9B8C8D",
"V. c #9E8F90",
"C. c #A48F81",
"Z. c #A4918D",
"A. c #B59A89",
"S. c #B39A86",
"D. c #A49495",
"F. c #A99599",
"G. c #AC9A9C",
"H. c #B39D93",
"J. c #BCA28B",
"K. c #BBA293",
"L. c #BAA59B",
"P. c #B19FA0",
"I. c #B5A5A6",
"U. c #B9A4A2",
"Y. c #B6A5A8",
"T. c #C6A585",
"R. c #C9A783",
"E. c #CCAB82",
"W. c #C3A689",
"Q. c #C6A888",
"!. c #D7B281",
"~. c #D9B485",
"^. c #D4B48C",
"/. c #DAB688",
"(. c #C2A691",
"). c #C3A890",
"_. c #4ee44e",
/* pixels */
"_._._._._._._._._._._._._._._._._._._._._._._._._._._._._._._._._._._._._._._._._._._._._._._._._._._._._._._._._._._._._._._._.",
"_._._._._._._._._._.+ O X % # * * + < < # * ; % + * * + + * * * * ; * + + X O X X O O X X , , X * = & % % # O O _._._._._._._._.",
"_._._._._._._._.* < + ; 1 3 3 8 8 7 8 8 3 % X - 3 3 3 8 7 0 0 0 0 8 8 7 3 3 3 1 1 1 + o O O X X + + * O X X X X + _._._._._._._.",
"_._._._._._._.+ # * : 8 h z c B B Q Q R B z h k Q Q ^ _ ^ | | | } _ _ R x 0 h 3 1 * o o + ; : 2 3 8 3 * ; 1 ; X O X _._._._._._.",
"_._._._._._.X O % % > m _ 8.i.p.i.s.s.s.p.s.s.d.d.d.d.d.d.x.x.x.d.x.x.z.8.c 2 ; ; 2 2 7 8 8 0 l x c c 5 0 j 0 7 ; O X O _._._._.",
"_._._._._.+ + 2 8 j ^ i.y.y.y.9.y.y.9.9.9.9.9.9.9.i.q.a.s.a.a.a.s.y.s.s.c. .7 % 7 j j c N ~ | N ;.p.i.i.u.;.Q x 0 1 + # * _._._.",
"_._._._.X + 3 j j c ^  .9.y.9.9.9.9.9. . .8.q.s.i.s.a.a.s.s.s.s.d.s.s.s.d.x.t.^  .;.t.p.p.d.i.N 6.a.y.y.y.y.d.t.E j 3 % * $ _._.",
"_._._.X * 3 0 m ~ q q n Q 6.9.y.e.q.-.W ! 8.a.s.a.p.z.s.d.z.z.z.z.d.z.z.d.p.x.d.z.d.p.d.s.a.6.M 6.a.y.y.9.9.y.a.i._ h - $ X @ _.",
"_._.$ + 3 8 n 8.7.B  .6.' W &.H.I.L.K.4.;.i.s.s.z.z.p.x.d.d.h.d.z.x.x.x.z.z.z.h.s.s.s.s.i.q.7.c 6.9.y.a.y.9.9.9.9.s.^ 0 3 o + _.",
"_.O * 3 h n 6.9.|  .y.9.a.[ o.U.I.Y.Y.I.A.:.q.g.x.x.x.c.x.c.c.c.c.x.z.x.x.x.c.z.z.z.z.s.s.i.{ v  .6.6.6.9.y.9.y.9.y.8.n 0 ; + _.",
"_.@ * 0 h [ 9.a.9.9.9.9.9.[ M.I.I.Y.Y.I.P.C.-.p.x.x.x.h.c.c.c.h.c.c.c.c.x.c.x.h.c.x.x.z.z.s.q.~ c R ^ W W ' 9.9.9.9.y.W 0 > < _.",
"_.O 3 3 > ! 9.9.9.y.9.9.9.( m.I.Y.I.I.I.G.Z.k.x.x.v.p.t.d.c.h.v.c.x.c.c.c.c.c.c.x.x.x.c.x.z.z.8.c ;.a.8.^ m W 8.y.9. .| h 3 * _.",
"_.O ; * % 8 8.9.y.9.9.9.9.( I F.G.F.V.N.n.O.h.c.c.c.p.=.h.v.v.v.v.v.v.v.c.c.c.c.c.c.c.x.x.x.z.s.~ -.a.q.9.6.R ' a.6.' [ l 3 * _.",
"_.X X * 3 0 ^ y.9.9.9.q.y.&.p g Y Y f J #.g.c.c.c.c.c.v.~.v.v.v.v.v.v.v.c.c.c.c.c.g.h.l.c.x.x.x. .Q s.a.y.y.6.^ 9. .! | l 3 # _.",
"_.O X * 4 h M 9.9.9.9.y.s.q.F H y t P w.c.c.c.c.v.v.v.v.v.v.v.v.v.b.v.b.!.c.v.v.c.w._ ) 0.c.x.x.p.E &.s.y.y. .B 6.W ! [ j 9 # _.",
"_., X X * 0 j 8.a.9.y.a.s.z.z.g.0.-.g.c.c.v.c.v.v.v.v.!.v.~.v.v.b.b.v.!.!.!.!.v.c.c.l./ v >.c.x.x.>.R | 9.9.R ' 6.c ^ m 0 3 w _.",
"_.@ X X + 7 j -.y.y.i.s.z.z.x.c.c.c.c.c.c.v.v.v.v.v.~.v.~.~.v.~.!.b.b.b.~.b.~.b.v.;.q.l.*.R h.v.x.x.8.E N x v 9.[ l j 0 h 3 o _.",
"_.* O X O 3 j  .s.a.s.s.z.x.x.z.c.c.c.c.v.v.!.v.v.v.~.v.v.v.~.~.~.v./.v.b.~.b.b.!.&.=.v.l.E =.l.c.x.x.g.-.N Q i.^ 8 > 0 0 3 + _.",
"_.X : * + 7 j 8.a.a.s.z.z.z.c.c.c.c.b.v.b.!.!.!.~.v.v.~.~.~.~.~.~.~.b././.b.~.b.!.c.v.v.~.=.E k.c.c.k.T.R.q._ q.' 3 * : ; * + _.",
"_.% 1 8 1 8 N p.s.s.z.z.x.c.c.c.x.c.b.b.!.!.!.!.~.~.~.~.~.~.~././././.~./.~.b.~.~.!.!.!.!.j.R k.c.x.<.D.I.K./ 8.[ j 4 * X X X _.",
"_.* 2 0 8 j ;.d.s.z.z.h.x.c.c.c.v.v.b.b.!.!.!.~.~.~.~./.~.~.~.~.v.~.~././.~.~.~.~.!.!.!.!.l.E f.b.x.L I D.G.#.8.R j 0 : + O X _.",
"_.X 1 0 x ;.d.i.s.z.z.x.c.c.c.c.v.v.v.~.!.!.~./.~./.~.~.~.~.~.p.>.v.~././././.~.~.~.!.~.v.v.E f.v.c.0.P J U $.Q Q N 0 0 3 * X _.",
"_.+ : j | d.y.i.d.z.z.x.c.c.c.c.v.v.b.b.~.b.~.~././.~.                        ~./.!.~.!.~.v.E >.v.c.c.x.( v N ) 9.8.Q z 0 3 + _.",
"_.X : h ;.s.i.s.s.x.x.z.g.g.v.v.v.v.b.b.~.~.~./.~.~.~.                        ~.~./.~.~.~.~.#.=.!.b.c.g.b v >.z.s.s.s. .z 0 * _.",
"_.+ ; j ;.s.a.s.z.x.x.u.[ >.c.b.!.v.~.!.~.~.~././././.                        /.~.~./.!./.!.*.E !.c.c.f.v ;.x.z.s.s.i.i.E 0 ; _.",
"_.O 1 h =.d.i.s.z.x.x.g.;.h.c.!.!.~.!.~.~.~.~./.b././.                        /.~.~.~.~./.~.f.b f.b.!.>./ c.x.x.z.s.i.a.^ 0 : _.",
"_.O ; j ;.d.s.s.z.x.x.c.v.c.v.!.!.!.!.~.~.~./.~./.~./././././.~./././.        /.~././.~.~.!.!.~ Z =.w.E &.c.x.x.x.s.s.s.| 0 : _.",
"_.O * 3 | d.s.z.z.z.c.c.c.c.v.b.~.!.!.~.~.~.~.~./.~.~.b./././.~./././.        /././.~.~.~.~.~.l.Z q e q >.c.x.x.z.z.i.s.} 0 : _.",
"_.O & % M s.z.z.x.x.x.c.c.v.v.!.!.!.~.~.~.~.~./.~./././.~.                    b./.~.~.~.~.~.~.~.k.Z 1 e f.c.x.x.x.z.a.d.^ 8 : _.",
"_.O 1 4 | x.s.z.x.x.c.v.c.v.b.!.!.~.~.~.~./.~./././././.~.                    /.~.~./.~.~.~.!.!.!.k.x e g.c.c.x.z.s.s.d.~ 8 : _.",
"_.X ; l ;.d.d.g.R.).).E.v.v.b.!.!.~./.~.~.~.~././././.                        ~.~././.~.~.~.~.!.!.!.:.x h.c.c.x.x.g.s.p.R 7 + _.",
"_.* 1 l ;.x.i.S.I.I.I.L.E.v.!.!.~.!.!./.~./.~./.~././.                        /././.~.~.~.~.~.~.!.~.l.E f.c.x.x.x.s.s.p.m 1 + _.",
"_.O 1 l t.g.+.D.Y.I.I.I.W.c.!.!.b.b.~.~.~.~.~.~././.~.        ~.~./././././././././.~.~.~.~.~.v.v.~.v.} >.v.c.x.z.z.s.p.j $ X _.",
"_.* 1 c p.&.Y D.I.I.I.G.A.b.b.~.~.~.~.~.~./.~.~.~.~./.        /.~.^.^./././././././.~.~./.~.~.~.~.v.v.;.| v.x.x.p.p.s.d.m 3 + _.",
"_.@ 3 m p...I m.B.D.D.N.4.b.!.!.~.b.~.~./.~.~././.~./.                        /./.~.~.~.~.~.~.v.!.v.v.;.~ x.c.x.[ 8.s.s.Q 8 * _.",
"_.< 3 Q p.( p a a a g J j.b.c.!.b.~.~.~.~.~././.~././.                        /./.~.~.~.~.~.~.~.!.!.~.=.E h.x.x.q.i.p.x._ 0 : _.",
"_.+ 8 Q x.8.( H G p H 1.c.c.!.!.~./.b./.~.~./.~././.~.                        /./.~./.~.~.~.v.~.!.~.v.>.E p.c.d.z.s.a.d.;.j 1 _.",
"_.+ 8 R z.a.a.q.0.0.g.c.b.c.c.~.b.b.~.b.~./.~.~./.~.~.                        /.^.~.~./.!.~.~.~.v.v.v.p.E ) h.x.z.s.i.d.;.j 2 _.",
"_.+ 3 c u.s.a.z.x.x.x.x.c.c.c.b.!.v.v.!.~./.~././.~./.~././.j.H a u o.l././.~./.~.~.~.~.~.~.!.v.v.v.v.v.f.~ } x.z.s.i.s.t.j * _.",
"_.O : 0 Q z.s.s.z.x.x.x.c.c.b.c.!.v./.!.~.~.~.~.~.~./././.~.~.2...+.l./.~.~.~.b.~.~.~.~.~.!.~.!.v.v.v.v.v.>.E ;.d.s.y.d.;.j : _.",
"_.O * 3 q } s.s.d.z.x.x.c.c.b.b.v.!.!.!.~./.~.!.~.~./././.~.~.~.!.~.~./.~.~.~.~.~.~.~.~.~.~.v.v.c.!.c.c.c.x.0.p.z.a.a.d.[ : * _.",
"_.X % ; 3 v 9.s.s.z.x.x.c.c.c.b.v.!.!.!.!.~./.~.~.~./././.~./.~.^./././.~.~.!.u.l.~.~.~.v.~.v.v.!.c.c.c.x.x.z.z.p.i.9.s.^ - o _.",
"_.X . . 2 q [ i.s.x.x.x.x.c.c.c.v.v.!.!.b.~.~.~.~.~./.~././.~././.~.b./.~.~.!.;.h.~.^.v.~.v.v.v.b.c.c.c.x.x.z.d.s.a.9.d.| 8 * _.",
"_.X * 8 q 2 c 6.i.s.z.x.x.c.c.c.v.v.v.!.b.b.~.b.~.~.~.~.~.~.~.~.~.v././.~.^.^.v.~.~.~.v.!.v.v.v.c.c.c.x.x.x.s.s.q.9.9.x._ 0 * _.",
"_.X 1 j r v l R  .i.i.;.;.g.c.v.c.c.v.v.b.~.v.~.!.~.~.~.~.~.~./.~./.~.~.~.~.~.~.~.!.!.v.v.v.v.l.e.c.x.x.x.z.s.s.a.9.a.d._ 7 * _.",
"_.X 3 x } i.6._ Q [ A e l E | f.x.v.v.v.b.~.v.v.~.!.~.!.~.~.~.~.~.~.~.~.~.~.~.v.~.!.v.v.v.v.v.>.0.c.x.x.z.z.s.i.y.9.y.x._ 0 ; _.",
"_.5 3 x  .a.y.y.8.{ | [ ;.0._ Q | u.l.v.v.v.!.v.!.!.!.!.!.!.~.!.v.v.v.v.v.~.v.~.v.v.~.v.v.v.h.~ e.x.c.z.d.s.a.y.9.y.9.s._ 0 ; _.",
"_., 3 x  .y.9.y.9.y.i.s.z.z.0.;.0.=.*.u.v.v.v.v.b.!.!.b.~.~.!.!.~.~.~./.~.v.~.v.v.v.v.v.v.v.>.R e.x.E.R.W.T.f.9.9.9.9.d._ 0 ; _.",
"_.< 2 j  .a.9.9.9.9.y.y.i.s.z.x.c.x.u.0.x.v.v.v.v.v.!.v.!.!.!.!.!.!.!.v.!.!.v.v.v.v.c.x.0.=.v $.g.A.U.I.I.I.J.9.9.9.9.d.' 0 h _.",
"_.; 2 q E 8.9.y.9.9.9.y.s.s.z.z.z.x.v.c.c.c.c.c.c.v.v.v.!.!.b.v.!.!.v.b.v.v.v.v.c.v.c.&.M 3 l q.<.M.P.I.Y.Y.G.q.9.9.9.d._ 4 ; _.",
"_.O 2 q x m ` 9.9. .6.y.i.p.d.g.J.).R.c.x.v.c.v.c.x.v.c.!.c.b.!.v.v.v.v.v.v.c.c.c.c.-./ / z Z p...g m.F.G.V.O.9.9.9.9.d.~ 8 : _.",
"_.* : 8 R  .W W ^ ^ 9.y.9.i.9.,.G.I.I.L.R.x.x.g. .-.h.v.c.c.c.c.c.c.c.v.c.c.c.c.c.=./ q.x.=._ z.&.s d g g f #.q.9.9.9.d.B 0 * _.",
"_.+ ; 0 m 9.9.8.5.9.9.9.9.9.] J m.G.Y.I.L.E.x.q.R ^ g.c.c.c.c.c.c.c.c.c.c.c.x.c.>.Z 0.x.x.i._ i.9.S i i i P 8.9.9.y.d.8.k 7 % _.",
"_.O * 0 c 8.9.9.9.9.9.9.9.9.F G g m.P.I.Y.K.x.z.u.0.x.c.c.x.c.c.c.x.g.x.c.c.x.c._ Q z.x.z.s.[ B A  .] ( [ 9.9.9.a.p.=.n 0 : X _.",
"_.+ * 0 j  .9.a.a.a.9.9.a.9.5.D p f m.F.G.A.g.z.x.x.x.x.x.x.x.x.x.g.[ q.x.x.x.z.| E s.z.s.a.y.W l ! 9.a.9.9.y.i.;.N j 9 1 o O _.",
"_.o + 7 h n 6.9.9.9.a.9.a.a.6.` C G i f I :.i.i.z.x.x.z.z.x.x.x.x.h.0.i.x.z.z.z.q.Z q.s.a.a.a.9. .! 6.9.9.y.q.^ j 8 3 * O o _._.",
"_.X O * 4 0 n 6.a.9.9.9.9.9.9.9.5.` F S [  . .8.p.s.s.s.z.z.x.s.z.z.s.z.z.s.d.s.i.~ | 9.8.9.9.9.y.{  .y.8._ v 0 8 ; o X * _._._.",
"_._.X O * 3 0 c 5.9.9.9.9.9.9.9.9.9.9.6.9.' B [ i.a.s.s.s.s.s.s.s.s.d.s.s.s.s.i.y.8._ [ 6.9.9.9.y.6.~ Q l 0 0 2 + X X * _._._._.",
"_._.O X X o 3 8 n ] y.a.y.y.9.y.y.y.9.9.9.9. .9.9.a.s.d.s.x.x.x.z.d.d.d.i.y.y.y.y.9.y.y.a.a.9.9.6. .c 0 7 1 * O X + * _._._._._.",
"_._._.o O X * * - k F '  . .;.8.u.i.i.p.s.s.s.d.d.d.p.t.;.=.| =.-.;.;.u.p.p.p.t.t.8.;.[ ' Q B m m k 8 3 2 : O O X * _._._._._._.",
"_._._._.O O o X * 8 0 0 q j j j x c m E Q A M N E m c j j h q 0 0 h j j x x k x z l j j 0 0 h 0 0 8 % = * 5 + + * _._._._._._._.",
"_._._._._.+ X X o * : 1 2 1 2 3 3 3 8 8 8 - * * 7 8 3 3 1 : ; * ; : > 2 > 7 3 4 3 3 8 7 8 0 8 8 8 8 - . X * O + _._._._._._._._.",
"_._._._._._._._._._._._._._._._._._._._._._._._._._._._._._._._._._._._._._._._._._._._._._._._._._._._._._._._._._._._._._._._.",
"_._._._._._._._._._._._._._._.@ O o X X O o O X O X X O O O O O + O X + + O + o ; _._._._._._._._._._._._._._._._._._._._._._._."
};
