/* XPM */
static  xpm_row_t const block7[] = {
/* columns rows colors chars-per-pixel */
"64 64 178 2 ",
"   c #031129",
".  c #5B431D",
"X  c #5B4626",
"o  c #5D4A26",
"O  c #5C4629",
"+  c #5D4929",
"@  c #5A5427",
"#  c #5E5429",
"$  c #604526",
"%  c #634B25",
"&  c #634E2A",
"*  c #695027",
"=  c #66512D",
"-  c #69532E",
";  c #73592E",
":  c #664533",
">  c #694633",
",  c #654A33",
"<  c #6C5631",
"1  c #6E5932",
"2  c #735C34",
"3  c #785E32",
"4  c #776329",
"5  c #776035",
"6  c #796236",
"7  c #746039",
"8  c #7D6539",
"9  c #7E683D",
"0  c #5C4840",
"q  c #7D6740",
"w  c #7E6941",
"e  c #7F6B57",
"r  c #7F6C5E",
"t  c #6E6965",
"y  c #736A64",
"u  c #7A6D62",
"i  c #746D69",
"p  c #7B7067",
"a  c #77706C",
"s  c #7B726D",
"d  c #7C7572",
"f  c #806B2E",
"g  c #85673A",
"h  c #836A3D",
"j  c #8A6D3F",
"k  c #846C41",
"l  c #896F41",
"z  c #867143",
"x  c #8C7344",
"c  c #8C7649",
"v  c #8E784C",
"b  c #927646",
"n  c #957946",
"m  c #937649",
"M  c #957B4B",
"N  c #9A7E4D",
"B  c #8C745F",
"V  c #947151",
"C  c #967D51",
"Z  c #9A7E51",
"A  c #9C795A",
"S  c #997353",
"D  c #A27954",
"F  c #847364",
"G  c #897662",
"H  c #84756A",
"J  c #8A7C6D",
"K  c #967F65",
"L  c #987E62",
"P  c #837975",
"I  c #8C7D70",
"U  c #877B7B",
"Y  c #897D7A",
"T  c #9D814E",
"R  c #9D8253",
"E  c #A0824F",
"W  c #A38552",
"Q  c #A98552",
"!  c #A58956",
"~  c #AC8A56",
"^  c #A3875A",
"/  c #A9845E",
"(  c #A6895A",
")  c #AC8D5A",
"_  c #B38154",
"`  c #B28B56",
"'  c #BB8A57",
"]  c #B38D5B",
"[  c #B88F5B",
"{  c #AF905E",
"}  c #B4915D",
"|  c #BB935D",
" . c #9C8162",
".. c #9C836C",
"X. c #8E8175",
"o. c #8A817E",
"O. c #9E8A74",
"+. c #9F8A7A",
"@. c #A88060",
"#. c #A28967",
"$. c #AD8D63",
"%. c #A88B6C",
"&. c #B28C62",
"*. c #AF9163",
"=. c #B59463",
"-. c #BA9662",
";. c #BD9A64",
":. c #BD9B6A",
">. c #B2926E",
",. c #AA8D71",
"<. c #A18B73",
"1. c #BC9876",
"2. c #B49B7D",
"3. c #B9997A",
"4. c #B69573",
"5. c #C08F5B",
"6. c #C1965E",
"7. c #C19762",
"8. c #C39A63",
"9. c #CD9E65",
"0. c #C39D6B",
"q. c #CA9E69",
"w. c #C99E72",
"e. c #C19D79",
"r. c #C49E72",
"t. c #C6A067",
"y. c #CEA066",
"u. c #C5A16B",
"i. c #CDA36A",
"p. c #CDA86E",
"a. c #D1A267",
"s. c #D1A56C",
"d. c #D2A96D",
"f. c #C5A272",
"g. c #CCA573",
"h. c #CEA975",
"j. c #C5A47D",
"k. c #CBA77A",
"l. c #CEAA7A",
"z. c #D1A771",
"x. c #D3AA74",
"c. c #D5AE7B",
"v. c #D6B17E",
"b. c #D8B17F",
"n. c #8E8180",
"m. c #928684",
"M. c #978983",
"N. c #97898A",
"B. c #9B8C8D",
"V. c #9D8F90",
"C. c #A48F81",
"Z. c #A4918D",
"A. c #B59A89",
"S. c #B39A86",
"D. c #A49495",
"F. c #A99599",
"G. c #AC9A9C",
"H. c #B39D93",
"J. c #BCA28B",
"K. c #BBA293",
"L. c #BAA59B",
"P. c #B19FA0",
"I. c #B5A5A6",
"U. c #B9A5A2",
"Y. c #B6A5A8",
"T. c #C6A486",
"R. c #C9A783",
"E. c #CCAB82",
"W. c #C3A589",
"Q. c #C6A888",
"!. c #D2AF81",
"~. c #D7B281",
"^. c #D9B485",
"/. c #D4B48C",
"(. c #DAB688",
"). c #C2A692",
"_. c #C2A891",
"`. c #4ee44e",
/* pixels */
"`.`.`.`.`.`.`.`.`.`.`.`.`.`.`.`.`.`.`.`.`.`.`.`.`.`.`.`.`.`.`.`.`.`.`.`.`.`.`.`.`.`.`.`.`.`.`.`.`.`.`.`.`.`.`.`.`.`.`.`.`.`.`.`.",
"`.`.`.`.`.`.`.`.`.`.o X o % # & = + , , # & & & + + + & + + = = & & + + + + + X O O + X X : : X & & $ % % @ O + `.`.`.`.`.`.`.`.",
"`.`.`.`.`.`.`.`.+ , o = < 2 2 6 6 6 6 6 2 % . % 2 2 2 6 6 8 8 8 8 8 6 5 2 2 2 < < - + o X + O X + + + + X X X X + `.`.`.`.`.`.`.",
"`.`.`.`.`.`.`.+ = = - 6 8 j c N T E E T N j g n W W ~ ) ~ } } } { ~ ~ R z g 8 2 < & + % + & - 1 2 3 6 & = < = o O X `.`.`.`.`.`.",
"`.`.`.`.`.`.X + % % ; n ` 8.i.p.s.s.s.s.p.s.s.s.d.d.d.d.d.x.s.x.x.d.x.x.8.x 1 = = 1 2 5 6 8 8 h z x x ; 8 h 8 5 & + X + `.`.`.`.",
"`.`.`.`.`.+ + 1 6 h ) y.a.y.y.y.9.9.9.9.9.9.9.9.9.i.9.9.a.a.s.i.a.i.a.s.x.-.6 % 6 h h j M ! } M ;.p.p.i.t.;.! j h < + & & `.`.`.",
"`.`.`.`.X + 2 h h x ~ | 9.9.9.9.9.9.6.| -.8.9.s.i.i.s.s.s.s.s.s.d.s.s.s.d.x.;.~ } ;.t.p.p.d.i.M 6.y.y.y.y.y.s.t.R g 1 & * $ `.`.",
"`.`.`.X & 2 8 n ! 8 8 c Q ;.y.9.w.g.8.E Q 8.a.s.s.s.d.d.s.x.z.z.x.z.z.d.d.d.x.x.x.d.p.s.y.a.6.b 6.a.y.y.y.y.y.a.i.) g * X X @ `.",
"`.`.& + 2 g n 6.8.T | 6.` E &.K.U.U.K.2.;.i.s.z.d.d.x.h.x.p.p.x.x.x.x.x.x.x.g.z.s.s.s.s.i.s.| c 6.y.y.a.9.9.a.6.9.i.! 8 3 + + `.",
"`.+ + ; 8 b 6.9.} | 9.y.a.] X.I.Y.I.I.I.A.=.q.g.x.h.x.x.c.x.c.x.x.x.x.x.x.x.x.x.x.z.z.s.s.i.] c } 6.6.6.9.a.a.9.y.y.q.x 8 & + `.",
"`.@ = 6 g ] 9.9.9.9.9.9.9.] M.I.Y.Y.I.I.P.C.-.i.x.x.h.x.c.x.c.c.c.c.c.c.c.x.x.x.x.x.x.z.z.s.q.W x T ~ W E ' a.a.9.9.y.W g 1 , `.",
"`.+ 2 2 2 Q 9.9.9.9.9.9.9./ o.I.Y.I.I.I.G.D.k.x.x.c.p.t.x.c.x.v.c.c.x.c.c.c.c.x.c.x.x.x.x.z.z.8.c 8.a.6.~ b E 6.9.9.| } 9 2 & `.",
"`.O = & % 6 8.9.9.9.9.9.9.@.P F.G.F.V.N.n.+.l.c.c.c.p.=.l.v.v.v.c.v.v.v.c.c.c.c.c.c.c.x.x.x.x.g.! | s.y.y.6.N ] a.6.` ] h 2 & `.",
"`.X + & 2 8 ~ a.9.9.9.9.a.[ u d U U d H #.g.c.c.c.b.v.c.~.v.v.v.c.v.v.v.c.c.v.c.c.g.g.c.c.x.x.x.} ! i.a.y.y.6.Q 9.6.E } h 2 = `.",
"`.X X + 2 h m 9.a.q.a.9.s.q.D G r e L r.c.c.c.v.v.c.v.v.v.v.v.v.b.b.v.b.~.v.v.v.c.r.) ( 0.x.x.x.p.R } s.y.a.[ T 6.E Q ] h 7 # `.",
"`.> X X & 8 h 7.9.a.9.a.s.z.z.g.0.-.g.c.c.c.c.c.~.v.~.~.v.^.^.v.b.~.~.v.~.!.v.v.c.c.l.^ v :.c.x.x.;.N } y.9.T ] 6.x Q n 8 5 0 `.",
"`.# + X + 3 k -.9.9.s.s.z.x.x.x.c.c.c.c.~.c.v.~.v.v.v.v.^.v.v.^.^.v.^.v.^.v.^.b.c.;.0.l.*.R h.v.x.x.8.Z M l m 9.[ k g 8 8 3 o `.",
"`.& X X + 1 h -.s.9.s.s.s.x.x.c.c.c.c.c.b.~.b.~.v.v.^.v.v.^.^.v.~.~.~.^.^.^.v.b.~.=.=.v.l.R *.l.c.c.x.p.;.M R i.] 2 2 8 8 5 + `.",
"`.X = = + 2 g 8.a.a.s.z.x.x.x.x.c.c.~.c.b.~.~.~.v.^.^.^.^.^.^.^.^.(.^.~.b.~.^.^.~.c.v.~.~.=.R l.c.c.k.T.R.0.) 9.~ 2 % - = & X `.",
"`.% < 6 < 6 M p.s.p.z.z.x.x.c.c.c.c.c.~.~.~.~.~.^.^.^.^.^.(.(.^.^.^.^.^.^.(.b.^.~.~.~.!.~.h.T l.c.x.,.D.I.K.^ 7.] h 6 & X + X `.",
"`.+ < g 8 h -.d.s.s.s.x.x.c.c.c.v.v.b.b.~.^.~.^.^.^.^.^.^./.^.^.^.(.^.^.^.^.(.(.^.~.^.~.v.l.R f.b.x.L P D.P.#.8.T h 8 - + O X `.",
"`.X < 8 x -.d.s.s.x.x.x.c.c.c.c.v.v.~.b.~.~.^.^.^.(.^.^.^.^.^.p.:.v.^.^.^.(.^.^.^.^.^.~.~.v.R f.c.c.0.L H I $.W E M 8 8 2 & X `.",
"`.+ - h } d.y.i.s.z.x.x.c.c.c.c.v.~.^.b.~.^.^.^.^.^.^.                    ^.^.^.^.^.^.~.b.v.R :.~.c.c.g./ c M ( 9.q.! l 8 2 + `.",
"`.o - h ;.s.i.s.s.z.x.g.g.x.c.v.v.v.b.b.^.^.^.^.^.^.^.                    ^.(.^.(.^.^.^.^.^.#.=.~.b.v.g.c c ;.x.s.i.i.| j 8 & `.",
"`.O = h -.d.s.s.z.z.x.0.] ;.c.b.~.~.~.^.^.^.^.^.^.^.(.                        (.^.^.^.^.(.~.*.R ~.c.c.f.c :.x.x.s.s.i.i.R 6 - `.",
"`.+ - h =.d.y.s.z.c.x.g.:.g.!.b.~.v.~.~.^.^.^.^.^.^.(.                        (.^.(.^.^.^.^.f.v f.b.~.:.( x.x.x.x.s.9.s.! g - `.",
"`.O - h ;.d.s.d.d.x.c.c.c.b.b.~.~.^.^.^.(.^.^.(.^.^.^.(.^.(.(.(.^.(.(.        (.^.^.^.^.^.^.v.^ M =.r.Z =.c.x.x.z.z.s.s.} 8 - `.",
"`.O & 2 ] d.s.z.z.x.c.x.c.b.c.~.~.~.~.^.^.^.^.(.(.(.(.(.(.(.(.(.(.(.(.        ^.(.^.(.^.^.(.^.l.C q q q :.c.x.x.z.s.i.s.{ 8 - `.",
"`.O & % m s.z.z.x.x.x.c.c.!.c.~.^.^.^.^.^.^.(.(.^.(.(.(.^.v.^./.(.(.(.        ^.(.^.^.^.^.^.~.^.k.C < q f.c.x.x.x.s.s.d.~ 8 - `.",
"`.O < 3 ] x.s.z.x.x.c.c.c.~.b.~.b.^.^.^.^.^.^.^.^.(.(.(.v.;.f.(.(.(.(.        ^.(.^.(.^.^.^.^.~.^.k.z q g.c.x.x.z.s.s.d.! 6 = `.",
"`.O & k ;.d.d.g.R.).).!.c.b.b.~.~.^.^.^.^.^.^.(.(.(.(.(.^.l.!.^.(.(.(.        (.^.(.(.^.^.^.^.~.~.^.>.z g.c.c.x.x.g.i.d.T 6 + `.",
"`.& < k ;.x.q.A.I.I.U.L.!.!.~.~.^.~.^.^.^.^.^.(.(.(.(.(.(.(.(.(.(.(.(.        ^.(.^.^.^.^.^.^.^.~.~.l.R g.c.x.x.z.z.s.p.n < + `.",
"`.O < h 0.p.O.F.Y.I.Y.I.T.c.~.~.^.^.^.^.^.(.^.(.(.(.(.(.(.(.(.(.(.(.^.        (.^.(.(.^.^.^.^.^.^.~.v.{ :.c.c.x.x.s.s.p.h X X `.",
"`.= < x g.$.U D.I.I.Y.G.J.b.b.~.v.^.^.^.^.^.^.(.(.^.(.(.(.(.(.(./././.        (.(.^.^.^.^.^.^.v.b.v.^.;.=.c.c.h.i.p.s.d.n 2 % `.",
"`.@ 2 M p.R P m.B.D.D.N.2.c.v.~.^.^.^.^.^.(.^.^.^.(.(.(.(.(./.J.U.U.U.        ^.^.(.^.^.^.(.^.^.~.~.b.=.! x.c.d.] 7.z.d.R 6 & `.",
"`., 2 R x.@.u i i a d H e.~.b.~.v.v.^.^.^.^.(.(.(.^.(.(.(.(.2.D.Y.Y.Y.        (.(.(.^.^.(.^.^.v.~.~.~.;.R x.x.x.q.i.s.x.) 8 < `.",
"`.+ 6 W s.9.D G F u G 4.c.b.c.~.^.^.v.^.(.b.(.^.^.^.^.(.(.(.O.o.G.I.G.        (.(.(.^.^.^.^.~.v.~.v.v.:.R p.c.x.x.p.s.d.-.h 1 `.",
"`.+ 6 T d.s.s.q.7.0.g.c.c.c.~.~.v.^.v.^.(.(.^.(.(.(.^.^.(.^.,.s d o.d         ^.^.^.^.^.^.^.^.^.~.v.v.x.R ( h.x.s.s.y.d.;.h < `.",
"`.o 2 c 0.d.a.z.z.c.x.c.c.b.b.b.v.v.v.^.^.^.^.^.(.(.(.^.(.^.j.G i t X.l.(.(.(.^.^.^./.^.^.~.^.v.~.v.v.c.f.! { h.z.s.i.s.t.h = `.",
"`.X = 8 ^ s.s.s.z.z.z.c.c.c.c.b.v.v.^.^.^.^.^.^.^.^.(.(.^.^.^.3. .O.j.(.(.(.^.^.^.^.^.^.^.~.^.v.v.v.v.c.v.:.W ;.s.s.a.d.;.h = `.",
"`.X % 2 9 { s.s.s.x.x.x.c.c.c.b.v.v.^.b.^.^.^.^.^.^.^.^.(.^.(.(.^.^.(.(.^.(.^.(.^.^.^.^.^.v.^.v.c.b.c.c.c.z.0.p.s.s.a.s.] 1 % `.",
"`.X % - 2 v 9.s.s.z.x.x.c.c.c.b.b.^.v.^.^.b.^.^.^.^.^.(.(.^.^.(.^.(.^.(.^.(.v.:.l.(.^.^.^.~.v.v.b.c.c.c.c.x.z.d.s.i.9.d.! * & `.",
"`.X . . 2 7 ] i.z.z.x.x.x.c.c.c.v.b.v.~.v.^.^.^.^.^.^.^.(.^.(.^.^.^.^.(.(.^.v.;.l.^.v.^.b.v.v.v.b.c.c.x.x.x.x.s.s.9.9.d.=.3 & `.",
"`.X & 6 8 1 x ;.q.s.z.x.x.c.c.c.v.v.b.~.v.^.^.v.^.^.^.^.^.^.^.^./.^.~.^.^.^./.v.^.^.^.v.^.v.v.v.c.c.c.c.x.z.z.s.9.i.9.x.) 8 & `.",
"`.X < 9 k v k T [ i.s.;.;.h.c.v.h.v.v.v.v.^.v.^.^.^.^.^.^.^.^.^.^.^.^.^.^./.^.^.v.^.^.v.^.v.v.l.r.c.c.z.x.s.s.s.y.9.9.x.~ 6 & `.",
"`.o 2 z *.y.6.~ W ] R 9 k R } f.x.v.v.v.v.^.v.v.~.~.^.^.^.^.^.^.^.^.^.~.^.b.^.v.~.v.v.v.v.v.v.:.u.c.x.x.g.z.s.i.y.9.y.d.) 8 = `.",
"`.4 2 z | a.a.y.8.[ ] } -.0.~ ^ { u.c.v.v.b.^.v.~.~.^.~.^.~.^.~.^.^.v.^.v.^.v.^.~.^.v.v.v.v.h.! w.x.x.x.s.s.i.y.9.y.9.d.) 8 - `.",
"`.: 2 z -.y.9.9.9.y.s.s.s.h.u.;.u.=.{ u.v.v.v.v.v.v.~.^.b.~.~.~.~.^.^.b.^.b.^.v.v.v.v.v.v.l.:.R g.x.R.R.W.T.g.9.9.9.9.x.~ 8 - `.",
"`., 2 k | 9.9.9.9.9.y.i.p.s.z.x.x.x.u.0.x.v.v.v.v.v.~.v.~.~.~.~.~.~.~.~.~.~.v.v.c.~.c.x.0.=.c ] g.A.I.U.I.I.J.q.9.9.9.d.~ 8 f `.",
"`.& < 9 W 8.9.9.9.9.9.y.s.s.z.x.x.c.c.c.c.c.c.c.c.v.~.v.b.b.b.v.^.~.c.v.v.v.v.b.v.v.c.} m 2 w 0.%.m.G.I.Y.Y.H.q.9.9.9.d.) 6 = `.",
"`.+ < 9 x n ` 8.y.| 6.y.i.s.s.g.W._.T.c.x.c.c.c.l.x.c.c.!.~.b.!.v.v.v.v.v.c.c.c.c.c.>.W ( l N p.#.d N.F.F.V.+.9.a.9.9.d.! 6 - `.",
"`.% - 8 N [ E E Q ` y.9.9.9.q.<.F.I.I.L.E.x.c.g.-.;.h.v.c.c.c.c.c.c.c.b.c.c.c.c.c.=.^ q.x.-.) x.] p a d d s #.9.9.9.9.s.N 6 * `.",
"`.+ = 8 n 9.9.9.6.9.9.9.9.9.] H m.G.Y.Y.L.R.x.0.E Q g.c.c.c.c.c.c.c.c.c.c.c.c.c.:.C 0.c.x.q.) i.9.A u y y L 0.9.9.9.d.8.x 2 % `.",
"`.O & 8 x 8.a.9.9.9.9.a.9.9.D G d m.P.I.I.).x.x.q.u.x.x.x.c.c.c.c.x.g.x.c.x.x.x.) W x.z.z.s.] N Z [ [ D &.9.9.9.s.p.=.b 8 = X `.",
"`.+ & 8 h | 9.9.9.9.9.9.9.9.5.S u s m.F.F.A.x.z.x.x.x.x.x.x.x.x.c.g.] 0.x.x.x.x.&.R s.s.s.i.y.E k Q 9.9.9.9.a.s.;.n h 6 < + + `.",
"`.o + 5 8 n 6.9.a.9.9.a.9.9.a.D V F y d P >.9.p.z.x.x.x.x.x.x.x.x.x.0.i.x.x.z.s.q.Z q.s.a.i.y.9.| Q 8.9.9.a.q.Q k 6 1 & + o `.`.",
"`.X O & 3 8 b | 9.a.9.9.9.6.a.9.5._ D S ) -.| 7.i.s.d.s.z.x.z.s.s.z.s.x.s.s.s.s.s.! | 8.9.9.9.9.a.] } y.8.~ c 8 2 = X X = `.`.`.",
"`.`.X O & 2 8 b 5.9.y.9.9.9.9.a.9.9.9.9.9.~ N ] i.s.s.s.s.s.s.s.s.s.p.d.s.s.s.i.t.8.~ ] 6.y.9.9.y.8.Q E z 9 6 1 + X X = `.`.`.`.",
"`.`.+ X X + 2 6 b 5.a.a.y.y.a.9.y.y.9.9.9.9.6.9.9.s.s.d.s.x.x.x.x.d.d.i.i.s.s.9.y.y.y.y.a.y.y.9.6.| x 9 5 < & O + O & `.`.`.`.`.",
"`.`.`.o O X + & * j D _ } | 6.8.t.i.i.p.s.d.i.s.s.p.p.u.;.} } } } ;.t.t.i.p.u.y.t.8.;.} ~ Q N n b j 8 2 < - O X O % `.`.`.`.`.`.",
"`.`.`.`.+ + X X & 6 8 8 h h h h l c n R W Z m M R n x h h h 8 h g g h h z z j z k h h h 8 8 8 8 g 6 % % % 5 o + & `.`.`.`.`.`.`.",
"`.`.`.`.`.+ X O o & - < < 1 1 5 2 2 5 6 6 * & & 6 6 3 2 < - & = = - < 2 ; 5 2 5 2 5 6 6 6 8 8 8 6 6 % . X & o + `.`.`.`.`.`.`.`.",
"`.`.`.`.`.`.`.`.`.`.`.`.`.`.`.`.`.`.`.`.`.`.`.`.`.`.`.`.`.`.`.`.`.`.`.`.`.`.`.`.`.`.`.`.`.`.`.`.`.`.`.`.`.`.`.`.`.`.`.`.`.`.`.`.",
"`.`.`.`.`.`.`.`.`.`.`.`.`.`.`.@ + o X X + o O X X O X X O + X + + + X O + o + o % `.`.`.`.`.`.`.`.`.`.`.`.`.`.`.`.`.`.`.`.`.`.`."
};
