/* XPM */
static  xpm_row_t const block8[] = {
/* columns rows colors chars-per-pixel */
"64 64 176 2 ",
"   c #031129",
".  c #5B431D",
"X  c #5B4626",
"o  c #5C4926",
"O  c #5C4629",
"+  c #5D4929",
"@  c #5A5427",
"#  c #5E5429",
"$  c #604526",
"%  c #634B25",
"&  c #604528",
"*  c #634E2A",
"=  c #695027",
"-  c #65512D",
";  c #69532E",
":  c #73592E",
">  c #664633",
",  c #654A33",
"<  c #6C5631",
"1  c #6D5932",
"2  c #735C34",
"3  c #785E32",
"4  c #786429",
"5  c #776035",
"6  c #7A6236",
"7  c #746039",
"8  c #7D6539",
"9  c #7E693D",
"0  c #5C4840",
"q  c #7D6740",
"w  c #7E6941",
"e  c #7F6B57",
"r  c #7F6C5E",
"t  c #6E6965",
"y  c #736A64",
"u  c #7B6D62",
"i  c #746D69",
"p  c #7B7067",
"a  c #77706C",
"s  c #7A736E",
"d  c #7C7572",
"f  c #806C2E",
"g  c #85673A",
"h  c #836A3D",
"j  c #8A6D3F",
"k  c #846C41",
"l  c #896F41",
"z  c #867143",
"x  c #8C7344",
"c  c #8C7649",
"v  c #8E784C",
"b  c #927646",
"n  c #957946",
"m  c #937649",
"M  c #957B4B",
"N  c #9A7E4D",
"B  c #8C745F",
"V  c #947151",
"C  c #967D51",
"Z  c #9A7F51",
"A  c #9C785A",
"S  c #997353",
"D  c #A27954",
"F  c #847364",
"G  c #897662",
"H  c #84756A",
"J  c #8A7C6D",
"K  c #967F65",
"L  c #987E62",
"P  c #837874",
"I  c #8C7D70",
"U  c #877B7B",
"Y  c #897D7A",
"T  c #9D814E",
"R  c #9D8253",
"E  c #A0824F",
"W  c #A38552",
"Q  c #A98552",
"!  c #A58956",
"~  c #AC8A56",
"^  c #A38759",
"/  c #A9845E",
"(  c #A5895A",
")  c #AC8D5A",
"_  c #B38154",
"`  c #B28B56",
"'  c #BB8A57",
"]  c #B38D5B",
"[  c #B88F5B",
"{  c #AF905E",
"}  c #B4915E",
"|  c #BB935D",
" . c #9C8162",
".. c #9C836C",
"X. c #8E8175",
"o. c #9E8A7A",
"O. c #9C8A75",
"+. c #A88160",
"@. c #A38967",
"#. c #AD8D63",
"$. c #A88B6C",
"%. c #B28C62",
"&. c #AF9163",
"*. c #B59463",
"=. c #BA9662",
"-. c #BC9A64",
";. c #BD9B6A",
":. c #B3926E",
">. c #A88C70",
",. c #A18B73",
"<. c #B69573",
"1. c #BC9876",
"2. c #B3987C",
"3. c #B9987B",
"4. c #C08F5B",
"5. c #C1965E",
"6. c #C19762",
"7. c #C39B63",
"8. c #CD9E65",
"9. c #C39D6B",
"0. c #CA9E69",
"q. c #C49E72",
"w. c #C99F72",
"e. c #C19D79",
"r. c #C6A067",
"t. c #CEA066",
"y. c #C5A16B",
"u. c #CDA36A",
"i. c #CEA86E",
"p. c #D1A267",
"a. c #D1A56C",
"s. c #D2A96D",
"d. c #C5A271",
"f. c #CCA573",
"g. c #CEA975",
"h. c #C5A47D",
"j. c #CBA77A",
"k. c #CEAA7A",
"l. c #D1A671",
"z. c #D3AA74",
"x. c #D5AE7B",
"c. c #D6B17E",
"v. c #D8B37F",
"b. c #8E8180",
"n. c #928684",
"m. c #978883",
"M. c #97898A",
"N. c #9B8C8D",
"B. c #9E8F90",
"V. c #A48F81",
"C. c #A4918D",
"Z. c #B39A86",
"A. c #B59A89",
"S. c #A49495",
"D. c #A99699",
"F. c #AC9A9C",
"G. c #B39D93",
"H. c #BCA28B",
"J. c #BBA293",
"K. c #BAA59B",
"L. c #B29FA0",
"P. c #B5A5A6",
"I. c #B9A4A2",
"U. c #B6A5A8",
"Y. c #C6A586",
"T. c #C9A783",
"R. c #CCAB82",
"E. c #C3A589",
"W. c #C6A888",
"Q. c #D7B281",
"!. c #D9B484",
"~. c #D4B48C",
"^. c #DAB688",
"/. c #C2A692",
"(. c #C3A890",
"). c #4ee44e",
/* pixels */
").).).).).).).).).).).).).).).).).).).).).).).).).).).).).).).).).).).).).).).).).).).).).).).).).).).).).).).).).).).).).).).).",
").).).).).).).).).).X X + & # - * + , , # & - % + + + * + * - * * * * + + O X X X + O X X > > O * * $ % % * O X ).).).).).).).).",
").).).).).).).).+ - + - < 1 5 5 6 5 6 6 5 o o % 2 2 2 6 6 6 8 8 6 5 6 5 2 2 2 < < ; + + X X O X + & + + + X X + + ).).).).).).).",
").).).).).).).+ - - - 6 h j x N N W W T T j g b W W ~ ) ) ) | } *.) ) T z g 8 5 ; * + + + - ; 1 5 2 5 * - ; - o O X ).).).).).).",
").).).).).).+ + % % : n ` r.r.i.u.a.a.i.u.i.a.a.s.s.s.s.s.z.z.s.s.z.z.l.;.x : ; - 1 : 5 6 6 8 h z x x 4 8 h 8 2 - O X O ).).).).",
").).).).).o + 1 6 h ) t.t.t.t.t.8.p.8.8.r.t.8.8.t.t.8.8.p.p.a.u.a.p.a.a.z.| 5 * 6 h h x M ! } N -.i.i.r.u.-.! z 8 < O # * ).).).",
").).).).X * 2 9 h x ~ | 8.t.5.p.8.8.5.| | 8.8.p.u.u.a.a.s.a.a.a.s.a.a.a.s.z.-.~ } ;.r.i.i.s.u.M 5.p.t.t.8.t.i.r.W h : * - $ ).).",
").).).X & 2 8 n ! 8 9 x Q 7.8.p.0.f.7.E Q 6.a.a.i.a.l.a.a.z.a.l.l.a.l.l.s.s.s.z.z.s.u.a.u.p.5.c 5.t.t.t.8.8.8.p.u.) g = $ X @ ).",
").).% + : g b 5.6.T | 5.` E %.J.I.I.J.3.;.u.a.s.l.l.l.l.l.i.g.z.z.z.z.z.l.z.l.l.l.a.a.a.u.u.=.b 5.8.t.p.8.p.5.8.8.t.! g 2 + + ).",
").+ O : 8 b 5.p.} | t.8.p.` X.P.U.P.U.P.A.*.9.l.z.g.z.x.z.c.z.z.z.z.z.z.z.z.z.z.l.l.l.a.a.u.[ x | 5.5.5.t.p.p.p.t.t.7.x 8 * + ).",
").@ ; 6 h [ 8.8.8.8.t.8.8.` m.P.P.U.U.P.L.V.*.f.z.z.z.z.x.x.x.z.x.z.x.z.z.x.z.z.z.l.l.z.l.l.0.! x T ~ E E ` 8.8.8.8.t.! 8 2 , ).",
").O 2 2 2 E t.8.t.8.8.8.8./ n.P.U.U.P.U.F.C.j.z.z.c.f.7.z.x.x.c.c.x.c.x.x.x.x.x.z.x.z.z.l.l.l.7.x -.p.7.~ n E 7.t.8.| } h 2 & ).",
").+ - * % 6 7.8.8.8.8.8.8./ P D.F.D.B.M.X.o.k.x.x.x.f.=.g.c.x.k.c.c.c.x.x.x.x.x.x.x.x.z.z.z.l.l.W =.a.8.t.5.N ` t.8.~ ) h 5 * ).",
").X X * 2 8 ~ p.8.8.8.8.8.%.r d U U d F ,.f.x.x.x.x.x.c.v.v.c.c.x.c.c.c.x.x.x.x.x.j.f.x.x.z.z.l.=.W u.a.t.t.5.~ 5.| Q [ h 2 # ).",
").X X & 2 9 m 8.8.8.8.a.a.8.A G r e L q.x.x.x.x.c.c.c.c.Q.v.v.Q.c.c.c.c.Q.Q.x.c.x.q.) ( 9.z.z.z.i.R [ u.t.p.| N 5.E Q [ h 5 # ).",
").> O O - 6 j 7.8.8.8.a.a.l.a.f.9.=.f.x.x.x.x.c.c.c.c.Q.Q.Q.Q.Q.c.Q.Q.Q.Q.Q.Q.Q.x.x.k.^ v ;.x.x.z.;.T ] 8.8.T [ 5.x Q n 8 7 0 ).",
").@ X X & 5 h =.p.8.a.a.a.l.z.x.x.x.x.x.c.c.c.c.Q.v.Q.Q.Q.Q.Q.Q.!.Q.!.v.Q.Q.Q.v.x.;.9.x.&.R g.k.z.z.7.R N z m 8.| w h 8 g 2 o ).",
").- X X + 2 h *.a.8.a.a.l.l.z.z.z.x.x.c.c.c.Q.Q.Q.v.Q.Q.Q.Q.!.Q.Q.Q.Q.v.Q.Q.Q.v.c.*.*.c.k.R &.x.x.z.z.f.=.M R t.` 7 2 6 8 5 + ).",
").X - - o 7 j 7.p.u.s.l.z.z.x.z.x.c.c.x.c.Q.Q.Q.!.v.v.!.!.!.^.!.!.!.!.!.^.Q.!.v.Q.x.k.Q.!.*.R k.x.x.j.Y.T.y.~ t.~ 2 % 1 - - X ).",
").% < 6 < 6 n i.a.i.l.z.z.z.x.x.c.x.c.c.c.c.!.Q.!.v.!.!.!.!.!.!.!.!.!.!.!.^.v.!.!.Q.Q.v.Q.j.R h.x.z.>.S.P.J.^ 7.[ h 5 o X X X ).",
").* < 8 8 l =.s.a.a.l.l.z.x.x.x.x.c.c.c.Q.!.Q.!.!.!.!.!.!.!.!.Q.!.^.!.!.^.!.^.!.Q.!.Q.Q.Q.k.R d.c.z.L P S.L...7.T h g - + O X ).",
").X < h z | s.u.a.l.l.z.x.z.x.x.c.c.Q.c.!.Q.!.!.^.!.!.!.!.!.!.i.7.Q.!.^.!.!.!.!.!.!.!.Q.Q.x.R d.c.x.9.L H I #.W T N 6 8 2 * X ).",
").+ ; h } s.u.u.a.l.z.l.x.x.x.c.c.Q.!.!.v.!.!.!.^.!.!.                    !.!.^.^.!.!.Q.!.v.R ;.c.c.x.f./ c M / u.7.W z h 2 + ).",
").o - h =.s.t.a.s.l.z.l.f.l.c.c.c.Q.c.v.!.!.!.!.!.^.!.                    ^.!.!.!.^.!.!.!.!.( :.c.c.c.g.c c -.l.a.a.u.| j 6 * ).",
").X - h =.a.a.a.l.z.z.9.] ;.x.c.Q.Q.Q.Q.!.^.!.!.!.!.^.                        !.Q.!.^.!.!.Q.&.R c.c.c.y.v ;.z.z.a.a.u.u.R 6 - ).",
").O - h *.s.u.a.l.z.z.f.;.l.c.c.Q.Q.Q.!.!.!.!.!.!.^.^.                        !.^.!.!.!.^.!.d.v d.c.c.1.( z.z.z.l.a.8.a.! g ; ).",
").O ; h -.s.a.a.s.z.x.x.c.x.c.c.Q.Q.Q.!.!.!.!.^.!.^.!.        ^.^.^.^.        ^.!.!.!.!.!.!.Q.^ M *.d.R %.x.z.z.z.l.a.a.{ 8 ; ).",
").& * 2 } a.a.z.z.z.x.z.x.c.c.Q.!.Q.!.!.!.^.!.!.^.^.!.        ^.^.^.^.        !.^.^.!.!.!.!.Q.k.C 9 q 8 ;.x.z.z.l.a.u.a.) 8 < ).",
").O * * b s.l.l.z.z.x.x.x.x.c.Q.Q.!.!.!.!.!.!.^.^.^.^.                        ^.^.!.^.^.!.!.Q.!.k.C < q d.z.z.z.z.l.a.s.~ 8 ; ).",
").O - 6 } z.a.l.z.z.x.x.x.c.c.Q.Q.Q.!.!.!.!.!.^.!.!.^.                        ^.!.!.^.!.^.!.!.!.!.f.z q f.x.x.z.l.a.a.s.! 6 ; ).",
").O < 9 6.s.s.l.T././.R.c.c.c.Q.!.!.!.Q.!.^.!.^.^.!.^.                        ^.!.^.!.!.!.!.Q.Q.Q.!.:.z g.x.x.x.l.l.a.a.T 6 + ).",
").& ; k 6.z.y.Z.I.P.P.K.R.c.Q.Q.!.Q.!.!.!.!.!.^.^.^.^.                        !.^.^.!.^.!.!.!.!.Q.Q.k.R d.x.z.l.l.l.a.i.n ; + ).",
").O < j r.y.O.D.U.U.L.L.Y.v.Q.Q.!.!.Q.!.!.^.!.^.!.^.^.        ^.^.!.^.        ^.^.^.!.Q.^.!.!.!.Q.Q.c.} ;.x.x.z.l.l.a.i.g X X ).",
").* < x f.%.U S.L.U.U.L.H.x.v.Q.!.Q.!.!.^.!.!.^.^.^.^.        ^.~.~.~.        ^.!.!.!.^.!.!.!.c.Q.Q.!.*.*.x.x.g.u.i.a.s.n 2 + ).",
").@ 2 n i. .P n.B.D.D.M.3.x.c.Q.v.Q.!.!.!.!.!.!.!.^.^.                        !.^.^.!.^.!.!.!.!.Q.Q.c.-.( z.z.z.[ -.a.z.R 6 * ).",
")., 2 W s./ u i i a s H e.Q.c.Q.v.!.!.!.!.^.^.^.!.!.!.                        ^.!.^.^.!.^.!.!.Q.!.Q.Q.*.R z.x.z.0.u.a.z.{ g - ).",
").+ 6 W l.7./ G F u G <.c.c.c.Q.Q.Q.!.!.^.!.!.!.^.!.^.^.^.                    !.^.!.!.!.Q.!.!.Q.Q.c.Q.;.R f.z.z.z.s.t.s.=.h < ).",
").+ 6 T s.a.p.0.9.9.w.x.x.x.c.Q.v.Q.Q.!.!.!.!.^.^.^.^.!.^.                    ^.^.!.!.!.!.!.Q.v.v.c.c.z.R ) l.l.f.u.u.s.-.h < ).",
").+ 2 x y.a.p.a.l.z.z.z.x.c.c.c.Q.Q.Q.!.!.!.^.!.!.^.!.^.^.^.h.G t t J T.^.!.^.!.!.^.!.!.!.Q.c.!.Q.c.x.c.d.^ { f.s.u.t.s.r.h - ).",
").O - 8 ! l.a.l.l.z.z.x.x.x.x.c.Q.Q.Q.v.!.!.!.!.^.!.!.!.!.!.!.1.....T.^.!.!.!.!.!.!.!.!.!.!.!.c.c.c.c.z.c.7.W ;.s.a.t.s.;.h ; ).",
").+ & 2 k { s.u.a.z.z.z.c.x.c.c.Q.Q.Q.!.Q.!.!.!.!.!.!.!.^.^.^.^.Q.!.^.^.!.^.!.^.!.!.!.!.!.Q.!.c.c.c.x.x.z.l.9.i.a.a.p.s.] : + ).",
").X % - 7 c r.p.a.l.z.z.z.x.x.c.c.Q.Q.Q.Q.!.!.!.!.!.!.^.^.^.!.!.!.^.!.!.!.^.v.;.x.!.Q.!.Q.Q.c.c.x.c.x.x.x.z.z.l.i.u.8.s.) * + ).",
").X . . 1 8 } p.l.l.z.z.z.x.x.x.c.x.!.Q.v.!.!.!.!.!.!.!.!.!.^.!.!.!.!.^.~.!.Q.*.g.!.!.Q.c.Q.c.c.c.x.x.x.z.z.l.s.a.8.8.s.} 6 & ).",
").X * 6 9 1 x 5.0.a.l.z.x.x.z.x.x.Q.Q.Q.c.!.Q.!.!.!.!.!.!.^.!.!.!.!.Q.^.!.!.!.v.~.v.!.!.!.Q.c.c.x.x.z.x.z.z.a.a.8.8.8.z.{ 6 - ).",
").X < 9 k c l T [ u.u.-.;.f.x.x.x.Q.c.c.c.!.Q.!.Q.!.!.!.!.!.!.!.!.^.!.!.!.!.!.!.v.Q.Q.Q.Q.c.c.g.9.x.x.z.l.l.l.a.t.8.t.z.) 6 * ).",
").+ 2 z &.r.5.~ W ` R w l R *.d.z.x.x.c.c.c.Q.Q.!.Q.!.!.!.!.!.!.!.!.!.!.Q.!.!.Q.Q.v.c.Q.c.c.c.;.y.x.z.z.z.l.a.a.t.8.t.l.) 6 - ).",
").4 2 z =.p.t.t.7.| ] } =.7.) W %.d.x.x.c.c.c.c.Q.!.Q.Q.Q.!.!.!.!.Q.Q.!.!.Q.Q.Q.Q.Q.v.c.c.c.g.^ w.z.z.l.a.a.t.8.8.t.8.s.) 6 - ).",
").> 2 z | p.8.8.8.t.a.a.l.f.9.-.9.*.] w.x.c.c.c.c.Q.Q.c.!.v.Q.Q.Q.!.Q.Q.Q.Q.!.Q.v.v.c.c.c.k.;.R l.z.R.T.E.Y.d.8.8.t.8.s.{ 8 ; ).",
")., 2 h | t.8.8.8.8.t.t.a.a.l.z.z.z.y.9.z.c.x.c.Q.c.c.Q.Q.Q.Q.Q.c.!.Q.Q.Q.!.c.c.x.c.Q.l.9.*.v ] f.A.I.P.P.U.H.8.8.8.8.s.` 6 f ).",
").* < 9 T 8.t.8.t.8.8.t.a.a.l.z.f.x.c.x.z.x.x.x.c.c.c.c.c.Q.c.Q.c.Q.c.c.c.c.c.c.x.x.x.*.m 2 w 9.$.n.L.U.U.P.F.0.8.8.8.s.) 8 ; ).",
").O < 9 z n ` 8.8.| 5.t.u.a.a.f.E./.Y.x.x.x.x.x.k.z.x.x.Q.c.c.Q.c.c.c.c.c.x.c.x.x.c.=.^ ( l Z i. .d n.D.F.B.o.8.8.8.8.s.! 6 ; ).",
").* < 6 N | E E ! ~ 8.t.8.8.0.,.D.P.P.K.k.x.x.d.=.=.z.c.x.x.x.c.x.x.x.c.x.x.x.x.x.*.^ 0.z.*.) l.%.p a d d s @.8.8.8.8.a.T 6 * ).",
").+ - 6 M 8.8.5.5.8.8.8.u.8.' H b.F.U.P.K.T.z.9.W W l.x.x.x.x.x.x.x.x.x.x.x.x.x.;.C 9.x.l.y.] u.8.A u t y L 7.8.8.t.s.7.z 2 % ).",
").O - 8 x 7.8.p.8.8.8.p.8.8.D F d n.P.P.U./.z.l.y.y.x.z.z.x.z.x.x.z.l.z.z.x.z.z.) R z.l.a.a.] N Z [ ' / %.8.8.8.u.i.*.x g - X ).",
").X * 8 h | 8.8.8.8.p.8.p.p.4.S u d n.D.F.A.l.l.z.z.x.z.z.z.z.z.x.l.] 9.z.z.l.z.*.R a.a.a.a.8.E k Q 8.8.8.8.p.a.-.M h 6 ; + O ).",
").+ + 5 g n 5.8.8.8.8.8.p.p.5._ V F y s P :.u.a.l.l.l.l.z.z.z.z.l.l.9.u.z.l.l.l.9.Z 0.a.a.t.8.8.5.Q 5.8.8.p.0.! j 6 2 * + + ).).",
").X O * 6 8 b | p.8.8.8.8.8.8.8.' _ D S %.| | 6.i.a.a.s.l.l.l.l.l.l.l.a.l.a.a.a.u.! | 7.7.t.8.8.t.[ | t.6.) x h 2 - + X * ).).).",
").).X O * 2 8 b 4.8.8.8.8.8.8.8.8.8.8.8.8.~ N ` 8.a.a.a.u.s.a.a.l.a.s.s.a.a.a.u.t.5.) [ 5.t.8.8.8.5.! W l 9 6 1 + X X * ).).).).",
").).O X X + 2 6 b ' p.p.t.p.t.t.u.t.t.8.8.8.| 8.8.a.p.s.s.z.l.z.l.s.s.u.u.t.a.8.t.t.t.t.p.p.8.8.5.| c 8 5 < * O o O * ).).).).).",
").).).+ X X + * = j D ~ } } -.7.r.u.u.s.s.s.a.s.l.s.i.r.;.} *.[ *.-.7.y.i.i.u.r.r.;.=.} ` W T n b j 6 2 < ; X X X * ).).).).).).",
").).).).O + X X * 6 8 9 j h h j l x n R W R m M R n z j h h 8 h 8 g h j z j j z l j h h 8 8 9 8 g 6 % % * : + O * ).).).).).).).",
").).).).).* X O o + ; < < 1 1 2 2 2 7 6 5 = & - 5 6 2 2 < ; - * - ; < 1 : 7 5 5 2 2 5 5 6 8 8 6 6 5 = . X * + @ ).).).).).).).).",
").).).).).).).).).).).).).).).).).).).).).).).).).).).).).).).).).).).).).).).).).).).).).).).).).).).).).).).).).).).).).).).).",
").).).).).).).).).).).).).).).o X + + X X + O X X O X X O O X O + O + X + X o + * ).).).).).).).).).).).).).).).).).).).).).).)."
};
