/* XPM */
static  xpm_row_t const block3[] = {
/* columns rows colors chars-per-pixel */
"64 64 175 2 ",
"   c #031129",
".  c #5B431D",
"X  c #5B4626",
"o  c #5D4A26",
"O  c #5C4629",
"+  c #5D4929",
"@  c #5A5527",
"#  c #5D5429",
"$  c #604626",
"%  c #634B25",
"&  c #634E2A",
"*  c #695027",
"=  c #66512D",
"-  c #69532E",
";  c #73592E",
":  c #664633",
">  c #654A32",
",  c #6C5631",
"<  c #6E5932",
"1  c #735C34",
"2  c #785E32",
"3  c #776329",
"4  c #776036",
"5  c #7A6236",
"6  c #746039",
"7  c #7D6539",
"8  c #7E693D",
"9  c #5C4840",
"0  c #7D6740",
"q  c #7E6941",
"w  c #7F6B57",
"e  c #7F6C5E",
"r  c #6E6965",
"t  c #736A64",
"y  c #7A6D62",
"u  c #746D69",
"i  c #7B7067",
"p  c #77706C",
"a  c #7A736E",
"s  c #7C7572",
"d  c #806B2E",
"f  c #85673A",
"g  c #836A3D",
"h  c #8A6D3F",
"j  c #846D41",
"k  c #896F41",
"l  c #867143",
"z  c #8C7344",
"x  c #8C7649",
"c  c #8E7A4C",
"v  c #927646",
"b  c #957946",
"n  c #937649",
"m  c #957B4B",
"M  c #9A7E4D",
"N  c #8C745D",
"B  c #947151",
"V  c #967D51",
"C  c #9A7F51",
"Z  c #9C795A",
"A  c #997353",
"S  c #A27954",
"D  c #847364",
"F  c #897662",
"G  c #84756A",
"H  c #8A7C6D",
"J  c #947F65",
"K  c #987E62",
"L  c #837874",
"P  c #8C7D70",
"I  c #877B7B",
"U  c #897D7A",
"Y  c #9D814E",
"T  c #9D8253",
"R  c #A0814F",
"E  c #A38552",
"W  c #A98552",
"Q  c #A58956",
"!  c #AC8A56",
"~  c #A3875A",
"^  c #AA845E",
"/  c #A6895A",
"(  c #AC8D5A",
")  c #B38154",
"_  c #B28B56",
"`  c #BB8A57",
"'  c #B38D5B",
"]  c #B88F5B",
"[  c #AF905E",
"{  c #B4915D",
"}  c #BB935D",
"|  c #9C8162",
" . c #9C836C",
".. c #8E8175",
"X. c #9E8A7A",
"o. c #9C8A75",
"O. c #A88060",
"+. c #A28967",
"@. c #AD8D63",
"#. c #A88B6C",
"$. c #B28C62",
"%. c #AF9163",
"&. c #B59463",
"*. c #BA9662",
"=. c #BD9A64",
"-. c #B2926E",
";. c #BD9B6A",
":. c #A88C70",
">. c #A18B73",
",. c #B69573",
"<. c #BE9876",
"1. c #B3987C",
"2. c #B9997A",
"3. c #C08F5B",
"4. c #C1965E",
"5. c #C19762",
"6. c #C39A63",
"7. c #CD9E65",
"8. c #C39D6B",
"9. c #CA9E69",
"0. c #C49E72",
"q. c #C99F72",
"w. c #C19D79",
"e. c #C6A067",
"r. c #CEA066",
"t. c #C5A16B",
"y. c #CDA36A",
"u. c #CDA86E",
"i. c #D1A267",
"p. c #D1A56C",
"a. c #D2A96D",
"s. c #C5A271",
"d. c #CCA573",
"f. c #CEA975",
"g. c #C5A47D",
"h. c #CBA77A",
"j. c #CEAA7A",
"k. c #D1A771",
"l. c #D3AA74",
"z. c #D5AE7B",
"x. c #D6B17E",
"c. c #D8B17F",
"v. c #8E8180",
"b. c #928684",
"n. c #978883",
"m. c #97898A",
"M. c #9B8C8C",
"N. c #9E8F90",
"B. c #A48F81",
"V. c #A4918D",
"C. c #B39A86",
"Z. c #B59A89",
"A. c #A49495",
"S. c #A99599",
"D. c #AC9A9C",
"F. c #B39D93",
"G. c #BCA28B",
"H. c #BBA293",
"J. c #BAA59B",
"K. c #B19FA0",
"L. c #B5A5A6",
"P. c #B9A4A2",
"I. c #B4A5A8",
"U. c #C6A586",
"Y. c #C8A783",
"T. c #CCAB82",
"R. c #C3A589",
"E. c #C6A888",
"W. c #D6B281",
"Q. c #D9B484",
"!. c #D4B48C",
"~. c #DAB688",
"^. c #C2A692",
"/. c #C3A890",
"(. c #4ee44e",
/* pixels */
"(.(.(.(.(.(.(.(.(.(.(.(.(.(.(.(.(.(.(.(.(.(.(.(.(.(.(.(.(.(.(.(.(.(.(.(.(.(.(.(.(.(.(.(.(.(.(.(.(.(.(.(.(.(.(.(.(.(.(.(.(.(.(.(.",
"(.(.(.(.(.(.(.(.(.(.o X X % # & = + > > # + = % + + + & + + = = & = & + + o X X X O O X X : : X & = X % % + X + (.(.(.(.(.(.(.(.",
"(.(.(.(.(.(.(.(.& > + = , < 1 5 5 4 5 5 5 . % % 1 1 4 5 4 7 7 f 7 4 5 4 2 1 1 , , - + o X O X X + + $ + o o X X + (.(.(.(.(.(.(.",
"(.(.(.(.(.(.(.O # & - 7 f k v V M E E Y M h f v E E ! ( ! [ { { [ ( ! Y l 7 7 2 , & + $ + - , , 1 1 5 & = - = o X X (.(.(.(.(.(.",
"(.(.(.(.(.(.+ + % % ; b ( 6.y.u.i.p.p.p.p.p.p.p.u.a.a.a.a.l.a.k.l.a.l.k.8.z 1 = = < 1 2 5 7 7 j l v z ; f g 7 4 - O X $ (.(.(.(.",
"(.(.(.(.(.+ + < 5 g _ y.i.r.r.7.7.7.7.7.9.7.7.7.r.r.7.i.i.i.y.y.i.y.i.p.l.&.4 % 5 g g z m Q [ m =.u.u.y.e.=.Q l 7 , + # & (.(.(.",
"(.(.(.(.X & 1 8 g z W } 7.i.4.i.7.7.6.} } 7.r.y.y.y.p.p.p.a.p.p.a.a.u.p.a.l.6.! { =.e.u.u.a.y.b 4.r.r.r.r.r.u.6.T g < & & $ (.(.",
"(.(.(.$ $ 1 7 b Q 8 8 x W 4.r.i.q.d.5.Y W 5.y.p.p.p.p.p.k.k.k.k.k.k.k.k.a.a.k.l.l.a.u.p.i.i.4.v 4.r.r.r.r.7.r.i.y.( f * $ X # (.",
"(.(.$ + 1 f v 4.5.Y } 4._ R &.F.P.P.H.2.=.y.p.p.k.k.l.k.l.l.a.a.k.k.a.l.k.l.k.k.p.p.u.p.y.i.*.x 4.r.r.7.r.7.7.7.7.y.Q f 1 + X (.",
"(.+ + ; 7 v 4.7.{ } r.7.i._ P L.L.L.L.L.Z.&.9.d.l.l.l.l.l.f.z.z.z.z.l.l.j.l.l.l.l.k.k.p.p.y.] x ] 4.4.6.7.7.7.r.7.i.6.x 5 - + (.",
"(.@ = 5 g ] i.7.7.7.7.7.7.' n.L.I.L.I.I.K.B.&.y.l.l.l.f.l.x.z.f.z.z.z.z.l.l.l.l.l.k.l.k.k.k.9.Q h Y ! R R ] r.r.7.7.r.W 7 1 > (.",
"(.O 1 2 1 R 7.7.r.7.7.r.7.^ b.L.L.I.I.I.K.V.h.z.l.x.u.e.f.z.z.z.z.l.z.z.z.z.z.z.z.z.l.l.k.k.k.6.c 6.r.6.! v R 4.7.7.4.( g 1 $ (.",
"(.+ & & $ 7 6.r.7.7.7.7.7.^ L S.D.S.N.m.v.X.j.z.z.z.u.&.j.x.x.x.x.x.x.x.z.z.z.l.z.z.z.l.l.l.l.p.Q } u.r.r.4.M ] 7.7.! ] g 2 & (.",
"(.X O = 2 7 ! r.7.7.7.7.7.$.y a I I L D +.d.z.z.x.z.x.z.x.x.x.x.x.x.x.x.z.x.x.z.z.d.d.z.z.l.l.k.} Y r.a.r.r.4.W 4.} W { g 2 # (.",
"(.O X $ 2 7 n 9.7.7.7.p.p.7.S F e w | 0.z.z.z.z.x.x.x.x.x.x.c.x.z.c.x.x.x.x.x.x.z.0.( / ;.z.l.l.u.T { u.r.i.} M 4.R W ] g 6 # (.",
"(.: X X & 7 g 6.r.r.7.i.k.k.k.d.;.*.d.z.z.z.z.x.x.x.x.W.W.W.W.W.c.c.W.W.x.W.x.W.z.z.j.~ c ;.z.l.l.=.M { 9.7.Y ] 4.z W b 7 6 9 (.",
"(.@ O X + 1 g *.7.i.y.p.k.k.k.z.z.z.z.z.z.x.x.x.Q.x.Q.x.Q.Q.Q.x.c.x.Q.c.Q.c.x.c.x.=.t.j.%.T f.x.l.l.6.T m k n 6.} j g 7 f 1 + (.",
"(.& O X + 1 g *.p.7.p.p.k.l.l.z.l.z.z.x.W.W.W.W.x.x.Q.c.c.c.x.Q.Q.Q.Q.c.c.Q.Q.c.x.&.%.x.j.T %.j.z.l.l.d.=.m T y._ 5 1 5 7 1 + (.",
"(.$ - & + 4 g 6.i.p.a.k.l.k.z.z.z.z.x.z.x.W.W.W.Q.x.x.Q.Q.Q.Q.Q.Q.Q.Q.Q.Q.Q.Q.c.W.x.x.x.W.&.T j.z.z.d.E.T.8.( r.! 1 % , - & + (.",
"(.$ , 5 < 5 m y.i.u.k.k.l.l.l.z.x.z.x.x.W.W.W.W.Q.x.Q.Q.Q.Q.Q.~.Q.Q.Q.Q.Q.Q.c.Q.W.W.W.x.W.h.T j.z.l.:.A.L.H.~ 6._ j 2 & X X X (.",
"(.& - g 7 g =.a.p.p.k.k.l.z.z.z.z.x.c.c.W.W.W.Q.Q.Q.Q.Q.~.Q.Q.Q.W.~.~.~.Q.Q.~.Q.Q.W.W.W.W.j.T s.c.l.K L A.K. .5.Y g 7 = + X X (.",
"(.o - 7 l } a.y.p.k.l.l.l.z.z.z.x.x.c.Q.W.W.Q.Q.Q.~.Q.Q.Q.Q.W.u.t.j.Q.~.Q.~.Q.Q.Q.Q.Q.Q.W.x.T s.x.z.8.K G P @.E T b f 7 < & + (.",
"(.O - g { a.i.y.a.k.k.z.z.z.z.z.x.W.Q.c.Q.Q.Q.Q.Q.Q.Q.                        Q.~.Q.Q.W.x.x.T ;.x.z.z.d.^ x m ! t.9.W l 7 1 + (.",
"(.o = g =.a.y.p.p.k.l.d.d.l.z.x.x.x.c.c.Q.Q.Q.Q.Q.Q.~.                        Q.Q.~.Q.Q.Q.x.+.&.W.c.c.d.x x ;.d.p.i.y.} k 7 & (.",
"(.O = j =.p.y.p.k.l.z.8._ =.z.c.W.W.W.W.Q.Q.Q.Q.~.Q.~.                        Q.Q.Q.Q.Q.Q.Q.%.T z.x.z.0.x ;.l.l.p.p.y.y.T 7 - (.",
"(.O = f &.a.y.p.k.l.l.u.;.f.W.W.W.W.Q.Q.Q.Q.Q.Q.Q.Q.~.                        Q.Q.~.Q.Q.Q.Q.w.Y s.x.W.;./ l.l.l.k.p.y.p.! 7 - (.",
"(.O = g =.a.p.p.k.l.l.z.z.z.x.W.W.W.W.Q.~.Q.~.Q.~.Q.~.~.~.~.~.~.~.~.~.        ~.Q.Q.Q.Q.Q.Q.x.T V &.0.T &.z.l.l.l.k.i.p.{ 7 - (.",
"(.O - 1 ] a.p.k.k.k.z.z.z.x.x.W.W.W.Q.Q.Q.Q.Q.Q.~.~.Q.~.~.~.~.~.~.~.~.        Q.~.Q.~.Q.!.Q.Q.j.V 8 0 0 ;.z.l.l.k.p.y.p.( 7 - (.",
"(.O & % b p.k.k.l.l.z.z.z.x.x.W.W.W.Q.Q.Q.Q.~.~.Q.~.~.~.Q.                    ~.~.Q.Q.Q.Q.Q.W.Q.h.V , 0 s.z.l.l.l.p.p.a.! 7 - (.",
"(.X = 5 { l.p.k.l.l.z.z.x.z.c.W.W.Q.Q.Q.Q.~.Q.Q.Q.Q.~.~.c.                    ~.Q.Q.~.Q.Q.Q.Q.Q.W.h.l 0 d.z.l.l.k.p.p.a.Q 5 = (.",
"(.O , q =.a.a.d.Y.^./.T.z.c.x.W.W.Q.Q.Q.Q.~.Q.~.~.~.~.~.Q.                    ~.~.~.Q.Q.Q.Q.Q.W.W.W.-.z d.z.z.l.l.k.p.a.Y 5 + (.",
"(.$ - j 6.l.t.Z.L.L.L.J.T.x.W.W.Q.W.Q.Q.Q.Q.Q.~.~.~.~.~.~.                    Q.Q.~.~.Q.Q.Q.Q.W.Q.W.j.T d.z.l.l.d.k.p.u.n - + (.",
"(.+ , g t.s.o.S.K.I.I.K.U.z.W.W.c.Q.Q.Q.Q.~.Q.Q.Q.~.~.~.~.~.~.Q.~.~.Q.        ~.~.~.~.Q.Q.Q.Q.Q.c.W.x.[ ;.z.z.l.k.f.p.a.g $ X (.",
"(.% < z u.&.U A.L.I.I.K.G.c.c.W.Q.c.Q.Q.Q.c.~.~.~.Q.~.~.~.~.~.~.!.!.~.        ~.~.Q.Q.Q.Q.Q.Q.c.Q.x.W.=.&.x.l.l.u.y.p.a.m 1 o (.",
"(.@ 1 m u.K s b.N.S.A.m.2.W.c.W.c.Q.c.Q.Q.~.~.Q.Q.~.~.                        Q.Q.~.Q.Q.~.Q.Q.Q.W.W.x.&.~ l.z.k.] =.p.k.T 7 & (.",
"(.> 1 E p.^ y u u p s G w.z.W.W.c.Q.~.Q.Q.Q.~.~.Q.~.~.                        ~.~.Q.Q.!.Q.Q.Q.c.W.W.x.;.E l.l.l.9.y.p.k.( f = (.",
"(.+ 5 E k.6.^ N D D D ,.z.W.W.W.x.Q.Q.Q.Q.Q.~.~.Q.Q.~.                        Q.~.Q.Q.~.Q.Q.W.x.W.x.x.;.Y d.z.a.k.p.y.a.&.g < (.",
"(.$ 4 T k.y.i.9.5.8.q.z.z.z.z.W.Q.x.c.Q.Q.Q.Q.Q.~.~.~.                        ~.Q.~.Q.Q.W.Q.Q.Q.W.x.x.j.T ( f.l.k.p.r.a.=.g , (.",
"(.+ 6 z y.p.i.k.k.l.z.l.z.z.x.x.W.Q.W.Q.Q.Q.Q.Q.Q.Q.~.~.~.~.g.F r r ..j.Q.Q.~.Q.Q.Q.Q.Q.Q.W.W.W.W.x.x.x.s.Q [ l.k.p.y.a.e.g = (.",
"(.X - 7 Q k.i.p.k.k.z.l.z.z.x.x.x.x.Q.x.~.Q.Q.Q.~.~.Q.Q.~.Q.Q.<. .o.g.Q.~.Q.~.~.Q.Q.Q.Q.Q.Q.Q.W.x.x.x.l.x.;.R =.p.p.i.a.=.g = (.",
"(.o o 1 g [ p.p.p.k.l.l.z.z.z.x.x.W.W.Q.Q.Q.Q.Q.Q.Q.~.Q.~.Q.~.Q.W.Q.Q.~.Q.Q.~.!.W.Q.Q.Q.Q.Q.x.x.x.x.z.z.z.k.8.u.k.p.i.p.{ < % (.",
"(.X % - 1 x r.y.p.k.l.l.z.z.x.W.x.W.W.W.W.Q.Q.Q.Q.Q.Q.Q.~.Q.Q.Q.Q.~.Q.Q.Q.Q.W.t.j.~.Q.Q.W.W.x.x.z.x.z.z.l.l.k.k.y.y.7.a.! % o (.",
"(.X . . 1 6 _ u.k.k.k.l.z.z.z.z.x.W.W.W.c.c.Q.Q.Q.Q.~.Q.Q.~.~.Q.~.Q.~.Q.Q.~.W.&.f.~.Q.x.W.W.x.x.x.z.z.z.l.z.k.a.p.y.7.a.&.5 & (.",
"(.X & 5 8 , x 5.p.p.k.k.l.z.l.z.x.x.x.W.W.Q.Q.c.Q.Q.Q.Q.Q.Q.~.!.Q.Q.Q.Q.~.W.~.x.W.Q.Q.x.W.W.x.x.z.z.z.l.l.k.a.p.r.r.7.a.( 7 & (.",
"(.X , 8 j x k T ] y.y.;.=.d.z.z.z.z.x.x.x.Q.Q.x.W.Q.Q.Q.Q.Q.Q.~.Q.~.Q.W.~.Q.Q.Q.Q.W.x.W.W.x.x.f.9.z.z.l.k.k.k.p.p.7.r.a.! 5 & (.",
"(.O 1 l [ r.4.! E ] T 0 k E { s.z.x.x.x.c.W.c.W.Q.W.Q.Q.Q.Q.Q.Q.Q.!.Q.Q.Q.Q.W.Q.x.W.x.Q.x.x.x.;.t.z.l.l.k.k.p.y.7.7.r.a.( 7 - (.",
"(.3 1 z =.r.7.7.6.] { ' *.8.( ~ ( t.l.x.x.x.W.x.W.Q.W.W.Q.W.W.Q.c.Q.c.Q.W.Q.c.W.W.W.x.x.x.x.f.Q q.l.l.l.k.p.i.7.7.7.9.a.! 7 & (.",
"(.: < l } r.7.r.7.r.y.p.k.f.8.=.8.&.%.t.x.x.x.x.W.W.W.W.c.W.W.W.x.Q.Q.x.W.W.W.W.W.x.x.x.x.x.;.T q.l.T.U.U.U.s.7.7.r.r.k.( 7 - (.",
"(.> 1 j } i.r.7.7.7.r.r.p.k.k.l.l.l.s.8.l.z.z.W.z.W.W.W.W.W.W.W.W.W.W.W.W.W.c.W.x.W.z.l.8.&.x ' d.Z.P.I.I.I.G.7.7.7.7.a.' 5 d (.",
"(.& , 8 Y 6.r.7.r.7.7.r.i.p.k.k.l.l.z.z.z.z.z.z.z.W.x.x.W.W.z.W.W.W.z.W.x.x.x.z.z.x.z.$.n 1 q 8.:.n.D.I.L.I.F.9.7.7.7.a.! 7 = (.",
"(.+ , 8 l b _ 7.7.} 4.r.y.p.p.d.R./.E.l.z.z.z.z.j.l.z.z.W.z.W.W.x.x.x.x.x.z.z.z.z.z.*.~ ~ k T u.+.s n.S.D.N.X.7.r.7.7.p.Q 5 - (.",
"(.& - 5 Y } R R W ( 7.r.7.y.9.>.S.L.L.J.g.z.z.u.*.=.j.z.z.z.z.z.x.z.z.c.z.z.z.z.z.&.~ 9.l.*.' k.' i p s s p +.7.7.7.7.p.M 7 & (.",
"(.+ = 5 m 7.7.4.4.7.7.7.7.r._ G b.D.I.L.J.Y.l.8.R W d.z.z.z.z.z.z.z.z.z.z.z.l.z.;.V 8.l.l.9.( y.6.S y t t K 8.7.7.r.a.6.h 2 % (.",
"(.X - 5 z 6.7.7.7.7.7.i.7.7.S F s b.L.I.I.^.l.k.8.y.l.z.z.z.z.z.z.l.d.l.z.z.l.z.( E l.k.a.p._ V Z *.` ^ $.6.7.7.r.u.&.v 7 - X (.",
"(.+ & 7 g } 7.i.7.7.7.7.7.7.3.A y p b.S.D.Z.k.k.l.l.l.l.l.l.z.l.z.d.] 8.l.l.l.k.&.T k.k.p.p.r.R g W 7.7.7.7.7.u.=.m g 6 , + O (.",
"(.+ + 4 f v 4.7.7.7.7.7.7.7.7.) A D t a L -.y.p.k.k.l.k.k.k.k.l.k.k.9.t.l.k.k.k.9.m 9.p.i.r.i.7.4.R 6.7.7.i.7.! h 5 1 & O o (.(.",
"(.O X & 2 f v } 7.i.7.7.7.7.7.7.} S S A ] } } *.u.k.a.p.k.k.k.k.k.k.p.a.p.p.p.p.y.! { 5.6.i.i.7.r.{ } i.5.( x 7 4 # o X & (.(.(.",
"(.(.X X + 1 7 x 4.7.7.7.7.7.7.7.7.7.i.7.7._ M ] 7.i.y.a.p.a.p.p.p.p.u.a.p.p.p.y.y.5.( ] 4.7.7.i.r.6.W R l 7 7 < + X X & (.(.(.(.",
"(.(.X X o + 1 5 v 3.7.7.r.r.7.7.r.r.7.7.7.7.} 7.y.i.i.a.a.k.l.k.l.a.a.a.a.r.i.y.r.r.r.r.i.i.7.4.4.} x 7 5 , & O O O & (.(.(.(.(.",
"(.(.(.o + X + = * h S _ } } 5.6.e.y.y.u.p.p.p.a.a.u.u.t.=.&.{ { } =.;.e.y.u.t.y.e.6.*.{ _ Q M b v h 5 1 < = X X X & (.(.(.(.(.(.",
"(.(.(.(.+ + X X = 5 7 7 g g g l l x b Y E C n n C b x g g g 7 g f f g g h h l h l k g g 7 7 7 7 7 5 % % % 4 o + & (.(.(.(.(.(.(.",
"(.(.(.(.(.+ X X o + - , , , < 1 1 1 5 5 5 * & * 5 5 1 1 , = - & & - < < < 4 1 4 1 4 1 5 5 5 7 7 5 5 * . X & o + (.(.(.(.(.(.(.(.",
"(.(.(.(.(.(.(.(.(.(.(.(.(.(.(.(.(.(.(.(.(.(.(.(.(.(.(.(.(.(.(.(.(.(.(.(.(.(.(.(.(.(.(.(.(.(.(.(.(.(.(.(.(.(.(.(.(.(.(.(.(.(.(.(.",
"(.(.(.(.(.(.(.(.(.(.(.(.(.(.(.o X + O X O o O X O X X X O O X O + O o + + + + o % (.(.(.(.(.(.(.(.(.(.(.(.(.(.(.(.(.(.(.(.(.(.(."
};
