/* XPM */
static  xpm_row_t const block10[] = {
/* columns rows colors chars-per-pixel */
"64 64 178 2 ",
"   c #031129",
".  c #5B431D",
"X  c #5B4626",
"o  c #5D4A26",
"O  c #5C4629",
"+  c #5D4A29",
"@  c #5A5427",
"#  c #5E5429",
"$  c #5A4630",
"%  c #604526",
"&  c #634B25",
"*  c #634E2A",
"=  c #695027",
"-  c #65512C",
";  c #69532E",
":  c #73592E",
">  c #664633",
",  c #654A32",
"<  c #6C5631",
"1  c #6E5932",
"2  c #735C34",
"3  c #785E32",
"4  c #7A6629",
"5  c #776036",
"6  c #7A6236",
"7  c #746039",
"8  c #7D6539",
"9  c #7E693F",
"0  c #5C4840",
"q  c #7D6740",
"w  c #7E6941",
"e  c #7F6B57",
"r  c #7F6C5E",
"t  c #6E6964",
"y  c #736A64",
"u  c #7A6D62",
"i  c #746D69",
"p  c #7B7067",
"a  c #77706C",
"s  c #7A736E",
"d  c #7C7572",
"f  c #806E2E",
"g  c #85673A",
"h  c #836A3D",
"j  c #8A6D3E",
"k  c #846C41",
"l  c #896F41",
"z  c #867143",
"x  c #8C7344",
"c  c #8C7649",
"v  c #8E784E",
"b  c #927645",
"n  c #957946",
"m  c #927649",
"M  c #957B4B",
"N  c #9A7E4D",
"B  c #8D745F",
"V  c #947150",
"C  c #967D51",
"Z  c #9A7F51",
"A  c #9C795A",
"S  c #997353",
"D  c #A27954",
"F  c #847364",
"G  c #897662",
"H  c #84756A",
"J  c #8A7C6D",
"K  c #967F65",
"L  c #987E62",
"P  c #837975",
"I  c #8C7D70",
"U  c #877B7B",
"Y  c #897E7A",
"T  c #9D814E",
"R  c #9D8253",
"E  c #A0824F",
"W  c #A38553",
"Q  c #A98552",
"!  c #A58955",
"~  c #AC8A56",
"^  c #A3875A",
"/  c #AA845E",
"(  c #A5895A",
")  c #AD8D5A",
"_  c #B38154",
"`  c #B18C56",
"'  c #BB8A57",
"]  c #B38D5B",
"[  c #B88F5B",
"{  c #AF905E",
"}  c #B4915D",
"|  c #BB935D",
" . c #9C8162",
".. c #9C836C",
"X. c #8E8175",
"o. c #8B807F",
"O. c #9E8A7A",
"+. c #9C8A75",
"@. c #A88060",
"#. c #A28967",
"$. c #AD8D63",
"%. c #A88B6C",
"&. c #B28C62",
"*. c #AF9163",
"=. c #B59463",
"-. c #BA9662",
";. c #BC9A64",
":. c #BD9B6A",
">. c #B3926E",
",. c #AA8C70",
"<. c #A18B73",
"1. c #AD977C",
"2. c #BC9876",
"3. c #B9997A",
"4. c #B49778",
"5. c #C08F5B",
"6. c #C1965E",
"7. c #C19761",
"8. c #C39A63",
"9. c #CD9E65",
"0. c #C39D6B",
"q. c #CA9E69",
"w. c #C99F72",
"e. c #C19D79",
"r. c #C49E73",
"t. c #C6A167",
"y. c #CEA066",
"u. c #C5A16B",
"i. c #CDA36A",
"p. c #CEA96E",
"a. c #D1A267",
"s. c #D1A56C",
"d. c #D2A96D",
"f. c #C5A271",
"g. c #CCA573",
"h. c #CEA975",
"j. c #C5A47D",
"k. c #CBA77A",
"l. c #CEAA7A",
"z. c #D1A671",
"x. c #D3AA74",
"c. c #D5AE7B",
"v. c #D6B17E",
"b. c #D8B17F",
"n. c #8E8380",
"m. c #928684",
"M. c #978883",
"N. c #97898B",
"B. c #9B8C8D",
"V. c #9E8F90",
"C. c #A48F81",
"Z. c #A4918D",
"A. c #B49A89",
"S. c #B39A86",
"D. c #A49495",
"F. c #A99599",
"G. c #AC9A9C",
"H. c #B39D93",
"J. c #BCA28B",
"K. c #BBA293",
"L. c #BAA59C",
"P. c #B19FA0",
"I. c #B5A5A6",
"U. c #B9A6A2",
"Y. c #B6A5A8",
"T. c #C6A586",
"R. c #C9A783",
"E. c #CCAB82",
"W. c #C3A589",
"Q. c #C6A888",
"!. c #D2AF81",
"~. c #D6B281",
"^. c #D9B484",
"/. c #D3B38C",
"(. c #DAB688",
"). c #C1A692",
"_. c #C1A890",
"`. c #4ee44e",
/* pixels */
"`.`.`.`.`.`.`.`.`.`.`.`.`.`.`.`.`.`.`.`.`.`.`.`.`.`.`.`.`.`.`.`.`.`.`.`.`.`.`.`.`.`.`.`.`.`.`.`.`.`.`.`.`.`.`.`.`.`.`.`.`.`.`.`.",
"`.`.`.`.`.`.`.`.`.`.+ X X & # * - + , , # * - = + + + * + * * - * * * + + X + X X O O X X > > X * * % & & + $ + `.`.`.`.`.`.`.`.",
"`.`.`.`.`.`.`.`.+ - + - ; 2 2 6 6 6 6 6 2 & X & 2 2 5 6 5 8 g 8 8 6 6 5 2 2 2 < 1 < o X X X X O + * + + o X X X + `.`.`.`.`.`.`.",
"`.`.`.`.`.`.`.+ - - ; 6 g j c Z N W W T N j g j W W ~ ) ~ ) } =.{ ) ~ R x g 8 2 ; - X X + ; ; < 2 2 5 * - 1 - o X X `.`.`.`.`.`.",
"`.`.`.`.`.`.X O & & : n ) 8.i.i.i.s.s.s.p.s.s.s.p.d.d.d.d.d.z.d.d.x.x.x.:.x 1 - - ; 2 5 6 8 8 h z x x 6 6 h 8 2 ; X X O `.`.`.`.",
"`.`.`.`.`.+ + 1 6 h ) i.a.y.y.y.9.a.9.9.9.9.a.9.y.y.9.a.s.a.i.i.s.y.a.i.x.| 5 = 6 h j x M ! ] N | p.i.i.i.| W z 8 < + - * `.`.`.",
"`.`.`.`.X + 2 h h x ~ | 9.9.y.9.9.9.6.| -.8.a.q.i.i.s.s.s.p.s.s.d.s.a.z.d.x.;.~ } :.t.p.p.d.i.M 8.y.y.y.y.a.d.t.R h 1 * = % `.`.",
"`.`.`.X * 2 8 n ! 8 9 x W 6.9.y.w.s.8.E E 8.i.s.s.s.s.d.d.z.z.z.x.s.z.x.d.d.d.x.x.d.p.s.y.a.7.m 6.y.y.y.y.t.y.a.i.) g = X X @ `.",
"`.`.* + : g b 8.8.T | 6.` E =.H.U.U.K.4.:.i.s.s.s.d.x.x.d.p.x.h.x.x.x.x.x.x.s.z.z.s.s.a.i.a.-.x 8.9.9.a.a.9.9.9.9.s.! g 2 + + `.",
"`.+ O : 8 b 6.9.| } y.9.y.` I I.Y.Y.I.I.A.=.q.g.x.h.x.x.c.c.x.p.x.x.x.x.x.x.x.x.x.z.z.z.s.i.[ x ] 6.6.6.9.9.9.a.9.y.t.x 6 ; + `.",
"`.@ - 6 g ] a.9.9.9.9.9.9.] M.I.I.Y.Y.I.I.C.=.p.x.x.h.h.c.c.c.c.c.x.c.x.x.c.x.x.c.x.x.z.z.z.q.! x W ~ E E ` a.9.9.9.y.W g 1 , `.",
"`.O 2 2 2 Q 9.9.9.9.9.y.9./ m.I.Y.I.I.Y.G.Z.k.x.x.c.p.t.x.c.c.c.v.c.c.c.c.c.c.c.x.x.x.x.z.z.z.8.x -.a.8.~ n E 6.9.9.6.` 9 2 * `.",
"`.O ; & & 6 8.9.9.9.9.9.9./ P F.G.F.V.N.n.O.h.c.c.c.g.-.l.v.v.v.c.v.c.c.c.c.c.c.c.c.c.x.x.x.z.z.Q -.a.y.9.6.T ] y.9.` } h 3 * `.",
"`.X O * 2 8 ~ 9.9.9.9.9.9.&.u s U U d F #.g.c.c.c.b.v.c.v.v.v.v.v.b.v.v.c.!.c.c.c.g.g.c.c.c.x.z.-.W i.a.y.9.6.Q 6.6.E } 9 2 - `.",
"`.X X + 2 g b q.9.9.9.s.s.q.D G r e  .r.c.c.c.v.c.v.v.v.~.v.v.v.b.b.v.v.~.v.v.v.c.r.) ( :.c.x.x.p.R } z.i.a.| T 6.E Q ` h 5 # `.",
"`.> O O * 8 h 0.a.9.9.a.z.z.z.z.0.=.g.c.c.c.c.v.v.v.~.~.~.~.~.~.v.~.v.~.~.!.~.v.c.c.l.^ c :.c.x.x.:.Z ] 9.9.T ` 6.x Q n 8 7 0 `.",
"`.@ O X + 5 h -.a.9.i.s.z.x.x.x.c.c.c.c.c.v.v.v.v.v.^.v.~.~.^.v.^.b.^.b.^.v.^.b.c.8.0.l.*.R l.l.x.z.8.Z M l m 9.[ k h 8 g 2 + `.",
"`.- % X O 2 h -.s.9.s.s.z.x.x.c.x.c.c.c.b.~.b.~.b.b.^.~.v.^.^.b.~.~.^.v.b.^.~.b.!.=.=.c.l.R =.l.c.c.x.z.;.M R i.) 6 2 6 8 2 + `.",
"`.X - * o 5 h 8.i.a.s.z.x.x.x.x.c.b.b.v.b.~.~.~.^.v.b.(.^.^.^.(.^.^.^.^.^.~.^.b.^.c.!.~.~.:.R l.c.c.k.T.R.0.) i.~ 2 & < ; * O `.",
"`.& < 6 < 6 M p.a.s.z.x.x.h.c.c.c.c.c.~.~.~.~.~.v.^.(.b.^.^.(.^.^.(.^.^.^.(.^.~.^.~.~.~.~.f.T h.c.z.,.D.I.J.^ 8.] h 3 * X X X `.",
"`.* ; 8 6 h ;.d.a.x.z.d.x.x.c.c.c.v.b.b.~.b.~.^.^.^.(.^.^.^.^.^.^.(.(.^.^.^.^.^.~.^.~.~.v.l.R f.b.x.K P D.G...8.T h 6 ; + O X `.",
"`.X 1 h x -.d.i.s.z.x.x.c.c.c.c.v.b.~.b.~.~.^.^.^.(.^.(.^./.~.f.t.l.^.^.^.(.(.(.^.^.^.~.^.v.R f.v.c.0.L H I $.W W N 8 9 2 * o `.",
"`.+ ; 9 ] d.y.i.s.z.z.c.x.c.!.b.v.~.~.^.                ^.^.^.;.=.l.^.(.                v.v.R :.v.c.c.g./ c M ~ 9.8.W l 8 2 O `.",
"`.o ; h ;.d.i.s.s.z.h.z.i.c.c.v.v.~.~.~.                (.(.(.~.^.(.(.^.                ^.v.#.=.b.v.v.h.c c :.z.s.p.i.| l 8 * `.",
"`.X ; h ;.s.i.s.x.x.x.0.` :.c.b.~.~.~.~.                ^.^.(.(.^.^.                        *.^ v.c.b.0.c :.x.z.s.s.i.i.W 8 * `.",
"`.O ; h } d.i.s.z.x.x.g.:.h.v.v.v.~.~.^.                (.(.(.^.(.^.                        f.v f.b.~.:.( x.x.x.z.s.i.a.! 8 < `.",
"`.O ; h ;.d.s.s.d.x.x.c.c.c.v.~.~.^.~.^.                (.(.(.(.(.(.        (.^.^.^.        ~.^ C =.r.R =.x.c.x.z.s.s.s.` 8 ; `.",
"`.O * 2 } d.s.z.x.x.c.c.c.b.v.b.~.~.^.^.                (.(.(./.(.(.        ^.(.(.^.        ^.l.C q q q :.c.x.z.z.z.i.s.) 8 < `.",
"`.O * & b d.z.z.x.x.c.c.c.c.b.b.~.^.^.^.^.^.^.(.        (.v.~.(.(.(.        (.(.^.(.        ^.^.k.C < q f.c.x.x.z.z.s.d.~ 8 ; `.",
"`.O ; 8 } x.s.z.x.x.c.c.c.!.b.~.~.^.^.^.^.(.(.(.        ~.-.f.(.(.(.        (.(.(.^.        ^.~.^.g.z q g.c.c.x.z.s.p.s.^ 8 ; `.",
"`.O , k ;.d.d.z.R.).W.E.c.~.b.~.^.~.^.^.^.^.(.(.        ^.l.!.(.(.(.        (.(.^.(.        ^.~.~.~.>.z g.c.c.x.x.z.s.d.T 6 + `.",
"`.& ; h ;.x.u.S.U.I.I.L.E.~.~.~.^.~.^.^.(.(.~.(.        (.(.(.(.(.(.        ^.(.(.^.        ^.^.~.^.l.R g.c.x.x.g.z.s.d.b ; + `.",
"`.+ < h 0.p.+.D.I.Y.Y.P.Q.c.~.~.v.(.(.b.^.^.^.^.        (.(.(.(.(.(.        (.(.(.(.        b.(.b.^.v.{ :.c.c.x.x.x.s.p.h . X `.",
"`.& < x p.&.Y D.I.Y.Y.P.A.b.b.~.^.b.^.^.(.^.(.(.        (.(.(.(././.        (.(.^.(.        (.b.v.v.v.;.=.v.x.x.i.p.s.s.M 2 * `.",
"`.@ 2 M p.L P m.B.D.D.N.3.b.b.~.b.^.b.(.                        L.U.                        b.^.~.~.b.:.! x.x.x.] 8.s.x.R 6 * `.",
"`., 2 W s./ u i i a d H e.b.~.~.b.b.(.^.                        I.Y.                        ^.b.~.~.v.=.R x.x.x.q.i.s.x.{ 8 ; `.",
"`.+ 2 ! x.8./ G F u G 4.c.~.c.~.~.v.^.^.                        D.I.D.S.                (.~.~.v.~.v.v.:.R p.x.x.x.d.i.d.-.h ; `.",
"`.* 6 N x.a.9.q.7.0.z.c.c.b.~.~.v.(.v.^.                        P n.P 1.                ~./.~.^.~.v.v.p.R { h.x.g.s.y.d.;.h 1 `.",
"`.+ 2 x u.s.i.z.z.x.x.c.c.c.c.b.v.^.v.^.^.^.^.^.(.(.(.(.(.^.j.H i t X.l.(.(.(.(.^.(.^.(.(.v.^.!.~.v.v.v.f.R *.p.s.s.i.d.t.h ; `.",
"`.O * h ^ s.a.z.z.z.x.x.c.c.~.c.~.v.^.^.^.(.^.^.^.^.(.(.^.^.^.:...+.l.(.^.^.(.(.(.^.(.(.v.(.^.v.v.v.v.c.l.u.! :.s.s.y.a.:.h ; `.",
"`.O * 1 h { s.s.s.x.x.x.c.c.b.b.v.~.^.^.v.(.^.^.(.^.(.^.(.(.(.(.~./.^.(.^.(.^./.^.^.^.^.^.v.^.v.c.b.c.c.c.z.0.i.z.a.a.z.] 2 X `.",
"`.X & ; 2 c 9.s.s.z.x.c.c.x.c.b.v.^.v.^.^.v.^.(.^.^.^.(.(.^.^.^./.~.(.^.^.^.~.u.l.^.^.^.^.v.v.v.b.c.c.c.x.x.x.z.p.i.a.s.~ & & `.",
"`.X . . 2 7 ` i.s.z.z.x.x.x.c.c.v.v.^.v.b.^.^.^.^.b.(.^.(.(.^.(.^.^.^.(.^.(.~.=.h.^.^.~.v.^.v.v.c.c.c.c.x.c.x.s.s.9.9.d.} 6 * `.",
"`.X * 6 9 1 x 8.s.s.z.x.c.c.c.c.l.v.v.^.v.^.^.v.^.^.^.(.^.(.^.^.^.(.(.b./.^.^.v.^.~.^.^.^.v.v.v.c.c.c.x.x.z.z.s.9.i.9.d.) 8 * `.",
"`.X < 9 k c k T [ i.i.:.=.x.c.c.x.v.v.v.v.^.^.v.^.^.^.^.(.^.~.(.^.(.^.^.^.^.^.^.^.~.v.v.v.v.v.h.u.c.c.x.x.z.s.a.a.9.9.d.) 5 * `.",
"`.X 2 z { i.6.~ W ] Z q l R =.u.c.v.v.v.v.^.v.^.^.~.^.^.b.(.^.^.^.^.^.^.^.^.^.^.~.~.~.v.v.v.v.:.u.c.x.x.z.z.p.i.i.y.9.x.) 8 ; `.",
"`.4 2 z -.a.y.9.8.| } ] -.0.) ! { u.c.v.v.v.v.v.~.~.~.~.~.^.~.^.^.^.v.^.~.v.^.v.~.~.v.v.v.c.h.! w.x.x.x.z.s.a.9.9.9.9.d.~ 8 * `.",
"`., 2 l -.y.9.y.9.9.i.s.z.x.0.;.:.=.*.u.v.v.v.v.b.b.~.b.^.~.~.~.v.^.v.^.v.^.^.v.~.~.v.v.~.v.t.R g.x.E.T.W.T.g.9.9.9.9.d.) 9 - `.",
"`., 2 k | a.9.9.9.9.y.y.s.s.x.x.x.c.u.0.x.v.c.v.v.v.~.~.v.~.~.~.~.~.~.!.~.~.v.b.v.~.c.x.q.>.c ] g.S.U.I.Y.I.J.q.9.9.9.d.] 6 f `.",
"`.* 1 9 W 8.y.9.9.9.9.y.s.s.p.z.x.x.c.c.c.c.c.c.v.v.v.v.b.b.v.b.~.~.b.~.v.v.c.b.c.c.c.=.m 2 w 0.,.m.G.I.Y.Y.H.q.9.9.9.d.) 6 - `.",
"`.O < 9 z n ` 6.y.| 6.y.a.s.s.g.J._.Q.c.x.c.c.c.x.x.v.c.!.b.!.~.b.c.v.v.v.c.b.c.c.v.-.^ W l N p.#.d M.G.F.V.O.q.9.9.9.d.Q 6 ; `.",
"`.* ; 8 N | Q W W ` y.y.9.9.q.<.F.I.I.L.E.x.c.g.-.;.h.v.c.c.b.c.v.c.c.v.c.c.c.c.c.=.^ q.x.=.) z.&.p i d d s #.9.9.9.9.s.T 8 * `.",
"`.+ - 6 M 9.9.6.5.9.9.9.9.9.] H n.P.Y.I.L.E.x.0.T ! z.c.c.c.c.c.c.c.c.c.c.c.x.c.:.C 0.x.x.9.) i.8.D u y y L 8.9.9.y.d.0.z 2 & `.",
"`.O ; 6 x 8.a.9.a.9.9.9.a.q.D F d m.P.I.Y.K.x.z.u.q.x.x.c.c.x.c.x.c.g.x.c.c.x.x.) R x.x.g.s.` R A -.' / &.8.9.9.s.p.} x 8 ; X `.",
"`.+ * 8 g | a.9.9.a.9.a.9.a.5.S u s m.F.G.A.z.z.x.x.c.x.x.x.z.c.x.g.] 0.x.x.x.x.=.R s.z.s.s.9.Q h Q 9.9.9.9.a.s.;.M h 6 1 X O `.",
"`.+ + 5 8 n 6.9.9.9.9.9.9.a.a.D S F y s P >.i.s.z.x.z.z.x.x.z.x.x.x.t.i.z.z.z.s.0.N q.s.a.a.a.9.6.E 6.a.9.a.9.~ h 6 2 * + X `.`.",
"`.X X - 6 8 b | 9.a.9.9.9.9.9.6.6.D D S [ | | 7.i.s.d.d.s.x.z.z.z.z.x.s.z.s.s.p.i.! | 8.9.9.9.9.a.} | y.8.~ c 9 3 - X X * `.`.`.",
"`.`.X O & 2 8 b 5.9.y.9.9.9.9.a.9.9.9.9.9.` N ] i.i.s.s.s.s.s.s.s.s.d.s.s.s.a.i.y.8.~ ] 8.9.9.9.y.6.W W z 8 6 1 + X X * `.`.`.`.",
"`.`.O X X + 2 6 j 5.a.y.y.a.a.a.y.t.9.9.9.8.6.9.9.a.a.d.d.x.x.x.x.d.s.i.p.y.a.i.9.a.y.y.a.a.9.8.6.| x 8 6 ; * O o O - `.`.`.`.`.",
"`.`.`.X O X + * : j D _ } | | 8.t.i.i.p.s.s.s.d.x.d.p.t.:.} } } -.;.8.u.u.i.i.i.t.;.;.} ~ W N n b j 8 2 < ; X X O & `.`.`.`.`.`.",
"`.`.`.`.O O + X * 6 8 8 h h h j x x M T W R m m T M x h h h 8 8 8 g h h x j z z x h h h 9 8 8 8 g 6 & = & 5 X O - `.`.`.`.`.`.`.",
"`.`.`.`.`.+ X O + * ; < 1 1 1 2 2 2 5 6 3 * * = 5 6 2 2 < ; * ; - ; 2 1 : 5 2 5 2 2 6 5 6 6 8 8 6 5 & . X * X # `.`.`.`.`.`.`.`.",
"`.`.`.`.`.`.`.`.`.`.`.`.`.`.`.`.`.`.`.`.`.`.`.`.`.`.`.`.`.`.`.`.`.`.`.`.`.`.`.`.`.`.`.`.`.`.`.`.`.`.`.`.`.`.`.`.`.`.`.`.`.`.`.`.",
"`.`.`.`.`.`.`.`.`.`.`.`.`.`.`.@ + X O X O + O X O X X X O O X O + O + + + X * X & `.`.`.`.`.`.`.`.`.`.`.`.`.`.`.`.`.`.`.`.`.`.`."
};
