/* XPM */
static  xpm_row_t const block6[] = {
/* columns rows colors chars-per-pixel */
"64 64 175 2 ",
"   c #031129",
".  c #5B431D",
"X  c #5B4626",
"o  c #5C4926",
"O  c #5C4629",
"+  c #5D4929",
"@  c #5A5427",
"#  c #5E5429",
"$  c #604526",
"%  c #634B25",
"&  c #634E2A",
"*  c #695027",
"=  c #66512C",
"-  c #69532E",
";  c #73592E",
":  c #664633",
">  c #654A33",
",  c #6C5631",
"<  c #6D5932",
"1  c #735C34",
"2  c #785E32",
"3  c #756129",
"4  c #7E692E",
"5  c #776036",
"6  c #7A6236",
"7  c #746039",
"8  c #7D6539",
"9  c #7F693D",
"0  c #5C4840",
"q  c #7D6740",
"w  c #7E6941",
"e  c #7F6B57",
"r  c #7F6C5E",
"t  c #6E6965",
"y  c #736A64",
"u  c #7A6D62",
"i  c #746D69",
"p  c #7B7067",
"a  c #77716C",
"s  c #7A736E",
"d  c #7C7572",
"f  c #85673A",
"g  c #836A3D",
"h  c #8A6D3F",
"j  c #846C41",
"k  c #896F40",
"l  c #867043",
"z  c #8C7344",
"x  c #8C7649",
"c  c #8E784C",
"v  c #927545",
"b  c #957847",
"n  c #927649",
"m  c #957B4B",
"M  c #9A7E4D",
"N  c #8C745F",
"B  c #947151",
"V  c #967D51",
"C  c #9A7F51",
"Z  c #9C7A5A",
"A  c #997353",
"S  c #A27954",
"D  c #847364",
"F  c #897662",
"G  c #84756A",
"H  c #887C6D",
"J  c #967F65",
"K  c #987E62",
"L  c #837874",
"P  c #8C7D70",
"I  c #877B7B",
"U  c #897D7A",
"Y  c #9D814E",
"T  c #9D8253",
"R  c #A0814F",
"E  c #A38552",
"W  c #A98552",
"Q  c #A58956",
"!  c #AC8A56",
"~  c #A3865A",
"^  c #A9845E",
"/  c #A6895A",
"(  c #AC8D5A",
")  c #B28154",
"_  c #B28B56",
"`  c #BB8B57",
"'  c #B38D5B",
"]  c #B88E5B",
"[  c #AF905E",
"{  c #B4915D",
"}  c #BB935D",
"|  c #9C8162",
" . c #9C836D",
".. c #8E8175",
"X. c #9E8A7A",
"o. c #9C8A75",
"O. c #A88060",
"+. c #A28967",
"@. c #AD8D63",
"#. c #A88B6C",
"$. c #B28C62",
"%. c #AF9163",
"&. c #B59463",
"*. c #BA9662",
"=. c #BC9964",
"-. c #B2926E",
";. c #BD9B6A",
":. c #A88C70",
">. c #A18B73",
",. c #BC9876",
"<. c #B3987C",
"1. c #B9997A",
"2. c #B49573",
"3. c #C08F5B",
"4. c #C1965E",
"5. c #C19762",
"6. c #C39B63",
"7. c #CD9E65",
"8. c #C39D6B",
"9. c #CA9E69",
"0. c #C49E72",
"q. c #C99F72",
"w. c #C19F79",
"e. c #C6A067",
"r. c #CEA066",
"t. c #C5A16B",
"y. c #CDA36A",
"u. c #CDA86E",
"i. c #D0A167",
"p. c #D1A56C",
"a. c #D2A96D",
"s. c #C5A271",
"d. c #CCA573",
"f. c #CEA975",
"g. c #C5A47D",
"h. c #CBA77A",
"j. c #CEAA7A",
"k. c #D1A671",
"l. c #D3AA74",
"z. c #D5AE7B",
"x. c #D6B17E",
"c. c #D8B17F",
"v. c #8E8180",
"b. c #928684",
"n. c #978883",
"m. c #97898A",
"M. c #9B8C8D",
"N. c #9E8F90",
"B. c #A48F81",
"V. c #A4918D",
"C. c #B39A86",
"Z. c #B59A89",
"A. c #A49495",
"S. c #A99599",
"D. c #AC9A9C",
"F. c #B39D93",
"G. c #BCA28B",
"H. c #BBA293",
"J. c #BAA59B",
"K. c #B19FA0",
"L. c #B5A5A6",
"P. c #B9A4A2",
"I. c #B6A5A8",
"U. c #C6A585",
"Y. c #C9A783",
"T. c #CCAB82",
"R. c #C3A689",
"E. c #C6A888",
"W. c #D7B281",
"Q. c #D9B485",
"!. c #D4B48C",
"~. c #DAB688",
"^. c #C2A691",
"/. c #C3A890",
"(. c #4ee44e",
/* pixels */
"(.(.(.(.(.(.(.(.(.(.(.(.(.(.(.(.(.(.(.(.(.(.(.(.(.(.(.(.(.(.(.(.(.(.(.(.(.(.(.(.(.(.(.(.(.(.(.(.(.(.(.(.(.(.(.(.(.(.(.(.(.(.(.(.",
"(.(.(.(.(.(.(.(.(.(.o O X & # & = + > > # & = % + + + & + % = & & & & + + X o X X X O X X : : X & & $ $ o + O O (.(.(.(.(.(.(.(.",
"(.(.(.(.(.(.(.(.& > + = - 1 2 2 6 5 6 6 2 % X % 1 2 2 6 6 8 f 6 9 6 6 5 1 1 1 , , , + X X X X X o o & + X X X o + (.(.(.(.(.(.(.",
"(.(.(.(.(.(.(.o # & - 6 f h x C Y E R Y m k f v E E / ( / ( &.' ( ( ( Y l f 6 2 , & o o + = , < 1 1 5 = = , = o O o (.(.(.(.(.(.",
"(.(.(.(.(.(.X + o % ; n [ 6.y.u.i.p.p.p.y.y.a.a.f.a.a.a.a.l.l.l.l.a.l.k.8.z ; = = - 1 5 6 6 8 g l v v 3 8 g 8 5 & X X O (.(.(.(.",
"(.(.(.(.(.O + < 6 h ! y.r.r.r.7.r.r.7.7.9.7.7.r.r.r.y.7.i.i.p.r.i.i.p.y.l.&.5 % 6 g h z m Q { m *.u.a.i.y.*.E h 8 , & @ + (.(.(.",
"(.(.(.(.X + 1 g g z ! } 7.r.7.7.7.7.4.} } 7.r.r.y.y.p.i.a.a.y.p.a.p.a.y.a.l.6.! { =.e.u.u.a.y.m 4.y.y.i.r.y.p.e.T g ; & = $ (.(.",
"(.(.(.X & 1 8 b ! 8 9 v W } 7.r.q.q.6.R E 6.y.a.i.a.a.p.a.k.k.k.a.l.l.a.k.a.l.l.l.a.u.p.p.i.5.v 4.i.r.4.9.7.r.i.y.( f * $ X @ (.",
"(.(.$ + 1 f v 4.=.Y } 4.` R &.F.L.J.F.1.8.y.y.k.k.k.k.l.a.l.f.l.l.l.l.l.l.k.k.f.a.a.y.p.7.y.*.x 4.i.i.i.7.r.7.7.7.a.W 6 1 o + (.",
"(.+ + 1 8 v 4.7.{ } 7.7.r._ ..L.L.I.I.L.Z.&.9.k.l.f.l.l.l.l.l.l.l.l.l.l.f.l.l.l.k.k.k.k.a.y.' v } 4.4.4.4.7.r.7.7.7.9.z 9 = + (.",
"(.@ & 8 f ] 7.r.4.i.r.7.7.' n.L.L.I.I.L.K.B.&.y.l.l.l.l.x.l.z.z.l.z.z.l.z.l.l.l.l.k.k.k.k.a.9.E z Y ! R R } 7.r.7.7.r.W 8 ; > (.",
"(.O 1 1 ; W r.r.i.i.7.7.7.@...L.I.L.L.L.D.A.h.l.l.x.d.6.l.x.f.x.x.z.z.z.z.z.z.l.l.z.l.l.l.k.l.6.c } i.6.! v R 7.r.7.*.' f 1 & (.",
"(.O = & % 6 6.r.7.7.7.7.9.^ L S.D.S.N.m.v.o.j.z.z.x.u.&.j.x.x.z.x.z.z.z.z.z.z.x.z.z.z.l.l.l.k.d.W *.a.r.7.4.M _ 7.7.! ] j 1 & (.",
"(.X X & 1 8 ! r.7.7.7.9.r.$.u s I I d D #.h.z.z.z.z.x.z.x.x.x.x.x.c.x.x.z.z.z.z.z.h.d.z.z.l.l.l.{ E y.y.r.r.4.W 4.} W { j 2 # (.",
"(.O X & 2 8 v 9.7.7.7.p.p.9.S F r e K 0.l.z.z.z.z.W.x.W.x.x.x.x.c.c.x.c.W.W.z.x.z.0.( / 8.l.l.l.y.T { p.y.r.} M 4.R W ] j 7 # (.",
"(.: X X & 6 h 6.i.7.r.r.p.k.k.d.8.*.d.z.z.W.z.x.x.z.W.W.Q.x.W.W.c.W.W.W.W.W.W.W.z.z.j.~ c ;.z.l.l.=.M { r.7.Y ] 4.z W b 8 1 0 (.",
"(.@ X X + 5 g } r.r.r.p.k.k.l.l.z.z.z.z.z.z.x.c.x.x.Q.x.W.Q.c.W.W.c.Q.c.c.c.x.c.z.=.t.j.%.T f.x.z.l.6.T m l c 6.} j g 8 f 1 $ (.",
"(.& X X O 1 g &.p.r.p.k.k.l.l.z.z.z.z.c.c.W.W.W.Q.x.Q.W.c.W.Q.Q.W.W.Q.W.Q.Q.Q.Q.W.%.&.x.j.T %.j.z.l.l.d.*.m E 7._ 7 1 6 8 1 + (.",
"(.$ = & o 5 h 6.i.p.a.k.l.l.z.l.z.z.z.z.c.W.W.W.Q.x.x.Q.Q.Q.Q.Q.Q.Q.Q.Q.Q.c.Q.c.W.z.x.x.W.&.T h.z.z.j.R.Y.9.! 9.! 2 % < = & o (.",
"(.$ < 8 , 6 m u.r.p.k.l.k.l.z.z.z.z.W.c.W.W.W.W.Q.x.Q.Q.Q.Q.Q.Q.Q.~.Q.Q.Q.Q.c.Q.W.W.W.W.W.f.Y f.z.l.#.A.L.H./ 6.' g 5 + o + X (.",
"(.+ < 8 6 h *.a.p.a.k.d.l.z.z.z.x.x.c.c.W.W.Q.Q.Q.Q.Q.Q.Q.Q.Q.Q.Q.Q.Q.~.~.Q.Q.Q.~.W.W.Q.W.j.T s.c.l.K L A.K.+.6.Y j 6 , + X X (.",
"(.X < 8 l *.u.y.y.k.k.l.l.z.z.z.x.c.c.W.W.W.Q.Q.Q.Q.Q.Q.Q.Q.Q.u.;.x.Q.Q.Q.Q.~.Q.Q.Q.W.W.W.x.T w.x.z.8.K G P @.E T b f 8 1 & X (.",
"(.+ , 9 { a.y.p.a.k.l.l.z.z.z.z.x.W.Q.c.Q.Q.Q.Q.~.~.Q.Q.~.                    Q.Q.Q.Q.W.Q.x.T ;.x.z.z.d.^ x m / 9.9.E k 8 2 + (.",
"(.o - g =.i.y.a.a.k.l.d.d.l.x.x.x.x.c.c.c.Q.Q.Q.Q.Q.~.Q.Q.                    Q.~.Q.~.Q.Q.Q./ -.W.c.x.d.x x ;.k.p.y.y.*.k 6 & (.",
"(.o = g *.p.y.p.k.k.l.8.' ;.z.x.W.W.W.Q.Q.Q.Q.~.Q.Q.~.                        ~.W.~.Q.Q.Q.x.%.T z.c.z.s.x 8.l.k.p.p.i.y.T 8 = (.",
"(.O , f &.a.y.a.k.l.l.d.;.k.x.x.x.W.W.Q.Q.Q.Q.Q.Q.Q.~.                        ~.~.Q.Q.Q.Q.Q.s.c s.W.W.;./ l.l.l.a.p.7.i./ 9 - (.",
"(.O = f *.a.p.a.a.l.l.z.z.z.x.W.W.W.W.Q.Q.Q.~.Q.~.Q.~.        ~.~.~.~.~.~.~.~.Q.~.Q.Q.Q.Q.Q.c.Q V &.0.T &.l.l.k.k.p.p.a.( 8 - (.",
"(.O > 1 ' a.p.k.l.l.z.z.z.c.x.c.W.W.W.Q.~.Q.Q.~.~.~.Q.        ~.~.~.~.~.~.Q.~.Q.~.Q.~.~.~.Q.Q.j.V q q q ;.z.z.l.k.k.y.p.{ 9 - (.",
"(.+ = % v a.k.k.k.l.z.z.z.z.c.W.W.Q.Q.Q.Q.Q.~.Q.Q.~.Q.                    ~.~.~.~.Q.Q.Q.Q.Q.W.Q.h.m , q t.z.l.l.k.k.p.a.! 8 - (.",
"(.O - 6 { k.a.k.l.l.z.x.z.W.W.W.Q.Q.Q.Q.Q.~.Q.~.Q.Q.~.                    ~.~.~.~.Q.Q.Q.Q.Q.Q.W.Q.h.l w h.l.z.k.k.k.i.a.E 8 = (.",
"(.O - g =.l.a.k.Y.R./.T.z.c.c.W.W.Q.Q.Q.Q.~.Q.Q.~.~.~.                        Q.~.~.Q.Q.Q.Q.Q.Q.W.W.-.x f.z.z.l.l.k.p.a.Y 6 # (.",
"(.$ - j =.k.t.C.L.L.I.J.T.W.x.W.W.Q.Q.W.Q.Q.Q.~.~.~.~.                        ~.Q.~.~.Q.Q.Q.Q.W.W.W.j.T s.z.z.l.d.k.a.u.v - + (.",
"(.X , g t.d.o.A.I.L.L.L.E.z.W.W.x.Q.Q.Q.Q.~.Q.~.Q.~.~.        ~.Q.~.~.        ~.~.~.Q.Q.Q.Q.Q.Q.x.x.x.[ ;.x.z.l.k.f.p.u.g X X (.",
"(.= , z u.$.U A.L.I.L.D.Z.c.W.W.Q.Q.Q.Q.Q.Q.Q.~.~.Q.~.        ~.~.!.!.        ~.Q.~.~.Q.Q.Q.~.x.x.Q.W.=.{ x.l.l.y.y.p.a.b 1 $ (.",
"(.@ 1 b u.K d b.M.A.A.m.1.c.c.W.x.Q.Q.Q.Q.Q.Q.Q.Q.~.~.                        Q.Q.Q.Q.~.~.Q.Q.W.W.W.W.=./ z.l.l.{ =.a.k.E 6 & (.",
"(.> 1 E a.^ u i i i d G w.c.W.W.x.Q.Q.Q.Q.Q.~.~.Q.~.~.                        ~.~.Q.~.W.~.Q.x.Q.W.W.W.&.T l.l.l.y.y.i.l.( 9 - (.",
"(.+ 2 E k.9.^ N D u F 2.z.z.W.W.Q.x.Q.Q.~.Q.Q.Q.~.~.Q.Q.~.                    ~.~.Q.Q.~.Q.Q.Q.Q.W.x.x.;.T u.l.l.k.a.p.a.&.g < (.",
"(.& 5 T k.i.y.9.8.8.q.z.c.W.z.W.x.Q.x.Q.Q.Q.Q.~.Q.~.~.~.~.                    ~.Q.Q.~.Q.W.Q.x.W.Q.x.x.f.T / f.l.k.p.y.a.=.g < (.",
"(.+ 1 x t.a.i.k.p.l.l.z.z.z.z.c.x.Q.W.Q.Q.~.Q.~.~.Q.~.~.~.~.s.G t t ..j.~.Q.~.Q.Q.Q.Q.Q.Q.Q.W.W.x.x.x.z.f.T [ u.u.a.y.i.t.h = (.",
"(.X = 8 E a.p.i.l.l.l.z.z.z.z.c.W.W.Q.x.Q.Q.Q.Q.Q.~.c.Q.~.~.Q.,.| o.g.~.Q.Q.Q.Q.Q.Q.~.Q.Q.W.Q.x.x.x.x.z.x.;.E ;.k.i.y.i.;.g = (.",
"(.X % 1 g [ u.a.p.k.l.l.W.z.z.c.x.Q.W.W.W.Q.~.Q.Q.~.Q.~.Q.~.Q.~.W.Q.~.Q.Q.Q.~.~.Q.Q.Q.Q.Q.W.W.W.c.W.z.z.z.f.8.y.a.p.r.a.' , & (.",
"(.X $ = 5 x 9.y.p.k.l.l.z.z.z.c.x.W.W.W.Q.W.Q.Q.Q.Q.Q.Q.~.Q.~.Q.Q.~.~.Q.Q.Q.W.;.j.~.Q.Q.W.W.x.x.c.z.z.z.l.l.k.k.y.y.r.a.W * o (.",
"(.X . . 1 7 _ i.a.k.l.l.l.z.z.z.x.x.W.W.Q.c.Q.Q.Q.Q.Q.Q.Q.~.Q.~.Q.~.Q.Q.Q.~.W.&.f.Q.x.Q.W.W.x.x.z.z.z.z.l.l.k.a.p.7.7.l.{ 6 & (.",
"(.X & 6 8 < z 6.9.a.k.l.l.z.z.z.x.x.x.W.c.Q.c.Q.Q.Q.Q.Q.Q.Q.Q.Q.Q.Q.Q.Q.Q.Q.~.x.W.Q.Q.x.W.W.x.x.z.z.z.l.l.l.k.a.7.7.7.l.[ 8 & (.",
"(.X - 9 j c k Y ] y.y.=.=.f.l.x.z.x.x.x.c.Q.Q.x.Q.Q.Q.Q.~.Q.~.Q.Q.!.Q.W.Q.Q.Q.W.Q.W.W.W.W.x.x.f.q.z.z.l.k.k.a.i.y.7.i.l.( 6 & (.",
"(.+ 1 l %.r.5.! E ' T q j T &.s.l.x.x.x.c.x.x.Q.W.W.Q.Q.c.W.Q.~.Q.Q.Q.Q.Q.~.Q.Q.x.Q.x.W.x.x.x.t.9.l.l.l.l.a.a.y.r.7.r.k.( 6 = (.",
"(.3 5 l *.i.7.7.6.} ' ' *.8.( E [ t.f.x.x.x.c.x.W.Q.W.W.W.~.Q.W.Q.Q.x.Q.Q.W.Q.W.W.W.x.x.x.j.j.Q q.l.l.l.a.p.i.7.7.7.7.a.( 6 = (.",
"(.: 1 l } r.7.r.7.r.y.a.k.k.8.=.8.&.%.t.x.x.x.x.x.c.W.Q.c.W.W.Q.W.Q.Q.x.x.x.W.W.x.x.x.x.x.x.;.T d.l.Y.E.R.R.t.r.7.7.7.a.[ 8 = (.",
"(.> < g } i.7.7.7.7.r.y.p.a.k.k.l.l.t.t.z.z.x.x.x.c.x.W.W.W.W.W.W.W.W.x.W.x.c.c.x.x.z.l.8.&.x @.d.Z.L.L.I.L.G.9.7.7.7.a._ 6 4 (.",
"(.= < 9 R 6.r.7.r.7.7.y.i.p.k.k.k.z.x.l.z.z.z.z.z.x.x.x.z.W.z.W.W.W.x.c.W.x.x.c.x.z.x.$.n 1 j 9.#.b.D.L.I.I.F.9.r.7.7.a.^ 8 = (.",
"(.X < 9 l b _ 6.7.} 4.r.y.a.a.d.G./.R.l.l.x.l.x.l.l.x.z.W.W.W.z.x.x.z.x.x.z.c.z.z.z.*.~ ~ k C y.+.d n.D.S.N.X.7.r.7.7.p.W 6 - (.",
"(.& - 6 R } R E W ! r.r.7.7.9.>.D.I.I.H.Y.l.z.d.*.*.f.x.z.z.z.W.x.z.z.x.z.x.z.z.z.&.~ 9.l.&.( k.^ p a d d s +.7.7.7.7.p.Y 8 & (.",
"(.+ = 8 m 7.7.4.3.7.i.7.7.7._ G b.D.I.L.J.Y.l.8.T W k.z.z.z.z.z.z.z.z.z.z.z.l.l.;.V 9.l.k.9.( y.7.Z u y y J 6.7.7.r.a.6.l 1 $ (.",
"(.X = 8 v 4.7.7.i.7.7.7.r.7.S F d b.L.L.I.^.l.k.t.t.l.l.l.z.l.z.l.l.d.l.z.l.l.z.( T l.k.k.a.' C E ] ` ^ ] 6.r.7.y.u.&.v 8 - $ (.",
"(.X & 8 g } 7.7.7.7.7.7.7.i.3.A u s b.S.D.Z.k.k.l.l.l.l.l.l.l.z.l.h.' t.l.l.l.l.$.T d.a.a.i.7.W j W 7.7.7.7.r.a.=.m g 6 < + O (.",
"(.+ + 7 f b 4.7.i.7.i.7.7.i.i.S B D y s L -.y.y.l.l.l.k.l.k.l.l.l.k.9.y.l.k.l.a.8.M 9.p.i.i.r.7.} W 4.r.7.r.9./ h 6 < & o + (.(.",
"(.O X & 5 f v } 7.i.7.7.r.7.7.7.` ) S Z ' *.} 6.y.a.a.a.k.k.k.k.k.k.k.k.k.a.p.a.y.E } 9.6.7.i.7.7.{ } r.6.( x 8 1 = o X & (.(.(.",
"(.(.X X $ 1 8 z 3.7.7.r.7.7.7.7.r.7.7.4.7._ M _ 7.y.p.p.p.y.a.a.a.a.y.a.p.p.i.y.y.6.! ' 6.7.7.i.7.6.W E k 8 6 1 + X X & (.(.(.(.",
"(.(.X X o + 1 6 v 3.7.i.r.r.7.7.r.r.r.7.r.7.4.7.r.i.i.a.k.l.l.k.k.a.a.a.y.r.y.7.r.r.r.r.i.i.7.4.7.} x 8 7 , & O o O = (.(.(.(.(.",
"(.(.(.o o X + = * h M _ { } 6.6.e.y.y.u.p.a.y.p.a.f.u.e.;.{ { { { =.6.t.t.u.y.y.e.6.*.{ ! E M b v f 6 2 , = X X X & (.(.(.(.(.(.",
"(.(.(.(.+ O X X = 6 8 8 g g h h k x n T E C n V T b z k g g 8 f 8 f g h l h z h k h g 9 8 8 8 9 8 6 % % & ; + X & (.(.(.(.(.(.(.",
"(.(.(.(.(.+ X O o + - , - < < 1 1 2 7 6 2 * & & 2 6 2 1 , = = = = - , < 1 1 1 5 1 5 5 5 6 6 8 8 6 6 % . X & o # (.(.(.(.(.(.(.(.",
"(.(.(.(.(.(.(.(.(.(.(.(.(.(.(.(.(.(.(.(.(.(.(.(.(.(.(.(.(.(.(.(.(.(.(.(.(.(.(.(.(.(.(.(.(.(.(.(.(.(.(.(.(.(.(.(.(.(.(.(.(.(.(.(.",
"(.(.(.(.(.(.(.(.(.(.(.(.(.(.(.o X + O X O o O X X X X X O O X O + + O X + o o + % (.(.(.(.(.(.(.(.(.(.(.(.(.(.(.(.(.(.(.(.(.(.(."
};
