/* XPM */
static  xpm_row_t const block9[] = {
/* columns rows colors chars-per-pixel */
"64 64 176 2 ",
"   c #031129",
".  c #5B431D",
"X  c #5B4626",
"o  c #5D4A26",
"O  c #5C4629",
"+  c #5D4929",
"@  c #5A5427",
"#  c #5E5429",
"$  c #5C483F",
"%  c #604526",
"&  c #634B25",
"*  c #634E2A",
"=  c #695027",
"-  c #66512C",
";  c #69532E",
":  c #73592E",
">  c #664633",
",  c #654A33",
"<  c #6C5631",
"1  c #6D5932",
"2  c #735C34",
"3  c #785E32",
"4  c #746027",
"5  c #7D682E",
"6  c #776036",
"7  c #7A6236",
"8  c #746039",
"9  c #7D6539",
"0  c #7F693D",
"q  c #7D6740",
"w  c #7E6941",
"e  c #7F6B57",
"r  c #7F6C5E",
"t  c #6E6965",
"y  c #736A64",
"u  c #7A6D63",
"i  c #746D69",
"p  c #7B7067",
"a  c #77706C",
"s  c #7A736E",
"d  c #7C7572",
"f  c #85673A",
"g  c #836A3D",
"h  c #8A6D3F",
"j  c #846C41",
"k  c #896F41",
"l  c #867043",
"z  c #8C7344",
"x  c #8C7649",
"c  c #8E784D",
"v  c #927545",
"b  c #957847",
"n  c #927649",
"m  c #957B4B",
"M  c #9A7E4D",
"N  c #8C745F",
"B  c #947151",
"V  c #997352",
"C  c #967D51",
"Z  c #9B7F52",
"A  c #9C7B5A",
"S  c #A27954",
"D  c #847364",
"F  c #897662",
"G  c #84756A",
"H  c #887C6D",
"J  c #967F64",
"K  c #987E62",
"L  c #837873",
"P  c #8C7D70",
"I  c #877B7B",
"U  c #897D7A",
"Y  c #9D814E",
"T  c #9D8253",
"R  c #A0814F",
"E  c #A38552",
"W  c #A98552",
"Q  c #A58956",
"!  c #AC8A56",
"~  c #A4875A",
"^  c #A9845E",
"/  c #A6895A",
"(  c #AC8D5A",
")  c #B28154",
"_  c #B28B56",
"`  c #B38D5B",
"'  c #B88F5B",
"]  c #BB8B56",
"[  c #AF905E",
"{  c #B4915D",
"}  c #BB935D",
"|  c #9C8162",
" . c #9C836C",
".. c #8E8175",
"X. c #9E8A7A",
"o. c #9C8A75",
"O. c #A88060",
"+. c #A28967",
"@. c #AD8D63",
"#. c #A4896C",
"$. c #AB8D6C",
"%. c #B28C62",
"&. c #AF9163",
"*. c #B59463",
"=. c #BA9662",
"-. c #BC9A64",
";. c #B2926E",
":. c #BD9B6A",
">. c #A88C70",
",. c #A18B73",
"<. c #BC9876",
"1. c #B2987C",
"2. c #B9997A",
"3. c #B49573",
"4. c #C08F5B",
"5. c #C1965E",
"6. c #C19762",
"7. c #C39A63",
"8. c #CD9E65",
"9. c #C39D6B",
"0. c #CA9E69",
"q. c #C49E72",
"w. c #C99F72",
"e. c #C19F79",
"r. c #C6A067",
"t. c #CEA066",
"y. c #C5A16B",
"u. c #CEA36A",
"i. c #CEA86E",
"p. c #D0A267",
"a. c #D1A56C",
"s. c #D2A96D",
"d. c #C5A271",
"f. c #CCA573",
"g. c #CEA975",
"h. c #C5A47D",
"j. c #CBA77A",
"k. c #CEAA7A",
"l. c #D1A771",
"z. c #D3AA74",
"x. c #D5AE7B",
"c. c #D6B17E",
"v. c #D8B17F",
"b. c #8E8180",
"n. c #928684",
"m. c #978883",
"M. c #97898A",
"N. c #9B8C8D",
"B. c #9E8F90",
"V. c #A48F81",
"C. c #A4918D",
"Z. c #B39A86",
"A. c #B59A89",
"S. c #A49495",
"D. c #A99599",
"F. c #AC9B9C",
"G. c #B39D93",
"H. c #BCA18B",
"J. c #BBA293",
"K. c #BAA59B",
"L. c #B19EA0",
"P. c #B5A5A6",
"I. c #B9A4A2",
"U. c #B6A5A8",
"Y. c #C6A585",
"T. c #C9A783",
"R. c #CCAB82",
"E. c #C3A689",
"W. c #C6A888",
"Q. c #D7B281",
"!. c #D9B484",
"~. c #D4B48C",
"^. c #DAB688",
"/. c #C1A691",
"(. c #C3A890",
"). c #4ee44e",
/* pixels */
").).).).).).).).).).).).).).).).).).).).).).).).).).).).).).).).).).).).).).).).).).).).).).).).).).).).).).).).).).).).).).).).",
").).).).).).).).).).o + X & # * - + , , # * - & + + + * + * - * * * - + + X O X X O O X X > > X * * % & & + X + ).).).).).).).).",
").).).).).).).).* , + - ; 2 2 7 7 6 7 7 2 o % & 2 2 6 7 6 7 9 9 9 7 6 6 2 2 2 < < < + o X X O o + + + + o o X X + ).).).).).).).",
").).).).).).).+ # * ; 7 g h x M M T W Y M h f v E E ! ( ( ` { { { ( ( Y l 9 9 6 < * o o + - ; 1 2 7 3 * - ; - o X X ).).).).).).",
").).).).).).X O & & : m ( 7.u.u.u.a.a.u.u.s.a.a.i.s.s.s.s.z.s.z.s.z.s.z.7.l : - - 1 2 7 7 9 9 0 k x z 6 7 g 9 6 - O X O ).).).).",
").).).).).+ + 1 7 g ( u.p.t.t.t.8.p.8.8.r.8.8.8.t.t.8.p.p.p.a.u.a.t.a.a.z.-.3 * 7 g g h m Q [ M -.i.u.u.i.} E h 9 < O # * ).).).",
").).).).X + 2 g g l W } 8.t.5.p.t.8.8.} } 8.8.a.u.a.a.p.a.a.a.a.s.a.a.a.s.z.7.! { -.r.i.s.s.t.M } p.t.t.t.t.i.r.T g 2 * * % ).).",
").).).X * 2 9 b ! 9 0 b R 7.t.t.w.0.=.Y W 5.a.a.a.i.a.a.z.s.l.l.l.s.z.a.s.z.s.z.z.s.i.a.u.t.5.x 5.p.t.t.t.t.t.p.u.` f = % X @ ).",
").).& + 2 9 v 5.-.Y } 5._ R *.G.I.I.J.2.-.u.a.a.a.l.z.z.s.z.i.g.z.z.z.z.l.z.l.l.a.l.a.a.u.a.} x 5.p.p.p.t.t.p.5.8.i.Q f 2 o + ).",
").+ + : f v 5.p.' } 8.8.p._ ..I.P.P.P.P.A.*.0.f.z.g.z.z.x.z.x.z.z.z.z.z.g.z.z.z.l.l.l.a.a.u.{ v } 5.5.5.5.p.p.t.8.t.7.z 7 - + ).",
").@ - 7 g ` 8.8.5.t.t.8.8.` m.P.U.U.U.P.L.V.=.f.z.z.z.z.x.x.z.x.x.x.x.z.z.x.x.l.x.l.l.l.l.a.0.Q z Y ! R R } t.p.8.8.t.W 9 < , ).",
").O 2 2 : W 8.8.p.p.8.t.8.^ n.P.U.P.P.U.L.B.j.z.z.x.i.7.g.x.x.x.x.x.x.x.x.x.x.x.z.z.x.z.z.l.l.7.x 7.p.5.! b R 5.8.8.} { g 3 * ).",
").O - * % f 5.8.8.t.8.8.8.O.L D.F.D.B.M.b.o.k.x.x.x.f.=.k.c.c.c.x.x.x.x.x.x.x.x.x.x.x.z.z.z.z.u.E =.a.t.5.5.Y ' p.5.( ` g 2 * ).",
").X X * 2 9 ! t.8.8.8.8.8.` u d I I d D #.j.x.x.x.c.x.x.c.c.c.c.c.v.x.c.x.Q.x.x.x.f.g.x.x.z.z.l.{ E u.a.8.t.5.! 8.} W ` j 2 - ).",
").O X * 3 9 n 8.8.8.8.p.a.8.A F r e | q.x.x.x.x.x.c.Q.c.v.v.v.v.v.Q.c.c.Q.Q.x.Q.x.q.( ~ 9.z.z.z.i.T { a.u.t.' Y 5.R ! ` 0 7 # ).",
").> X X - 9 g 7.8.t.t.a.a.l.l.f.:.=.f.x.x.x.x.x.Q.c.Q.Q.Q.Q.Q.Q.c.Q.Q.Q.Q.Q.Q.x.Q.x.j.~ x :.x.x.z.-.Y ` t.t.Y ' 5.h W m 7 7 $ ).",
").@ X X + 6 g =.t.t.p.a.l.l.z.x.x.x.x.x.c.c.c.c.Q.v.Q.Q.!.!.v.Q.Q.v.Q.v.Q.Q.Q.v.x.-.y.k.&.T g.c.x.l.9.Z m l n 8.' j h 9 9 3 o ).",
").* X X O 2 g =.a.8.a.l.l.l.z.z.z.x.x.c.c.c.v.Q.v.v.Q.Q.v.v.!.!.!.Q.!.!.!.Q.Q.Q.Q.*.*.c.k.T &.k.x.z.z.i.=.m T u.! 7 2 7 9 2 + ).",
").% - * + 2 g 7.a.p.a.l.z.z.x.z.x.c.x.x.v.Q.Q.Q.!.v.v.!.!.!.!.!.!.!.!.!.!.!.!.v.Q.x.c.c.Q.*.T j.x.x.j.E.T.9.( t.! 2 * ; ; * X ).",
").& < 9 1 7 m i.a.i.l.l.z.z.x.x.x.x.Q.c.Q.Q.Q.Q.!.v.!.!.!.!.!.!.^.!.!.Q.!.!.!.Q.!.!.Q.c.v.j.Y j.x.z.>.S.P.J.~ 7.` g 3 * X O X ).",
").* 1 9 9 k -.s.a.a.l.s.z.x.x.x.x.c.v.v.Q.!.Q.Q.!.!.!.^.!.^.!.Q.Q.^.^.!.^.!.!.Q.Q.!.Q.Q.Q.k.T d.c.z.K L S.L. .7.Y g 7 ; o X X ).",
").X < 9 l } s.u.a.l.z.z.z.x.c.x.c.v.Q.v.Q.Q.!.!.!.^.!.!.!.!.!.i.y.k.^.!.!.^.^.^.!.!.!.Q.Q.c.T d.c.x.q.J G P @.E Y m g 7 2 * X ).",
").+ ; g { s.u.u.a.l.z.z.x.x.x.x.c.Q.Q.!.!.Q.!.!.!.!.!.                    !.^.!.!.!.!.Q.Q.Q.T :.c.x.x.l.^ x m ( 0.0.W k 9 2 O ).",
").o - g -.s.t.a.a.z.z.f.f.z.c.Q.c.v.Q.Q.!.!.!.!.!.!.!.                    ^.!.!.!.!.!.!.Q.Q.+.:.Q.c.x.l.x x =.l.a.t.a.=.k 9 * ).",
").X ; g -.a.a.a.z.z.z.9.` -.x.c.Q.Q.Q.!.!.!.^.^.!.!.^.                        ^.!.!.!.^.Q.!.&.T c.x.x.d.x 9.z.f.s.a.a.u.Y 9 - ).",
").+ - g { z.t.a.i.z.z.f.-.g.x.Q.c.Q.Q.!.!.!.!.!.^.!.!.                        ^.!.!.!.!.^.!.d.c d.v.Q.:.~ z.z.z.a.a.8.a.! 9 ; ).",
").O ; g -.s.a.a.s.z.z.x.c.x.c.v.Q.Q.Q.!.!.^.!.!.!.^.^.        ^.^.!.^.        !.^.!.!.!.Q.!.Q./ C *.q.T *.x.z.z.z.l.u.a.{ 9 ; ).",
").O * 2 ` s.a.l.z.z.x.x.x.c.c.Q.!.Q.!.!.!.!.!.!.!.!.^.        ^.^.^.^.        !.^.!.^.!.!.!.Q.k.C q q q -.x.x.z.l.a.a.a.[ 9 ; ).",
").O * & v a.l.l.z.z.x.x.x.c.c.Q.Q.!.!.!.!.!.^.^.^.^.^.                        !.^.!.!.!.!.!.Q.!.k.m < q y.x.z.l.z.a.a.s.! 9 ; ).",
").X < 7 { z.a.l.z.z.x.x.x.c.v.Q.Q.!.!.!.!.!.!.^.!.^.^.                        ^.^.!.^.!.!.!.!.Q.!.j.l q f.x.x.l.l.a.a.s.Q 7 - ).",
").O , g -.s.a.l.T.H.(.R.x.v.c.Q.Q.Q.!.!.!.^.!.^.^.^.^.^.v.                    ^.^.!.^.!.!.!.!.!.!.Q.;.l j.x.x.z.z.l.a.a.Y 6 + ).",
").* < g -.z.y.A.I.P.U.K.R.Q.Q.Q.Q.!.!.!.!.!.!.!.^.^.^.^.^.                    !.!.^.!.!.!.!.!.Q.Q.!.k.T f.x.z.z.f.l.s.i.v 1 + ).",
").+ ; g 9.f.o.S.U.U.U.L.Y.x.Q.Q.c.!.!.!.!.!.!.!.^.^.^.^.^.^.^.^.^.^.^.        ^.^.^.!.!.Q.!.!.c.!.c.c.[ :.c.c.z.s.g.a.i.g . % ).",
").* 1 z i.%.U S.P.U.U.L.H.v.Q.Q.!.c.!.!.!.!.^.^.!.^.^.^.^.^.^.^.^.~.~.        !.!.^.!.^.!.!.!.c.c.!.!.-.{ x.z.z.i.u.a.s.b 2 + ).",
").@ 2 m i.| L n.N.S.S.M.2.Q.c.Q.!.v.!.!.!.^.!.^.^.!.^.                        ^.!.^.^.!.^.!.!.!.Q.Q.c.-.Q x.x.z.` =.a.s.E 7 * ).",
")., 2 T s.^ u i i i s G e.c.c.Q.v.!.!.!.!.!.!.^.!.^.^.                        ^.!.^.^.!.!.!.c.!.Q.Q.Q.*.T g.z.z.u.u.a.z.[ 9 ; ).",
").+ 2 W l.7.^ F D u F 3.x.v.c.Q.Q.Q.!.!.!.Q.^.^.!.^.!.                    d.^.!.^.!.^.!.!.!.!.!.!.c.c.:.T i.z.z.z.s.u.s.=.g 1 ).",
").* 7 Y s.a.8.0.9.9.w.x.x.x.c.Q.v.!.v.!.!.^.^.!.^.!.^.                    :.^.!.!.^.!.!.!.!.c.v.Q.c.c.g.T / z.z.z.a.t.a.-.g ; ).",
").+ 2 x 0.a.p.l.l.z.z.x.x.c.c.c.Q.Q.Q.!.!.^.!.^.!.^.^.!.^.Q.h.F t t ..j.^.!.!.!.!.!.!.^.!.Q.Q.!.c.c.c.x.d.Q [ g.a.a.a.a.y.g ; ).",
").X - 9 Q s.l.a.l.l.z.x.x.x.c.c.Q.c.!.c.Q.!.!.!.!.!.^.^.^.^.Q.e. . .T.^.!.^.!.!.^.!.!.!.!.c.!.c.c.c.c.x.c.:.T -.a.a.p.s.-.g - ).",
").X * 1 g [ a.a.a.l.x.z.x.x.c.c.Q.Q.Q.Q.Q.Q.!.!.!.!.!.!.^.^.^.!.Q.Q.^.^.!.!.!.^.!.!.!.!.Q.!.Q.c.c.c.x.x.x.l.9.i.a.u.t.a.` < * ).",
").X & - 2 x 0.a.a.l.l.z.x.x.x.c.c.Q.Q.Q.^.v.!.!.!.!.!.^.^.!.!.^.^.^.^.^.^.!.Q.:.k.^.!.!.Q.Q.Q.c.c.c.x.x.z.z.l.s.a.u.t.s.! = o ).",
").X . . 2 7 ` a.a.l.z.z.z.x.x.x.c.c.Q.Q.!.v.^.!.!.!.!.!.!.^.!.^.^.^.Q.^.!.^.Q.*.k.!.c.!.Q.Q.c.c.c.x.x.z.x.z.z.a.a.p.8.s.*.7 * ).",
").o * 7 9 1 x } u.a.l.l.z.x.x.x.c.c.v.Q.v.!.Q.!.!.!.!.^.!.!.!.!.!.!.!.!.^.!.!.c.!.!.!.c.Q.c.c.c.x.x.x.x.z.l.l.u.u.8.8.l.[ 7 * ).",
").X < g j m j M ' a.u.:.-.f.x.c.z.c.c.c.v.Q.Q.Q.!.!.!.!.!.!.!.^.!.!.!.!.!.!.^.!.c.c.c.!.c.c.c.k.9.x.x.z.z.l.a.a.p.8.p.z.( 7 * ).",
").X 2 l &.r.5.! E ` T q j T { y.x.c.c.c.v.v.Q.Q.Q.Q.!.!.Q.!.!.^.!.!.!.!.!.!.Q.Q.c.!.!.c.c.c.c.:.y.x.z.z.l.l.a.a.t.8.t.s.! 7 - ).",
").4 2 l =.t.p.8.7.' { ` -.9.! ~ [ y.k.v.c.c.Q.Q.Q.Q.Q.Q.Q.!.Q.Q.!.Q.!.Q.Q.Q.!.Q.!.c.c.c.c.x.k.Q w.x.z.z.l.a.u.t.t.8.8.s.( 7 - ).",
").> 2 l } p.8.t.8.8.a.a.a.g.9.-.y.*.[ y.c.v.v.v.Q.Q.Q.v.!.Q.Q.Q.Q.Q.Q.!.c.!.Q.c.c.c.c.c.c.c.:.Y w.z.j.Y.E.Y.y.8.8.8.8.z.( 9 - ).",
")., 1 g } t.8.8.8.8.t.t.u.a.z.z.z.z.y.y.z.c.c.c.c.c.Q.Q.Q.Q.Q.Q.Q.Q.Q.Q.Q.c.c.c.Q.Q.x.x.9.;.x ` f.A.I.U.U.U.J.0.8.8.8.s.` 9 7 ).",
").- 1 0 E 7.t.8.8.8.8.t.a.a.i.z.z.x.c.x.x.x.x.x.x.c.c.c.c.Q.c.Q.v.Q.c.v.Q.c.c.c.x.x.x.` n 2 j 9.$.n.F.U.U.L.G.0.8.t.8.a.! 3 ; ).",
").O 1 0 l b _ 8.8.} 5.t.a.a.a.f.H.(.W.z.z.x.x.c.x.z.x.c.Q.Q.x.Q.c.x.c.c.c.c.c.c.x.x.:.~ W k Z i.+.d m.D.F.B.,.7.t.8.8.s.Q 7 ; ).",
").& ; 9 Y } R R W ( t.t.8.a.7.,.D.I.U.K.j.x.z.f.*.-.g.x.x.x.x.x.x.c.x.x.x.x.x.x.x.&.T 0.z.*.( f.%.p a d d s #.8.8.8.8.a.Y 7 = ).",
").+ - 9 m 0.8.5.5.8.8.8.8.8.) G n.F.U.U.K.R.x.9.R W l.x.x.x.x.x.x.x.x.x.x.x.z.z.:.m 9.z.z.t.( i.8.A u y y K 7.t.8.0.i.7.l 2 & ).",
").X - 9 v 5.8.8.8.8.8.8.t.8.S F d n.L.U.U.J.l.l.y.y.x.z.z.x.x.x.x.z.l.z.x.x.z.x.( ~ z.l.a.a.` M Z ' ] ^ %.7.8.8.p.i.=.v 9 ; X ).",
").+ * 7 f } 8.8.8.8.8.8.8.8.4.V u a n.D.F.A.l.a.z.z.x.z.z.z.z.z.z.f.` 9.z.z.z.z.*.T l.a.a.a.t.R j W 8.8.8.p.p.a.-.m g 7 ; + O ).",
").+ + 6 g v 5.p.p.8.p.8.8.8.8.) V D y s L ;.u.u.l.l.l.l.z.l.z.z.z.z.0.y.z.l.l.l.7.Z 0.a.a.t.t.8.5.R 5.t.8.p.0.! g 7 2 * + o ).).",
").O X * 6 9 v } 8.8.8.8.8.8.8.8.] ) S V %.} } 7.i.a.s.a.a.z.l.z.l.z.l.a.l.a.s.a.a.! ` 7.0.8.8.8.t.' } t.7.( x 0 6 - X X * ).).).",
").).O X & 2 9 v 5.p.8.8.8.8.8.8.t.8.8.8.8.! M ` 8.p.a.a.u.a.a.a.a.s.s.a.a.a.a.a.r.7.! ` 5.8.8.8.t.5.Q E k 9 7 1 + X X - ).).).).",
").).X X X + 2 9 v 4.8.t.t.p.8.t.t.t.8.t.8.8.} 8.a.t.a.s.z.z.z.s.s.s.s.a.u.t.p.t.t.t.t.t.p.t.8.8.5.} x 9 6 < * + X X * ).).).).).",
").).).o X X + * = h S _ { { -.7.r.u.u.u.s.s.a.i.s.i.i.r.-.{ { *.*.=.7.y.i.i.u.y.r.7.-.{ _ W M b v h 7 2 < ; X X X - ).).).).).).",
").).).).O + X X - 7 9 9 g g g g l x m Y W Z n m T m z g g f 7 0 f f g g h h l h k g g g 9 g 9 9 f 7 & & * : * X - ).).).).).).).",
").).).).).+ X X o + ; 1 1 : 2 2 2 2 7 7 6 = & - 3 7 2 2 < ; - - - ; < 1 2 2 6 6 2 6 6 6 7 7 9 9 7 6 & . X * o + ).).).).).).).).",
").).).).).).).).).).).).).).).).).).).).).).).).).).).).).).).).).).).).).).).).).).).).).).).).).).).).).).).).).).).).).).).).",
").).).).).).).).).).).).).).).o X o O X O o O X X X X O O O X O + O X + O X + o & ).).).).).).).).).).).).).).).).).).).).).).)."
};
