/* XPM */
static  xpm_row_t const block5[] = {
/* columns rows colors chars-per-pixel */
"64 64 177 2 ",
"   c #031129",
".  c #5B431D",
"X  c #5B4626",
"o  c #564E25",
"O  c #5D4A26",
"+  c #5C4629",
"@  c #5D4929",
"#  c #5B5427",
"$  c #5E5429",
"%  c #604526",
"&  c #634B25",
"*  c #62462A",
"=  c #634E2A",
"-  c #695027",
";  c #66512D",
":  c #69532E",
">  c #73592E",
",  c #664633",
"<  c #654A33",
"1  c #6C5631",
"2  c #6D5932",
"3  c #735C34",
"4  c #785F32",
"5  c #766229",
"6  c #7F6A2E",
"7  c #776036",
"8  c #7A6236",
"9  c #746039",
"0  c #7D6539",
"q  c #7F693D",
"w  c #5C4840",
"e  c #7D6741",
"r  c #7E6941",
"t  c #7F6B57",
"y  c #7F6C5E",
"u  c #6E6965",
"i  c #736A64",
"p  c #7A6D62",
"a  c #746E69",
"s  c #7B7067",
"d  c #77706C",
"f  c #7A736E",
"g  c #7C7572",
"h  c #85673A",
"j  c #836A3D",
"k  c #8A6D3F",
"l  c #846C41",
"z  c #896F41",
"x  c #867143",
"c  c #8C7344",
"v  c #8C7649",
"b  c #8F784C",
"n  c #927545",
"m  c #957847",
"M  c #927649",
"N  c #957B4B",
"B  c #9A7E4D",
"V  c #8C745F",
"C  c #947151",
"Z  c #967D51",
"A  c #9A7F51",
"S  c #9C7A5A",
"D  c #997353",
"F  c #A27854",
"G  c #847364",
"H  c #897662",
"J  c #84766A",
"K  c #887C6D",
"L  c #967F65",
"P  c #987E62",
"I  c #837874",
"U  c #8C7C70",
"Y  c #877B7B",
"T  c #897D7A",
"R  c #9D814E",
"E  c #9D8253",
"W  c #A0814F",
"Q  c #A38552",
"!  c #A98552",
"~  c #A58855",
"^  c #AB8A56",
"/  c #A3875A",
"(  c #A9845E",
")  c #A6895A",
"_  c #AC8D5A",
"`  c #B28154",
"'  c #B28C56",
"]  c #BB8B57",
"[  c #B38D5B",
"{  c #B88F5B",
"}  c #AF905E",
"|  c #B3915D",
" . c #BB935D",
".. c #9C8162",
"X. c #9C836C",
"o. c #8E8175",
"O. c #9E8A7A",
"+. c #9C8B75",
"@. c #A88060",
"#. c #A28A67",
"$. c #AD8D63",
"%. c #A88B6C",
"&. c #B28C62",
"*. c #AF9163",
"=. c #B59463",
"-. c #BA9662",
";. c #BC9964",
":. c #BD9B6A",
">. c #B2926E",
",. c #A88C70",
"<. c #A18B73",
"1. c #BC9876",
"2. c #B3987C",
"3. c #B9987A",
"4. c #B49573",
"5. c #C08F5B",
"6. c #C1965E",
"7. c #C19762",
"8. c #C39A63",
"9. c #CD9E65",
"0. c #C39D6B",
"q. c #CA9E69",
"w. c #C49E72",
"e. c #C99F72",
"r. c #C19F79",
"t. c #C6A067",
"y. c #CEA066",
"u. c #C5A16B",
"i. c #CDA36A",
"p. c #CEA86E",
"a. c #D0A267",
"s. c #D1A56C",
"d. c #D2A96D",
"f. c #C5A271",
"g. c #CCA573",
"h. c #CEA975",
"j. c #C5A47D",
"k. c #CBA77A",
"l. c #CEAA7A",
"z. c #D1A671",
"x. c #D3AA74",
"c. c #D5AE7B",
"v. c #D6B17E",
"b. c #D8B17F",
"n. c #8E8180",
"m. c #928684",
"M. c #978883",
"N. c #97898A",
"B. c #9B8C8D",
"V. c #9E8E91",
"C. c #A48F81",
"Z. c #A4918F",
"A. c #B59A89",
"S. c #B39A86",
"D. c #A49495",
"F. c #A99599",
"G. c #AC9B9C",
"H. c #B39D93",
"J. c #BCA28B",
"K. c #BBA293",
"L. c #BAA59B",
"P. c #B19FA0",
"I. c #B5A5A6",
"U. c #B9A4A2",
"Y. c #B6A5A8",
"T. c #C6A585",
"R. c #C9A783",
"E. c #CCAB82",
"W. c #C3A689",
"Q. c #C6A888",
"!. c #D7B281",
"~. c #D9B484",
"^. c #D4B48C",
"/. c #DAB688",
"(. c #C2A691",
"). c #C3A890",
"_. c #4ee44e",
/* pixels */
"_._._._._._._._._._._._._._._._._._._._._._._._._._._._._._._._._._._._._._._._._._._._._._._._._._._._._._._._._._._._._._._._.",
"_._._._._._._._._._.X @ + & $ = ; @ < < $ * ; = @ @ = @ O = = = = ; @ @ @ O @ X X @ + X X , , X = = % & & @ + @ _._._._._._._._.",
"_._._._._._._._.@ ; @ ; 1 3 3 8 8 8 8 8 7 . & & 3 3 7 8 7 0 0 h 8 8 8 7 3 3 3 1 1 1 @ X X + X X @ O @ @ X X X X @ _._._._._._._.",
"_._._._._._._.@ ; ; ; 8 h z c B R Q W R B k h n Q Q ^ _ _ _ | | | _ _ E x h 0 3 : ; O O @ ; : 2 3 8 3 ; ; 2 ; O + X _._._._._._.",
"_._._._._._.O @ & & > m _ 8.i.p.s.s.s.s.i.d.s.d.p.d.d.x.d.d.z.x.d.d.x.d.0.c > ; ; 2 3 8 8 0 0 l z c c 5 0 h 0 7 ; + X % _._._._.",
"_._._._._.@ @ 2 8 j ^ y.y.y.y.9.9.9.9.9.9.9.9.9.y.y.9.9.s.a.y.s.a.s.a.s.x.| 8 = 8 j j k N ~ | N -.p.s.s.i.;.~ j 0 1 @ # = _._._.",
"_._._._.X @ 3 j j x ^  .9.y.9.9.9.9.9.{ -.8.y.i.i.9.d.s.s.d.s.s.x.s.s.s.d.x.;.^ | ;.t.p.p.d.y.N 6.a.i.a.y.y.p.t.E j 3 = = % _._.",
"_._._.X * 3 0 m ^ q q v Q 6.9.y.e.e.7.B ! 8.y.s.s.p.s.d.s.z.z.z.z.z.x.s.x.d.x.d.x.d.p.d.a.y.6.n 8.a.y.6.y.y.y.y.i._ h - % X # _.",
"_._.& @ 3 h m 6.;.R  .6.' W =.H.I.U.H.3.7.i.p.s.z.z.z.g.x.x.x.x.x.x.x.x.x.z.z.z.g.d.d.s.s.9.-.c 6.a.a.a.9.a.a.6.9.i.~ 0 3 @ + _.",
"_.@ + > 0 n 6.9.{  .9.9.a.' o.U.Y.I.Y.I.A.>.9.g.c.z.x.c.x.x.x.x.x.x.x.x.h.x.x.x.z.z.z.s.g.9. .v  .6.6.6.6.a.a.9.y.a.8.v 0 - @ _.",
"_.# ; 0 h { 9.9.6.y.y.9.9.[ M.I.I.Y.I.I.P.C.-.p.z.x.x.x.v.x.x.x.c.x.c.c.c.x.x.h.x.z.z.z.g.d.q.! c R ^ W W  .a.a.9.9.a.Q h 2 < _.",
"_.+ 3 3 3 W 9.9.a.a.9.9.9.( m.I.I.I.I.I.G.Z.k.c.z.v.p.t.h.v.v.x.c.c.c.c.c.c.c.c.x.c.x.x.x.z.x.8.v 7.a.6.^ m W 6.9.9.6.[ q 3 = _.",
"_.+ ; = & 0 7.9.9.9.9.y.9.@.I F.G.F.V.N.n.O.l.c.c.c.p.=.l.v.v.v.b.c.c.c.c.c.c.c.c.c.c.x.x.x.z.z.~  .s.a.9.6.B { 9.9.' ' h 3 = _.",
"_.X X = 3 0 ^ a.9.9.9.y.9.[ p g Y I I G #.g.c.c.v.c.c.v.v.v.v.v.c.b.v.v.!.c.c.c.x.k.k.x.c.c.x.z.| Q i.s.y.y.6.! 6. .Q | l 3 ; _.",
"_.X X * 3 h M 9.y.9.9.y.s.9.S H G t ..w.c.c.c.c.v.v.v.!.v.v.v.v.b.b.b.b.!.c.c.v.!.0._ ) 0.c.x.x.p.E | s.i.y. .B 9.B ! | j 7 $ _.",
"_., + @ = 0 l 8.9.9.y.s.s.z.s.g.:.-.g.c.x.!.c.v.v.v.v.!.~.!.v.~.!.!.!.b.!.!.!.!.b.c.l./ v :.c.x.x.;.R [ 9.9.R ' 6.c ! m 0 9 w _.",
"_.# X X * 7 h -.y.y.i.s.z.z.x.x.c.c.x.c.!.c.b.b.v.b.~.!.v.~.~.b.!.v.~.b.v.v.b.b.c.;.t.l.} E h.v.c.x.8.A N x M 9.{ l k 0 0 7 O _.",
"_.; + X @ 3 j | a.y.s.z.z.x.x.x.x.c.c.c.!.!.b.!.~.b.~.v.v.!.b.~.!.!.~.!.~.~.~.~.!.=.=.v.l.E *.l.c.x.x.g.;.N E y.' 9 > 8 0 3 @ _.",
"_.X ; = @ 7 k 8.y.i.d.z.x.x.c.x.c.b.c.c.b.!.!.!.b.b.~.b.~.~.~.~.~.~.~.~.~.!.~.b.!.c.v.v.!.=.E l.c.c.k.T.R.u._ y._ 3 & 2 : = X _.",
"_.& 1 8 1 8 N p.i.s.z.z.x.x.c.c.b.c.!.!.b.!.~.!.~.b.~.~.~.~.~./.~.~.~.~.~.~.b.~.!.!.!.!.!.k.R h.c.x.,.D.U.K.~ 8.[ j 7 @ X X X _.",
"_.@ 2 q 0 j ;.d.s.s.z.z.x.c.c.c.c.v.v.b.!.!.~.~.~.~.~.~.~.~.~.~.~.~.~.~.~.~./././.!.!.!.!.l.E f.c.x.L I D.G.X.7.R j 8 : @ + X _.",
"_.X 2 0 x  .d.i.s.s.x.x.x.c.c.c.v.v.!.v.!.!.~.~.~./.~.~.~.~.~.p.u.l.~./.~.~.~./.~.~.!.~.!.v.E r.!.c.0.P J U $.Q Q N h 0 3 = X _.",
"_.@ : h | d.i.i.d.z.z.x.c.c.!.c.v.!.!.~.~.~.~.~.~.~.~.                        ~./.~.~.!.~.v.E :.!.c.c.x.( v N _ q.8.Q z 0 3 @ _.",
"_.X : j -.d.i.s.d.h.x.z.g.l.c.c.v.!.!.b.~.~.~.~.~./.~.                        /.~.~.~.~.~.~.) >.!.b.c.g.v v :.z.d.d.s.-.z 8 = _.",
"_.O ; j -.s.s.s.z.z.x.u.[ ;.c.v.!.!.!.~.~.~.~.~.~.~./.                        /.~.~.~.~.~.~.*.E c.v.c.f.v 0.x.z.s.s.9.i.Q 0 ; _.",
"_.+ : j =.d.i.s.z.x.x.g.;.h.!.!.v.!.!.~.~.~.~././.~./.                        /.~.~././.~.~.f.b f.v.!.:.~ x.x.h.z.s.9.s.~ q 1 _.",
"_.+ : j ;.d.s.z.d.x.c.c.c.v.v.b.!.!.!.~././.~.~./.~.~.        /././././././.~./.~.~.~.~.~.~.v.~ Z =.w.A =.c.c.x.z.z.9.d.| 0 ; _.",
"_.* = 3 [ s.s.z.z.c.x.x.c.v.v.b.~.!.~.~.~.~.~./././.~.        ~./././././.~./.~./.~./.~.~.~.~.l.Z e e e :.c.x.x.z.s.s.s.} 0 : _.",
"_.+ = & n d.d.z.x.x.c.c.c.v.v.!.!.~.!.~.~.~./.~.~././.                        /./.~./.~.~.~.~.~.k.N 1 e w.c.x.x.x.s.i.d.^ 0 - _.",
"_.@ : 8 | z.d.z.z.c.c.c.c.c.b.!.!.~.~.~.~.~.~./.~.~.~.                        ~.~.~./.~.~.~.~.!.~.k.x e g.c.x.x.z.d.s.d.~ 0 : _.",
"_.+ : l ;.d.d.g.R.(.).E.v.v.!.!.~.~.~.~.~.~.~.~./././././.                    /.~./.~.~.~.~.~.!.~.!.>.x g.c.c.x.x.z.i.d.R 0 @ _.",
"_.* 1 q ;.x.q.A.U.I.I.L.E.v.!.!.!.!.~.~.~.~././././././.~.                    ~./.~.~.~.~.~.~.~.!.~.l.E g.c.x.x.z.g.s.p.m : @ _.",
"_.+ : k u.g.+.D.Y.I.I.I.W.b.!.!.~.b.~./.~./.~./.~.~./././././././././.        /.~./.~./.~.~.~.~.v.!.v.*.:.v.c.x.d.z.s.i.j . X _.",
"_.; 1 c p.&.T D.I.I.I.P.A.b.!.!.v.~.~.~.~.~.~././././././././././.^.^.        /.~././.~.~.~.~.!.!.v.~.=.| v.c.g.p.i.d.d.N 3 @ _.",
"_.# 3 N p.P I m.B.D.D.N.3.b.!.!.~.b.~.~.~.~.~.~./././.                        /.~././.~.~.~.~.!.~.b.v.;.~ x.c.z.| ;.d.z.E 8 = _.",
"_.< 4 W d.( p d a a d J j.v.c.!.v.~.~.~.~.~./././././.                        ~./.~./.~.~.~.~.~.v.!.!.=.Q g.c.z.9.i.s.x._ h : _.",
"_.@ 7 Q x.8.F H G p V 4.c.c.!.!.!.~.~.~./.~.~.~.b././.                    f.~././.~.~.~.~.~.~.v.~.v.v.:.E g.v.x.z.d.i.d.-.j 2 _.",
"_.* 8 R d.s.s.q.0.0.e.c.b.c.c.~.v.~.v.~.~./.~./././.b.                    :.~./.~.~.~./.~.~.~.~.!.v.v.h.E _ z.z.z.s.i.s.:.j 1 _.",
"_.@ 7 c u.s.a.z.x.x.x.x.c.c.c.b.!.!.!.!.~.~.~.~./.b././././.j.J u u o.l./.~./.~.~.~.~./.!.~.~.v.v.v.v.v.f.~ } d.z.p.y.d.t.k ; _.",
"_.@ ; 0 / s.s.s.z.x.x.c.c.c.b.b.!.v.~.!.~.~.~.~.~././.~.~.~.~.3.X.+.j././.~.~.~.~.~.~.~.~.v.v.~.v.v.v.x.v.:.W :.d.s.i.s.;.j ; _.",
"_.X & 3 r | s.p.s.x.x.x.c.c.c.b.v.!.~.v.~.~.~.~.~.~.~.~./.~././.!.~./././.~././.~.~.~./.~.v.~.v.b.!.!.x.x.z.0.i.s.s.9.d.[ 2 * _.",
"_.X & ; 3 v 9.s.d.z.h.x.x.c.c.b.v.!.!.~.!.~.~.~.~.~.~./././.~.~.~.~.~.~.~.~.!.:.l.~.~.~.~.v.v.v.b.c.b.c.c.x.x.z.s.q.9.d.^ & O _.",
"_.X . . 3 9 [ y.p.z.z.x.x.x.c.b.v.v.!.!.~.b.~.~.~.~.~.~.~./.~./.~./.~./.~.~.!.=.l.~.~.v.!.~.v.v.c.c.c.x.x.l.z.d.s.s.9.d.| 8 = _.",
"_.O = 8 0 2 c -.i.d.z.x.c.c.c.c.v.v.b.!.v.~.b.~.~.~.~.~.~.~.~.~.~.~.~.~.~.~.~.v.!.~.!.~.!.v.v.v.c.c.c.x.x.z.d.s.9.9.9.d._ 0 = _.",
"_.X : j l v l B  .i.i.;.;.g.c.c.c.v.v.v.v.!.~.~.~.~.~.~.~.~.~.~.~./.~.~.~.~.~.~.~.v.!.!.v.v.v.l.e.c.c.x.z.z.z.s.y.9.y.x._ 8 = _.",
"_.@ 3 x =.i.7.^ F [ E e z E =.u.h.v.v.v.b.v.v.!.~.!.~.b.~.~.~.~.~.~.~.~.~.~.!.~.!.!.v.~.v.v.v.:.0.c.x.x.z.z.d.i.y.9.y.d._ 8 ; _.",
"_.5 3 x ;.9.9.a.8. .[ [ -.0._ ~ } u.l.v.v.v.!.b.!.!.!.!.~.!.!.~.!.~.!.!.!.!.~.~.!.!.v.v.v.v.l.~ e.x.x.x.z.s.s.y.y.9.9.d._ 8 ; _.",
"_., 3 x  .a.9.9.9.9.s.d.z.g.u.-.u.=.} f.v.v.v.v.!.!.!.!.b.~.!.~.!.!.!.~.!.!.!.v.v.v.v.v.v.v.:.R g.c.k.T.W.T.u.9.9.y.y.z._ q ; _.",
"_.< 3 l  .a.y.9.9.9.y.y.s.d.z.z.x.x.f.0.x.c.c.!.v.v.!.b.!.!.!.!.!.!.!.c.!.b.b.b.v.!.c.x.0.>.v _ g.A.U.I.Y.I.J.9.9.9.9.d._ 8 6 _.",
"_.= 1 q R 8.y.9.9.9.9.y.s.s.z.x.x.x.c.c.c.c.c.c.c.!.v.v.v.!.c.!.!.!.!.b.v.v.v.b.c.c.c.=.M 3 l q.%.m.P.I.Y.Y.G.9.9.9.9.d._ 4 : _.",
"_.@ 1 0 x m ' 9.y. .6.y.i.s.d.g.W.(.Q.c.x.v.x.c.l.x.c.c.!.c.c.b.v.v.b.v.v.v.c.c.c.c.>.! ! z A p...g m.F.F.V.O.q.9.9.9.d.~ 8 : _.",
"_.= : 0 B  .W Q ^ ^ 9.y.9.9.9.+.F.I.I.L.R.x.b.p.-.-.x.v.!.c.c.c.v.c.c.b.c.c.c.c.c.=.Q q.c.=._ z.&.s d g I d #.9.y.9.9.z.R 8 = _.",
"_.@ ; 0 N 9.9.6.6.9.9.9.9.9.[ J m.G.Y.Y.L.R.x.0.Q Q z.c.c.x.c.c.c.c.v.x.c.c.b.c.:.Z 0.x.z.q._ i.9.S i i i P 8.9.9.y.d.8.c 3 & _.",
"_.X ; 0 c 8.9.9.9.9.9.a.9.9.F H g m.P.I.I.(.l.x.u.u.c.x.x.c.c.c.x.x.g.x.x.c.x.x._ E x.x.d.s.[ B A  .] ( [ 9.9.9.i.p.=.n 8 : % _.",
"_.@ = 8 h  .9.9.9.a.9.9.9.9.5.D p f m.F.F.A.x.z.x.c.x.x.c.x.x.x.x.g.| 0.x.x.x.x.&.E d.z.s.s.9.W l ! a.a.9.9.y.p.;.N j 9 1 @ @ _.",
"_.O @ 7 h m 6.9.9.9.9.9.9.9.9.` C G p f I >.9.d.z.z.z.z.x.x.x.x.x.z.u.i.z.x.z.s.0.B q.s.s.a.a.9.6.W 6.9.9.y.q.^ k 8 3 = X O _._.",
"_.X + = 8 0 n  .9.9.y.9.9.9.9.9.5.` F S [  .{ 7.s.s.d.d.z.z.z.d.x.z.z.d.z.d.d.i.i.^ | 8.8.9.9.9.y.{ { y.8.} v 0 3 ; X X ; _._._.",
"_._.X X = 3 0 n 6.9.9.9.9.9.9.9.y.9.6.9.9.' B ' q.y.s.s.s.s.s.d.d.s.s.s.s.s.s.i.i.7._ { 6.9.9.9.y.6.~ Q j 0 8 2 @ X X = _._._._.",
"_._.+ X X O 3 8 n 5.9.y.y.a.y.y.y.y.9.9.9.8.6.9.y.s.a.d.z.z.x.x.x.d.d.p.i.i.a.9.y.y.y.y.a.a.9.9.6. .c 0 0 1 = + X @ = _._._._._.",
"_._._.O X X @ = > h F ' |  .;.;.u.i.i.d.d.d.s.d.d.d.p.0.;.-.| |  .-.8.u.i.p.i.i.u.8.-.| ' Q B m n k 0 3 1 : + X X = _._._._._._.",
"_._._._.@ + X X = 0 0 0 j j h k z v N B Q A N N A N c z j h q q 0 j j k x x c j z k j q q 0 0 0 0 8 & & = 5 @ @ = _._._._._._._.",
"_._._._._.O X @ X = : 1 2 > 1 3 3 3 8 8 8 & & ; 4 8 3 2 1 : ; = ; - 1 2 > 3 3 7 3 7 7 7 8 0 0 8 0 8 - . X = + @ _._._._._._._._.",
"_._._._._._._._._._._._._._._._._._._._._._._._._._._._._._._._._._._._._._._._._._._._._._._._._._._._._._._._._._._._._._._._.",
"_._._._._._._._._._._._._._._.o + O X X + O + X X X X + + + + + @ + O @ @ X O O @ _._._._._._._._._._._._._._._._._._._._._._._."
};
