/* XPM */
static  xpm_row_t const block1[] = {
/* columns rows colors chars-per-pixel */
"64 64 176 2 ",
"   c #031129",
".  c #5B431D",
"X  c #5B4626",
"o  c #5D4A26",
"O  c #5C4629",
"+  c #5D4929",
"@  c #5A5427",
"#  c #5E5429",
"$  c #604426",
"%  c #634B25",
"&  c #634D2A",
"*  c #695027",
"=  c #66512C",
"-  c #69532E",
";  c #73592E",
":  c #664633",
">  c #654A33",
",  c #6C5631",
"<  c #6D5932",
"1  c #735C34",
"2  c #785F32",
"3  c #756129",
"4  c #7E692E",
"5  c #776036",
"6  c #796236",
"7  c #746039",
"8  c #7D6539",
"9  c #7F693E",
"0  c #5C4840",
"q  c #7D6740",
"w  c #7E6941",
"e  c #7F6A57",
"r  c #7F6C5E",
"t  c #6E6965",
"y  c #736A64",
"u  c #7A6D62",
"i  c #746D69",
"p  c #7B7067",
"a  c #77706C",
"s  c #7A736E",
"d  c #7C7572",
"f  c #85673A",
"g  c #836A3D",
"h  c #8A6D3F",
"j  c #846C41",
"k  c #896E40",
"l  c #867043",
"z  c #8C7344",
"x  c #8C7649",
"c  c #8E784C",
"v  c #927645",
"b  c #957847",
"n  c #927649",
"m  c #957B4B",
"M  c #9A7E4D",
"N  c #8C745F",
"B  c #947151",
"V  c #967D51",
"C  c #9A7F51",
"Z  c #9C7A5A",
"A  c #997353",
"S  c #A27954",
"D  c #847364",
"F  c #897662",
"G  c #84756A",
"H  c #887C6D",
"J  c #967F65",
"K  c #987E62",
"L  c #837874",
"P  c #8C7D70",
"I  c #877B7B",
"U  c #897D7A",
"Y  c #9D814E",
"T  c #9D8253",
"R  c #A0814F",
"E  c #A38552",
"W  c #A98552",
"Q  c #A58956",
"!  c #AC8A55",
"~  c #A3875A",
"^  c #A9845E",
"/  c #A6895A",
"(  c #AC8D5A",
")  c #B28154",
"_  c #B28B56",
"`  c #BB8B57",
"'  c #B38D5B",
"]  c #B88F5B",
"[  c #AF905E",
"{  c #B3915D",
"}  c #BB935D",
"|  c #9C8162",
" . c #9C836C",
".. c #8E8175",
"X. c #9E8B7A",
"o. c #9C8A75",
"O. c #A88260",
"+. c #A28967",
"@. c #AD8D63",
"#. c #A4896D",
"$. c #AB8D6C",
"%. c #B28C62",
"&. c #AF9163",
"*. c #B59463",
"=. c #BA9662",
"-. c #BC9964",
";. c #B2926E",
":. c #BD9B6A",
">. c #A88C70",
",. c #A18B73",
"<. c #BC9876",
"1. c #B3987C",
"2. c #B9997A",
"3. c #B49573",
"4. c #C08F5B",
"5. c #C1965E",
"6. c #C19762",
"7. c #C39B63",
"8. c #CD9E65",
"9. c #C39D6B",
"0. c #CA9E69",
"q. c #C49E72",
"w. c #C99F72",
"e. c #C19F79",
"r. c #C6A067",
"t. c #CEA066",
"y. c #C5A16B",
"u. c #CDA36A",
"i. c #CDA96E",
"p. c #D0A267",
"a. c #D1A56C",
"s. c #D2A96D",
"d. c #C5A271",
"f. c #CCA573",
"g. c #CEA975",
"h. c #C5A47D",
"j. c #CBA77A",
"k. c #CEAA7A",
"l. c #D1A771",
"z. c #D3AA74",
"x. c #D5AE7B",
"c. c #D6B17E",
"v. c #D8B17F",
"b. c #8E8180",
"n. c #928684",
"m. c #978883",
"M. c #97898A",
"N. c #9B8C8D",
"B. c #9E8F90",
"V. c #A48F81",
"C. c #A4918D",
"Z. c #B59A89",
"A. c #B39A86",
"S. c #A49495",
"D. c #A99599",
"F. c #AC9B9C",
"G. c #B39D93",
"H. c #BCA28B",
"J. c #BBA393",
"K. c #BAA59B",
"L. c #B19EA0",
"P. c #B5A5A6",
"I. c #B9A4A1",
"U. c #B6A5A8",
"Y. c #C6A585",
"T. c #C9A783",
"R. c #CCAB82",
"E. c #C3A689",
"W. c #C6A888",
"Q. c #D2AF81",
"!. c #D7B281",
"~. c #D9B485",
"^. c #DAB688",
"/. c #C1A691",
"(. c #C3A890",
"). c #4ee44e",
/* pixels */
").).).).).).).).).).).).).).).).).).).).).).).).).).).).).).).).).).).).).).).).).).).).).).).).).).).).).).).).).).).).).).).).",
").).).).).).).).).).o + X % # & = + > > # & = % + o + & o & = & = & & + + X O X X X O X X : : X & = X % & o X O ).).).).).).).).",
").).).).).).).).= > o = - 1 1 6 5 5 6 6 1 o . % 1 1 6 6 5 6 8 8 8 6 6 5 1 1 1 , , , + o X X X X + + & O o X o X + ).).).).).).).",
").).).).).).).+ @ = - 6 g h x M M E E Y M h f b E E ! ! ( ' { { [ ( ! T z 8 f 1 , & o o + = , < 1 2 1 & = - = o X X ).).).).).).",
").).).).).).X O % % ; v ( 7.u.u.t.a.a.a.i.s.a.a.g.s.s.z.s.s.a.z.z.s.z.l.-.z ; = - < 1 5 6 8 8 g l x z 3 8 g 8 5 = O X O ).).).).",
").).).).).+ + < 6 g ( u.p.t.t.t.t.t.8.8.0.8.8.t.t.t.8.t.a.p.a.a.p.a.p.a.z.=.5 % 6 g g h m Q { m =.i.u.u.u.-.Q h 8 , O # & ).).).",
").).).).X + 1 g g z ! } 8.t.8.8.t.8.8.} } 7.t.u.t.t.a.p.a.a.a.a.s.a.a.a.s.z.-.( { -.r.i.i.s.t.m 7.p.p.t.t.u.u.r.T g 1 & & $ ).).",
").).).X & 1 8 b Q 9 9 v R 5.t.t.w.y.6.R W 5.t.a.i.a.z.a.s.l.z.a.a.z.z.s.s.s.z.s.z.s.i.a.u.p.5.x 5.p.8.8.8.8.t.p.u.( f * $ X @ ).",
").).% o ; f b 5.6.Y } 5._ E &.Z.I.P.J.2.-.t.a.a.l.l.l.z.s.s.g.z.z.z.z.z.l.l.l.l.a.a.i.a.t.t.-.x 5.p.t.8.p.8.p.5.8.s.W 8 1 + + ).",
").+ O ; 8 v 5.8.{ } 8.8.p.` ..P.U.U.P.P.Z.*.0.g.z.g.z.z.x.x.z.g.z.z.z.z.g.z.x.l.z.l.l.a.l.t.] x } 5.} 7.8.8.p.p.8.t.r.v 8 - + ).",
").@ = 8 g ] 8.8.5.p.p.8.8.' m.P.U.P.P.P.L.V.*.f.z.z.z.g.x.x.z.x.x.x.x.z.z.x.z.z.z.z.z.l.f.a.0.W h T ! E R ` t.p.8.8.t.R f , > ).",
").O 1 1 1 R t.8.p.p.8.8.8.^ n.P.P.U.P.P.L.S.f.z.z.c.i.r.z.z.x.x.x.x.x.x.x.x.x.x.z.z.z.z.z.l.z.7.v 7.p.5.! v R 5.8.8.} { g 1 & ).",
").O - & % 6 5.t.8.8.8.8.8.^ L S.F.D.B.M...X.j.x.x.x.f.=.k.c.c.c.x.x.x.c.x.x.x.x.x.x.z.z.z.z.z.l.Q } i.t.8.5.Y ] p.8.( ` g 1 & ).",
").X X & 1 8 ! p.8.8.8.8.8.%.u d I I d G ,.f.x.x.x.x.c.c.c.c.c.c.c.c.c.c.x.x.x.x.x.j.k.z.!.z.z.z.{ Q u.u.t.t.} W 5.} R { g 1 = ).",
").X X + 1 g n 0.8.8.8.a.a.0.O.F r e | q.x.x.x.c.x.c.c.c.!.c.c.c.v.v.c.v.!.c.c.c.x.9.( / 9.z.z.z.i.T { s.t.t.] M 5.R W { g 5 # ).",
").: O O & 8 g 7.p.8.8.t.a.l.l.0.:.=.f.x.x.x.x.c.c.c.!.c.!.c.!.~.v.!.!.!.!.Q.c.!.Q.x.k.~ c :.x.z.z.-.Y _ t.t.Y ] 5.z W b 8 7 0 ).",
").@ X X & 1 j =.t.t.p.a.l.l.z.z.x.x.x.x.!.c.v.v.~.c.~.c.!.!.c.!.~.v.v.v.v.v.v.v.x.-.y.k.&.T f.c.z.x.7.C m k n 0.] j f 8 f 1 o ).",
").= O O X 1 g } p.8.a.a.l.l.x.z.x.x.z.c.c.v.v.c.c.~.~.c.c.~.~.~.!.!.~.~.~.~.~.~.Q.=.*.c.k.T &.k.x.z.z.g.-.m T t.! 6 1 6 8 7 o ).",
").X = = + 1 g 7.a.a.a.l.z.z.x.z.x.x.c.v.v.!.!.!.v.c.c.~.~.~.~.~.~.~.~.~.~.v.~.v.!.x.k.c.~.*.T k.z.z.g.Y.T.y.( u.! 1 & < = & + ).",
").% , 2 , 6 m i.a.i.l.z.z.z.x.x.x.x.c.c.!.!.!.!.~.v.~.~.~.~.~.~.^.~.~.~.~.~.v.~.~.~.~.!.!.f.Y g.c.x.#.S.P.J.Q 7.] g 1 % + X X ).",
").o - g 8 k =.s.a.a.l.l.z.x.x.x.x.c.c.c.!.v.~.~.~.~.~.~.~.~.~.~.~.~.~.^.~.~.~.~.~.!.~.!.~.k.Y d.c.z.K L S.F.| 7.Y g 6 , o X X ).",
").X < 8 z } l.t.a.l.l.z.x.x.x.x.c.c.c.~.!.~.~.~.~.~.~.~.~.^.~.d.-.c.~.^.~.^.^.^.~.~.!.!.~.k.T e.Q.x.9.K G P @.E E m 8 8 1 & X ).",
").+ - g { s.u.u.l.l.z.z.x.x.x.x.c.!.c.~.~.~.~.~.~.^.~.                ^.~.^.~.~.~.~.~.~.~.Q.T :.!.x.x.g.^ x m ^ 0.7.E k g 1 + ).",
").+ - g =.s.u.a.a.l.z.g.u.g.c.c.c.~.c.c.~.~.~.~.~.~.^.                ^.~.^.~.~.~.~.~.~.~.~./ *.~.x.v.l.c x :.l.a.a.t.=.k 6 & ).",
").+ = g =.s.t.u.l.l.x.9.' :.x.v.c.!.!.!.~.~.~.~.~.~.^.                ~.^.^.^.~.~.^.~.~.~.~.&.~ x.c.Q.d.x :.z.l.s.a.a.t.T 8 = ).",
").O - g *.s.u.s.l.z.z.i.-.g.x.!.!.!.!.~.~.^.~.~.^.^.^.                ~.~.~.~.~.~.~.~.~.~.~.d.c f.v.c.:.Q x.z.z.a.a.8.a.! 8 , ).",
").O - g -.s.a.a.l.z.z.x.x.x.c.!.!.~.!.~.~.^.~.~.^.~.~.                ^.^.~.^.^.^.~.~.~.~.~.c.Q m *.q.T *.z.z.z.z.l.p.a.{ 8 - ).",
").O & 1 ' a.a.z.l.z.x.x.x.c.c.v.!.!.~.~.^.~.~.~.^.~.~.                ^.^.^.~.^.^.^.~.~.~.~.~.k.V q q q :.x.z.z.z.a.p.a.[ 8 - ).",
").O & % n s.a.z.z.z.z.x.x.!.c.!.!.!.~.~.~.~.~.^.~.^.~.^.~.v.!.        ^.^.^.^.^.~.^.~.~.~.~.!.~.j.V , q 9.x.x.z.z.a.a.s.! 6 - ).",
").X - 6 { l.a.l.z.z.x.c.x.c.v.!.!.~.!.~.~.~.~.^.~.~.~.^.~.=.d.        ^.^.^.~.^.^.~.^.~.~.~.~.!.~.j.l q f.x.z.z.l.a.a.s.Q 6 - ).",
").X > g -.s.s.l.T.E.(.R.x.v.!.!.~.~.!.~.~.~.~.^.^.^.^.^.^.k.c.        ^.^.^.^.~.~.^.~.~.~.~.~.~.!.!.;.l j.x.z.z.z.l.a.a.T 6 + ).",
").& , g -.z.y.Z.P.P.U.K.R.!.!.!.!.~.~.~.~.^.~.^.^.^.^.^.^.^.^.        ^.~.^.^.^.~.^.^.~.~.~.~.!.!.~.k.T f.x.z.z.g.l.s.i.v - + ).",
").+ - g 9.f.o.S.P.U.U.L.Y.x.!.!.~.v.~.~.~.^.~.^.^.^.^.^.^.^.^.        ^.^.^.^.^.~.^.^.~.^.~.~.~.c.~.c.[ :.x.x.z.l.l.a.i.g $ X ).",
").& < z i.%.I S.P.U.U.L.Z.v.!.!.v.~.~.~.~.~.~.~.~.~.^.^.^.^.^.        ^.^.^.^.^.^.^.^.!.~.~.~.c.~.c.!.-.*.c.z.z.i.i.a.i.m 1 o ).",
").@ 1 m i.K L n.N.S.S.M.2.v.c.!.~.~.~.~.~.~.~.^.^.~.^.                        ~.~.~.~.~.~.~.~.~.!.~.c.-.Q z.z.g.] -.a.s.E 6 & ).",
").> 1 E s.^ u i i s d G e.v.c.!.v.v.~.~.~.~.^.~.~.^.~.                        ~.^.^.~.~.~.~.~.c.!.!.Q.*.T l.x.z.0.u.a.z.( 8 - ).",
").+ 1 E s.7.^ F D u F 3.x.c.c.!.~.c.~.~.~.~.~.^.^.~.~.                        ^.^.~.~.~.~.~.!.~.~.c.c.:.T i.x.z.l.s.u.s.=.g < ).",
").& 6 Y l.a.p.0.6.9.f.x.x.c.c.!.c.~.c.~.~.^.~.^.~.^.~.                        ^.^.~.~.~.~.c.~.c.c.c.c.g.T / z.z.l.a.u.a.-.g , ).",
").+ 1 x 9.a.a.a.z.z.z.x.x.x.c.v.c.~.~.~.~.~.~.~.^.^.^.~.^.~.h.F t t ..k.^.~.^.~.^.~.^.~.~.~.!.~.c.c.c.x.g.T [ i.s.a.p.s.r.g = ).",
").X - 8 E l.a.l.l.z.z.z.x.x.c.c.~.c.~.c.~.~.~.~.~.~.^.^.^.^.~.<.| o.j.~.^.^.~.~.~.~.~.~.~.c.~.!.c.c.c.x.x.:.E :.a.a.u.a.-.g - ).",
").X & 1 9 { a.u.a.l.z.z.x.x.x.v.c.c.!.!.~.~.~.~.~.^.~.~.^.^.^.~.!.~.^.~.~.~.^.~.~.~.~.~.~.!.!.c.x.c.Q.x.z.l.9.i.l.a.p.a.' , & ).",
").X % = 1 x 0.a.a.l.l.z.x.x.x.c.c.!.!.!.!.~.~.~.~.~.~.^.^.^.~.^.^.^.^.~.~.~.Q.y.k.^.~.~.!.!.c.c.c.c.c.x.z.z.z.a.i.t.8.s.! & % ).",
").X . . 1 7 _ a.g.l.l.z.z.x.x.c.c.!.!.!.~.v.~.~.~.~.~.~.~.~.^.~.~.^.~.~.~.^.Q.*.k.~.~.c.~.c.c.c.c.x.x.z.x.z.z.s.a.a.8.s.*.6 & ).",
").X & 6 8 < z 5.u.a.l.z.z.x.x.x.x.c.c.!.v.~.!.~.~.~.~.~.~.~.~.~.~.~.~.~.~.~.^.c.~.~.~.c.!.Q.c.c.x.x.x.z.z.z.l.a.8.8.8.s.( 8 & ).",
").X < 9 j c j Y ] u.u.:.=.g.x.x.x.x.c.c.v.~.~.~.~.~.~.~.~.~.~.^.~.^.~.~.~.~.~.~.c.~.~.c.c.c.c.g.0.x.z.z.l.l.l.a.t.8.t.z.( 5 & ).",
").o 1 g &.t.5.( E ' T q j T *.d.x.x.x.c.c.v.c.c.!.!.~.!.~.~.~.~.~.~.~.~.!.~.!.~.c.c.c.c.c.c.c.y.d.z.z.z.z.a.a.t.t.8.t.l.! 8 = ).",
").3 7 l } p.t.t.7.} ' { =.9.( W &.9.z.c.c.c.c.~.!.~.!.!.~.v.~.v.!.!.!.~.!.!.~.!.~.~.c.c.c.k.k.Q w.z.x.z.z.a.t.t.t.t.8.s.( 8 = ).",
").: 1 l } t.8.8.t.t.t.a.a.g.9.-.9.*.&.y.x.c.c.c.!.!.!.!.v.!.!.!.~.~.!.!.!.!.!.!.c.c.c.c.c.c.:.T f.z.R.Y.E.Y.y.8.8.8.8.s.( 8 = ).",
").> < g } p.8.8.8.8.t.t.u.a.l.z.z.x.y.r.g.c.c.c.c.c.!.!.!.!.!.~.!.!.!.!.!.!.c.c.!.x.x.x.9.*.x %.f.Z.P.P.P.P.H.0.8.8.8.a.' 8 8 ).",
").= < 9 T 7.8.t.8.8.8.t.a.a.l.l.z.z.x.x.x.x.x.x.c.c.c.c.!.x.c.!.v.!.c.!.c.c.c.c.x.x.x.*.n 1 j 9.$.n.L.P.U.U.G.0.t.t.8.s.! 2 = ).",
").X < 9 l b ` 5.8.} 5.t.i.a.a.f.H.(.W.x.x.x.x.x.g.x.x.x.!.c.c.!.x.c.c.c.c.x.c.x.x.x.*.~ ~ k C i.+.d n.D.D.B.V.7.t.8.8.s.Q 6 - ).",
").& - 8 Y } E R W ( t.t.8.t.0.,.D.P.P.K.j.z.z.g.=.-.g.x.x.x.x.!.x.x.x.x.x.c.x.x.x.*.T 0.z.=.( l.' p a d d s +.8.8.8.8.a.Y 6 * ).",
").+ = 8 m 8.8.7.5.8.8.8.8.8.' G n.L.U.U.K.j.x.9.C W l.x.x.x.x.x.x.x.x.x.x.x.x.x.:.V 9.z.l.y.' t.7.S u i u J 7.t.t.t.s.7.z 1 % ).",
").X = 8 z 5.8.8.8.8.8.p.8.t.S N d b.L.P.U./.l.l.y.y.z.z.z.x.z.x.x.z.l.z.z.z.z.z.( ~ z.l.a.a.' M Z =.` S %.7.8.t.u.u.*.x 6 - X ).",
").+ & 8 g } 8.8.8.8.8.8.8.p.4.A u d n.D.F.Z.g.l.z.z.z.l.z.z.z.z.z.f.] 9.z.z.z.z.%.T a.l.a.a.t.R g W 8.8.p.8.p.a.-.m g 6 , + O ).",
").O + 5 f b 5.8.p.8.p.8.8.p.8.S A r i s L ;.t.s.z.z.z.z.z.z.z.z.z.z.0.0.z.z.z.s.9.M 0.a.a.p.p.8.5.R 7.8.8.p.0.W g 6 1 & O o ).).",
").O X & 6 8 v } 8.p.8.8.8.8.8.8.4.) S A %.} { 6.u.a.a.s.l.l.l.l.z.l.l.l.l.s.a.a.i.W { 7.7.8.8.8.p.{ { t.7.( n 8 5 = X X % ).).).",
").).X X % 1 8 v 4.8.8.8.8.8.8.8.8.8.7.8.8._ M ` t.a.a.a.a.i.s.a.a.a.a.a.a.a.a.u.t.6.( ] 5.p.8.8.t.5.W E k 8 8 < + X X = ).).).).",
").).O X X + 1 6 v 4.t.p.t.t.t.8.t.t.t.8.8.7.5.8.t.u.p.s.s.l.l.l.l.s.a.s.u.u.p.t.t.t.t.t.p.t.8.8.5.} x 8 5 , & O o O = ).).).).).",
").).).o X X + & * h S _ { } -.7.r.u.u.i.a.s.a.s.s.s.i.y.-.*.*.{ *.-.7.y.i.u.i.r.r.7.=.{ _ E M b b h 8 < , - X X X % ).).).).).).",
").).).).O O X X & 6 8 8 g g g h z l m Y E E n m T m z g g 9 8 f f f g g h h l h k k g g 8 8 8 8 8 6 % % & 3 + + = ).).).).).).).",
").).).).).+ X + o & - , < - < 1 1 1 6 6 1 % & = 5 6 1 1 , - = = = - , < ; 5 1 5 1 1 5 5 6 8 6 8 6 6 * . X & O + ).).).).).).).).",
").).).).).).).).).).).).).).).).).).).).).).).).).).).).).).).).).).).).).).).).).).).).).).).).).).).).).).).).).).).).).).).).",
").).).).).).).).).).).).).).).@ O o X X O o O X O X X X O O X O + O o + + o + o & ).).).).).).).).).).).).).).).).).).).).).).)."
};
