/* XPM */
static  xpm_row_t const block4[] = {
/* columns rows colors chars-per-pixel */
"64 64 175 2 ",
"   c #031129",
".  c #5A431D",
"X  c #5B4626",
"o  c #5D4926",
"O  c #5C4629",
"+  c #5D4929",
"@  c #5A5427",
"#  c #5E5429",
"$  c #604626",
"%  c #634B25",
"&  c #60472B",
"*  c #634D2A",
"=  c #695027",
"-  c #66512C",
";  c #69532E",
":  c #73592E",
">  c #664633",
",  c #654A33",
"<  c #6C5631",
"1  c #6D5931",
"2  c #735C34",
"3  c #785E32",
"4  c #756129",
"5  c #7E692E",
"6  c #776136",
"7  c #796236",
"8  c #746039",
"9  c #7D6539",
"0  c #7F693D",
"q  c #5E4840",
"w  c #7D6740",
"e  c #7E6941",
"r  c #7F6B57",
"t  c #7F6D5E",
"y  c #6E6965",
"u  c #736A64",
"i  c #7A6D62",
"p  c #746D69",
"a  c #7B7067",
"s  c #77706C",
"d  c #7B726D",
"f  c #7C7572",
"g  c #85673A",
"h  c #836A3D",
"j  c #8A6D3F",
"k  c #846C41",
"l  c #896F41",
"z  c #867043",
"x  c #8C7344",
"c  c #8C7649",
"v  c #8E784C",
"b  c #927545",
"n  c #957847",
"m  c #927649",
"M  c #957B4B",
"N  c #9A7D4D",
"B  c #8C745F",
"V  c #967D51",
"C  c #9B7F51",
"Z  c #9B7A5A",
"A  c #977253",
"S  c #A27954",
"D  c #847364",
"F  c #8A7662",
"G  c #84766A",
"H  c #887C6D",
"J  c #967F65",
"K  c #987E62",
"L  c #837975",
"P  c #8C7D70",
"I  c #877B7B",
"U  c #897D7A",
"Y  c #9D814E",
"T  c #9D8253",
"R  c #A0814F",
"E  c #A38552",
"W  c #A98552",
"Q  c #A58956",
"!  c #AC8A56",
"~  c #A3875A",
"^  c #A9845E",
"/  c #A6895A",
"(  c #AC8D5A",
")  c #B38154",
"_  c #B28B56",
"`  c #BB8B57",
"'  c #B38D5B",
"]  c #B88F5B",
"[  c #AF905E",
"{  c #B3915D",
"}  c #BB935D",
"|  c #9D8162",
" . c #9C836C",
".. c #8E8175",
"X. c #89807E",
"o. c #9E8A74",
"O. c #9E8A7A",
"+. c #A88060",
"@. c #A28967",
"#. c #AD8D63",
"$. c #A88B6C",
"%. c #B28C62",
"&. c #AF9163",
"*. c #B59463",
"=. c #BA9662",
"-. c #BC9964",
";. c #B2926E",
":. c #BD9C6A",
">. c #AA8D71",
",. c #A18B73",
"<. c #BC9876",
"1. c #B49B7D",
"2. c #B9997A",
"3. c #B49573",
"4. c #C08F59",
"5. c #C1965E",
"6. c #C19762",
"7. c #C39A63",
"8. c #CD9E65",
"9. c #C39D6B",
"0. c #CA9E69",
"q. c #C49E72",
"w. c #C99F72",
"e. c #C19F79",
"r. c #C6A067",
"t. c #CEA066",
"y. c #C5A16B",
"u. c #CDA36A",
"i. c #CEA86E",
"p. c #D1A167",
"a. c #D1A56C",
"s. c #D2A96D",
"d. c #C5A271",
"f. c #CCA573",
"g. c #CDA975",
"h. c #C5A47D",
"j. c #CBA77A",
"k. c #CEAA7A",
"l. c #D1A771",
"z. c #D3AA74",
"x. c #D5AE7B",
"c. c #D6B17E",
"v. c #D8B17F",
"b. c #8F8180",
"n. c #928584",
"m. c #978883",
"M. c #978989",
"N. c #9B8C8D",
"B. c #9E8E91",
"V. c #A48F81",
"C. c #A4908D",
"Z. c #B39A86",
"A. c #B59A89",
"S. c #A49495",
"D. c #A99599",
"F. c #AC9A9C",
"G. c #B39D93",
"H. c #BCA28B",
"J. c #BBA293",
"K. c #BAA59B",
"L. c #B19FA0",
"P. c #B5A4A6",
"I. c #B9A5A2",
"U. c #B6A5A8",
"Y. c #C6A585",
"T. c #C9A783",
"R. c #CCAB82",
"E. c #C3A689",
"W. c #C6A888",
"Q. c #D6B281",
"!. c #D9B484",
"~. c #DAB688",
"^. c #C2A691",
"/. c #C2A891",
"(. c #4ee44e",
/* pixels */
"(.(.(.(.(.(.(.(.(.(.(.(.(.(.(.(.(.(.(.(.(.(.(.(.(.(.(.(.(.(.(.(.(.(.(.(.(.(.(.(.(.(.(.(.(.(.(.(.(.(.(.(.(.(.(.(.(.(.(.(.(.(.(.(.",
"(.(.(.(.(.(.(.(.(.(.o X X % # * - + , , # + - % + + + * o + - - * * * + + + X X X O O X X > > o * * X % % * X O (.(.(.(.(.(.(.(.",
"(.(.(.(.(.(.(.(.* , + - ; 2 2 7 7 7 7 7 7 o . % 2 2 2 7 6 9 9 9 9 7 7 6 2 2 2 < < < + X X X X + + o & o o X X o + (.(.(.(.(.(.(.",
"(.(.(.(.(.(.(.o # * ; 9 h j c N Y T E Y N j g n E E ! ( ( ' { { [ ( ! Y l g 9 7 < * + % & - ; 1 2 6 2 - - ; - o X X (.(.(.(.(.(.",
"(.(.(.(.(.(.X & % % : M ( 7.u.u.u.a.a.a.i.a.i.s.s.s.s.s.s.z.z.z.s.z.z.s.:.x 1 - - 1 2 2 6 9 9 k z x j 5 9 h 9 2 - O X O (.(.(.(.",
"(.(.(.(.(.+ + 1 7 g ( t.p.p.t.t.8.8.8.8.8.8.8.8.t.t.p.8.p.p.p.u.p.p.u.a.z.=.6 % 7 h h x M W { M =.s.a.i.r.-.Q z 9 < O # * (.(.(.",
"(.(.(.(.X * 2 h h x ! } 8.t.8.t.8.8.8.] } 7.u.p.u.u.p.a.a.a.a.a.s.a.a.a.s.z.7.! { -.r.i.i.s.u.M 5.p.u.p.t.p.a.r.E 0 : * * & (.(.",
"(.(.(.X & 2 9 b Q 9 9 c E 5.t.8.w.0.6.R W 7.p.u.a.i.l.a.s.l.l.l.a.z.l.z.s.s.s.z.z.s.i.a.u.p.5.b 7.t.t.5.8.8.t.p.i.( g = $ X @ (.",
"(.(.% o 2 g b 5.6.Y } 5._ R *.G.I.I.J.2.-.u.a.l.a.s.s.z.i.z.z.z.z.z.z.z.z.s.l.f.a.a.a.a.p.u.=.c 5.t.p.p.p.p.p.5.8.a.E 9 2 + + (.",
"(.+ + 1 9 b 5.8.{ } 8.8.p._ ..P.U.P.P.P.A.*.0.f.z.k.z.x.x.z.z.z.z.x.z.z.k.z.z.z.l.l.l.l.a.u.] x ] 5.5.5.5.p.p.p.8.8.0.x 9 = + (.",
"(.@ - 9 h ] 8.p.5.t.t.8.8.] m.P.U.P.U.P.L.V.;.i.z.z.z.g.x.x.x.z.z.x.z.x.z.x.z.z.x.z.z.l.f.a.0.W x Y ! E R ] p.p.8.8.p.Q 9 2 , (.",
"(.O : 2 : W 8.8.p.p.t.t.8.^ X.P.P.U.P.U.L.C.f.z.z.x.i.r.i.x.x.x.x.x.x.x.x.x.x.x.z.z.z.z.z.z.l.6.c 5.p.5.! n R 5.8.8.} ' h 3 & (.",
"(.+ - % % 9 6.8.8.8.8.8.8.+.L D.F.D.B.M.b.o.j.x.x.x.f.-.g.c.c.c.c.x.x.c.x.x.x.x.x.x.x.z.z.z.z.l.Q } i.t.8.5.Y _ 8.8._ ' h 2 * (.",
"(.X O * 2 9 ! p.8.8.8.8.8.] i f I I f D @.j.x.x.x.x.c.x.c.c.c.c.c.c.c.c.x.x.x.x.x.f.g.x.x.z.z.z.} E u.a.8.t.5.W 5.} W { h 2 - (.",
"(.O X + 2 9 m 0.p.8.8.p.a.0.S F t r | q.x.x.x.x.x.c.c.c.c.c.c.c.c.v.c.v.Q.x.c.c.x.9.( ~ 9.x.z.z.i.T { a.u.p.] Y 8.Y W ' h 6 # (.",
"(.> X O - 9 h 7.p.8.p.p.a.l.l.f.9.*.f.x.x.x.x.c.Q.c.Q.Q.!.c.~.c.c.Q.Q.Q.Q.Q.Q.c.Q.x.j.~ v :.z.z.z.-.N { r.t.Y _ 5.j W n 9 8 q (.",
"(.@ X X + 2 h =.p.u.8.a.z.l.z.z.x.x.x.x.Q.c.c.c.c.!.c.c.c.~.c.!.!.v.!.v.Q.v.!.v.x.-.y.k.&.T g.c.z.z.7.C M z m 7.] k g 9 h 2 o (.",
"(.* O X O 2 h } p.u.a.a.l.z.z.x.x.x.x.x.c.c.Q.Q.c.Q.!.c.c.c.!.c.Q.Q.!.v.!.!.v.v.Q.*.*.x.k.T &.k.x.x.z.i.=.M E u._ 7 2 9 9 2 + (.",
"(.$ - * o 6 h 9.p.a.a.z.z.z.z.z.x.x.x.x.v.Q.Q.Q.Q.c.!.c.~.!.!.!.!.Q.!.!.!.v.!.!.Q.x.x.Q.Q.*.T j.x.x.j.Y.T.y.( t.! 2 % < - * X (.",
"(.% < 9 ; 7 M i.p.u.l.a.z.z.x.x.x.x.Q.v.v.Q.Q.Q.!.Q.!.!.~.~.!.!.~.!.!.!.!.!.v.!.!.Q.Q.Q.Q.j.T g.x.z.>.S.I.J.Q 7.' h 3 & o X X (.",
"(.* 1 9 9 j -.s.a.a.l.z.k.x.x.x.c.c.v.v.Q.Q.Q.!.~.c.~.!.!.~.!.v.!.~.!.!.!.!.~.~.!.!.Q.Q.Q.k.T d.x.z.J L B.L.| 9.Y h 9 < + O X (.",
"(.o ; 9 z } s.u.a.l.z.z.x.x.x.x.c.c.c.v.Q.Q.!.!.c.~.~.!.!.!.!.i.:.x.!.!.!.!.!.!.!.Q.!.Q.Q.x.T d.Q.x.9.K G P #.E E n 9 9 2 * X (.",
"(.+ ; h { s.u.u.s.a.z.z.z.x.x.x.c.Q.v.!.!.!.!.~.~.~.!.~.!.~.~.                !.!.!.!.Q.!.c.T :.Q.x.x.z.^ c M ^ 0.7.E l h 2 + (.",
"(.o ; h =.s.u.a.a.l.g.z.f.z.c.c.c.c.!.v.v.!.!.!.!.!.!.!.!.~.!.                !.~.!.~.!.!.Q.@.*.Q.c.x.g.c c :.l.a.a.u.} l 7 * (.",
"(.O - h =.a.p.a.z.z.z.9.' -.x.v.Q.Q.Q.!.!.v.~.!.!.!.~.~.~.                    !.Q.!.~.!.v.!.&.~ c.c.c.q.c :.z.l.a.a.u.u.R 9 - (.",
"(.O - h *.s.u.a.i.z.z.f.-.g.c.c.c.Q.Q.Q.!.!.~.!.~.!.~.~.!.                    ~.~.~.!.!.!.!.d.v d.Q.x.9./ z.x.l.l.a.u.a.! 9 ; (.",
"(.X - h -.s.a.a.z.l.z.x.c.x.c.Q.Q.Q.Q.!.~.~.~.!.~.v.!.            ~.~.        !.!.!.!.~.!.!.v.Q V *.d.T %.x.z.z.l.a.a.a.[ 9 ; (.",
"(.& - 2 { s.a.l.l.z.x.x.x.c.c.v.!.Q.!.~.!.!.!.!.~.~.~.            ~.~.        !.!.~.!.!.!.!.!.k.V 9 w 9 :.x.z.z.l.l.p.a.( 9 < (.",
"(.O * % b a.l.l.z.z.x.x.x.x.c.Q.Q.Q.!.~.!.!.~.~.~.~.!.        ~.~.~.~.        ~.~.!.~.!.~.!.!.!.j.V < w y.x.z.z.l.l.u.s.! 9 = (.",
"(.X < 7 { z.a.l.z.z.x.x.x.Q.v.Q.Q.!.Q.~.!.!.!.!.~.v.~.        ~.~.~.~.        ~.!.!.~.Q.Q.~.Q.Q.!.j.z w f.x.x.z.z.a.a.s.Q 9 ; (.",
"(.X < h -.s.a.l.T.E.^.R.x.v.v.Q.Q.Q.~.!.~.~.!.~.~.~.~.                        ~.!.~.~.!.!.!.!.Q.Q.Q.;.z g.x.x.z.l.l.a.s.Y 9 + (.",
"(.& ; k -.z.y.A.P.P.P.K.R.Q.Q.Q.Q.!.!.Q.!.!.!.!.~.~.~.                        ~.~.~.!.~.Q.~.!.Q.!.!.k.T d.x.x.z.f.l.a.i.b ; + (.",
"(.& ; h y.f.o.S.U.U.U.L.Y.x.Q.Q.Q.!.!.!.!.!.!.~.!.~.~.                        ~.!.~.!.~.~.Q.!.!.c.!.k.[ :.c.z.z.z.z.a.i.h . X (.",
"(.- 1 x i.%.U S.L.U.U.L.A.v.Q.Q.!.Q.!.!.!.!.~.!.~.~.~.                        ~.~.!.!.~.!.!.!.c.!.c.c.:.{ c.z.z.i.u.a.s.M 2 & (.",
"(.@ 2 N i.K f n.B.S.S.M.2.Q.c.Q.Q.!.!.!.!.~.!.~.!.!.~.~.~.~.!.J.I.P.I.        ~.!.~.!.~.!.!.!.!.!.c.c.-.Q x.x.s.' 7.a.s.T 7 * (.",
"(., 2 R s.^ i p p s f G e.c.Q.Q.c.Q.!.!.!.!.!.~.~.~.!.~.~.~.1.S.U.P.P.        !.~.~.!.!.~.!.!.c.!.c.!.*.T g.z.g.y.u.a.z.[ g - (.",
"(.o 7 E z.7.^ F D i B 3.x.v.v.Q.Q.Q.!.!.~.c.~.~.~.~.v.~.~.!.o.X.F.P.F.        ~.~.~.!.!.!.!.Q.!.c.c.c.:.Y i.x.z.z.i.a.s.=.h 1 (.",
"(.& 6 Y z.p.8.0.9.9.w.x.x.x.x.Q.Q.!.c.!.!.~.~.!.~.~.~.!.~.!.>.d L X.f         ~.!.!.!.!.!.!.!.c.!.c.c.g.T / i.z.l.a.t.s.-.h < (.",
"(.o 6 c r.a.a.a.l.z.z.x.x.v.v.c.c.!.c.!.!.!.!.~.~.~.~.v.~.~.h.F y y ..j.~.~.~.!.!.!.!.!.!.c.c.!.c.c.c.x.g.Q [ g.a.a.u.a.r.h - (.",
"(.X - 9 / a.a.a.l.x.z.z.x.x.x.v.c.c.!.Q.!.!.!.~.c.~.~.~.!.!.!.<.| o.j.~.~.~.!.!.!.!.!.!.!.!.!.!.k.c.c.c.c.:.T -.a.a.p.s.-.h - (.",
"(.X * 2 0 [ p.i.a.z.z.z.x.x.v.c.c.c.v.!.Q.!.!.!.~.!.~.!.!.~.~.!.Q.!.~.~.!.~.!.~.~.!.!.!.Q.!.Q.c.c.x.x.x.x.l.9.y.l.a.8.s.' ; & (.",
"(.X % - 8 c 8.a.a.l.z.z.x.x.x.c.c.!.!.v.Q.!.!.!.!.!.!.!.~.!.!.!.~.!.!.~.!.~.c.:.k.!.!.!.!.Q.c.c.v.c.x.x.z.z.z.z.a.u.8.s.( = % (.",
"(.X . . 1 9 ' t.a.l.l.z.z.x.x.x.c.c.v.!.!.v.!.!.!.!.~.~.!.~.~.~.!.~.!.!.!.~.c.*.g.!.!.Q.c.c.c.c.c.x.x.x.z.x.s.a.u.8.8.s.*.7 * (.",
"(.X * 7 9 1 x 6.u.s.l.z.z.x.x.x.c.c.v.v.c.!.c.!.Q.!.!.~.!.!.~.!.!.!.!.!.!.!.~.c.!.!.!.c.!.c.!.c.x.x.x.z.z.l.z.a.p.8.8.z.( 9 * (.",
"(.X ; 0 k m z Y *.p.u.:.-.s.x.x.x.c.c.c.c.Q.!.!.!.!.Q.!.Q.!.!.~.!.!.!.!.!.!.~.!.!.c.!.c.c.c.c.g.9.x.x.l.z.f.a.a.u.8.t.z.( 7 * (.",
"(.o 6 j &.r.5.( E _ C w k T *.y.g.c.c.c.v.Q.c.c.Q.Q.!.v.!.!.!.!.!.!.!.!.Q.!.Q.!.c.!.c.c.c.c.c.:.d.x.z.z.z.l.a.p.t.8.8.s.! 9 - (.",
"(.4 8 z =.p.8.t.7.} ' ' =.9.( Q [ y.k.c.c.c.!.c.Q.!.Q.Q.!.Q.Q.!.Q.!.Q.!.Q.Q.!.Q.c.c.c.c.c.c.k.Q w.z.z.z.l.a.p.t.8.8.8.s.( 9 - (.",
"(.> 2 z } p.8.8.8.u.p.a.a.k.9.=.y.*.[ y.c.c.c.c.Q.v.Q.Q.v.!.Q.Q.Q.!.Q.Q.Q.Q.Q.Q.!.c.c.c.c.k.:.T f.z.R.T.Y.Y.y.8.8.t.t.s.( 9 - (.",
"(., 1 k } p.t.8.8.8.t.u.a.a.a.z.z.x.r.y.g.c.c.c.c.c.c.c.Q.Q.Q.Q.Q.Q.Q.c.Q.c.v.v.c.Q.x.z.9.*.c %.f.A.P.I.U.P.H.0.8.8.8.a._ 9 9 (.",
"(.- 1 0 E 5.t.8.t.8.8.t.a.a.f.z.z.x.x.x.z.c.x.x.c.c.c.c.c.c.c.v.Q.Q.c.v.c.c.c.c.x.x.x.%.m 2 k 9.$.n.L.P.P.P.G.0.8.8.8.s.( 3 - (.",
"(.+ < 9 z M _ 5.8.} 5.t.u.a.a.f.H.J.W.x.x.c.x.x.x.z.c.x.c.c.c.c.c.c.c.c.c.c.x.c.x.x.:.~ / l C u.@.f n.D.F.B.O.0.8.8.8.s.Q 9 ; (.",
"(.% ; 9 Y } E E Q ! 8.t.8.u.8.,.D.P.I.K.j.z.z.g.=.=.g.c.c.x.x.c.c.x.x.x.c.x.x.x.x.*.T u.z.*.( l.%.a s f f s @.8.8.8.8.s.Y 9 % (.",
"(.+ - 9 M 8.8.5.5.8.8.8.8.8.` G b.L.U.U.K.T.z.9.Y W l.x.x.x.x.x.x.x.x.z.x.x.x.x.:.M 9.z.z.u.( u.7.S t y u K 0.8.t.t.a.9.j 2 o (.",
"(.X * 9 x 7.t.8.8.8.8.8.8.8.S D f b.L.U.U.E.x.l.y.y.x.z.z.x.z.x.x.z.f.z.x.z.z.z.( ~ z.z.f.a._ N C =.] ^ %.7.8.8.p.i.{ m 9 ; X (.",
"(.+ * 9 g } 8.8.8.p.8.p.8.8.4.A i f n.D.D.A.l.l.z.x.z.z.z.z.z.x.z.g.' r.z.z.z.x.%.T a.a.a.a.8.W k W 8.8.8.8.p.s.=.M h 7 1 + + (.",
"(.+ + 6 g n 5.8.8.8.8.8.8.8.8.) A D u d L ;.u.a.l.l.l.l.z.z.z.z.z.l.9.i.l.z.l.a.9.C 0.a.p.p.p.8.5.S 5.p.8.p.8.W h 9 1 * o o (.(.",
"(.O X * 3 9 b } 8.p.t.8.8.8.8.8.} S S S ' } } 7.i.a.a.a.l.l.l.z.l.l.a.l.l.a.a.a.u.W { 7.7.8.8.8.p._ } t.6.( c 9 6 - o X * (.(.(.",
"(.(.X X * 2 9 b 5.8.t.8.8.8.8.8.t.8.8.8.8._ N _ u.p.a.a.a.a.a.s.a.a.s.a.a.u.a.a.u.7.( ' 8.8.8.8.t.5.Q E z 9 9 1 + X X * (.(.(.(.",
"(.(.X X X + 2 9 b 4.8.p.r.t.8.t.t.t.8.8.8.7.5.8.8.p.a.s.s.z.z.s.z.s.a.a.u.u.p.t.t.t.u.8.8.t.8.7.8.} x 9 7 < * O o X - (.(.(.(.(.",
"(.(.(.o X X + * = j S _ } } 7.-.r.u.u.u.a.s.a.a.s.z.i.r.-.*.{ %.=.=.9.r.i.i.i.r.r.7.=.{ _ E N n b g 9 2 < ; X X X * (.(.(.(.(.(.",
"(.(.(.(.+ X X X * 7 9 9 h h h h l c n T E T m M Y M x j h 9 9 h g h h h h j j x z l h h 9 9 9 9 9 7 % % % 6 o + * (.(.(.(.(.(.(.",
"(.(.(.(.(.& X + + * - < < 1 1 2 2 2 6 7 2 = * * 2 7 2 2 < < - - * - : 1 : 8 2 6 2 2 7 6 7 9 9 7 7 7 = . X * o + (.(.(.(.(.(.(.(.",
"(.(.(.(.(.(.(.(.(.(.(.(.(.(.(.(.(.(.(.(.(.(.(.(.(.(.(.(.(.(.(.(.(.(.(.(.(.(.(.(.(.(.(.(.(.(.(.(.(.(.(.(.(.(.(.(.(.(.(.(.(.(.(.(.",
"(.(.(.(.(.(.(.(.(.(.(.(.(.(.(.@ + + X O O o O X X X X X X O X O + O X + + X + o % (.(.(.(.(.(.(.(.(.(.(.(.(.(.(.(.(.(.(.(.(.(.(."
};
